%TF.GenerationSoftware,KiCad,Pcbnew,(6.0.5)*%
%TF.CreationDate,2023-02-15T12:53:04-05:00*%
%TF.ProjectId,wow_and_flutter,776f775f-616e-4645-9f66-6c7574746572,rev?*%
%TF.SameCoordinates,Original*%
%TF.FileFunction,Copper,L2,Bot*%
%TF.FilePolarity,Positive*%
%FSLAX46Y46*%
G04 Gerber Fmt 4.6, Leading zero omitted, Abs format (unit mm)*
G04 Created by KiCad (PCBNEW (6.0.5)) date 2023-02-15 12:53:04*
%MOMM*%
%LPD*%
G01*
G04 APERTURE LIST*
%TA.AperFunction,ComponentPad*%
%ADD10C,8.000000*%
%TD*%
G04 APERTURE END LIST*
D10*
%TO.P,H7,*%
%TO.N,*%
X91440000Y-138430000D03*
%TD*%
%TA.AperFunction,NonConductor*%
G36*
X106113621Y-25928502D02*
G01*
X106160114Y-25982158D01*
X106171500Y-26034500D01*
X106171500Y-153265500D01*
X106151498Y-153333621D01*
X106097842Y-153380114D01*
X106045500Y-153391500D01*
X76834500Y-153391500D01*
X76766379Y-153371498D01*
X76719886Y-153317842D01*
X76708500Y-153265500D01*
X76708500Y-151032703D01*
X81590743Y-151032703D01*
X81628268Y-151317734D01*
X81704129Y-151595036D01*
X81816923Y-151859476D01*
X81964561Y-152106161D01*
X82144313Y-152330528D01*
X82352851Y-152528423D01*
X82586317Y-152696186D01*
X82590112Y-152698195D01*
X82590113Y-152698196D01*
X82611869Y-152709715D01*
X82840392Y-152830712D01*
X83110373Y-152929511D01*
X83391264Y-152990755D01*
X83419841Y-152993004D01*
X83614282Y-153008307D01*
X83614291Y-153008307D01*
X83616739Y-153008500D01*
X83772271Y-153008500D01*
X83774407Y-153008354D01*
X83774418Y-153008354D01*
X83982548Y-152994165D01*
X83982554Y-152994164D01*
X83986825Y-152993873D01*
X83991020Y-152993004D01*
X83991022Y-152993004D01*
X84127583Y-152964724D01*
X84268342Y-152935574D01*
X84539343Y-152839607D01*
X84794812Y-152707750D01*
X84798313Y-152705289D01*
X84798317Y-152705287D01*
X84912418Y-152625095D01*
X85030023Y-152542441D01*
X85240622Y-152346740D01*
X85422713Y-152124268D01*
X85572927Y-151879142D01*
X85688483Y-151615898D01*
X85767244Y-151339406D01*
X85807751Y-151054784D01*
X85807845Y-151036951D01*
X85809235Y-150771583D01*
X85809235Y-150771576D01*
X85809257Y-150767297D01*
X85771732Y-150482266D01*
X85695871Y-150204964D01*
X85583077Y-149940524D01*
X85435439Y-149693839D01*
X85255687Y-149469472D01*
X85047149Y-149271577D01*
X84813683Y-149103814D01*
X84791843Y-149092250D01*
X84768654Y-149079972D01*
X84559608Y-148969288D01*
X84289627Y-148870489D01*
X84008736Y-148809245D01*
X83977685Y-148806801D01*
X83785718Y-148791693D01*
X83785709Y-148791693D01*
X83783261Y-148791500D01*
X83627729Y-148791500D01*
X83625593Y-148791646D01*
X83625582Y-148791646D01*
X83417452Y-148805835D01*
X83417446Y-148805836D01*
X83413175Y-148806127D01*
X83408980Y-148806996D01*
X83408978Y-148806996D01*
X83272417Y-148835276D01*
X83131658Y-148864426D01*
X82860657Y-148960393D01*
X82605188Y-149092250D01*
X82601687Y-149094711D01*
X82601683Y-149094713D01*
X82591594Y-149101804D01*
X82369977Y-149257559D01*
X82159378Y-149453260D01*
X81977287Y-149675732D01*
X81827073Y-149920858D01*
X81711517Y-150184102D01*
X81632756Y-150460594D01*
X81592249Y-150745216D01*
X81592227Y-150749505D01*
X81592226Y-150749512D01*
X81590765Y-151028417D01*
X81590743Y-151032703D01*
X76708500Y-151032703D01*
X76708500Y-138587512D01*
X86929433Y-138587512D01*
X86929662Y-138590357D01*
X86929662Y-138590360D01*
X86957465Y-138935910D01*
X86962273Y-138995668D01*
X87031969Y-139399168D01*
X87137949Y-139794691D01*
X87279340Y-140178980D01*
X87454979Y-140548874D01*
X87572260Y-140747186D01*
X87633473Y-140850691D01*
X87663418Y-140901326D01*
X87902944Y-141233436D01*
X88171584Y-141542471D01*
X88467126Y-141825886D01*
X88469344Y-141827656D01*
X88469349Y-141827661D01*
X88627133Y-141953618D01*
X88787139Y-142081349D01*
X88789520Y-142082919D01*
X89079482Y-142274113D01*
X89128989Y-142306757D01*
X89131519Y-142308113D01*
X89131518Y-142308113D01*
X89438340Y-142472630D01*
X89489860Y-142500255D01*
X89866784Y-142660250D01*
X89869522Y-142661129D01*
X90253931Y-142784549D01*
X90253935Y-142784550D01*
X90256657Y-142785424D01*
X90259447Y-142786048D01*
X90259452Y-142786049D01*
X90653477Y-142874125D01*
X90653488Y-142874127D01*
X90656271Y-142874749D01*
X91062335Y-142927487D01*
X91471509Y-142943206D01*
X91474371Y-142943056D01*
X91474372Y-142943056D01*
X91877566Y-142921926D01*
X91877573Y-142921925D01*
X91880422Y-142921776D01*
X91883245Y-142921369D01*
X91883247Y-142921369D01*
X92282889Y-142863780D01*
X92282896Y-142863779D01*
X92285711Y-142863373D01*
X92684038Y-142768478D01*
X92686736Y-142767570D01*
X92686743Y-142767568D01*
X93069414Y-142638785D01*
X93069420Y-142638783D01*
X93072126Y-142637872D01*
X93446779Y-142472630D01*
X93804914Y-142274113D01*
X94143583Y-142043954D01*
X94459998Y-141784047D01*
X94462036Y-141782038D01*
X94462043Y-141782031D01*
X94707161Y-141540311D01*
X94751555Y-141496533D01*
X94757261Y-141489781D01*
X95014008Y-141185963D01*
X95014013Y-141185957D01*
X95015854Y-141183778D01*
X95250719Y-140848356D01*
X95454217Y-140493027D01*
X95596815Y-140181567D01*
X95623485Y-140123316D01*
X95623488Y-140123307D01*
X95624674Y-140120718D01*
X95760685Y-139734492D01*
X95861133Y-139337528D01*
X95925189Y-138933095D01*
X95952326Y-138524520D01*
X95953316Y-138430000D01*
X95934741Y-138020947D01*
X95879169Y-137615260D01*
X95787057Y-137216280D01*
X95781460Y-137199255D01*
X95660057Y-136830005D01*
X95660054Y-136829998D01*
X95659164Y-136827290D01*
X95496542Y-136451492D01*
X95300529Y-136091980D01*
X95220190Y-135971971D01*
X95074332Y-135754090D01*
X95074324Y-135754079D01*
X95072740Y-135751713D01*
X94815049Y-135433491D01*
X94636382Y-135249763D01*
X94531567Y-135141980D01*
X94531563Y-135141976D01*
X94529577Y-135139934D01*
X94527419Y-135138084D01*
X94527409Y-135138075D01*
X94220849Y-134875321D01*
X94220844Y-134875317D01*
X94218675Y-134873458D01*
X94216344Y-134871801D01*
X94216337Y-134871796D01*
X94010663Y-134725632D01*
X93884900Y-134636257D01*
X93658345Y-134504399D01*
X93533474Y-134431722D01*
X93533469Y-134431719D01*
X93531001Y-134430283D01*
X93296846Y-134321095D01*
X93162487Y-134258442D01*
X93162477Y-134258438D01*
X93159891Y-134257232D01*
X93157194Y-134256261D01*
X92777314Y-134119495D01*
X92777305Y-134119492D01*
X92774624Y-134118527D01*
X92512247Y-134050183D01*
X92381140Y-134016032D01*
X92381134Y-134016031D01*
X92378371Y-134015311D01*
X91974395Y-133948433D01*
X91971552Y-133948224D01*
X91971550Y-133948224D01*
X91568865Y-133918653D01*
X91566019Y-133918444D01*
X91396043Y-133921411D01*
X91159458Y-133925540D01*
X91159453Y-133925540D01*
X91156607Y-133925590D01*
X91153774Y-133925898D01*
X91153770Y-133925898D01*
X90824896Y-133961625D01*
X90749527Y-133969813D01*
X90348130Y-134050749D01*
X90345402Y-134051562D01*
X90345391Y-134051565D01*
X90032867Y-134144733D01*
X89955721Y-134167731D01*
X89953060Y-134168795D01*
X89953058Y-134168796D01*
X89728927Y-134258442D01*
X89575529Y-134319797D01*
X89572982Y-134321095D01*
X89213227Y-134504399D01*
X89213222Y-134504402D01*
X89210684Y-134505695D01*
X88864189Y-134723894D01*
X88538896Y-134972599D01*
X88237483Y-135249763D01*
X87962430Y-135553104D01*
X87716002Y-135880125D01*
X87500227Y-136228135D01*
X87498947Y-136230691D01*
X87498942Y-136230700D01*
X87389635Y-136448982D01*
X87316881Y-136594269D01*
X87315840Y-136596925D01*
X87315837Y-136596932D01*
X87225561Y-136827290D01*
X87167473Y-136975513D01*
X87166681Y-136978240D01*
X87166677Y-136978251D01*
X87096715Y-137219063D01*
X87053233Y-137368729D01*
X86975101Y-137770681D01*
X86933721Y-138178060D01*
X86929433Y-138587512D01*
X76708500Y-138587512D01*
X76708500Y-128396196D01*
X88429044Y-128396196D01*
X88429405Y-128399810D01*
X88429405Y-128399816D01*
X88453694Y-128643157D01*
X88463503Y-128741431D01*
X88537414Y-129080417D01*
X88649797Y-129408661D01*
X88799163Y-129721812D01*
X88983532Y-130015721D01*
X88985804Y-130018557D01*
X88985809Y-130018564D01*
X89042252Y-130089016D01*
X89200459Y-130286491D01*
X89447071Y-130530534D01*
X89720098Y-130744614D01*
X90015921Y-130925895D01*
X90019206Y-130927420D01*
X90019210Y-130927422D01*
X90258653Y-131038567D01*
X90330620Y-131071973D01*
X90434926Y-131106469D01*
X90656578Y-131179774D01*
X90656583Y-131179775D01*
X90660023Y-131180913D01*
X90663578Y-131181649D01*
X90663581Y-131181650D01*
X90996214Y-131250535D01*
X90996217Y-131250535D01*
X90999764Y-131251270D01*
X91138221Y-131263627D01*
X91302076Y-131278251D01*
X91302082Y-131278251D01*
X91304869Y-131278500D01*
X91528432Y-131278500D01*
X91530251Y-131278395D01*
X91530255Y-131278395D01*
X91782754Y-131263836D01*
X91782759Y-131263835D01*
X91786374Y-131263627D01*
X91861388Y-131250535D01*
X92124585Y-131204600D01*
X92124592Y-131204598D01*
X92128158Y-131203976D01*
X92131633Y-131202947D01*
X92131640Y-131202945D01*
X92264863Y-131163482D01*
X92460820Y-131105437D01*
X92464159Y-131104013D01*
X92776614Y-130970740D01*
X92776617Y-130970738D01*
X92779952Y-130969316D01*
X92783099Y-130967521D01*
X92783103Y-130967519D01*
X93078184Y-130799208D01*
X93081324Y-130797417D01*
X93360940Y-130592018D01*
X93615096Y-130355842D01*
X93840422Y-130092019D01*
X94033931Y-129804047D01*
X94193060Y-129495741D01*
X94315698Y-129171189D01*
X94400220Y-128834692D01*
X94445506Y-128490711D01*
X94450956Y-128143804D01*
X94441163Y-128045685D01*
X94416857Y-127802177D01*
X94416497Y-127798569D01*
X94342586Y-127459583D01*
X94230203Y-127131339D01*
X94080837Y-126818188D01*
X93896468Y-126524279D01*
X93894196Y-126521443D01*
X93894191Y-126521436D01*
X93681813Y-126256345D01*
X93679541Y-126253509D01*
X93432929Y-126009466D01*
X93159902Y-125795386D01*
X92864079Y-125614105D01*
X92860794Y-125612580D01*
X92860790Y-125612578D01*
X92552663Y-125469551D01*
X92549380Y-125468027D01*
X92379112Y-125411716D01*
X92223422Y-125360226D01*
X92223417Y-125360225D01*
X92219977Y-125359087D01*
X92216422Y-125358351D01*
X92216419Y-125358350D01*
X91883786Y-125289465D01*
X91883783Y-125289465D01*
X91880236Y-125288730D01*
X91725947Y-125274960D01*
X91577924Y-125261749D01*
X91577918Y-125261749D01*
X91575131Y-125261500D01*
X91351568Y-125261500D01*
X91349749Y-125261605D01*
X91349745Y-125261605D01*
X91097246Y-125276164D01*
X91097241Y-125276165D01*
X91093626Y-125276373D01*
X91024669Y-125288408D01*
X90755415Y-125335400D01*
X90755408Y-125335402D01*
X90751842Y-125336024D01*
X90748367Y-125337053D01*
X90748360Y-125337055D01*
X90670137Y-125360226D01*
X90419180Y-125434563D01*
X90415844Y-125435986D01*
X90415841Y-125435987D01*
X90103386Y-125569260D01*
X90103383Y-125569262D01*
X90100048Y-125570684D01*
X90096901Y-125572479D01*
X90096897Y-125572481D01*
X90020602Y-125615999D01*
X89798676Y-125742583D01*
X89519060Y-125947982D01*
X89264904Y-126184158D01*
X89039578Y-126447981D01*
X88846069Y-126735953D01*
X88686940Y-127044259D01*
X88564302Y-127368811D01*
X88479780Y-127705308D01*
X88434494Y-128049289D01*
X88429044Y-128396196D01*
X76708500Y-128396196D01*
X76708500Y-113030000D01*
X87751445Y-113030000D01*
X87771651Y-113415559D01*
X87832049Y-113796894D01*
X87931976Y-114169826D01*
X88070337Y-114530270D01*
X88245618Y-114874277D01*
X88455896Y-115198078D01*
X88698869Y-115498125D01*
X88971875Y-115771131D01*
X89271922Y-116014104D01*
X89595723Y-116224382D01*
X89598657Y-116225877D01*
X89598664Y-116225881D01*
X89936790Y-116398165D01*
X89939730Y-116399663D01*
X90300174Y-116538024D01*
X90673106Y-116637951D01*
X90875643Y-116670030D01*
X91051193Y-116697835D01*
X91051201Y-116697836D01*
X91054441Y-116698349D01*
X91343543Y-116713500D01*
X91536457Y-116713500D01*
X91825559Y-116698349D01*
X91828799Y-116697836D01*
X91828807Y-116697835D01*
X92004357Y-116670030D01*
X92206894Y-116637951D01*
X92579826Y-116538024D01*
X92940270Y-116399663D01*
X92943210Y-116398165D01*
X93281336Y-116225881D01*
X93281343Y-116225877D01*
X93284277Y-116224382D01*
X93608078Y-116014104D01*
X93908125Y-115771131D01*
X94181131Y-115498125D01*
X94424104Y-115198078D01*
X94632585Y-114877046D01*
X94632586Y-114877044D01*
X94634382Y-114874278D01*
X94635882Y-114871336D01*
X94808165Y-114533210D01*
X94809663Y-114530270D01*
X94948024Y-114169826D01*
X95047951Y-113796894D01*
X95108349Y-113415559D01*
X95128555Y-113030000D01*
X95108349Y-112644441D01*
X95047951Y-112263106D01*
X94948024Y-111890174D01*
X94809663Y-111529730D01*
X94634382Y-111185723D01*
X94424104Y-110861922D01*
X94181131Y-110561875D01*
X93908125Y-110288869D01*
X93608078Y-110045896D01*
X93284277Y-109835618D01*
X93281343Y-109834123D01*
X93281336Y-109834119D01*
X92943210Y-109661835D01*
X92940270Y-109660337D01*
X92579826Y-109521976D01*
X92206894Y-109422049D01*
X92004357Y-109389970D01*
X91828807Y-109362165D01*
X91828799Y-109362164D01*
X91825559Y-109361651D01*
X91536457Y-109346500D01*
X91343543Y-109346500D01*
X91054441Y-109361651D01*
X91051201Y-109362164D01*
X91051193Y-109362165D01*
X90875643Y-109389970D01*
X90673106Y-109422049D01*
X90300174Y-109521976D01*
X89939730Y-109660337D01*
X89936790Y-109661835D01*
X89598664Y-109834119D01*
X89598657Y-109834123D01*
X89595723Y-109835618D01*
X89271922Y-110045896D01*
X88971875Y-110288869D01*
X88698869Y-110561875D01*
X88455896Y-110861922D01*
X88454094Y-110864697D01*
X88247416Y-111182953D01*
X88247414Y-111182956D01*
X88245618Y-111185722D01*
X88244123Y-111188656D01*
X88244119Y-111188663D01*
X88071835Y-111526790D01*
X88070337Y-111529730D01*
X87931976Y-111890174D01*
X87832049Y-112263106D01*
X87771651Y-112644441D01*
X87751445Y-113030000D01*
X76708500Y-113030000D01*
X76708500Y-86444052D01*
X87427391Y-86444052D01*
X87427612Y-86447171D01*
X87427612Y-86447178D01*
X87443735Y-86674895D01*
X87455579Y-86842168D01*
X87523169Y-87235515D01*
X87629491Y-87620205D01*
X87630614Y-87623107D01*
X87630617Y-87623117D01*
X87712390Y-87834487D01*
X87773495Y-87992433D01*
X87953757Y-88348518D01*
X87955436Y-88351148D01*
X87955442Y-88351159D01*
X88081363Y-88548434D01*
X88168494Y-88684939D01*
X88170423Y-88687386D01*
X88170428Y-88687393D01*
X88315769Y-88871756D01*
X88415582Y-88998368D01*
X88417757Y-89000624D01*
X88417762Y-89000630D01*
X88542283Y-89129800D01*
X88692578Y-89285708D01*
X88694971Y-89287741D01*
X88994348Y-89542081D01*
X88994357Y-89542088D01*
X88996743Y-89544115D01*
X88999323Y-89545898D01*
X89322497Y-89769258D01*
X89322506Y-89769263D01*
X89325069Y-89771035D01*
X89327804Y-89772548D01*
X89327809Y-89772551D01*
X89494018Y-89864492D01*
X89674309Y-89964224D01*
X89677178Y-89965457D01*
X89677189Y-89965462D01*
X90038142Y-90120539D01*
X90041010Y-90121771D01*
X90043987Y-90122712D01*
X90043991Y-90122714D01*
X90174707Y-90164054D01*
X90421545Y-90242118D01*
X90812152Y-90324076D01*
X90815269Y-90324412D01*
X90815270Y-90324412D01*
X91206516Y-90366570D01*
X91206519Y-90366570D01*
X91208967Y-90366834D01*
X91211430Y-90366905D01*
X91211431Y-90366905D01*
X91214681Y-90366999D01*
X91266803Y-90368500D01*
X91540217Y-90368500D01*
X91541780Y-90368422D01*
X91541788Y-90368422D01*
X91639009Y-90363582D01*
X91838619Y-90353645D01*
X91841704Y-90353181D01*
X91841706Y-90353181D01*
X92230203Y-90294773D01*
X92233296Y-90294308D01*
X92236332Y-90293537D01*
X92617085Y-90196838D01*
X92617088Y-90196837D01*
X92620128Y-90196065D01*
X92623076Y-90194995D01*
X92992352Y-90060955D01*
X92992362Y-90060951D01*
X92995290Y-90059888D01*
X93355071Y-89887123D01*
X93695915Y-89679479D01*
X93872862Y-89545898D01*
X94011957Y-89440892D01*
X94011960Y-89440890D01*
X94014451Y-89439009D01*
X94016733Y-89436899D01*
X94016742Y-89436892D01*
X94305231Y-89170214D01*
X94307528Y-89168091D01*
X94572249Y-88869405D01*
X94805995Y-88545903D01*
X95006455Y-88200785D01*
X95101188Y-87992433D01*
X95170349Y-87840321D01*
X95171648Y-87837464D01*
X95246420Y-87617194D01*
X95298931Y-87462499D01*
X95298932Y-87462496D01*
X95299938Y-87459532D01*
X95300642Y-87456494D01*
X95300645Y-87456484D01*
X95389353Y-87073770D01*
X95389353Y-87073768D01*
X95390058Y-87070728D01*
X95441117Y-86674895D01*
X95452609Y-86275948D01*
X95436487Y-86048240D01*
X95424643Y-85880968D01*
X95424421Y-85877832D01*
X95356831Y-85484485D01*
X95250509Y-85099795D01*
X95249386Y-85096893D01*
X95249383Y-85096883D01*
X95107635Y-84730488D01*
X95106505Y-84727567D01*
X94926243Y-84371482D01*
X94924564Y-84368852D01*
X94924558Y-84368841D01*
X94713187Y-84037695D01*
X94711506Y-84035061D01*
X94709577Y-84032614D01*
X94709572Y-84032607D01*
X94466362Y-83724098D01*
X94464418Y-83721632D01*
X94462243Y-83719376D01*
X94462238Y-83719370D01*
X94337717Y-83590200D01*
X94187422Y-83434292D01*
X94006975Y-83280991D01*
X93885652Y-83177919D01*
X93885643Y-83177912D01*
X93883257Y-83175885D01*
X93818504Y-83131131D01*
X93557503Y-82950742D01*
X93557494Y-82950737D01*
X93554931Y-82948965D01*
X93552196Y-82947452D01*
X93552191Y-82947449D01*
X93342618Y-82831520D01*
X93205691Y-82755776D01*
X93202822Y-82754543D01*
X93202811Y-82754538D01*
X92841858Y-82599461D01*
X92841855Y-82599460D01*
X92838990Y-82598229D01*
X92836013Y-82597288D01*
X92836009Y-82597286D01*
X92705293Y-82555946D01*
X92458455Y-82477882D01*
X92067848Y-82395924D01*
X92064730Y-82395588D01*
X91673484Y-82353430D01*
X91673481Y-82353430D01*
X91671033Y-82353166D01*
X91668570Y-82353095D01*
X91668569Y-82353095D01*
X91665319Y-82353001D01*
X91613197Y-82351500D01*
X91339783Y-82351500D01*
X91338220Y-82351578D01*
X91338212Y-82351578D01*
X91240991Y-82356418D01*
X91041381Y-82366355D01*
X91038296Y-82366819D01*
X91038294Y-82366819D01*
X90686720Y-82419676D01*
X90646704Y-82425692D01*
X90643669Y-82426463D01*
X90643668Y-82426463D01*
X90262915Y-82523162D01*
X90262912Y-82523163D01*
X90259872Y-82523935D01*
X90256925Y-82525005D01*
X90256924Y-82525005D01*
X89887648Y-82659045D01*
X89887638Y-82659049D01*
X89884710Y-82660112D01*
X89524929Y-82832877D01*
X89184085Y-83040521D01*
X89181575Y-83042416D01*
X89004777Y-83175885D01*
X88865549Y-83280991D01*
X88863267Y-83283101D01*
X88863258Y-83283108D01*
X88701908Y-83432259D01*
X88572472Y-83551909D01*
X88307751Y-83850595D01*
X88074005Y-84174097D01*
X87873545Y-84519215D01*
X87872255Y-84522052D01*
X87872253Y-84522056D01*
X87777484Y-84730488D01*
X87708352Y-84882536D01*
X87707344Y-84885505D01*
X87707341Y-84885513D01*
X87581069Y-85257501D01*
X87580062Y-85260468D01*
X87579358Y-85263506D01*
X87579355Y-85263516D01*
X87490647Y-85646230D01*
X87489942Y-85649272D01*
X87438883Y-86045105D01*
X87427391Y-86444052D01*
X76708500Y-86444052D01*
X76708500Y-63584052D01*
X87427391Y-63584052D01*
X87427612Y-63587171D01*
X87427612Y-63587178D01*
X87443735Y-63814895D01*
X87455579Y-63982168D01*
X87523169Y-64375515D01*
X87629491Y-64760205D01*
X87630614Y-64763107D01*
X87630617Y-64763117D01*
X87712390Y-64974487D01*
X87773495Y-65132433D01*
X87953757Y-65488518D01*
X87955436Y-65491148D01*
X87955442Y-65491159D01*
X88081363Y-65688434D01*
X88168494Y-65824939D01*
X88170423Y-65827386D01*
X88170428Y-65827393D01*
X88315769Y-66011756D01*
X88415582Y-66138368D01*
X88417757Y-66140624D01*
X88417762Y-66140630D01*
X88542283Y-66269800D01*
X88692578Y-66425708D01*
X88694971Y-66427741D01*
X88994348Y-66682081D01*
X88994357Y-66682088D01*
X88996743Y-66684115D01*
X88999323Y-66685898D01*
X89322497Y-66909258D01*
X89322506Y-66909263D01*
X89325069Y-66911035D01*
X89327804Y-66912548D01*
X89327809Y-66912551D01*
X89494018Y-67004492D01*
X89674309Y-67104224D01*
X89677178Y-67105457D01*
X89677189Y-67105462D01*
X90038142Y-67260539D01*
X90041010Y-67261771D01*
X90043987Y-67262712D01*
X90043991Y-67262714D01*
X90174707Y-67304054D01*
X90421545Y-67382118D01*
X90812152Y-67464076D01*
X90815269Y-67464412D01*
X90815270Y-67464412D01*
X91206516Y-67506570D01*
X91206519Y-67506570D01*
X91208967Y-67506834D01*
X91211430Y-67506905D01*
X91211431Y-67506905D01*
X91214681Y-67506999D01*
X91266803Y-67508500D01*
X91540217Y-67508500D01*
X91541780Y-67508422D01*
X91541788Y-67508422D01*
X91639009Y-67503582D01*
X91838619Y-67493645D01*
X91841704Y-67493181D01*
X91841706Y-67493181D01*
X92230203Y-67434773D01*
X92233296Y-67434308D01*
X92236332Y-67433537D01*
X92617085Y-67336838D01*
X92617088Y-67336837D01*
X92620128Y-67336065D01*
X92623076Y-67334995D01*
X92992352Y-67200955D01*
X92992362Y-67200951D01*
X92995290Y-67199888D01*
X93355071Y-67027123D01*
X93695915Y-66819479D01*
X93872862Y-66685898D01*
X94011957Y-66580892D01*
X94011960Y-66580890D01*
X94014451Y-66579009D01*
X94016733Y-66576899D01*
X94016742Y-66576892D01*
X94305231Y-66310214D01*
X94307528Y-66308091D01*
X94572249Y-66009405D01*
X94805995Y-65685903D01*
X95006455Y-65340785D01*
X95101188Y-65132433D01*
X95170349Y-64980321D01*
X95171648Y-64977464D01*
X95246420Y-64757194D01*
X95298931Y-64602499D01*
X95298932Y-64602496D01*
X95299938Y-64599532D01*
X95300642Y-64596494D01*
X95300645Y-64596484D01*
X95389353Y-64213770D01*
X95389353Y-64213768D01*
X95390058Y-64210728D01*
X95441117Y-63814895D01*
X95452609Y-63415948D01*
X95436487Y-63188240D01*
X95424643Y-63020968D01*
X95424421Y-63017832D01*
X95356831Y-62624485D01*
X95250509Y-62239795D01*
X95249386Y-62236893D01*
X95249383Y-62236883D01*
X95107635Y-61870488D01*
X95106505Y-61867567D01*
X94926243Y-61511482D01*
X94924564Y-61508852D01*
X94924558Y-61508841D01*
X94713187Y-61177695D01*
X94711506Y-61175061D01*
X94709577Y-61172614D01*
X94709572Y-61172607D01*
X94466362Y-60864098D01*
X94464418Y-60861632D01*
X94462243Y-60859376D01*
X94462238Y-60859370D01*
X94337717Y-60730200D01*
X94187422Y-60574292D01*
X94006975Y-60420991D01*
X93885652Y-60317919D01*
X93885643Y-60317912D01*
X93883257Y-60315885D01*
X93818504Y-60271131D01*
X93557503Y-60090742D01*
X93557494Y-60090737D01*
X93554931Y-60088965D01*
X93552196Y-60087452D01*
X93552191Y-60087449D01*
X93342618Y-59971520D01*
X93205691Y-59895776D01*
X93202822Y-59894543D01*
X93202811Y-59894538D01*
X92841858Y-59739461D01*
X92841855Y-59739460D01*
X92838990Y-59738229D01*
X92836013Y-59737288D01*
X92836009Y-59737286D01*
X92705293Y-59695946D01*
X92458455Y-59617882D01*
X92067848Y-59535924D01*
X92064730Y-59535588D01*
X91673484Y-59493430D01*
X91673481Y-59493430D01*
X91671033Y-59493166D01*
X91668570Y-59493095D01*
X91668569Y-59493095D01*
X91665319Y-59493001D01*
X91613197Y-59491500D01*
X91339783Y-59491500D01*
X91338220Y-59491578D01*
X91338212Y-59491578D01*
X91240991Y-59496418D01*
X91041381Y-59506355D01*
X91038296Y-59506819D01*
X91038294Y-59506819D01*
X90686720Y-59559676D01*
X90646704Y-59565692D01*
X90643669Y-59566463D01*
X90643668Y-59566463D01*
X90262915Y-59663162D01*
X90262912Y-59663163D01*
X90259872Y-59663935D01*
X90256925Y-59665005D01*
X90256924Y-59665005D01*
X89887648Y-59799045D01*
X89887638Y-59799049D01*
X89884710Y-59800112D01*
X89524929Y-59972877D01*
X89184085Y-60180521D01*
X89181575Y-60182416D01*
X89004777Y-60315885D01*
X88865549Y-60420991D01*
X88863267Y-60423101D01*
X88863258Y-60423108D01*
X88701908Y-60572259D01*
X88572472Y-60691909D01*
X88307751Y-60990595D01*
X88074005Y-61314097D01*
X87873545Y-61659215D01*
X87872255Y-61662052D01*
X87872253Y-61662056D01*
X87777484Y-61870488D01*
X87708352Y-62022536D01*
X87707344Y-62025505D01*
X87707341Y-62025513D01*
X87581069Y-62397501D01*
X87580062Y-62400468D01*
X87579358Y-62403506D01*
X87579355Y-62403516D01*
X87490647Y-62786230D01*
X87489942Y-62789272D01*
X87438883Y-63185105D01*
X87427391Y-63584052D01*
X76708500Y-63584052D01*
X76708500Y-40724052D01*
X87427391Y-40724052D01*
X87427612Y-40727171D01*
X87427612Y-40727178D01*
X87443735Y-40954895D01*
X87455579Y-41122168D01*
X87523169Y-41515515D01*
X87629491Y-41900205D01*
X87630614Y-41903107D01*
X87630617Y-41903117D01*
X87712390Y-42114487D01*
X87773495Y-42272433D01*
X87953757Y-42628518D01*
X87955436Y-42631148D01*
X87955442Y-42631159D01*
X88081363Y-42828434D01*
X88168494Y-42964939D01*
X88170423Y-42967386D01*
X88170428Y-42967393D01*
X88315769Y-43151756D01*
X88415582Y-43278368D01*
X88417757Y-43280624D01*
X88417762Y-43280630D01*
X88542283Y-43409800D01*
X88692578Y-43565708D01*
X88694971Y-43567741D01*
X88994348Y-43822081D01*
X88994357Y-43822088D01*
X88996743Y-43824115D01*
X88999323Y-43825898D01*
X89322497Y-44049258D01*
X89322506Y-44049263D01*
X89325069Y-44051035D01*
X89327804Y-44052548D01*
X89327809Y-44052551D01*
X89494018Y-44144492D01*
X89674309Y-44244224D01*
X89677178Y-44245457D01*
X89677189Y-44245462D01*
X90038142Y-44400539D01*
X90041010Y-44401771D01*
X90043987Y-44402712D01*
X90043991Y-44402714D01*
X90174707Y-44444054D01*
X90421545Y-44522118D01*
X90812152Y-44604076D01*
X90815269Y-44604412D01*
X90815270Y-44604412D01*
X91206516Y-44646570D01*
X91206519Y-44646570D01*
X91208967Y-44646834D01*
X91211430Y-44646905D01*
X91211431Y-44646905D01*
X91214681Y-44646999D01*
X91266803Y-44648500D01*
X91540217Y-44648500D01*
X91541780Y-44648422D01*
X91541788Y-44648422D01*
X91639009Y-44643582D01*
X91838619Y-44633645D01*
X91841704Y-44633181D01*
X91841706Y-44633181D01*
X92230203Y-44574773D01*
X92233296Y-44574308D01*
X92236332Y-44573537D01*
X92617085Y-44476838D01*
X92617088Y-44476837D01*
X92620128Y-44476065D01*
X92623076Y-44474995D01*
X92992352Y-44340955D01*
X92992362Y-44340951D01*
X92995290Y-44339888D01*
X93355071Y-44167123D01*
X93695915Y-43959479D01*
X93872862Y-43825898D01*
X94011957Y-43720892D01*
X94011960Y-43720890D01*
X94014451Y-43719009D01*
X94016733Y-43716899D01*
X94016742Y-43716892D01*
X94305231Y-43450214D01*
X94307528Y-43448091D01*
X94572249Y-43149405D01*
X94805995Y-42825903D01*
X95006455Y-42480785D01*
X95101188Y-42272433D01*
X95170349Y-42120321D01*
X95171648Y-42117464D01*
X95246420Y-41897194D01*
X95298931Y-41742499D01*
X95298932Y-41742496D01*
X95299938Y-41739532D01*
X95300642Y-41736494D01*
X95300645Y-41736484D01*
X95389353Y-41353770D01*
X95389353Y-41353768D01*
X95390058Y-41350728D01*
X95441117Y-40954895D01*
X95452609Y-40555948D01*
X95436487Y-40328240D01*
X95424643Y-40160968D01*
X95424421Y-40157832D01*
X95356831Y-39764485D01*
X95250509Y-39379795D01*
X95249386Y-39376893D01*
X95249383Y-39376883D01*
X95107635Y-39010488D01*
X95106505Y-39007567D01*
X94926243Y-38651482D01*
X94924564Y-38648852D01*
X94924558Y-38648841D01*
X94713187Y-38317695D01*
X94711506Y-38315061D01*
X94709577Y-38312614D01*
X94709572Y-38312607D01*
X94466362Y-38004098D01*
X94464418Y-38001632D01*
X94462243Y-37999376D01*
X94462238Y-37999370D01*
X94337717Y-37870200D01*
X94187422Y-37714292D01*
X94006975Y-37560991D01*
X93885652Y-37457919D01*
X93885643Y-37457912D01*
X93883257Y-37455885D01*
X93818504Y-37411131D01*
X93557503Y-37230742D01*
X93557494Y-37230737D01*
X93554931Y-37228965D01*
X93552196Y-37227452D01*
X93552191Y-37227449D01*
X93342618Y-37111520D01*
X93205691Y-37035776D01*
X93202822Y-37034543D01*
X93202811Y-37034538D01*
X92841858Y-36879461D01*
X92841855Y-36879460D01*
X92838990Y-36878229D01*
X92836013Y-36877288D01*
X92836009Y-36877286D01*
X92705293Y-36835946D01*
X92458455Y-36757882D01*
X92067848Y-36675924D01*
X92064730Y-36675588D01*
X91673484Y-36633430D01*
X91673481Y-36633430D01*
X91671033Y-36633166D01*
X91668570Y-36633095D01*
X91668569Y-36633095D01*
X91665319Y-36633001D01*
X91613197Y-36631500D01*
X91339783Y-36631500D01*
X91338220Y-36631578D01*
X91338212Y-36631578D01*
X91240991Y-36636418D01*
X91041381Y-36646355D01*
X91038296Y-36646819D01*
X91038294Y-36646819D01*
X90686720Y-36699676D01*
X90646704Y-36705692D01*
X90643669Y-36706463D01*
X90643668Y-36706463D01*
X90262915Y-36803162D01*
X90262912Y-36803163D01*
X90259872Y-36803935D01*
X90256925Y-36805005D01*
X90256924Y-36805005D01*
X89887648Y-36939045D01*
X89887638Y-36939049D01*
X89884710Y-36940112D01*
X89524929Y-37112877D01*
X89184085Y-37320521D01*
X89181575Y-37322416D01*
X89004777Y-37455885D01*
X88865549Y-37560991D01*
X88863267Y-37563101D01*
X88863258Y-37563108D01*
X88701908Y-37712259D01*
X88572472Y-37831909D01*
X88307751Y-38130595D01*
X88074005Y-38454097D01*
X87873545Y-38799215D01*
X87872255Y-38802052D01*
X87872253Y-38802056D01*
X87777484Y-39010488D01*
X87708352Y-39162536D01*
X87707344Y-39165505D01*
X87707341Y-39165513D01*
X87581069Y-39537501D01*
X87580062Y-39540468D01*
X87579358Y-39543506D01*
X87579355Y-39543516D01*
X87490647Y-39926230D01*
X87489942Y-39929272D01*
X87438883Y-40325105D01*
X87427391Y-40724052D01*
X76708500Y-40724052D01*
X76708500Y-28532703D01*
X96830743Y-28532703D01*
X96868268Y-28817734D01*
X96944129Y-29095036D01*
X97056923Y-29359476D01*
X97204561Y-29606161D01*
X97384313Y-29830528D01*
X97592851Y-30028423D01*
X97826317Y-30196186D01*
X97830112Y-30198195D01*
X97830113Y-30198196D01*
X97851869Y-30209715D01*
X98080392Y-30330712D01*
X98350373Y-30429511D01*
X98631264Y-30490755D01*
X98659841Y-30493004D01*
X98854282Y-30508307D01*
X98854291Y-30508307D01*
X98856739Y-30508500D01*
X99012271Y-30508500D01*
X99014407Y-30508354D01*
X99014418Y-30508354D01*
X99222548Y-30494165D01*
X99222554Y-30494164D01*
X99226825Y-30493873D01*
X99231020Y-30493004D01*
X99231022Y-30493004D01*
X99367584Y-30464723D01*
X99508342Y-30435574D01*
X99779343Y-30339607D01*
X100034812Y-30207750D01*
X100038313Y-30205289D01*
X100038317Y-30205287D01*
X100152417Y-30125096D01*
X100270023Y-30042441D01*
X100480622Y-29846740D01*
X100662713Y-29624268D01*
X100812927Y-29379142D01*
X100928483Y-29115898D01*
X101007244Y-28839406D01*
X101047751Y-28554784D01*
X101047845Y-28536951D01*
X101049235Y-28271583D01*
X101049235Y-28271576D01*
X101049257Y-28267297D01*
X101011732Y-27982266D01*
X100935871Y-27704964D01*
X100823077Y-27440524D01*
X100675439Y-27193839D01*
X100495687Y-26969472D01*
X100287149Y-26771577D01*
X100053683Y-26603814D01*
X100031843Y-26592250D01*
X100008654Y-26579972D01*
X99799608Y-26469288D01*
X99529627Y-26370489D01*
X99248736Y-26309245D01*
X99217685Y-26306801D01*
X99025718Y-26291693D01*
X99025709Y-26291693D01*
X99023261Y-26291500D01*
X98867729Y-26291500D01*
X98865593Y-26291646D01*
X98865582Y-26291646D01*
X98657452Y-26305835D01*
X98657446Y-26305836D01*
X98653175Y-26306127D01*
X98648980Y-26306996D01*
X98648978Y-26306996D01*
X98512417Y-26335276D01*
X98371658Y-26364426D01*
X98100657Y-26460393D01*
X97845188Y-26592250D01*
X97841687Y-26594711D01*
X97841683Y-26594713D01*
X97831594Y-26601804D01*
X97609977Y-26757559D01*
X97399378Y-26953260D01*
X97217287Y-27175732D01*
X97067073Y-27420858D01*
X96951517Y-27684102D01*
X96872756Y-27960594D01*
X96832249Y-28245216D01*
X96832227Y-28249505D01*
X96832226Y-28249512D01*
X96830765Y-28528417D01*
X96830743Y-28532703D01*
X76708500Y-28532703D01*
X76708500Y-26034500D01*
X76728502Y-25966379D01*
X76782158Y-25919886D01*
X76834500Y-25908500D01*
X106045500Y-25908500D01*
X106113621Y-25928502D01*
G37*
%TD.AperFunction*%
M02*
