%TF.GenerationSoftware,KiCad,Pcbnew,(6.0.5)*%
%TF.CreationDate,2023-02-15T12:53:04-05:00*%
%TF.ProjectId,wow_and_flutter,776f775f-616e-4645-9f66-6c7574746572,rev?*%
%TF.SameCoordinates,Original*%
%TF.FileFunction,Legend,Bot*%
%TF.FilePolarity,Positive*%
%FSLAX46Y46*%
G04 Gerber Fmt 4.6, Leading zero omitted, Abs format (unit mm)*
G04 Created by KiCad (PCBNEW (6.0.5)) date 2023-02-15 12:53:04*
%MOMM*%
%LPD*%
G01*
G04 APERTURE LIST*
%ADD10C,0.150000*%
G04 APERTURE END LIST*
D10*
X102201904Y-96902380D02*
X101963809Y-97902380D01*
X101773333Y-97188095D01*
X101582857Y-97902380D01*
X101344761Y-96902380D01*
X100773333Y-96902380D02*
X100582857Y-96902380D01*
X100487619Y-96950000D01*
X100392380Y-97045238D01*
X100344761Y-97235714D01*
X100344761Y-97569047D01*
X100392380Y-97759523D01*
X100487619Y-97854761D01*
X100582857Y-97902380D01*
X100773333Y-97902380D01*
X100868571Y-97854761D01*
X100963809Y-97759523D01*
X101011428Y-97569047D01*
X101011428Y-97235714D01*
X100963809Y-97045238D01*
X100868571Y-96950000D01*
X100773333Y-96902380D01*
X100011428Y-96902380D02*
X99773333Y-97902380D01*
X99582857Y-97188095D01*
X99392380Y-97902380D01*
X99154285Y-96902380D01*
X97201904Y-97902380D02*
X97249523Y-97902380D01*
X97344761Y-97854761D01*
X97487619Y-97711904D01*
X97725714Y-97426190D01*
X97820952Y-97283333D01*
X97868571Y-97140476D01*
X97868571Y-97045238D01*
X97820952Y-96950000D01*
X97725714Y-96902380D01*
X97678095Y-96902380D01*
X97582857Y-96950000D01*
X97535238Y-97045238D01*
X97535238Y-97092857D01*
X97582857Y-97188095D01*
X97630476Y-97235714D01*
X97916190Y-97426190D01*
X97963809Y-97473809D01*
X98011428Y-97569047D01*
X98011428Y-97711904D01*
X97963809Y-97807142D01*
X97916190Y-97854761D01*
X97820952Y-97902380D01*
X97678095Y-97902380D01*
X97582857Y-97854761D01*
X97535238Y-97807142D01*
X97392380Y-97616666D01*
X97344761Y-97473809D01*
X97344761Y-97378571D01*
X95678095Y-97378571D02*
X96011428Y-97378571D01*
X96011428Y-97902380D02*
X96011428Y-96902380D01*
X95535238Y-96902380D01*
X94678095Y-97902380D02*
X95154285Y-97902380D01*
X95154285Y-96902380D01*
X94344761Y-96902380D02*
X94344761Y-97711904D01*
X94297142Y-97807142D01*
X94249523Y-97854761D01*
X94154285Y-97902380D01*
X93963809Y-97902380D01*
X93868571Y-97854761D01*
X93820952Y-97807142D01*
X93773333Y-97711904D01*
X93773333Y-96902380D01*
X93440000Y-96902380D02*
X92868571Y-96902380D01*
X93154285Y-97902380D02*
X93154285Y-96902380D01*
X92678095Y-96902380D02*
X92106666Y-96902380D01*
X92392380Y-97902380D02*
X92392380Y-96902380D01*
X91773333Y-97378571D02*
X91440000Y-97378571D01*
X91297142Y-97902380D02*
X91773333Y-97902380D01*
X91773333Y-96902380D01*
X91297142Y-96902380D01*
X90297142Y-97902380D02*
X90630476Y-97426190D01*
X90868571Y-97902380D02*
X90868571Y-96902380D01*
X90487619Y-96902380D01*
X90392380Y-96950000D01*
X90344761Y-96997619D01*
X90297142Y-97092857D01*
X90297142Y-97235714D01*
X90344761Y-97330952D01*
X90392380Y-97378571D01*
X90487619Y-97426190D01*
X90868571Y-97426190D01*
X88773333Y-97378571D02*
X89106666Y-97378571D01*
X89106666Y-97902380D02*
X89106666Y-96902380D01*
X88630476Y-96902380D01*
X88249523Y-97902380D02*
X88249523Y-97235714D01*
X88249523Y-97426190D02*
X88201904Y-97330952D01*
X88154285Y-97283333D01*
X88059047Y-97235714D01*
X87963809Y-97235714D01*
X87487619Y-97902380D02*
X87582857Y-97854761D01*
X87630476Y-97807142D01*
X87678095Y-97711904D01*
X87678095Y-97426190D01*
X87630476Y-97330952D01*
X87582857Y-97283333D01*
X87487619Y-97235714D01*
X87344761Y-97235714D01*
X87249523Y-97283333D01*
X87201904Y-97330952D01*
X87154285Y-97426190D01*
X87154285Y-97711904D01*
X87201904Y-97807142D01*
X87249523Y-97854761D01*
X87344761Y-97902380D01*
X87487619Y-97902380D01*
X86725714Y-97235714D02*
X86725714Y-97902380D01*
X86725714Y-97330952D02*
X86678095Y-97283333D01*
X86582857Y-97235714D01*
X86440000Y-97235714D01*
X86344761Y-97283333D01*
X86297142Y-97378571D01*
X86297142Y-97902380D01*
X85963809Y-97235714D02*
X85582857Y-97235714D01*
X85820952Y-96902380D02*
X85820952Y-97759523D01*
X85773333Y-97854761D01*
X85678095Y-97902380D01*
X85582857Y-97902380D01*
X84487619Y-97902380D02*
X84487619Y-96902380D01*
X84106666Y-96902380D01*
X84011428Y-96950000D01*
X83963809Y-96997619D01*
X83916190Y-97092857D01*
X83916190Y-97235714D01*
X83963809Y-97330952D01*
X84011428Y-97378571D01*
X84106666Y-97426190D01*
X84487619Y-97426190D01*
X83059047Y-97902380D02*
X83059047Y-97378571D01*
X83106666Y-97283333D01*
X83201904Y-97235714D01*
X83392380Y-97235714D01*
X83487619Y-97283333D01*
X83059047Y-97854761D02*
X83154285Y-97902380D01*
X83392380Y-97902380D01*
X83487619Y-97854761D01*
X83535238Y-97759523D01*
X83535238Y-97664285D01*
X83487619Y-97569047D01*
X83392380Y-97521428D01*
X83154285Y-97521428D01*
X83059047Y-97473809D01*
X82582857Y-97235714D02*
X82582857Y-97902380D01*
X82582857Y-97330952D02*
X82535238Y-97283333D01*
X82440000Y-97235714D01*
X82297142Y-97235714D01*
X82201904Y-97283333D01*
X82154285Y-97378571D01*
X82154285Y-97902380D01*
X81297142Y-97854761D02*
X81392380Y-97902380D01*
X81582857Y-97902380D01*
X81678095Y-97854761D01*
X81725714Y-97759523D01*
X81725714Y-97378571D01*
X81678095Y-97283333D01*
X81582857Y-97235714D01*
X81392380Y-97235714D01*
X81297142Y-97283333D01*
X81249523Y-97378571D01*
X81249523Y-97473809D01*
X81725714Y-97569047D01*
X80678095Y-97902380D02*
X80773333Y-97854761D01*
X80820952Y-97759523D01*
X80820952Y-96902380D01*
X103416190Y-99512380D02*
X103416190Y-98512380D01*
X103082857Y-99226666D01*
X102749523Y-98512380D01*
X102749523Y-99512380D01*
X101844761Y-99512380D02*
X101844761Y-98988571D01*
X101892380Y-98893333D01*
X101987619Y-98845714D01*
X102178095Y-98845714D01*
X102273333Y-98893333D01*
X101844761Y-99464761D02*
X101940000Y-99512380D01*
X102178095Y-99512380D01*
X102273333Y-99464761D01*
X102320952Y-99369523D01*
X102320952Y-99274285D01*
X102273333Y-99179047D01*
X102178095Y-99131428D01*
X101940000Y-99131428D01*
X101844761Y-99083809D01*
X101463809Y-99512380D02*
X100940000Y-98845714D01*
X101463809Y-98845714D02*
X100940000Y-99512380D01*
X99797142Y-99512380D02*
X99797142Y-98512380D01*
X99416190Y-98512380D01*
X99320952Y-98560000D01*
X99273333Y-98607619D01*
X99225714Y-98702857D01*
X99225714Y-98845714D01*
X99273333Y-98940952D01*
X99320952Y-98988571D01*
X99416190Y-99036190D01*
X99797142Y-99036190D01*
X98797142Y-99512380D02*
X98797142Y-98845714D01*
X98797142Y-99036190D02*
X98749523Y-98940952D01*
X98701904Y-98893333D01*
X98606666Y-98845714D01*
X98511428Y-98845714D01*
X98035238Y-99512380D02*
X98130476Y-99464761D01*
X98178095Y-99417142D01*
X98225714Y-99321904D01*
X98225714Y-99036190D01*
X98178095Y-98940952D01*
X98130476Y-98893333D01*
X98035238Y-98845714D01*
X97892380Y-98845714D01*
X97797142Y-98893333D01*
X97749523Y-98940952D01*
X97701904Y-99036190D01*
X97701904Y-99321904D01*
X97749523Y-99417142D01*
X97797142Y-99464761D01*
X97892380Y-99512380D01*
X98035238Y-99512380D01*
X97320952Y-99464761D02*
X97225714Y-99512380D01*
X97035238Y-99512380D01*
X96940000Y-99464761D01*
X96892380Y-99369523D01*
X96892380Y-99321904D01*
X96940000Y-99226666D01*
X97035238Y-99179047D01*
X97178095Y-99179047D01*
X97273333Y-99131428D01*
X97320952Y-99036190D01*
X97320952Y-98988571D01*
X97273333Y-98893333D01*
X97178095Y-98845714D01*
X97035238Y-98845714D01*
X96940000Y-98893333D01*
X96463809Y-99512380D02*
X96463809Y-98512380D01*
X96368571Y-99131428D02*
X96082857Y-99512380D01*
X96082857Y-98845714D02*
X96463809Y-99226666D01*
X95225714Y-99512380D02*
X95225714Y-98988571D01*
X95273333Y-98893333D01*
X95368571Y-98845714D01*
X95559047Y-98845714D01*
X95654285Y-98893333D01*
X95225714Y-99464761D02*
X95320952Y-99512380D01*
X95559047Y-99512380D01*
X95654285Y-99464761D01*
X95701904Y-99369523D01*
X95701904Y-99274285D01*
X95654285Y-99179047D01*
X95559047Y-99131428D01*
X95320952Y-99131428D01*
X95225714Y-99083809D01*
X94320952Y-98845714D02*
X94320952Y-99512380D01*
X94749523Y-98845714D02*
X94749523Y-99369523D01*
X94701904Y-99464761D01*
X94606666Y-99512380D01*
X94463809Y-99512380D01*
X94368571Y-99464761D01*
X94320952Y-99417142D01*
X93463809Y-99464761D02*
X93559047Y-99512380D01*
X93749523Y-99512380D01*
X93844761Y-99464761D01*
X93892380Y-99369523D01*
X93892380Y-98988571D01*
X93844761Y-98893333D01*
X93749523Y-98845714D01*
X93559047Y-98845714D01*
X93463809Y-98893333D01*
X93416190Y-98988571D01*
X93416190Y-99083809D01*
X93892380Y-99179047D01*
X92987619Y-99512380D02*
X92987619Y-98845714D01*
X92987619Y-99036190D02*
X92940000Y-98940952D01*
X92892380Y-98893333D01*
X92797142Y-98845714D01*
X92701904Y-98845714D01*
X90940000Y-98845714D02*
X90701904Y-99512380D01*
X90463809Y-98845714D01*
X89892380Y-98512380D02*
X89797142Y-98512380D01*
X89701904Y-98560000D01*
X89654285Y-98607619D01*
X89606666Y-98702857D01*
X89559047Y-98893333D01*
X89559047Y-99131428D01*
X89606666Y-99321904D01*
X89654285Y-99417142D01*
X89701904Y-99464761D01*
X89797142Y-99512380D01*
X89892380Y-99512380D01*
X89987619Y-99464761D01*
X90035238Y-99417142D01*
X90082857Y-99321904D01*
X90130476Y-99131428D01*
X90130476Y-98893333D01*
X90082857Y-98702857D01*
X90035238Y-98607619D01*
X89987619Y-98560000D01*
X89892380Y-98512380D01*
X89130476Y-99417142D02*
X89082857Y-99464761D01*
X89130476Y-99512380D01*
X89178095Y-99464761D01*
X89130476Y-99417142D01*
X89130476Y-99512380D01*
X88130476Y-99512380D02*
X88701904Y-99512380D01*
X88416190Y-99512380D02*
X88416190Y-98512380D01*
X88511428Y-98655238D01*
X88606666Y-98750476D01*
X88701904Y-98798095D01*
X85844761Y-98988571D02*
X86178095Y-98988571D01*
X86178095Y-99512380D02*
X86178095Y-98512380D01*
X85701904Y-98512380D01*
X84940000Y-99464761D02*
X85035238Y-99512380D01*
X85225714Y-99512380D01*
X85320952Y-99464761D01*
X85368571Y-99369523D01*
X85368571Y-98988571D01*
X85320952Y-98893333D01*
X85225714Y-98845714D01*
X85035238Y-98845714D01*
X84940000Y-98893333D01*
X84892380Y-98988571D01*
X84892380Y-99083809D01*
X85368571Y-99179047D01*
X84463809Y-99512380D02*
X84463809Y-98512380D01*
X84463809Y-98893333D02*
X84368571Y-98845714D01*
X84178095Y-98845714D01*
X84082857Y-98893333D01*
X84035238Y-98940952D01*
X83987619Y-99036190D01*
X83987619Y-99321904D01*
X84035238Y-99417142D01*
X84082857Y-99464761D01*
X84178095Y-99512380D01*
X84368571Y-99512380D01*
X84463809Y-99464761D01*
X82844761Y-98607619D02*
X82797142Y-98560000D01*
X82701904Y-98512380D01*
X82463809Y-98512380D01*
X82368571Y-98560000D01*
X82320952Y-98607619D01*
X82273333Y-98702857D01*
X82273333Y-98798095D01*
X82320952Y-98940952D01*
X82892380Y-99512380D01*
X82273333Y-99512380D01*
X81654285Y-98512380D02*
X81559047Y-98512380D01*
X81463809Y-98560000D01*
X81416190Y-98607619D01*
X81368571Y-98702857D01*
X81320952Y-98893333D01*
X81320952Y-99131428D01*
X81368571Y-99321904D01*
X81416190Y-99417142D01*
X81463809Y-99464761D01*
X81559047Y-99512380D01*
X81654285Y-99512380D01*
X81749523Y-99464761D01*
X81797142Y-99417142D01*
X81844761Y-99321904D01*
X81892380Y-99131428D01*
X81892380Y-98893333D01*
X81844761Y-98702857D01*
X81797142Y-98607619D01*
X81749523Y-98560000D01*
X81654285Y-98512380D01*
X80940000Y-98607619D02*
X80892380Y-98560000D01*
X80797142Y-98512380D01*
X80559047Y-98512380D01*
X80463809Y-98560000D01*
X80416190Y-98607619D01*
X80368571Y-98702857D01*
X80368571Y-98798095D01*
X80416190Y-98940952D01*
X80987619Y-99512380D01*
X80368571Y-99512380D01*
X80035238Y-98512380D02*
X79416190Y-98512380D01*
X79749523Y-98893333D01*
X79606666Y-98893333D01*
X79511428Y-98940952D01*
X79463809Y-98988571D01*
X79416190Y-99083809D01*
X79416190Y-99321904D01*
X79463809Y-99417142D01*
X79511428Y-99464761D01*
X79606666Y-99512380D01*
X79892380Y-99512380D01*
X79987619Y-99464761D01*
X80035238Y-99417142D01*
X104559047Y-100455714D02*
X104559047Y-101265238D01*
X104606666Y-101360476D01*
X104654285Y-101408095D01*
X104749523Y-101455714D01*
X104892380Y-101455714D01*
X104987619Y-101408095D01*
X104559047Y-101074761D02*
X104654285Y-101122380D01*
X104844761Y-101122380D01*
X104940000Y-101074761D01*
X104987619Y-101027142D01*
X105035238Y-100931904D01*
X105035238Y-100646190D01*
X104987619Y-100550952D01*
X104940000Y-100503333D01*
X104844761Y-100455714D01*
X104654285Y-100455714D01*
X104559047Y-100503333D01*
X104082857Y-101122380D02*
X104082857Y-100455714D01*
X104082857Y-100122380D02*
X104130476Y-100170000D01*
X104082857Y-100217619D01*
X104035238Y-100170000D01*
X104082857Y-100122380D01*
X104082857Y-100217619D01*
X103749523Y-100455714D02*
X103368571Y-100455714D01*
X103606666Y-100122380D02*
X103606666Y-100979523D01*
X103559047Y-101074761D01*
X103463809Y-101122380D01*
X103368571Y-101122380D01*
X103035238Y-101122380D02*
X103035238Y-100122380D01*
X102606666Y-101122380D02*
X102606666Y-100598571D01*
X102654285Y-100503333D01*
X102749523Y-100455714D01*
X102892380Y-100455714D01*
X102987619Y-100503333D01*
X103035238Y-100550952D01*
X101701904Y-100455714D02*
X101701904Y-101122380D01*
X102130476Y-100455714D02*
X102130476Y-100979523D01*
X102082857Y-101074761D01*
X101987619Y-101122380D01*
X101844761Y-101122380D01*
X101749523Y-101074761D01*
X101701904Y-101027142D01*
X101225714Y-101122380D02*
X101225714Y-100122380D01*
X101225714Y-100503333D02*
X101130476Y-100455714D01*
X100940000Y-100455714D01*
X100844761Y-100503333D01*
X100797142Y-100550952D01*
X100749523Y-100646190D01*
X100749523Y-100931904D01*
X100797142Y-101027142D01*
X100844761Y-101074761D01*
X100940000Y-101122380D01*
X101130476Y-101122380D01*
X101225714Y-101074761D01*
X100320952Y-101027142D02*
X100273333Y-101074761D01*
X100320952Y-101122380D01*
X100368571Y-101074761D01*
X100320952Y-101027142D01*
X100320952Y-101122380D01*
X99416190Y-101074761D02*
X99511428Y-101122380D01*
X99701904Y-101122380D01*
X99797142Y-101074761D01*
X99844761Y-101027142D01*
X99892380Y-100931904D01*
X99892380Y-100646190D01*
X99844761Y-100550952D01*
X99797142Y-100503333D01*
X99701904Y-100455714D01*
X99511428Y-100455714D01*
X99416190Y-100503333D01*
X98844761Y-101122380D02*
X98940000Y-101074761D01*
X98987619Y-101027142D01*
X99035238Y-100931904D01*
X99035238Y-100646190D01*
X98987619Y-100550952D01*
X98940000Y-100503333D01*
X98844761Y-100455714D01*
X98701904Y-100455714D01*
X98606666Y-100503333D01*
X98559047Y-100550952D01*
X98511428Y-100646190D01*
X98511428Y-100931904D01*
X98559047Y-101027142D01*
X98606666Y-101074761D01*
X98701904Y-101122380D01*
X98844761Y-101122380D01*
X98082857Y-101122380D02*
X98082857Y-100455714D01*
X98082857Y-100550952D02*
X98035238Y-100503333D01*
X97940000Y-100455714D01*
X97797142Y-100455714D01*
X97701904Y-100503333D01*
X97654285Y-100598571D01*
X97654285Y-101122380D01*
X97654285Y-100598571D02*
X97606666Y-100503333D01*
X97511428Y-100455714D01*
X97368571Y-100455714D01*
X97273333Y-100503333D01*
X97225714Y-100598571D01*
X97225714Y-101122380D01*
X96035238Y-100074761D02*
X96892380Y-101360476D01*
X95701904Y-101122380D02*
X95701904Y-100455714D01*
X95701904Y-100550952D02*
X95654285Y-100503333D01*
X95559047Y-100455714D01*
X95416190Y-100455714D01*
X95320952Y-100503333D01*
X95273333Y-100598571D01*
X95273333Y-101122380D01*
X95273333Y-100598571D02*
X95225714Y-100503333D01*
X95130476Y-100455714D01*
X94987619Y-100455714D01*
X94892380Y-100503333D01*
X94844761Y-100598571D01*
X94844761Y-101122380D01*
X94368571Y-100455714D02*
X94368571Y-101455714D01*
X94368571Y-100503333D02*
X94273333Y-100455714D01*
X94082857Y-100455714D01*
X93987619Y-100503333D01*
X93940000Y-100550952D01*
X93892380Y-100646190D01*
X93892380Y-100931904D01*
X93940000Y-101027142D01*
X93987619Y-101074761D01*
X94082857Y-101122380D01*
X94273333Y-101122380D01*
X94368571Y-101074761D01*
X93463809Y-101122380D02*
X93463809Y-100455714D01*
X93463809Y-100646190D02*
X93416190Y-100550952D01*
X93368571Y-100503333D01*
X93273333Y-100455714D01*
X93178095Y-100455714D01*
X92701904Y-101122380D02*
X92797142Y-101074761D01*
X92844761Y-101027142D01*
X92892380Y-100931904D01*
X92892380Y-100646190D01*
X92844761Y-100550952D01*
X92797142Y-100503333D01*
X92701904Y-100455714D01*
X92559047Y-100455714D01*
X92463809Y-100503333D01*
X92416190Y-100550952D01*
X92368571Y-100646190D01*
X92368571Y-100931904D01*
X92416190Y-101027142D01*
X92463809Y-101074761D01*
X92559047Y-101122380D01*
X92701904Y-101122380D01*
X91987619Y-101074761D02*
X91892380Y-101122380D01*
X91701904Y-101122380D01*
X91606666Y-101074761D01*
X91559047Y-100979523D01*
X91559047Y-100931904D01*
X91606666Y-100836666D01*
X91701904Y-100789047D01*
X91844761Y-100789047D01*
X91940000Y-100741428D01*
X91987619Y-100646190D01*
X91987619Y-100598571D01*
X91940000Y-100503333D01*
X91844761Y-100455714D01*
X91701904Y-100455714D01*
X91606666Y-100503333D01*
X91130476Y-101122380D02*
X91130476Y-100122380D01*
X91035238Y-100741428D02*
X90749523Y-101122380D01*
X90749523Y-100455714D02*
X91130476Y-100836666D01*
X89606666Y-100074761D02*
X90463809Y-101360476D01*
X89368571Y-100455714D02*
X89178095Y-101122380D01*
X88987619Y-100646190D01*
X88797142Y-101122380D01*
X88606666Y-100455714D01*
X88082857Y-101122380D02*
X88178095Y-101074761D01*
X88225714Y-101027142D01*
X88273333Y-100931904D01*
X88273333Y-100646190D01*
X88225714Y-100550952D01*
X88178095Y-100503333D01*
X88082857Y-100455714D01*
X87940000Y-100455714D01*
X87844761Y-100503333D01*
X87797142Y-100550952D01*
X87749523Y-100646190D01*
X87749523Y-100931904D01*
X87797142Y-101027142D01*
X87844761Y-101074761D01*
X87940000Y-101122380D01*
X88082857Y-101122380D01*
X87416190Y-100455714D02*
X87225714Y-101122380D01*
X87035238Y-100646190D01*
X86844761Y-101122380D01*
X86654285Y-100455714D01*
X86511428Y-101217619D02*
X85749523Y-101217619D01*
X85082857Y-101122380D02*
X85082857Y-100598571D01*
X85130476Y-100503333D01*
X85225714Y-100455714D01*
X85416190Y-100455714D01*
X85511428Y-100503333D01*
X85082857Y-101074761D02*
X85178095Y-101122380D01*
X85416190Y-101122380D01*
X85511428Y-101074761D01*
X85559047Y-100979523D01*
X85559047Y-100884285D01*
X85511428Y-100789047D01*
X85416190Y-100741428D01*
X85178095Y-100741428D01*
X85082857Y-100693809D01*
X84606666Y-100455714D02*
X84606666Y-101122380D01*
X84606666Y-100550952D02*
X84559047Y-100503333D01*
X84463809Y-100455714D01*
X84320952Y-100455714D01*
X84225714Y-100503333D01*
X84178095Y-100598571D01*
X84178095Y-101122380D01*
X83273333Y-101122380D02*
X83273333Y-100122380D01*
X83273333Y-101074761D02*
X83368571Y-101122380D01*
X83559047Y-101122380D01*
X83654285Y-101074761D01*
X83701904Y-101027142D01*
X83749523Y-100931904D01*
X83749523Y-100646190D01*
X83701904Y-100550952D01*
X83654285Y-100503333D01*
X83559047Y-100455714D01*
X83368571Y-100455714D01*
X83273333Y-100503333D01*
X83035238Y-101217619D02*
X82273333Y-101217619D01*
X82178095Y-100455714D02*
X81797142Y-100455714D01*
X82035238Y-101122380D02*
X82035238Y-100265238D01*
X81987619Y-100170000D01*
X81892380Y-100122380D01*
X81797142Y-100122380D01*
X81320952Y-101122380D02*
X81416190Y-101074761D01*
X81463809Y-100979523D01*
X81463809Y-100122380D01*
X80511428Y-100455714D02*
X80511428Y-101122380D01*
X80940000Y-100455714D02*
X80940000Y-100979523D01*
X80892380Y-101074761D01*
X80797142Y-101122380D01*
X80654285Y-101122380D01*
X80559047Y-101074761D01*
X80511428Y-101027142D01*
X80178095Y-100455714D02*
X79797142Y-100455714D01*
X80035238Y-100122380D02*
X80035238Y-100979523D01*
X79987619Y-101074761D01*
X79892380Y-101122380D01*
X79797142Y-101122380D01*
X79606666Y-100455714D02*
X79225714Y-100455714D01*
X79463809Y-100122380D02*
X79463809Y-100979523D01*
X79416190Y-101074761D01*
X79320952Y-101122380D01*
X79225714Y-101122380D01*
X78511428Y-101074761D02*
X78606666Y-101122380D01*
X78797142Y-101122380D01*
X78892380Y-101074761D01*
X78940000Y-100979523D01*
X78940000Y-100598571D01*
X78892380Y-100503333D01*
X78797142Y-100455714D01*
X78606666Y-100455714D01*
X78511428Y-100503333D01*
X78463809Y-100598571D01*
X78463809Y-100693809D01*
X78940000Y-100789047D01*
X78035238Y-101122380D02*
X78035238Y-100455714D01*
X78035238Y-100646190D02*
X77987619Y-100550952D01*
X77940000Y-100503333D01*
X77844761Y-100455714D01*
X77749523Y-100455714D01*
X96059047Y-76922380D02*
X96059047Y-77636666D01*
X96106666Y-77779523D01*
X96201904Y-77874761D01*
X96344761Y-77922380D01*
X96440000Y-77922380D01*
X95106666Y-77922380D02*
X95582857Y-77922380D01*
X95582857Y-76922380D01*
X94201904Y-77827142D02*
X94249523Y-77874761D01*
X94392380Y-77922380D01*
X94487619Y-77922380D01*
X94630476Y-77874761D01*
X94725714Y-77779523D01*
X94773333Y-77684285D01*
X94820952Y-77493809D01*
X94820952Y-77350952D01*
X94773333Y-77160476D01*
X94725714Y-77065238D01*
X94630476Y-76970000D01*
X94487619Y-76922380D01*
X94392380Y-76922380D01*
X94249523Y-76970000D01*
X94201904Y-77017619D01*
X93487619Y-76922380D02*
X93487619Y-77636666D01*
X93535238Y-77779523D01*
X93630476Y-77874761D01*
X93773333Y-77922380D01*
X93868571Y-77922380D01*
X92535238Y-77922380D02*
X93011428Y-77922380D01*
X93011428Y-76922380D01*
X91630476Y-77827142D02*
X91678095Y-77874761D01*
X91820952Y-77922380D01*
X91916190Y-77922380D01*
X92059047Y-77874761D01*
X92154285Y-77779523D01*
X92201904Y-77684285D01*
X92249523Y-77493809D01*
X92249523Y-77350952D01*
X92201904Y-77160476D01*
X92154285Y-77065238D01*
X92059047Y-76970000D01*
X91916190Y-76922380D01*
X91820952Y-76922380D01*
X91678095Y-76970000D01*
X91630476Y-77017619D01*
X90916190Y-76922380D02*
X90916190Y-77636666D01*
X90963809Y-77779523D01*
X91059047Y-77874761D01*
X91201904Y-77922380D01*
X91297142Y-77922380D01*
X89963809Y-77922380D02*
X90440000Y-77922380D01*
X90440000Y-76922380D01*
X89059047Y-77827142D02*
X89106666Y-77874761D01*
X89249523Y-77922380D01*
X89344761Y-77922380D01*
X89487619Y-77874761D01*
X89582857Y-77779523D01*
X89630476Y-77684285D01*
X89678095Y-77493809D01*
X89678095Y-77350952D01*
X89630476Y-77160476D01*
X89582857Y-77065238D01*
X89487619Y-76970000D01*
X89344761Y-76922380D01*
X89249523Y-76922380D01*
X89106666Y-76970000D01*
X89059047Y-77017619D01*
X88344761Y-76922380D02*
X88344761Y-77636666D01*
X88392380Y-77779523D01*
X88487619Y-77874761D01*
X88630476Y-77922380D01*
X88725714Y-77922380D01*
X87392380Y-77922380D02*
X87868571Y-77922380D01*
X87868571Y-76922380D01*
X86487619Y-77827142D02*
X86535238Y-77874761D01*
X86678095Y-77922380D01*
X86773333Y-77922380D01*
X86916190Y-77874761D01*
X87011428Y-77779523D01*
X87059047Y-77684285D01*
X87106666Y-77493809D01*
X87106666Y-77350952D01*
X87059047Y-77160476D01*
X87011428Y-77065238D01*
X86916190Y-76970000D01*
X86773333Y-76922380D01*
X86678095Y-76922380D01*
X86535238Y-76970000D01*
X86487619Y-77017619D01*
M02*
