M48
; DRILL file {KiCad (6.0.5)} date Wed Feb 15 12:53:43 2023
; FORMAT={-:-/ absolute / inch / decimal}
; #@! TF.CreationDate,2023-02-15T12:53:43-05:00
; #@! TF.GenerationSoftware,Kicad,Pcbnew,(6.0.5)
; #@! TF.FileFunction,Plated,1,2,PTH
FMAT,2
INCH
; #@! TA.AperFunction,Plated,PTH,ViaDrill
T1C0.0157
; #@! TA.AperFunction,Plated,PTH,ComponentDrill
T2C0.0236
; #@! TA.AperFunction,Plated,PTH,ComponentDrill
T3C0.0295
; #@! TA.AperFunction,Plated,PTH,ComponentDrill
T4C0.0315
; #@! TA.AperFunction,Plated,PTH,ComponentDrill
T5C0.0394
%
G90
G05
T1
X7.0449Y-3.8801
X7.05Y-1.3
X7.05Y-1.95
X7.05Y-2.25
X7.05Y-2.325
X7.05Y-5.15
X7.05Y-5.325
X7.05Y-5.5
X7.1Y-1.45
X7.1Y-2.675
X7.1Y-2.825
X7.1Y-3.375
X7.1Y-3.95
X7.1Y-5.0
X7.125Y-4.45
X7.15Y-1.6
X7.15Y-1.8
X7.15Y-4.675
X7.175Y-2.9
X7.175Y-3.65
X7.175Y-3.825
X7.175Y-4.15
X7.2Y-2.725
X7.225Y-1.3
X7.225Y-5.3
X7.225Y-5.45
X7.225Y-5.675
X7.25Y-2.6992
X7.25Y-3.075
X7.25Y-3.425
X7.25Y-4.25
X7.25Y-5.15
X7.28Y-4.73
X7.3Y-2.575
X7.3Y-2.65
X7.3Y-3.675
X7.3Y-3.825
X7.325Y-4.15
X7.35Y-2.05
X7.35Y-3.175
X7.35Y-3.375
X7.35Y-4.3
X7.35Y-5.15
X7.375Y-2.275
X7.4Y-1.525
X7.45Y-1.8
X7.45Y-2.55
X7.45Y-2.75
X7.45Y-4.15
X7.45Y-4.675
X7.49Y-4.83
X7.5Y-2.0
X7.5Y-3.05
X7.5Y-3.675
X7.5Y-4.95
X7.5Y-5.15
X7.525Y-3.525
X7.55Y-1.45
X7.55Y-2.35
X7.55Y-2.55
X7.55Y-2.75
X7.55Y-4.3
X7.55Y-4.675
X7.6Y-2.1
X7.6Y-2.3
X7.6Y-3.225
X7.6Y-3.325
X7.6Y-3.425
X7.625Y-5.225
X7.65Y-1.8
X7.65Y-3.85
X7.65Y-4.15
X7.65Y-4.975
X7.675Y-4.3
X7.7Y-1.3
X7.7Y-3.05
X7.7Y-3.325
X7.7Y-3.425
X7.7Y-3.675
X7.7Y-4.725
X7.725Y-5.3
X7.7492Y-2.7
X7.75Y-1.5
X7.75Y-2.75
X7.75Y-4.45
X7.75Y-4.575
X7.75Y-5.075
X7.75Y-5.675
X7.8Y-1.75
X7.8Y-2.1
X7.8Y-2.3
X7.8Y-2.575
X7.8Y-3.125
X7.8Y-3.225
X7.8Y-3.325
X7.8Y-3.5
X7.8Y-3.675
X7.8Y-3.875
X7.8Y-4.225
X7.8Y-4.925
X7.825Y-2.7
X7.825Y-2.975
X7.85Y-1.3
X7.85Y-2.35
X7.85Y-3.275
X7.875Y-4.75
X7.875Y-5.0
X7.875Y-5.2
X7.875Y-5.4
X7.9Y-1.45
X7.9Y-2.825
X7.9Y-3.89
X7.95Y-1.3
X7.95Y-1.7
X7.95Y-1.9
X7.95Y-2.35
X7.95Y-2.65
X7.95Y-3.075
X7.95Y-3.3
X7.95Y-3.375
X7.95Y-4.675
X7.95Y-4.875
X7.95Y-5.1
X7.95Y-5.3
X7.95Y-5.5
X7.95Y-5.6
T2
X7.0909Y-5.7
X7.15Y-5.7
X7.2Y-4.5
X7.2591Y-4.5
X7.65Y-4.475
X7.65Y-4.5341
X7.85Y-5.7
X7.9091Y-5.7
T3
X7.1Y-3.775
X7.1Y-4.075
X7.275Y-3.225
X7.275Y-3.275
X7.275Y-3.325
X7.8Y-4.5142
X7.85Y-4.5142
X7.9Y-2.7
X7.9Y-3.0
X7.9Y-4.5142
T4
X7.1Y-3.275
X7.1Y-3.675
X7.1Y-4.2766
X7.1Y-4.375
X7.1002Y-2.4016
X7.1002Y-2.5
X7.1002Y-2.6016
X7.1002Y-3.0016
X7.1998Y-4.0746
X7.1998Y-4.3746
X7.2Y-2.0
X7.2Y-2.4
X7.2Y-2.5
X7.2Y-2.8
X7.2Y-3.575
X7.2Y-3.975
X7.2Y-4.625
X7.2Y-5.025
X7.2998Y-4.0746
X7.2998Y-4.3746
X7.3Y-2.0
X7.3Y-2.4
X7.3Y-2.5
X7.3Y-2.8
X7.3Y-3.575
X7.3Y-3.975
X7.3Y-4.625
X7.3Y-5.025
X7.3998Y-4.0746
X7.3998Y-4.3746
X7.4Y-2.5
X7.4Y-2.8
X7.4Y-3.575
X7.4Y-3.975
X7.4Y-4.625
X7.4Y-5.025
X7.4002Y-2.0
X7.4002Y-2.4
X7.4016Y-4.475
X7.425Y-3.1758
X7.425Y-3.2742
X7.4998Y-4.0746
X7.4998Y-4.3746
X7.5Y-2.5
X7.5Y-2.8
X7.5Y-2.9016
X7.5Y-3.8766
X7.5Y-3.975
X7.5Y-4.475
X7.5002Y-2.3016
X7.5002Y-2.4
X7.55Y-3.175
X7.55Y-3.275
X7.55Y-3.375
X7.5984Y-2.9016
X7.5998Y-4.0746
X7.5998Y-4.3746
X7.6Y-2.0
X7.6Y-2.4
X7.6Y-2.5
X7.6Y-2.8
X7.6Y-4.625
X7.6Y-5.025
X7.6998Y-4.0746
X7.6998Y-4.3746
X7.7Y-2.0
X7.7Y-2.4
X7.7Y-2.5
X7.7Y-2.8
X7.7Y-3.575
X7.7Y-3.975
X7.7Y-4.625
X7.7Y-5.025
X7.7018Y-2.9016
X7.7998Y-4.0746
X7.7998Y-4.3746
X7.8Y-2.5
X7.8Y-2.8
X7.8Y-3.575
X7.8Y-3.975
X7.8Y-4.625
X7.8Y-5.025
X7.8002Y-2.0
X7.8002Y-2.4
X7.8002Y-2.9016
X7.9Y-4.075
X7.9Y-4.1734
X7.9Y-4.2766
X7.9Y-4.375
X7.9002Y-2.0
X7.9002Y-2.4
X7.9002Y-2.5
X7.9002Y-2.5984
T5
X7.25Y-3.0
X7.3Y-5.4
X7.3Y-5.5
X7.3Y-5.75
X7.3002Y-1.5266
X7.3002Y-1.6266
X7.3002Y-1.7266
X7.35Y-3.0
X7.4Y-5.4
X7.4Y-5.5
X7.4Y-5.75
X7.4002Y-1.6266
X7.45Y-3.0
X7.5Y-5.4
X7.5Y-5.5
X7.5Y-5.75
X7.55Y-3.0
X7.6Y-5.4
X7.6Y-5.5
X7.6Y-5.75
X7.65Y-3.0
X7.7Y-5.4
X7.7Y-5.5
X7.7Y-5.75
X7.75Y-3.0
T0
M30
