%TF.GenerationSoftware,KiCad,Pcbnew,(6.0.5)*%
%TF.CreationDate,2023-02-15T12:53:42-05:00*%
%TF.ProjectId,wow_and_flutter,776f775f-616e-4645-9f66-6c7574746572,rev?*%
%TF.SameCoordinates,Original*%
%TF.FileFunction,Copper,L1,Top*%
%TF.FilePolarity,Positive*%
%FSLAX46Y46*%
G04 Gerber Fmt 4.6, Leading zero omitted, Abs format (unit mm)*
G04 Created by KiCad (PCBNEW (6.0.5)) date 2023-02-15 12:53:42*
%MOMM*%
%LPD*%
G01*
G04 APERTURE LIST*
G04 Aperture macros list*
%AMRoundRect*
0 Rectangle with rounded corners*
0 $1 Rounding radius*
0 $2 $3 $4 $5 $6 $7 $8 $9 X,Y pos of 4 corners*
0 Add a 4 corners polygon primitive as box body*
4,1,4,$2,$3,$4,$5,$6,$7,$8,$9,$2,$3,0*
0 Add four circle primitives for the rounded corners*
1,1,$1+$1,$2,$3*
1,1,$1+$1,$4,$5*
1,1,$1+$1,$6,$7*
1,1,$1+$1,$8,$9*
0 Add four rect primitives between the rounded corners*
20,1,$1+$1,$2,$3,$4,$5,0*
20,1,$1+$1,$4,$5,$6,$7,0*
20,1,$1+$1,$6,$7,$8,$9,0*
20,1,$1+$1,$8,$9,$2,$3,0*%
G04 Aperture macros list end*
%TA.AperFunction,ComponentPad*%
%ADD10C,1.600000*%
%TD*%
%TA.AperFunction,ComponentPad*%
%ADD11O,1.600000X1.600000*%
%TD*%
%TA.AperFunction,ComponentPad*%
%ADD12R,1.700000X1.700000*%
%TD*%
%TA.AperFunction,ComponentPad*%
%ADD13O,1.700000X1.700000*%
%TD*%
%TA.AperFunction,ComponentPad*%
%ADD14R,1.200000X1.200000*%
%TD*%
%TA.AperFunction,ComponentPad*%
%ADD15C,1.200000*%
%TD*%
%TA.AperFunction,ComponentPad*%
%ADD16R,1.500000X1.500000*%
%TD*%
%TA.AperFunction,ComponentPad*%
%ADD17O,1.500000X1.500000*%
%TD*%
%TA.AperFunction,ComponentPad*%
%ADD18C,1.440000*%
%TD*%
%TA.AperFunction,ComponentPad*%
%ADD19R,1.600000X1.600000*%
%TD*%
%TA.AperFunction,ComponentPad*%
%ADD20R,1.500000X1.050000*%
%TD*%
%TA.AperFunction,ComponentPad*%
%ADD21O,1.500000X1.050000*%
%TD*%
%TA.AperFunction,ComponentPad*%
%ADD22R,1.050000X1.500000*%
%TD*%
%TA.AperFunction,ComponentPad*%
%ADD23O,1.050000X1.500000*%
%TD*%
%TA.AperFunction,ComponentPad*%
%ADD24RoundRect,0.250000X0.600000X-0.600000X0.600000X0.600000X-0.600000X0.600000X-0.600000X-0.600000X0*%
%TD*%
%TA.AperFunction,ComponentPad*%
%ADD25C,1.700000*%
%TD*%
%TA.AperFunction,ViaPad*%
%ADD26C,0.800000*%
%TD*%
%TA.AperFunction,Conductor*%
%ADD27C,0.500000*%
%TD*%
%TA.AperFunction,Conductor*%
%ADD28C,1.000000*%
%TD*%
%TA.AperFunction,Conductor*%
%ADD29C,0.800000*%
%TD*%
G04 APERTURE END LIST*
D10*
%TO.P,R8,1*%
%TO.N,/NOISE_IN*%
X187960000Y-117475000D03*
D11*
%TO.P,R8,2*%
%TO.N,GND*%
X187960000Y-127635000D03*
%TD*%
D10*
%TO.P,R19,1*%
%TO.N,/SH_FB*%
X198120000Y-90805000D03*
D11*
%TO.P,R19,2*%
%TO.N,/S&H*%
X198120000Y-100965000D03*
%TD*%
D10*
%TO.P,R4,1*%
%TO.N,/LFO_CMP*%
X193040000Y-60960000D03*
D11*
%TO.P,R4,2*%
%TO.N,/LFO_FB*%
X193040000Y-50800000D03*
%TD*%
D10*
%TO.P,C6,1*%
%TO.N,GND*%
X190505000Y-58460000D03*
%TO.P,C6,2*%
%TO.N,-12V*%
X190505000Y-60960000D03*
%TD*%
%TO.P,R12,1*%
%TO.N,/NOISE_AMP2_FB*%
X195580000Y-117475000D03*
D11*
%TO.P,R12,2*%
%TO.N,GND*%
X195580000Y-127635000D03*
%TD*%
D10*
%TO.P,R18,1*%
%TO.N,GND*%
X195580000Y-90805000D03*
D11*
%TO.P,R18,2*%
%TO.N,/SH_FB*%
X195580000Y-100965000D03*
%TD*%
D10*
%TO.P,C13,1*%
%TO.N,GND*%
X188595000Y-80665000D03*
%TO.P,C13,2*%
%TO.N,/SH_IN*%
X188595000Y-83165000D03*
%TD*%
%TO.P,R16,1*%
%TO.N,/TRIG_CMP*%
X182880000Y-100965000D03*
D11*
%TO.P,R16,2*%
%TO.N,+12V*%
X182880000Y-90805000D03*
%TD*%
D10*
%TO.P,R23,1*%
%TO.N,Net-(JP1-Pad3)*%
X182880000Y-50800000D03*
D11*
%TO.P,R23,2*%
%TO.N,/DEPTH_FB*%
X182880000Y-60960000D03*
%TD*%
D12*
%TO.P,J5,1,Pin_1*%
%TO.N,/TRI*%
X184150000Y-76200000D03*
D13*
%TO.P,J5,2,Pin_2*%
%TO.N,/DEPTH_FB*%
X186690000Y-76200000D03*
%TO.P,J5,3,Pin_3*%
%TO.N,/DEPTH_CTRL*%
X189230000Y-76200000D03*
%TO.P,J5,4,Pin_4*%
%TO.N,/S&H*%
X191770000Y-76200000D03*
%TO.P,J5,5,Pin_5*%
%TO.N,/LFO_FB*%
X194310000Y-76200000D03*
%TO.P,J5,6,Pin_6*%
%TO.N,/LFO_CTRL*%
X196850000Y-76200000D03*
%TD*%
D14*
%TO.P,C8,1*%
%TO.N,/NOISE_SRC*%
X194310000Y-115165000D03*
D15*
%TO.P,C8,2*%
%TO.N,/NOISE_IN*%
X194310000Y-113665000D03*
%TD*%
D10*
%TO.P,R20,1*%
%TO.N,/INV_OUT*%
X180345000Y-76240000D03*
D11*
%TO.P,R20,2*%
%TO.N,/GAIN_SELECT*%
X180345000Y-66080000D03*
%TD*%
D10*
%TO.P,C16,1*%
%TO.N,/DEPTH_FB*%
X180345000Y-61000000D03*
%TO.P,C16,2*%
%TO.N,/GAIN_SELECT*%
X180345000Y-63500000D03*
%TD*%
%TO.P,R10,1*%
%TO.N,/NOISE_AMP1_FB*%
X182880000Y-127635000D03*
D11*
%TO.P,R10,2*%
%TO.N,/NOISE_AMP1*%
X182880000Y-117475000D03*
%TD*%
D10*
%TO.P,C4,1*%
%TO.N,GND*%
X190500000Y-98465000D03*
%TO.P,C4,2*%
%TO.N,-12V*%
X190500000Y-100965000D03*
%TD*%
D16*
%TO.P,D1,1,K*%
%TO.N,/TRIG_IN*%
X200660000Y-76200000D03*
D17*
%TO.P,D1,2,A*%
%TO.N,/TRIG_FILTER*%
X200660000Y-68580000D03*
%TD*%
D18*
%TO.P,RV2,1,1*%
%TO.N,/NOISE_AMP2_FB*%
X191770000Y-85725000D03*
%TO.P,RV2,2,2*%
%TO.N,/NOISE*%
X191770000Y-83185000D03*
%TO.P,RV2,3,3*%
X191770000Y-80645000D03*
%TD*%
D19*
%TO.P,U2,1*%
%TO.N,/INV_OUT*%
X182880000Y-71120000D03*
D11*
%TO.P,U2,2,-*%
X185420000Y-71120000D03*
%TO.P,U2,3,+*%
%TO.N,/DEPTH_CTRL*%
X187960000Y-71120000D03*
%TO.P,U2,4,V+*%
%TO.N,+12V*%
X190500000Y-71120000D03*
%TO.P,U2,5,+*%
%TO.N,GND*%
X193040000Y-71120000D03*
%TO.P,U2,6,-*%
%TO.N,/LFO_CTRL*%
X195580000Y-71120000D03*
%TO.P,U2,7*%
%TO.N,/TRI*%
X198120000Y-71120000D03*
%TO.P,U2,8*%
%TO.N,/SQR*%
X198120000Y-63500000D03*
%TO.P,U2,9,-*%
%TO.N,GND*%
X195580000Y-63500000D03*
%TO.P,U2,10,+*%
%TO.N,/LFO_CMP*%
X193040000Y-63500000D03*
%TO.P,U2,11,V-*%
%TO.N,-12V*%
X190500000Y-63500000D03*
%TO.P,U2,12,+*%
%TO.N,GND*%
X187960000Y-63500000D03*
%TO.P,U2,13,-*%
%TO.N,/GAIN_SELECT*%
X185420000Y-63500000D03*
%TO.P,U2,14*%
%TO.N,/DEPTH_FB*%
X182880000Y-63500000D03*
%TD*%
D20*
%TO.P,Q2,1,D*%
%TO.N,/NOISE*%
X184785000Y-81915000D03*
D21*
%TO.P,Q2,2,S*%
%TO.N,/SH_IN*%
X184785000Y-83185000D03*
%TO.P,Q2,3,G*%
%TO.N,/SH_GATE*%
X184785000Y-84455000D03*
%TD*%
D14*
%TO.P,C2,1*%
%TO.N,GND*%
X200890000Y-144780000D03*
D15*
%TO.P,C2,2*%
%TO.N,-12V*%
X199390000Y-144780000D03*
%TD*%
D10*
%TO.P,R15,1*%
%TO.N,GND*%
X185420000Y-90805000D03*
D11*
%TO.P,R15,2*%
%TO.N,/TRIG_CMP*%
X185420000Y-100965000D03*
%TD*%
D16*
%TO.P,D2,1,K*%
%TO.N,/SH_TRIG*%
X180340000Y-103505000D03*
D17*
%TO.P,D2,2,A*%
%TO.N,/SH_GATE*%
X180340000Y-95885000D03*
%TD*%
D10*
%TO.P,R5,1*%
%TO.N,/SQR*%
X198125000Y-60960000D03*
D11*
%TO.P,R5,2*%
%TO.N,/LFO_FB*%
X198125000Y-50800000D03*
%TD*%
D10*
%TO.P,R3,1*%
%TO.N,/TRI*%
X195580000Y-50800000D03*
D11*
%TO.P,R3,2*%
%TO.N,/LFO_CMP*%
X195580000Y-60960000D03*
%TD*%
D10*
%TO.P,R17,1*%
%TO.N,/NOISE*%
X180340000Y-83185000D03*
D11*
%TO.P,R17,2*%
%TO.N,/SH_GATE*%
X180340000Y-93345000D03*
%TD*%
D10*
%TO.P,C3,1*%
%TO.N,GND*%
X188000000Y-113665000D03*
%TO.P,C3,2*%
%TO.N,+12V*%
X190500000Y-113665000D03*
%TD*%
%TO.P,R22,1*%
%TO.N,Net-(JP1-Pad2)*%
X187965000Y-50800000D03*
D11*
%TO.P,R22,2*%
%TO.N,/DEPTH_FB*%
X187965000Y-60960000D03*
%TD*%
D10*
%TO.P,C5,1*%
%TO.N,GND*%
X193000000Y-73700000D03*
%TO.P,C5,2*%
%TO.N,+12V*%
X190500000Y-73700000D03*
%TD*%
%TO.P,C14,1*%
%TO.N,/SH_FB*%
X200660000Y-106005000D03*
%TO.P,C14,2*%
%TO.N,/S&H*%
X200660000Y-103505000D03*
%TD*%
D22*
%TO.P,Q1,1,E*%
%TO.N,/NOISE_SRC*%
X198120000Y-114660000D03*
D23*
%TO.P,Q1,2,B*%
%TO.N,GND*%
X199390000Y-114660000D03*
%TO.P,Q1,3,C*%
%TO.N,unconnected-(Q1-Pad3)*%
X200660000Y-114660000D03*
%TD*%
D10*
%TO.P,C7,1*%
%TO.N,/TRI*%
X198125000Y-73700000D03*
%TO.P,C7,2*%
%TO.N,/LFO_CTRL*%
X195625000Y-73700000D03*
%TD*%
D14*
%TO.P,C1,1*%
%TO.N,+12V*%
X181610000Y-144780000D03*
D15*
%TO.P,C1,2*%
%TO.N,GND*%
X180110000Y-144780000D03*
%TD*%
D10*
%TO.P,C11,1*%
%TO.N,/NOISE_AMP2_FB*%
X200660000Y-108625000D03*
%TO.P,C11,2*%
%TO.N,/NOISE*%
X200660000Y-111125000D03*
%TD*%
D24*
%TO.P,J1,1,Pin_1*%
%TO.N,-12V*%
X195580000Y-139700000D03*
D25*
%TO.P,J1,2,Pin_2*%
X195580000Y-137160000D03*
%TO.P,J1,3,Pin_3*%
%TO.N,GND*%
X193040000Y-139700000D03*
%TO.P,J1,4,Pin_4*%
X193040000Y-137160000D03*
%TO.P,J1,5,Pin_5*%
X190500000Y-139700000D03*
%TO.P,J1,6,Pin_6*%
X190500000Y-137160000D03*
%TO.P,J1,7,Pin_7*%
X187960000Y-139700000D03*
%TO.P,J1,8,Pin_8*%
X187960000Y-137160000D03*
%TO.P,J1,9,Pin_9*%
%TO.N,+12V*%
X185420000Y-139700000D03*
%TO.P,J1,10,Pin_10*%
X185420000Y-137160000D03*
%TD*%
D10*
%TO.P,R9,1*%
%TO.N,GND*%
X185420000Y-127635000D03*
D11*
%TO.P,R9,2*%
%TO.N,/NOISE_AMP1_FB*%
X185420000Y-117475000D03*
%TD*%
D10*
%TO.P,R7,1*%
%TO.N,+12V*%
X198120000Y-127635000D03*
D11*
%TO.P,R7,2*%
%TO.N,/NOISE_SRC*%
X198120000Y-117475000D03*
%TD*%
D10*
%TO.P,R14,1*%
%TO.N,/TRIG_IN*%
X187960000Y-100965000D03*
D11*
%TO.P,R14,2*%
%TO.N,GND*%
X187960000Y-90805000D03*
%TD*%
D10*
%TO.P,C9,1*%
%TO.N,/NOISE_AMP1_FB*%
X180340000Y-108625000D03*
%TO.P,C9,2*%
%TO.N,/NOISE_AMP1*%
X180340000Y-111125000D03*
%TD*%
%TO.P,R21,1*%
%TO.N,Net-(JP1-Pad1)*%
X185420000Y-50800000D03*
D11*
%TO.P,R21,2*%
%TO.N,/DEPTH_FB*%
X185420000Y-60960000D03*
%TD*%
D12*
%TO.P,J3,1,Pin_1*%
%TO.N,+12V*%
X185420000Y-146050000D03*
D13*
%TO.P,J3,2,Pin_2*%
%TO.N,GND*%
X187960000Y-146050000D03*
%TO.P,J3,3,Pin_3*%
X190500000Y-146050000D03*
%TO.P,J3,4,Pin_4*%
X193040000Y-146050000D03*
%TO.P,J3,5,Pin_5*%
%TO.N,-12V*%
X195580000Y-146050000D03*
%TD*%
D10*
%TO.P,C12,1*%
%TO.N,/TRIG_FILTER*%
X200665000Y-66000000D03*
%TO.P,C12,2*%
%TO.N,/SQR*%
X200665000Y-63500000D03*
%TD*%
D14*
%TO.P,C10,1*%
%TO.N,/NOISE_AMP1*%
X182880000Y-114300000D03*
D15*
%TO.P,C10,2*%
%TO.N,/NOISE_AMP2*%
X184380000Y-114300000D03*
%TD*%
D10*
%TO.P,R11,1*%
%TO.N,/NOISE_AMP2*%
X193040000Y-117475000D03*
D11*
%TO.P,R11,2*%
%TO.N,GND*%
X193040000Y-127635000D03*
%TD*%
D19*
%TO.P,U1,1*%
%TO.N,/NOISE_AMP1*%
X182875000Y-111115000D03*
D11*
%TO.P,U1,2,-*%
%TO.N,/NOISE_AMP1_FB*%
X185415000Y-111115000D03*
%TO.P,U1,3,+*%
%TO.N,/NOISE_IN*%
X187955000Y-111115000D03*
%TO.P,U1,4,V+*%
%TO.N,+12V*%
X190495000Y-111115000D03*
%TO.P,U1,5,+*%
%TO.N,/NOISE_AMP2*%
X193035000Y-111115000D03*
%TO.P,U1,6,-*%
%TO.N,/NOISE_AMP2_FB*%
X195575000Y-111115000D03*
%TO.P,U1,7*%
%TO.N,/NOISE*%
X198115000Y-111115000D03*
%TO.P,U1,8*%
%TO.N,/S&H*%
X198115000Y-103495000D03*
%TO.P,U1,9,-*%
%TO.N,/SH_FB*%
X195575000Y-103495000D03*
%TO.P,U1,10,+*%
%TO.N,/SH_IN*%
X193035000Y-103495000D03*
%TO.P,U1,11,V-*%
%TO.N,-12V*%
X190495000Y-103495000D03*
%TO.P,U1,12,+*%
%TO.N,/TRIG_IN*%
X187955000Y-103495000D03*
%TO.P,U1,13,-*%
%TO.N,/TRIG_CMP*%
X185415000Y-103495000D03*
%TO.P,U1,14*%
%TO.N,/SH_TRIG*%
X182875000Y-103495000D03*
%TD*%
D13*
%TO.P,JP1,1,A*%
%TO.N,Net-(JP1-Pad1)*%
X185425000Y-43855000D03*
%TO.P,JP1,2,C*%
%TO.N,Net-(JP1-Pad2)*%
X187965000Y-41315000D03*
%TO.P,JP1,3,B*%
%TO.N,Net-(JP1-Pad3)*%
X185425000Y-38775000D03*
%TO.P,JP1,4,C*%
%TO.N,/GAIN_SELECT*%
X185425000Y-41315000D03*
%TD*%
D10*
%TO.P,R13,1*%
%TO.N,/TRIG_FILTER*%
X200665000Y-60960000D03*
D11*
%TO.P,R13,2*%
%TO.N,GND*%
X200665000Y-50800000D03*
%TD*%
D26*
%TO.N,+12V*%
X182245000Y-73660000D03*
%TO.N,GND*%
X191770000Y-36830000D03*
X198120000Y-44450000D03*
X196850000Y-116205000D03*
X180340000Y-85725000D03*
X196215000Y-134620000D03*
X184150000Y-130810000D03*
X194310000Y-97790000D03*
X198120000Y-81915000D03*
X190500000Y-77470000D03*
X199390000Y-59690000D03*
X201930000Y-123825000D03*
X189230000Y-45720000D03*
X182245000Y-97155000D03*
X201930000Y-67310000D03*
X185420000Y-67310000D03*
X196850000Y-38100000D03*
X200025000Y-132080000D03*
X186690000Y-85725000D03*
X193040000Y-53340000D03*
X180340000Y-127000000D03*
X180340000Y-36830000D03*
X186690000Y-109220000D03*
X191770000Y-109220000D03*
X198120000Y-88900000D03*
X198755000Y-68580000D03*
X193040000Y-81915000D03*
X201930000Y-139700000D03*
X186055000Y-105410000D03*
X200025000Y-137160000D03*
X200660000Y-71755000D03*
X194310000Y-45720000D03*
X187960000Y-38735000D03*
X195580000Y-77470000D03*
X185420000Y-93345000D03*
X190500000Y-93345000D03*
X201930000Y-134620000D03*
X180340000Y-71755000D03*
X193675000Y-132715000D03*
X198120000Y-58420000D03*
X193040000Y-58420000D03*
X189230000Y-69850000D03*
X183515000Y-134620000D03*
X198120000Y-93345000D03*
X182880000Y-69215000D03*
X201930000Y-48260000D03*
X194310000Y-126365000D03*
X179070000Y-135255000D03*
X185420000Y-65405000D03*
X196850000Y-144145000D03*
X187325000Y-57785000D03*
X183515000Y-33020000D03*
X181610000Y-45720000D03*
X189230000Y-64770000D03*
X199390000Y-33020000D03*
X191770000Y-59690000D03*
X179070000Y-139700000D03*
X190246000Y-122682000D03*
X196850000Y-128905000D03*
X198120000Y-98425000D03*
X186690000Y-52070000D03*
X201930000Y-59690000D03*
X196850000Y-113030000D03*
X198120000Y-107315000D03*
X201930000Y-129540000D03*
X200660000Y-36830000D03*
X191770000Y-69850000D03*
X200025000Y-127000000D03*
X179070000Y-49530000D03*
X198755000Y-75565000D03*
X196850000Y-69850000D03*
X184150000Y-86995000D03*
X186690000Y-80645000D03*
X195580000Y-86995000D03*
X195580000Y-33020000D03*
X190500000Y-50800000D03*
X184150000Y-107950000D03*
X201930000Y-78105000D03*
X201930000Y-83820000D03*
X189230000Y-118745000D03*
X198120000Y-53340000D03*
X185420000Y-97155000D03*
X191770000Y-118745000D03*
X190500000Y-130810000D03*
X195580000Y-120015000D03*
X181610000Y-40640000D03*
X184912000Y-120142000D03*
X194945000Y-109220000D03*
X190500000Y-125730000D03*
X184150000Y-78105000D03*
X191135000Y-89535000D03*
X194310000Y-105410000D03*
X180340000Y-100330000D03*
X181610000Y-118745000D03*
%TO.N,-12V*%
X178940489Y-98554511D03*
%TO.N,/SH_FB*%
X195580000Y-93345000D03*
%TO.N,GND*%
X201930000Y-43180000D03*
%TO.N,/TRIG_IN*%
X200660000Y-98806000D03*
%TO.N,GND*%
X179070000Y-130810000D03*
%TO.N,/NOISE_AMP2_FB*%
X201930000Y-85725000D03*
%TO.N,GND*%
X180340000Y-67945000D03*
X195580000Y-84455000D03*
X183515000Y-138430000D03*
X193040000Y-86995000D03*
X198120000Y-79375000D03*
X179070000Y-57150000D03*
X183515000Y-144145000D03*
X182245000Y-105410000D03*
X179070000Y-33020000D03*
X191770000Y-64770000D03*
X198120000Y-65405000D03*
X186690000Y-130810000D03*
X182245000Y-92710000D03*
X201930000Y-118745000D03*
%TO.N,-12V*%
X179070000Y-59055000D03*
%TO.N,/TRI*%
X184150000Y-68559511D03*
%TO.N,/NOISE*%
X199390000Y-83185000D03*
%TO.N,GND*%
X193040000Y-84455000D03*
X189230000Y-105410000D03*
%TO.N,/TRI*%
X196829511Y-68580000D03*
%TO.N,GND*%
X198120000Y-125095000D03*
X180975000Y-113030000D03*
X198120000Y-84455000D03*
X201930000Y-33020000D03*
X201930000Y-142240000D03*
X200025000Y-120650000D03*
%TD*%
D27*
%TO.N,/NOISE_AMP2*%
X193035000Y-117470000D02*
X193040000Y-117475000D01*
%TO.N,/TRIG_FILTER*%
X200665000Y-60960000D02*
X199415489Y-62209511D01*
%TO.N,/SH_IN*%
X188595000Y-83165000D02*
X188595000Y-85090000D01*
%TO.N,/NOISE_AMP1_FB*%
X182925000Y-108625000D02*
X185415000Y-111115000D01*
%TO.N,/SH_FB*%
X195580000Y-93345000D02*
X195580000Y-100965000D01*
%TO.N,/GAIN_SELECT*%
X185425000Y-41315000D02*
X184125489Y-42614511D01*
%TO.N,/NOISE_AMP1*%
X180350000Y-111115000D02*
X180340000Y-111125000D01*
%TO.N,/SH_IN*%
X188595000Y-85090000D02*
X193035000Y-89530000D01*
%TO.N,/GAIN_SELECT*%
X184170489Y-50185489D02*
X184170489Y-62250489D01*
%TO.N,/TRIG_IN*%
X187955000Y-103495000D02*
X187955000Y-100970000D01*
%TO.N,/NOISE_IN*%
X187955000Y-111115000D02*
X189249511Y-112409511D01*
%TO.N,/GAIN_SELECT*%
X184125489Y-50140489D02*
X184170489Y-50185489D01*
%TO.N,/SH_GATE*%
X180086000Y-93599000D02*
X180340000Y-93345000D01*
%TO.N,/TRIG_FILTER*%
X200660000Y-66005000D02*
X200665000Y-66000000D01*
%TO.N,/NOISE_AMP2_FB*%
X201930000Y-85725000D02*
X201930000Y-107355000D01*
%TO.N,/TRIG_FILTER*%
X199415489Y-64750489D02*
X200665000Y-66000000D01*
%TO.N,/GAIN_SELECT*%
X184170489Y-62250489D02*
X185420000Y-63500000D01*
%TO.N,/NOISE_AMP1_FB*%
X180340000Y-108625000D02*
X182925000Y-108625000D01*
%TO.N,/SH_IN*%
X188575000Y-83185000D02*
X188595000Y-83165000D01*
%TO.N,/NOISE_AMP1_FB*%
X182880000Y-120015000D02*
X185420000Y-117475000D01*
X182880000Y-127635000D02*
X182880000Y-120015000D01*
%TO.N,/NOISE_AMP1*%
X182875000Y-114295000D02*
X182880000Y-114300000D01*
%TO.N,/GAIN_SELECT*%
X184125489Y-42614511D02*
X184125489Y-50140489D01*
X182840000Y-66080000D02*
X185420000Y-63500000D01*
%TO.N,/TRIG_IN*%
X187955000Y-100970000D02*
X187960000Y-100965000D01*
%TO.N,/SH_GATE*%
X180086000Y-95885000D02*
X180086000Y-93599000D01*
%TO.N,/TRIG_IN*%
X200660000Y-98806000D02*
X200660000Y-76200000D01*
%TO.N,/TRIG_FILTER*%
X200660000Y-68580000D02*
X200660000Y-66005000D01*
%TO.N,/SH_IN*%
X193035000Y-89530000D02*
X193035000Y-103495000D01*
%TO.N,/GAIN_SELECT*%
X180345000Y-63500000D02*
X180345000Y-66080000D01*
%TO.N,/NOISE_AMP1*%
X182880000Y-117475000D02*
X182880000Y-114300000D01*
%TO.N,/NOISE_AMP2*%
X193035000Y-111115000D02*
X193035000Y-117470000D01*
%TO.N,/NOISE_AMP2_FB*%
X195580000Y-117475000D02*
X195580000Y-111120000D01*
%TO.N,/SH_FB*%
X195575000Y-100970000D02*
X195580000Y-100965000D01*
%TO.N,/NOISE_IN*%
X189249511Y-116185489D02*
X187960000Y-117475000D01*
%TO.N,/SH_FB*%
X195575000Y-103495000D02*
X195575000Y-100970000D01*
%TO.N,/NOISE_AMP1*%
X182875000Y-111115000D02*
X182875000Y-114295000D01*
X182875000Y-111115000D02*
X180350000Y-111115000D01*
%TO.N,/NOISE_AMP2_FB*%
X201930000Y-107355000D02*
X200660000Y-108625000D01*
%TO.N,/TRIG_FILTER*%
X199415489Y-62209511D02*
X199415489Y-64750489D01*
%TO.N,/SH_IN*%
X184785000Y-83185000D02*
X188575000Y-83185000D01*
%TO.N,/GAIN_SELECT*%
X180345000Y-66080000D02*
X182840000Y-66080000D01*
%TO.N,/NOISE_AMP2_FB*%
X195580000Y-111120000D02*
X195575000Y-111115000D01*
%TO.N,/NOISE_AMP1_FB*%
X186214999Y-111914999D02*
X186214999Y-116680001D01*
X186214999Y-116680001D02*
X185420000Y-117475000D01*
X185415000Y-111115000D02*
X186214999Y-111914999D01*
%TO.N,+12V*%
X184165489Y-104785489D02*
X184165489Y-92090489D01*
D28*
X190495000Y-113660000D02*
X190500000Y-113665000D01*
D29*
X195580000Y-142875000D02*
X185420000Y-142875000D01*
X182245000Y-73660000D02*
X182245000Y-90170000D01*
X190505000Y-71160000D02*
X190505000Y-73700000D01*
D28*
X185420000Y-146050000D02*
X185420000Y-142875000D01*
D29*
X182245000Y-90170000D02*
X182880000Y-90805000D01*
D28*
X185420000Y-146050000D02*
X182880000Y-146050000D01*
D29*
X190500000Y-120015000D02*
X198120000Y-127635000D01*
D27*
X190495000Y-111115000D02*
X184165489Y-104785489D01*
D28*
X182880000Y-146050000D02*
X181610000Y-144780000D01*
X185420000Y-139700000D02*
X185420000Y-137160000D01*
D29*
X198120000Y-127635000D02*
X198120000Y-140335000D01*
D27*
%TO.N,/SH_TRIG*%
X180350000Y-103495000D02*
X180340000Y-103505000D01*
%TO.N,Net-(JP1-Pad3)*%
X185425000Y-38775000D02*
X182885000Y-41315000D01*
%TO.N,/S&H*%
X198120000Y-100965000D02*
X196870489Y-99715489D01*
X198115000Y-103495000D02*
X198115000Y-100970000D01*
X196870489Y-99715489D02*
X196870489Y-81300489D01*
X196870489Y-81300489D02*
X191770000Y-76200000D01*
D28*
%TO.N,+12V*%
X190495000Y-111115000D02*
X190495000Y-113660000D01*
D27*
%TO.N,/S&H*%
X198115000Y-100970000D02*
X198120000Y-100965000D01*
D28*
%TO.N,+12V*%
X185420000Y-142240000D02*
X185420000Y-139700000D01*
D29*
%TO.N,-12V*%
X190495000Y-100970000D02*
X190500000Y-100965000D01*
D27*
%TO.N,Net-(JP1-Pad1)*%
X185425000Y-43855000D02*
X185425000Y-50840000D01*
%TO.N,/TRI*%
X184150000Y-68559511D02*
X184150000Y-76200000D01*
D29*
%TO.N,-12V*%
X190495000Y-103495000D02*
X190495000Y-100970000D01*
D27*
%TO.N,/SQR*%
X198125000Y-60960000D02*
X198125000Y-63495000D01*
%TO.N,Net-(JP1-Pad3)*%
X182885000Y-41315000D02*
X182885000Y-50840000D01*
D29*
%TO.N,GND*%
X193000000Y-71160000D02*
X193040000Y-71120000D01*
D27*
%TO.N,/TRI*%
X198120000Y-73695000D02*
X198125000Y-73700000D01*
D29*
%TO.N,+12V*%
X190500000Y-113665000D02*
X190500000Y-120015000D01*
D27*
%TO.N,/SH_TRIG*%
X182875000Y-103495000D02*
X180350000Y-103495000D01*
%TO.N,/SQR*%
X198125000Y-63495000D02*
X198120000Y-63500000D01*
D29*
%TO.N,-12V*%
X190505000Y-60960000D02*
X190505000Y-63540000D01*
D27*
%TO.N,+12V*%
X184165489Y-92090489D02*
X182880000Y-90805000D01*
%TO.N,/TRI*%
X198120000Y-71120000D02*
X198120000Y-73695000D01*
D29*
%TO.N,-12V*%
X191135000Y-132715000D02*
X195580000Y-137160000D01*
X179070000Y-59055000D02*
X178940489Y-59184511D01*
%TO.N,+12V*%
X198120000Y-140335000D02*
X195580000Y-142875000D01*
%TO.N,-12V*%
X183515000Y-132715000D02*
X191135000Y-132715000D01*
D27*
%TO.N,/TRI*%
X196829511Y-52049511D02*
X195580000Y-50800000D01*
D28*
%TO.N,-12V*%
X195580000Y-137160000D02*
X195580000Y-139700000D01*
%TO.N,+12V*%
X185420000Y-142875000D02*
X185420000Y-142240000D01*
D29*
%TO.N,-12V*%
X178940489Y-128140489D02*
X183515000Y-132715000D01*
%TO.N,GND*%
X193000000Y-73700000D02*
X193000000Y-71160000D01*
D28*
%TO.N,-12V*%
X195580000Y-146050000D02*
X198120000Y-146050000D01*
D29*
X178940489Y-98554511D02*
X178940489Y-128140489D01*
X178940489Y-59184511D02*
X178940489Y-98554511D01*
D27*
%TO.N,/TRI*%
X198120000Y-69870489D02*
X196829511Y-68580000D01*
X196829511Y-68580000D02*
X196829511Y-52049511D01*
D28*
%TO.N,-12V*%
X198120000Y-146050000D02*
X199390000Y-144780000D01*
D27*
%TO.N,/TRI*%
X198120000Y-71120000D02*
X198120000Y-69870489D01*
%TO.N,/NOISE*%
X191770000Y-83185000D02*
X190500000Y-81915000D01*
X191770000Y-83185000D02*
X191770000Y-80645000D01*
X199390000Y-83185000D02*
X199390000Y-109855000D01*
X184785000Y-81915000D02*
X190500000Y-81915000D01*
X198125000Y-111125000D02*
X198115000Y-111115000D01*
%TO.N,/LFO_CTRL*%
X196850000Y-74925000D02*
X195625000Y-73700000D01*
%TO.N,Net-(JP1-Pad2)*%
X187965000Y-50840000D02*
X187965000Y-41315000D01*
%TO.N,/LFO_FB*%
X194289511Y-49550489D02*
X193040000Y-50800000D01*
X193040000Y-50800000D02*
X194310000Y-52070000D01*
%TO.N,/DEPTH_CTRL*%
X189249511Y-72409511D02*
X189249511Y-76180489D01*
%TO.N,/DEPTH_FB*%
X180345000Y-61000000D02*
X182840000Y-61000000D01*
X185420000Y-60960000D02*
X186690000Y-62230000D01*
X182885000Y-63540000D02*
X182885000Y-61000000D01*
%TO.N,/LFO_CTRL*%
X196850000Y-76200000D02*
X196850000Y-74925000D01*
%TO.N,/DEPTH_CTRL*%
X187960000Y-71120000D02*
X189249511Y-72409511D01*
%TO.N,/LFO_FB*%
X198125000Y-50800000D02*
X196875489Y-49550489D01*
X194310000Y-52070000D02*
X194310000Y-76200000D01*
%TO.N,/LFO_CTRL*%
X195580000Y-71120000D02*
X195580000Y-73655000D01*
%TO.N,/DEPTH_FB*%
X186690000Y-62230000D02*
X186690000Y-76200000D01*
%TO.N,/NOISE_SRC*%
X198120000Y-117475000D02*
X198120000Y-114660000D01*
%TO.N,/NOISE*%
X199390000Y-109855000D02*
X200660000Y-111125000D01*
%TO.N,/DEPTH_CTRL*%
X189249511Y-76180489D02*
X189230000Y-76200000D01*
%TO.N,/DEPTH_FB*%
X185420000Y-60960000D02*
X187965000Y-60960000D01*
%TO.N,/NOISE*%
X200660000Y-111125000D02*
X198125000Y-111125000D01*
%TO.N,/LFO_FB*%
X196875489Y-49550489D02*
X194289511Y-49550489D01*
%TO.N,/NOISE_IN*%
X189249511Y-112409511D02*
X189249511Y-116185489D01*
%TO.N,/TRIG_CMP*%
X185415000Y-103495000D02*
X185415000Y-100970000D01*
%TO.N,/INV_OUT*%
X180345000Y-73655000D02*
X182880000Y-71120000D01*
X180345000Y-76240000D02*
X180345000Y-73655000D01*
%TO.N,/LFO_CMP*%
X193040000Y-63500000D02*
X193040000Y-60960000D01*
%TO.N,/TRIG_CMP*%
X185415000Y-100970000D02*
X185420000Y-100965000D01*
%TD*%
%TA.AperFunction,Conductor*%
%TO.N,GND*%
G36*
X178517012Y-129002279D02*
G01*
X178523595Y-129008408D01*
X182815025Y-133299839D01*
X182827865Y-133314872D01*
X182836134Y-133326253D01*
X182841044Y-133330674D01*
X182841045Y-133330675D01*
X182886949Y-133372007D01*
X182891734Y-133376548D01*
X182906258Y-133391072D01*
X182922251Y-133404023D01*
X182927222Y-133408269D01*
X182978056Y-133454040D01*
X182983771Y-133457340D01*
X182983773Y-133457341D01*
X182990238Y-133461074D01*
X183006529Y-133472271D01*
X183012333Y-133476971D01*
X183012339Y-133476975D01*
X183017469Y-133481129D01*
X183023351Y-133484126D01*
X183078426Y-133512188D01*
X183084220Y-133515335D01*
X183143444Y-133549527D01*
X183149726Y-133551568D01*
X183149728Y-133551569D01*
X183156826Y-133553875D01*
X183175092Y-133561440D01*
X183187630Y-133567829D01*
X183194006Y-133569538D01*
X183194010Y-133569539D01*
X183253685Y-133585529D01*
X183260010Y-133587402D01*
X183325072Y-133608542D01*
X183331640Y-133609232D01*
X183331644Y-133609233D01*
X183339061Y-133610012D01*
X183358508Y-133613616D01*
X183372096Y-133617257D01*
X183378695Y-133617603D01*
X183378696Y-133617603D01*
X183440385Y-133620836D01*
X183446960Y-133621353D01*
X183461222Y-133622852D01*
X183467390Y-133623500D01*
X183487925Y-133623500D01*
X183494519Y-133623673D01*
X183556217Y-133626907D01*
X183556222Y-133626907D01*
X183562809Y-133627252D01*
X183576707Y-133625051D01*
X183596416Y-133623500D01*
X190706497Y-133623500D01*
X190774618Y-133643502D01*
X190795592Y-133660405D01*
X192764068Y-135628881D01*
X192798094Y-135691193D01*
X192793029Y-135762008D01*
X192750482Y-135818844D01*
X192714118Y-135837741D01*
X192516868Y-135902212D01*
X192507359Y-135906209D01*
X192318466Y-136004540D01*
X192309734Y-136010039D01*
X192289677Y-136025099D01*
X192281223Y-136036427D01*
X192287968Y-136048758D01*
X194150474Y-137911264D01*
X194162484Y-137917823D01*
X194174223Y-137908855D01*
X194208022Y-137861819D01*
X194209277Y-137862721D01*
X194256391Y-137819355D01*
X194326330Y-137807148D01*
X194391767Y-137834691D01*
X194419580Y-137866513D01*
X194477287Y-137960683D01*
X194477291Y-137960688D01*
X194479987Y-137965088D01*
X194483367Y-137968990D01*
X194540737Y-138035219D01*
X194570220Y-138099804D01*
X194571500Y-138117717D01*
X194571500Y-138390572D01*
X194551498Y-138458693D01*
X194517112Y-138492495D01*
X194517612Y-138493125D01*
X194511880Y-138497668D01*
X194505652Y-138501522D01*
X194380695Y-138626697D01*
X194376855Y-138632927D01*
X194376854Y-138632928D01*
X194310276Y-138740938D01*
X194287885Y-138777262D01*
X194271807Y-138825737D01*
X194263236Y-138851577D01*
X194222806Y-138909937D01*
X194196330Y-138926366D01*
X194152811Y-138946399D01*
X193436115Y-139663095D01*
X193373803Y-139697121D01*
X193347020Y-139700000D01*
X192732980Y-139700000D01*
X192664859Y-139679998D01*
X192643885Y-139663095D01*
X191929849Y-138949059D01*
X191918313Y-138942759D01*
X191906028Y-138952384D01*
X191873192Y-139000520D01*
X191818281Y-139045523D01*
X191747756Y-139053694D01*
X191684009Y-139022440D01*
X191663311Y-138997955D01*
X191633062Y-138951197D01*
X191622377Y-138941995D01*
X191612812Y-138946398D01*
X190896115Y-139663095D01*
X190833803Y-139697121D01*
X190807020Y-139700000D01*
X190192980Y-139700000D01*
X190124859Y-139679998D01*
X190103885Y-139663095D01*
X189389849Y-138949059D01*
X189378313Y-138942759D01*
X189366028Y-138952384D01*
X189333192Y-139000520D01*
X189278281Y-139045523D01*
X189207756Y-139053694D01*
X189144009Y-139022440D01*
X189123311Y-138997955D01*
X189093062Y-138951197D01*
X189082377Y-138941995D01*
X189072812Y-138946398D01*
X188356115Y-139663095D01*
X188293803Y-139697121D01*
X188267020Y-139700000D01*
X187652980Y-139700000D01*
X187584859Y-139679998D01*
X187563885Y-139663095D01*
X186849849Y-138949059D01*
X186838313Y-138942759D01*
X186826031Y-138952382D01*
X186793499Y-139000072D01*
X186738587Y-139045075D01*
X186668063Y-139053246D01*
X186604316Y-139021992D01*
X186583618Y-138997508D01*
X186502825Y-138872621D01*
X186502820Y-138872615D01*
X186500014Y-138868277D01*
X186496532Y-138864450D01*
X186461306Y-138825737D01*
X186430254Y-138761891D01*
X186428500Y-138740938D01*
X186428500Y-138284853D01*
X187199977Y-138284853D01*
X187205258Y-138291907D01*
X187252479Y-138319501D01*
X187301203Y-138371139D01*
X187314274Y-138440922D01*
X187287543Y-138506694D01*
X187247087Y-138540053D01*
X187238466Y-138544541D01*
X187229734Y-138550039D01*
X187209677Y-138565099D01*
X187201223Y-138576427D01*
X187207968Y-138588758D01*
X187947188Y-139327978D01*
X187961132Y-139335592D01*
X187962965Y-139335461D01*
X187969580Y-139331210D01*
X188713389Y-138587401D01*
X188720410Y-138574544D01*
X188713611Y-138565213D01*
X188709559Y-138562521D01*
X188672116Y-138541852D01*
X188622145Y-138491420D01*
X188607373Y-138421977D01*
X188632489Y-138355572D01*
X188659840Y-138328965D01*
X188709247Y-138293723D01*
X188716211Y-138284853D01*
X189739977Y-138284853D01*
X189745258Y-138291907D01*
X189792479Y-138319501D01*
X189841203Y-138371139D01*
X189854274Y-138440922D01*
X189827543Y-138506694D01*
X189787087Y-138540053D01*
X189778466Y-138544541D01*
X189769734Y-138550039D01*
X189749677Y-138565099D01*
X189741223Y-138576427D01*
X189747968Y-138588758D01*
X190487188Y-139327978D01*
X190501132Y-139335592D01*
X190502965Y-139335461D01*
X190509580Y-139331210D01*
X191253389Y-138587401D01*
X191260410Y-138574544D01*
X191253611Y-138565213D01*
X191249559Y-138562521D01*
X191212116Y-138541852D01*
X191162145Y-138491420D01*
X191147373Y-138421977D01*
X191172489Y-138355572D01*
X191199840Y-138328965D01*
X191249247Y-138293723D01*
X191256211Y-138284853D01*
X192279977Y-138284853D01*
X192285258Y-138291907D01*
X192332479Y-138319501D01*
X192381203Y-138371139D01*
X192394274Y-138440922D01*
X192367543Y-138506694D01*
X192327087Y-138540053D01*
X192318466Y-138544541D01*
X192309734Y-138550039D01*
X192289677Y-138565099D01*
X192281223Y-138576427D01*
X192287968Y-138588758D01*
X193027188Y-139327978D01*
X193041132Y-139335592D01*
X193042965Y-139335461D01*
X193049580Y-139331210D01*
X193793389Y-138587401D01*
X193800410Y-138574544D01*
X193793611Y-138565213D01*
X193789559Y-138562521D01*
X193752116Y-138541852D01*
X193702145Y-138491420D01*
X193687373Y-138421977D01*
X193712489Y-138355572D01*
X193739840Y-138328965D01*
X193789247Y-138293723D01*
X193797648Y-138283023D01*
X193790660Y-138269870D01*
X193052812Y-137532022D01*
X193038868Y-137524408D01*
X193037035Y-137524539D01*
X193030420Y-137528790D01*
X192286737Y-138272473D01*
X192279977Y-138284853D01*
X191256211Y-138284853D01*
X191257648Y-138283023D01*
X191250660Y-138269870D01*
X190512812Y-137532022D01*
X190498868Y-137524408D01*
X190497035Y-137524539D01*
X190490420Y-137528790D01*
X189746737Y-138272473D01*
X189739977Y-138284853D01*
X188716211Y-138284853D01*
X188717648Y-138283023D01*
X188710660Y-138269870D01*
X187972812Y-137532022D01*
X187958868Y-137524408D01*
X187957035Y-137524539D01*
X187950420Y-137528790D01*
X187206737Y-138272473D01*
X187199977Y-138284853D01*
X186428500Y-138284853D01*
X186428500Y-138123970D01*
X186448502Y-138055849D01*
X186456460Y-138045120D01*
X186458096Y-138043489D01*
X186588453Y-137862077D01*
X186589640Y-137862930D01*
X186636960Y-137819362D01*
X186706897Y-137807145D01*
X186772338Y-137834678D01*
X186800166Y-137866512D01*
X186826459Y-137909419D01*
X186836916Y-137918880D01*
X186845694Y-137915096D01*
X187587978Y-137172812D01*
X187594356Y-137161132D01*
X188324408Y-137161132D01*
X188324539Y-137162965D01*
X188328790Y-137169580D01*
X189070474Y-137911264D01*
X189082484Y-137917823D01*
X189094223Y-137908855D01*
X189128022Y-137861819D01*
X189129149Y-137862629D01*
X189176659Y-137818881D01*
X189246596Y-137806661D01*
X189312038Y-137834191D01*
X189339870Y-137866029D01*
X189366459Y-137909419D01*
X189376916Y-137918880D01*
X189385694Y-137915096D01*
X190127978Y-137172812D01*
X190134356Y-137161132D01*
X190864408Y-137161132D01*
X190864539Y-137162965D01*
X190868790Y-137169580D01*
X191610474Y-137911264D01*
X191622484Y-137917823D01*
X191634223Y-137908855D01*
X191668022Y-137861819D01*
X191669149Y-137862629D01*
X191716659Y-137818881D01*
X191786596Y-137806661D01*
X191852038Y-137834191D01*
X191879870Y-137866029D01*
X191906459Y-137909419D01*
X191916916Y-137918880D01*
X191925694Y-137915096D01*
X192667978Y-137172812D01*
X192675592Y-137158868D01*
X192675461Y-137157035D01*
X192671210Y-137150420D01*
X191929849Y-136409059D01*
X191918313Y-136402759D01*
X191906028Y-136412384D01*
X191873192Y-136460520D01*
X191818281Y-136505523D01*
X191747756Y-136513694D01*
X191684009Y-136482440D01*
X191663311Y-136457955D01*
X191633062Y-136411197D01*
X191622377Y-136401995D01*
X191612812Y-136406398D01*
X190872022Y-137147188D01*
X190864408Y-137161132D01*
X190134356Y-137161132D01*
X190135592Y-137158868D01*
X190135461Y-137157035D01*
X190131210Y-137150420D01*
X189389849Y-136409059D01*
X189378313Y-136402759D01*
X189366028Y-136412384D01*
X189333192Y-136460520D01*
X189278281Y-136505523D01*
X189207756Y-136513694D01*
X189144009Y-136482440D01*
X189123311Y-136457955D01*
X189093062Y-136411197D01*
X189082377Y-136401995D01*
X189072812Y-136406398D01*
X188332022Y-137147188D01*
X188324408Y-137161132D01*
X187594356Y-137161132D01*
X187595592Y-137158868D01*
X187595461Y-137157035D01*
X187591210Y-137150420D01*
X186849849Y-136409059D01*
X186838313Y-136402759D01*
X186826031Y-136412382D01*
X186793499Y-136460072D01*
X186738587Y-136505075D01*
X186668063Y-136513246D01*
X186604316Y-136481992D01*
X186583618Y-136457508D01*
X186502822Y-136332617D01*
X186502820Y-136332614D01*
X186500014Y-136328277D01*
X186349670Y-136163051D01*
X186345619Y-136159852D01*
X186345615Y-136159848D01*
X186189338Y-136036427D01*
X187201223Y-136036427D01*
X187207968Y-136048758D01*
X187947188Y-136787978D01*
X187961132Y-136795592D01*
X187962965Y-136795461D01*
X187969580Y-136791210D01*
X188713389Y-136047401D01*
X188719382Y-136036427D01*
X189741223Y-136036427D01*
X189747968Y-136048758D01*
X190487188Y-136787978D01*
X190501132Y-136795592D01*
X190502965Y-136795461D01*
X190509580Y-136791210D01*
X191253389Y-136047401D01*
X191260410Y-136034544D01*
X191253611Y-136025213D01*
X191249554Y-136022518D01*
X191063117Y-135919599D01*
X191053705Y-135915369D01*
X190852959Y-135844280D01*
X190842989Y-135841646D01*
X190633327Y-135804301D01*
X190623073Y-135803331D01*
X190410116Y-135800728D01*
X190399832Y-135801448D01*
X190189321Y-135833661D01*
X190179293Y-135836050D01*
X189976868Y-135902212D01*
X189967359Y-135906209D01*
X189778466Y-136004540D01*
X189769734Y-136010039D01*
X189749677Y-136025099D01*
X189741223Y-136036427D01*
X188719382Y-136036427D01*
X188720410Y-136034544D01*
X188713611Y-136025213D01*
X188709554Y-136022518D01*
X188523117Y-135919599D01*
X188513705Y-135915369D01*
X188312959Y-135844280D01*
X188302989Y-135841646D01*
X188093327Y-135804301D01*
X188083073Y-135803331D01*
X187870116Y-135800728D01*
X187859832Y-135801448D01*
X187649321Y-135833661D01*
X187639293Y-135836050D01*
X187436868Y-135902212D01*
X187427359Y-135906209D01*
X187238466Y-136004540D01*
X187229734Y-136010039D01*
X187209677Y-136025099D01*
X187201223Y-136036427D01*
X186189338Y-136036427D01*
X186178414Y-136027800D01*
X186178410Y-136027798D01*
X186174359Y-136024598D01*
X185978789Y-135916638D01*
X185973920Y-135914914D01*
X185973916Y-135914912D01*
X185773087Y-135843795D01*
X185773083Y-135843794D01*
X185768212Y-135842069D01*
X185763119Y-135841162D01*
X185763116Y-135841161D01*
X185553373Y-135803800D01*
X185553367Y-135803799D01*
X185548284Y-135802894D01*
X185474452Y-135801992D01*
X185330081Y-135800228D01*
X185330079Y-135800228D01*
X185324911Y-135800165D01*
X185104091Y-135833955D01*
X184891756Y-135903357D01*
X184693607Y-136006507D01*
X184689474Y-136009610D01*
X184689471Y-136009612D01*
X184519100Y-136137530D01*
X184514965Y-136140635D01*
X184360629Y-136302138D01*
X184234743Y-136486680D01*
X184140688Y-136689305D01*
X184080989Y-136904570D01*
X184057251Y-137126695D01*
X184057548Y-137131848D01*
X184057548Y-137131851D01*
X184059910Y-137172812D01*
X184070110Y-137349715D01*
X184071247Y-137354761D01*
X184071248Y-137354767D01*
X184092275Y-137448069D01*
X184119222Y-137567639D01*
X184203266Y-137774616D01*
X184240072Y-137834678D01*
X184317288Y-137960683D01*
X184319987Y-137965088D01*
X184323367Y-137968990D01*
X184380737Y-138035219D01*
X184410220Y-138099804D01*
X184411500Y-138117717D01*
X184411500Y-138738381D01*
X184391498Y-138806502D01*
X184376594Y-138825432D01*
X184360629Y-138842138D01*
X184234743Y-139026680D01*
X184140688Y-139229305D01*
X184080989Y-139444570D01*
X184057251Y-139666695D01*
X184070110Y-139889715D01*
X184071247Y-139894761D01*
X184071248Y-139894767D01*
X184095304Y-140001508D01*
X184119222Y-140107639D01*
X184154026Y-140193352D01*
X184189485Y-140280676D01*
X184203266Y-140314616D01*
X184205965Y-140319020D01*
X184311652Y-140491486D01*
X184319987Y-140505088D01*
X184342617Y-140531212D01*
X184380737Y-140575219D01*
X184410220Y-140639804D01*
X184411500Y-140657717D01*
X184411500Y-144628991D01*
X184391498Y-144697112D01*
X184337842Y-144743605D01*
X184332306Y-144745903D01*
X184331704Y-144746232D01*
X184323295Y-144749385D01*
X184206739Y-144836739D01*
X184119385Y-144953295D01*
X184116233Y-144961703D01*
X184111923Y-144969575D01*
X184110259Y-144968664D01*
X184074337Y-145016490D01*
X184007776Y-145041193D01*
X183998991Y-145041500D01*
X183349926Y-145041500D01*
X183281805Y-145021498D01*
X183260831Y-145004596D01*
X182755405Y-144499171D01*
X182721380Y-144436858D01*
X182718500Y-144410075D01*
X182718500Y-144131866D01*
X182711745Y-144069684D01*
X182660615Y-143933295D01*
X182573261Y-143816739D01*
X182456705Y-143729385D01*
X182320316Y-143678255D01*
X182258134Y-143671500D01*
X180961866Y-143671500D01*
X180899684Y-143678255D01*
X180763295Y-143729385D01*
X180740615Y-143746383D01*
X180716913Y-143764146D01*
X180650407Y-143788993D01*
X180594659Y-143780349D01*
X180431401Y-143715216D01*
X180420373Y-143711949D01*
X180231982Y-143674476D01*
X180220535Y-143673273D01*
X180028477Y-143670759D01*
X180016997Y-143671662D01*
X179827697Y-143704190D01*
X179816577Y-143707170D01*
X179636365Y-143773653D01*
X179625991Y-143778601D01*
X179542385Y-143828342D01*
X179532788Y-143838675D01*
X179536275Y-143847065D01*
X180380115Y-144690905D01*
X180414141Y-144753217D01*
X180409076Y-144824032D01*
X180380115Y-144869095D01*
X180110000Y-145139210D01*
X179539263Y-145709948D01*
X179533067Y-145721294D01*
X179542949Y-145733784D01*
X179574239Y-145754691D01*
X179584349Y-145760181D01*
X179760835Y-145836005D01*
X179771778Y-145839560D01*
X179959120Y-145881952D01*
X179970530Y-145883454D01*
X180162469Y-145890995D01*
X180173951Y-145890393D01*
X180364045Y-145862832D01*
X180375240Y-145860144D01*
X180557127Y-145798401D01*
X180567626Y-145793726D01*
X180579913Y-145786845D01*
X180649121Y-145771011D01*
X180717045Y-145795953D01*
X180763295Y-145830615D01*
X180899684Y-145881745D01*
X180961866Y-145888500D01*
X181240074Y-145888500D01*
X181308195Y-145908502D01*
X181329169Y-145925404D01*
X181707766Y-146304000D01*
X182000170Y-146596404D01*
X182034195Y-146658717D01*
X182029131Y-146729532D01*
X181986584Y-146786368D01*
X181920064Y-146811179D01*
X181911075Y-146811500D01*
X178434500Y-146811500D01*
X178366379Y-146791498D01*
X178319886Y-146737842D01*
X178308500Y-146685500D01*
X178308500Y-144756638D01*
X178998012Y-144756638D01*
X179010575Y-144948304D01*
X179012376Y-144959674D01*
X179059657Y-145145843D01*
X179063498Y-145156690D01*
X179143916Y-145331130D01*
X179149664Y-145341086D01*
X179155788Y-145349751D01*
X179166377Y-145358140D01*
X179179676Y-145351113D01*
X179737979Y-144792811D01*
X179745592Y-144778868D01*
X179745461Y-144777034D01*
X179741210Y-144770420D01*
X179178538Y-144207749D01*
X179166163Y-144200992D01*
X179160197Y-144205458D01*
X179084645Y-144349058D01*
X179080242Y-144359691D01*
X179023281Y-144543132D01*
X179020891Y-144554376D01*
X178998313Y-144745137D01*
X178998012Y-144756638D01*
X178308500Y-144756638D01*
X178308500Y-129097503D01*
X178328502Y-129029382D01*
X178382158Y-128982889D01*
X178452432Y-128972785D01*
X178517012Y-129002279D01*
G37*
%TD.AperFunction*%
%TA.AperFunction,Conductor*%
G36*
X196913959Y-111680339D02*
G01*
X196959195Y-111732543D01*
X196975151Y-111766762D01*
X196975154Y-111766767D01*
X196977477Y-111771749D01*
X197006872Y-111813729D01*
X197082674Y-111921985D01*
X197108802Y-111959300D01*
X197270700Y-112121198D01*
X197275208Y-112124355D01*
X197275211Y-112124357D01*
X197284981Y-112131198D01*
X197458251Y-112252523D01*
X197463233Y-112254846D01*
X197463238Y-112254849D01*
X197631886Y-112333490D01*
X197665757Y-112349284D01*
X197671065Y-112350706D01*
X197671067Y-112350707D01*
X197881598Y-112407119D01*
X197881600Y-112407119D01*
X197886913Y-112408543D01*
X198115000Y-112428498D01*
X198343087Y-112408543D01*
X198348400Y-112407119D01*
X198348402Y-112407119D01*
X198558933Y-112350707D01*
X198558935Y-112350706D01*
X198564243Y-112349284D01*
X198598114Y-112333490D01*
X198766762Y-112254849D01*
X198766767Y-112254846D01*
X198771749Y-112252523D01*
X198945019Y-112131198D01*
X198954789Y-112124357D01*
X198954792Y-112124355D01*
X198959300Y-112121198D01*
X199121198Y-111959300D01*
X199136652Y-111937229D01*
X199192108Y-111892901D01*
X199239865Y-111883500D01*
X199528133Y-111883500D01*
X199596254Y-111903502D01*
X199631345Y-111937228D01*
X199653802Y-111969300D01*
X199815700Y-112131198D01*
X199820208Y-112134355D01*
X199820211Y-112134357D01*
X199859268Y-112161705D01*
X200003251Y-112262523D01*
X200008233Y-112264846D01*
X200008238Y-112264849D01*
X200192363Y-112350707D01*
X200210757Y-112359284D01*
X200216065Y-112360706D01*
X200216067Y-112360707D01*
X200426598Y-112417119D01*
X200426600Y-112417119D01*
X200431913Y-112418543D01*
X200660000Y-112438498D01*
X200888087Y-112418543D01*
X200893400Y-112417119D01*
X200893402Y-112417119D01*
X201103933Y-112360707D01*
X201103935Y-112360706D01*
X201109243Y-112359284D01*
X201127637Y-112350707D01*
X201311762Y-112264849D01*
X201311767Y-112264846D01*
X201316749Y-112262523D01*
X201460732Y-112161705D01*
X201499789Y-112134357D01*
X201499792Y-112134355D01*
X201504300Y-112131198D01*
X201666198Y-111969300D01*
X201670472Y-111963197D01*
X201775130Y-111813729D01*
X201830587Y-111769401D01*
X201878343Y-111760000D01*
X202565500Y-111760000D01*
X202633621Y-111780002D01*
X202680114Y-111833658D01*
X202691500Y-111886000D01*
X202691500Y-146685500D01*
X202671498Y-146753621D01*
X202617842Y-146800114D01*
X202565500Y-146811500D01*
X199088926Y-146811500D01*
X199020805Y-146791498D01*
X198974312Y-146737842D01*
X198964208Y-146667568D01*
X198993702Y-146602988D01*
X198999830Y-146596405D01*
X199756066Y-145840168D01*
X199804661Y-145809950D01*
X199837331Y-145798860D01*
X199842799Y-145797004D01*
X199850557Y-145792659D01*
X199860833Y-145786905D01*
X199930041Y-145771073D01*
X199997962Y-145796014D01*
X200036356Y-145824789D01*
X200051946Y-145833324D01*
X200172394Y-145878478D01*
X200187649Y-145882105D01*
X200238514Y-145887631D01*
X200245328Y-145888000D01*
X200617885Y-145888000D01*
X200633124Y-145883525D01*
X200634329Y-145882135D01*
X200636000Y-145874452D01*
X200636000Y-145869884D01*
X201144000Y-145869884D01*
X201148475Y-145885123D01*
X201149865Y-145886328D01*
X201157548Y-145887999D01*
X201534669Y-145887999D01*
X201541490Y-145887629D01*
X201592352Y-145882105D01*
X201607604Y-145878479D01*
X201728054Y-145833324D01*
X201743649Y-145824786D01*
X201845724Y-145748285D01*
X201858285Y-145735724D01*
X201934786Y-145633649D01*
X201943324Y-145618054D01*
X201988478Y-145497606D01*
X201992105Y-145482351D01*
X201997631Y-145431486D01*
X201998000Y-145424672D01*
X201998000Y-145052115D01*
X201993525Y-145036876D01*
X201992135Y-145035671D01*
X201984452Y-145034000D01*
X201162115Y-145034000D01*
X201146876Y-145038475D01*
X201145671Y-145039865D01*
X201144000Y-145047548D01*
X201144000Y-145869884D01*
X200636000Y-145869884D01*
X200636000Y-144507885D01*
X201144000Y-144507885D01*
X201148475Y-144523124D01*
X201149865Y-144524329D01*
X201157548Y-144526000D01*
X201979884Y-144526000D01*
X201995123Y-144521525D01*
X201996328Y-144520135D01*
X201997999Y-144512452D01*
X201997999Y-144135331D01*
X201997629Y-144128510D01*
X201992105Y-144077648D01*
X201988479Y-144062396D01*
X201943324Y-143941946D01*
X201934786Y-143926351D01*
X201858285Y-143824276D01*
X201845724Y-143811715D01*
X201743649Y-143735214D01*
X201728054Y-143726676D01*
X201607606Y-143681522D01*
X201592351Y-143677895D01*
X201541486Y-143672369D01*
X201534672Y-143672000D01*
X201162115Y-143672000D01*
X201146876Y-143676475D01*
X201145671Y-143677865D01*
X201144000Y-143685548D01*
X201144000Y-144507885D01*
X200636000Y-144507885D01*
X200636000Y-143690116D01*
X200631525Y-143674877D01*
X200630135Y-143673672D01*
X200622452Y-143672001D01*
X200245331Y-143672001D01*
X200238510Y-143672371D01*
X200187648Y-143677895D01*
X200172396Y-143681521D01*
X200051942Y-143726677D01*
X200036355Y-143735211D01*
X199997925Y-143764012D01*
X199931418Y-143788859D01*
X199875671Y-143780215D01*
X199711549Y-143714737D01*
X199706180Y-143712595D01*
X199518854Y-143675333D01*
X199512032Y-143673976D01*
X199512031Y-143673976D01*
X199506366Y-143672849D01*
X199500592Y-143672773D01*
X199500588Y-143672773D01*
X199397452Y-143671424D01*
X199302655Y-143670183D01*
X199296958Y-143671162D01*
X199296957Y-143671162D01*
X199186651Y-143690116D01*
X199101870Y-143704684D01*
X198910734Y-143775198D01*
X198905773Y-143778150D01*
X198905772Y-143778150D01*
X198828242Y-143824276D01*
X198735649Y-143879363D01*
X198582478Y-144013690D01*
X198578911Y-144018215D01*
X198578906Y-144018220D01*
X198532057Y-144077648D01*
X198456351Y-144173681D01*
X198361492Y-144353978D01*
X198357979Y-144365292D01*
X198326743Y-144417022D01*
X198025995Y-144717771D01*
X197739171Y-145004595D01*
X197676858Y-145038620D01*
X197650075Y-145041500D01*
X196538799Y-145041500D01*
X196470678Y-145021498D01*
X196460707Y-145014382D01*
X196338414Y-144917800D01*
X196338410Y-144917798D01*
X196334359Y-144914598D01*
X196298028Y-144894542D01*
X196251930Y-144869095D01*
X196138789Y-144806638D01*
X196133920Y-144804914D01*
X196133916Y-144804912D01*
X195933087Y-144733795D01*
X195933083Y-144733794D01*
X195928212Y-144732069D01*
X195923119Y-144731162D01*
X195923116Y-144731161D01*
X195713373Y-144693800D01*
X195713367Y-144693799D01*
X195708284Y-144692894D01*
X195634452Y-144691992D01*
X195490081Y-144690228D01*
X195490079Y-144690228D01*
X195484911Y-144690165D01*
X195264091Y-144723955D01*
X195051756Y-144793357D01*
X194992830Y-144824032D01*
X194965493Y-144838263D01*
X194853607Y-144896507D01*
X194849474Y-144899610D01*
X194849471Y-144899612D01*
X194696612Y-145014382D01*
X194674965Y-145030635D01*
X194664876Y-145041193D01*
X194564870Y-145145843D01*
X194520629Y-145192138D01*
X194517715Y-145196410D01*
X194517714Y-145196411D01*
X194505199Y-145214757D01*
X194414337Y-145347957D01*
X194412898Y-145350066D01*
X194357987Y-145395069D01*
X194287462Y-145403240D01*
X194223715Y-145371986D01*
X194203018Y-145347502D01*
X194122426Y-145222926D01*
X194116136Y-145214757D01*
X193972806Y-145057240D01*
X193965273Y-145050215D01*
X193798139Y-144918222D01*
X193789552Y-144912517D01*
X193603117Y-144809599D01*
X193593705Y-144805369D01*
X193392959Y-144734280D01*
X193382988Y-144731646D01*
X193311837Y-144718972D01*
X193298540Y-144720432D01*
X193294000Y-144734989D01*
X193294000Y-146178000D01*
X193273998Y-146246121D01*
X193220342Y-146292614D01*
X193168000Y-146304000D01*
X187832000Y-146304000D01*
X187763879Y-146283998D01*
X187717386Y-146230342D01*
X187706000Y-146178000D01*
X187706000Y-145777885D01*
X188214000Y-145777885D01*
X188218475Y-145793124D01*
X188219865Y-145794329D01*
X188227548Y-145796000D01*
X190227885Y-145796000D01*
X190243124Y-145791525D01*
X190244329Y-145790135D01*
X190246000Y-145782452D01*
X190246000Y-145777885D01*
X190754000Y-145777885D01*
X190758475Y-145793124D01*
X190759865Y-145794329D01*
X190767548Y-145796000D01*
X192767885Y-145796000D01*
X192783124Y-145791525D01*
X192784329Y-145790135D01*
X192786000Y-145782452D01*
X192786000Y-144733102D01*
X192782082Y-144719758D01*
X192767806Y-144717771D01*
X192729324Y-144723660D01*
X192719288Y-144726051D01*
X192516868Y-144792212D01*
X192507359Y-144796209D01*
X192318463Y-144894542D01*
X192309738Y-144900036D01*
X192139433Y-145027905D01*
X192131726Y-145034748D01*
X191984590Y-145188717D01*
X191978104Y-145196727D01*
X191873193Y-145350521D01*
X191818282Y-145395524D01*
X191747757Y-145403695D01*
X191684010Y-145372441D01*
X191663313Y-145347957D01*
X191582427Y-145222926D01*
X191576136Y-145214757D01*
X191432806Y-145057240D01*
X191425273Y-145050215D01*
X191258139Y-144918222D01*
X191249552Y-144912517D01*
X191063117Y-144809599D01*
X191053705Y-144805369D01*
X190852959Y-144734280D01*
X190842988Y-144731646D01*
X190771837Y-144718972D01*
X190758540Y-144720432D01*
X190754000Y-144734989D01*
X190754000Y-145777885D01*
X190246000Y-145777885D01*
X190246000Y-144733102D01*
X190242082Y-144719758D01*
X190227806Y-144717771D01*
X190189324Y-144723660D01*
X190179288Y-144726051D01*
X189976868Y-144792212D01*
X189967359Y-144796209D01*
X189778463Y-144894542D01*
X189769738Y-144900036D01*
X189599433Y-145027905D01*
X189591726Y-145034748D01*
X189444590Y-145188717D01*
X189438104Y-145196727D01*
X189333193Y-145350521D01*
X189278282Y-145395524D01*
X189207757Y-145403695D01*
X189144010Y-145372441D01*
X189123313Y-145347957D01*
X189042427Y-145222926D01*
X189036136Y-145214757D01*
X188892806Y-145057240D01*
X188885273Y-145050215D01*
X188718139Y-144918222D01*
X188709552Y-144912517D01*
X188523117Y-144809599D01*
X188513705Y-144805369D01*
X188312959Y-144734280D01*
X188302988Y-144731646D01*
X188231837Y-144718972D01*
X188218540Y-144720432D01*
X188214000Y-144734989D01*
X188214000Y-145777885D01*
X187706000Y-145777885D01*
X187706000Y-144733102D01*
X187702082Y-144719758D01*
X187687806Y-144717771D01*
X187649324Y-144723660D01*
X187639288Y-144726051D01*
X187436868Y-144792212D01*
X187427359Y-144796209D01*
X187238463Y-144894542D01*
X187229738Y-144900036D01*
X187059433Y-145027905D01*
X187051726Y-145034748D01*
X186974478Y-145115584D01*
X186912954Y-145151014D01*
X186842042Y-145147557D01*
X186784255Y-145106311D01*
X186765402Y-145072763D01*
X186723767Y-144961703D01*
X186720615Y-144953295D01*
X186633261Y-144836739D01*
X186516705Y-144749385D01*
X186508296Y-144746233D01*
X186500425Y-144741923D01*
X186501336Y-144740259D01*
X186453510Y-144704337D01*
X186428807Y-144637776D01*
X186428500Y-144628991D01*
X186428500Y-143909500D01*
X186448502Y-143841379D01*
X186502158Y-143794886D01*
X186554500Y-143783500D01*
X195498583Y-143783500D01*
X195518292Y-143785051D01*
X195532190Y-143787252D01*
X195538777Y-143786907D01*
X195538782Y-143786907D01*
X195600480Y-143783673D01*
X195607074Y-143783500D01*
X195627610Y-143783500D01*
X195630882Y-143783156D01*
X195630884Y-143783156D01*
X195648042Y-143781353D01*
X195654616Y-143780836D01*
X195716308Y-143777603D01*
X195716312Y-143777602D01*
X195722903Y-143777257D01*
X195729284Y-143775547D01*
X195729286Y-143775547D01*
X195736491Y-143773617D01*
X195755925Y-143770015D01*
X195763354Y-143769234D01*
X195763363Y-143769232D01*
X195769928Y-143768542D01*
X195834997Y-143747400D01*
X195841299Y-143745533D01*
X195907370Y-143727829D01*
X195919908Y-143721440D01*
X195938174Y-143713875D01*
X195945272Y-143711569D01*
X195945274Y-143711568D01*
X195951556Y-143709527D01*
X195959945Y-143704684D01*
X196005721Y-143678255D01*
X196010785Y-143675331D01*
X196016579Y-143672185D01*
X196017199Y-143671869D01*
X196077530Y-143641129D01*
X196088467Y-143632273D01*
X196104763Y-143621073D01*
X196111224Y-143617343D01*
X196111228Y-143617340D01*
X196116944Y-143614040D01*
X196121850Y-143609623D01*
X196121855Y-143609619D01*
X196167769Y-143568278D01*
X196172784Y-143563994D01*
X196186177Y-143553148D01*
X196188741Y-143551072D01*
X196203256Y-143536557D01*
X196208041Y-143532016D01*
X196253957Y-143490673D01*
X196258866Y-143486253D01*
X196267140Y-143474865D01*
X196279981Y-143459832D01*
X198704832Y-141034981D01*
X198719865Y-141022140D01*
X198725913Y-141017746D01*
X198725914Y-141017745D01*
X198731253Y-141013866D01*
X198777016Y-140963041D01*
X198781557Y-140958256D01*
X198796072Y-140943741D01*
X198808997Y-140927780D01*
X198813269Y-140922779D01*
X198854619Y-140876855D01*
X198854623Y-140876850D01*
X198859040Y-140871944D01*
X198866073Y-140859763D01*
X198877267Y-140843474D01*
X198886129Y-140832531D01*
X198917189Y-140771572D01*
X198920336Y-140765777D01*
X198951223Y-140712279D01*
X198951223Y-140712278D01*
X198954527Y-140706556D01*
X198958875Y-140693173D01*
X198966441Y-140674907D01*
X198969832Y-140668252D01*
X198972829Y-140662370D01*
X198975600Y-140652031D01*
X198990529Y-140596315D01*
X198992402Y-140589991D01*
X199011500Y-140531212D01*
X199013542Y-140524928D01*
X199015012Y-140510939D01*
X199018617Y-140491486D01*
X199020547Y-140484285D01*
X199022257Y-140477904D01*
X199025836Y-140409615D01*
X199026353Y-140403040D01*
X199028156Y-140385882D01*
X199028500Y-140382610D01*
X199028500Y-140362075D01*
X199028673Y-140355481D01*
X199031907Y-140293783D01*
X199031907Y-140293778D01*
X199032252Y-140287191D01*
X199030051Y-140273293D01*
X199028500Y-140253584D01*
X199028500Y-128629188D01*
X199048502Y-128561067D01*
X199065405Y-128540093D01*
X199126198Y-128479300D01*
X199257523Y-128291749D01*
X199259846Y-128286767D01*
X199259849Y-128286762D01*
X199351961Y-128089225D01*
X199351961Y-128089224D01*
X199354284Y-128084243D01*
X199374976Y-128007022D01*
X199412119Y-127868402D01*
X199412119Y-127868400D01*
X199413543Y-127863087D01*
X199433498Y-127635000D01*
X199413543Y-127406913D01*
X199403244Y-127368478D01*
X199355707Y-127191067D01*
X199355706Y-127191065D01*
X199354284Y-127185757D01*
X199300424Y-127070253D01*
X199259849Y-126983238D01*
X199259846Y-126983233D01*
X199257523Y-126978251D01*
X199126198Y-126790700D01*
X198964300Y-126628802D01*
X198959792Y-126625645D01*
X198959789Y-126625643D01*
X198833920Y-126537509D01*
X198776749Y-126497477D01*
X198771767Y-126495154D01*
X198771762Y-126495151D01*
X198574225Y-126403039D01*
X198574224Y-126403039D01*
X198569243Y-126400716D01*
X198563935Y-126399294D01*
X198563933Y-126399293D01*
X198353402Y-126342881D01*
X198353400Y-126342881D01*
X198348087Y-126341457D01*
X198342611Y-126340978D01*
X198342606Y-126340977D01*
X198212904Y-126329630D01*
X198134249Y-126322749D01*
X198068131Y-126296886D01*
X198056136Y-126286323D01*
X191445405Y-119675592D01*
X191411379Y-119613280D01*
X191408500Y-119586497D01*
X191408500Y-118236000D01*
X191428502Y-118167879D01*
X191482158Y-118121386D01*
X191534500Y-118110000D01*
X191821657Y-118110000D01*
X191889778Y-118130002D01*
X191924869Y-118163728D01*
X192033802Y-118319300D01*
X192195700Y-118481198D01*
X192200208Y-118484355D01*
X192200211Y-118484357D01*
X192278389Y-118539098D01*
X192383251Y-118612523D01*
X192388233Y-118614846D01*
X192388238Y-118614849D01*
X192585775Y-118706961D01*
X192590757Y-118709284D01*
X192596065Y-118710706D01*
X192596067Y-118710707D01*
X192806598Y-118767119D01*
X192806600Y-118767119D01*
X192811913Y-118768543D01*
X193040000Y-118788498D01*
X193268087Y-118768543D01*
X193273400Y-118767119D01*
X193273402Y-118767119D01*
X193483933Y-118710707D01*
X193483935Y-118710706D01*
X193489243Y-118709284D01*
X193494225Y-118706961D01*
X193691762Y-118614849D01*
X193691767Y-118614846D01*
X193696749Y-118612523D01*
X193801611Y-118539098D01*
X193879789Y-118484357D01*
X193879792Y-118484355D01*
X193884300Y-118481198D01*
X194046198Y-118319300D01*
X194155131Y-118163728D01*
X194210587Y-118119401D01*
X194258343Y-118110000D01*
X194361657Y-118110000D01*
X194429778Y-118130002D01*
X194464869Y-118163728D01*
X194573802Y-118319300D01*
X194735700Y-118481198D01*
X194740208Y-118484355D01*
X194740211Y-118484357D01*
X194818389Y-118539098D01*
X194923251Y-118612523D01*
X194928233Y-118614846D01*
X194928238Y-118614849D01*
X195125775Y-118706961D01*
X195130757Y-118709284D01*
X195136065Y-118710706D01*
X195136067Y-118710707D01*
X195346598Y-118767119D01*
X195346600Y-118767119D01*
X195351913Y-118768543D01*
X195580000Y-118788498D01*
X195808087Y-118768543D01*
X195813400Y-118767119D01*
X195813402Y-118767119D01*
X196023933Y-118710707D01*
X196023935Y-118710706D01*
X196029243Y-118709284D01*
X196034225Y-118706961D01*
X196231762Y-118614849D01*
X196231767Y-118614846D01*
X196236749Y-118612523D01*
X196341611Y-118539098D01*
X196419789Y-118484357D01*
X196419792Y-118484355D01*
X196424300Y-118481198D01*
X196586198Y-118319300D01*
X196717523Y-118131749D01*
X196719846Y-118126767D01*
X196719849Y-118126762D01*
X196735805Y-118092543D01*
X196782722Y-118039258D01*
X196850999Y-118019797D01*
X196918959Y-118040339D01*
X196964195Y-118092543D01*
X196980151Y-118126762D01*
X196980154Y-118126767D01*
X196982477Y-118131749D01*
X197113802Y-118319300D01*
X197275700Y-118481198D01*
X197280208Y-118484355D01*
X197280211Y-118484357D01*
X197358389Y-118539098D01*
X197463251Y-118612523D01*
X197468233Y-118614846D01*
X197468238Y-118614849D01*
X197665775Y-118706961D01*
X197670757Y-118709284D01*
X197676065Y-118710706D01*
X197676067Y-118710707D01*
X197886598Y-118767119D01*
X197886600Y-118767119D01*
X197891913Y-118768543D01*
X198120000Y-118788498D01*
X198348087Y-118768543D01*
X198353400Y-118767119D01*
X198353402Y-118767119D01*
X198563933Y-118710707D01*
X198563935Y-118710706D01*
X198569243Y-118709284D01*
X198574225Y-118706961D01*
X198771762Y-118614849D01*
X198771767Y-118614846D01*
X198776749Y-118612523D01*
X198881611Y-118539098D01*
X198959789Y-118484357D01*
X198959792Y-118484355D01*
X198964300Y-118481198D01*
X199126198Y-118319300D01*
X199257523Y-118131749D01*
X199259846Y-118126767D01*
X199259849Y-118126762D01*
X199351961Y-117929225D01*
X199351961Y-117929224D01*
X199354284Y-117924243D01*
X199360773Y-117900028D01*
X199412119Y-117708402D01*
X199412119Y-117708400D01*
X199413543Y-117703087D01*
X199433498Y-117475000D01*
X199413543Y-117246913D01*
X199354284Y-117025757D01*
X199298635Y-116906416D01*
X199259849Y-116823238D01*
X199259846Y-116823233D01*
X199257523Y-116818251D01*
X199126198Y-116630700D01*
X198964300Y-116468802D01*
X198932229Y-116446345D01*
X198887901Y-116390890D01*
X198878500Y-116343133D01*
X198878500Y-115978973D01*
X198898502Y-115910852D01*
X198952158Y-115864359D01*
X199022432Y-115854255D01*
X199041759Y-115858608D01*
X199118692Y-115882422D01*
X199132795Y-115882628D01*
X199136000Y-115875873D01*
X199136000Y-115571820D01*
X199142584Y-115535505D01*
X199142144Y-115535400D01*
X199143971Y-115527715D01*
X199146745Y-115520316D01*
X199153500Y-115458134D01*
X199153500Y-114936004D01*
X199626500Y-114936004D01*
X199641277Y-115086713D01*
X199641968Y-115089002D01*
X199644000Y-115109724D01*
X199644000Y-115868986D01*
X199647973Y-115882517D01*
X199655768Y-115883637D01*
X199772932Y-115849154D01*
X199784300Y-115844561D01*
X199952907Y-115756416D01*
X199955983Y-115754403D01*
X199957822Y-115753846D01*
X199958370Y-115753560D01*
X199958424Y-115753664D01*
X200023936Y-115733839D01*
X200084906Y-115748999D01*
X200257565Y-115842356D01*
X200354373Y-115872323D01*
X200445293Y-115900468D01*
X200445296Y-115900469D01*
X200451180Y-115902290D01*
X200457305Y-115902934D01*
X200457306Y-115902934D01*
X200646622Y-115922832D01*
X200646623Y-115922832D01*
X200652750Y-115923476D01*
X200736014Y-115915898D01*
X200848457Y-115905665D01*
X200848460Y-115905664D01*
X200854596Y-115905106D01*
X200860502Y-115903368D01*
X200860506Y-115903367D01*
X201043120Y-115849620D01*
X201043119Y-115849620D01*
X201049029Y-115847881D01*
X201054486Y-115845028D01*
X201054489Y-115845027D01*
X201191765Y-115773261D01*
X201228645Y-115753981D01*
X201386601Y-115626981D01*
X201516881Y-115471719D01*
X201519845Y-115466327D01*
X201519848Y-115466323D01*
X201611556Y-115299506D01*
X201614523Y-115294109D01*
X201675807Y-115100916D01*
X201677401Y-115086713D01*
X201686851Y-115002460D01*
X201693500Y-114943183D01*
X201693500Y-114383996D01*
X201678723Y-114233287D01*
X201620142Y-114039258D01*
X201524990Y-113860302D01*
X201396890Y-113703237D01*
X201358772Y-113671703D01*
X201245472Y-113577973D01*
X201245469Y-113577971D01*
X201240722Y-113574044D01*
X201062435Y-113477644D01*
X200929078Y-113436363D01*
X200874707Y-113419532D01*
X200874704Y-113419531D01*
X200868820Y-113417710D01*
X200862695Y-113417066D01*
X200862694Y-113417066D01*
X200673378Y-113397168D01*
X200673377Y-113397168D01*
X200667250Y-113396524D01*
X200583986Y-113404102D01*
X200471543Y-113414335D01*
X200471540Y-113414336D01*
X200465404Y-113414894D01*
X200459498Y-113416632D01*
X200459494Y-113416633D01*
X200366079Y-113444127D01*
X200270971Y-113472119D01*
X200265514Y-113474972D01*
X200265511Y-113474973D01*
X200096819Y-113563162D01*
X200096815Y-113563165D01*
X200091355Y-113566019D01*
X200091103Y-113566221D01*
X200025088Y-113586201D01*
X199964115Y-113571041D01*
X199797658Y-113481038D01*
X199786353Y-113476286D01*
X199661308Y-113437578D01*
X199647205Y-113437372D01*
X199644000Y-113444127D01*
X199644000Y-114213758D01*
X199643215Y-114227803D01*
X199626500Y-114376817D01*
X199626500Y-114936004D01*
X199153500Y-114936004D01*
X199153500Y-113861866D01*
X199146745Y-113799684D01*
X199143971Y-113792284D01*
X199142144Y-113784600D01*
X199142584Y-113784495D01*
X199136000Y-113748180D01*
X199136000Y-113451014D01*
X199132027Y-113437483D01*
X199124232Y-113436363D01*
X199007067Y-113470846D01*
X199006560Y-113471051D01*
X199006276Y-113471079D01*
X199001159Y-113472585D01*
X199000873Y-113471612D01*
X198935906Y-113478025D01*
X198898869Y-113464754D01*
X198891705Y-113459385D01*
X198755316Y-113408255D01*
X198693134Y-113401500D01*
X197546866Y-113401500D01*
X197484684Y-113408255D01*
X197348295Y-113459385D01*
X197231739Y-113546739D01*
X197144385Y-113663295D01*
X197093255Y-113799684D01*
X197086500Y-113861866D01*
X197086500Y-115458134D01*
X197093255Y-115520316D01*
X197144385Y-115656705D01*
X197231739Y-115773261D01*
X197238919Y-115778642D01*
X197238920Y-115778643D01*
X197311065Y-115832713D01*
X197353580Y-115889573D01*
X197361500Y-115933539D01*
X197361500Y-116343133D01*
X197341498Y-116411254D01*
X197307772Y-116446345D01*
X197275700Y-116468802D01*
X197113802Y-116630700D01*
X196982477Y-116818251D01*
X196980154Y-116823233D01*
X196980151Y-116823238D01*
X196964195Y-116857457D01*
X196917278Y-116910742D01*
X196849001Y-116930203D01*
X196781041Y-116909661D01*
X196735805Y-116857457D01*
X196719849Y-116823238D01*
X196719846Y-116823233D01*
X196717523Y-116818251D01*
X196586198Y-116630700D01*
X196424300Y-116468802D01*
X196392229Y-116446345D01*
X196347901Y-116390890D01*
X196338500Y-116343133D01*
X196338500Y-112243366D01*
X196358502Y-112175245D01*
X196392228Y-112140154D01*
X196419300Y-112121198D01*
X196581198Y-111959300D01*
X196607327Y-111921985D01*
X196683128Y-111813729D01*
X196712523Y-111771749D01*
X196714846Y-111766767D01*
X196714849Y-111766762D01*
X196730805Y-111732543D01*
X196777722Y-111679258D01*
X196845999Y-111659797D01*
X196913959Y-111680339D01*
G37*
%TD.AperFunction*%
%TA.AperFunction,Conductor*%
G36*
X181542703Y-111958295D02*
G01*
X181571379Y-112013159D01*
X181572402Y-112017460D01*
X181573255Y-112025316D01*
X181576027Y-112032711D01*
X181576028Y-112032714D01*
X181612948Y-112131198D01*
X181624385Y-112161705D01*
X181711739Y-112278261D01*
X181828295Y-112365615D01*
X181964684Y-112416745D01*
X181991914Y-112419703D01*
X182004108Y-112421028D01*
X182069670Y-112448270D01*
X182110096Y-112506634D01*
X182116500Y-112546291D01*
X182116500Y-113130865D01*
X182096498Y-113198986D01*
X182048728Y-113240378D01*
X182049574Y-113241923D01*
X182041698Y-113246235D01*
X182033295Y-113249385D01*
X182026116Y-113254765D01*
X182026113Y-113254767D01*
X182026112Y-113254768D01*
X181916739Y-113336739D01*
X181829385Y-113453295D01*
X181778255Y-113589684D01*
X181771500Y-113651866D01*
X181771500Y-114948134D01*
X181778255Y-115010316D01*
X181829385Y-115146705D01*
X181916739Y-115263261D01*
X182033295Y-115350615D01*
X182041704Y-115353767D01*
X182049575Y-115358077D01*
X182048664Y-115359741D01*
X182096490Y-115395663D01*
X182121193Y-115462224D01*
X182121500Y-115471009D01*
X182121500Y-116343133D01*
X182101498Y-116411254D01*
X182067772Y-116446345D01*
X182035700Y-116468802D01*
X181873802Y-116630700D01*
X181742477Y-116818251D01*
X181740154Y-116823233D01*
X181740151Y-116823238D01*
X181701365Y-116906416D01*
X181645716Y-117025757D01*
X181586457Y-117246913D01*
X181566502Y-117475000D01*
X181586457Y-117703087D01*
X181587881Y-117708400D01*
X181587881Y-117708402D01*
X181639228Y-117900028D01*
X181645716Y-117924243D01*
X181648039Y-117929224D01*
X181648039Y-117929225D01*
X181740151Y-118126762D01*
X181740154Y-118126767D01*
X181742477Y-118131749D01*
X181873802Y-118319300D01*
X182035700Y-118481198D01*
X182040208Y-118484355D01*
X182040211Y-118484357D01*
X182118389Y-118539098D01*
X182223251Y-118612523D01*
X182228233Y-118614846D01*
X182228238Y-118614849D01*
X182425775Y-118706961D01*
X182430757Y-118709284D01*
X182436065Y-118710706D01*
X182436067Y-118710707D01*
X182646598Y-118767119D01*
X182646600Y-118767119D01*
X182651913Y-118768543D01*
X182725209Y-118774956D01*
X182752267Y-118777323D01*
X182818385Y-118803187D01*
X182860024Y-118860690D01*
X182863965Y-118931577D01*
X182830380Y-118991939D01*
X182391089Y-119431230D01*
X182376677Y-119443616D01*
X182365082Y-119452149D01*
X182365077Y-119452154D01*
X182359182Y-119456492D01*
X182354443Y-119462070D01*
X182354440Y-119462073D01*
X182324965Y-119496768D01*
X182318035Y-119504284D01*
X182312340Y-119509979D01*
X182310060Y-119512861D01*
X182294719Y-119532251D01*
X182291928Y-119535655D01*
X182249409Y-119585703D01*
X182244667Y-119591285D01*
X182241339Y-119597801D01*
X182237972Y-119602850D01*
X182234805Y-119607979D01*
X182230266Y-119613716D01*
X182199345Y-119679875D01*
X182197442Y-119683769D01*
X182164231Y-119748808D01*
X182162492Y-119755916D01*
X182160393Y-119761559D01*
X182158476Y-119767322D01*
X182155378Y-119773950D01*
X182153888Y-119781112D01*
X182153888Y-119781113D01*
X182140514Y-119845412D01*
X182139544Y-119849696D01*
X182122192Y-119920610D01*
X182121500Y-119931764D01*
X182121464Y-119931762D01*
X182121225Y-119935755D01*
X182120851Y-119939947D01*
X182119360Y-119947115D01*
X182119558Y-119954432D01*
X182121454Y-120024521D01*
X182121500Y-120027928D01*
X182121500Y-126503133D01*
X182101498Y-126571254D01*
X182067772Y-126606345D01*
X182035700Y-126628802D01*
X181873802Y-126790700D01*
X181742477Y-126978251D01*
X181740154Y-126983233D01*
X181740151Y-126983238D01*
X181699576Y-127070253D01*
X181645716Y-127185757D01*
X181644294Y-127191065D01*
X181644293Y-127191067D01*
X181596756Y-127368478D01*
X181586457Y-127406913D01*
X181566502Y-127635000D01*
X181586457Y-127863087D01*
X181587881Y-127868400D01*
X181587881Y-127868402D01*
X181625025Y-128007022D01*
X181645716Y-128084243D01*
X181648039Y-128089224D01*
X181648039Y-128089225D01*
X181740151Y-128286762D01*
X181740154Y-128286767D01*
X181742477Y-128291749D01*
X181873802Y-128479300D01*
X182035700Y-128641198D01*
X182040208Y-128644355D01*
X182040211Y-128644357D01*
X182118389Y-128699098D01*
X182223251Y-128772523D01*
X182228233Y-128774846D01*
X182228238Y-128774849D01*
X182424765Y-128866490D01*
X182430757Y-128869284D01*
X182436065Y-128870706D01*
X182436067Y-128870707D01*
X182646598Y-128927119D01*
X182646600Y-128927119D01*
X182651913Y-128928543D01*
X182880000Y-128948498D01*
X183108087Y-128928543D01*
X183113400Y-128927119D01*
X183113402Y-128927119D01*
X183323933Y-128870707D01*
X183323935Y-128870706D01*
X183329243Y-128869284D01*
X183335235Y-128866490D01*
X183531762Y-128774849D01*
X183531767Y-128774846D01*
X183536749Y-128772523D01*
X183610243Y-128721062D01*
X184698493Y-128721062D01*
X184707789Y-128733077D01*
X184758994Y-128768931D01*
X184768489Y-128774414D01*
X184965947Y-128866490D01*
X184976239Y-128870236D01*
X185186688Y-128926625D01*
X185197481Y-128928528D01*
X185414525Y-128947517D01*
X185425475Y-128947517D01*
X185642519Y-128928528D01*
X185653312Y-128926625D01*
X185863761Y-128870236D01*
X185874053Y-128866490D01*
X186071511Y-128774414D01*
X186081006Y-128768931D01*
X186133048Y-128732491D01*
X186141424Y-128722012D01*
X186134356Y-128708566D01*
X185432812Y-128007022D01*
X185418868Y-127999408D01*
X185417035Y-127999539D01*
X185410420Y-128003790D01*
X184704923Y-128709287D01*
X184698493Y-128721062D01*
X183610243Y-128721062D01*
X183641611Y-128699098D01*
X183719789Y-128644357D01*
X183719792Y-128644355D01*
X183724300Y-128641198D01*
X183886198Y-128479300D01*
X184017523Y-128291749D01*
X184019846Y-128286767D01*
X184019849Y-128286762D01*
X184036081Y-128251951D01*
X184082998Y-128198666D01*
X184151275Y-128179205D01*
X184219235Y-128199747D01*
X184264471Y-128251951D01*
X184280586Y-128286511D01*
X184286069Y-128296006D01*
X184322509Y-128348048D01*
X184332988Y-128356424D01*
X184346434Y-128349356D01*
X185047978Y-127647812D01*
X185054356Y-127636132D01*
X185784408Y-127636132D01*
X185784539Y-127637965D01*
X185788790Y-127644580D01*
X186494287Y-128350077D01*
X186506062Y-128356507D01*
X186518077Y-128347211D01*
X186553931Y-128296006D01*
X186559414Y-128286511D01*
X186575805Y-128251359D01*
X186622722Y-128198074D01*
X186690999Y-128178613D01*
X186758959Y-128199155D01*
X186804195Y-128251359D01*
X186820586Y-128286511D01*
X186826069Y-128296007D01*
X186951028Y-128474467D01*
X186958084Y-128482875D01*
X187112125Y-128636916D01*
X187120533Y-128643972D01*
X187298993Y-128768931D01*
X187308489Y-128774414D01*
X187505947Y-128866490D01*
X187516239Y-128870236D01*
X187688503Y-128916394D01*
X187702599Y-128916058D01*
X187706000Y-128908116D01*
X187706000Y-128902967D01*
X188214000Y-128902967D01*
X188217973Y-128916498D01*
X188226522Y-128917727D01*
X188403761Y-128870236D01*
X188414053Y-128866490D01*
X188611511Y-128774414D01*
X188621007Y-128768931D01*
X188799467Y-128643972D01*
X188807875Y-128636916D01*
X188961916Y-128482875D01*
X188968972Y-128474467D01*
X189093931Y-128296007D01*
X189099414Y-128286511D01*
X189191490Y-128089053D01*
X189195236Y-128078761D01*
X189241394Y-127906497D01*
X189241275Y-127901522D01*
X191757273Y-127901522D01*
X191804764Y-128078761D01*
X191808510Y-128089053D01*
X191900586Y-128286511D01*
X191906069Y-128296007D01*
X192031028Y-128474467D01*
X192038084Y-128482875D01*
X192192125Y-128636916D01*
X192200533Y-128643972D01*
X192378993Y-128768931D01*
X192388489Y-128774414D01*
X192585947Y-128866490D01*
X192596239Y-128870236D01*
X192768503Y-128916394D01*
X192782599Y-128916058D01*
X192786000Y-128908116D01*
X192786000Y-128902967D01*
X193294000Y-128902967D01*
X193297973Y-128916498D01*
X193306522Y-128917727D01*
X193483761Y-128870236D01*
X193494053Y-128866490D01*
X193691511Y-128774414D01*
X193701007Y-128768931D01*
X193879467Y-128643972D01*
X193887875Y-128636916D01*
X194041916Y-128482875D01*
X194048972Y-128474467D01*
X194173931Y-128296007D01*
X194179414Y-128286511D01*
X194195805Y-128251359D01*
X194242722Y-128198074D01*
X194310999Y-128178613D01*
X194378959Y-128199155D01*
X194424195Y-128251359D01*
X194440586Y-128286511D01*
X194446069Y-128296007D01*
X194571028Y-128474467D01*
X194578084Y-128482875D01*
X194732125Y-128636916D01*
X194740533Y-128643972D01*
X194918993Y-128768931D01*
X194928489Y-128774414D01*
X195125947Y-128866490D01*
X195136239Y-128870236D01*
X195308503Y-128916394D01*
X195322599Y-128916058D01*
X195326000Y-128908116D01*
X195326000Y-127907115D01*
X195321525Y-127891876D01*
X195320135Y-127890671D01*
X195312452Y-127889000D01*
X193312115Y-127889000D01*
X193296876Y-127893475D01*
X193295671Y-127894865D01*
X193294000Y-127902548D01*
X193294000Y-128902967D01*
X192786000Y-128902967D01*
X192786000Y-127907115D01*
X192781525Y-127891876D01*
X192780135Y-127890671D01*
X192772452Y-127889000D01*
X191772033Y-127889000D01*
X191758502Y-127892973D01*
X191757273Y-127901522D01*
X189241275Y-127901522D01*
X189241058Y-127892401D01*
X189233116Y-127889000D01*
X188232115Y-127889000D01*
X188216876Y-127893475D01*
X188215671Y-127894865D01*
X188214000Y-127902548D01*
X188214000Y-128902967D01*
X187706000Y-128902967D01*
X187706000Y-127362885D01*
X188214000Y-127362885D01*
X188218475Y-127378124D01*
X188219865Y-127379329D01*
X188227548Y-127381000D01*
X189227967Y-127381000D01*
X189241498Y-127377027D01*
X189242727Y-127368478D01*
X189241394Y-127363503D01*
X191758606Y-127363503D01*
X191758942Y-127377599D01*
X191766884Y-127381000D01*
X192767885Y-127381000D01*
X192783124Y-127376525D01*
X192784329Y-127375135D01*
X192786000Y-127367452D01*
X192786000Y-126367033D01*
X192782027Y-126353502D01*
X192773478Y-126352273D01*
X192596239Y-126399764D01*
X192585947Y-126403510D01*
X192388489Y-126495586D01*
X192378993Y-126501069D01*
X192200533Y-126626028D01*
X192192125Y-126633084D01*
X192038084Y-126787125D01*
X192031028Y-126795533D01*
X191906069Y-126973993D01*
X191900586Y-126983489D01*
X191808510Y-127180947D01*
X191804764Y-127191239D01*
X191758606Y-127363503D01*
X189241394Y-127363503D01*
X189195236Y-127191239D01*
X189191490Y-127180947D01*
X189099414Y-126983489D01*
X189093931Y-126973993D01*
X188968972Y-126795533D01*
X188961916Y-126787125D01*
X188807875Y-126633084D01*
X188799467Y-126626028D01*
X188621007Y-126501069D01*
X188611511Y-126495586D01*
X188414053Y-126403510D01*
X188403761Y-126399764D01*
X188231497Y-126353606D01*
X188217401Y-126353942D01*
X188214000Y-126361884D01*
X188214000Y-127362885D01*
X187706000Y-127362885D01*
X187706000Y-126367033D01*
X187702027Y-126353502D01*
X187693478Y-126352273D01*
X187516239Y-126399764D01*
X187505947Y-126403510D01*
X187308489Y-126495586D01*
X187298993Y-126501069D01*
X187120533Y-126626028D01*
X187112125Y-126633084D01*
X186958084Y-126787125D01*
X186951028Y-126795533D01*
X186826069Y-126973993D01*
X186820586Y-126983489D01*
X186804195Y-127018641D01*
X186757278Y-127071926D01*
X186689001Y-127091387D01*
X186621041Y-127070845D01*
X186575805Y-127018641D01*
X186559414Y-126983489D01*
X186553931Y-126973994D01*
X186517491Y-126921952D01*
X186507012Y-126913576D01*
X186493566Y-126920644D01*
X185792022Y-127622188D01*
X185784408Y-127636132D01*
X185054356Y-127636132D01*
X185055592Y-127633868D01*
X185055461Y-127632035D01*
X185051210Y-127625420D01*
X184345713Y-126919923D01*
X184333938Y-126913493D01*
X184321923Y-126922789D01*
X184286069Y-126973994D01*
X184280586Y-126983489D01*
X184264471Y-127018049D01*
X184217554Y-127071334D01*
X184149277Y-127090795D01*
X184081317Y-127070253D01*
X184036081Y-127018049D01*
X184019849Y-126983238D01*
X184019846Y-126983233D01*
X184017523Y-126978251D01*
X183886198Y-126790700D01*
X183724300Y-126628802D01*
X183692229Y-126606345D01*
X183647901Y-126550890D01*
X183647330Y-126547988D01*
X184698576Y-126547988D01*
X184705644Y-126561434D01*
X185407188Y-127262978D01*
X185421132Y-127270592D01*
X185422965Y-127270461D01*
X185429580Y-127266210D01*
X186135077Y-126560713D01*
X186141507Y-126548938D01*
X186132211Y-126536923D01*
X186081006Y-126501069D01*
X186071511Y-126495586D01*
X185874053Y-126403510D01*
X185863761Y-126399764D01*
X185653312Y-126343375D01*
X185642519Y-126341472D01*
X185425475Y-126322483D01*
X185414525Y-126322483D01*
X185197481Y-126341472D01*
X185186688Y-126343375D01*
X184976239Y-126399764D01*
X184965947Y-126403510D01*
X184768489Y-126495586D01*
X184758994Y-126501069D01*
X184706952Y-126537509D01*
X184698576Y-126547988D01*
X183647330Y-126547988D01*
X183638500Y-126503133D01*
X183638500Y-120381371D01*
X183658502Y-120313250D01*
X183675405Y-120292276D01*
X185157010Y-118810671D01*
X185219322Y-118776645D01*
X185257087Y-118774245D01*
X185414525Y-118788019D01*
X185420000Y-118788498D01*
X185648087Y-118768543D01*
X185653400Y-118767119D01*
X185653402Y-118767119D01*
X185863933Y-118710707D01*
X185863935Y-118710706D01*
X185869243Y-118709284D01*
X185874225Y-118706961D01*
X186071762Y-118614849D01*
X186071767Y-118614846D01*
X186076749Y-118612523D01*
X186181611Y-118539098D01*
X186259789Y-118484357D01*
X186259792Y-118484355D01*
X186264300Y-118481198D01*
X186426198Y-118319300D01*
X186557523Y-118131749D01*
X186559846Y-118126767D01*
X186559849Y-118126762D01*
X186575805Y-118092543D01*
X186622722Y-118039258D01*
X186690999Y-118019797D01*
X186758959Y-118040339D01*
X186804195Y-118092543D01*
X186820151Y-118126762D01*
X186820154Y-118126767D01*
X186822477Y-118131749D01*
X186953802Y-118319300D01*
X187115700Y-118481198D01*
X187120208Y-118484355D01*
X187120211Y-118484357D01*
X187198389Y-118539098D01*
X187303251Y-118612523D01*
X187308233Y-118614846D01*
X187308238Y-118614849D01*
X187505775Y-118706961D01*
X187510757Y-118709284D01*
X187516065Y-118710706D01*
X187516067Y-118710707D01*
X187726598Y-118767119D01*
X187726600Y-118767119D01*
X187731913Y-118768543D01*
X187960000Y-118788498D01*
X188188087Y-118768543D01*
X188193400Y-118767119D01*
X188193402Y-118767119D01*
X188403933Y-118710707D01*
X188403935Y-118710706D01*
X188409243Y-118709284D01*
X188414225Y-118706961D01*
X188611762Y-118614849D01*
X188611767Y-118614846D01*
X188616749Y-118612523D01*
X188721611Y-118539098D01*
X188799789Y-118484357D01*
X188799792Y-118484355D01*
X188804300Y-118481198D01*
X188966198Y-118319300D01*
X189097523Y-118131749D01*
X189099847Y-118126764D01*
X189099851Y-118126758D01*
X189180728Y-117953314D01*
X189227645Y-117900028D01*
X189295922Y-117880567D01*
X189318714Y-117882830D01*
X189489296Y-117915634D01*
X189552412Y-117948140D01*
X189587936Y-118009610D01*
X189591500Y-118039366D01*
X189591500Y-119933583D01*
X189589949Y-119953292D01*
X189587748Y-119967190D01*
X189588093Y-119973777D01*
X189588093Y-119973782D01*
X189591327Y-120035480D01*
X189591500Y-120042074D01*
X189591500Y-120062610D01*
X189591844Y-120065882D01*
X189591844Y-120065884D01*
X189593647Y-120083042D01*
X189594164Y-120089616D01*
X189597743Y-120157903D01*
X189599453Y-120164284D01*
X189599453Y-120164286D01*
X189601383Y-120171491D01*
X189604985Y-120190925D01*
X189605766Y-120198354D01*
X189605768Y-120198363D01*
X189606458Y-120204928D01*
X189627600Y-120269997D01*
X189629467Y-120276299D01*
X189647171Y-120342370D01*
X189653559Y-120354907D01*
X189661125Y-120373173D01*
X189665473Y-120386556D01*
X189668776Y-120392278D01*
X189668777Y-120392279D01*
X189699667Y-120445782D01*
X189702814Y-120451577D01*
X189733871Y-120512530D01*
X189738024Y-120517658D01*
X189738025Y-120517660D01*
X189742727Y-120523466D01*
X189753927Y-120539763D01*
X189757657Y-120546224D01*
X189757660Y-120546228D01*
X189760960Y-120551944D01*
X189765377Y-120556850D01*
X189765381Y-120556855D01*
X189806722Y-120602769D01*
X189811006Y-120607784D01*
X189823928Y-120623741D01*
X189838443Y-120638256D01*
X189842984Y-120643041D01*
X189888747Y-120693866D01*
X189894086Y-120697745D01*
X189894087Y-120697746D01*
X189900135Y-120702140D01*
X189915168Y-120714981D01*
X195347639Y-126147452D01*
X195381665Y-126209764D01*
X195376600Y-126280579D01*
X195334053Y-126337415D01*
X195291156Y-126358254D01*
X195136236Y-126399765D01*
X195125947Y-126403510D01*
X194928489Y-126495586D01*
X194918993Y-126501069D01*
X194740533Y-126626028D01*
X194732125Y-126633084D01*
X194578084Y-126787125D01*
X194571028Y-126795533D01*
X194446069Y-126973993D01*
X194440586Y-126983489D01*
X194424195Y-127018641D01*
X194377278Y-127071926D01*
X194309001Y-127091387D01*
X194241041Y-127070845D01*
X194195805Y-127018641D01*
X194179414Y-126983489D01*
X194173931Y-126973993D01*
X194048972Y-126795533D01*
X194041916Y-126787125D01*
X193887875Y-126633084D01*
X193879467Y-126626028D01*
X193701007Y-126501069D01*
X193691511Y-126495586D01*
X193494053Y-126403510D01*
X193483761Y-126399764D01*
X193311497Y-126353606D01*
X193297401Y-126353942D01*
X193294000Y-126361884D01*
X193294000Y-127362885D01*
X193298475Y-127378124D01*
X193299865Y-127379329D01*
X193307548Y-127381000D01*
X195708000Y-127381000D01*
X195776121Y-127401002D01*
X195822614Y-127454658D01*
X195834000Y-127507000D01*
X195834000Y-128902967D01*
X195837973Y-128916498D01*
X195846522Y-128917727D01*
X196023761Y-128870236D01*
X196034053Y-128866490D01*
X196231511Y-128774414D01*
X196241007Y-128768931D01*
X196419467Y-128643972D01*
X196427875Y-128636916D01*
X196581916Y-128482875D01*
X196588972Y-128474467D01*
X196713931Y-128296007D01*
X196719414Y-128286511D01*
X196735529Y-128251951D01*
X196782446Y-128198666D01*
X196850723Y-128179205D01*
X196918683Y-128199747D01*
X196963919Y-128251951D01*
X196980151Y-128286762D01*
X196980154Y-128286767D01*
X196982477Y-128291749D01*
X197113802Y-128479300D01*
X197174595Y-128540093D01*
X197208621Y-128602405D01*
X197211500Y-128629188D01*
X197211500Y-135764000D01*
X197191498Y-135832121D01*
X197137842Y-135878614D01*
X197085500Y-135890000D01*
X196085217Y-135890000D01*
X196043157Y-135882773D01*
X195933087Y-135843795D01*
X195933083Y-135843794D01*
X195928212Y-135842069D01*
X195923119Y-135841162D01*
X195923116Y-135841161D01*
X195713373Y-135803800D01*
X195713367Y-135803799D01*
X195708284Y-135802894D01*
X195556512Y-135801040D01*
X195488642Y-135780207D01*
X195468957Y-135764144D01*
X191834981Y-132130168D01*
X191822140Y-132115135D01*
X191817746Y-132109087D01*
X191817745Y-132109086D01*
X191813866Y-132103747D01*
X191763041Y-132057984D01*
X191758256Y-132053443D01*
X191743741Y-132038928D01*
X191736282Y-132032888D01*
X191727784Y-132026006D01*
X191722769Y-132021722D01*
X191676855Y-131980381D01*
X191676850Y-131980377D01*
X191671944Y-131975960D01*
X191666228Y-131972660D01*
X191666224Y-131972657D01*
X191659763Y-131968927D01*
X191643466Y-131957727D01*
X191637660Y-131953025D01*
X191637658Y-131953024D01*
X191632530Y-131948871D01*
X191571577Y-131917814D01*
X191565782Y-131914667D01*
X191512279Y-131883777D01*
X191512278Y-131883776D01*
X191506556Y-131880473D01*
X191500274Y-131878432D01*
X191500272Y-131878431D01*
X191493174Y-131876125D01*
X191474907Y-131868559D01*
X191462370Y-131862171D01*
X191396299Y-131844467D01*
X191389997Y-131842600D01*
X191324928Y-131821458D01*
X191318363Y-131820768D01*
X191318354Y-131820766D01*
X191310925Y-131819985D01*
X191291491Y-131816383D01*
X191284286Y-131814453D01*
X191284284Y-131814453D01*
X191277903Y-131812743D01*
X191271312Y-131812398D01*
X191271308Y-131812397D01*
X191209616Y-131809164D01*
X191203042Y-131808647D01*
X191185884Y-131806844D01*
X191185882Y-131806844D01*
X191182610Y-131806500D01*
X191162074Y-131806500D01*
X191155480Y-131806327D01*
X191093782Y-131803093D01*
X191093777Y-131803093D01*
X191087190Y-131802748D01*
X191073292Y-131804949D01*
X191053583Y-131806500D01*
X183943504Y-131806500D01*
X183875383Y-131786498D01*
X183854409Y-131769595D01*
X179885894Y-127801081D01*
X179851868Y-127738769D01*
X179848989Y-127711986D01*
X179848989Y-112512299D01*
X179868991Y-112444178D01*
X179922647Y-112397685D01*
X179992921Y-112387581D01*
X180007593Y-112390590D01*
X180111913Y-112418543D01*
X180340000Y-112438498D01*
X180568087Y-112418543D01*
X180573400Y-112417119D01*
X180573402Y-112417119D01*
X180783933Y-112360707D01*
X180783935Y-112360706D01*
X180789243Y-112359284D01*
X180807637Y-112350707D01*
X180991762Y-112264849D01*
X180991767Y-112264846D01*
X180996749Y-112262523D01*
X181140732Y-112161705D01*
X181179789Y-112134357D01*
X181179792Y-112134355D01*
X181184300Y-112131198D01*
X181346198Y-111969300D01*
X181349356Y-111964789D01*
X181352277Y-111961309D01*
X181411389Y-111921985D01*
X181482376Y-111920861D01*
X181542703Y-111958295D01*
G37*
%TD.AperFunction*%
%TA.AperFunction,Conductor*%
G36*
X181811254Y-104273502D02*
G01*
X181846345Y-104307228D01*
X181868802Y-104339300D01*
X182030700Y-104501198D01*
X182035208Y-104504355D01*
X182035211Y-104504357D01*
X182113389Y-104559098D01*
X182218251Y-104632523D01*
X182223233Y-104634846D01*
X182223238Y-104634849D01*
X182420775Y-104726961D01*
X182425757Y-104729284D01*
X182431065Y-104730706D01*
X182431067Y-104730707D01*
X182641598Y-104787119D01*
X182641600Y-104787119D01*
X182646913Y-104788543D01*
X182875000Y-104808498D01*
X183103087Y-104788543D01*
X183108400Y-104787119D01*
X183108402Y-104787119D01*
X183252247Y-104748576D01*
X183323224Y-104750266D01*
X183382019Y-104790060D01*
X183410013Y-104855719D01*
X183410281Y-104858022D01*
X183410711Y-104862371D01*
X183411777Y-104875469D01*
X183416629Y-104935126D01*
X183418885Y-104942090D01*
X183420076Y-104948049D01*
X183421460Y-104953904D01*
X183422307Y-104961170D01*
X183447224Y-105029816D01*
X183448641Y-105033944D01*
X183471138Y-105103388D01*
X183474934Y-105109643D01*
X183477440Y-105115117D01*
X183480159Y-105120547D01*
X183482656Y-105127426D01*
X183486669Y-105133546D01*
X183486669Y-105133547D01*
X183522675Y-105188465D01*
X183525012Y-105192169D01*
X183562894Y-105254596D01*
X183566610Y-105258804D01*
X183566611Y-105258805D01*
X183570292Y-105262973D01*
X183570265Y-105262997D01*
X183572918Y-105265989D01*
X183575621Y-105269222D01*
X183579633Y-105275341D01*
X183584945Y-105280373D01*
X183635872Y-105328617D01*
X183638314Y-105330995D01*
X187905380Y-109598061D01*
X187939406Y-109660373D01*
X187934341Y-109731188D01*
X187891794Y-109788024D01*
X187827267Y-109812677D01*
X187800209Y-109815044D01*
X187726913Y-109821457D01*
X187721600Y-109822881D01*
X187721598Y-109822881D01*
X187511067Y-109879293D01*
X187511065Y-109879294D01*
X187505757Y-109880716D01*
X187500776Y-109883039D01*
X187500775Y-109883039D01*
X187303238Y-109975151D01*
X187303233Y-109975154D01*
X187298251Y-109977477D01*
X187193389Y-110050902D01*
X187115211Y-110105643D01*
X187115208Y-110105645D01*
X187110700Y-110108802D01*
X186948802Y-110270700D01*
X186945645Y-110275208D01*
X186945643Y-110275211D01*
X186911104Y-110324538D01*
X186817477Y-110458251D01*
X186815154Y-110463233D01*
X186815151Y-110463238D01*
X186799195Y-110497457D01*
X186752278Y-110550742D01*
X186684001Y-110570203D01*
X186616041Y-110549661D01*
X186570805Y-110497457D01*
X186554849Y-110463238D01*
X186554846Y-110463233D01*
X186552523Y-110458251D01*
X186458896Y-110324538D01*
X186424357Y-110275211D01*
X186424355Y-110275208D01*
X186421198Y-110270700D01*
X186259300Y-110108802D01*
X186254792Y-110105645D01*
X186254789Y-110105643D01*
X186176611Y-110050902D01*
X186071749Y-109977477D01*
X186066767Y-109975154D01*
X186066762Y-109975151D01*
X185869225Y-109883039D01*
X185869224Y-109883039D01*
X185864243Y-109880716D01*
X185858935Y-109879294D01*
X185858933Y-109879293D01*
X185648402Y-109822881D01*
X185648400Y-109822881D01*
X185643087Y-109821457D01*
X185415000Y-109801502D01*
X185409525Y-109801981D01*
X185252087Y-109815755D01*
X185182482Y-109801766D01*
X185152010Y-109779329D01*
X183508770Y-108136089D01*
X183496384Y-108121677D01*
X183487851Y-108110082D01*
X183487846Y-108110077D01*
X183483508Y-108104182D01*
X183477930Y-108099443D01*
X183477927Y-108099440D01*
X183443232Y-108069965D01*
X183435716Y-108063035D01*
X183430021Y-108057340D01*
X183423880Y-108052482D01*
X183407749Y-108039719D01*
X183404345Y-108036928D01*
X183354297Y-107994409D01*
X183354295Y-107994408D01*
X183348715Y-107989667D01*
X183342199Y-107986339D01*
X183337150Y-107982972D01*
X183332021Y-107979805D01*
X183326284Y-107975266D01*
X183260125Y-107944345D01*
X183256225Y-107942439D01*
X183191192Y-107909231D01*
X183184084Y-107907492D01*
X183178441Y-107905393D01*
X183172678Y-107903476D01*
X183166050Y-107900378D01*
X183094583Y-107885513D01*
X183090299Y-107884543D01*
X183019390Y-107867192D01*
X183013788Y-107866844D01*
X183013785Y-107866844D01*
X183008236Y-107866500D01*
X183008238Y-107866464D01*
X183004245Y-107866225D01*
X183000053Y-107865851D01*
X182992885Y-107864360D01*
X182926675Y-107866151D01*
X182915479Y-107866454D01*
X182912072Y-107866500D01*
X181471867Y-107866500D01*
X181403746Y-107846498D01*
X181368655Y-107812772D01*
X181346198Y-107780700D01*
X181184300Y-107618802D01*
X181179792Y-107615645D01*
X181179789Y-107615643D01*
X181046694Y-107522449D01*
X180996749Y-107487477D01*
X180991767Y-107485154D01*
X180991762Y-107485151D01*
X180794225Y-107393039D01*
X180794224Y-107393039D01*
X180789243Y-107390716D01*
X180783935Y-107389294D01*
X180783933Y-107389293D01*
X180573402Y-107332881D01*
X180573400Y-107332881D01*
X180568087Y-107331457D01*
X180340000Y-107311502D01*
X180111913Y-107331457D01*
X180007599Y-107359408D01*
X179936624Y-107357718D01*
X179877828Y-107317924D01*
X179849880Y-107252660D01*
X179848989Y-107237701D01*
X179848989Y-104889500D01*
X179868991Y-104821379D01*
X179922647Y-104774886D01*
X179974989Y-104763500D01*
X181138134Y-104763500D01*
X181200316Y-104756745D01*
X181336705Y-104705615D01*
X181453261Y-104618261D01*
X181540615Y-104501705D01*
X181591745Y-104365316D01*
X181592598Y-104357459D01*
X181594288Y-104350354D01*
X181629506Y-104288707D01*
X181692461Y-104255887D01*
X181716871Y-104253500D01*
X181743133Y-104253500D01*
X181811254Y-104273502D01*
G37*
%TD.AperFunction*%
%TA.AperFunction,Conductor*%
G36*
X196913959Y-104060339D02*
G01*
X196959195Y-104112543D01*
X196975151Y-104146762D01*
X196975154Y-104146767D01*
X196977477Y-104151749D01*
X197108802Y-104339300D01*
X197270700Y-104501198D01*
X197275208Y-104504355D01*
X197275211Y-104504357D01*
X197353389Y-104559098D01*
X197458251Y-104632523D01*
X197463233Y-104634846D01*
X197463238Y-104634849D01*
X197660775Y-104726961D01*
X197665757Y-104729284D01*
X197671065Y-104730706D01*
X197671067Y-104730707D01*
X197881598Y-104787119D01*
X197881600Y-104787119D01*
X197886913Y-104788543D01*
X198115000Y-104808498D01*
X198343087Y-104788543D01*
X198348396Y-104787121D01*
X198348410Y-104787118D01*
X198472888Y-104753763D01*
X198543865Y-104755452D01*
X198602661Y-104795246D01*
X198630609Y-104860510D01*
X198631500Y-104875469D01*
X198631500Y-109734531D01*
X198611498Y-109802652D01*
X198557842Y-109849145D01*
X198487568Y-109859249D01*
X198472888Y-109856237D01*
X198348410Y-109822882D01*
X198348396Y-109822879D01*
X198343087Y-109821457D01*
X198115000Y-109801502D01*
X197886913Y-109821457D01*
X197881600Y-109822881D01*
X197881598Y-109822881D01*
X197671067Y-109879293D01*
X197671065Y-109879294D01*
X197665757Y-109880716D01*
X197660776Y-109883039D01*
X197660775Y-109883039D01*
X197463238Y-109975151D01*
X197463233Y-109975154D01*
X197458251Y-109977477D01*
X197353389Y-110050902D01*
X197275211Y-110105643D01*
X197275208Y-110105645D01*
X197270700Y-110108802D01*
X197108802Y-110270700D01*
X197105645Y-110275208D01*
X197105643Y-110275211D01*
X197071104Y-110324538D01*
X196977477Y-110458251D01*
X196975154Y-110463233D01*
X196975151Y-110463238D01*
X196959195Y-110497457D01*
X196912278Y-110550742D01*
X196844001Y-110570203D01*
X196776041Y-110549661D01*
X196730805Y-110497457D01*
X196714849Y-110463238D01*
X196714846Y-110463233D01*
X196712523Y-110458251D01*
X196618896Y-110324538D01*
X196584357Y-110275211D01*
X196584355Y-110275208D01*
X196581198Y-110270700D01*
X196419300Y-110108802D01*
X196414792Y-110105645D01*
X196414789Y-110105643D01*
X196336611Y-110050902D01*
X196231749Y-109977477D01*
X196226767Y-109975154D01*
X196226762Y-109975151D01*
X196029225Y-109883039D01*
X196029224Y-109883039D01*
X196024243Y-109880716D01*
X196018935Y-109879294D01*
X196018933Y-109879293D01*
X195808402Y-109822881D01*
X195808400Y-109822881D01*
X195803087Y-109821457D01*
X195575000Y-109801502D01*
X195346913Y-109821457D01*
X195341600Y-109822881D01*
X195341598Y-109822881D01*
X195131067Y-109879293D01*
X195131065Y-109879294D01*
X195125757Y-109880716D01*
X195120776Y-109883039D01*
X195120775Y-109883039D01*
X194923238Y-109975151D01*
X194923233Y-109975154D01*
X194918251Y-109977477D01*
X194813389Y-110050902D01*
X194735211Y-110105643D01*
X194735208Y-110105645D01*
X194730700Y-110108802D01*
X194568802Y-110270700D01*
X194565645Y-110275208D01*
X194565643Y-110275211D01*
X194531104Y-110324538D01*
X194437477Y-110458251D01*
X194435154Y-110463233D01*
X194435151Y-110463238D01*
X194419195Y-110497457D01*
X194372278Y-110550742D01*
X194304001Y-110570203D01*
X194236041Y-110549661D01*
X194190805Y-110497457D01*
X194174849Y-110463238D01*
X194174846Y-110463233D01*
X194172523Y-110458251D01*
X194078896Y-110324538D01*
X194044357Y-110275211D01*
X194044355Y-110275208D01*
X194041198Y-110270700D01*
X193879300Y-110108802D01*
X193874792Y-110105645D01*
X193874789Y-110105643D01*
X193796611Y-110050902D01*
X193691749Y-109977477D01*
X193686767Y-109975154D01*
X193686762Y-109975151D01*
X193489225Y-109883039D01*
X193489224Y-109883039D01*
X193484243Y-109880716D01*
X193478935Y-109879294D01*
X193478933Y-109879293D01*
X193268402Y-109822881D01*
X193268400Y-109822881D01*
X193263087Y-109821457D01*
X193035000Y-109801502D01*
X192806913Y-109821457D01*
X192801600Y-109822881D01*
X192801598Y-109822881D01*
X192591067Y-109879293D01*
X192591065Y-109879294D01*
X192585757Y-109880716D01*
X192580776Y-109883039D01*
X192580775Y-109883039D01*
X192383238Y-109975151D01*
X192383233Y-109975154D01*
X192378251Y-109977477D01*
X192273389Y-110050902D01*
X192195211Y-110105643D01*
X192195208Y-110105645D01*
X192190700Y-110108802D01*
X192028802Y-110270700D01*
X192025645Y-110275208D01*
X192025643Y-110275211D01*
X191991104Y-110324538D01*
X191897477Y-110458251D01*
X191895154Y-110463233D01*
X191895151Y-110463238D01*
X191879195Y-110497457D01*
X191832278Y-110550742D01*
X191764001Y-110570203D01*
X191696041Y-110549661D01*
X191650805Y-110497457D01*
X191634849Y-110463238D01*
X191634846Y-110463233D01*
X191632523Y-110458251D01*
X191538896Y-110324538D01*
X191504357Y-110275211D01*
X191504355Y-110275208D01*
X191501198Y-110270700D01*
X191339300Y-110108802D01*
X191334792Y-110105645D01*
X191334789Y-110105643D01*
X191256611Y-110050902D01*
X191151749Y-109977477D01*
X191146767Y-109975154D01*
X191146762Y-109975151D01*
X190949225Y-109883039D01*
X190949224Y-109883039D01*
X190944243Y-109880716D01*
X190938935Y-109879294D01*
X190938933Y-109879293D01*
X190728402Y-109822881D01*
X190728400Y-109822881D01*
X190723087Y-109821457D01*
X190495000Y-109801502D01*
X190489525Y-109801981D01*
X190332087Y-109815755D01*
X190262482Y-109801766D01*
X190232010Y-109779329D01*
X185464620Y-105011939D01*
X185430594Y-104949627D01*
X185435659Y-104878812D01*
X185478206Y-104821976D01*
X185542733Y-104797323D01*
X185569791Y-104794956D01*
X185643087Y-104788543D01*
X185648400Y-104787119D01*
X185648402Y-104787119D01*
X185858933Y-104730707D01*
X185858935Y-104730706D01*
X185864243Y-104729284D01*
X185869225Y-104726961D01*
X186066762Y-104634849D01*
X186066767Y-104634846D01*
X186071749Y-104632523D01*
X186176611Y-104559098D01*
X186254789Y-104504357D01*
X186254792Y-104504355D01*
X186259300Y-104501198D01*
X186421198Y-104339300D01*
X186552523Y-104151749D01*
X186554846Y-104146767D01*
X186554849Y-104146762D01*
X186570805Y-104112543D01*
X186617722Y-104059258D01*
X186685999Y-104039797D01*
X186753959Y-104060339D01*
X186799195Y-104112543D01*
X186815151Y-104146762D01*
X186815154Y-104146767D01*
X186817477Y-104151749D01*
X186948802Y-104339300D01*
X187110700Y-104501198D01*
X187115208Y-104504355D01*
X187115211Y-104504357D01*
X187193389Y-104559098D01*
X187298251Y-104632523D01*
X187303233Y-104634846D01*
X187303238Y-104634849D01*
X187500775Y-104726961D01*
X187505757Y-104729284D01*
X187511065Y-104730706D01*
X187511067Y-104730707D01*
X187721598Y-104787119D01*
X187721600Y-104787119D01*
X187726913Y-104788543D01*
X187955000Y-104808498D01*
X188183087Y-104788543D01*
X188188400Y-104787119D01*
X188188402Y-104787119D01*
X188398933Y-104730707D01*
X188398935Y-104730706D01*
X188404243Y-104729284D01*
X188409225Y-104726961D01*
X188606762Y-104634849D01*
X188606767Y-104634846D01*
X188611749Y-104632523D01*
X188716611Y-104559098D01*
X188794789Y-104504357D01*
X188794792Y-104504355D01*
X188799300Y-104501198D01*
X188961198Y-104339300D01*
X189092523Y-104151749D01*
X189094846Y-104146767D01*
X189094849Y-104146762D01*
X189110805Y-104112543D01*
X189157722Y-104059258D01*
X189225999Y-104039797D01*
X189293959Y-104060339D01*
X189339195Y-104112543D01*
X189355151Y-104146762D01*
X189355154Y-104146767D01*
X189357477Y-104151749D01*
X189488802Y-104339300D01*
X189650700Y-104501198D01*
X189655208Y-104504355D01*
X189655211Y-104504357D01*
X189733389Y-104559098D01*
X189838251Y-104632523D01*
X189843233Y-104634846D01*
X189843238Y-104634849D01*
X190040775Y-104726961D01*
X190045757Y-104729284D01*
X190051065Y-104730706D01*
X190051067Y-104730707D01*
X190261598Y-104787119D01*
X190261600Y-104787119D01*
X190266913Y-104788543D01*
X190495000Y-104808498D01*
X190723087Y-104788543D01*
X190728400Y-104787119D01*
X190728402Y-104787119D01*
X190938933Y-104730707D01*
X190938935Y-104730706D01*
X190944243Y-104729284D01*
X190949225Y-104726961D01*
X191146762Y-104634849D01*
X191146767Y-104634846D01*
X191151749Y-104632523D01*
X191256611Y-104559098D01*
X191334789Y-104504357D01*
X191334792Y-104504355D01*
X191339300Y-104501198D01*
X191501198Y-104339300D01*
X191632523Y-104151749D01*
X191634846Y-104146767D01*
X191634849Y-104146762D01*
X191650805Y-104112543D01*
X191697722Y-104059258D01*
X191765999Y-104039797D01*
X191833959Y-104060339D01*
X191879195Y-104112543D01*
X191895151Y-104146762D01*
X191895154Y-104146767D01*
X191897477Y-104151749D01*
X192028802Y-104339300D01*
X192190700Y-104501198D01*
X192195208Y-104504355D01*
X192195211Y-104504357D01*
X192273389Y-104559098D01*
X192378251Y-104632523D01*
X192383233Y-104634846D01*
X192383238Y-104634849D01*
X192580775Y-104726961D01*
X192585757Y-104729284D01*
X192591065Y-104730706D01*
X192591067Y-104730707D01*
X192801598Y-104787119D01*
X192801600Y-104787119D01*
X192806913Y-104788543D01*
X193035000Y-104808498D01*
X193263087Y-104788543D01*
X193268400Y-104787119D01*
X193268402Y-104787119D01*
X193478933Y-104730707D01*
X193478935Y-104730706D01*
X193484243Y-104729284D01*
X193489225Y-104726961D01*
X193686762Y-104634849D01*
X193686767Y-104634846D01*
X193691749Y-104632523D01*
X193796611Y-104559098D01*
X193874789Y-104504357D01*
X193874792Y-104504355D01*
X193879300Y-104501198D01*
X194041198Y-104339300D01*
X194172523Y-104151749D01*
X194174846Y-104146767D01*
X194174849Y-104146762D01*
X194190805Y-104112543D01*
X194237722Y-104059258D01*
X194305999Y-104039797D01*
X194373959Y-104060339D01*
X194419195Y-104112543D01*
X194435151Y-104146762D01*
X194435154Y-104146767D01*
X194437477Y-104151749D01*
X194568802Y-104339300D01*
X194730700Y-104501198D01*
X194735208Y-104504355D01*
X194735211Y-104504357D01*
X194813389Y-104559098D01*
X194918251Y-104632523D01*
X194923233Y-104634846D01*
X194923238Y-104634849D01*
X195120775Y-104726961D01*
X195125757Y-104729284D01*
X195131065Y-104730706D01*
X195131067Y-104730707D01*
X195341598Y-104787119D01*
X195341600Y-104787119D01*
X195346913Y-104788543D01*
X195575000Y-104808498D01*
X195803087Y-104788543D01*
X195808400Y-104787119D01*
X195808402Y-104787119D01*
X196018933Y-104730707D01*
X196018935Y-104730706D01*
X196024243Y-104729284D01*
X196029225Y-104726961D01*
X196226762Y-104634849D01*
X196226767Y-104634846D01*
X196231749Y-104632523D01*
X196336611Y-104559098D01*
X196414789Y-104504357D01*
X196414792Y-104504355D01*
X196419300Y-104501198D01*
X196581198Y-104339300D01*
X196712523Y-104151749D01*
X196714846Y-104146767D01*
X196714849Y-104146762D01*
X196730805Y-104112543D01*
X196777722Y-104059258D01*
X196845999Y-104039797D01*
X196913959Y-104060339D01*
G37*
%TD.AperFunction*%
%TA.AperFunction,Conductor*%
G36*
X181274363Y-84218054D02*
G01*
X181322948Y-84269823D01*
X181336500Y-84326670D01*
X181336500Y-90088583D01*
X181334949Y-90108292D01*
X181332748Y-90122190D01*
X181333093Y-90128777D01*
X181333093Y-90128782D01*
X181336327Y-90190480D01*
X181336500Y-90197074D01*
X181336500Y-90217610D01*
X181336844Y-90220882D01*
X181336844Y-90220884D01*
X181338647Y-90238042D01*
X181339164Y-90244616D01*
X181342743Y-90312903D01*
X181344453Y-90319284D01*
X181344453Y-90319286D01*
X181346383Y-90326491D01*
X181349985Y-90345925D01*
X181350766Y-90353354D01*
X181350768Y-90353363D01*
X181351458Y-90359928D01*
X181372600Y-90424997D01*
X181374467Y-90431299D01*
X181392171Y-90497370D01*
X181398559Y-90509907D01*
X181406125Y-90528173D01*
X181410473Y-90541556D01*
X181413776Y-90547278D01*
X181413777Y-90547279D01*
X181444667Y-90600782D01*
X181447814Y-90606577D01*
X181478871Y-90667530D01*
X181483024Y-90672658D01*
X181483025Y-90672660D01*
X181487727Y-90678466D01*
X181498927Y-90694763D01*
X181502657Y-90701224D01*
X181502660Y-90701228D01*
X181505960Y-90706944D01*
X181510377Y-90711850D01*
X181510381Y-90711855D01*
X181535305Y-90739536D01*
X181566023Y-90803543D01*
X181567190Y-90812864D01*
X181586457Y-91033087D01*
X181587881Y-91038400D01*
X181587881Y-91038402D01*
X181597031Y-91072548D01*
X181645716Y-91254243D01*
X181648039Y-91259224D01*
X181648039Y-91259225D01*
X181740151Y-91456762D01*
X181740154Y-91456767D01*
X181742477Y-91461749D01*
X181745634Y-91466257D01*
X181854254Y-91621382D01*
X181873802Y-91649300D01*
X182035700Y-91811198D01*
X182040208Y-91814355D01*
X182040211Y-91814357D01*
X182082727Y-91844127D01*
X182223251Y-91942523D01*
X182228233Y-91944846D01*
X182228238Y-91944849D01*
X182424765Y-92036490D01*
X182430757Y-92039284D01*
X182436065Y-92040706D01*
X182436067Y-92040707D01*
X182646598Y-92097119D01*
X182646600Y-92097119D01*
X182651913Y-92098543D01*
X182880000Y-92118498D01*
X182885475Y-92118019D01*
X183042913Y-92104245D01*
X183112518Y-92118234D01*
X183142990Y-92140671D01*
X183370084Y-92367765D01*
X183404110Y-92430077D01*
X183406989Y-92456860D01*
X183406989Y-99587341D01*
X183386987Y-99655462D01*
X183333331Y-99701955D01*
X183263057Y-99712059D01*
X183248378Y-99709048D01*
X183113402Y-99672881D01*
X183113400Y-99672881D01*
X183108087Y-99671457D01*
X182880000Y-99651502D01*
X182651913Y-99671457D01*
X182646600Y-99672881D01*
X182646598Y-99672881D01*
X182436067Y-99729293D01*
X182436065Y-99729294D01*
X182430757Y-99730716D01*
X182425776Y-99733039D01*
X182425775Y-99733039D01*
X182228238Y-99825151D01*
X182228233Y-99825154D01*
X182223251Y-99827477D01*
X182118389Y-99900902D01*
X182040211Y-99955643D01*
X182040208Y-99955645D01*
X182035700Y-99958802D01*
X181873802Y-100120700D01*
X181742477Y-100308251D01*
X181740154Y-100313233D01*
X181740151Y-100313238D01*
X181724195Y-100347457D01*
X181645716Y-100515757D01*
X181586457Y-100736913D01*
X181566502Y-100965000D01*
X181586457Y-101193087D01*
X181645716Y-101414243D01*
X181648039Y-101419224D01*
X181648039Y-101419225D01*
X181740151Y-101616762D01*
X181740154Y-101616767D01*
X181742477Y-101621749D01*
X181873802Y-101809300D01*
X182035700Y-101971198D01*
X182040208Y-101974355D01*
X182040211Y-101974357D01*
X182062769Y-101990152D01*
X182223251Y-102102523D01*
X182249234Y-102114639D01*
X182302519Y-102161554D01*
X182321981Y-102229831D01*
X182301440Y-102297792D01*
X182249235Y-102343029D01*
X182223238Y-102355151D01*
X182223233Y-102355154D01*
X182218251Y-102357477D01*
X182177005Y-102386358D01*
X182035211Y-102485643D01*
X182035208Y-102485645D01*
X182030700Y-102488802D01*
X181868802Y-102650700D01*
X181846345Y-102682771D01*
X181790890Y-102727099D01*
X181743133Y-102736500D01*
X181712116Y-102736500D01*
X181643995Y-102716498D01*
X181597502Y-102662842D01*
X181591968Y-102646734D01*
X181591745Y-102644684D01*
X181540615Y-102508295D01*
X181453261Y-102391739D01*
X181336705Y-102304385D01*
X181200316Y-102253255D01*
X181138134Y-102246500D01*
X179974989Y-102246500D01*
X179906868Y-102226498D01*
X179860375Y-102172842D01*
X179848989Y-102120500D01*
X179848989Y-98608727D01*
X179849679Y-98595556D01*
X179853303Y-98561076D01*
X179853993Y-98554511D01*
X179849679Y-98513466D01*
X179848989Y-98500295D01*
X179848989Y-97220536D01*
X179868991Y-97152415D01*
X179922647Y-97105922D01*
X179992921Y-97095818D01*
X180007600Y-97098829D01*
X180115316Y-97127692D01*
X180115323Y-97127693D01*
X180120629Y-97129115D01*
X180340000Y-97148307D01*
X180559371Y-97129115D01*
X180772076Y-97072120D01*
X180971654Y-96979056D01*
X181152038Y-96852749D01*
X181307749Y-96697038D01*
X181434056Y-96516653D01*
X181436379Y-96511671D01*
X181436382Y-96511666D01*
X181524795Y-96322061D01*
X181527120Y-96317076D01*
X181584115Y-96104371D01*
X181603307Y-95885000D01*
X181584115Y-95665629D01*
X181527120Y-95452924D01*
X181483585Y-95359562D01*
X181436382Y-95258334D01*
X181436379Y-95258329D01*
X181434056Y-95253347D01*
X181307749Y-95072962D01*
X181152038Y-94917251D01*
X181147527Y-94914092D01*
X180976158Y-94794097D01*
X180976152Y-94794093D01*
X180971654Y-94790944D01*
X180917251Y-94765576D01*
X180863966Y-94718660D01*
X180844500Y-94651381D01*
X180844500Y-94633788D01*
X180864502Y-94565667D01*
X180917251Y-94519593D01*
X180991765Y-94484847D01*
X180996749Y-94482523D01*
X181076124Y-94426944D01*
X181179789Y-94354357D01*
X181179792Y-94354355D01*
X181184300Y-94351198D01*
X181346198Y-94189300D01*
X181477523Y-94001749D01*
X181479846Y-93996767D01*
X181479849Y-93996762D01*
X181571961Y-93799225D01*
X181571961Y-93799224D01*
X181574284Y-93794243D01*
X181596785Y-93710271D01*
X181632119Y-93578402D01*
X181632119Y-93578400D01*
X181633543Y-93573087D01*
X181653498Y-93345000D01*
X181633543Y-93116913D01*
X181632119Y-93111598D01*
X181575707Y-92901067D01*
X181575706Y-92901065D01*
X181574284Y-92895757D01*
X181531100Y-92803148D01*
X181479849Y-92693238D01*
X181479846Y-92693233D01*
X181477523Y-92688251D01*
X181383437Y-92553882D01*
X181349357Y-92505211D01*
X181349355Y-92505208D01*
X181346198Y-92500700D01*
X181184300Y-92338802D01*
X181179792Y-92335645D01*
X181179789Y-92335643D01*
X181101611Y-92280902D01*
X180996749Y-92207477D01*
X180991767Y-92205154D01*
X180991762Y-92205151D01*
X180794225Y-92113039D01*
X180794224Y-92113039D01*
X180789243Y-92110716D01*
X180783935Y-92109294D01*
X180783933Y-92109293D01*
X180573402Y-92052881D01*
X180573400Y-92052881D01*
X180568087Y-92051457D01*
X180340000Y-92031502D01*
X180111913Y-92051457D01*
X180007599Y-92079408D01*
X179936624Y-92077718D01*
X179877828Y-92037924D01*
X179849880Y-91972660D01*
X179848989Y-91957701D01*
X179848989Y-84572299D01*
X179868991Y-84504178D01*
X179922647Y-84457685D01*
X179992921Y-84447581D01*
X180007593Y-84450590D01*
X180111913Y-84478543D01*
X180340000Y-84498498D01*
X180568087Y-84478543D01*
X180573400Y-84477119D01*
X180573402Y-84477119D01*
X180783933Y-84420707D01*
X180783935Y-84420706D01*
X180789243Y-84419284D01*
X180831012Y-84399807D01*
X180991762Y-84324849D01*
X180991767Y-84324846D01*
X180996749Y-84322523D01*
X181138230Y-84223457D01*
X181205503Y-84200769D01*
X181274363Y-84218054D01*
G37*
%TD.AperFunction*%
%TA.AperFunction,Conductor*%
G36*
X190582026Y-76875144D02*
G01*
X190609875Y-76906994D01*
X190669987Y-77005088D01*
X190816250Y-77173938D01*
X190988126Y-77316632D01*
X191181000Y-77429338D01*
X191389692Y-77509030D01*
X191394760Y-77510061D01*
X191394763Y-77510062D01*
X191502017Y-77531883D01*
X191608597Y-77553567D01*
X191613772Y-77553757D01*
X191613774Y-77553757D01*
X191826673Y-77561564D01*
X191826677Y-77561564D01*
X191831837Y-77561753D01*
X191971908Y-77543809D01*
X192042017Y-77554993D01*
X192077012Y-77579693D01*
X196075084Y-81577765D01*
X196109110Y-81640077D01*
X196111989Y-81666860D01*
X196111989Y-89429198D01*
X196091987Y-89497319D01*
X196038331Y-89543812D01*
X195968057Y-89553916D01*
X195953378Y-89550905D01*
X195813312Y-89513375D01*
X195802519Y-89511472D01*
X195585475Y-89492483D01*
X195574525Y-89492483D01*
X195357481Y-89511472D01*
X195346688Y-89513375D01*
X195136239Y-89569764D01*
X195125947Y-89573510D01*
X194928489Y-89665586D01*
X194918994Y-89671069D01*
X194866952Y-89707509D01*
X194858576Y-89717988D01*
X194865644Y-89731434D01*
X195850115Y-90715905D01*
X195884141Y-90778217D01*
X195879076Y-90849032D01*
X195850115Y-90894095D01*
X194864923Y-91879287D01*
X194858493Y-91891062D01*
X194867789Y-91903077D01*
X194918994Y-91938931D01*
X194928489Y-91944414D01*
X195125947Y-92036490D01*
X195136239Y-92040236D01*
X195346688Y-92096625D01*
X195357481Y-92098528D01*
X195574525Y-92117517D01*
X195585475Y-92117517D01*
X195802519Y-92098528D01*
X195813312Y-92096625D01*
X195953378Y-92059095D01*
X196024354Y-92060785D01*
X196083150Y-92100579D01*
X196111098Y-92165844D01*
X196111989Y-92180802D01*
X196111989Y-92393357D01*
X196091987Y-92461478D01*
X196038331Y-92507971D01*
X195968057Y-92518075D01*
X195934743Y-92508465D01*
X195862288Y-92476206D01*
X195768887Y-92456353D01*
X195681944Y-92437872D01*
X195681939Y-92437872D01*
X195675487Y-92436500D01*
X195484513Y-92436500D01*
X195478061Y-92437872D01*
X195478056Y-92437872D01*
X195391112Y-92456353D01*
X195297712Y-92476206D01*
X195291682Y-92478891D01*
X195291681Y-92478891D01*
X195129278Y-92551197D01*
X195129276Y-92551198D01*
X195123248Y-92553882D01*
X194968747Y-92666134D01*
X194840960Y-92808056D01*
X194745473Y-92973444D01*
X194686458Y-93155072D01*
X194666496Y-93345000D01*
X194686458Y-93534928D01*
X194745473Y-93716556D01*
X194748776Y-93722278D01*
X194748777Y-93722279D01*
X194804619Y-93818999D01*
X194821500Y-93881999D01*
X194821500Y-98299000D01*
X194801498Y-98367121D01*
X194747842Y-98413614D01*
X194695500Y-98425000D01*
X193919500Y-98425000D01*
X193851379Y-98404998D01*
X193804886Y-98351342D01*
X193793500Y-98299000D01*
X193793500Y-90810475D01*
X194267483Y-90810475D01*
X194286472Y-91027519D01*
X194288375Y-91038312D01*
X194344764Y-91248761D01*
X194348510Y-91259053D01*
X194440586Y-91456511D01*
X194446069Y-91466006D01*
X194482509Y-91518048D01*
X194492988Y-91526424D01*
X194506434Y-91519356D01*
X195207978Y-90817812D01*
X195215592Y-90803868D01*
X195215461Y-90802035D01*
X195211210Y-90795420D01*
X194505713Y-90089923D01*
X194493938Y-90083493D01*
X194481923Y-90092789D01*
X194446069Y-90143994D01*
X194440586Y-90153489D01*
X194348510Y-90350947D01*
X194344764Y-90361239D01*
X194288375Y-90571688D01*
X194286472Y-90582481D01*
X194267483Y-90799525D01*
X194267483Y-90810475D01*
X193793500Y-90810475D01*
X193793500Y-89597069D01*
X193794933Y-89578118D01*
X193797099Y-89563883D01*
X193797099Y-89563881D01*
X193798199Y-89556651D01*
X193796797Y-89539408D01*
X193793915Y-89503982D01*
X193793500Y-89493767D01*
X193793500Y-89485707D01*
X193790211Y-89457493D01*
X193789778Y-89453118D01*
X193784454Y-89387661D01*
X193784453Y-89387658D01*
X193783860Y-89380363D01*
X193781604Y-89373399D01*
X193780413Y-89367440D01*
X193779029Y-89361585D01*
X193778182Y-89354319D01*
X193753265Y-89285673D01*
X193751848Y-89281545D01*
X193731607Y-89219064D01*
X193731606Y-89219062D01*
X193729351Y-89212101D01*
X193725555Y-89205846D01*
X193723049Y-89200372D01*
X193720330Y-89194942D01*
X193717833Y-89188063D01*
X193677809Y-89127016D01*
X193675472Y-89123312D01*
X193640509Y-89065693D01*
X193640505Y-89065688D01*
X193637595Y-89060892D01*
X193630197Y-89052516D01*
X193630223Y-89052493D01*
X193627574Y-89049503D01*
X193624866Y-89046264D01*
X193620856Y-89040148D01*
X193615549Y-89035121D01*
X193615546Y-89035117D01*
X193564617Y-88986872D01*
X193562175Y-88984494D01*
X191745775Y-87168094D01*
X191711749Y-87105782D01*
X191716814Y-87034967D01*
X191759361Y-86978131D01*
X191823888Y-86953478D01*
X191886540Y-86947997D01*
X191978661Y-86939938D01*
X191978666Y-86939937D01*
X191984142Y-86939458D01*
X191989455Y-86938034D01*
X191989457Y-86938034D01*
X192186467Y-86885245D01*
X192186469Y-86885244D01*
X192191777Y-86883822D01*
X192196759Y-86881499D01*
X192381616Y-86795299D01*
X192381619Y-86795297D01*
X192386597Y-86792976D01*
X192562681Y-86669681D01*
X192714681Y-86517681D01*
X192837976Y-86341596D01*
X192928822Y-86146777D01*
X192984458Y-85939142D01*
X193003193Y-85725000D01*
X192984458Y-85510858D01*
X192980663Y-85496695D01*
X192930245Y-85308533D01*
X192930244Y-85308531D01*
X192928822Y-85303223D01*
X192911316Y-85265681D01*
X192840299Y-85113385D01*
X192840297Y-85113382D01*
X192837976Y-85108404D01*
X192714681Y-84932319D01*
X192562681Y-84780319D01*
X192386597Y-84657024D01*
X192381619Y-84654703D01*
X192381616Y-84654701D01*
X192198247Y-84569195D01*
X192144962Y-84522278D01*
X192125501Y-84454000D01*
X192146043Y-84386041D01*
X192198247Y-84340805D01*
X192381616Y-84255299D01*
X192381619Y-84255297D01*
X192386597Y-84252976D01*
X192562681Y-84129681D01*
X192714681Y-83977681D01*
X192837976Y-83801596D01*
X192860422Y-83753462D01*
X192926499Y-83611759D01*
X192926500Y-83611757D01*
X192928822Y-83606777D01*
X192984458Y-83399142D01*
X193003193Y-83185000D01*
X192984458Y-82970858D01*
X192976831Y-82942393D01*
X192930245Y-82768533D01*
X192930244Y-82768531D01*
X192928822Y-82763223D01*
X192906688Y-82715757D01*
X192840299Y-82573385D01*
X192840297Y-82573382D01*
X192837976Y-82568404D01*
X192714681Y-82392319D01*
X192565405Y-82243043D01*
X192531379Y-82180731D01*
X192528500Y-82153948D01*
X192528500Y-81676052D01*
X192548502Y-81607931D01*
X192565405Y-81586957D01*
X192714681Y-81437681D01*
X192837976Y-81261596D01*
X192842192Y-81252556D01*
X192926499Y-81071759D01*
X192926500Y-81071757D01*
X192928822Y-81066777D01*
X192932213Y-81054124D01*
X192983034Y-80864457D01*
X192983034Y-80864455D01*
X192984458Y-80859142D01*
X193003193Y-80645000D01*
X192984458Y-80430858D01*
X192928822Y-80223223D01*
X192837976Y-80028404D01*
X192714681Y-79852319D01*
X192562681Y-79700319D01*
X192386597Y-79577024D01*
X192381619Y-79574703D01*
X192381616Y-79574701D01*
X192196759Y-79488501D01*
X192196758Y-79488500D01*
X192191777Y-79486178D01*
X192186469Y-79484756D01*
X192186467Y-79484755D01*
X191989457Y-79431966D01*
X191989455Y-79431966D01*
X191984142Y-79430542D01*
X191770000Y-79411807D01*
X191555858Y-79430542D01*
X191550545Y-79431966D01*
X191550543Y-79431966D01*
X191353533Y-79484755D01*
X191353531Y-79484756D01*
X191348223Y-79486178D01*
X191343243Y-79488500D01*
X191343241Y-79488501D01*
X191158385Y-79574701D01*
X191158382Y-79574703D01*
X191153404Y-79577024D01*
X190977319Y-79700319D01*
X190825319Y-79852319D01*
X190702024Y-80028404D01*
X190611178Y-80223223D01*
X190555542Y-80430858D01*
X190536807Y-80645000D01*
X190555542Y-80859142D01*
X190556966Y-80864455D01*
X190556966Y-80864457D01*
X190592719Y-80997889D01*
X190591029Y-81068865D01*
X190551235Y-81127661D01*
X190485970Y-81155609D01*
X190471012Y-81156500D01*
X189981651Y-81156500D01*
X189913530Y-81136498D01*
X189867037Y-81082842D01*
X189856933Y-81012568D01*
X189859944Y-80997889D01*
X189886625Y-80898312D01*
X189888528Y-80887519D01*
X189907517Y-80670475D01*
X189907517Y-80659525D01*
X189888528Y-80442481D01*
X189886625Y-80431688D01*
X189830236Y-80221239D01*
X189826490Y-80210947D01*
X189734414Y-80013489D01*
X189728931Y-80003994D01*
X189692491Y-79951952D01*
X189682012Y-79943576D01*
X189668566Y-79950644D01*
X188684095Y-80935115D01*
X188621783Y-80969141D01*
X188550968Y-80964076D01*
X188505905Y-80935115D01*
X187520713Y-79949923D01*
X187508938Y-79943493D01*
X187496923Y-79952789D01*
X187461069Y-80003994D01*
X187455586Y-80013489D01*
X187363510Y-80210947D01*
X187359764Y-80221239D01*
X187303375Y-80431688D01*
X187301472Y-80442481D01*
X187282483Y-80659525D01*
X187282483Y-80670475D01*
X187301472Y-80887519D01*
X187303375Y-80898312D01*
X187330056Y-80997889D01*
X187328366Y-81068866D01*
X187288572Y-81127661D01*
X187223307Y-81155609D01*
X187208349Y-81156500D01*
X186058539Y-81156500D01*
X185990418Y-81136498D01*
X185957713Y-81106065D01*
X185903643Y-81033920D01*
X185903642Y-81033919D01*
X185898261Y-81026739D01*
X185781705Y-80939385D01*
X185645316Y-80888255D01*
X185583134Y-80881500D01*
X183986866Y-80881500D01*
X183924684Y-80888255D01*
X183788295Y-80939385D01*
X183671739Y-81026739D01*
X183584385Y-81143295D01*
X183533255Y-81279684D01*
X183526500Y-81341866D01*
X183526500Y-82488134D01*
X183533255Y-82550316D01*
X183536029Y-82557715D01*
X183581232Y-82678296D01*
X183581234Y-82678299D01*
X183584385Y-82686705D01*
X183589773Y-82693894D01*
X183589906Y-82694137D01*
X183605076Y-82763494D01*
X183599752Y-82791907D01*
X183542710Y-82976180D01*
X183542066Y-82982305D01*
X183542066Y-82982306D01*
X183522864Y-83165000D01*
X183521524Y-83177750D01*
X183539894Y-83379596D01*
X183541632Y-83385502D01*
X183541633Y-83385506D01*
X183547211Y-83404457D01*
X183597119Y-83574029D01*
X183599972Y-83579486D01*
X183599973Y-83579489D01*
X183641540Y-83658999D01*
X183690923Y-83753460D01*
X183690923Y-83753462D01*
X183691019Y-83753645D01*
X183690984Y-83753663D01*
X183710889Y-83819441D01*
X183695729Y-83880409D01*
X183602644Y-84052565D01*
X183579978Y-84125786D01*
X183547324Y-84231276D01*
X183542710Y-84246180D01*
X183542066Y-84252305D01*
X183542066Y-84252306D01*
X183524516Y-84419284D01*
X183521524Y-84447750D01*
X183539894Y-84649596D01*
X183541632Y-84655502D01*
X183541633Y-84655506D01*
X183544080Y-84663820D01*
X183597119Y-84844029D01*
X183599972Y-84849486D01*
X183599973Y-84849489D01*
X183604889Y-84858892D01*
X183691019Y-85023645D01*
X183694879Y-85028445D01*
X183694879Y-85028446D01*
X183698106Y-85032460D01*
X183818019Y-85181601D01*
X183973281Y-85311881D01*
X183978673Y-85314845D01*
X183978677Y-85314848D01*
X184135271Y-85400936D01*
X184150891Y-85409523D01*
X184344084Y-85470807D01*
X184350201Y-85471493D01*
X184350205Y-85471494D01*
X184424348Y-85479810D01*
X184501817Y-85488500D01*
X185061004Y-85488500D01*
X185211713Y-85473723D01*
X185405742Y-85415142D01*
X185584698Y-85319990D01*
X185741763Y-85191890D01*
X185754246Y-85176801D01*
X185867027Y-85040472D01*
X185867029Y-85040469D01*
X185870956Y-85035722D01*
X185967356Y-84857435D01*
X186027290Y-84663820D01*
X186028249Y-84654701D01*
X186047832Y-84468378D01*
X186047832Y-84468377D01*
X186048476Y-84462250D01*
X186035971Y-84324849D01*
X186030665Y-84266543D01*
X186030664Y-84266540D01*
X186030106Y-84260404D01*
X186026992Y-84249821D01*
X185984390Y-84105075D01*
X185984345Y-84034079D01*
X186022691Y-83974328D01*
X186087253Y-83944794D01*
X186105264Y-83943500D01*
X187477137Y-83943500D01*
X187545258Y-83963502D01*
X187580351Y-83997231D01*
X187585641Y-84004787D01*
X187585643Y-84004789D01*
X187588802Y-84009300D01*
X187750700Y-84171198D01*
X187782771Y-84193655D01*
X187827099Y-84249110D01*
X187836500Y-84296867D01*
X187836500Y-85022930D01*
X187835067Y-85041880D01*
X187831801Y-85063349D01*
X187832394Y-85070641D01*
X187832394Y-85070644D01*
X187836085Y-85116018D01*
X187836500Y-85126233D01*
X187836500Y-85134293D01*
X187836925Y-85137937D01*
X187839789Y-85162507D01*
X187840222Y-85166882D01*
X187845109Y-85226958D01*
X187846140Y-85239637D01*
X187848396Y-85246601D01*
X187849587Y-85252560D01*
X187850971Y-85258415D01*
X187851818Y-85265681D01*
X187876735Y-85334327D01*
X187878152Y-85338455D01*
X187900649Y-85407899D01*
X187904445Y-85414154D01*
X187906951Y-85419628D01*
X187909670Y-85425058D01*
X187912167Y-85431937D01*
X187916180Y-85438057D01*
X187916180Y-85438058D01*
X187952186Y-85492976D01*
X187954523Y-85496680D01*
X187992405Y-85559107D01*
X187996121Y-85563315D01*
X187996122Y-85563316D01*
X187999803Y-85567484D01*
X187999776Y-85567508D01*
X188002429Y-85570500D01*
X188005132Y-85573733D01*
X188009144Y-85579852D01*
X188014456Y-85584884D01*
X188065383Y-85633128D01*
X188067825Y-85635506D01*
X192239595Y-89807276D01*
X192273621Y-89869588D01*
X192276500Y-89896371D01*
X192276500Y-98299000D01*
X192256498Y-98367121D01*
X192202842Y-98413614D01*
X192150500Y-98425000D01*
X191924955Y-98425000D01*
X191856834Y-98404998D01*
X191810341Y-98351342D01*
X191799434Y-98309982D01*
X191793528Y-98242481D01*
X191791625Y-98231686D01*
X191735236Y-98021239D01*
X191731490Y-98010947D01*
X191639414Y-97813489D01*
X191633931Y-97803994D01*
X191597491Y-97751952D01*
X191587012Y-97743576D01*
X191573566Y-97750644D01*
X190936115Y-98388095D01*
X190873803Y-98422121D01*
X190847020Y-98425000D01*
X190500000Y-98425000D01*
X190500000Y-98772020D01*
X190479998Y-98840141D01*
X190463095Y-98861115D01*
X189784923Y-99539287D01*
X189778493Y-99551062D01*
X189787789Y-99563077D01*
X189838998Y-99598934D01*
X189850528Y-99605591D01*
X189899521Y-99656973D01*
X189912958Y-99726687D01*
X189886571Y-99792598D01*
X189850528Y-99823829D01*
X189848235Y-99825153D01*
X189843251Y-99827477D01*
X189763876Y-99883056D01*
X189660211Y-99955643D01*
X189660208Y-99955645D01*
X189655700Y-99958802D01*
X189493802Y-100120700D01*
X189362477Y-100308251D01*
X189360154Y-100313233D01*
X189360151Y-100313238D01*
X189344195Y-100347457D01*
X189297278Y-100400742D01*
X189229001Y-100420203D01*
X189161041Y-100399661D01*
X189115805Y-100347457D01*
X189099849Y-100313238D01*
X189099846Y-100313233D01*
X189097523Y-100308251D01*
X188966198Y-100120700D01*
X188804300Y-99958802D01*
X188799792Y-99955645D01*
X188799789Y-99955643D01*
X188721611Y-99900902D01*
X188616749Y-99827477D01*
X188611767Y-99825154D01*
X188611762Y-99825151D01*
X188414225Y-99733039D01*
X188414224Y-99733039D01*
X188409243Y-99730716D01*
X188403935Y-99729294D01*
X188403933Y-99729293D01*
X188193402Y-99672881D01*
X188193400Y-99672881D01*
X188188087Y-99671457D01*
X187960000Y-99651502D01*
X187731913Y-99671457D01*
X187726600Y-99672881D01*
X187726598Y-99672881D01*
X187516067Y-99729293D01*
X187516065Y-99729294D01*
X187510757Y-99730716D01*
X187505776Y-99733039D01*
X187505775Y-99733039D01*
X187308238Y-99825151D01*
X187308233Y-99825154D01*
X187303251Y-99827477D01*
X187198389Y-99900902D01*
X187120211Y-99955643D01*
X187120208Y-99955645D01*
X187115700Y-99958802D01*
X186953802Y-100120700D01*
X186822477Y-100308251D01*
X186820154Y-100313233D01*
X186820151Y-100313238D01*
X186804195Y-100347457D01*
X186757278Y-100400742D01*
X186689001Y-100420203D01*
X186621041Y-100399661D01*
X186575805Y-100347457D01*
X186559849Y-100313238D01*
X186559846Y-100313233D01*
X186557523Y-100308251D01*
X186426198Y-100120700D01*
X186264300Y-99958802D01*
X186259792Y-99955645D01*
X186259789Y-99955643D01*
X186181611Y-99900902D01*
X186076749Y-99827477D01*
X186071767Y-99825154D01*
X186071762Y-99825151D01*
X185874225Y-99733039D01*
X185874224Y-99733039D01*
X185869243Y-99730716D01*
X185863935Y-99729294D01*
X185863933Y-99729293D01*
X185653402Y-99672881D01*
X185653400Y-99672881D01*
X185648087Y-99671457D01*
X185420000Y-99651502D01*
X185191913Y-99671457D01*
X185186602Y-99672880D01*
X185186591Y-99672882D01*
X185082601Y-99700747D01*
X185011624Y-99699058D01*
X184952828Y-99659265D01*
X184924880Y-99594000D01*
X184923989Y-99579041D01*
X184923989Y-98470475D01*
X189187483Y-98470475D01*
X189206472Y-98687519D01*
X189208375Y-98698312D01*
X189264764Y-98908761D01*
X189268510Y-98919053D01*
X189360586Y-99116511D01*
X189366069Y-99126006D01*
X189402509Y-99178048D01*
X189412988Y-99186424D01*
X189426434Y-99179356D01*
X190127978Y-98477812D01*
X190135592Y-98463868D01*
X190135461Y-98462035D01*
X190131210Y-98455420D01*
X189425713Y-97749923D01*
X189413938Y-97743493D01*
X189401923Y-97752789D01*
X189366069Y-97803994D01*
X189360586Y-97813489D01*
X189268510Y-98010947D01*
X189264764Y-98021239D01*
X189208375Y-98231688D01*
X189206472Y-98242481D01*
X189187483Y-98459525D01*
X189187483Y-98470475D01*
X184923989Y-98470475D01*
X184923989Y-97377988D01*
X189778576Y-97377988D01*
X189785644Y-97391434D01*
X190487188Y-98092978D01*
X190501132Y-98100592D01*
X190502965Y-98100461D01*
X190509580Y-98096210D01*
X191215077Y-97390713D01*
X191221507Y-97378938D01*
X191212211Y-97366923D01*
X191161006Y-97331069D01*
X191151511Y-97325586D01*
X190954053Y-97233510D01*
X190943761Y-97229764D01*
X190733312Y-97173375D01*
X190722519Y-97171472D01*
X190505475Y-97152483D01*
X190494525Y-97152483D01*
X190277481Y-97171472D01*
X190266688Y-97173375D01*
X190056239Y-97229764D01*
X190045947Y-97233510D01*
X189848489Y-97325586D01*
X189838994Y-97331069D01*
X189786952Y-97367509D01*
X189778576Y-97377988D01*
X184923989Y-97377988D01*
X184923989Y-92190442D01*
X184943991Y-92122321D01*
X184997647Y-92075828D01*
X185067921Y-92065724D01*
X185082600Y-92068735D01*
X185186688Y-92096625D01*
X185197481Y-92098528D01*
X185414525Y-92117517D01*
X185425475Y-92117517D01*
X185642519Y-92098528D01*
X185653312Y-92096625D01*
X185863761Y-92040236D01*
X185874053Y-92036490D01*
X186071511Y-91944414D01*
X186081006Y-91938931D01*
X186133048Y-91902491D01*
X186141424Y-91892012D01*
X186134356Y-91878566D01*
X185061922Y-90806132D01*
X185784408Y-90806132D01*
X185784539Y-90807965D01*
X185788790Y-90814580D01*
X186494287Y-91520077D01*
X186506062Y-91526507D01*
X186518077Y-91517211D01*
X186553931Y-91466006D01*
X186559414Y-91456511D01*
X186575805Y-91421359D01*
X186622722Y-91368074D01*
X186690999Y-91348613D01*
X186758959Y-91369155D01*
X186804195Y-91421359D01*
X186820586Y-91456511D01*
X186826069Y-91466007D01*
X186951028Y-91644467D01*
X186958084Y-91652875D01*
X187112125Y-91806916D01*
X187120533Y-91813972D01*
X187298993Y-91938931D01*
X187308489Y-91944414D01*
X187505947Y-92036490D01*
X187516239Y-92040236D01*
X187688503Y-92086394D01*
X187702599Y-92086058D01*
X187706000Y-92078116D01*
X187706000Y-92072967D01*
X188214000Y-92072967D01*
X188217973Y-92086498D01*
X188226522Y-92087727D01*
X188403761Y-92040236D01*
X188414053Y-92036490D01*
X188611511Y-91944414D01*
X188621007Y-91938931D01*
X188799467Y-91813972D01*
X188807875Y-91806916D01*
X188961916Y-91652875D01*
X188968972Y-91644467D01*
X189093931Y-91466007D01*
X189099414Y-91456511D01*
X189191490Y-91259053D01*
X189195236Y-91248761D01*
X189241394Y-91076497D01*
X189241058Y-91062401D01*
X189233116Y-91059000D01*
X188232115Y-91059000D01*
X188216876Y-91063475D01*
X188215671Y-91064865D01*
X188214000Y-91072548D01*
X188214000Y-92072967D01*
X187706000Y-92072967D01*
X187706000Y-90532885D01*
X188214000Y-90532885D01*
X188218475Y-90548124D01*
X188219865Y-90549329D01*
X188227548Y-90551000D01*
X189227967Y-90551000D01*
X189241498Y-90547027D01*
X189242727Y-90538478D01*
X189195236Y-90361239D01*
X189191490Y-90350947D01*
X189099414Y-90153489D01*
X189093931Y-90143993D01*
X188968972Y-89965533D01*
X188961916Y-89957125D01*
X188807875Y-89803084D01*
X188799467Y-89796028D01*
X188621007Y-89671069D01*
X188611511Y-89665586D01*
X188414053Y-89573510D01*
X188403761Y-89569764D01*
X188231497Y-89523606D01*
X188217401Y-89523942D01*
X188214000Y-89531884D01*
X188214000Y-90532885D01*
X187706000Y-90532885D01*
X187706000Y-89537033D01*
X187702027Y-89523502D01*
X187693478Y-89522273D01*
X187516239Y-89569764D01*
X187505947Y-89573510D01*
X187308489Y-89665586D01*
X187298993Y-89671069D01*
X187120533Y-89796028D01*
X187112125Y-89803084D01*
X186958084Y-89957125D01*
X186951028Y-89965533D01*
X186826069Y-90143993D01*
X186820586Y-90153489D01*
X186804195Y-90188641D01*
X186757278Y-90241926D01*
X186689001Y-90261387D01*
X186621041Y-90240845D01*
X186575805Y-90188641D01*
X186559414Y-90153489D01*
X186553931Y-90143994D01*
X186517491Y-90091952D01*
X186507012Y-90083576D01*
X186493566Y-90090644D01*
X185792022Y-90792188D01*
X185784408Y-90806132D01*
X185061922Y-90806132D01*
X184345713Y-90089923D01*
X184333938Y-90083493D01*
X184321923Y-90092789D01*
X184286069Y-90143994D01*
X184280586Y-90153489D01*
X184264471Y-90188049D01*
X184217554Y-90241334D01*
X184149277Y-90260795D01*
X184081317Y-90240253D01*
X184036081Y-90188049D01*
X184019849Y-90153238D01*
X184019846Y-90153233D01*
X184017523Y-90148251D01*
X183886198Y-89960700D01*
X183724300Y-89798802D01*
X183719792Y-89795645D01*
X183719789Y-89795643D01*
X183608886Y-89717988D01*
X184698576Y-89717988D01*
X184705644Y-89731434D01*
X185407188Y-90432978D01*
X185421132Y-90440592D01*
X185422965Y-90440461D01*
X185429580Y-90436210D01*
X186135077Y-89730713D01*
X186141507Y-89718938D01*
X186132211Y-89706923D01*
X186081006Y-89671069D01*
X186071511Y-89665586D01*
X185874053Y-89573510D01*
X185863761Y-89569764D01*
X185653312Y-89513375D01*
X185642519Y-89511472D01*
X185425475Y-89492483D01*
X185414525Y-89492483D01*
X185197481Y-89511472D01*
X185186688Y-89513375D01*
X184976239Y-89569764D01*
X184965947Y-89573510D01*
X184768489Y-89665586D01*
X184758994Y-89671069D01*
X184706952Y-89707509D01*
X184698576Y-89717988D01*
X183608886Y-89717988D01*
X183593920Y-89707509D01*
X183536749Y-89667477D01*
X183531767Y-89665154D01*
X183531762Y-89665151D01*
X183426409Y-89616025D01*
X183329243Y-89570716D01*
X183303743Y-89563883D01*
X183266546Y-89553916D01*
X183246889Y-89548649D01*
X183186266Y-89511697D01*
X183155245Y-89447837D01*
X183153500Y-89426942D01*
X183153500Y-79577988D01*
X187873576Y-79577988D01*
X187880644Y-79591434D01*
X188582188Y-80292978D01*
X188596132Y-80300592D01*
X188597965Y-80300461D01*
X188604580Y-80296210D01*
X189310077Y-79590713D01*
X189316507Y-79578938D01*
X189307211Y-79566923D01*
X189256006Y-79531069D01*
X189246511Y-79525586D01*
X189049053Y-79433510D01*
X189038761Y-79429764D01*
X188828312Y-79373375D01*
X188817519Y-79371472D01*
X188600475Y-79352483D01*
X188589525Y-79352483D01*
X188372481Y-79371472D01*
X188361688Y-79373375D01*
X188151239Y-79429764D01*
X188140947Y-79433510D01*
X187943489Y-79525586D01*
X187933994Y-79531069D01*
X187881952Y-79567509D01*
X187873576Y-79577988D01*
X183153500Y-79577988D01*
X183153500Y-77684500D01*
X183173502Y-77616379D01*
X183227158Y-77569886D01*
X183279500Y-77558500D01*
X185048134Y-77558500D01*
X185110316Y-77551745D01*
X185246705Y-77500615D01*
X185363261Y-77413261D01*
X185450615Y-77296705D01*
X185472799Y-77237529D01*
X185494598Y-77179382D01*
X185537240Y-77122618D01*
X185603802Y-77097918D01*
X185673150Y-77113126D01*
X185707817Y-77141114D01*
X185736250Y-77173938D01*
X185908126Y-77316632D01*
X186101000Y-77429338D01*
X186309692Y-77509030D01*
X186314760Y-77510061D01*
X186314763Y-77510062D01*
X186422017Y-77531883D01*
X186528597Y-77553567D01*
X186533772Y-77553757D01*
X186533774Y-77553757D01*
X186746673Y-77561564D01*
X186746677Y-77561564D01*
X186751837Y-77561753D01*
X186756957Y-77561097D01*
X186756959Y-77561097D01*
X186968288Y-77534025D01*
X186968289Y-77534025D01*
X186973416Y-77533368D01*
X186978366Y-77531883D01*
X187182429Y-77470661D01*
X187182434Y-77470659D01*
X187187384Y-77469174D01*
X187387994Y-77370896D01*
X187569860Y-77241173D01*
X187728096Y-77083489D01*
X187744748Y-77060316D01*
X187858453Y-76902077D01*
X187859776Y-76903028D01*
X187906645Y-76859857D01*
X187976580Y-76847625D01*
X188042026Y-76875144D01*
X188069875Y-76906994D01*
X188129987Y-77005088D01*
X188276250Y-77173938D01*
X188448126Y-77316632D01*
X188641000Y-77429338D01*
X188849692Y-77509030D01*
X188854760Y-77510061D01*
X188854763Y-77510062D01*
X188962017Y-77531883D01*
X189068597Y-77553567D01*
X189073772Y-77553757D01*
X189073774Y-77553757D01*
X189286673Y-77561564D01*
X189286677Y-77561564D01*
X189291837Y-77561753D01*
X189296957Y-77561097D01*
X189296959Y-77561097D01*
X189508288Y-77534025D01*
X189508289Y-77534025D01*
X189513416Y-77533368D01*
X189518366Y-77531883D01*
X189722429Y-77470661D01*
X189722434Y-77470659D01*
X189727384Y-77469174D01*
X189927994Y-77370896D01*
X190109860Y-77241173D01*
X190268096Y-77083489D01*
X190284748Y-77060316D01*
X190398453Y-76902077D01*
X190399776Y-76903028D01*
X190446645Y-76859857D01*
X190516580Y-76847625D01*
X190582026Y-76875144D01*
G37*
%TD.AperFunction*%
%TA.AperFunction,Conductor*%
G36*
X198543865Y-92066792D02*
G01*
X198602661Y-92106586D01*
X198630609Y-92171850D01*
X198631500Y-92186809D01*
X198631500Y-99583191D01*
X198611498Y-99651312D01*
X198557842Y-99697805D01*
X198487568Y-99707909D01*
X198472895Y-99704899D01*
X198348087Y-99671457D01*
X198120000Y-99651502D01*
X198114525Y-99651981D01*
X197957087Y-99665755D01*
X197887482Y-99651766D01*
X197857010Y-99629329D01*
X197665894Y-99438213D01*
X197631868Y-99375901D01*
X197628989Y-99349118D01*
X197628989Y-92192299D01*
X197648991Y-92124178D01*
X197702647Y-92077685D01*
X197772921Y-92067581D01*
X197787593Y-92070590D01*
X197891913Y-92098543D01*
X198120000Y-92118498D01*
X198348087Y-92098543D01*
X198472889Y-92065102D01*
X198543865Y-92066792D01*
G37*
%TD.AperFunction*%
%TA.AperFunction,Conductor*%
G36*
X202633621Y-32278502D02*
G01*
X202680114Y-32332158D01*
X202691500Y-32384500D01*
X202691500Y-84908006D01*
X202671498Y-84976127D01*
X202617842Y-85022620D01*
X202547568Y-85032724D01*
X202491439Y-85009942D01*
X202392094Y-84937763D01*
X202392093Y-84937762D01*
X202386752Y-84933882D01*
X202380724Y-84931198D01*
X202380722Y-84931197D01*
X202218319Y-84858891D01*
X202218318Y-84858891D01*
X202212288Y-84856206D01*
X202118888Y-84836353D01*
X202031944Y-84817872D01*
X202031939Y-84817872D01*
X202025487Y-84816500D01*
X201834513Y-84816500D01*
X201828061Y-84817872D01*
X201828056Y-84817872D01*
X201741112Y-84836353D01*
X201647712Y-84856206D01*
X201641685Y-84858889D01*
X201641677Y-84858892D01*
X201595748Y-84879341D01*
X201525381Y-84888775D01*
X201461084Y-84858668D01*
X201423271Y-84798579D01*
X201418500Y-84764234D01*
X201418500Y-77574493D01*
X201438502Y-77506372D01*
X201492158Y-77459879D01*
X201513763Y-77452457D01*
X201520316Y-77451745D01*
X201527711Y-77448973D01*
X201527714Y-77448972D01*
X201648297Y-77403767D01*
X201656705Y-77400615D01*
X201773261Y-77313261D01*
X201860615Y-77196705D01*
X201911745Y-77060316D01*
X201918500Y-76998134D01*
X201918500Y-75401866D01*
X201911745Y-75339684D01*
X201860615Y-75203295D01*
X201773261Y-75086739D01*
X201656705Y-74999385D01*
X201520316Y-74948255D01*
X201458134Y-74941500D01*
X199861866Y-74941500D01*
X199799684Y-74948255D01*
X199663295Y-74999385D01*
X199546739Y-75086739D01*
X199459385Y-75203295D01*
X199408255Y-75339684D01*
X199401500Y-75401866D01*
X199401500Y-76998134D01*
X199408255Y-77060316D01*
X199459385Y-77196705D01*
X199546739Y-77313261D01*
X199663295Y-77400615D01*
X199671703Y-77403767D01*
X199792286Y-77448972D01*
X199792289Y-77448973D01*
X199799684Y-77451745D01*
X199805453Y-77452372D01*
X199866291Y-77487126D01*
X199899113Y-77550081D01*
X199901500Y-77574493D01*
X199901500Y-82224234D01*
X199881498Y-82292355D01*
X199827842Y-82338848D01*
X199757568Y-82348952D01*
X199724252Y-82339341D01*
X199678323Y-82318892D01*
X199678315Y-82318889D01*
X199672288Y-82316206D01*
X199578888Y-82296353D01*
X199491944Y-82277872D01*
X199491939Y-82277872D01*
X199485487Y-82276500D01*
X199294513Y-82276500D01*
X199288061Y-82277872D01*
X199288056Y-82277872D01*
X199201112Y-82296353D01*
X199107712Y-82316206D01*
X199101682Y-82318891D01*
X199101681Y-82318891D01*
X198939278Y-82391197D01*
X198939276Y-82391198D01*
X198933248Y-82393882D01*
X198778747Y-82506134D01*
X198650960Y-82648056D01*
X198555473Y-82813444D01*
X198496458Y-82995072D01*
X198495768Y-83001633D01*
X198495768Y-83001635D01*
X198479173Y-83159525D01*
X198476496Y-83185000D01*
X198496458Y-83374928D01*
X198555473Y-83556556D01*
X198558776Y-83562278D01*
X198558777Y-83562279D01*
X198614619Y-83658999D01*
X198631500Y-83721999D01*
X198631500Y-89423191D01*
X198611498Y-89491312D01*
X198557842Y-89537805D01*
X198487568Y-89547909D01*
X198472895Y-89544899D01*
X198348087Y-89511457D01*
X198120000Y-89491502D01*
X197891913Y-89511457D01*
X197787599Y-89539408D01*
X197716624Y-89537718D01*
X197657828Y-89497924D01*
X197629880Y-89432660D01*
X197628989Y-89417701D01*
X197628989Y-81367559D01*
X197630422Y-81348609D01*
X197632588Y-81334374D01*
X197632588Y-81334370D01*
X197633688Y-81327140D01*
X197629404Y-81274471D01*
X197628989Y-81264256D01*
X197628989Y-81256196D01*
X197625698Y-81227969D01*
X197625267Y-81223610D01*
X197619942Y-81158149D01*
X197619349Y-81150853D01*
X197617094Y-81143892D01*
X197615907Y-81137952D01*
X197614518Y-81132077D01*
X197613671Y-81124808D01*
X197588753Y-81056159D01*
X197587336Y-81052031D01*
X197567096Y-80989553D01*
X197567095Y-80989551D01*
X197564840Y-80982590D01*
X197561044Y-80976335D01*
X197558538Y-80970861D01*
X197555819Y-80965431D01*
X197553322Y-80958552D01*
X197544287Y-80944771D01*
X197513303Y-80897513D01*
X197510956Y-80893794D01*
X197473084Y-80831382D01*
X197465686Y-80823005D01*
X197465713Y-80822981D01*
X197463060Y-80819989D01*
X197460357Y-80816756D01*
X197456345Y-80810637D01*
X197400106Y-80757361D01*
X197397664Y-80754983D01*
X194404909Y-77762228D01*
X194370883Y-77699916D01*
X194375948Y-77629101D01*
X194418495Y-77572265D01*
X194477994Y-77548154D01*
X194588288Y-77534025D01*
X194588289Y-77534025D01*
X194593416Y-77533368D01*
X194598366Y-77531883D01*
X194802429Y-77470661D01*
X194802434Y-77470659D01*
X194807384Y-77469174D01*
X195007994Y-77370896D01*
X195189860Y-77241173D01*
X195348096Y-77083489D01*
X195364748Y-77060316D01*
X195478453Y-76902077D01*
X195479776Y-76903028D01*
X195526645Y-76859857D01*
X195596580Y-76847625D01*
X195662026Y-76875144D01*
X195689875Y-76906994D01*
X195749987Y-77005088D01*
X195896250Y-77173938D01*
X196068126Y-77316632D01*
X196261000Y-77429338D01*
X196469692Y-77509030D01*
X196474760Y-77510061D01*
X196474763Y-77510062D01*
X196582017Y-77531883D01*
X196688597Y-77553567D01*
X196693772Y-77553757D01*
X196693774Y-77553757D01*
X196906673Y-77561564D01*
X196906677Y-77561564D01*
X196911837Y-77561753D01*
X196916957Y-77561097D01*
X196916959Y-77561097D01*
X197128288Y-77534025D01*
X197128289Y-77534025D01*
X197133416Y-77533368D01*
X197138366Y-77531883D01*
X197342429Y-77470661D01*
X197342434Y-77470659D01*
X197347384Y-77469174D01*
X197547994Y-77370896D01*
X197729860Y-77241173D01*
X197888096Y-77083489D01*
X197904748Y-77060316D01*
X198015435Y-76906277D01*
X198018453Y-76902077D01*
X198039320Y-76859857D01*
X198115136Y-76706453D01*
X198115137Y-76706451D01*
X198117430Y-76701811D01*
X198182370Y-76488069D01*
X198211529Y-76266590D01*
X198213156Y-76200000D01*
X198194852Y-75977361D01*
X198140431Y-75760702D01*
X198051354Y-75555840D01*
X198011906Y-75494862D01*
X197932822Y-75372617D01*
X197932820Y-75372614D01*
X197930014Y-75368277D01*
X197779670Y-75203051D01*
X197780986Y-75201854D01*
X197748781Y-75147473D01*
X197751372Y-75076524D01*
X197791911Y-75018239D01*
X197857525Y-74991123D01*
X197892317Y-74992311D01*
X197896913Y-74993543D01*
X198125000Y-75013498D01*
X198353087Y-74993543D01*
X198358400Y-74992119D01*
X198358402Y-74992119D01*
X198568933Y-74935707D01*
X198568935Y-74935706D01*
X198574243Y-74934284D01*
X198583430Y-74930000D01*
X198776762Y-74839849D01*
X198776767Y-74839846D01*
X198781749Y-74837523D01*
X198886611Y-74764098D01*
X198964789Y-74709357D01*
X198964792Y-74709355D01*
X198969300Y-74706198D01*
X199131198Y-74544300D01*
X199262523Y-74356749D01*
X199264846Y-74351767D01*
X199264849Y-74351762D01*
X199356961Y-74154225D01*
X199356961Y-74154224D01*
X199359284Y-74149243D01*
X199418543Y-73928087D01*
X199438498Y-73700000D01*
X199418543Y-73471913D01*
X199359284Y-73250757D01*
X199278837Y-73078236D01*
X199264849Y-73048238D01*
X199264846Y-73048233D01*
X199262523Y-73043251D01*
X199189098Y-72938389D01*
X199134357Y-72860211D01*
X199134355Y-72860208D01*
X199131198Y-72855700D01*
X198969300Y-72693802D01*
X198932229Y-72667844D01*
X198887901Y-72612389D01*
X198878500Y-72564632D01*
X198878500Y-72251867D01*
X198898502Y-72183746D01*
X198932228Y-72148655D01*
X198964300Y-72126198D01*
X199126198Y-71964300D01*
X199257523Y-71776749D01*
X199259846Y-71771767D01*
X199259849Y-71771762D01*
X199351961Y-71574225D01*
X199351961Y-71574224D01*
X199354284Y-71569243D01*
X199401583Y-71392724D01*
X199412119Y-71353402D01*
X199412119Y-71353400D01*
X199413543Y-71348087D01*
X199433498Y-71120000D01*
X199413543Y-70891913D01*
X199354284Y-70670757D01*
X199259966Y-70468489D01*
X199259849Y-70468238D01*
X199259846Y-70468233D01*
X199257523Y-70463251D01*
X199126198Y-70275700D01*
X198964300Y-70113802D01*
X198932229Y-70091345D01*
X198887901Y-70035890D01*
X198878500Y-69988133D01*
X198878500Y-69937559D01*
X198879933Y-69918609D01*
X198882099Y-69904374D01*
X198882099Y-69904370D01*
X198883199Y-69897140D01*
X198882193Y-69884764D01*
X198878915Y-69844471D01*
X198878500Y-69834256D01*
X198878500Y-69826196D01*
X198876204Y-69806502D01*
X198875211Y-69797982D01*
X198874778Y-69793607D01*
X198869454Y-69728150D01*
X198869453Y-69728147D01*
X198868860Y-69720852D01*
X198866604Y-69713888D01*
X198865413Y-69707929D01*
X198864029Y-69702074D01*
X198863182Y-69694808D01*
X198838265Y-69626162D01*
X198836848Y-69622034D01*
X198816607Y-69559553D01*
X198816606Y-69559551D01*
X198814351Y-69552590D01*
X198810555Y-69546335D01*
X198808049Y-69540861D01*
X198805330Y-69535431D01*
X198802833Y-69528552D01*
X198762814Y-69467513D01*
X198760467Y-69463794D01*
X198722595Y-69401382D01*
X198715197Y-69393005D01*
X198715224Y-69392981D01*
X198712571Y-69389989D01*
X198709868Y-69386756D01*
X198705856Y-69380637D01*
X198649617Y-69327361D01*
X198647175Y-69324983D01*
X197749636Y-68427444D01*
X197718898Y-68377285D01*
X197716396Y-68369583D01*
X197664038Y-68208444D01*
X197648905Y-68182232D01*
X197604892Y-68106001D01*
X197588011Y-68043001D01*
X197588011Y-64876319D01*
X197608013Y-64808198D01*
X197661669Y-64761705D01*
X197731943Y-64751601D01*
X197746617Y-64754611D01*
X197891913Y-64793543D01*
X198120000Y-64813498D01*
X198348087Y-64793543D01*
X198353400Y-64792119D01*
X198353402Y-64792119D01*
X198505404Y-64751390D01*
X198576380Y-64753080D01*
X198635176Y-64792874D01*
X198663600Y-64862882D01*
X198664327Y-64871824D01*
X198665544Y-64886782D01*
X198666629Y-64900126D01*
X198668885Y-64907090D01*
X198670076Y-64913049D01*
X198671460Y-64918904D01*
X198672307Y-64926170D01*
X198697224Y-64994816D01*
X198698641Y-64998944D01*
X198721138Y-65068388D01*
X198724934Y-65074643D01*
X198727440Y-65080117D01*
X198730159Y-65085547D01*
X198732656Y-65092426D01*
X198736669Y-65098546D01*
X198736669Y-65098547D01*
X198772675Y-65153465D01*
X198775012Y-65157169D01*
X198812894Y-65219596D01*
X198816610Y-65223804D01*
X198816611Y-65223805D01*
X198820292Y-65227973D01*
X198820265Y-65227997D01*
X198822918Y-65230989D01*
X198825621Y-65234222D01*
X198829633Y-65240341D01*
X198876348Y-65284595D01*
X198885872Y-65293617D01*
X198888314Y-65295995D01*
X199329329Y-65737010D01*
X199363355Y-65799322D01*
X199365755Y-65837087D01*
X199351502Y-66000000D01*
X199371457Y-66228087D01*
X199430716Y-66449243D01*
X199433039Y-66454224D01*
X199433039Y-66454225D01*
X199525151Y-66651762D01*
X199525154Y-66651767D01*
X199527477Y-66656749D01*
X199598948Y-66758820D01*
X199654741Y-66838500D01*
X199658802Y-66844300D01*
X199820700Y-67006198D01*
X199847771Y-67025154D01*
X199892099Y-67080609D01*
X199901500Y-67128366D01*
X199901500Y-67509198D01*
X199881498Y-67577319D01*
X199856496Y-67605716D01*
X199852471Y-67609094D01*
X199847962Y-67612251D01*
X199692251Y-67767962D01*
X199689094Y-67772470D01*
X199689092Y-67772473D01*
X199608815Y-67887121D01*
X199565944Y-67948347D01*
X199563621Y-67953329D01*
X199563618Y-67953334D01*
X199533623Y-68017659D01*
X199472880Y-68147924D01*
X199415885Y-68360629D01*
X199396693Y-68580000D01*
X199415885Y-68799371D01*
X199472880Y-69012076D01*
X199475205Y-69017061D01*
X199563618Y-69206666D01*
X199563621Y-69206671D01*
X199565944Y-69211653D01*
X199569100Y-69216160D01*
X199569101Y-69216162D01*
X199679483Y-69373803D01*
X199692251Y-69392038D01*
X199847962Y-69547749D01*
X199852471Y-69550906D01*
X199852473Y-69550908D01*
X199927241Y-69603261D01*
X200028346Y-69674056D01*
X200227924Y-69767120D01*
X200440629Y-69824115D01*
X200660000Y-69843307D01*
X200879371Y-69824115D01*
X201092076Y-69767120D01*
X201291654Y-69674056D01*
X201392759Y-69603261D01*
X201467527Y-69550908D01*
X201467529Y-69550906D01*
X201472038Y-69547749D01*
X201627749Y-69392038D01*
X201640518Y-69373803D01*
X201750899Y-69216162D01*
X201750900Y-69216160D01*
X201754056Y-69211653D01*
X201756379Y-69206671D01*
X201756382Y-69206666D01*
X201844795Y-69017061D01*
X201847120Y-69012076D01*
X201904115Y-68799371D01*
X201923307Y-68580000D01*
X201904115Y-68360629D01*
X201847120Y-68147924D01*
X201786377Y-68017659D01*
X201756382Y-67953334D01*
X201756379Y-67953329D01*
X201754056Y-67948347D01*
X201711185Y-67887121D01*
X201630908Y-67772473D01*
X201630906Y-67772470D01*
X201627749Y-67767962D01*
X201472038Y-67612251D01*
X201467529Y-67609094D01*
X201463504Y-67605716D01*
X201424181Y-67546605D01*
X201418500Y-67509198D01*
X201418500Y-67135368D01*
X201438502Y-67067247D01*
X201472228Y-67032156D01*
X201509300Y-67006198D01*
X201671198Y-66844300D01*
X201675260Y-66838500D01*
X201731052Y-66758820D01*
X201802523Y-66656749D01*
X201804846Y-66651767D01*
X201804849Y-66651762D01*
X201896961Y-66454225D01*
X201896961Y-66454224D01*
X201899284Y-66449243D01*
X201958543Y-66228087D01*
X201978498Y-66000000D01*
X201958543Y-65771913D01*
X201899284Y-65550757D01*
X201896961Y-65545775D01*
X201804849Y-65348238D01*
X201804846Y-65348233D01*
X201802523Y-65343251D01*
X201671198Y-65155700D01*
X201509300Y-64993802D01*
X201504792Y-64990645D01*
X201504789Y-64990643D01*
X201375517Y-64900126D01*
X201321749Y-64862477D01*
X201316767Y-64860154D01*
X201314973Y-64859118D01*
X201265981Y-64807734D01*
X201252546Y-64738021D01*
X201278934Y-64672110D01*
X201314973Y-64640882D01*
X201316767Y-64639846D01*
X201321749Y-64637523D01*
X201477231Y-64528653D01*
X201504789Y-64509357D01*
X201504792Y-64509355D01*
X201509300Y-64506198D01*
X201671198Y-64344300D01*
X201802523Y-64156749D01*
X201804846Y-64151767D01*
X201804849Y-64151762D01*
X201896961Y-63954225D01*
X201896961Y-63954224D01*
X201899284Y-63949243D01*
X201958543Y-63728087D01*
X201978498Y-63500000D01*
X201958543Y-63271913D01*
X201956959Y-63266002D01*
X201900707Y-63056067D01*
X201900706Y-63056065D01*
X201899284Y-63050757D01*
X201804966Y-62848489D01*
X201804849Y-62848238D01*
X201804846Y-62848233D01*
X201802523Y-62843251D01*
X201671198Y-62655700D01*
X201509300Y-62493802D01*
X201504792Y-62490645D01*
X201504789Y-62490643D01*
X201418500Y-62430223D01*
X201321749Y-62362477D01*
X201316767Y-62360154D01*
X201316762Y-62360151D01*
X201282543Y-62344195D01*
X201229258Y-62297278D01*
X201209797Y-62229001D01*
X201230339Y-62161041D01*
X201282543Y-62115805D01*
X201316762Y-62099849D01*
X201316767Y-62099846D01*
X201321749Y-62097523D01*
X201477231Y-61988653D01*
X201504789Y-61969357D01*
X201504792Y-61969355D01*
X201509300Y-61966198D01*
X201671198Y-61804300D01*
X201802523Y-61616749D01*
X201804846Y-61611767D01*
X201804849Y-61611762D01*
X201896961Y-61414225D01*
X201896961Y-61414224D01*
X201899284Y-61409243D01*
X201958543Y-61188087D01*
X201978498Y-60960000D01*
X201958543Y-60731913D01*
X201899284Y-60510757D01*
X201818305Y-60337095D01*
X201804849Y-60308238D01*
X201804846Y-60308233D01*
X201802523Y-60303251D01*
X201702364Y-60160209D01*
X201674357Y-60120211D01*
X201674355Y-60120208D01*
X201671198Y-60115700D01*
X201509300Y-59953802D01*
X201504792Y-59950645D01*
X201504789Y-59950643D01*
X201383383Y-59865634D01*
X201321749Y-59822477D01*
X201316767Y-59820154D01*
X201316762Y-59820151D01*
X201119225Y-59728039D01*
X201119224Y-59728039D01*
X201114243Y-59725716D01*
X201108935Y-59724294D01*
X201108933Y-59724293D01*
X200898402Y-59667881D01*
X200898400Y-59667881D01*
X200893087Y-59666457D01*
X200665000Y-59646502D01*
X200436913Y-59666457D01*
X200431600Y-59667881D01*
X200431598Y-59667881D01*
X200221067Y-59724293D01*
X200221065Y-59724294D01*
X200215757Y-59725716D01*
X200210776Y-59728039D01*
X200210775Y-59728039D01*
X200013238Y-59820151D01*
X200013233Y-59820154D01*
X200008251Y-59822477D01*
X199946617Y-59865634D01*
X199825211Y-59950643D01*
X199825208Y-59950645D01*
X199820700Y-59953802D01*
X199658802Y-60115700D01*
X199655645Y-60120208D01*
X199655643Y-60120211D01*
X199627636Y-60160209D01*
X199527477Y-60303251D01*
X199525154Y-60308233D01*
X199525151Y-60308238D01*
X199509195Y-60342457D01*
X199462278Y-60395742D01*
X199394001Y-60415203D01*
X199326041Y-60394661D01*
X199280805Y-60342457D01*
X199264849Y-60308238D01*
X199264846Y-60308233D01*
X199262523Y-60303251D01*
X199162364Y-60160209D01*
X199134357Y-60120211D01*
X199134355Y-60120208D01*
X199131198Y-60115700D01*
X198969300Y-59953802D01*
X198964792Y-59950645D01*
X198964789Y-59950643D01*
X198843383Y-59865634D01*
X198781749Y-59822477D01*
X198776767Y-59820154D01*
X198776762Y-59820151D01*
X198579225Y-59728039D01*
X198579224Y-59728039D01*
X198574243Y-59725716D01*
X198568935Y-59724294D01*
X198568933Y-59724293D01*
X198358402Y-59667881D01*
X198358400Y-59667881D01*
X198353087Y-59666457D01*
X198125000Y-59646502D01*
X197896913Y-59666457D01*
X197746621Y-59706728D01*
X197675646Y-59705038D01*
X197616850Y-59665244D01*
X197588902Y-59599980D01*
X197588011Y-59585021D01*
X197588011Y-52174979D01*
X197608013Y-52106858D01*
X197661669Y-52060365D01*
X197731943Y-52050261D01*
X197746613Y-52053270D01*
X197896913Y-52093543D01*
X198125000Y-52113498D01*
X198353087Y-52093543D01*
X198358400Y-52092119D01*
X198358402Y-52092119D01*
X198568933Y-52035707D01*
X198568935Y-52035706D01*
X198574243Y-52034284D01*
X198639023Y-52004077D01*
X198776762Y-51939849D01*
X198776767Y-51939846D01*
X198781749Y-51937523D01*
X198886611Y-51864098D01*
X198964789Y-51809357D01*
X198964792Y-51809355D01*
X198969300Y-51806198D01*
X199131198Y-51644300D01*
X199262523Y-51456749D01*
X199264846Y-51451767D01*
X199264849Y-51451762D01*
X199281081Y-51416951D01*
X199327998Y-51363666D01*
X199396275Y-51344205D01*
X199464235Y-51364747D01*
X199509471Y-51416951D01*
X199525586Y-51451511D01*
X199531069Y-51461007D01*
X199656028Y-51639467D01*
X199663084Y-51647875D01*
X199817125Y-51801916D01*
X199825533Y-51808972D01*
X200003993Y-51933931D01*
X200013489Y-51939414D01*
X200210947Y-52031490D01*
X200221239Y-52035236D01*
X200393503Y-52081394D01*
X200407599Y-52081058D01*
X200411000Y-52073116D01*
X200411000Y-52067967D01*
X200919000Y-52067967D01*
X200922973Y-52081498D01*
X200931522Y-52082727D01*
X201108761Y-52035236D01*
X201119053Y-52031490D01*
X201316511Y-51939414D01*
X201326007Y-51933931D01*
X201504467Y-51808972D01*
X201512875Y-51801916D01*
X201666916Y-51647875D01*
X201673972Y-51639467D01*
X201798931Y-51461007D01*
X201804414Y-51451511D01*
X201896490Y-51254053D01*
X201900236Y-51243761D01*
X201946394Y-51071497D01*
X201946058Y-51057401D01*
X201938116Y-51054000D01*
X200937115Y-51054000D01*
X200921876Y-51058475D01*
X200920671Y-51059865D01*
X200919000Y-51067548D01*
X200919000Y-52067967D01*
X200411000Y-52067967D01*
X200411000Y-50527885D01*
X200919000Y-50527885D01*
X200923475Y-50543124D01*
X200924865Y-50544329D01*
X200932548Y-50546000D01*
X201932967Y-50546000D01*
X201946498Y-50542027D01*
X201947727Y-50533478D01*
X201900236Y-50356239D01*
X201896490Y-50345947D01*
X201804414Y-50148489D01*
X201798931Y-50138993D01*
X201673972Y-49960533D01*
X201666916Y-49952125D01*
X201512875Y-49798084D01*
X201504467Y-49791028D01*
X201326007Y-49666069D01*
X201316511Y-49660586D01*
X201119053Y-49568510D01*
X201108761Y-49564764D01*
X200936497Y-49518606D01*
X200922401Y-49518942D01*
X200919000Y-49526884D01*
X200919000Y-50527885D01*
X200411000Y-50527885D01*
X200411000Y-49532033D01*
X200407027Y-49518502D01*
X200398478Y-49517273D01*
X200221239Y-49564764D01*
X200210947Y-49568510D01*
X200013489Y-49660586D01*
X200003993Y-49666069D01*
X199825533Y-49791028D01*
X199817125Y-49798084D01*
X199663084Y-49952125D01*
X199656028Y-49960533D01*
X199531069Y-50138993D01*
X199525586Y-50148489D01*
X199509471Y-50183049D01*
X199462554Y-50236334D01*
X199394277Y-50255795D01*
X199326317Y-50235253D01*
X199281081Y-50183049D01*
X199264849Y-50148238D01*
X199264846Y-50148233D01*
X199262523Y-50143251D01*
X199131198Y-49955700D01*
X198969300Y-49793802D01*
X198964792Y-49790645D01*
X198964789Y-49790643D01*
X198858030Y-49715890D01*
X198781749Y-49662477D01*
X198776767Y-49660154D01*
X198776762Y-49660151D01*
X198579225Y-49568039D01*
X198579224Y-49568039D01*
X198574243Y-49565716D01*
X198568935Y-49564294D01*
X198568933Y-49564293D01*
X198358402Y-49507881D01*
X198358400Y-49507881D01*
X198353087Y-49506457D01*
X198125000Y-49486502D01*
X198119525Y-49486981D01*
X197962087Y-49500755D01*
X197892482Y-49486766D01*
X197862010Y-49464329D01*
X197459259Y-49061578D01*
X197446873Y-49047166D01*
X197438340Y-49035571D01*
X197438335Y-49035566D01*
X197433997Y-49029671D01*
X197428419Y-49024932D01*
X197428416Y-49024929D01*
X197393721Y-48995454D01*
X197386205Y-48988524D01*
X197380510Y-48982829D01*
X197374369Y-48977971D01*
X197358238Y-48965208D01*
X197354834Y-48962417D01*
X197304786Y-48919898D01*
X197304784Y-48919897D01*
X197299204Y-48915156D01*
X197292688Y-48911828D01*
X197287639Y-48908461D01*
X197282510Y-48905294D01*
X197276773Y-48900755D01*
X197210614Y-48869834D01*
X197206714Y-48867928D01*
X197141681Y-48834720D01*
X197134573Y-48832981D01*
X197128930Y-48830882D01*
X197123167Y-48828965D01*
X197116539Y-48825867D01*
X197045072Y-48811002D01*
X197040788Y-48810032D01*
X197006447Y-48801629D01*
X196969879Y-48792681D01*
X196964277Y-48792333D01*
X196964274Y-48792333D01*
X196958725Y-48791989D01*
X196958727Y-48791953D01*
X196954734Y-48791714D01*
X196950542Y-48791340D01*
X196943374Y-48789849D01*
X196879609Y-48791574D01*
X196865968Y-48791943D01*
X196862561Y-48791989D01*
X194356574Y-48791989D01*
X194337625Y-48790556D01*
X194337418Y-48790525D01*
X194316162Y-48787291D01*
X194308870Y-48787884D01*
X194308867Y-48787884D01*
X194263502Y-48791574D01*
X194253288Y-48791989D01*
X194245218Y-48791989D01*
X194241598Y-48792411D01*
X194241580Y-48792412D01*
X194216972Y-48795281D01*
X194212611Y-48795713D01*
X194187492Y-48797756D01*
X194147172Y-48801035D01*
X194147169Y-48801036D01*
X194139874Y-48801629D01*
X194132910Y-48803885D01*
X194126951Y-48805076D01*
X194121096Y-48806460D01*
X194113830Y-48807307D01*
X194045184Y-48832224D01*
X194041056Y-48833641D01*
X193978575Y-48853882D01*
X193978573Y-48853883D01*
X193971612Y-48856138D01*
X193965357Y-48859934D01*
X193959883Y-48862440D01*
X193954453Y-48865159D01*
X193947574Y-48867656D01*
X193886527Y-48907680D01*
X193882838Y-48910007D01*
X193874354Y-48915156D01*
X193825204Y-48944980D01*
X193825199Y-48944984D01*
X193820403Y-48947894D01*
X193812027Y-48955292D01*
X193812004Y-48955266D01*
X193809014Y-48957915D01*
X193805775Y-48960623D01*
X193799659Y-48964633D01*
X193794632Y-48969940D01*
X193794628Y-48969943D01*
X193746383Y-49020872D01*
X193744005Y-49023314D01*
X193302990Y-49464329D01*
X193240678Y-49498355D01*
X193202913Y-49500755D01*
X193045475Y-49486981D01*
X193040000Y-49486502D01*
X192811913Y-49506457D01*
X192806600Y-49507881D01*
X192806598Y-49507881D01*
X192596067Y-49564293D01*
X192596065Y-49564294D01*
X192590757Y-49565716D01*
X192585776Y-49568039D01*
X192585775Y-49568039D01*
X192388238Y-49660151D01*
X192388233Y-49660154D01*
X192383251Y-49662477D01*
X192306970Y-49715890D01*
X192200211Y-49790643D01*
X192200208Y-49790645D01*
X192195700Y-49793802D01*
X192033802Y-49955700D01*
X191902477Y-50143251D01*
X191900154Y-50148233D01*
X191900151Y-50148238D01*
X191900034Y-50148489D01*
X191805716Y-50350757D01*
X191746457Y-50571913D01*
X191726502Y-50800000D01*
X191746457Y-51028087D01*
X191747881Y-51033400D01*
X191747881Y-51033402D01*
X191757031Y-51067548D01*
X191805716Y-51249243D01*
X191808039Y-51254224D01*
X191808039Y-51254225D01*
X191900151Y-51451762D01*
X191900154Y-51451767D01*
X191902477Y-51456749D01*
X192033802Y-51644300D01*
X192195700Y-51806198D01*
X192200208Y-51809355D01*
X192200211Y-51809357D01*
X192278389Y-51864098D01*
X192383251Y-51937523D01*
X192388233Y-51939846D01*
X192388238Y-51939849D01*
X192525977Y-52004077D01*
X192590757Y-52034284D01*
X192596065Y-52035706D01*
X192596067Y-52035707D01*
X192806598Y-52092119D01*
X192806600Y-52092119D01*
X192811913Y-52093543D01*
X193040000Y-52113498D01*
X193045475Y-52113019D01*
X193202913Y-52099245D01*
X193272518Y-52113234D01*
X193302990Y-52135671D01*
X193514595Y-52347276D01*
X193548621Y-52409588D01*
X193551500Y-52436371D01*
X193551500Y-59578191D01*
X193531498Y-59646312D01*
X193477842Y-59692805D01*
X193407568Y-59702909D01*
X193392895Y-59699899D01*
X193268087Y-59666457D01*
X193040000Y-59646502D01*
X192811913Y-59666457D01*
X192806600Y-59667881D01*
X192806598Y-59667881D01*
X192596067Y-59724293D01*
X192596065Y-59724294D01*
X192590757Y-59725716D01*
X192585776Y-59728039D01*
X192585775Y-59728039D01*
X192388238Y-59820151D01*
X192388233Y-59820154D01*
X192383251Y-59822477D01*
X192321617Y-59865634D01*
X192200211Y-59950643D01*
X192200208Y-59950645D01*
X192195700Y-59953802D01*
X192033802Y-60115700D01*
X192030645Y-60120208D01*
X192030643Y-60120211D01*
X192002636Y-60160209D01*
X191902477Y-60303251D01*
X191900153Y-60308236D01*
X191900149Y-60308242D01*
X191886695Y-60337095D01*
X191839778Y-60390381D01*
X191771501Y-60409842D01*
X191703541Y-60389300D01*
X191658305Y-60337095D01*
X191644851Y-60308242D01*
X191644847Y-60308236D01*
X191642523Y-60303251D01*
X191542364Y-60160209D01*
X191514357Y-60120211D01*
X191514355Y-60120208D01*
X191511198Y-60115700D01*
X191349300Y-59953802D01*
X191344792Y-59950645D01*
X191344789Y-59950643D01*
X191215553Y-59860151D01*
X191161749Y-59822477D01*
X191156765Y-59820153D01*
X191154472Y-59818829D01*
X191105479Y-59767447D01*
X191092043Y-59697733D01*
X191118429Y-59631822D01*
X191154472Y-59600591D01*
X191166002Y-59593934D01*
X191218048Y-59557491D01*
X191226424Y-59547012D01*
X191219356Y-59533566D01*
X190517812Y-58832022D01*
X190503868Y-58824408D01*
X190502035Y-58824539D01*
X190495420Y-58828790D01*
X189789923Y-59534287D01*
X189783493Y-59546062D01*
X189792789Y-59558077D01*
X189843998Y-59593934D01*
X189855528Y-59600591D01*
X189904521Y-59651973D01*
X189917958Y-59721687D01*
X189891571Y-59787598D01*
X189855528Y-59818829D01*
X189853235Y-59820153D01*
X189848251Y-59822477D01*
X189794447Y-59860151D01*
X189665211Y-59950643D01*
X189665208Y-59950645D01*
X189660700Y-59953802D01*
X189498802Y-60115700D01*
X189495645Y-60120208D01*
X189495643Y-60120211D01*
X189467636Y-60160209D01*
X189367477Y-60303251D01*
X189365154Y-60308233D01*
X189365151Y-60308238D01*
X189349195Y-60342457D01*
X189302278Y-60395742D01*
X189234001Y-60415203D01*
X189166041Y-60394661D01*
X189120805Y-60342457D01*
X189104849Y-60308238D01*
X189104846Y-60308233D01*
X189102523Y-60303251D01*
X189002364Y-60160209D01*
X188974357Y-60120211D01*
X188974355Y-60120208D01*
X188971198Y-60115700D01*
X188809300Y-59953802D01*
X188804792Y-59950645D01*
X188804789Y-59950643D01*
X188683383Y-59865634D01*
X188621749Y-59822477D01*
X188616767Y-59820154D01*
X188616762Y-59820151D01*
X188419225Y-59728039D01*
X188419224Y-59728039D01*
X188414243Y-59725716D01*
X188408935Y-59724294D01*
X188408933Y-59724293D01*
X188198402Y-59667881D01*
X188198400Y-59667881D01*
X188193087Y-59666457D01*
X187965000Y-59646502D01*
X187736913Y-59666457D01*
X187731600Y-59667881D01*
X187731598Y-59667881D01*
X187521067Y-59724293D01*
X187521065Y-59724294D01*
X187515757Y-59725716D01*
X187510776Y-59728039D01*
X187510775Y-59728039D01*
X187313238Y-59820151D01*
X187313233Y-59820154D01*
X187308251Y-59822477D01*
X187246617Y-59865634D01*
X187125211Y-59950643D01*
X187125208Y-59950645D01*
X187120700Y-59953802D01*
X186958802Y-60115700D01*
X186936345Y-60147771D01*
X186880890Y-60192099D01*
X186833133Y-60201500D01*
X186551867Y-60201500D01*
X186483746Y-60181498D01*
X186448655Y-60147772D01*
X186426198Y-60115700D01*
X186264300Y-59953802D01*
X186259792Y-59950645D01*
X186259789Y-59950643D01*
X186138383Y-59865634D01*
X186076749Y-59822477D01*
X186071767Y-59820154D01*
X186071762Y-59820151D01*
X185874225Y-59728039D01*
X185874224Y-59728039D01*
X185869243Y-59725716D01*
X185863935Y-59724294D01*
X185863933Y-59724293D01*
X185653402Y-59667881D01*
X185653400Y-59667881D01*
X185648087Y-59666457D01*
X185420000Y-59646502D01*
X185191913Y-59666457D01*
X185087599Y-59694408D01*
X185016624Y-59692718D01*
X184957828Y-59652924D01*
X184929880Y-59587660D01*
X184928989Y-59572701D01*
X184928989Y-58465475D01*
X189192483Y-58465475D01*
X189211472Y-58682519D01*
X189213375Y-58693312D01*
X189269764Y-58903761D01*
X189273510Y-58914053D01*
X189365586Y-59111511D01*
X189371069Y-59121006D01*
X189407509Y-59173048D01*
X189417988Y-59181424D01*
X189431434Y-59174356D01*
X190132978Y-58472812D01*
X190139356Y-58461132D01*
X190869408Y-58461132D01*
X190869539Y-58462965D01*
X190873790Y-58469580D01*
X191579287Y-59175077D01*
X191591062Y-59181507D01*
X191603077Y-59172211D01*
X191638931Y-59121006D01*
X191644414Y-59111511D01*
X191736490Y-58914053D01*
X191740236Y-58903761D01*
X191796625Y-58693312D01*
X191798528Y-58682519D01*
X191817517Y-58465475D01*
X191817517Y-58454525D01*
X191798528Y-58237481D01*
X191796625Y-58226688D01*
X191740236Y-58016239D01*
X191736490Y-58005947D01*
X191644414Y-57808489D01*
X191638931Y-57798994D01*
X191602491Y-57746952D01*
X191592012Y-57738576D01*
X191578566Y-57745644D01*
X190877022Y-58447188D01*
X190869408Y-58461132D01*
X190139356Y-58461132D01*
X190140592Y-58458868D01*
X190140461Y-58457035D01*
X190136210Y-58450420D01*
X189430713Y-57744923D01*
X189418938Y-57738493D01*
X189406923Y-57747789D01*
X189371069Y-57798994D01*
X189365586Y-57808489D01*
X189273510Y-58005947D01*
X189269764Y-58016239D01*
X189213375Y-58226688D01*
X189211472Y-58237481D01*
X189192483Y-58454525D01*
X189192483Y-58465475D01*
X184928989Y-58465475D01*
X184928989Y-57372988D01*
X189783576Y-57372988D01*
X189790644Y-57386434D01*
X190492188Y-58087978D01*
X190506132Y-58095592D01*
X190507965Y-58095461D01*
X190514580Y-58091210D01*
X191220077Y-57385713D01*
X191226507Y-57373938D01*
X191217211Y-57361923D01*
X191166006Y-57326069D01*
X191156511Y-57320586D01*
X190959053Y-57228510D01*
X190948761Y-57224764D01*
X190738312Y-57168375D01*
X190727519Y-57166472D01*
X190510475Y-57147483D01*
X190499525Y-57147483D01*
X190282481Y-57166472D01*
X190271688Y-57168375D01*
X190061239Y-57224764D01*
X190050947Y-57228510D01*
X189853489Y-57320586D01*
X189843994Y-57326069D01*
X189791952Y-57362509D01*
X189783576Y-57372988D01*
X184928989Y-57372988D01*
X184928989Y-52187299D01*
X184948991Y-52119178D01*
X185002647Y-52072685D01*
X185072921Y-52062581D01*
X185087593Y-52065590D01*
X185191913Y-52093543D01*
X185420000Y-52113498D01*
X185648087Y-52093543D01*
X185653400Y-52092119D01*
X185653402Y-52092119D01*
X185863933Y-52035707D01*
X185863935Y-52035706D01*
X185869243Y-52034284D01*
X185934023Y-52004077D01*
X186071762Y-51939849D01*
X186071767Y-51939846D01*
X186076749Y-51937523D01*
X186181611Y-51864098D01*
X186259789Y-51809357D01*
X186259792Y-51809355D01*
X186264300Y-51806198D01*
X186426198Y-51644300D01*
X186557523Y-51456749D01*
X186559846Y-51451767D01*
X186559849Y-51451762D01*
X186578305Y-51412182D01*
X186625222Y-51358897D01*
X186693500Y-51339436D01*
X186761460Y-51359978D01*
X186806695Y-51412182D01*
X186825151Y-51451762D01*
X186825154Y-51451767D01*
X186827477Y-51456749D01*
X186958802Y-51644300D01*
X187120700Y-51806198D01*
X187125208Y-51809355D01*
X187125211Y-51809357D01*
X187203389Y-51864098D01*
X187308251Y-51937523D01*
X187313233Y-51939846D01*
X187313238Y-51939849D01*
X187450977Y-52004077D01*
X187515757Y-52034284D01*
X187521065Y-52035706D01*
X187521067Y-52035707D01*
X187731598Y-52092119D01*
X187731600Y-52092119D01*
X187736913Y-52093543D01*
X187965000Y-52113498D01*
X188193087Y-52093543D01*
X188198400Y-52092119D01*
X188198402Y-52092119D01*
X188408933Y-52035707D01*
X188408935Y-52035706D01*
X188414243Y-52034284D01*
X188479023Y-52004077D01*
X188616762Y-51939849D01*
X188616767Y-51939846D01*
X188621749Y-51937523D01*
X188726611Y-51864098D01*
X188804789Y-51809357D01*
X188804792Y-51809355D01*
X188809300Y-51806198D01*
X188971198Y-51644300D01*
X189102523Y-51456749D01*
X189104846Y-51451767D01*
X189104849Y-51451762D01*
X189196961Y-51254225D01*
X189196961Y-51254224D01*
X189199284Y-51249243D01*
X189247970Y-51067548D01*
X189257119Y-51033402D01*
X189257119Y-51033400D01*
X189258543Y-51028087D01*
X189278498Y-50800000D01*
X189258543Y-50571913D01*
X189199284Y-50350757D01*
X189104966Y-50148489D01*
X189104849Y-50148238D01*
X189104846Y-50148233D01*
X189102523Y-50143251D01*
X188971198Y-49955700D01*
X188809300Y-49793802D01*
X188777229Y-49771345D01*
X188732901Y-49715890D01*
X188723500Y-49668133D01*
X188723500Y-42507632D01*
X188743502Y-42439511D01*
X188776331Y-42405054D01*
X188844860Y-42356173D01*
X189003096Y-42198489D01*
X189133453Y-42017077D01*
X189154320Y-41974857D01*
X189230136Y-41821453D01*
X189230137Y-41821451D01*
X189232430Y-41816811D01*
X189297370Y-41603069D01*
X189326529Y-41381590D01*
X189327882Y-41326221D01*
X189328074Y-41318365D01*
X189328074Y-41318361D01*
X189328156Y-41315000D01*
X189309852Y-41092361D01*
X189255431Y-40875702D01*
X189166354Y-40670840D01*
X189045014Y-40483277D01*
X188894670Y-40318051D01*
X188890619Y-40314852D01*
X188890615Y-40314848D01*
X188723414Y-40182800D01*
X188723410Y-40182798D01*
X188719359Y-40179598D01*
X188523789Y-40071638D01*
X188518920Y-40069914D01*
X188518916Y-40069912D01*
X188318087Y-39998795D01*
X188318083Y-39998794D01*
X188313212Y-39997069D01*
X188308119Y-39996162D01*
X188308116Y-39996161D01*
X188098373Y-39958800D01*
X188098367Y-39958799D01*
X188093284Y-39957894D01*
X188019452Y-39956992D01*
X187875081Y-39955228D01*
X187875079Y-39955228D01*
X187869911Y-39955165D01*
X187649091Y-39988955D01*
X187436756Y-40058357D01*
X187238607Y-40161507D01*
X187234474Y-40164610D01*
X187234471Y-40164612D01*
X187210247Y-40182800D01*
X187059965Y-40295635D01*
X186905629Y-40457138D01*
X186798201Y-40614621D01*
X186743293Y-40659621D01*
X186672768Y-40667792D01*
X186609021Y-40636538D01*
X186588324Y-40612054D01*
X186507822Y-40487617D01*
X186507820Y-40487614D01*
X186505014Y-40483277D01*
X186354670Y-40318051D01*
X186350619Y-40314852D01*
X186350615Y-40314848D01*
X186183414Y-40182800D01*
X186183410Y-40182798D01*
X186179359Y-40179598D01*
X186138053Y-40156796D01*
X186088084Y-40106364D01*
X186073312Y-40036921D01*
X186098428Y-39970516D01*
X186125780Y-39943909D01*
X186169603Y-39912650D01*
X186304860Y-39816173D01*
X186463096Y-39658489D01*
X186593453Y-39477077D01*
X186692430Y-39276811D01*
X186757370Y-39063069D01*
X186786529Y-38841590D01*
X186788156Y-38775000D01*
X186769852Y-38552361D01*
X186715431Y-38335702D01*
X186626354Y-38130840D01*
X186505014Y-37943277D01*
X186354670Y-37778051D01*
X186350619Y-37774852D01*
X186350615Y-37774848D01*
X186183414Y-37642800D01*
X186183410Y-37642798D01*
X186179359Y-37639598D01*
X185983789Y-37531638D01*
X185978920Y-37529914D01*
X185978916Y-37529912D01*
X185778087Y-37458795D01*
X185778083Y-37458794D01*
X185773212Y-37457069D01*
X185768119Y-37456162D01*
X185768116Y-37456161D01*
X185558373Y-37418800D01*
X185558367Y-37418799D01*
X185553284Y-37417894D01*
X185479452Y-37416992D01*
X185335081Y-37415228D01*
X185335079Y-37415228D01*
X185329911Y-37415165D01*
X185109091Y-37448955D01*
X184896756Y-37518357D01*
X184698607Y-37621507D01*
X184694474Y-37624610D01*
X184694471Y-37624612D01*
X184670247Y-37642800D01*
X184519965Y-37755635D01*
X184365629Y-37917138D01*
X184239743Y-38101680D01*
X184145688Y-38304305D01*
X184085989Y-38519570D01*
X184062251Y-38741695D01*
X184075110Y-38964715D01*
X184076247Y-38969760D01*
X184076966Y-38974877D01*
X184075518Y-38975081D01*
X184071398Y-39039274D01*
X184042119Y-39085200D01*
X182396089Y-40731230D01*
X182381677Y-40743616D01*
X182370082Y-40752149D01*
X182370077Y-40752154D01*
X182364182Y-40756492D01*
X182359443Y-40762070D01*
X182359440Y-40762073D01*
X182329965Y-40796768D01*
X182323035Y-40804284D01*
X182317340Y-40809979D01*
X182315060Y-40812861D01*
X182299719Y-40832251D01*
X182296928Y-40835655D01*
X182254409Y-40885703D01*
X182249667Y-40891285D01*
X182246339Y-40897801D01*
X182242972Y-40902850D01*
X182239805Y-40907979D01*
X182235266Y-40913716D01*
X182204345Y-40979875D01*
X182202442Y-40983769D01*
X182169231Y-41048808D01*
X182167492Y-41055916D01*
X182165393Y-41061559D01*
X182163476Y-41067322D01*
X182160378Y-41073950D01*
X182158888Y-41081112D01*
X182158888Y-41081113D01*
X182145514Y-41145412D01*
X182144544Y-41149696D01*
X182127192Y-41220610D01*
X182126500Y-41231764D01*
X182126464Y-41231762D01*
X182126225Y-41235755D01*
X182125851Y-41239947D01*
X182124360Y-41247115D01*
X182126106Y-41311646D01*
X182126454Y-41324521D01*
X182126500Y-41327928D01*
X182126500Y-49664632D01*
X182106498Y-49732753D01*
X182072772Y-49767844D01*
X182035700Y-49793802D01*
X181873802Y-49955700D01*
X181742477Y-50143251D01*
X181740154Y-50148233D01*
X181740151Y-50148238D01*
X181740034Y-50148489D01*
X181645716Y-50350757D01*
X181586457Y-50571913D01*
X181566502Y-50800000D01*
X181586457Y-51028087D01*
X181587881Y-51033400D01*
X181587881Y-51033402D01*
X181597031Y-51067548D01*
X181645716Y-51249243D01*
X181648039Y-51254224D01*
X181648039Y-51254225D01*
X181740151Y-51451762D01*
X181740154Y-51451767D01*
X181742477Y-51456749D01*
X181873802Y-51644300D01*
X182035700Y-51806198D01*
X182040208Y-51809355D01*
X182040211Y-51809357D01*
X182118389Y-51864098D01*
X182223251Y-51937523D01*
X182228233Y-51939846D01*
X182228238Y-51939849D01*
X182365977Y-52004077D01*
X182430757Y-52034284D01*
X182436065Y-52035706D01*
X182436067Y-52035707D01*
X182646598Y-52092119D01*
X182646600Y-52092119D01*
X182651913Y-52093543D01*
X182880000Y-52113498D01*
X183108087Y-52093543D01*
X183253378Y-52054612D01*
X183324354Y-52056302D01*
X183383150Y-52096096D01*
X183411098Y-52161360D01*
X183411989Y-52176319D01*
X183411989Y-59583681D01*
X183391987Y-59651802D01*
X183338331Y-59698295D01*
X183268057Y-59708399D01*
X183253383Y-59705389D01*
X183108087Y-59666457D01*
X182880000Y-59646502D01*
X182651913Y-59666457D01*
X182646600Y-59667881D01*
X182646598Y-59667881D01*
X182436067Y-59724293D01*
X182436065Y-59724294D01*
X182430757Y-59725716D01*
X182425776Y-59728039D01*
X182425775Y-59728039D01*
X182228238Y-59820151D01*
X182228233Y-59820154D01*
X182223251Y-59822477D01*
X182161617Y-59865634D01*
X182040211Y-59950643D01*
X182040208Y-59950645D01*
X182035700Y-59953802D01*
X181873802Y-60115700D01*
X181870645Y-60120208D01*
X181870643Y-60120211D01*
X181823337Y-60187771D01*
X181767880Y-60232099D01*
X181720124Y-60241500D01*
X181476867Y-60241500D01*
X181408746Y-60221498D01*
X181373654Y-60187771D01*
X181351198Y-60155700D01*
X181189300Y-59993802D01*
X181184792Y-59990645D01*
X181184789Y-59990643D01*
X181106611Y-59935902D01*
X181001749Y-59862477D01*
X180996767Y-59860154D01*
X180996762Y-59860151D01*
X180799225Y-59768039D01*
X180799224Y-59768039D01*
X180794243Y-59765716D01*
X180788935Y-59764294D01*
X180788933Y-59764293D01*
X180578402Y-59707881D01*
X180578400Y-59707881D01*
X180573087Y-59706457D01*
X180345000Y-59686502D01*
X180116913Y-59706457D01*
X180111602Y-59707880D01*
X180111591Y-59707882D01*
X180007601Y-59735747D01*
X179936624Y-59734058D01*
X179877828Y-59694265D01*
X179849880Y-59629000D01*
X179848989Y-59614041D01*
X179848989Y-59557541D01*
X179862723Y-59500338D01*
X179867186Y-59491579D01*
X179870333Y-59485782D01*
X179901223Y-59432279D01*
X179901224Y-59432278D01*
X179904527Y-59426556D01*
X179908875Y-59413173D01*
X179916441Y-59394907D01*
X179919832Y-59388252D01*
X179922829Y-59382370D01*
X179940529Y-59316315D01*
X179942402Y-59309991D01*
X179961500Y-59251212D01*
X179963542Y-59244928D01*
X179964232Y-59238362D01*
X179964233Y-59238357D01*
X179965012Y-59230939D01*
X179968617Y-59211488D01*
X179970547Y-59204285D01*
X179972257Y-59197904D01*
X179973117Y-59181507D01*
X179975836Y-59129615D01*
X179976353Y-59123040D01*
X179982814Y-59061566D01*
X179982814Y-59061565D01*
X179983504Y-59055000D01*
X179982033Y-59041001D01*
X179981516Y-59021241D01*
X179981907Y-59013784D01*
X179981907Y-59013780D01*
X179982252Y-59007191D01*
X179971550Y-58939619D01*
X179970692Y-58933102D01*
X179964232Y-58871637D01*
X179963542Y-58865072D01*
X179959195Y-58851693D01*
X179954578Y-58832464D01*
X179953410Y-58825091D01*
X179952377Y-58818568D01*
X179927861Y-58754701D01*
X179925664Y-58748497D01*
X179906566Y-58689720D01*
X179904527Y-58683444D01*
X179897493Y-58671261D01*
X179888981Y-58653414D01*
X179886307Y-58646448D01*
X179886304Y-58646443D01*
X179883938Y-58640278D01*
X179846679Y-58582904D01*
X179843233Y-58577280D01*
X179812343Y-58523777D01*
X179809040Y-58518056D01*
X179799628Y-58507603D01*
X179787592Y-58491917D01*
X179783524Y-58485653D01*
X179783522Y-58485651D01*
X179779926Y-58480113D01*
X179731557Y-58431744D01*
X179727016Y-58426959D01*
X179685673Y-58381043D01*
X179681253Y-58376134D01*
X179669865Y-58367860D01*
X179654832Y-58355019D01*
X179644887Y-58345074D01*
X179630813Y-58335934D01*
X179587525Y-58307822D01*
X179582090Y-58304087D01*
X179532092Y-58267762D01*
X179526752Y-58263882D01*
X179520722Y-58261197D01*
X179520718Y-58261195D01*
X179513894Y-58258157D01*
X179496520Y-58248724D01*
X179484722Y-58241062D01*
X179478561Y-58238697D01*
X179478557Y-58238695D01*
X179420867Y-58216550D01*
X179414794Y-58214035D01*
X179352288Y-58186206D01*
X179345834Y-58184834D01*
X179345830Y-58184833D01*
X179338527Y-58183281D01*
X179319568Y-58177666D01*
X179306432Y-58172623D01*
X179281993Y-58168752D01*
X179238883Y-58161924D01*
X179232399Y-58160722D01*
X179171946Y-58147873D01*
X179171947Y-58147873D01*
X179165487Y-58146500D01*
X179151416Y-58146500D01*
X179131707Y-58144949D01*
X179117809Y-58142748D01*
X179111222Y-58143093D01*
X179111217Y-58143093D01*
X179049519Y-58146327D01*
X179042925Y-58146500D01*
X178974513Y-58146500D01*
X178968053Y-58147873D01*
X178968046Y-58147874D01*
X178960747Y-58149426D01*
X178941142Y-58152007D01*
X178940471Y-58152042D01*
X178927096Y-58152743D01*
X178920721Y-58154451D01*
X178920716Y-58154452D01*
X178861034Y-58170444D01*
X178854626Y-58171983D01*
X178787712Y-58186206D01*
X178781677Y-58188893D01*
X178774853Y-58191931D01*
X178756221Y-58198529D01*
X178749008Y-58200462D01*
X178742630Y-58202171D01*
X178736751Y-58205166D01*
X178736747Y-58205168D01*
X178681704Y-58233214D01*
X178675751Y-58236054D01*
X178619278Y-58261197D01*
X178619276Y-58261198D01*
X178613248Y-58263882D01*
X178607910Y-58267760D01*
X178607907Y-58267762D01*
X178601864Y-58272153D01*
X178585007Y-58282483D01*
X178572470Y-58288871D01*
X178567338Y-58293027D01*
X178567333Y-58293030D01*
X178519309Y-58331919D01*
X178514077Y-58335934D01*
X178508562Y-58339941D01*
X178441695Y-58363800D01*
X178372543Y-58347721D01*
X178323062Y-58296808D01*
X178308500Y-58238006D01*
X178308500Y-32384500D01*
X178328502Y-32316379D01*
X178382158Y-32269886D01*
X178434500Y-32258500D01*
X202565500Y-32258500D01*
X202633621Y-32278502D01*
G37*
%TD.AperFunction*%
%TA.AperFunction,Conductor*%
G36*
X185843865Y-64761792D02*
G01*
X185902661Y-64801586D01*
X185930609Y-64866850D01*
X185931500Y-64881809D01*
X185931500Y-67819000D01*
X185911498Y-67887121D01*
X185857842Y-67933614D01*
X185805500Y-67945000D01*
X184875297Y-67945000D01*
X184807176Y-67924998D01*
X184781661Y-67903311D01*
X184761253Y-67880645D01*
X184676407Y-67819000D01*
X184612094Y-67772274D01*
X184612093Y-67772273D01*
X184606752Y-67768393D01*
X184600724Y-67765709D01*
X184600722Y-67765708D01*
X184438319Y-67693402D01*
X184438318Y-67693402D01*
X184432288Y-67690717D01*
X184338887Y-67670864D01*
X184251944Y-67652383D01*
X184251939Y-67652383D01*
X184245487Y-67651011D01*
X184054513Y-67651011D01*
X184048061Y-67652383D01*
X184048056Y-67652383D01*
X183961113Y-67670864D01*
X183867712Y-67690717D01*
X183861682Y-67693402D01*
X183861681Y-67693402D01*
X183699278Y-67765708D01*
X183699276Y-67765709D01*
X183693248Y-67768393D01*
X183538747Y-67880645D01*
X183534329Y-67885552D01*
X183534325Y-67885556D01*
X183473298Y-67953334D01*
X183410960Y-68022567D01*
X183315473Y-68187955D01*
X183256458Y-68369583D01*
X183255768Y-68376144D01*
X183255768Y-68376146D01*
X183237186Y-68552946D01*
X183236496Y-68559511D01*
X183256458Y-68749439D01*
X183315473Y-68931067D01*
X183318776Y-68936789D01*
X183318777Y-68936790D01*
X183344447Y-68981251D01*
X183359178Y-69006765D01*
X183374619Y-69033510D01*
X183391500Y-69096510D01*
X183391500Y-69685500D01*
X183371498Y-69753621D01*
X183317842Y-69800114D01*
X183265500Y-69811500D01*
X182031866Y-69811500D01*
X181969684Y-69818255D01*
X181833295Y-69869385D01*
X181716739Y-69956739D01*
X181629385Y-70073295D01*
X181578255Y-70209684D01*
X181571500Y-70271866D01*
X181571500Y-71303629D01*
X181551498Y-71371750D01*
X181534595Y-71392724D01*
X180064084Y-72863235D01*
X180001772Y-72897261D01*
X179930957Y-72892196D01*
X179874121Y-72849649D01*
X179849310Y-72783129D01*
X179848989Y-72774140D01*
X179848989Y-67465959D01*
X179868991Y-67397838D01*
X179922647Y-67351345D01*
X179992921Y-67341241D01*
X180007601Y-67344253D01*
X180111591Y-67372118D01*
X180111602Y-67372120D01*
X180116913Y-67373543D01*
X180345000Y-67393498D01*
X180573087Y-67373543D01*
X180578400Y-67372119D01*
X180578402Y-67372119D01*
X180788933Y-67315707D01*
X180788935Y-67315706D01*
X180794243Y-67314284D01*
X180841011Y-67292476D01*
X180996762Y-67219849D01*
X180996767Y-67219846D01*
X181001749Y-67217523D01*
X181129078Y-67128366D01*
X181184789Y-67089357D01*
X181184792Y-67089355D01*
X181189300Y-67086198D01*
X181351198Y-66924300D01*
X181373655Y-66892229D01*
X181429110Y-66847901D01*
X181476867Y-66838500D01*
X182772930Y-66838500D01*
X182791880Y-66839933D01*
X182806115Y-66842099D01*
X182806119Y-66842099D01*
X182813349Y-66843199D01*
X182820641Y-66842606D01*
X182820644Y-66842606D01*
X182866018Y-66838915D01*
X182876233Y-66838500D01*
X182884293Y-66838500D01*
X182897583Y-66836951D01*
X182912507Y-66835211D01*
X182916882Y-66834778D01*
X182982339Y-66829454D01*
X182982342Y-66829453D01*
X182989637Y-66828860D01*
X182996601Y-66826604D01*
X183002560Y-66825413D01*
X183008415Y-66824029D01*
X183015681Y-66823182D01*
X183084327Y-66798265D01*
X183088455Y-66796848D01*
X183150936Y-66776607D01*
X183150938Y-66776606D01*
X183157899Y-66774351D01*
X183164154Y-66770555D01*
X183169628Y-66768049D01*
X183175058Y-66765330D01*
X183181937Y-66762833D01*
X183242976Y-66722814D01*
X183246680Y-66720477D01*
X183309107Y-66682595D01*
X183317484Y-66675197D01*
X183317508Y-66675224D01*
X183320500Y-66672571D01*
X183323733Y-66669868D01*
X183329852Y-66665856D01*
X183383128Y-66609617D01*
X183385506Y-66607175D01*
X185157010Y-64835671D01*
X185219322Y-64801645D01*
X185257087Y-64799245D01*
X185414525Y-64813019D01*
X185420000Y-64813498D01*
X185648087Y-64793543D01*
X185772889Y-64760102D01*
X185843865Y-64761792D01*
G37*
%TD.AperFunction*%
%TA.AperFunction,Conductor*%
G36*
X188156121Y-63266002D02*
G01*
X188202614Y-63319658D01*
X188214000Y-63372000D01*
X188214000Y-64767967D01*
X188217973Y-64781498D01*
X188226522Y-64782727D01*
X188403761Y-64735236D01*
X188414053Y-64731490D01*
X188611511Y-64639414D01*
X188621007Y-64633931D01*
X188799467Y-64508972D01*
X188807875Y-64501916D01*
X188961916Y-64347875D01*
X188968972Y-64339467D01*
X189093931Y-64161007D01*
X189099414Y-64151511D01*
X189115529Y-64116951D01*
X189162446Y-64063666D01*
X189230723Y-64044205D01*
X189298683Y-64064747D01*
X189343919Y-64116951D01*
X189360151Y-64151762D01*
X189360154Y-64151767D01*
X189362477Y-64156749D01*
X189493802Y-64344300D01*
X189655700Y-64506198D01*
X189660208Y-64509355D01*
X189660211Y-64509357D01*
X189687769Y-64528653D01*
X189843251Y-64637523D01*
X189848233Y-64639846D01*
X189848238Y-64639849D01*
X189988499Y-64705253D01*
X190050757Y-64734284D01*
X190056065Y-64735706D01*
X190056067Y-64735707D01*
X190266598Y-64792119D01*
X190266600Y-64792119D01*
X190271913Y-64793543D01*
X190500000Y-64813498D01*
X190728087Y-64793543D01*
X190733400Y-64792119D01*
X190733402Y-64792119D01*
X190943933Y-64735707D01*
X190943935Y-64735706D01*
X190949243Y-64734284D01*
X191011501Y-64705253D01*
X191151762Y-64639849D01*
X191151767Y-64639846D01*
X191156749Y-64637523D01*
X191312231Y-64528653D01*
X191339789Y-64509357D01*
X191339792Y-64509355D01*
X191344300Y-64506198D01*
X191506198Y-64344300D01*
X191637523Y-64156749D01*
X191639846Y-64151767D01*
X191639849Y-64151762D01*
X191655805Y-64117543D01*
X191702722Y-64064258D01*
X191770999Y-64044797D01*
X191838959Y-64065339D01*
X191884195Y-64117543D01*
X191900151Y-64151762D01*
X191900154Y-64151767D01*
X191902477Y-64156749D01*
X192033802Y-64344300D01*
X192195700Y-64506198D01*
X192200208Y-64509355D01*
X192200211Y-64509357D01*
X192227769Y-64528653D01*
X192383251Y-64637523D01*
X192388233Y-64639846D01*
X192388238Y-64639849D01*
X192528499Y-64705253D01*
X192590757Y-64734284D01*
X192596065Y-64735706D01*
X192596067Y-64735707D01*
X192806598Y-64792119D01*
X192806600Y-64792119D01*
X192811913Y-64793543D01*
X193040000Y-64813498D01*
X193268087Y-64793543D01*
X193392889Y-64760102D01*
X193463865Y-64761792D01*
X193522661Y-64801586D01*
X193550609Y-64866850D01*
X193551500Y-64881809D01*
X193551500Y-69738708D01*
X193531498Y-69806829D01*
X193477842Y-69853322D01*
X193407568Y-69863426D01*
X193392889Y-69860415D01*
X193311497Y-69838606D01*
X193297401Y-69838942D01*
X193294000Y-69846884D01*
X193294000Y-70994000D01*
X193273998Y-71062121D01*
X193220342Y-71108614D01*
X193168000Y-71120000D01*
X192912000Y-71120000D01*
X192843879Y-71099998D01*
X192797386Y-71046342D01*
X192786000Y-70994000D01*
X192786000Y-69852033D01*
X192782027Y-69838502D01*
X192773478Y-69837273D01*
X192596239Y-69884764D01*
X192585947Y-69888510D01*
X192388489Y-69980586D01*
X192378993Y-69986069D01*
X192200533Y-70111028D01*
X192192125Y-70118084D01*
X192038084Y-70272125D01*
X192031028Y-70280533D01*
X191906069Y-70458993D01*
X191900586Y-70468489D01*
X191884471Y-70503049D01*
X191837554Y-70556334D01*
X191769277Y-70575795D01*
X191701317Y-70555253D01*
X191656081Y-70503049D01*
X191639849Y-70468238D01*
X191639846Y-70468233D01*
X191637523Y-70463251D01*
X191506198Y-70275700D01*
X191344300Y-70113802D01*
X191339792Y-70110645D01*
X191339789Y-70110643D01*
X191206397Y-70017241D01*
X191156749Y-69982477D01*
X191151767Y-69980154D01*
X191151762Y-69980151D01*
X190954225Y-69888039D01*
X190954224Y-69888039D01*
X190949243Y-69885716D01*
X190943935Y-69884294D01*
X190943933Y-69884293D01*
X190733402Y-69827881D01*
X190733400Y-69827881D01*
X190728087Y-69826457D01*
X190500000Y-69806502D01*
X190271913Y-69826457D01*
X190266600Y-69827881D01*
X190266598Y-69827881D01*
X190056067Y-69884293D01*
X190056065Y-69884294D01*
X190050757Y-69885716D01*
X190045776Y-69888039D01*
X190045775Y-69888039D01*
X189848238Y-69980151D01*
X189848233Y-69980154D01*
X189843251Y-69982477D01*
X189793603Y-70017241D01*
X189660211Y-70110643D01*
X189660208Y-70110645D01*
X189655700Y-70113802D01*
X189493802Y-70275700D01*
X189362477Y-70463251D01*
X189360154Y-70468233D01*
X189360151Y-70468238D01*
X189344195Y-70502457D01*
X189297278Y-70555742D01*
X189229001Y-70575203D01*
X189161041Y-70554661D01*
X189115805Y-70502457D01*
X189099849Y-70468238D01*
X189099846Y-70468233D01*
X189097523Y-70463251D01*
X188966198Y-70275700D01*
X188804300Y-70113802D01*
X188799792Y-70110645D01*
X188799789Y-70110643D01*
X188666397Y-70017241D01*
X188616749Y-69982477D01*
X188611767Y-69980154D01*
X188611762Y-69980151D01*
X188414225Y-69888039D01*
X188414224Y-69888039D01*
X188409243Y-69885716D01*
X188403935Y-69884294D01*
X188403933Y-69884293D01*
X188193402Y-69827881D01*
X188193400Y-69827881D01*
X188188087Y-69826457D01*
X187960000Y-69806502D01*
X187731913Y-69826457D01*
X187607111Y-69859898D01*
X187536135Y-69858208D01*
X187477339Y-69818414D01*
X187449391Y-69753150D01*
X187448500Y-69738191D01*
X187448500Y-64881292D01*
X187468502Y-64813171D01*
X187522158Y-64766678D01*
X187592432Y-64756574D01*
X187607111Y-64759585D01*
X187688503Y-64781394D01*
X187702599Y-64781058D01*
X187706000Y-64773116D01*
X187706000Y-63372000D01*
X187726002Y-63303879D01*
X187779658Y-63257386D01*
X187832000Y-63246000D01*
X188088000Y-63246000D01*
X188156121Y-63266002D01*
G37*
%TD.AperFunction*%
%TA.AperFunction,Conductor*%
G36*
X195776121Y-63266002D02*
G01*
X195822614Y-63319658D01*
X195834000Y-63372000D01*
X195834000Y-64767967D01*
X195837973Y-64781498D01*
X195846522Y-64782727D01*
X195912400Y-64765075D01*
X195983377Y-64766765D01*
X196042172Y-64806559D01*
X196070120Y-64871824D01*
X196071011Y-64886782D01*
X196071011Y-68043001D01*
X196054130Y-68106001D01*
X196010118Y-68182232D01*
X195994984Y-68208444D01*
X195935969Y-68390072D01*
X195916007Y-68580000D01*
X195916697Y-68586565D01*
X195933816Y-68749439D01*
X195935969Y-68769928D01*
X195994984Y-68951556D01*
X196090471Y-69116944D01*
X196218258Y-69258866D01*
X196372759Y-69371118D01*
X196378787Y-69373802D01*
X196378789Y-69373803D01*
X196541192Y-69446109D01*
X196547223Y-69448794D01*
X196553678Y-69450166D01*
X196553687Y-69450169D01*
X196610283Y-69462199D01*
X196673180Y-69496350D01*
X197194071Y-70017241D01*
X197228097Y-70079553D01*
X197223032Y-70150368D01*
X197194071Y-70195431D01*
X197113802Y-70275700D01*
X196982477Y-70463251D01*
X196980154Y-70468233D01*
X196980151Y-70468238D01*
X196964195Y-70502457D01*
X196917278Y-70555742D01*
X196849001Y-70575203D01*
X196781041Y-70554661D01*
X196735805Y-70502457D01*
X196719849Y-70468238D01*
X196719846Y-70468233D01*
X196717523Y-70463251D01*
X196586198Y-70275700D01*
X196424300Y-70113802D01*
X196419792Y-70110645D01*
X196419789Y-70110643D01*
X196286397Y-70017241D01*
X196236749Y-69982477D01*
X196231767Y-69980154D01*
X196231762Y-69980151D01*
X196034225Y-69888039D01*
X196034224Y-69888039D01*
X196029243Y-69885716D01*
X196023935Y-69884294D01*
X196023933Y-69884293D01*
X195813402Y-69827881D01*
X195813400Y-69827881D01*
X195808087Y-69826457D01*
X195580000Y-69806502D01*
X195351913Y-69826457D01*
X195227111Y-69859898D01*
X195156135Y-69858208D01*
X195097339Y-69818414D01*
X195069391Y-69753150D01*
X195068500Y-69738191D01*
X195068500Y-64881292D01*
X195088502Y-64813171D01*
X195142158Y-64766678D01*
X195212432Y-64756574D01*
X195227111Y-64759585D01*
X195308503Y-64781394D01*
X195322599Y-64781058D01*
X195326000Y-64773116D01*
X195326000Y-63372000D01*
X195346002Y-63303879D01*
X195399658Y-63257386D01*
X195452000Y-63246000D01*
X195708000Y-63246000D01*
X195776121Y-63266002D01*
G37*
%TD.AperFunction*%
%TD*%
M02*
