%TF.GenerationSoftware,KiCad,Pcbnew,(6.0.5)*%
%TF.CreationDate,2023-02-15T12:36:45-05:00*%
%TF.ProjectId,wow_and_flutter,776f775f-616e-4645-9f66-6c7574746572,rev?*%
%TF.SameCoordinates,Original*%
%TF.FileFunction,Legend,Bot*%
%TF.FilePolarity,Positive*%
%FSLAX46Y46*%
G04 Gerber Fmt 4.6, Leading zero omitted, Abs format (unit mm)*
G04 Created by KiCad (PCBNEW (6.0.5)) date 2023-02-15 12:36:45*
%MOMM*%
%LPD*%
G01*
G04 APERTURE LIST*
%ADD10C,0.150000*%
%ADD11C,0.120000*%
G04 APERTURE END LIST*
D10*
X179075000Y-33695000D02*
X179075000Y-48935000D01*
G36*
X185425000Y-36870000D02*
G01*
X184790000Y-36235000D01*
X186060000Y-36235000D01*
X185425000Y-36870000D01*
G37*
X185425000Y-36870000D02*
X184790000Y-36235000D01*
X186060000Y-36235000D01*
X185425000Y-36870000D01*
X179075000Y-48935000D02*
X200030000Y-48935000D01*
G36*
X190505000Y-41950000D02*
G01*
X189870000Y-41315000D01*
X190505000Y-40680000D01*
X190505000Y-41950000D01*
G37*
X190505000Y-41950000D02*
X189870000Y-41315000D01*
X190505000Y-40680000D01*
X190505000Y-41950000D01*
G36*
X186060000Y-46395000D02*
G01*
X184790000Y-46395000D01*
X185425000Y-45760000D01*
X186060000Y-46395000D01*
G37*
X186060000Y-46395000D02*
X184790000Y-46395000D01*
X185425000Y-45760000D01*
X186060000Y-46395000D01*
X200030000Y-33695000D02*
X179075000Y-33695000D01*
X200030000Y-48935000D02*
X200030000Y-33695000D01*
X199375357Y-41195952D02*
X198613452Y-41195952D01*
X198994404Y-41576904D02*
X198994404Y-40815000D01*
X198613452Y-41767380D02*
X199375357Y-41767380D01*
X197613452Y-41767380D02*
X198184880Y-41767380D01*
X197899166Y-41767380D02*
X197899166Y-40767380D01*
X197994404Y-40910238D01*
X198089642Y-41005476D01*
X198184880Y-41053095D01*
X196232500Y-40767380D02*
X196042023Y-40767380D01*
X195946785Y-40815000D01*
X195851547Y-40910238D01*
X195803928Y-41100714D01*
X195803928Y-41434047D01*
X195851547Y-41624523D01*
X195946785Y-41719761D01*
X196042023Y-41767380D01*
X196232500Y-41767380D01*
X196327738Y-41719761D01*
X196422976Y-41624523D01*
X196470595Y-41434047D01*
X196470595Y-41100714D01*
X196422976Y-40910238D01*
X196327738Y-40815000D01*
X196232500Y-40767380D01*
X194803928Y-41672142D02*
X194851547Y-41719761D01*
X194994404Y-41767380D01*
X195089642Y-41767380D01*
X195232500Y-41719761D01*
X195327738Y-41624523D01*
X195375357Y-41529285D01*
X195422976Y-41338809D01*
X195422976Y-41195952D01*
X195375357Y-41005476D01*
X195327738Y-40910238D01*
X195232500Y-40815000D01*
X195089642Y-40767380D01*
X194994404Y-40767380D01*
X194851547Y-40815000D01*
X194803928Y-40862619D01*
X194518214Y-40767380D02*
X193946785Y-40767380D01*
X194232500Y-41767380D02*
X194232500Y-40767380D01*
X193661071Y-41481666D02*
X193184880Y-41481666D01*
X193756309Y-41767380D02*
X193422976Y-40767380D01*
X193089642Y-41767380D01*
X192899166Y-40767380D02*
X192565833Y-41767380D01*
X192232500Y-40767380D01*
X191899166Y-41243571D02*
X191565833Y-41243571D01*
X191422976Y-41767380D02*
X191899166Y-41767380D01*
X191899166Y-40767380D01*
X191422976Y-40767380D01*
X190282142Y-47505952D02*
X189520238Y-47505952D01*
X189901190Y-47886904D02*
X189901190Y-47125000D01*
X189520238Y-48077380D02*
X190282142Y-48077380D01*
X188520238Y-48077380D02*
X189091666Y-48077380D01*
X188805952Y-48077380D02*
X188805952Y-47077380D01*
X188901190Y-47220238D01*
X188996428Y-47315476D01*
X189091666Y-47363095D01*
X187377380Y-48029761D02*
X187234523Y-48077380D01*
X186996428Y-48077380D01*
X186901190Y-48029761D01*
X186853571Y-47982142D01*
X186805952Y-47886904D01*
X186805952Y-47791666D01*
X186853571Y-47696428D01*
X186901190Y-47648809D01*
X186996428Y-47601190D01*
X187186904Y-47553571D01*
X187282142Y-47505952D01*
X187329761Y-47458333D01*
X187377380Y-47363095D01*
X187377380Y-47267857D01*
X187329761Y-47172619D01*
X187282142Y-47125000D01*
X187186904Y-47077380D01*
X186948809Y-47077380D01*
X186805952Y-47125000D01*
X186377380Y-47553571D02*
X186044047Y-47553571D01*
X185901190Y-48077380D02*
X186377380Y-48077380D01*
X186377380Y-47077380D01*
X185901190Y-47077380D01*
X185472619Y-48077380D02*
X185472619Y-47077380D01*
X185139285Y-47791666D01*
X184805952Y-47077380D01*
X184805952Y-48077380D01*
X184329761Y-48077380D02*
X184329761Y-47077380D01*
X183996428Y-47077380D02*
X183425000Y-47077380D01*
X183710714Y-48077380D02*
X183710714Y-47077380D01*
X182901190Y-47077380D02*
X182710714Y-47077380D01*
X182615476Y-47125000D01*
X182520238Y-47220238D01*
X182472619Y-47410714D01*
X182472619Y-47744047D01*
X182520238Y-47934523D01*
X182615476Y-48029761D01*
X182710714Y-48077380D01*
X182901190Y-48077380D01*
X182996428Y-48029761D01*
X183091666Y-47934523D01*
X183139285Y-47744047D01*
X183139285Y-47410714D01*
X183091666Y-47220238D01*
X182996428Y-47125000D01*
X182901190Y-47077380D01*
X182044047Y-48077380D02*
X182044047Y-47077380D01*
X181472619Y-48077380D01*
X181472619Y-47077380D01*
X180996428Y-47553571D02*
X180663095Y-47553571D01*
X180520238Y-48077380D02*
X180996428Y-48077380D01*
X180996428Y-47077380D01*
X180520238Y-47077380D01*
X193213809Y-34805952D02*
X192451904Y-34805952D01*
X192832857Y-35186904D02*
X192832857Y-34425000D01*
X192451904Y-35377380D02*
X193213809Y-35377380D01*
X191499523Y-34377380D02*
X191975714Y-34377380D01*
X192023333Y-34853571D01*
X191975714Y-34805952D01*
X191880476Y-34758333D01*
X191642380Y-34758333D01*
X191547142Y-34805952D01*
X191499523Y-34853571D01*
X191451904Y-34948809D01*
X191451904Y-35186904D01*
X191499523Y-35282142D01*
X191547142Y-35329761D01*
X191642380Y-35377380D01*
X191880476Y-35377380D01*
X191975714Y-35329761D01*
X192023333Y-35282142D01*
X191166190Y-34377380D02*
X190832857Y-35377380D01*
X190499523Y-34377380D01*
X189451904Y-35329761D02*
X189309047Y-35377380D01*
X189070952Y-35377380D01*
X188975714Y-35329761D01*
X188928095Y-35282142D01*
X188880476Y-35186904D01*
X188880476Y-35091666D01*
X188928095Y-34996428D01*
X188975714Y-34948809D01*
X189070952Y-34901190D01*
X189261428Y-34853571D01*
X189356666Y-34805952D01*
X189404285Y-34758333D01*
X189451904Y-34663095D01*
X189451904Y-34567857D01*
X189404285Y-34472619D01*
X189356666Y-34425000D01*
X189261428Y-34377380D01*
X189023333Y-34377380D01*
X188880476Y-34425000D01*
X188261428Y-34901190D02*
X188261428Y-35377380D01*
X188594761Y-34377380D02*
X188261428Y-34901190D01*
X187928095Y-34377380D01*
X187594761Y-35377380D02*
X187594761Y-34377380D01*
X187023333Y-35377380D01*
X187023333Y-34377380D01*
X186690000Y-34377380D02*
X186118571Y-34377380D01*
X186404285Y-35377380D02*
X186404285Y-34377380D01*
X185785238Y-35377380D02*
X185785238Y-34377380D01*
X185785238Y-34853571D02*
X185213809Y-34853571D01*
X185213809Y-35377380D02*
X185213809Y-34377380D01*
X183499523Y-35377380D02*
X183975714Y-35377380D01*
X183975714Y-34377380D01*
X183166190Y-34853571D02*
X182832857Y-34853571D01*
X182690000Y-35377380D02*
X183166190Y-35377380D01*
X183166190Y-34377380D01*
X182690000Y-34377380D01*
X182404285Y-34377380D02*
X182070952Y-35377380D01*
X181737619Y-34377380D01*
X181404285Y-34853571D02*
X181070952Y-34853571D01*
X180928095Y-35377380D02*
X181404285Y-35377380D01*
X181404285Y-34377380D01*
X180928095Y-34377380D01*
X180023333Y-35377380D02*
X180499523Y-35377380D01*
X180499523Y-34377380D01*
%TO.C,J1*%
X190833333Y-143597380D02*
X190833333Y-144311666D01*
X190880952Y-144454523D01*
X190976190Y-144549761D01*
X191119047Y-144597380D01*
X191214285Y-144597380D01*
X189833333Y-144597380D02*
X190404761Y-144597380D01*
X190119047Y-144597380D02*
X190119047Y-143597380D01*
X190214285Y-143740238D01*
X190309523Y-143835476D01*
X190404761Y-143883095D01*
%TO.C,JP1*%
X198260690Y-32218380D02*
X198260690Y-32932666D01*
X198308309Y-33075523D01*
X198403547Y-33170761D01*
X198546404Y-33218380D01*
X198641642Y-33218380D01*
X197784500Y-33218380D02*
X197784500Y-32218380D01*
X197403547Y-32218380D01*
X197308309Y-32266000D01*
X197260690Y-32313619D01*
X197213071Y-32408857D01*
X197213071Y-32551714D01*
X197260690Y-32646952D01*
X197308309Y-32694571D01*
X197403547Y-32742190D01*
X197784500Y-32742190D01*
X196260690Y-33218380D02*
X196832119Y-33218380D01*
X196546404Y-33218380D02*
X196546404Y-32218380D01*
X196641642Y-32361238D01*
X196736880Y-32456476D01*
X196832119Y-32504095D01*
X194481071Y-32218380D02*
X194290595Y-32218380D01*
X194195357Y-32266000D01*
X194100119Y-32361238D01*
X194052500Y-32551714D01*
X194052500Y-32885047D01*
X194100119Y-33075523D01*
X194195357Y-33170761D01*
X194290595Y-33218380D01*
X194481071Y-33218380D01*
X194576309Y-33170761D01*
X194671547Y-33075523D01*
X194719166Y-32885047D01*
X194719166Y-32551714D01*
X194671547Y-32361238D01*
X194576309Y-32266000D01*
X194481071Y-32218380D01*
X193623928Y-32218380D02*
X193623928Y-33027904D01*
X193576309Y-33123142D01*
X193528690Y-33170761D01*
X193433452Y-33218380D01*
X193242976Y-33218380D01*
X193147738Y-33170761D01*
X193100119Y-33123142D01*
X193052500Y-33027904D01*
X193052500Y-32218380D01*
X192719166Y-32218380D02*
X192147738Y-32218380D01*
X192433452Y-33218380D02*
X192433452Y-32218380D01*
X191814404Y-33218380D02*
X191814404Y-32218380D01*
X191433452Y-32218380D01*
X191338214Y-32266000D01*
X191290595Y-32313619D01*
X191242976Y-32408857D01*
X191242976Y-32551714D01*
X191290595Y-32646952D01*
X191338214Y-32694571D01*
X191433452Y-32742190D01*
X191814404Y-32742190D01*
X190814404Y-32218380D02*
X190814404Y-33027904D01*
X190766785Y-33123142D01*
X190719166Y-33170761D01*
X190623928Y-33218380D01*
X190433452Y-33218380D01*
X190338214Y-33170761D01*
X190290595Y-33123142D01*
X190242976Y-33027904D01*
X190242976Y-32218380D01*
X189909642Y-32218380D02*
X189338214Y-32218380D01*
X189623928Y-33218380D02*
X189623928Y-32218380D01*
X187766785Y-33218380D02*
X188242976Y-33218380D01*
X188242976Y-32218380D01*
X187433452Y-32694571D02*
X187100119Y-32694571D01*
X186957261Y-33218380D02*
X187433452Y-33218380D01*
X187433452Y-32218380D01*
X186957261Y-32218380D01*
X186671547Y-32218380D02*
X186338214Y-33218380D01*
X186004880Y-32218380D01*
X185671547Y-32694571D02*
X185338214Y-32694571D01*
X185195357Y-33218380D02*
X185671547Y-33218380D01*
X185671547Y-32218380D01*
X185195357Y-32218380D01*
X184290595Y-33218380D02*
X184766785Y-33218380D01*
X184766785Y-32218380D01*
D11*
%TO.C,J1*%
X180210000Y-142990000D02*
X200790000Y-142990000D01*
X188450000Y-141680000D02*
X188450000Y-141680000D01*
X181510000Y-135180000D02*
X181510000Y-141680000D01*
X199490000Y-135180000D02*
X181510000Y-135180000D01*
X192550000Y-141680000D02*
X199490000Y-141680000D01*
X181510000Y-141680000D02*
X188450000Y-141680000D01*
X180210000Y-133870000D02*
X180210000Y-142990000D01*
X192550000Y-142990000D02*
X192550000Y-141680000D01*
X195580000Y-143380000D02*
X196080000Y-144380000D01*
X188450000Y-141680000D02*
X188450000Y-142990000D01*
X196080000Y-144380000D02*
X195080000Y-144380000D01*
X199490000Y-141680000D02*
X199490000Y-135180000D01*
X200790000Y-133870000D02*
X180210000Y-133870000D01*
X200790000Y-142990000D02*
X200790000Y-133870000D01*
X195080000Y-144380000D02*
X195580000Y-143380000D01*
%TO.C,JP1*%
X184095000Y-45185000D02*
X189235000Y-45185000D01*
X184095000Y-45185000D02*
X184095000Y-37445000D01*
X184095000Y-37445000D02*
X189295000Y-37445000D01*
X189295000Y-45185000D02*
X189295000Y-37445000D01*
%TD*%
M02*
