%TF.GenerationSoftware,KiCad,Pcbnew,(6.0.5)*%
%TF.CreationDate,2023-02-15T12:53:42-05:00*%
%TF.ProjectId,wow_and_flutter,776f775f-616e-4645-9f66-6c7574746572,rev?*%
%TF.SameCoordinates,Original*%
%TF.FileFunction,Legend,Top*%
%TF.FilePolarity,Positive*%
%FSLAX46Y46*%
G04 Gerber Fmt 4.6, Leading zero omitted, Abs format (unit mm)*
G04 Created by KiCad (PCBNEW (6.0.5)) date 2023-02-15 12:53:42*
%MOMM*%
%LPD*%
G01*
G04 APERTURE LIST*
%ADD10C,0.120000*%
%ADD11C,0.150000*%
G04 APERTURE END LIST*
D10*
X193871904Y-86880238D02*
X194443333Y-86880238D01*
X194557619Y-86918333D01*
X194633809Y-86994523D01*
X194671904Y-87108809D01*
X194671904Y-87185000D01*
X194671904Y-86118333D02*
X194671904Y-86499285D01*
X193871904Y-86499285D01*
X194595714Y-85394523D02*
X194633809Y-85432619D01*
X194671904Y-85546904D01*
X194671904Y-85623095D01*
X194633809Y-85737380D01*
X194557619Y-85813571D01*
X194481428Y-85851666D01*
X194329047Y-85889761D01*
X194214761Y-85889761D01*
X194062380Y-85851666D01*
X193986190Y-85813571D01*
X193910000Y-85737380D01*
X193871904Y-85623095D01*
X193871904Y-85546904D01*
X193910000Y-85432619D01*
X193948095Y-85394523D01*
X193871904Y-84823095D02*
X194443333Y-84823095D01*
X194557619Y-84861190D01*
X194633809Y-84937380D01*
X194671904Y-85051666D01*
X194671904Y-85127857D01*
X194671904Y-84061190D02*
X194671904Y-84442142D01*
X193871904Y-84442142D01*
X194595714Y-83337380D02*
X194633809Y-83375476D01*
X194671904Y-83489761D01*
X194671904Y-83565952D01*
X194633809Y-83680238D01*
X194557619Y-83756428D01*
X194481428Y-83794523D01*
X194329047Y-83832619D01*
X194214761Y-83832619D01*
X194062380Y-83794523D01*
X193986190Y-83756428D01*
X193910000Y-83680238D01*
X193871904Y-83565952D01*
X193871904Y-83489761D01*
X193910000Y-83375476D01*
X193948095Y-83337380D01*
X193871904Y-82765952D02*
X194443333Y-82765952D01*
X194557619Y-82804047D01*
X194633809Y-82880238D01*
X194671904Y-82994523D01*
X194671904Y-83070714D01*
X194671904Y-82004047D02*
X194671904Y-82385000D01*
X193871904Y-82385000D01*
X194595714Y-81280238D02*
X194633809Y-81318333D01*
X194671904Y-81432619D01*
X194671904Y-81508809D01*
X194633809Y-81623095D01*
X194557619Y-81699285D01*
X194481428Y-81737380D01*
X194329047Y-81775476D01*
X194214761Y-81775476D01*
X194062380Y-81737380D01*
X193986190Y-81699285D01*
X193910000Y-81623095D01*
X193871904Y-81508809D01*
X193871904Y-81432619D01*
X193910000Y-81318333D01*
X193948095Y-81280238D01*
X193871904Y-80708809D02*
X194443333Y-80708809D01*
X194557619Y-80746904D01*
X194633809Y-80823095D01*
X194671904Y-80937380D01*
X194671904Y-81013571D01*
X194671904Y-79946904D02*
X194671904Y-80327857D01*
X193871904Y-80327857D01*
X194595714Y-79223095D02*
X194633809Y-79261190D01*
X194671904Y-79375476D01*
X194671904Y-79451666D01*
X194633809Y-79565952D01*
X194557619Y-79642142D01*
X194481428Y-79680238D01*
X194329047Y-79718333D01*
X194214761Y-79718333D01*
X194062380Y-79680238D01*
X193986190Y-79642142D01*
X193910000Y-79565952D01*
X193871904Y-79451666D01*
X193871904Y-79375476D01*
X193910000Y-79261190D01*
X193948095Y-79223095D01*
D11*
X199136000Y-74168000D02*
X201676000Y-74676000D01*
%TO.C,R8*%
X188412380Y-130145357D02*
X187936190Y-130478690D01*
X188412380Y-130716785D02*
X187412380Y-130716785D01*
X187412380Y-130335833D01*
X187460000Y-130240595D01*
X187507619Y-130192976D01*
X187602857Y-130145357D01*
X187745714Y-130145357D01*
X187840952Y-130192976D01*
X187888571Y-130240595D01*
X187936190Y-130335833D01*
X187936190Y-130716785D01*
X187840952Y-129573928D02*
X187793333Y-129669166D01*
X187745714Y-129716785D01*
X187650476Y-129764404D01*
X187602857Y-129764404D01*
X187507619Y-129716785D01*
X187460000Y-129669166D01*
X187412380Y-129573928D01*
X187412380Y-129383452D01*
X187460000Y-129288214D01*
X187507619Y-129240595D01*
X187602857Y-129192976D01*
X187650476Y-129192976D01*
X187745714Y-129240595D01*
X187793333Y-129288214D01*
X187840952Y-129383452D01*
X187840952Y-129573928D01*
X187888571Y-129669166D01*
X187936190Y-129716785D01*
X188031428Y-129764404D01*
X188221904Y-129764404D01*
X188317142Y-129716785D01*
X188364761Y-129669166D01*
X188412380Y-129573928D01*
X188412380Y-129383452D01*
X188364761Y-129288214D01*
X188317142Y-129240595D01*
X188221904Y-129192976D01*
X188031428Y-129192976D01*
X187936190Y-129240595D01*
X187888571Y-129288214D01*
X187840952Y-129383452D01*
X188412380Y-123626428D02*
X188412380Y-124197857D01*
X188412380Y-123912142D02*
X187412380Y-123912142D01*
X187555238Y-124007380D01*
X187650476Y-124102619D01*
X187698095Y-124197857D01*
X187412380Y-123007380D02*
X187412380Y-122912142D01*
X187460000Y-122816904D01*
X187507619Y-122769285D01*
X187602857Y-122721666D01*
X187793333Y-122674047D01*
X188031428Y-122674047D01*
X188221904Y-122721666D01*
X188317142Y-122769285D01*
X188364761Y-122816904D01*
X188412380Y-122912142D01*
X188412380Y-123007380D01*
X188364761Y-123102619D01*
X188317142Y-123150238D01*
X188221904Y-123197857D01*
X188031428Y-123245476D01*
X187793333Y-123245476D01*
X187602857Y-123197857D01*
X187507619Y-123150238D01*
X187460000Y-123102619D01*
X187412380Y-123007380D01*
X187412380Y-122055000D02*
X187412380Y-121959761D01*
X187460000Y-121864523D01*
X187507619Y-121816904D01*
X187602857Y-121769285D01*
X187793333Y-121721666D01*
X188031428Y-121721666D01*
X188221904Y-121769285D01*
X188317142Y-121816904D01*
X188364761Y-121864523D01*
X188412380Y-121959761D01*
X188412380Y-122055000D01*
X188364761Y-122150238D01*
X188317142Y-122197857D01*
X188221904Y-122245476D01*
X188031428Y-122293095D01*
X187793333Y-122293095D01*
X187602857Y-122245476D01*
X187507619Y-122197857D01*
X187460000Y-122150238D01*
X187412380Y-122055000D01*
X188412380Y-121293095D02*
X187412380Y-121293095D01*
X188031428Y-121197857D02*
X188412380Y-120912142D01*
X187745714Y-120912142D02*
X188126666Y-121293095D01*
%TO.C,R19*%
X200297023Y-91257380D02*
X199963690Y-90781190D01*
X199725595Y-91257380D02*
X199725595Y-90257380D01*
X200106547Y-90257380D01*
X200201785Y-90305000D01*
X200249404Y-90352619D01*
X200297023Y-90447857D01*
X200297023Y-90590714D01*
X200249404Y-90685952D01*
X200201785Y-90733571D01*
X200106547Y-90781190D01*
X199725595Y-90781190D01*
X201249404Y-91257380D02*
X200677976Y-91257380D01*
X200963690Y-91257380D02*
X200963690Y-90257380D01*
X200868452Y-90400238D01*
X200773214Y-90495476D01*
X200677976Y-90543095D01*
X201725595Y-91257380D02*
X201916071Y-91257380D01*
X202011309Y-91209761D01*
X202058928Y-91162142D01*
X202154166Y-91019285D01*
X202201785Y-90828809D01*
X202201785Y-90447857D01*
X202154166Y-90352619D01*
X202106547Y-90305000D01*
X202011309Y-90257380D01*
X201820833Y-90257380D01*
X201725595Y-90305000D01*
X201677976Y-90352619D01*
X201630357Y-90447857D01*
X201630357Y-90685952D01*
X201677976Y-90781190D01*
X201725595Y-90828809D01*
X201820833Y-90876428D01*
X202011309Y-90876428D01*
X202106547Y-90828809D01*
X202154166Y-90781190D01*
X202201785Y-90685952D01*
X198572380Y-96956428D02*
X198572380Y-97527857D01*
X198572380Y-97242142D02*
X197572380Y-97242142D01*
X197715238Y-97337380D01*
X197810476Y-97432619D01*
X197858095Y-97527857D01*
X197572380Y-96337380D02*
X197572380Y-96242142D01*
X197620000Y-96146904D01*
X197667619Y-96099285D01*
X197762857Y-96051666D01*
X197953333Y-96004047D01*
X198191428Y-96004047D01*
X198381904Y-96051666D01*
X198477142Y-96099285D01*
X198524761Y-96146904D01*
X198572380Y-96242142D01*
X198572380Y-96337380D01*
X198524761Y-96432619D01*
X198477142Y-96480238D01*
X198381904Y-96527857D01*
X198191428Y-96575476D01*
X197953333Y-96575476D01*
X197762857Y-96527857D01*
X197667619Y-96480238D01*
X197620000Y-96432619D01*
X197572380Y-96337380D01*
X197572380Y-95385000D02*
X197572380Y-95289761D01*
X197620000Y-95194523D01*
X197667619Y-95146904D01*
X197762857Y-95099285D01*
X197953333Y-95051666D01*
X198191428Y-95051666D01*
X198381904Y-95099285D01*
X198477142Y-95146904D01*
X198524761Y-95194523D01*
X198572380Y-95289761D01*
X198572380Y-95385000D01*
X198524761Y-95480238D01*
X198477142Y-95527857D01*
X198381904Y-95575476D01*
X198191428Y-95623095D01*
X197953333Y-95623095D01*
X197762857Y-95575476D01*
X197667619Y-95527857D01*
X197620000Y-95480238D01*
X197572380Y-95385000D01*
X198572380Y-94623095D02*
X197572380Y-94623095D01*
X198191428Y-94527857D02*
X198572380Y-94242142D01*
X197905714Y-94242142D02*
X198286666Y-94623095D01*
%TO.C,R4*%
X193487380Y-48622976D02*
X193011190Y-48956309D01*
X193487380Y-49194404D02*
X192487380Y-49194404D01*
X192487380Y-48813452D01*
X192535000Y-48718214D01*
X192582619Y-48670595D01*
X192677857Y-48622976D01*
X192820714Y-48622976D01*
X192915952Y-48670595D01*
X192963571Y-48718214D01*
X193011190Y-48813452D01*
X193011190Y-49194404D01*
X192820714Y-47765833D02*
X193487380Y-47765833D01*
X192439761Y-48003928D02*
X193154047Y-48242023D01*
X193154047Y-47622976D01*
X193492380Y-56951428D02*
X193492380Y-57522857D01*
X193492380Y-57237142D02*
X192492380Y-57237142D01*
X192635238Y-57332380D01*
X192730476Y-57427619D01*
X192778095Y-57522857D01*
X192492380Y-56332380D02*
X192492380Y-56237142D01*
X192540000Y-56141904D01*
X192587619Y-56094285D01*
X192682857Y-56046666D01*
X192873333Y-55999047D01*
X193111428Y-55999047D01*
X193301904Y-56046666D01*
X193397142Y-56094285D01*
X193444761Y-56141904D01*
X193492380Y-56237142D01*
X193492380Y-56332380D01*
X193444761Y-56427619D01*
X193397142Y-56475238D01*
X193301904Y-56522857D01*
X193111428Y-56570476D01*
X192873333Y-56570476D01*
X192682857Y-56522857D01*
X192587619Y-56475238D01*
X192540000Y-56427619D01*
X192492380Y-56332380D01*
X192492380Y-55380000D02*
X192492380Y-55284761D01*
X192540000Y-55189523D01*
X192587619Y-55141904D01*
X192682857Y-55094285D01*
X192873333Y-55046666D01*
X193111428Y-55046666D01*
X193301904Y-55094285D01*
X193397142Y-55141904D01*
X193444761Y-55189523D01*
X193492380Y-55284761D01*
X193492380Y-55380000D01*
X193444761Y-55475238D01*
X193397142Y-55522857D01*
X193301904Y-55570476D01*
X193111428Y-55618095D01*
X192873333Y-55618095D01*
X192682857Y-55570476D01*
X192587619Y-55522857D01*
X192540000Y-55475238D01*
X192492380Y-55380000D01*
X193492380Y-54618095D02*
X192492380Y-54618095D01*
X193111428Y-54522857D02*
X193492380Y-54237142D01*
X192825714Y-54237142D02*
X193206666Y-54618095D01*
%TO.C,C6*%
X190862142Y-56242976D02*
X190909761Y-56290595D01*
X190957380Y-56433452D01*
X190957380Y-56528690D01*
X190909761Y-56671547D01*
X190814523Y-56766785D01*
X190719285Y-56814404D01*
X190528809Y-56862023D01*
X190385952Y-56862023D01*
X190195476Y-56814404D01*
X190100238Y-56766785D01*
X190005000Y-56671547D01*
X189957380Y-56528690D01*
X189957380Y-56433452D01*
X190005000Y-56290595D01*
X190052619Y-56242976D01*
X189957380Y-55385833D02*
X189957380Y-55576309D01*
X190005000Y-55671547D01*
X190052619Y-55719166D01*
X190195476Y-55814404D01*
X190385952Y-55862023D01*
X190766904Y-55862023D01*
X190862142Y-55814404D01*
X190909761Y-55766785D01*
X190957380Y-55671547D01*
X190957380Y-55481071D01*
X190909761Y-55385833D01*
X190862142Y-55338214D01*
X190766904Y-55290595D01*
X190528809Y-55290595D01*
X190433571Y-55338214D01*
X190385952Y-55385833D01*
X190338333Y-55481071D01*
X190338333Y-55671547D01*
X190385952Y-55766785D01*
X190433571Y-55814404D01*
X190528809Y-55862023D01*
%TO.C,R12*%
X196032380Y-131097738D02*
X195556190Y-131431071D01*
X196032380Y-131669166D02*
X195032380Y-131669166D01*
X195032380Y-131288214D01*
X195080000Y-131192976D01*
X195127619Y-131145357D01*
X195222857Y-131097738D01*
X195365714Y-131097738D01*
X195460952Y-131145357D01*
X195508571Y-131192976D01*
X195556190Y-131288214D01*
X195556190Y-131669166D01*
X196032380Y-130145357D02*
X196032380Y-130716785D01*
X196032380Y-130431071D02*
X195032380Y-130431071D01*
X195175238Y-130526309D01*
X195270476Y-130621547D01*
X195318095Y-130716785D01*
X195127619Y-129764404D02*
X195080000Y-129716785D01*
X195032380Y-129621547D01*
X195032380Y-129383452D01*
X195080000Y-129288214D01*
X195127619Y-129240595D01*
X195222857Y-129192976D01*
X195318095Y-129192976D01*
X195460952Y-129240595D01*
X196032380Y-129812023D01*
X196032380Y-129192976D01*
X196032380Y-122674047D02*
X196032380Y-123245476D01*
X196032380Y-122959761D02*
X195032380Y-122959761D01*
X195175238Y-123055000D01*
X195270476Y-123150238D01*
X195318095Y-123245476D01*
X196032380Y-122245476D02*
X195032380Y-122245476D01*
X195651428Y-122150238D02*
X196032380Y-121864523D01*
X195365714Y-121864523D02*
X195746666Y-122245476D01*
%TO.C,R18*%
X192117261Y-91257380D02*
X191783928Y-90781190D01*
X191545833Y-91257380D02*
X191545833Y-90257380D01*
X191926785Y-90257380D01*
X192022023Y-90305000D01*
X192069642Y-90352619D01*
X192117261Y-90447857D01*
X192117261Y-90590714D01*
X192069642Y-90685952D01*
X192022023Y-90733571D01*
X191926785Y-90781190D01*
X191545833Y-90781190D01*
X193069642Y-91257380D02*
X192498214Y-91257380D01*
X192783928Y-91257380D02*
X192783928Y-90257380D01*
X192688690Y-90400238D01*
X192593452Y-90495476D01*
X192498214Y-90543095D01*
X193641071Y-90685952D02*
X193545833Y-90638333D01*
X193498214Y-90590714D01*
X193450595Y-90495476D01*
X193450595Y-90447857D01*
X193498214Y-90352619D01*
X193545833Y-90305000D01*
X193641071Y-90257380D01*
X193831547Y-90257380D01*
X193926785Y-90305000D01*
X193974404Y-90352619D01*
X194022023Y-90447857D01*
X194022023Y-90495476D01*
X193974404Y-90590714D01*
X193926785Y-90638333D01*
X193831547Y-90685952D01*
X193641071Y-90685952D01*
X193545833Y-90733571D01*
X193498214Y-90781190D01*
X193450595Y-90876428D01*
X193450595Y-91066904D01*
X193498214Y-91162142D01*
X193545833Y-91209761D01*
X193641071Y-91257380D01*
X193831547Y-91257380D01*
X193926785Y-91209761D01*
X193974404Y-91162142D01*
X194022023Y-91066904D01*
X194022023Y-90876428D01*
X193974404Y-90781190D01*
X193926785Y-90733571D01*
X193831547Y-90685952D01*
X195365714Y-96575476D02*
X196032380Y-96575476D01*
X194984761Y-96813571D02*
X195699047Y-97051666D01*
X195699047Y-96432619D01*
X195032380Y-96146904D02*
X195032380Y-95480238D01*
X196032380Y-95908809D01*
X196032380Y-95099285D02*
X195032380Y-95099285D01*
X195651428Y-95004047D02*
X196032380Y-94718333D01*
X195365714Y-94718333D02*
X195746666Y-95099285D01*
%TO.C,C13*%
X187952142Y-79097142D02*
X187904523Y-79144761D01*
X187761666Y-79192380D01*
X187666428Y-79192380D01*
X187523571Y-79144761D01*
X187428333Y-79049523D01*
X187380714Y-78954285D01*
X187333095Y-78763809D01*
X187333095Y-78620952D01*
X187380714Y-78430476D01*
X187428333Y-78335238D01*
X187523571Y-78240000D01*
X187666428Y-78192380D01*
X187761666Y-78192380D01*
X187904523Y-78240000D01*
X187952142Y-78287619D01*
X188904523Y-79192380D02*
X188333095Y-79192380D01*
X188618809Y-79192380D02*
X188618809Y-78192380D01*
X188523571Y-78335238D01*
X188428333Y-78430476D01*
X188333095Y-78478095D01*
X189237857Y-78192380D02*
X189856904Y-78192380D01*
X189523571Y-78573333D01*
X189666428Y-78573333D01*
X189761666Y-78620952D01*
X189809285Y-78668571D01*
X189856904Y-78763809D01*
X189856904Y-79001904D01*
X189809285Y-79097142D01*
X189761666Y-79144761D01*
X189666428Y-79192380D01*
X189380714Y-79192380D01*
X189285476Y-79144761D01*
X189237857Y-79097142D01*
X187999761Y-85542380D02*
X187428333Y-85542380D01*
X187714047Y-85542380D02*
X187714047Y-84542380D01*
X187618809Y-84685238D01*
X187523571Y-84780476D01*
X187428333Y-84828095D01*
X188856904Y-84875714D02*
X188856904Y-85542380D01*
X188428333Y-84875714D02*
X188428333Y-85399523D01*
X188475952Y-85494761D01*
X188571190Y-85542380D01*
X188714047Y-85542380D01*
X188809285Y-85494761D01*
X188856904Y-85447142D01*
X189666428Y-85018571D02*
X189333095Y-85018571D01*
X189333095Y-85542380D02*
X189333095Y-84542380D01*
X189809285Y-84542380D01*
%TO.C,R16*%
X183332380Y-88627976D02*
X182856190Y-88961309D01*
X183332380Y-89199404D02*
X182332380Y-89199404D01*
X182332380Y-88818452D01*
X182380000Y-88723214D01*
X182427619Y-88675595D01*
X182522857Y-88627976D01*
X182665714Y-88627976D01*
X182760952Y-88675595D01*
X182808571Y-88723214D01*
X182856190Y-88818452D01*
X182856190Y-89199404D01*
X183332380Y-87675595D02*
X183332380Y-88247023D01*
X183332380Y-87961309D02*
X182332380Y-87961309D01*
X182475238Y-88056547D01*
X182570476Y-88151785D01*
X182618095Y-88247023D01*
X182332380Y-86818452D02*
X182332380Y-87008928D01*
X182380000Y-87104166D01*
X182427619Y-87151785D01*
X182570476Y-87247023D01*
X182760952Y-87294642D01*
X183141904Y-87294642D01*
X183237142Y-87247023D01*
X183284761Y-87199404D01*
X183332380Y-87104166D01*
X183332380Y-86913690D01*
X183284761Y-86818452D01*
X183237142Y-86770833D01*
X183141904Y-86723214D01*
X182903809Y-86723214D01*
X182808571Y-86770833D01*
X182760952Y-86818452D01*
X182713333Y-86913690D01*
X182713333Y-87104166D01*
X182760952Y-87199404D01*
X182808571Y-87247023D01*
X182903809Y-87294642D01*
X183332380Y-96956428D02*
X183332380Y-97527857D01*
X183332380Y-97242142D02*
X182332380Y-97242142D01*
X182475238Y-97337380D01*
X182570476Y-97432619D01*
X182618095Y-97527857D01*
X182332380Y-96337380D02*
X182332380Y-96242142D01*
X182380000Y-96146904D01*
X182427619Y-96099285D01*
X182522857Y-96051666D01*
X182713333Y-96004047D01*
X182951428Y-96004047D01*
X183141904Y-96051666D01*
X183237142Y-96099285D01*
X183284761Y-96146904D01*
X183332380Y-96242142D01*
X183332380Y-96337380D01*
X183284761Y-96432619D01*
X183237142Y-96480238D01*
X183141904Y-96527857D01*
X182951428Y-96575476D01*
X182713333Y-96575476D01*
X182522857Y-96527857D01*
X182427619Y-96480238D01*
X182380000Y-96432619D01*
X182332380Y-96337380D01*
X182332380Y-95385000D02*
X182332380Y-95289761D01*
X182380000Y-95194523D01*
X182427619Y-95146904D01*
X182522857Y-95099285D01*
X182713333Y-95051666D01*
X182951428Y-95051666D01*
X183141904Y-95099285D01*
X183237142Y-95146904D01*
X183284761Y-95194523D01*
X183332380Y-95289761D01*
X183332380Y-95385000D01*
X183284761Y-95480238D01*
X183237142Y-95527857D01*
X183141904Y-95575476D01*
X182951428Y-95623095D01*
X182713333Y-95623095D01*
X182522857Y-95575476D01*
X182427619Y-95527857D01*
X182380000Y-95480238D01*
X182332380Y-95385000D01*
X183332380Y-94623095D02*
X182332380Y-94623095D01*
X182951428Y-94527857D02*
X183332380Y-94242142D01*
X182665714Y-94242142D02*
X183046666Y-94623095D01*
%TO.C,R23*%
X183332380Y-48622976D02*
X182856190Y-48956309D01*
X183332380Y-49194404D02*
X182332380Y-49194404D01*
X182332380Y-48813452D01*
X182380000Y-48718214D01*
X182427619Y-48670595D01*
X182522857Y-48622976D01*
X182665714Y-48622976D01*
X182760952Y-48670595D01*
X182808571Y-48718214D01*
X182856190Y-48813452D01*
X182856190Y-49194404D01*
X182427619Y-48242023D02*
X182380000Y-48194404D01*
X182332380Y-48099166D01*
X182332380Y-47861071D01*
X182380000Y-47765833D01*
X182427619Y-47718214D01*
X182522857Y-47670595D01*
X182618095Y-47670595D01*
X182760952Y-47718214D01*
X183332380Y-48289642D01*
X183332380Y-47670595D01*
X182332380Y-47337261D02*
X182332380Y-46718214D01*
X182713333Y-47051547D01*
X182713333Y-46908690D01*
X182760952Y-46813452D01*
X182808571Y-46765833D01*
X182903809Y-46718214D01*
X183141904Y-46718214D01*
X183237142Y-46765833D01*
X183284761Y-46813452D01*
X183332380Y-46908690D01*
X183332380Y-47194404D01*
X183284761Y-47289642D01*
X183237142Y-47337261D01*
X182332380Y-57094285D02*
X182332380Y-56475238D01*
X182713333Y-56808571D01*
X182713333Y-56665714D01*
X182760952Y-56570476D01*
X182808571Y-56522857D01*
X182903809Y-56475238D01*
X183141904Y-56475238D01*
X183237142Y-56522857D01*
X183284761Y-56570476D01*
X183332380Y-56665714D01*
X183332380Y-56951428D01*
X183284761Y-57046666D01*
X183237142Y-57094285D01*
X182332380Y-56141904D02*
X182332380Y-55522857D01*
X182713333Y-55856190D01*
X182713333Y-55713333D01*
X182760952Y-55618095D01*
X182808571Y-55570476D01*
X182903809Y-55522857D01*
X183141904Y-55522857D01*
X183237142Y-55570476D01*
X183284761Y-55618095D01*
X183332380Y-55713333D01*
X183332380Y-55999047D01*
X183284761Y-56094285D01*
X183237142Y-56141904D01*
X183332380Y-55094285D02*
X182332380Y-55094285D01*
X182951428Y-54999047D02*
X183332380Y-54713333D01*
X182665714Y-54713333D02*
X183046666Y-55094285D01*
%TO.C,C8*%
X191164642Y-115901142D02*
X191117023Y-115948761D01*
X190974166Y-115996380D01*
X190878928Y-115996380D01*
X190736071Y-115948761D01*
X190640833Y-115853523D01*
X190593214Y-115758285D01*
X190545595Y-115567809D01*
X190545595Y-115424952D01*
X190593214Y-115234476D01*
X190640833Y-115139238D01*
X190736071Y-115044000D01*
X190878928Y-114996380D01*
X190974166Y-114996380D01*
X191117023Y-115044000D01*
X191164642Y-115091619D01*
X191736071Y-115424952D02*
X191640833Y-115377333D01*
X191593214Y-115329714D01*
X191545595Y-115234476D01*
X191545595Y-115186857D01*
X191593214Y-115091619D01*
X191640833Y-115044000D01*
X191736071Y-114996380D01*
X191926547Y-114996380D01*
X192021785Y-115044000D01*
X192069404Y-115091619D01*
X192117023Y-115186857D01*
X192117023Y-115234476D01*
X192069404Y-115329714D01*
X192021785Y-115377333D01*
X191926547Y-115424952D01*
X191736071Y-115424952D01*
X191640833Y-115472571D01*
X191593214Y-115520190D01*
X191545595Y-115615428D01*
X191545595Y-115805904D01*
X191593214Y-115901142D01*
X191640833Y-115948761D01*
X191736071Y-115996380D01*
X191926547Y-115996380D01*
X192021785Y-115948761D01*
X192069404Y-115901142D01*
X192117023Y-115805904D01*
X192117023Y-115615428D01*
X192069404Y-115520190D01*
X192021785Y-115472571D01*
X191926547Y-115424952D01*
X190539761Y-117292380D02*
X189968333Y-117292380D01*
X190254047Y-117292380D02*
X190254047Y-116292380D01*
X190158809Y-116435238D01*
X190063571Y-116530476D01*
X189968333Y-116578095D01*
X191396904Y-116625714D02*
X191396904Y-117292380D01*
X190968333Y-116625714D02*
X190968333Y-117149523D01*
X191015952Y-117244761D01*
X191111190Y-117292380D01*
X191254047Y-117292380D01*
X191349285Y-117244761D01*
X191396904Y-117197142D01*
X192206428Y-116768571D02*
X191873095Y-116768571D01*
X191873095Y-117292380D02*
X191873095Y-116292380D01*
X192349285Y-116292380D01*
%TO.C,R20*%
X179014380Y-76842857D02*
X178538190Y-77176190D01*
X179014380Y-77414285D02*
X178014380Y-77414285D01*
X178014380Y-77033333D01*
X178062000Y-76938095D01*
X178109619Y-76890476D01*
X178204857Y-76842857D01*
X178347714Y-76842857D01*
X178442952Y-76890476D01*
X178490571Y-76938095D01*
X178538190Y-77033333D01*
X178538190Y-77414285D01*
X178109619Y-76461904D02*
X178062000Y-76414285D01*
X178014380Y-76319047D01*
X178014380Y-76080952D01*
X178062000Y-75985714D01*
X178109619Y-75938095D01*
X178204857Y-75890476D01*
X178300095Y-75890476D01*
X178442952Y-75938095D01*
X179014380Y-76509523D01*
X179014380Y-75890476D01*
X178014380Y-75271428D02*
X178014380Y-75176190D01*
X178062000Y-75080952D01*
X178109619Y-75033333D01*
X178204857Y-74985714D01*
X178395333Y-74938095D01*
X178633428Y-74938095D01*
X178823904Y-74985714D01*
X178919142Y-75033333D01*
X178966761Y-75080952D01*
X179014380Y-75176190D01*
X179014380Y-75271428D01*
X178966761Y-75366666D01*
X178919142Y-75414285D01*
X178823904Y-75461904D01*
X178633428Y-75509523D01*
X178395333Y-75509523D01*
X178204857Y-75461904D01*
X178109619Y-75414285D01*
X178062000Y-75366666D01*
X178014380Y-75271428D01*
X179797380Y-72374285D02*
X179797380Y-71755238D01*
X180178333Y-72088571D01*
X180178333Y-71945714D01*
X180225952Y-71850476D01*
X180273571Y-71802857D01*
X180368809Y-71755238D01*
X180606904Y-71755238D01*
X180702142Y-71802857D01*
X180749761Y-71850476D01*
X180797380Y-71945714D01*
X180797380Y-72231428D01*
X180749761Y-72326666D01*
X180702142Y-72374285D01*
X179797380Y-71421904D02*
X179797380Y-70802857D01*
X180178333Y-71136190D01*
X180178333Y-70993333D01*
X180225952Y-70898095D01*
X180273571Y-70850476D01*
X180368809Y-70802857D01*
X180606904Y-70802857D01*
X180702142Y-70850476D01*
X180749761Y-70898095D01*
X180797380Y-70993333D01*
X180797380Y-71279047D01*
X180749761Y-71374285D01*
X180702142Y-71421904D01*
X180797380Y-70374285D02*
X179797380Y-70374285D01*
X180416428Y-70279047D02*
X180797380Y-69993333D01*
X180130714Y-69993333D02*
X180511666Y-70374285D01*
%TO.C,C16*%
X180697142Y-58742976D02*
X180744761Y-58790595D01*
X180792380Y-58933452D01*
X180792380Y-59028690D01*
X180744761Y-59171547D01*
X180649523Y-59266785D01*
X180554285Y-59314404D01*
X180363809Y-59362023D01*
X180220952Y-59362023D01*
X180030476Y-59314404D01*
X179935238Y-59266785D01*
X179840000Y-59171547D01*
X179792380Y-59028690D01*
X179792380Y-58933452D01*
X179840000Y-58790595D01*
X179887619Y-58742976D01*
X180792380Y-57790595D02*
X180792380Y-58362023D01*
X180792380Y-58076309D02*
X179792380Y-58076309D01*
X179935238Y-58171547D01*
X180030476Y-58266785D01*
X180078095Y-58362023D01*
X179792380Y-56933452D02*
X179792380Y-57123928D01*
X179840000Y-57219166D01*
X179887619Y-57266785D01*
X180030476Y-57362023D01*
X180220952Y-57409642D01*
X180601904Y-57409642D01*
X180697142Y-57362023D01*
X180744761Y-57314404D01*
X180792380Y-57219166D01*
X180792380Y-57028690D01*
X180744761Y-56933452D01*
X180697142Y-56885833D01*
X180601904Y-56838214D01*
X180363809Y-56838214D01*
X180268571Y-56885833D01*
X180220952Y-56933452D01*
X180173333Y-57028690D01*
X180173333Y-57219166D01*
X180220952Y-57314404D01*
X180268571Y-57362023D01*
X180363809Y-57409642D01*
X180792380Y-54980595D02*
X180792380Y-55552023D01*
X180792380Y-55266309D02*
X179792380Y-55266309D01*
X179935238Y-55361547D01*
X180030476Y-55456785D01*
X180078095Y-55552023D01*
X179792380Y-54361547D02*
X179792380Y-54266309D01*
X179840000Y-54171071D01*
X179887619Y-54123452D01*
X179982857Y-54075833D01*
X180173333Y-54028214D01*
X180411428Y-54028214D01*
X180601904Y-54075833D01*
X180697142Y-54123452D01*
X180744761Y-54171071D01*
X180792380Y-54266309D01*
X180792380Y-54361547D01*
X180744761Y-54456785D01*
X180697142Y-54504404D01*
X180601904Y-54552023D01*
X180411428Y-54599642D01*
X180173333Y-54599642D01*
X179982857Y-54552023D01*
X179887619Y-54504404D01*
X179840000Y-54456785D01*
X179792380Y-54361547D01*
X179792380Y-53409166D02*
X179792380Y-53313928D01*
X179840000Y-53218690D01*
X179887619Y-53171071D01*
X179982857Y-53123452D01*
X180173333Y-53075833D01*
X180411428Y-53075833D01*
X180601904Y-53123452D01*
X180697142Y-53171071D01*
X180744761Y-53218690D01*
X180792380Y-53313928D01*
X180792380Y-53409166D01*
X180744761Y-53504404D01*
X180697142Y-53552023D01*
X180601904Y-53599642D01*
X180411428Y-53647261D01*
X180173333Y-53647261D01*
X179982857Y-53599642D01*
X179887619Y-53552023D01*
X179840000Y-53504404D01*
X179792380Y-53409166D01*
X180125714Y-52647261D02*
X181125714Y-52647261D01*
X180173333Y-52647261D02*
X180125714Y-52552023D01*
X180125714Y-52361547D01*
X180173333Y-52266309D01*
X180220952Y-52218690D01*
X180316190Y-52171071D01*
X180601904Y-52171071D01*
X180697142Y-52218690D01*
X180744761Y-52266309D01*
X180792380Y-52361547D01*
X180792380Y-52552023D01*
X180744761Y-52647261D01*
X180268571Y-51409166D02*
X180268571Y-51742500D01*
X180792380Y-51742500D02*
X179792380Y-51742500D01*
X179792380Y-51266309D01*
%TO.C,R10*%
X183332380Y-131097738D02*
X182856190Y-131431071D01*
X183332380Y-131669166D02*
X182332380Y-131669166D01*
X182332380Y-131288214D01*
X182380000Y-131192976D01*
X182427619Y-131145357D01*
X182522857Y-131097738D01*
X182665714Y-131097738D01*
X182760952Y-131145357D01*
X182808571Y-131192976D01*
X182856190Y-131288214D01*
X182856190Y-131669166D01*
X183332380Y-130145357D02*
X183332380Y-130716785D01*
X183332380Y-130431071D02*
X182332380Y-130431071D01*
X182475238Y-130526309D01*
X182570476Y-130621547D01*
X182618095Y-130716785D01*
X182332380Y-129526309D02*
X182332380Y-129431071D01*
X182380000Y-129335833D01*
X182427619Y-129288214D01*
X182522857Y-129240595D01*
X182713333Y-129192976D01*
X182951428Y-129192976D01*
X183141904Y-129240595D01*
X183237142Y-129288214D01*
X183284761Y-129335833D01*
X183332380Y-129431071D01*
X183332380Y-129526309D01*
X183284761Y-129621547D01*
X183237142Y-129669166D01*
X183141904Y-129716785D01*
X182951428Y-129764404D01*
X182713333Y-129764404D01*
X182522857Y-129716785D01*
X182427619Y-129669166D01*
X182380000Y-129621547D01*
X182332380Y-129526309D01*
X183332380Y-123626428D02*
X183332380Y-124197857D01*
X183332380Y-123912142D02*
X182332380Y-123912142D01*
X182475238Y-124007380D01*
X182570476Y-124102619D01*
X182618095Y-124197857D01*
X182332380Y-123007380D02*
X182332380Y-122912142D01*
X182380000Y-122816904D01*
X182427619Y-122769285D01*
X182522857Y-122721666D01*
X182713333Y-122674047D01*
X182951428Y-122674047D01*
X183141904Y-122721666D01*
X183237142Y-122769285D01*
X183284761Y-122816904D01*
X183332380Y-122912142D01*
X183332380Y-123007380D01*
X183284761Y-123102619D01*
X183237142Y-123150238D01*
X183141904Y-123197857D01*
X182951428Y-123245476D01*
X182713333Y-123245476D01*
X182522857Y-123197857D01*
X182427619Y-123150238D01*
X182380000Y-123102619D01*
X182332380Y-123007380D01*
X182332380Y-122055000D02*
X182332380Y-121959761D01*
X182380000Y-121864523D01*
X182427619Y-121816904D01*
X182522857Y-121769285D01*
X182713333Y-121721666D01*
X182951428Y-121721666D01*
X183141904Y-121769285D01*
X183237142Y-121816904D01*
X183284761Y-121864523D01*
X183332380Y-121959761D01*
X183332380Y-122055000D01*
X183284761Y-122150238D01*
X183237142Y-122197857D01*
X183141904Y-122245476D01*
X182951428Y-122293095D01*
X182713333Y-122293095D01*
X182522857Y-122245476D01*
X182427619Y-122197857D01*
X182380000Y-122150238D01*
X182332380Y-122055000D01*
X183332380Y-121293095D02*
X182332380Y-121293095D01*
X182951428Y-121197857D02*
X183332380Y-120912142D01*
X182665714Y-120912142D02*
X183046666Y-121293095D01*
%TO.C,C4*%
X190857142Y-96247976D02*
X190904761Y-96295595D01*
X190952380Y-96438452D01*
X190952380Y-96533690D01*
X190904761Y-96676547D01*
X190809523Y-96771785D01*
X190714285Y-96819404D01*
X190523809Y-96867023D01*
X190380952Y-96867023D01*
X190190476Y-96819404D01*
X190095238Y-96771785D01*
X190000000Y-96676547D01*
X189952380Y-96533690D01*
X189952380Y-96438452D01*
X190000000Y-96295595D01*
X190047619Y-96247976D01*
X190285714Y-95390833D02*
X190952380Y-95390833D01*
X189904761Y-95628928D02*
X190619047Y-95867023D01*
X190619047Y-95247976D01*
%TO.C,D1*%
X203017380Y-77573095D02*
X202017380Y-77573095D01*
X202017380Y-77335000D01*
X202065000Y-77192142D01*
X202160238Y-77096904D01*
X202255476Y-77049285D01*
X202445952Y-77001666D01*
X202588809Y-77001666D01*
X202779285Y-77049285D01*
X202874523Y-77096904D01*
X202969761Y-77192142D01*
X203017380Y-77335000D01*
X203017380Y-77573095D01*
X203017380Y-76049285D02*
X203017380Y-76620714D01*
X203017380Y-76335000D02*
X202017380Y-76335000D01*
X202160238Y-76430238D01*
X202255476Y-76525476D01*
X202303095Y-76620714D01*
%TO.C,RV2*%
X197174761Y-89352380D02*
X196841428Y-88876190D01*
X196603333Y-89352380D02*
X196603333Y-88352380D01*
X196984285Y-88352380D01*
X197079523Y-88400000D01*
X197127142Y-88447619D01*
X197174761Y-88542857D01*
X197174761Y-88685714D01*
X197127142Y-88780952D01*
X197079523Y-88828571D01*
X196984285Y-88876190D01*
X196603333Y-88876190D01*
X197460476Y-88352380D02*
X197793809Y-89352380D01*
X198127142Y-88352380D01*
X198412857Y-88447619D02*
X198460476Y-88400000D01*
X198555714Y-88352380D01*
X198793809Y-88352380D01*
X198889047Y-88400000D01*
X198936666Y-88447619D01*
X198984285Y-88542857D01*
X198984285Y-88638095D01*
X198936666Y-88780952D01*
X198365238Y-89352380D01*
X198984285Y-89352380D01*
%TO.C,U2*%
X182332380Y-73995404D02*
X183141904Y-73995404D01*
X183237142Y-73947785D01*
X183284761Y-73900166D01*
X183332380Y-73804928D01*
X183332380Y-73614452D01*
X183284761Y-73519214D01*
X183237142Y-73471595D01*
X183141904Y-73423976D01*
X182332380Y-73423976D01*
X182427619Y-72995404D02*
X182380000Y-72947785D01*
X182332380Y-72852547D01*
X182332380Y-72614452D01*
X182380000Y-72519214D01*
X182427619Y-72471595D01*
X182522857Y-72423976D01*
X182618095Y-72423976D01*
X182760952Y-72471595D01*
X183332380Y-73043023D01*
X183332380Y-72423976D01*
X188380952Y-66762380D02*
X188952380Y-66762380D01*
X188666666Y-67762380D02*
X188666666Y-66762380D01*
X189761904Y-67762380D02*
X189285714Y-67762380D01*
X189285714Y-66762380D01*
X190285714Y-66762380D02*
X190380952Y-66762380D01*
X190476190Y-66810000D01*
X190523809Y-66857619D01*
X190571428Y-66952857D01*
X190619047Y-67143333D01*
X190619047Y-67381428D01*
X190571428Y-67571904D01*
X190523809Y-67667142D01*
X190476190Y-67714761D01*
X190380952Y-67762380D01*
X190285714Y-67762380D01*
X190190476Y-67714761D01*
X190142857Y-67667142D01*
X190095238Y-67571904D01*
X190047619Y-67381428D01*
X190047619Y-67143333D01*
X190095238Y-66952857D01*
X190142857Y-66857619D01*
X190190476Y-66810000D01*
X190285714Y-66762380D01*
X190952380Y-66762380D02*
X191619047Y-66762380D01*
X191190476Y-67762380D01*
X192428571Y-67095714D02*
X192428571Y-67762380D01*
X192190476Y-66714761D02*
X191952380Y-67429047D01*
X192571428Y-67429047D01*
%TO.C,Q2*%
X181514761Y-79922619D02*
X181419523Y-79875000D01*
X181324285Y-79779761D01*
X181181428Y-79636904D01*
X181086190Y-79589285D01*
X180990952Y-79589285D01*
X181038571Y-79827380D02*
X180943333Y-79779761D01*
X180848095Y-79684523D01*
X180800476Y-79494047D01*
X180800476Y-79160714D01*
X180848095Y-78970238D01*
X180943333Y-78875000D01*
X181038571Y-78827380D01*
X181229047Y-78827380D01*
X181324285Y-78875000D01*
X181419523Y-78970238D01*
X181467142Y-79160714D01*
X181467142Y-79494047D01*
X181419523Y-79684523D01*
X181324285Y-79779761D01*
X181229047Y-79827380D01*
X181038571Y-79827380D01*
X181848095Y-78922619D02*
X181895714Y-78875000D01*
X181990952Y-78827380D01*
X182229047Y-78827380D01*
X182324285Y-78875000D01*
X182371904Y-78922619D01*
X182419523Y-79017857D01*
X182419523Y-79113095D01*
X182371904Y-79255952D01*
X181800476Y-79827380D01*
X182419523Y-79827380D01*
X183499285Y-78827380D02*
X183499285Y-79541666D01*
X183451666Y-79684523D01*
X183356428Y-79779761D01*
X183213571Y-79827380D01*
X183118333Y-79827380D01*
X184499285Y-79827380D02*
X183927857Y-79827380D01*
X184213571Y-79827380D02*
X184213571Y-78827380D01*
X184118333Y-78970238D01*
X184023095Y-79065476D01*
X183927857Y-79113095D01*
X185451666Y-79827380D02*
X184880238Y-79827380D01*
X185165952Y-79827380D02*
X185165952Y-78827380D01*
X185070714Y-78970238D01*
X184975476Y-79065476D01*
X184880238Y-79113095D01*
X185785000Y-78827380D02*
X186404047Y-78827380D01*
X186070714Y-79208333D01*
X186213571Y-79208333D01*
X186308809Y-79255952D01*
X186356428Y-79303571D01*
X186404047Y-79398809D01*
X186404047Y-79636904D01*
X186356428Y-79732142D01*
X186308809Y-79779761D01*
X186213571Y-79827380D01*
X185927857Y-79827380D01*
X185832619Y-79779761D01*
X185785000Y-79732142D01*
%TO.C,C2*%
X199973333Y-140057142D02*
X199925714Y-140104761D01*
X199782857Y-140152380D01*
X199687619Y-140152380D01*
X199544761Y-140104761D01*
X199449523Y-140009523D01*
X199401904Y-139914285D01*
X199354285Y-139723809D01*
X199354285Y-139580952D01*
X199401904Y-139390476D01*
X199449523Y-139295238D01*
X199544761Y-139200000D01*
X199687619Y-139152380D01*
X199782857Y-139152380D01*
X199925714Y-139200000D01*
X199973333Y-139247619D01*
X200354285Y-139247619D02*
X200401904Y-139200000D01*
X200497142Y-139152380D01*
X200735238Y-139152380D01*
X200830476Y-139200000D01*
X200878095Y-139247619D01*
X200925714Y-139342857D01*
X200925714Y-139438095D01*
X200878095Y-139580952D01*
X200306666Y-140152380D01*
X200925714Y-140152380D01*
X199068571Y-142057380D02*
X198497142Y-142057380D01*
X198782857Y-142057380D02*
X198782857Y-141057380D01*
X198687619Y-141200238D01*
X198592380Y-141295476D01*
X198497142Y-141343095D01*
X199687619Y-141057380D02*
X199782857Y-141057380D01*
X199878095Y-141105000D01*
X199925714Y-141152619D01*
X199973333Y-141247857D01*
X200020952Y-141438333D01*
X200020952Y-141676428D01*
X199973333Y-141866904D01*
X199925714Y-141962142D01*
X199878095Y-142009761D01*
X199782857Y-142057380D01*
X199687619Y-142057380D01*
X199592380Y-142009761D01*
X199544761Y-141962142D01*
X199497142Y-141866904D01*
X199449523Y-141676428D01*
X199449523Y-141438333D01*
X199497142Y-141247857D01*
X199544761Y-141152619D01*
X199592380Y-141105000D01*
X199687619Y-141057380D01*
X200878095Y-141390714D02*
X200878095Y-142057380D01*
X200449523Y-141390714D02*
X200449523Y-141914523D01*
X200497142Y-142009761D01*
X200592380Y-142057380D01*
X200735238Y-142057380D01*
X200830476Y-142009761D01*
X200878095Y-141962142D01*
X201687619Y-141533571D02*
X201354285Y-141533571D01*
X201354285Y-142057380D02*
X201354285Y-141057380D01*
X201830476Y-141057380D01*
%TO.C,R15*%
X185872380Y-88627976D02*
X185396190Y-88961309D01*
X185872380Y-89199404D02*
X184872380Y-89199404D01*
X184872380Y-88818452D01*
X184920000Y-88723214D01*
X184967619Y-88675595D01*
X185062857Y-88627976D01*
X185205714Y-88627976D01*
X185300952Y-88675595D01*
X185348571Y-88723214D01*
X185396190Y-88818452D01*
X185396190Y-89199404D01*
X185872380Y-87675595D02*
X185872380Y-88247023D01*
X185872380Y-87961309D02*
X184872380Y-87961309D01*
X185015238Y-88056547D01*
X185110476Y-88151785D01*
X185158095Y-88247023D01*
X184872380Y-86770833D02*
X184872380Y-87247023D01*
X185348571Y-87294642D01*
X185300952Y-87247023D01*
X185253333Y-87151785D01*
X185253333Y-86913690D01*
X185300952Y-86818452D01*
X185348571Y-86770833D01*
X185443809Y-86723214D01*
X185681904Y-86723214D01*
X185777142Y-86770833D01*
X185824761Y-86818452D01*
X185872380Y-86913690D01*
X185872380Y-87151785D01*
X185824761Y-87247023D01*
X185777142Y-87294642D01*
X184872380Y-97099285D02*
X184872380Y-96480238D01*
X185253333Y-96813571D01*
X185253333Y-96670714D01*
X185300952Y-96575476D01*
X185348571Y-96527857D01*
X185443809Y-96480238D01*
X185681904Y-96480238D01*
X185777142Y-96527857D01*
X185824761Y-96575476D01*
X185872380Y-96670714D01*
X185872380Y-96956428D01*
X185824761Y-97051666D01*
X185777142Y-97099285D01*
X184872380Y-96146904D02*
X184872380Y-95527857D01*
X185253333Y-95861190D01*
X185253333Y-95718333D01*
X185300952Y-95623095D01*
X185348571Y-95575476D01*
X185443809Y-95527857D01*
X185681904Y-95527857D01*
X185777142Y-95575476D01*
X185824761Y-95623095D01*
X185872380Y-95718333D01*
X185872380Y-96004047D01*
X185824761Y-96099285D01*
X185777142Y-96146904D01*
X185872380Y-95099285D02*
X184872380Y-95099285D01*
X185491428Y-95004047D02*
X185872380Y-94718333D01*
X185205714Y-94718333D02*
X185586666Y-95099285D01*
%TO.C,D2*%
X179014380Y-100433095D02*
X178014380Y-100433095D01*
X178014380Y-100195000D01*
X178062000Y-100052142D01*
X178157238Y-99956904D01*
X178252476Y-99909285D01*
X178442952Y-99861666D01*
X178585809Y-99861666D01*
X178776285Y-99909285D01*
X178871523Y-99956904D01*
X178966761Y-100052142D01*
X179014380Y-100195000D01*
X179014380Y-100433095D01*
X178109619Y-99480714D02*
X178062000Y-99433095D01*
X178014380Y-99337857D01*
X178014380Y-99099761D01*
X178062000Y-99004523D01*
X178109619Y-98956904D01*
X178204857Y-98909285D01*
X178300095Y-98909285D01*
X178442952Y-98956904D01*
X179014380Y-99528333D01*
X179014380Y-98909285D01*
%TO.C,R5*%
X198572380Y-48622976D02*
X198096190Y-48956309D01*
X198572380Y-49194404D02*
X197572380Y-49194404D01*
X197572380Y-48813452D01*
X197620000Y-48718214D01*
X197667619Y-48670595D01*
X197762857Y-48622976D01*
X197905714Y-48622976D01*
X198000952Y-48670595D01*
X198048571Y-48718214D01*
X198096190Y-48813452D01*
X198096190Y-49194404D01*
X197572380Y-47718214D02*
X197572380Y-48194404D01*
X198048571Y-48242023D01*
X198000952Y-48194404D01*
X197953333Y-48099166D01*
X197953333Y-47861071D01*
X198000952Y-47765833D01*
X198048571Y-47718214D01*
X198143809Y-47670595D01*
X198381904Y-47670595D01*
X198477142Y-47718214D01*
X198524761Y-47765833D01*
X198572380Y-47861071D01*
X198572380Y-48099166D01*
X198524761Y-48194404D01*
X198477142Y-48242023D01*
X197910714Y-56570476D02*
X198577380Y-56570476D01*
X197529761Y-56808571D02*
X198244047Y-57046666D01*
X198244047Y-56427619D01*
X197577380Y-56141904D02*
X197577380Y-55475238D01*
X198577380Y-55903809D01*
X198577380Y-55094285D02*
X197577380Y-55094285D01*
X198196428Y-54999047D02*
X198577380Y-54713333D01*
X197910714Y-54713333D02*
X198291666Y-55094285D01*
%TO.C,R3*%
X196032380Y-48622976D02*
X195556190Y-48956309D01*
X196032380Y-49194404D02*
X195032380Y-49194404D01*
X195032380Y-48813452D01*
X195080000Y-48718214D01*
X195127619Y-48670595D01*
X195222857Y-48622976D01*
X195365714Y-48622976D01*
X195460952Y-48670595D01*
X195508571Y-48718214D01*
X195556190Y-48813452D01*
X195556190Y-49194404D01*
X195032380Y-48289642D02*
X195032380Y-47670595D01*
X195413333Y-48003928D01*
X195413333Y-47861071D01*
X195460952Y-47765833D01*
X195508571Y-47718214D01*
X195603809Y-47670595D01*
X195841904Y-47670595D01*
X195937142Y-47718214D01*
X195984761Y-47765833D01*
X196032380Y-47861071D01*
X196032380Y-48146785D01*
X195984761Y-48242023D01*
X195937142Y-48289642D01*
X196032380Y-56951428D02*
X196032380Y-57522857D01*
X196032380Y-57237142D02*
X195032380Y-57237142D01*
X195175238Y-57332380D01*
X195270476Y-57427619D01*
X195318095Y-57522857D01*
X195032380Y-56332380D02*
X195032380Y-56237142D01*
X195080000Y-56141904D01*
X195127619Y-56094285D01*
X195222857Y-56046666D01*
X195413333Y-55999047D01*
X195651428Y-55999047D01*
X195841904Y-56046666D01*
X195937142Y-56094285D01*
X195984761Y-56141904D01*
X196032380Y-56237142D01*
X196032380Y-56332380D01*
X195984761Y-56427619D01*
X195937142Y-56475238D01*
X195841904Y-56522857D01*
X195651428Y-56570476D01*
X195413333Y-56570476D01*
X195222857Y-56522857D01*
X195127619Y-56475238D01*
X195080000Y-56427619D01*
X195032380Y-56332380D01*
X195032380Y-55380000D02*
X195032380Y-55284761D01*
X195080000Y-55189523D01*
X195127619Y-55141904D01*
X195222857Y-55094285D01*
X195413333Y-55046666D01*
X195651428Y-55046666D01*
X195841904Y-55094285D01*
X195937142Y-55141904D01*
X195984761Y-55189523D01*
X196032380Y-55284761D01*
X196032380Y-55380000D01*
X195984761Y-55475238D01*
X195937142Y-55522857D01*
X195841904Y-55570476D01*
X195651428Y-55618095D01*
X195413333Y-55618095D01*
X195222857Y-55570476D01*
X195127619Y-55522857D01*
X195080000Y-55475238D01*
X195032380Y-55380000D01*
X196032380Y-54618095D02*
X195032380Y-54618095D01*
X195651428Y-54522857D02*
X196032380Y-54237142D01*
X195365714Y-54237142D02*
X195746666Y-54618095D01*
%TO.C,R17*%
X179014380Y-83700857D02*
X178538190Y-84034190D01*
X179014380Y-84272285D02*
X178014380Y-84272285D01*
X178014380Y-83891333D01*
X178062000Y-83796095D01*
X178109619Y-83748476D01*
X178204857Y-83700857D01*
X178347714Y-83700857D01*
X178442952Y-83748476D01*
X178490571Y-83796095D01*
X178538190Y-83891333D01*
X178538190Y-84272285D01*
X179014380Y-82748476D02*
X179014380Y-83319904D01*
X179014380Y-83034190D02*
X178014380Y-83034190D01*
X178157238Y-83129428D01*
X178252476Y-83224666D01*
X178300095Y-83319904D01*
X178014380Y-82415142D02*
X178014380Y-81748476D01*
X179014380Y-82177047D01*
X180792380Y-88550714D02*
X180792380Y-89122142D01*
X180792380Y-88836428D02*
X179792380Y-88836428D01*
X179935238Y-88931666D01*
X180030476Y-89026904D01*
X180078095Y-89122142D01*
X180792380Y-88122142D02*
X179792380Y-88122142D01*
X180506666Y-87788809D01*
X179792380Y-87455476D01*
X180792380Y-87455476D01*
%TO.C,C3*%
X187158333Y-115927142D02*
X187110714Y-115974761D01*
X186967857Y-116022380D01*
X186872619Y-116022380D01*
X186729761Y-115974761D01*
X186634523Y-115879523D01*
X186586904Y-115784285D01*
X186539285Y-115593809D01*
X186539285Y-115450952D01*
X186586904Y-115260476D01*
X186634523Y-115165238D01*
X186729761Y-115070000D01*
X186872619Y-115022380D01*
X186967857Y-115022380D01*
X187110714Y-115070000D01*
X187158333Y-115117619D01*
X187491666Y-115022380D02*
X188110714Y-115022380D01*
X187777380Y-115403333D01*
X187920238Y-115403333D01*
X188015476Y-115450952D01*
X188063095Y-115498571D01*
X188110714Y-115593809D01*
X188110714Y-115831904D01*
X188063095Y-115927142D01*
X188015476Y-115974761D01*
X187920238Y-116022380D01*
X187634523Y-116022380D01*
X187539285Y-115974761D01*
X187491666Y-115927142D01*
%TO.C,R22*%
X188412380Y-48582976D02*
X187936190Y-48916309D01*
X188412380Y-49154404D02*
X187412380Y-49154404D01*
X187412380Y-48773452D01*
X187460000Y-48678214D01*
X187507619Y-48630595D01*
X187602857Y-48582976D01*
X187745714Y-48582976D01*
X187840952Y-48630595D01*
X187888571Y-48678214D01*
X187936190Y-48773452D01*
X187936190Y-49154404D01*
X187507619Y-48202023D02*
X187460000Y-48154404D01*
X187412380Y-48059166D01*
X187412380Y-47821071D01*
X187460000Y-47725833D01*
X187507619Y-47678214D01*
X187602857Y-47630595D01*
X187698095Y-47630595D01*
X187840952Y-47678214D01*
X188412380Y-48249642D01*
X188412380Y-47630595D01*
X187507619Y-47249642D02*
X187460000Y-47202023D01*
X187412380Y-47106785D01*
X187412380Y-46868690D01*
X187460000Y-46773452D01*
X187507619Y-46725833D01*
X187602857Y-46678214D01*
X187698095Y-46678214D01*
X187840952Y-46725833D01*
X188412380Y-47297261D01*
X188412380Y-46678214D01*
X187417380Y-56570476D02*
X187417380Y-56760952D01*
X187465000Y-56856190D01*
X187512619Y-56903809D01*
X187655476Y-56999047D01*
X187845952Y-57046666D01*
X188226904Y-57046666D01*
X188322142Y-56999047D01*
X188369761Y-56951428D01*
X188417380Y-56856190D01*
X188417380Y-56665714D01*
X188369761Y-56570476D01*
X188322142Y-56522857D01*
X188226904Y-56475238D01*
X187988809Y-56475238D01*
X187893571Y-56522857D01*
X187845952Y-56570476D01*
X187798333Y-56665714D01*
X187798333Y-56856190D01*
X187845952Y-56951428D01*
X187893571Y-56999047D01*
X187988809Y-57046666D01*
X188417380Y-56046666D02*
X187417380Y-56046666D01*
X188036428Y-55951428D02*
X188417380Y-55665714D01*
X187750714Y-55665714D02*
X188131666Y-56046666D01*
X187845952Y-55094285D02*
X187798333Y-55189523D01*
X187750714Y-55237142D01*
X187655476Y-55284761D01*
X187607857Y-55284761D01*
X187512619Y-55237142D01*
X187465000Y-55189523D01*
X187417380Y-55094285D01*
X187417380Y-54903809D01*
X187465000Y-54808571D01*
X187512619Y-54760952D01*
X187607857Y-54713333D01*
X187655476Y-54713333D01*
X187750714Y-54760952D01*
X187798333Y-54808571D01*
X187845952Y-54903809D01*
X187845952Y-55094285D01*
X187893571Y-55189523D01*
X187941190Y-55237142D01*
X188036428Y-55284761D01*
X188226904Y-55284761D01*
X188322142Y-55237142D01*
X188369761Y-55189523D01*
X188417380Y-55094285D01*
X188417380Y-54903809D01*
X188369761Y-54808571D01*
X188322142Y-54760952D01*
X188226904Y-54713333D01*
X188036428Y-54713333D01*
X187941190Y-54760952D01*
X187893571Y-54808571D01*
X187845952Y-54903809D01*
%TO.C,C5*%
X187989642Y-74017142D02*
X187942023Y-74064761D01*
X187799166Y-74112380D01*
X187703928Y-74112380D01*
X187561071Y-74064761D01*
X187465833Y-73969523D01*
X187418214Y-73874285D01*
X187370595Y-73683809D01*
X187370595Y-73540952D01*
X187418214Y-73350476D01*
X187465833Y-73255238D01*
X187561071Y-73160000D01*
X187703928Y-73112380D01*
X187799166Y-73112380D01*
X187942023Y-73160000D01*
X187989642Y-73207619D01*
X188894404Y-73112380D02*
X188418214Y-73112380D01*
X188370595Y-73588571D01*
X188418214Y-73540952D01*
X188513452Y-73493333D01*
X188751547Y-73493333D01*
X188846785Y-73540952D01*
X188894404Y-73588571D01*
X188942023Y-73683809D01*
X188942023Y-73921904D01*
X188894404Y-74017142D01*
X188846785Y-74064761D01*
X188751547Y-74112380D01*
X188513452Y-74112380D01*
X188418214Y-74064761D01*
X188370595Y-74017142D01*
%TO.C,C14*%
X201017142Y-101327976D02*
X201064761Y-101375595D01*
X201112380Y-101518452D01*
X201112380Y-101613690D01*
X201064761Y-101756547D01*
X200969523Y-101851785D01*
X200874285Y-101899404D01*
X200683809Y-101947023D01*
X200540952Y-101947023D01*
X200350476Y-101899404D01*
X200255238Y-101851785D01*
X200160000Y-101756547D01*
X200112380Y-101613690D01*
X200112380Y-101518452D01*
X200160000Y-101375595D01*
X200207619Y-101327976D01*
X201112380Y-100375595D02*
X201112380Y-100947023D01*
X201112380Y-100661309D02*
X200112380Y-100661309D01*
X200255238Y-100756547D01*
X200350476Y-100851785D01*
X200398095Y-100947023D01*
X200445714Y-99518452D02*
X201112380Y-99518452D01*
X200064761Y-99756547D02*
X200779047Y-99994642D01*
X200779047Y-99375595D01*
X201112380Y-97565595D02*
X201112380Y-98137023D01*
X201112380Y-97851309D02*
X200112380Y-97851309D01*
X200255238Y-97946547D01*
X200350476Y-98041785D01*
X200398095Y-98137023D01*
X200112380Y-96946547D02*
X200112380Y-96851309D01*
X200160000Y-96756071D01*
X200207619Y-96708452D01*
X200302857Y-96660833D01*
X200493333Y-96613214D01*
X200731428Y-96613214D01*
X200921904Y-96660833D01*
X201017142Y-96708452D01*
X201064761Y-96756071D01*
X201112380Y-96851309D01*
X201112380Y-96946547D01*
X201064761Y-97041785D01*
X201017142Y-97089404D01*
X200921904Y-97137023D01*
X200731428Y-97184642D01*
X200493333Y-97184642D01*
X200302857Y-97137023D01*
X200207619Y-97089404D01*
X200160000Y-97041785D01*
X200112380Y-96946547D01*
X200112380Y-95994166D02*
X200112380Y-95898928D01*
X200160000Y-95803690D01*
X200207619Y-95756071D01*
X200302857Y-95708452D01*
X200493333Y-95660833D01*
X200731428Y-95660833D01*
X200921904Y-95708452D01*
X201017142Y-95756071D01*
X201064761Y-95803690D01*
X201112380Y-95898928D01*
X201112380Y-95994166D01*
X201064761Y-96089404D01*
X201017142Y-96137023D01*
X200921904Y-96184642D01*
X200731428Y-96232261D01*
X200493333Y-96232261D01*
X200302857Y-96184642D01*
X200207619Y-96137023D01*
X200160000Y-96089404D01*
X200112380Y-95994166D01*
X200445714Y-95232261D02*
X201445714Y-95232261D01*
X200493333Y-95232261D02*
X200445714Y-95137023D01*
X200445714Y-94946547D01*
X200493333Y-94851309D01*
X200540952Y-94803690D01*
X200636190Y-94756071D01*
X200921904Y-94756071D01*
X201017142Y-94803690D01*
X201064761Y-94851309D01*
X201112380Y-94946547D01*
X201112380Y-95137023D01*
X201064761Y-95232261D01*
X200588571Y-93994166D02*
X200588571Y-94327500D01*
X201112380Y-94327500D02*
X200112380Y-94327500D01*
X200112380Y-93851309D01*
%TO.C,Q1*%
X200564761Y-118022619D02*
X200469523Y-117975000D01*
X200374285Y-117879761D01*
X200231428Y-117736904D01*
X200136190Y-117689285D01*
X200040952Y-117689285D01*
X200088571Y-117927380D02*
X199993333Y-117879761D01*
X199898095Y-117784523D01*
X199850476Y-117594047D01*
X199850476Y-117260714D01*
X199898095Y-117070238D01*
X199993333Y-116975000D01*
X200088571Y-116927380D01*
X200279047Y-116927380D01*
X200374285Y-116975000D01*
X200469523Y-117070238D01*
X200517142Y-117260714D01*
X200517142Y-117594047D01*
X200469523Y-117784523D01*
X200374285Y-117879761D01*
X200279047Y-117927380D01*
X200088571Y-117927380D01*
X201469523Y-117927380D02*
X200898095Y-117927380D01*
X201183809Y-117927380D02*
X201183809Y-116927380D01*
X201088571Y-117070238D01*
X200993333Y-117165476D01*
X200898095Y-117213095D01*
X202112619Y-117649285D02*
X202065000Y-117601666D01*
X202017380Y-117506428D01*
X202017380Y-117268333D01*
X202065000Y-117173095D01*
X202112619Y-117125476D01*
X202207857Y-117077857D01*
X202303095Y-117077857D01*
X202445952Y-117125476D01*
X203017380Y-117696904D01*
X203017380Y-117077857D01*
X203017380Y-116649285D02*
X202017380Y-116649285D01*
X203017380Y-116077857D01*
X202017380Y-116077857D01*
X202017380Y-115696904D02*
X202017380Y-115077857D01*
X202398333Y-115411190D01*
X202398333Y-115268333D01*
X202445952Y-115173095D01*
X202493571Y-115125476D01*
X202588809Y-115077857D01*
X202826904Y-115077857D01*
X202922142Y-115125476D01*
X202969761Y-115173095D01*
X203017380Y-115268333D01*
X203017380Y-115554047D01*
X202969761Y-115649285D01*
X202922142Y-115696904D01*
X203017380Y-114601666D02*
X203017380Y-114411190D01*
X202969761Y-114315952D01*
X202922142Y-114268333D01*
X202779285Y-114173095D01*
X202588809Y-114125476D01*
X202207857Y-114125476D01*
X202112619Y-114173095D01*
X202065000Y-114220714D01*
X202017380Y-114315952D01*
X202017380Y-114506428D01*
X202065000Y-114601666D01*
X202112619Y-114649285D01*
X202207857Y-114696904D01*
X202445952Y-114696904D01*
X202541190Y-114649285D01*
X202588809Y-114601666D01*
X202636428Y-114506428D01*
X202636428Y-114315952D01*
X202588809Y-114220714D01*
X202541190Y-114173095D01*
X202445952Y-114125476D01*
X202017380Y-113506428D02*
X202017380Y-113411190D01*
X202065000Y-113315952D01*
X202112619Y-113268333D01*
X202207857Y-113220714D01*
X202398333Y-113173095D01*
X202636428Y-113173095D01*
X202826904Y-113220714D01*
X202922142Y-113268333D01*
X202969761Y-113315952D01*
X203017380Y-113411190D01*
X203017380Y-113506428D01*
X202969761Y-113601666D01*
X202922142Y-113649285D01*
X202826904Y-113696904D01*
X202636428Y-113744523D01*
X202398333Y-113744523D01*
X202207857Y-113696904D01*
X202112619Y-113649285D01*
X202065000Y-113601666D01*
X202017380Y-113506428D01*
X202350714Y-112315952D02*
X203017380Y-112315952D01*
X201969761Y-112554047D02*
X202684047Y-112792142D01*
X202684047Y-112173095D01*
%TO.C,C7*%
X202922142Y-74461666D02*
X202969761Y-74509285D01*
X203017380Y-74652142D01*
X203017380Y-74747380D01*
X202969761Y-74890238D01*
X202874523Y-74985476D01*
X202779285Y-75033095D01*
X202588809Y-75080714D01*
X202445952Y-75080714D01*
X202255476Y-75033095D01*
X202160238Y-74985476D01*
X202065000Y-74890238D01*
X202017380Y-74747380D01*
X202017380Y-74652142D01*
X202065000Y-74509285D01*
X202112619Y-74461666D01*
X202017380Y-74128333D02*
X202017380Y-73461666D01*
X203017380Y-73890238D01*
X202017380Y-72651666D02*
X202017380Y-72032619D01*
X202398333Y-72365952D01*
X202398333Y-72223095D01*
X202445952Y-72127857D01*
X202493571Y-72080238D01*
X202588809Y-72032619D01*
X202826904Y-72032619D01*
X202922142Y-72080238D01*
X202969761Y-72127857D01*
X203017380Y-72223095D01*
X203017380Y-72508809D01*
X202969761Y-72604047D01*
X202922142Y-72651666D01*
X202017380Y-71699285D02*
X202017380Y-71080238D01*
X202398333Y-71413571D01*
X202398333Y-71270714D01*
X202445952Y-71175476D01*
X202493571Y-71127857D01*
X202588809Y-71080238D01*
X202826904Y-71080238D01*
X202922142Y-71127857D01*
X202969761Y-71175476D01*
X203017380Y-71270714D01*
X203017380Y-71556428D01*
X202969761Y-71651666D01*
X202922142Y-71699285D01*
X202017380Y-70461190D02*
X202017380Y-70365952D01*
X202065000Y-70270714D01*
X202112619Y-70223095D01*
X202207857Y-70175476D01*
X202398333Y-70127857D01*
X202636428Y-70127857D01*
X202826904Y-70175476D01*
X202922142Y-70223095D01*
X202969761Y-70270714D01*
X203017380Y-70365952D01*
X203017380Y-70461190D01*
X202969761Y-70556428D01*
X202922142Y-70604047D01*
X202826904Y-70651666D01*
X202636428Y-70699285D01*
X202398333Y-70699285D01*
X202207857Y-70651666D01*
X202112619Y-70604047D01*
X202065000Y-70556428D01*
X202017380Y-70461190D01*
X202350714Y-69699285D02*
X203017380Y-69699285D01*
X202445952Y-69699285D02*
X202398333Y-69651666D01*
X202350714Y-69556428D01*
X202350714Y-69413571D01*
X202398333Y-69318333D01*
X202493571Y-69270714D01*
X203017380Y-69270714D01*
X202493571Y-68461190D02*
X202493571Y-68794523D01*
X203017380Y-68794523D02*
X202017380Y-68794523D01*
X202017380Y-68318333D01*
%TO.C,C1*%
X180693333Y-140057142D02*
X180645714Y-140104761D01*
X180502857Y-140152380D01*
X180407619Y-140152380D01*
X180264761Y-140104761D01*
X180169523Y-140009523D01*
X180121904Y-139914285D01*
X180074285Y-139723809D01*
X180074285Y-139580952D01*
X180121904Y-139390476D01*
X180169523Y-139295238D01*
X180264761Y-139200000D01*
X180407619Y-139152380D01*
X180502857Y-139152380D01*
X180645714Y-139200000D01*
X180693333Y-139247619D01*
X181645714Y-140152380D02*
X181074285Y-140152380D01*
X181360000Y-140152380D02*
X181360000Y-139152380D01*
X181264761Y-139295238D01*
X181169523Y-139390476D01*
X181074285Y-139438095D01*
X179788571Y-142057380D02*
X179217142Y-142057380D01*
X179502857Y-142057380D02*
X179502857Y-141057380D01*
X179407619Y-141200238D01*
X179312380Y-141295476D01*
X179217142Y-141343095D01*
X180407619Y-141057380D02*
X180502857Y-141057380D01*
X180598095Y-141105000D01*
X180645714Y-141152619D01*
X180693333Y-141247857D01*
X180740952Y-141438333D01*
X180740952Y-141676428D01*
X180693333Y-141866904D01*
X180645714Y-141962142D01*
X180598095Y-142009761D01*
X180502857Y-142057380D01*
X180407619Y-142057380D01*
X180312380Y-142009761D01*
X180264761Y-141962142D01*
X180217142Y-141866904D01*
X180169523Y-141676428D01*
X180169523Y-141438333D01*
X180217142Y-141247857D01*
X180264761Y-141152619D01*
X180312380Y-141105000D01*
X180407619Y-141057380D01*
X181598095Y-141390714D02*
X181598095Y-142057380D01*
X181169523Y-141390714D02*
X181169523Y-141914523D01*
X181217142Y-142009761D01*
X181312380Y-142057380D01*
X181455238Y-142057380D01*
X181550476Y-142009761D01*
X181598095Y-141962142D01*
X182407619Y-141533571D02*
X182074285Y-141533571D01*
X182074285Y-142057380D02*
X182074285Y-141057380D01*
X182550476Y-141057380D01*
%TO.C,C11*%
X202922142Y-110497857D02*
X202969761Y-110545476D01*
X203017380Y-110688333D01*
X203017380Y-110783571D01*
X202969761Y-110926428D01*
X202874523Y-111021666D01*
X202779285Y-111069285D01*
X202588809Y-111116904D01*
X202445952Y-111116904D01*
X202255476Y-111069285D01*
X202160238Y-111021666D01*
X202065000Y-110926428D01*
X202017380Y-110783571D01*
X202017380Y-110688333D01*
X202065000Y-110545476D01*
X202112619Y-110497857D01*
X203017380Y-109545476D02*
X203017380Y-110116904D01*
X203017380Y-109831190D02*
X202017380Y-109831190D01*
X202160238Y-109926428D01*
X202255476Y-110021666D01*
X202303095Y-110116904D01*
X203017380Y-108593095D02*
X203017380Y-109164523D01*
X203017380Y-108878809D02*
X202017380Y-108878809D01*
X202160238Y-108974047D01*
X202255476Y-109069285D01*
X202303095Y-109164523D01*
X203017380Y-106957619D02*
X203017380Y-107529047D01*
X203017380Y-107243333D02*
X202017380Y-107243333D01*
X202160238Y-107338571D01*
X202255476Y-107433809D01*
X202303095Y-107529047D01*
X202017380Y-106338571D02*
X202017380Y-106243333D01*
X202065000Y-106148095D01*
X202112619Y-106100476D01*
X202207857Y-106052857D01*
X202398333Y-106005238D01*
X202636428Y-106005238D01*
X202826904Y-106052857D01*
X202922142Y-106100476D01*
X202969761Y-106148095D01*
X203017380Y-106243333D01*
X203017380Y-106338571D01*
X202969761Y-106433809D01*
X202922142Y-106481428D01*
X202826904Y-106529047D01*
X202636428Y-106576666D01*
X202398333Y-106576666D01*
X202207857Y-106529047D01*
X202112619Y-106481428D01*
X202065000Y-106433809D01*
X202017380Y-106338571D01*
X202017380Y-105386190D02*
X202017380Y-105290952D01*
X202065000Y-105195714D01*
X202112619Y-105148095D01*
X202207857Y-105100476D01*
X202398333Y-105052857D01*
X202636428Y-105052857D01*
X202826904Y-105100476D01*
X202922142Y-105148095D01*
X202969761Y-105195714D01*
X203017380Y-105290952D01*
X203017380Y-105386190D01*
X202969761Y-105481428D01*
X202922142Y-105529047D01*
X202826904Y-105576666D01*
X202636428Y-105624285D01*
X202398333Y-105624285D01*
X202207857Y-105576666D01*
X202112619Y-105529047D01*
X202065000Y-105481428D01*
X202017380Y-105386190D01*
X202350714Y-104624285D02*
X203350714Y-104624285D01*
X202398333Y-104624285D02*
X202350714Y-104529047D01*
X202350714Y-104338571D01*
X202398333Y-104243333D01*
X202445952Y-104195714D01*
X202541190Y-104148095D01*
X202826904Y-104148095D01*
X202922142Y-104195714D01*
X202969761Y-104243333D01*
X203017380Y-104338571D01*
X203017380Y-104529047D01*
X202969761Y-104624285D01*
X202493571Y-103386190D02*
X202493571Y-103719523D01*
X203017380Y-103719523D02*
X202017380Y-103719523D01*
X202017380Y-103243333D01*
%TO.C,R9*%
X185872380Y-130145357D02*
X185396190Y-130478690D01*
X185872380Y-130716785D02*
X184872380Y-130716785D01*
X184872380Y-130335833D01*
X184920000Y-130240595D01*
X184967619Y-130192976D01*
X185062857Y-130145357D01*
X185205714Y-130145357D01*
X185300952Y-130192976D01*
X185348571Y-130240595D01*
X185396190Y-130335833D01*
X185396190Y-130716785D01*
X185872380Y-129669166D02*
X185872380Y-129478690D01*
X185824761Y-129383452D01*
X185777142Y-129335833D01*
X185634285Y-129240595D01*
X185443809Y-129192976D01*
X185062857Y-129192976D01*
X184967619Y-129240595D01*
X184920000Y-129288214D01*
X184872380Y-129383452D01*
X184872380Y-129573928D01*
X184920000Y-129669166D01*
X184967619Y-129716785D01*
X185062857Y-129764404D01*
X185300952Y-129764404D01*
X185396190Y-129716785D01*
X185443809Y-129669166D01*
X185491428Y-129573928D01*
X185491428Y-129383452D01*
X185443809Y-129288214D01*
X185396190Y-129240595D01*
X185300952Y-129192976D01*
X185872380Y-122674047D02*
X185872380Y-123245476D01*
X185872380Y-122959761D02*
X184872380Y-122959761D01*
X185015238Y-123055000D01*
X185110476Y-123150238D01*
X185158095Y-123245476D01*
X185872380Y-122245476D02*
X184872380Y-122245476D01*
X185491428Y-122150238D02*
X185872380Y-121864523D01*
X185205714Y-121864523D02*
X185586666Y-122245476D01*
%TO.C,R7*%
X198572380Y-130145357D02*
X198096190Y-130478690D01*
X198572380Y-130716785D02*
X197572380Y-130716785D01*
X197572380Y-130335833D01*
X197620000Y-130240595D01*
X197667619Y-130192976D01*
X197762857Y-130145357D01*
X197905714Y-130145357D01*
X198000952Y-130192976D01*
X198048571Y-130240595D01*
X198096190Y-130335833D01*
X198096190Y-130716785D01*
X197572380Y-129812023D02*
X197572380Y-129145357D01*
X198572380Y-129573928D01*
X198572380Y-123626428D02*
X198572380Y-124197857D01*
X198572380Y-123912142D02*
X197572380Y-123912142D01*
X197715238Y-124007380D01*
X197810476Y-124102619D01*
X197858095Y-124197857D01*
X197572380Y-123007380D02*
X197572380Y-122912142D01*
X197620000Y-122816904D01*
X197667619Y-122769285D01*
X197762857Y-122721666D01*
X197953333Y-122674047D01*
X198191428Y-122674047D01*
X198381904Y-122721666D01*
X198477142Y-122769285D01*
X198524761Y-122816904D01*
X198572380Y-122912142D01*
X198572380Y-123007380D01*
X198524761Y-123102619D01*
X198477142Y-123150238D01*
X198381904Y-123197857D01*
X198191428Y-123245476D01*
X197953333Y-123245476D01*
X197762857Y-123197857D01*
X197667619Y-123150238D01*
X197620000Y-123102619D01*
X197572380Y-123007380D01*
X197572380Y-122055000D02*
X197572380Y-121959761D01*
X197620000Y-121864523D01*
X197667619Y-121816904D01*
X197762857Y-121769285D01*
X197953333Y-121721666D01*
X198191428Y-121721666D01*
X198381904Y-121769285D01*
X198477142Y-121816904D01*
X198524761Y-121864523D01*
X198572380Y-121959761D01*
X198572380Y-122055000D01*
X198524761Y-122150238D01*
X198477142Y-122197857D01*
X198381904Y-122245476D01*
X198191428Y-122293095D01*
X197953333Y-122293095D01*
X197762857Y-122245476D01*
X197667619Y-122197857D01*
X197620000Y-122150238D01*
X197572380Y-122055000D01*
X198572380Y-121293095D02*
X197572380Y-121293095D01*
X198191428Y-121197857D02*
X198572380Y-120912142D01*
X197905714Y-120912142D02*
X198286666Y-121293095D01*
%TO.C,R14*%
X188412380Y-88627976D02*
X187936190Y-88961309D01*
X188412380Y-89199404D02*
X187412380Y-89199404D01*
X187412380Y-88818452D01*
X187460000Y-88723214D01*
X187507619Y-88675595D01*
X187602857Y-88627976D01*
X187745714Y-88627976D01*
X187840952Y-88675595D01*
X187888571Y-88723214D01*
X187936190Y-88818452D01*
X187936190Y-89199404D01*
X188412380Y-87675595D02*
X188412380Y-88247023D01*
X188412380Y-87961309D02*
X187412380Y-87961309D01*
X187555238Y-88056547D01*
X187650476Y-88151785D01*
X187698095Y-88247023D01*
X187745714Y-86818452D02*
X188412380Y-86818452D01*
X187364761Y-87056547D02*
X188079047Y-87294642D01*
X188079047Y-86675595D01*
X188412380Y-96956428D02*
X188412380Y-97527857D01*
X188412380Y-97242142D02*
X187412380Y-97242142D01*
X187555238Y-97337380D01*
X187650476Y-97432619D01*
X187698095Y-97527857D01*
X187412380Y-96337380D02*
X187412380Y-96242142D01*
X187460000Y-96146904D01*
X187507619Y-96099285D01*
X187602857Y-96051666D01*
X187793333Y-96004047D01*
X188031428Y-96004047D01*
X188221904Y-96051666D01*
X188317142Y-96099285D01*
X188364761Y-96146904D01*
X188412380Y-96242142D01*
X188412380Y-96337380D01*
X188364761Y-96432619D01*
X188317142Y-96480238D01*
X188221904Y-96527857D01*
X188031428Y-96575476D01*
X187793333Y-96575476D01*
X187602857Y-96527857D01*
X187507619Y-96480238D01*
X187460000Y-96432619D01*
X187412380Y-96337380D01*
X187412380Y-95385000D02*
X187412380Y-95289761D01*
X187460000Y-95194523D01*
X187507619Y-95146904D01*
X187602857Y-95099285D01*
X187793333Y-95051666D01*
X188031428Y-95051666D01*
X188221904Y-95099285D01*
X188317142Y-95146904D01*
X188364761Y-95194523D01*
X188412380Y-95289761D01*
X188412380Y-95385000D01*
X188364761Y-95480238D01*
X188317142Y-95527857D01*
X188221904Y-95575476D01*
X188031428Y-95623095D01*
X187793333Y-95623095D01*
X187602857Y-95575476D01*
X187507619Y-95527857D01*
X187460000Y-95480238D01*
X187412380Y-95385000D01*
X188412380Y-94623095D02*
X187412380Y-94623095D01*
X188031428Y-94527857D02*
X188412380Y-94242142D01*
X187745714Y-94242142D02*
X188126666Y-94623095D01*
%TO.C,C9*%
X178919142Y-111095357D02*
X178966761Y-111142976D01*
X179014380Y-111285833D01*
X179014380Y-111381071D01*
X178966761Y-111523928D01*
X178871523Y-111619166D01*
X178776285Y-111666785D01*
X178585809Y-111714404D01*
X178442952Y-111714404D01*
X178252476Y-111666785D01*
X178157238Y-111619166D01*
X178062000Y-111523928D01*
X178014380Y-111381071D01*
X178014380Y-111285833D01*
X178062000Y-111142976D01*
X178109619Y-111095357D01*
X179014380Y-110619166D02*
X179014380Y-110428690D01*
X178966761Y-110333452D01*
X178919142Y-110285833D01*
X178776285Y-110190595D01*
X178585809Y-110142976D01*
X178204857Y-110142976D01*
X178109619Y-110190595D01*
X178062000Y-110238214D01*
X178014380Y-110333452D01*
X178014380Y-110523928D01*
X178062000Y-110619166D01*
X178109619Y-110666785D01*
X178204857Y-110714404D01*
X178442952Y-110714404D01*
X178538190Y-110666785D01*
X178585809Y-110619166D01*
X178633428Y-110523928D01*
X178633428Y-110333452D01*
X178585809Y-110238214D01*
X178538190Y-110190595D01*
X178442952Y-110142976D01*
X179014380Y-108360595D02*
X179014380Y-108932023D01*
X179014380Y-108646309D02*
X178014380Y-108646309D01*
X178157238Y-108741547D01*
X178252476Y-108836785D01*
X178300095Y-108932023D01*
X178014380Y-107741547D02*
X178014380Y-107646309D01*
X178062000Y-107551071D01*
X178109619Y-107503452D01*
X178204857Y-107455833D01*
X178395333Y-107408214D01*
X178633428Y-107408214D01*
X178823904Y-107455833D01*
X178919142Y-107503452D01*
X178966761Y-107551071D01*
X179014380Y-107646309D01*
X179014380Y-107741547D01*
X178966761Y-107836785D01*
X178919142Y-107884404D01*
X178823904Y-107932023D01*
X178633428Y-107979642D01*
X178395333Y-107979642D01*
X178204857Y-107932023D01*
X178109619Y-107884404D01*
X178062000Y-107836785D01*
X178014380Y-107741547D01*
X178014380Y-106789166D02*
X178014380Y-106693928D01*
X178062000Y-106598690D01*
X178109619Y-106551071D01*
X178204857Y-106503452D01*
X178395333Y-106455833D01*
X178633428Y-106455833D01*
X178823904Y-106503452D01*
X178919142Y-106551071D01*
X178966761Y-106598690D01*
X179014380Y-106693928D01*
X179014380Y-106789166D01*
X178966761Y-106884404D01*
X178919142Y-106932023D01*
X178823904Y-106979642D01*
X178633428Y-107027261D01*
X178395333Y-107027261D01*
X178204857Y-106979642D01*
X178109619Y-106932023D01*
X178062000Y-106884404D01*
X178014380Y-106789166D01*
X178347714Y-106027261D02*
X179347714Y-106027261D01*
X178395333Y-106027261D02*
X178347714Y-105932023D01*
X178347714Y-105741547D01*
X178395333Y-105646309D01*
X178442952Y-105598690D01*
X178538190Y-105551071D01*
X178823904Y-105551071D01*
X178919142Y-105598690D01*
X178966761Y-105646309D01*
X179014380Y-105741547D01*
X179014380Y-105932023D01*
X178966761Y-106027261D01*
X178490571Y-104789166D02*
X178490571Y-105122500D01*
X179014380Y-105122500D02*
X178014380Y-105122500D01*
X178014380Y-104646309D01*
%TO.C,R21*%
X185867380Y-48622976D02*
X185391190Y-48956309D01*
X185867380Y-49194404D02*
X184867380Y-49194404D01*
X184867380Y-48813452D01*
X184915000Y-48718214D01*
X184962619Y-48670595D01*
X185057857Y-48622976D01*
X185200714Y-48622976D01*
X185295952Y-48670595D01*
X185343571Y-48718214D01*
X185391190Y-48813452D01*
X185391190Y-49194404D01*
X184962619Y-48242023D02*
X184915000Y-48194404D01*
X184867380Y-48099166D01*
X184867380Y-47861071D01*
X184915000Y-47765833D01*
X184962619Y-47718214D01*
X185057857Y-47670595D01*
X185153095Y-47670595D01*
X185295952Y-47718214D01*
X185867380Y-48289642D01*
X185867380Y-47670595D01*
X185867380Y-46718214D02*
X185867380Y-47289642D01*
X185867380Y-47003928D02*
X184867380Y-47003928D01*
X185010238Y-47099166D01*
X185105476Y-47194404D01*
X185153095Y-47289642D01*
X184872380Y-57094285D02*
X184872380Y-57570476D01*
X185348571Y-57618095D01*
X185300952Y-57570476D01*
X185253333Y-57475238D01*
X185253333Y-57237142D01*
X185300952Y-57141904D01*
X185348571Y-57094285D01*
X185443809Y-57046666D01*
X185681904Y-57046666D01*
X185777142Y-57094285D01*
X185824761Y-57141904D01*
X185872380Y-57237142D01*
X185872380Y-57475238D01*
X185824761Y-57570476D01*
X185777142Y-57618095D01*
X184872380Y-56189523D02*
X184872380Y-56380000D01*
X184920000Y-56475238D01*
X184967619Y-56522857D01*
X185110476Y-56618095D01*
X185300952Y-56665714D01*
X185681904Y-56665714D01*
X185777142Y-56618095D01*
X185824761Y-56570476D01*
X185872380Y-56475238D01*
X185872380Y-56284761D01*
X185824761Y-56189523D01*
X185777142Y-56141904D01*
X185681904Y-56094285D01*
X185443809Y-56094285D01*
X185348571Y-56141904D01*
X185300952Y-56189523D01*
X185253333Y-56284761D01*
X185253333Y-56475238D01*
X185300952Y-56570476D01*
X185348571Y-56618095D01*
X185443809Y-56665714D01*
X184872380Y-55475238D02*
X184872380Y-55380000D01*
X184920000Y-55284761D01*
X184967619Y-55237142D01*
X185062857Y-55189523D01*
X185253333Y-55141904D01*
X185491428Y-55141904D01*
X185681904Y-55189523D01*
X185777142Y-55237142D01*
X185824761Y-55284761D01*
X185872380Y-55380000D01*
X185872380Y-55475238D01*
X185824761Y-55570476D01*
X185777142Y-55618095D01*
X185681904Y-55665714D01*
X185491428Y-55713333D01*
X185253333Y-55713333D01*
X185062857Y-55665714D01*
X184967619Y-55618095D01*
X184920000Y-55570476D01*
X184872380Y-55475238D01*
X185872380Y-54141904D02*
X185396190Y-54475238D01*
X185872380Y-54713333D02*
X184872380Y-54713333D01*
X184872380Y-54332380D01*
X184920000Y-54237142D01*
X184967619Y-54189523D01*
X185062857Y-54141904D01*
X185205714Y-54141904D01*
X185300952Y-54189523D01*
X185348571Y-54237142D01*
X185396190Y-54332380D01*
X185396190Y-54713333D01*
%TO.C,J3*%
X190166666Y-142962380D02*
X190166666Y-143676666D01*
X190119047Y-143819523D01*
X190023809Y-143914761D01*
X189880952Y-143962380D01*
X189785714Y-143962380D01*
X190547619Y-142962380D02*
X191166666Y-142962380D01*
X190833333Y-143343333D01*
X190976190Y-143343333D01*
X191071428Y-143390952D01*
X191119047Y-143438571D01*
X191166666Y-143533809D01*
X191166666Y-143771904D01*
X191119047Y-143867142D01*
X191071428Y-143914761D01*
X190976190Y-143962380D01*
X190690476Y-143962380D01*
X190595238Y-143914761D01*
X190547619Y-143867142D01*
%TO.C,C12*%
X202922142Y-66327738D02*
X202969761Y-66375357D01*
X203017380Y-66518214D01*
X203017380Y-66613452D01*
X202969761Y-66756309D01*
X202874523Y-66851547D01*
X202779285Y-66899166D01*
X202588809Y-66946785D01*
X202445952Y-66946785D01*
X202255476Y-66899166D01*
X202160238Y-66851547D01*
X202065000Y-66756309D01*
X202017380Y-66613452D01*
X202017380Y-66518214D01*
X202065000Y-66375357D01*
X202112619Y-66327738D01*
X203017380Y-65375357D02*
X203017380Y-65946785D01*
X203017380Y-65661071D02*
X202017380Y-65661071D01*
X202160238Y-65756309D01*
X202255476Y-65851547D01*
X202303095Y-65946785D01*
X202112619Y-64994404D02*
X202065000Y-64946785D01*
X202017380Y-64851547D01*
X202017380Y-64613452D01*
X202065000Y-64518214D01*
X202112619Y-64470595D01*
X202207857Y-64422976D01*
X202303095Y-64422976D01*
X202445952Y-64470595D01*
X203017380Y-65042023D01*
X203017380Y-64422976D01*
X203017380Y-62640595D02*
X203017380Y-63212023D01*
X203017380Y-62926309D02*
X202017380Y-62926309D01*
X202160238Y-63021547D01*
X202255476Y-63116785D01*
X202303095Y-63212023D01*
X202350714Y-62212023D02*
X203017380Y-62212023D01*
X202445952Y-62212023D02*
X202398333Y-62164404D01*
X202350714Y-62069166D01*
X202350714Y-61926309D01*
X202398333Y-61831071D01*
X202493571Y-61783452D01*
X203017380Y-61783452D01*
X202493571Y-60973928D02*
X202493571Y-61307261D01*
X203017380Y-61307261D02*
X202017380Y-61307261D01*
X202017380Y-60831071D01*
%TO.C,C10*%
X178782261Y-114022142D02*
X178734642Y-114069761D01*
X178591785Y-114117380D01*
X178496547Y-114117380D01*
X178353690Y-114069761D01*
X178258452Y-113974523D01*
X178210833Y-113879285D01*
X178163214Y-113688809D01*
X178163214Y-113545952D01*
X178210833Y-113355476D01*
X178258452Y-113260238D01*
X178353690Y-113165000D01*
X178496547Y-113117380D01*
X178591785Y-113117380D01*
X178734642Y-113165000D01*
X178782261Y-113212619D01*
X179734642Y-114117380D02*
X179163214Y-114117380D01*
X179448928Y-114117380D02*
X179448928Y-113117380D01*
X179353690Y-113260238D01*
X179258452Y-113355476D01*
X179163214Y-113403095D01*
X180353690Y-113117380D02*
X180448928Y-113117380D01*
X180544166Y-113165000D01*
X180591785Y-113212619D01*
X180639404Y-113307857D01*
X180687023Y-113498333D01*
X180687023Y-113736428D01*
X180639404Y-113926904D01*
X180591785Y-114022142D01*
X180544166Y-114069761D01*
X180448928Y-114117380D01*
X180353690Y-114117380D01*
X180258452Y-114069761D01*
X180210833Y-114022142D01*
X180163214Y-113926904D01*
X180115595Y-113736428D01*
X180115595Y-113498333D01*
X180163214Y-113307857D01*
X180210833Y-113212619D01*
X180258452Y-113165000D01*
X180353690Y-113117380D01*
X178925119Y-116022380D02*
X178353690Y-116022380D01*
X178639404Y-116022380D02*
X178639404Y-115022380D01*
X178544166Y-115165238D01*
X178448928Y-115260476D01*
X178353690Y-115308095D01*
X179782261Y-115355714D02*
X179782261Y-116022380D01*
X179353690Y-115355714D02*
X179353690Y-115879523D01*
X179401309Y-115974761D01*
X179496547Y-116022380D01*
X179639404Y-116022380D01*
X179734642Y-115974761D01*
X179782261Y-115927142D01*
X180591785Y-115498571D02*
X180258452Y-115498571D01*
X180258452Y-116022380D02*
X180258452Y-115022380D01*
X180734642Y-115022380D01*
%TO.C,R11*%
X193492380Y-131097738D02*
X193016190Y-131431071D01*
X193492380Y-131669166D02*
X192492380Y-131669166D01*
X192492380Y-131288214D01*
X192540000Y-131192976D01*
X192587619Y-131145357D01*
X192682857Y-131097738D01*
X192825714Y-131097738D01*
X192920952Y-131145357D01*
X192968571Y-131192976D01*
X193016190Y-131288214D01*
X193016190Y-131669166D01*
X193492380Y-130145357D02*
X193492380Y-130716785D01*
X193492380Y-130431071D02*
X192492380Y-130431071D01*
X192635238Y-130526309D01*
X192730476Y-130621547D01*
X192778095Y-130716785D01*
X193492380Y-129192976D02*
X193492380Y-129764404D01*
X193492380Y-129478690D02*
X192492380Y-129478690D01*
X192635238Y-129573928D01*
X192730476Y-129669166D01*
X192778095Y-129764404D01*
X193492380Y-123626428D02*
X193492380Y-124197857D01*
X193492380Y-123912142D02*
X192492380Y-123912142D01*
X192635238Y-124007380D01*
X192730476Y-124102619D01*
X192778095Y-124197857D01*
X192492380Y-123007380D02*
X192492380Y-122912142D01*
X192540000Y-122816904D01*
X192587619Y-122769285D01*
X192682857Y-122721666D01*
X192873333Y-122674047D01*
X193111428Y-122674047D01*
X193301904Y-122721666D01*
X193397142Y-122769285D01*
X193444761Y-122816904D01*
X193492380Y-122912142D01*
X193492380Y-123007380D01*
X193444761Y-123102619D01*
X193397142Y-123150238D01*
X193301904Y-123197857D01*
X193111428Y-123245476D01*
X192873333Y-123245476D01*
X192682857Y-123197857D01*
X192587619Y-123150238D01*
X192540000Y-123102619D01*
X192492380Y-123007380D01*
X192492380Y-122055000D02*
X192492380Y-121959761D01*
X192540000Y-121864523D01*
X192587619Y-121816904D01*
X192682857Y-121769285D01*
X192873333Y-121721666D01*
X193111428Y-121721666D01*
X193301904Y-121769285D01*
X193397142Y-121816904D01*
X193444761Y-121864523D01*
X193492380Y-121959761D01*
X193492380Y-122055000D01*
X193444761Y-122150238D01*
X193397142Y-122197857D01*
X193301904Y-122245476D01*
X193111428Y-122293095D01*
X192873333Y-122293095D01*
X192682857Y-122245476D01*
X192587619Y-122197857D01*
X192540000Y-122150238D01*
X192492380Y-122055000D01*
X193492380Y-121293095D02*
X192492380Y-121293095D01*
X193111428Y-121197857D02*
X193492380Y-120912142D01*
X192825714Y-120912142D02*
X193206666Y-121293095D01*
%TO.C,U1*%
X179792380Y-106806904D02*
X180601904Y-106806904D01*
X180697142Y-106759285D01*
X180744761Y-106711666D01*
X180792380Y-106616428D01*
X180792380Y-106425952D01*
X180744761Y-106330714D01*
X180697142Y-106283095D01*
X180601904Y-106235476D01*
X179792380Y-106235476D01*
X180792380Y-105235476D02*
X180792380Y-105806904D01*
X180792380Y-105521190D02*
X179792380Y-105521190D01*
X179935238Y-105616428D01*
X180030476Y-105711666D01*
X180078095Y-105806904D01*
X188380952Y-106757380D02*
X188952380Y-106757380D01*
X188666666Y-107757380D02*
X188666666Y-106757380D01*
X189761904Y-107757380D02*
X189285714Y-107757380D01*
X189285714Y-106757380D01*
X190285714Y-106757380D02*
X190380952Y-106757380D01*
X190476190Y-106805000D01*
X190523809Y-106852619D01*
X190571428Y-106947857D01*
X190619047Y-107138333D01*
X190619047Y-107376428D01*
X190571428Y-107566904D01*
X190523809Y-107662142D01*
X190476190Y-107709761D01*
X190380952Y-107757380D01*
X190285714Y-107757380D01*
X190190476Y-107709761D01*
X190142857Y-107662142D01*
X190095238Y-107566904D01*
X190047619Y-107376428D01*
X190047619Y-107138333D01*
X190095238Y-106947857D01*
X190142857Y-106852619D01*
X190190476Y-106805000D01*
X190285714Y-106757380D01*
X190952380Y-106757380D02*
X191619047Y-106757380D01*
X191190476Y-107757380D01*
X192428571Y-107090714D02*
X192428571Y-107757380D01*
X192190476Y-106709761D02*
X191952380Y-107424047D01*
X192571428Y-107424047D01*
%TO.C,R13*%
X201112380Y-48622976D02*
X200636190Y-48956309D01*
X201112380Y-49194404D02*
X200112380Y-49194404D01*
X200112380Y-48813452D01*
X200160000Y-48718214D01*
X200207619Y-48670595D01*
X200302857Y-48622976D01*
X200445714Y-48622976D01*
X200540952Y-48670595D01*
X200588571Y-48718214D01*
X200636190Y-48813452D01*
X200636190Y-49194404D01*
X201112380Y-47670595D02*
X201112380Y-48242023D01*
X201112380Y-47956309D02*
X200112380Y-47956309D01*
X200255238Y-48051547D01*
X200350476Y-48146785D01*
X200398095Y-48242023D01*
X200112380Y-47337261D02*
X200112380Y-46718214D01*
X200493333Y-47051547D01*
X200493333Y-46908690D01*
X200540952Y-46813452D01*
X200588571Y-46765833D01*
X200683809Y-46718214D01*
X200921904Y-46718214D01*
X201017142Y-46765833D01*
X201064761Y-46813452D01*
X201112380Y-46908690D01*
X201112380Y-47194404D01*
X201064761Y-47289642D01*
X201017142Y-47337261D01*
X201117380Y-56951428D02*
X201117380Y-57522857D01*
X201117380Y-57237142D02*
X200117380Y-57237142D01*
X200260238Y-57332380D01*
X200355476Y-57427619D01*
X200403095Y-57522857D01*
X200117380Y-56332380D02*
X200117380Y-56237142D01*
X200165000Y-56141904D01*
X200212619Y-56094285D01*
X200307857Y-56046666D01*
X200498333Y-55999047D01*
X200736428Y-55999047D01*
X200926904Y-56046666D01*
X201022142Y-56094285D01*
X201069761Y-56141904D01*
X201117380Y-56237142D01*
X201117380Y-56332380D01*
X201069761Y-56427619D01*
X201022142Y-56475238D01*
X200926904Y-56522857D01*
X200736428Y-56570476D01*
X200498333Y-56570476D01*
X200307857Y-56522857D01*
X200212619Y-56475238D01*
X200165000Y-56427619D01*
X200117380Y-56332380D01*
X200117380Y-55380000D02*
X200117380Y-55284761D01*
X200165000Y-55189523D01*
X200212619Y-55141904D01*
X200307857Y-55094285D01*
X200498333Y-55046666D01*
X200736428Y-55046666D01*
X200926904Y-55094285D01*
X201022142Y-55141904D01*
X201069761Y-55189523D01*
X201117380Y-55284761D01*
X201117380Y-55380000D01*
X201069761Y-55475238D01*
X201022142Y-55522857D01*
X200926904Y-55570476D01*
X200736428Y-55618095D01*
X200498333Y-55618095D01*
X200307857Y-55570476D01*
X200212619Y-55522857D01*
X200165000Y-55475238D01*
X200117380Y-55380000D01*
X201117380Y-54618095D02*
X200117380Y-54618095D01*
X200736428Y-54522857D02*
X201117380Y-54237142D01*
X200450714Y-54237142D02*
X200831666Y-54618095D01*
D10*
%TO.C,R8*%
X186590000Y-125825000D02*
X189330000Y-125825000D01*
X189330000Y-119285000D02*
X186590000Y-119285000D01*
X187960000Y-126595000D02*
X187960000Y-125825000D01*
X187960000Y-118515000D02*
X187960000Y-119285000D01*
X186590000Y-119285000D02*
X186590000Y-125825000D01*
X189330000Y-125825000D02*
X189330000Y-119285000D01*
%TO.C,R19*%
X199490000Y-99155000D02*
X199490000Y-92615000D01*
X196750000Y-92615000D02*
X196750000Y-99155000D01*
X199490000Y-92615000D02*
X196750000Y-92615000D01*
X198120000Y-99925000D02*
X198120000Y-99155000D01*
X198120000Y-91845000D02*
X198120000Y-92615000D01*
X196750000Y-99155000D02*
X199490000Y-99155000D01*
%TO.C,R4*%
X191670000Y-52610000D02*
X191670000Y-59150000D01*
X194410000Y-59150000D02*
X194410000Y-52610000D01*
X193040000Y-51840000D02*
X193040000Y-52610000D01*
X193040000Y-59920000D02*
X193040000Y-59150000D01*
X191670000Y-59150000D02*
X194410000Y-59150000D01*
X194410000Y-52610000D02*
X191670000Y-52610000D01*
%TO.C,C6*%
X189585000Y-59081000D02*
X189585000Y-60339000D01*
X191425000Y-59081000D02*
X191425000Y-60339000D01*
%TO.C,R12*%
X195580000Y-126595000D02*
X195580000Y-125825000D01*
X194210000Y-119285000D02*
X194210000Y-125825000D01*
X194210000Y-125825000D02*
X196950000Y-125825000D01*
X196950000Y-119285000D02*
X194210000Y-119285000D01*
X196950000Y-125825000D02*
X196950000Y-119285000D01*
X195580000Y-118515000D02*
X195580000Y-119285000D01*
%TO.C,R18*%
X196950000Y-92615000D02*
X194210000Y-92615000D01*
X194210000Y-99155000D02*
X196950000Y-99155000D01*
X194210000Y-92615000D02*
X194210000Y-99155000D01*
X196950000Y-99155000D02*
X196950000Y-92615000D01*
X195580000Y-91845000D02*
X195580000Y-92615000D01*
X195580000Y-99925000D02*
X195580000Y-99155000D01*
%TO.C,C13*%
X189515000Y-81286000D02*
X189515000Y-82544000D01*
X187675000Y-81286000D02*
X187675000Y-82544000D01*
%TO.C,R16*%
X184250000Y-92615000D02*
X181510000Y-92615000D01*
X184250000Y-99155000D02*
X184250000Y-92615000D01*
X181510000Y-99155000D02*
X184250000Y-99155000D01*
X182880000Y-91845000D02*
X182880000Y-92615000D01*
X181510000Y-92615000D02*
X181510000Y-99155000D01*
X182880000Y-99925000D02*
X182880000Y-99155000D01*
%TO.C,R23*%
X182880000Y-51840000D02*
X182880000Y-52610000D01*
X182880000Y-59920000D02*
X182880000Y-59150000D01*
X181510000Y-59150000D02*
X184250000Y-59150000D01*
X184250000Y-59150000D02*
X184250000Y-52610000D01*
X184250000Y-52610000D02*
X181510000Y-52610000D01*
X181510000Y-52610000D02*
X181510000Y-59150000D01*
%TO.C,J5*%
X198180000Y-77530000D02*
X198180000Y-74870000D01*
X184150000Y-77530000D02*
X182820000Y-77530000D01*
X182820000Y-77530000D02*
X182820000Y-76200000D01*
X185420000Y-74870000D02*
X198180000Y-74870000D01*
X185420000Y-77530000D02*
X198180000Y-77530000D01*
X185420000Y-77530000D02*
X185420000Y-74870000D01*
%TO.C,C8*%
X192342000Y-113735000D02*
X193470000Y-113735000D01*
X195150000Y-114175000D02*
X196377000Y-114175000D01*
X192421000Y-113534000D02*
X193470000Y-113534000D01*
X192691000Y-113094000D02*
X193470000Y-113094000D01*
X192723000Y-113054000D02*
X193470000Y-113054000D01*
X192356000Y-113694000D02*
X193470000Y-113694000D01*
X193773000Y-112374000D02*
X194847000Y-112374000D01*
X195150000Y-113534000D02*
X196199000Y-113534000D01*
X192239000Y-114215000D02*
X193470000Y-114215000D01*
X195150000Y-113494000D02*
X196180000Y-113494000D01*
X192575000Y-113254000D02*
X193470000Y-113254000D01*
X195150000Y-113855000D02*
X196315000Y-113855000D01*
X192660000Y-113134000D02*
X193470000Y-113134000D01*
X195150000Y-113094000D02*
X195929000Y-113094000D01*
X195150000Y-113735000D02*
X196278000Y-113735000D01*
X192233000Y-114295000D02*
X193470000Y-114295000D01*
X195150000Y-113334000D02*
X196095000Y-113334000D01*
X195150000Y-113414000D02*
X196140000Y-113414000D01*
X195150000Y-113935000D02*
X196335000Y-113935000D01*
X195150000Y-114255000D02*
X196384000Y-114255000D01*
X195150000Y-112934000D02*
X195788000Y-112934000D01*
X195150000Y-113214000D02*
X196018000Y-113214000D01*
X193168000Y-112654000D02*
X195452000Y-112654000D01*
X195150000Y-113254000D02*
X196045000Y-113254000D01*
X193451000Y-112494000D02*
X195169000Y-112494000D01*
X192243000Y-114175000D02*
X193470000Y-114175000D01*
X192328000Y-113775000D02*
X193470000Y-113775000D01*
X195150000Y-114375000D02*
X196390000Y-114375000D01*
X192276000Y-113975000D02*
X193470000Y-113975000D01*
X192305000Y-113855000D02*
X193470000Y-113855000D01*
X192403000Y-113574000D02*
X193470000Y-113574000D01*
X192370000Y-113654000D02*
X193470000Y-113654000D01*
X192758000Y-113014000D02*
X193470000Y-113014000D01*
X195150000Y-114135000D02*
X196372000Y-114135000D01*
X195150000Y-112894000D02*
X195748000Y-112894000D01*
X195150000Y-113975000D02*
X196344000Y-113975000D01*
X192254000Y-114095000D02*
X193470000Y-114095000D01*
X193940000Y-112334000D02*
X194680000Y-112334000D01*
X195150000Y-113174000D02*
X195990000Y-113174000D01*
X195150000Y-113815000D02*
X196304000Y-113815000D01*
X195150000Y-113574000D02*
X196217000Y-113574000D01*
X192231000Y-114335000D02*
X193470000Y-114335000D01*
X193006000Y-112774000D02*
X195614000Y-112774000D01*
X195150000Y-113054000D02*
X195897000Y-113054000D01*
X192230000Y-114375000D02*
X193470000Y-114375000D01*
X192316000Y-113815000D02*
X193470000Y-113815000D01*
X195150000Y-114015000D02*
X196352000Y-114015000D01*
X192502000Y-113374000D02*
X193470000Y-113374000D01*
X192294000Y-113895000D02*
X193470000Y-113895000D01*
X192959000Y-112814000D02*
X195661000Y-112814000D01*
X192872000Y-112894000D02*
X193470000Y-112894000D01*
X195150000Y-114335000D02*
X196389000Y-114335000D01*
X195150000Y-114415000D02*
X196390000Y-114415000D01*
X192525000Y-113334000D02*
X193470000Y-113334000D01*
X192832000Y-112934000D02*
X193470000Y-112934000D01*
X192602000Y-113214000D02*
X193470000Y-113214000D01*
X195150000Y-112854000D02*
X195706000Y-112854000D01*
X193115000Y-116684801D02*
X193115000Y-116284801D01*
X192248000Y-114135000D02*
X193470000Y-114135000D01*
X193646000Y-112414000D02*
X194974000Y-112414000D01*
X195150000Y-113374000D02*
X196118000Y-113374000D01*
X195150000Y-113014000D02*
X195862000Y-113014000D01*
X192285000Y-113935000D02*
X193470000Y-113935000D01*
X195150000Y-113134000D02*
X195960000Y-113134000D01*
X192459000Y-113454000D02*
X193470000Y-113454000D01*
X195150000Y-114295000D02*
X196387000Y-114295000D01*
X195150000Y-114215000D02*
X196381000Y-114215000D01*
X192480000Y-113414000D02*
X193470000Y-113414000D01*
X193297000Y-112574000D02*
X195323000Y-112574000D01*
X192386000Y-113614000D02*
X193470000Y-113614000D01*
X195150000Y-113895000D02*
X196326000Y-113895000D01*
X192230000Y-114415000D02*
X193470000Y-114415000D01*
X192236000Y-114255000D02*
X193470000Y-114255000D01*
X193056000Y-112734000D02*
X195564000Y-112734000D01*
X195150000Y-113775000D02*
X196292000Y-113775000D01*
X192260000Y-114055000D02*
X193470000Y-114055000D01*
X195150000Y-112974000D02*
X195826000Y-112974000D01*
X193370000Y-112534000D02*
X195250000Y-112534000D01*
X195150000Y-113294000D02*
X196070000Y-113294000D01*
X195150000Y-113614000D02*
X196234000Y-113614000D01*
X195150000Y-114055000D02*
X196360000Y-114055000D01*
X193230000Y-112614000D02*
X195390000Y-112614000D01*
X192630000Y-113174000D02*
X193470000Y-113174000D01*
X192794000Y-112974000D02*
X193470000Y-112974000D01*
X192915000Y-116484801D02*
X193315000Y-116484801D01*
X192440000Y-113494000D02*
X193470000Y-113494000D01*
X195150000Y-113454000D02*
X196161000Y-113454000D01*
X195150000Y-113654000D02*
X196250000Y-113654000D01*
X193542000Y-112454000D02*
X195078000Y-112454000D01*
X195150000Y-113694000D02*
X196264000Y-113694000D01*
X195150000Y-114095000D02*
X196366000Y-114095000D01*
X192268000Y-114015000D02*
X193470000Y-114015000D01*
X192550000Y-113294000D02*
X193470000Y-113294000D01*
X192914000Y-112854000D02*
X193470000Y-112854000D01*
X193110000Y-112694000D02*
X195510000Y-112694000D01*
X196430000Y-114415000D02*
G75*
G03*
X196430000Y-114415000I-2120000J0D01*
G01*
%TO.C,R20*%
X178975000Y-67890000D02*
X178975000Y-74430000D01*
X181715000Y-67890000D02*
X178975000Y-67890000D01*
X180345000Y-75200000D02*
X180345000Y-74430000D01*
X181715000Y-74430000D02*
X181715000Y-67890000D01*
X178975000Y-74430000D02*
X181715000Y-74430000D01*
X180345000Y-67120000D02*
X180345000Y-67890000D01*
%TO.C,C16*%
X181265000Y-61621000D02*
X181265000Y-62879000D01*
X179425000Y-61621000D02*
X179425000Y-62879000D01*
%TO.C,R10*%
X181510000Y-119285000D02*
X181510000Y-125825000D01*
X184250000Y-125825000D02*
X184250000Y-119285000D01*
X181510000Y-125825000D02*
X184250000Y-125825000D01*
X184250000Y-119285000D02*
X181510000Y-119285000D01*
X182880000Y-118515000D02*
X182880000Y-119285000D01*
X182880000Y-126595000D02*
X182880000Y-125825000D01*
%TO.C,C4*%
X189580000Y-99086000D02*
X189580000Y-100344000D01*
X191420000Y-99086000D02*
X191420000Y-100344000D01*
%TO.C,D1*%
X199740000Y-74030000D02*
X201580000Y-74030000D01*
X200660000Y-75210000D02*
X200660000Y-74030000D01*
X199740000Y-73334000D02*
X201580000Y-73334000D01*
X199740000Y-70750000D02*
X199740000Y-74030000D01*
X199740000Y-73574000D02*
X201580000Y-73574000D01*
X201580000Y-70750000D02*
X199740000Y-70750000D01*
X199740000Y-73454000D02*
X201580000Y-73454000D01*
X201580000Y-74030000D02*
X201580000Y-70750000D01*
X200660000Y-69570000D02*
X200660000Y-70750000D01*
%TO.C,RV2*%
X192520000Y-78185000D02*
X192520000Y-79935000D01*
X204520000Y-87685000D02*
X203020000Y-87685000D01*
X192520000Y-88185000D02*
X192520000Y-86185000D01*
X192520000Y-81185000D02*
X192520000Y-82685000D01*
X203020000Y-78185000D02*
X192520000Y-78185000D01*
X192520000Y-83685000D02*
X192520000Y-85185000D01*
X204520000Y-87685000D02*
X204520000Y-84935000D01*
X203020000Y-88185000D02*
X192520000Y-88185000D01*
X203020000Y-88185000D02*
X203020000Y-78185000D01*
X204520000Y-84935000D02*
X203020000Y-84935000D01*
X204520000Y-86310000D02*
X203520000Y-86310000D01*
%TO.C,U2*%
X181550000Y-68310000D02*
X181550000Y-69960000D01*
X181550000Y-69960000D02*
X199450000Y-69960000D01*
X199450000Y-64660000D02*
X181550000Y-64660000D01*
X199450000Y-69960000D02*
X199450000Y-64660000D01*
X181550000Y-64660000D02*
X181550000Y-66310000D01*
X181550000Y-68310000D02*
G75*
G03*
X181550000Y-66310000I0J1000000D01*
G01*
%TO.C,Q2*%
X182935000Y-81385000D02*
X182935000Y-84985000D01*
X187385001Y-83185000D02*
G75*
G03*
X182946522Y-81346522I-2600001J0D01*
G01*
X182946522Y-85023478D02*
G75*
G03*
X187385000Y-83185000I1838478J1838478D01*
G01*
%TO.C,C2*%
X200100000Y-143940000D02*
X200100000Y-142700000D01*
X198339000Y-145860000D02*
X198339000Y-143700000D01*
X198939000Y-146488000D02*
X198939000Y-145620000D01*
X198579000Y-146176000D02*
X198579000Y-145620000D01*
X200140000Y-143940000D02*
X200140000Y-142700000D01*
X198699000Y-146296000D02*
X198699000Y-145620000D01*
X198259000Y-145720000D02*
X198259000Y-143840000D01*
X198059000Y-145150000D02*
X198059000Y-144410000D01*
X199740000Y-146822000D02*
X199740000Y-145620000D01*
X199820000Y-143940000D02*
X199820000Y-142724000D01*
X199460000Y-143940000D02*
X199460000Y-142812000D01*
X198899000Y-146460000D02*
X198899000Y-145620000D01*
X199099000Y-143940000D02*
X199099000Y-142972000D01*
X199740000Y-143940000D02*
X199740000Y-142738000D01*
X199500000Y-146762000D02*
X199500000Y-145620000D01*
X200140000Y-146860000D02*
X200140000Y-145620000D01*
X199540000Y-146774000D02*
X199540000Y-145620000D01*
X198699000Y-143940000D02*
X198699000Y-143264000D01*
X199219000Y-143940000D02*
X199219000Y-142910000D01*
X199940000Y-146851000D02*
X199940000Y-145620000D01*
X199700000Y-146814000D02*
X199700000Y-145620000D01*
X199259000Y-143940000D02*
X199259000Y-142891000D01*
X198219000Y-145639000D02*
X198219000Y-143921000D01*
X199019000Y-146540000D02*
X199019000Y-145620000D01*
X199540000Y-143940000D02*
X199540000Y-142786000D01*
X200060000Y-146859000D02*
X200060000Y-145620000D01*
X199139000Y-146610000D02*
X199139000Y-145620000D01*
X199500000Y-143940000D02*
X199500000Y-142798000D01*
X198579000Y-143940000D02*
X198579000Y-143384000D01*
X198539000Y-146131000D02*
X198539000Y-143429000D01*
X198659000Y-146258000D02*
X198659000Y-145620000D01*
X198659000Y-143940000D02*
X198659000Y-143302000D01*
X199820000Y-146836000D02*
X199820000Y-145620000D01*
X198779000Y-143940000D02*
X198779000Y-143193000D01*
X199339000Y-143940000D02*
X199339000Y-142856000D01*
X199900000Y-143940000D02*
X199900000Y-142713000D01*
X198979000Y-143940000D02*
X198979000Y-143045000D01*
X198819000Y-143940000D02*
X198819000Y-143161000D01*
X199780000Y-146830000D02*
X199780000Y-145620000D01*
X199379000Y-143940000D02*
X199379000Y-142840000D01*
X199780000Y-143940000D02*
X199780000Y-142730000D01*
X199019000Y-143940000D02*
X199019000Y-143020000D01*
X199179000Y-143940000D02*
X199179000Y-142929000D01*
X198899000Y-143940000D02*
X198899000Y-143100000D01*
X199379000Y-146720000D02*
X199379000Y-145620000D01*
X198299000Y-145793000D02*
X198299000Y-143767000D01*
X198179000Y-145548000D02*
X198179000Y-144012000D01*
X198419000Y-145980000D02*
X198419000Y-143580000D01*
X199860000Y-143940000D02*
X199860000Y-142718000D01*
X199419000Y-143940000D02*
X199419000Y-142826000D01*
X199259000Y-146669000D02*
X199259000Y-145620000D01*
X200100000Y-146860000D02*
X200100000Y-145620000D01*
X199940000Y-143940000D02*
X199940000Y-142709000D01*
X199980000Y-143940000D02*
X199980000Y-142706000D01*
X198739000Y-143940000D02*
X198739000Y-143228000D01*
X198379000Y-145922000D02*
X198379000Y-143638000D01*
X199620000Y-146796000D02*
X199620000Y-145620000D01*
X199059000Y-143940000D02*
X199059000Y-142995000D01*
X199099000Y-146588000D02*
X199099000Y-145620000D01*
X200020000Y-146857000D02*
X200020000Y-145620000D01*
X202409801Y-145975000D02*
X202009801Y-145975000D01*
X199620000Y-143940000D02*
X199620000Y-142764000D01*
X199980000Y-146854000D02*
X199980000Y-145620000D01*
X199460000Y-146748000D02*
X199460000Y-145620000D01*
X198979000Y-146515000D02*
X198979000Y-145620000D01*
X199900000Y-146847000D02*
X199900000Y-145620000D01*
X198459000Y-146034000D02*
X198459000Y-143526000D01*
X199339000Y-146704000D02*
X199339000Y-145620000D01*
X199419000Y-146734000D02*
X199419000Y-145620000D01*
X199299000Y-146687000D02*
X199299000Y-145620000D01*
X199580000Y-146785000D02*
X199580000Y-145620000D01*
X199299000Y-143940000D02*
X199299000Y-142873000D01*
X198139000Y-145444000D02*
X198139000Y-144116000D01*
X199660000Y-143940000D02*
X199660000Y-142755000D01*
X198739000Y-146332000D02*
X198739000Y-145620000D01*
X198819000Y-146399000D02*
X198819000Y-145620000D01*
X198619000Y-143940000D02*
X198619000Y-143342000D01*
X199059000Y-146565000D02*
X199059000Y-145620000D01*
X199219000Y-146650000D02*
X199219000Y-145620000D01*
X198099000Y-145317000D02*
X198099000Y-144243000D01*
X200060000Y-143940000D02*
X200060000Y-142701000D01*
X199580000Y-143940000D02*
X199580000Y-142775000D01*
X199179000Y-146631000D02*
X199179000Y-145620000D01*
X198779000Y-146367000D02*
X198779000Y-145620000D01*
X198499000Y-146084000D02*
X198499000Y-143476000D01*
X199860000Y-146842000D02*
X199860000Y-145620000D01*
X199139000Y-143940000D02*
X199139000Y-142950000D01*
X202209801Y-146175000D02*
X202209801Y-145775000D01*
X198859000Y-143940000D02*
X198859000Y-143130000D01*
X198619000Y-146218000D02*
X198619000Y-145620000D01*
X198859000Y-146430000D02*
X198859000Y-145620000D01*
X199660000Y-146805000D02*
X199660000Y-145620000D01*
X199700000Y-143940000D02*
X199700000Y-142746000D01*
X198939000Y-143940000D02*
X198939000Y-143072000D01*
X200020000Y-143940000D02*
X200020000Y-142703000D01*
X202260000Y-144780000D02*
G75*
G03*
X202260000Y-144780000I-2120000J0D01*
G01*
%TO.C,R15*%
X184050000Y-92615000D02*
X184050000Y-99155000D01*
X186790000Y-92615000D02*
X184050000Y-92615000D01*
X184050000Y-99155000D02*
X186790000Y-99155000D01*
X186790000Y-99155000D02*
X186790000Y-92615000D01*
X185420000Y-99925000D02*
X185420000Y-99155000D01*
X185420000Y-91845000D02*
X185420000Y-92615000D01*
%TO.C,D2*%
X179420000Y-98055000D02*
X179420000Y-101335000D01*
X179420000Y-100759000D02*
X181260000Y-100759000D01*
X179420000Y-101335000D02*
X181260000Y-101335000D01*
X181260000Y-101335000D02*
X181260000Y-98055000D01*
X179420000Y-100639000D02*
X181260000Y-100639000D01*
X180340000Y-102515000D02*
X180340000Y-101335000D01*
X180340000Y-96875000D02*
X180340000Y-98055000D01*
X181260000Y-98055000D02*
X179420000Y-98055000D01*
X179420000Y-100879000D02*
X181260000Y-100879000D01*
%TO.C,R5*%
X198125000Y-51840000D02*
X198125000Y-52610000D01*
X199495000Y-52610000D02*
X196755000Y-52610000D01*
X199495000Y-59150000D02*
X199495000Y-52610000D01*
X196755000Y-52610000D02*
X196755000Y-59150000D01*
X196755000Y-59150000D02*
X199495000Y-59150000D01*
X198125000Y-59920000D02*
X198125000Y-59150000D01*
%TO.C,R3*%
X195580000Y-51840000D02*
X195580000Y-52610000D01*
X195580000Y-59920000D02*
X195580000Y-59150000D01*
X194210000Y-59150000D02*
X196950000Y-59150000D01*
X194210000Y-52610000D02*
X194210000Y-59150000D01*
X196950000Y-59150000D02*
X196950000Y-52610000D01*
X196950000Y-52610000D02*
X194210000Y-52610000D01*
%TO.C,R17*%
X178970000Y-91535000D02*
X181710000Y-91535000D01*
X181710000Y-91535000D02*
X181710000Y-84995000D01*
X180340000Y-92305000D02*
X180340000Y-91535000D01*
X181710000Y-84995000D02*
X178970000Y-84995000D01*
X180340000Y-84225000D02*
X180340000Y-84995000D01*
X178970000Y-84995000D02*
X178970000Y-91535000D01*
%TO.C,C3*%
X188621000Y-112745000D02*
X189879000Y-112745000D01*
X188621000Y-114585000D02*
X189879000Y-114585000D01*
%TO.C,R22*%
X186595000Y-52610000D02*
X186595000Y-59150000D01*
X189335000Y-59150000D02*
X189335000Y-52610000D01*
X186595000Y-59150000D02*
X189335000Y-59150000D01*
X189335000Y-52610000D02*
X186595000Y-52610000D01*
X187965000Y-59920000D02*
X187965000Y-59150000D01*
X187965000Y-51840000D02*
X187965000Y-52610000D01*
%TO.C,C5*%
X192379000Y-74620000D02*
X191121000Y-74620000D01*
X192379000Y-72780000D02*
X191121000Y-72780000D01*
%TO.C,C14*%
X199740000Y-105384000D02*
X199740000Y-104126000D01*
X201580000Y-105384000D02*
X201580000Y-104126000D01*
%TO.C,Q1*%
X197590000Y-116510000D02*
X201190000Y-116510000D01*
X201228478Y-116498478D02*
G75*
G03*
X199390000Y-112060000I-1838478J1838478D01*
G01*
X199390000Y-112059999D02*
G75*
G03*
X197551522Y-116498478I0J-2600001D01*
G01*
%TO.C,C7*%
X197504000Y-72780000D02*
X196246000Y-72780000D01*
X197504000Y-74620000D02*
X196246000Y-74620000D01*
%TO.C,C1*%
X180860000Y-143940000D02*
X180860000Y-142700000D01*
X180460000Y-143940000D02*
X180460000Y-142738000D01*
X178779000Y-145150000D02*
X178779000Y-144410000D01*
X179659000Y-143940000D02*
X179659000Y-143072000D01*
X180180000Y-143940000D02*
X180180000Y-142812000D01*
X179899000Y-143940000D02*
X179899000Y-142929000D01*
X179499000Y-146367000D02*
X179499000Y-145620000D01*
X179819000Y-146588000D02*
X179819000Y-145620000D01*
X180820000Y-146860000D02*
X180820000Y-145620000D01*
X179779000Y-146565000D02*
X179779000Y-145620000D01*
X180660000Y-146851000D02*
X180660000Y-145620000D01*
X179739000Y-146540000D02*
X179739000Y-145620000D01*
X180540000Y-143940000D02*
X180540000Y-142724000D01*
X179859000Y-143940000D02*
X179859000Y-142950000D01*
X178979000Y-145720000D02*
X178979000Y-143840000D01*
X179819000Y-143940000D02*
X179819000Y-142972000D01*
X180660000Y-143940000D02*
X180660000Y-142709000D01*
X180420000Y-146814000D02*
X180420000Y-145620000D01*
X180260000Y-143940000D02*
X180260000Y-142786000D01*
X179459000Y-146332000D02*
X179459000Y-145620000D01*
X180340000Y-146796000D02*
X180340000Y-145620000D01*
X179459000Y-143940000D02*
X179459000Y-143228000D01*
X179579000Y-146430000D02*
X179579000Y-145620000D01*
X179499000Y-143940000D02*
X179499000Y-143193000D01*
X179979000Y-143940000D02*
X179979000Y-142891000D01*
X180460000Y-146822000D02*
X180460000Y-145620000D01*
X178859000Y-145444000D02*
X178859000Y-144116000D01*
X180099000Y-143940000D02*
X180099000Y-142840000D01*
X180420000Y-143940000D02*
X180420000Y-142746000D01*
X179579000Y-143940000D02*
X179579000Y-143130000D01*
X180860000Y-146860000D02*
X180860000Y-145620000D01*
X182929801Y-146175000D02*
X182929801Y-145775000D01*
X179419000Y-146296000D02*
X179419000Y-145620000D01*
X180740000Y-143940000D02*
X180740000Y-142703000D01*
X180380000Y-143940000D02*
X180380000Y-142755000D01*
X180019000Y-146687000D02*
X180019000Y-145620000D01*
X179299000Y-143940000D02*
X179299000Y-143384000D01*
X179019000Y-145793000D02*
X179019000Y-143767000D01*
X179339000Y-146218000D02*
X179339000Y-145620000D01*
X180300000Y-143940000D02*
X180300000Y-142775000D01*
X178939000Y-145639000D02*
X178939000Y-143921000D01*
X180019000Y-143940000D02*
X180019000Y-142873000D01*
X179379000Y-146258000D02*
X179379000Y-145620000D01*
X179619000Y-143940000D02*
X179619000Y-143100000D01*
X180099000Y-146720000D02*
X180099000Y-145620000D01*
X179059000Y-145860000D02*
X179059000Y-143700000D01*
X180540000Y-146836000D02*
X180540000Y-145620000D01*
X180820000Y-143940000D02*
X180820000Y-142700000D01*
X178899000Y-145548000D02*
X178899000Y-144012000D01*
X179259000Y-146131000D02*
X179259000Y-143429000D01*
X179419000Y-143940000D02*
X179419000Y-143264000D01*
X179179000Y-146034000D02*
X179179000Y-143526000D01*
X179979000Y-146669000D02*
X179979000Y-145620000D01*
X180700000Y-146854000D02*
X180700000Y-145620000D01*
X179899000Y-146631000D02*
X179899000Y-145620000D01*
X179339000Y-143940000D02*
X179339000Y-143342000D01*
X180300000Y-146785000D02*
X180300000Y-145620000D01*
X179939000Y-146650000D02*
X179939000Y-145620000D01*
X179539000Y-146399000D02*
X179539000Y-145620000D01*
X180580000Y-146842000D02*
X180580000Y-145620000D01*
X179619000Y-146460000D02*
X179619000Y-145620000D01*
X180139000Y-146734000D02*
X180139000Y-145620000D01*
X183129801Y-145975000D02*
X182729801Y-145975000D01*
X180740000Y-146857000D02*
X180740000Y-145620000D01*
X180620000Y-146847000D02*
X180620000Y-145620000D01*
X180620000Y-143940000D02*
X180620000Y-142713000D01*
X179299000Y-146176000D02*
X179299000Y-145620000D01*
X180139000Y-143940000D02*
X180139000Y-142826000D01*
X179219000Y-146084000D02*
X179219000Y-143476000D01*
X180500000Y-146830000D02*
X180500000Y-145620000D01*
X180700000Y-143940000D02*
X180700000Y-142706000D01*
X179379000Y-143940000D02*
X179379000Y-143302000D01*
X179739000Y-143940000D02*
X179739000Y-143020000D01*
X178819000Y-145317000D02*
X178819000Y-144243000D01*
X180580000Y-143940000D02*
X180580000Y-142718000D01*
X180059000Y-146704000D02*
X180059000Y-145620000D01*
X180380000Y-146805000D02*
X180380000Y-145620000D01*
X180059000Y-143940000D02*
X180059000Y-142856000D01*
X179859000Y-146610000D02*
X179859000Y-145620000D01*
X180260000Y-146774000D02*
X180260000Y-145620000D01*
X180500000Y-143940000D02*
X180500000Y-142730000D01*
X179099000Y-145922000D02*
X179099000Y-143638000D01*
X179699000Y-146515000D02*
X179699000Y-145620000D01*
X180780000Y-146859000D02*
X180780000Y-145620000D01*
X180780000Y-143940000D02*
X180780000Y-142701000D01*
X179659000Y-146488000D02*
X179659000Y-145620000D01*
X180180000Y-146748000D02*
X180180000Y-145620000D01*
X179939000Y-143940000D02*
X179939000Y-142910000D01*
X180220000Y-143940000D02*
X180220000Y-142798000D01*
X180220000Y-146762000D02*
X180220000Y-145620000D01*
X179779000Y-143940000D02*
X179779000Y-142995000D01*
X180340000Y-143940000D02*
X180340000Y-142764000D01*
X179539000Y-143940000D02*
X179539000Y-143161000D01*
X179699000Y-143940000D02*
X179699000Y-143045000D01*
X179139000Y-145980000D02*
X179139000Y-143580000D01*
X182980000Y-144780000D02*
G75*
G03*
X182980000Y-144780000I-2120000J0D01*
G01*
%TO.C,C11*%
X201580000Y-109246000D02*
X201580000Y-110504000D01*
X199740000Y-109246000D02*
X199740000Y-110504000D01*
%TO.C,R9*%
X186790000Y-125825000D02*
X186790000Y-119285000D01*
X186790000Y-119285000D02*
X184050000Y-119285000D01*
X185420000Y-118515000D02*
X185420000Y-119285000D01*
X185420000Y-126595000D02*
X185420000Y-125825000D01*
X184050000Y-119285000D02*
X184050000Y-125825000D01*
X184050000Y-125825000D02*
X186790000Y-125825000D01*
%TO.C,R7*%
X198120000Y-126595000D02*
X198120000Y-125825000D01*
X196750000Y-119285000D02*
X196750000Y-125825000D01*
X196750000Y-125825000D02*
X199490000Y-125825000D01*
X199490000Y-119285000D02*
X196750000Y-119285000D01*
X198120000Y-118515000D02*
X198120000Y-119285000D01*
X199490000Y-125825000D02*
X199490000Y-119285000D01*
%TO.C,R14*%
X186590000Y-99155000D02*
X189330000Y-99155000D01*
X186590000Y-92615000D02*
X186590000Y-99155000D01*
X187960000Y-99925000D02*
X187960000Y-99155000D01*
X189330000Y-92615000D02*
X186590000Y-92615000D01*
X189330000Y-99155000D02*
X189330000Y-92615000D01*
X187960000Y-91845000D02*
X187960000Y-92615000D01*
%TO.C,C9*%
X181260000Y-109246000D02*
X181260000Y-110504000D01*
X179420000Y-109246000D02*
X179420000Y-110504000D01*
%TO.C,R21*%
X186790000Y-52610000D02*
X184050000Y-52610000D01*
X186790000Y-59150000D02*
X186790000Y-52610000D01*
X184050000Y-59150000D02*
X186790000Y-59150000D01*
X185420000Y-51840000D02*
X185420000Y-52610000D01*
X185420000Y-59920000D02*
X185420000Y-59150000D01*
X184050000Y-52610000D02*
X184050000Y-59150000D01*
%TO.C,J3*%
X185420000Y-147380000D02*
X184090000Y-147380000D01*
X184090000Y-147380000D02*
X184090000Y-146050000D01*
X196910000Y-147380000D02*
X196910000Y-144720000D01*
X186690000Y-147380000D02*
X196910000Y-147380000D01*
X186690000Y-147380000D02*
X186690000Y-144720000D01*
X186690000Y-144720000D02*
X196910000Y-144720000D01*
%TO.C,C12*%
X201585000Y-65379000D02*
X201585000Y-64121000D01*
X199745000Y-65379000D02*
X199745000Y-64121000D01*
%TO.C,C10*%
X184631000Y-112470000D02*
X184631000Y-113460000D01*
X184591000Y-112449000D02*
X184591000Y-113460000D01*
X183830000Y-115140000D02*
X183830000Y-116371000D01*
X184991000Y-112713000D02*
X184991000Y-113460000D01*
X185191000Y-115140000D02*
X185191000Y-115696000D01*
X185271000Y-112996000D02*
X185271000Y-115604000D01*
X184190000Y-115140000D02*
X184190000Y-116305000D01*
X183630000Y-112220000D02*
X183630000Y-113460000D01*
X185031000Y-115140000D02*
X185031000Y-115852000D01*
X183670000Y-115140000D02*
X183670000Y-116380000D01*
X184751000Y-115140000D02*
X184751000Y-116060000D01*
X184030000Y-115140000D02*
X184030000Y-116342000D01*
X185031000Y-112748000D02*
X185031000Y-113460000D01*
X184951000Y-115140000D02*
X184951000Y-115919000D01*
X184150000Y-115140000D02*
X184150000Y-116316000D01*
X184270000Y-112318000D02*
X184270000Y-113460000D01*
X184471000Y-115140000D02*
X184471000Y-116207000D01*
X184030000Y-112258000D02*
X184030000Y-113460000D01*
X184591000Y-115140000D02*
X184591000Y-116151000D01*
X181360199Y-113105000D02*
X181760199Y-113105000D01*
X184310000Y-112332000D02*
X184310000Y-113460000D01*
X185111000Y-115140000D02*
X185111000Y-115778000D01*
X184391000Y-115140000D02*
X184391000Y-116240000D01*
X184351000Y-112346000D02*
X184351000Y-113460000D01*
X185711000Y-113930000D02*
X185711000Y-114670000D01*
X184391000Y-112360000D02*
X184391000Y-113460000D01*
X183790000Y-112226000D02*
X183790000Y-113460000D01*
X185191000Y-112904000D02*
X185191000Y-113460000D01*
X183670000Y-112220000D02*
X183670000Y-113460000D01*
X184351000Y-115140000D02*
X184351000Y-116254000D01*
X184671000Y-112492000D02*
X184671000Y-113460000D01*
X185071000Y-112784000D02*
X185071000Y-113460000D01*
X184230000Y-112306000D02*
X184230000Y-113460000D01*
X184310000Y-115140000D02*
X184310000Y-116268000D01*
X184911000Y-112650000D02*
X184911000Y-113460000D01*
X183790000Y-115140000D02*
X183790000Y-116374000D01*
X184871000Y-115140000D02*
X184871000Y-115980000D01*
X184791000Y-112565000D02*
X184791000Y-113460000D01*
X185631000Y-113636000D02*
X185631000Y-114964000D01*
X185151000Y-112862000D02*
X185151000Y-113460000D01*
X181560199Y-112905000D02*
X181560199Y-113305000D01*
X184791000Y-115140000D02*
X184791000Y-116035000D01*
X183990000Y-112250000D02*
X183990000Y-113460000D01*
X184831000Y-115140000D02*
X184831000Y-116008000D01*
X184070000Y-112266000D02*
X184070000Y-113460000D01*
X185511000Y-113360000D02*
X185511000Y-115240000D01*
X185671000Y-113763000D02*
X185671000Y-114837000D01*
X183910000Y-115140000D02*
X183910000Y-116362000D01*
X183950000Y-115140000D02*
X183950000Y-116356000D01*
X184190000Y-112295000D02*
X184190000Y-113460000D01*
X184270000Y-115140000D02*
X184270000Y-116282000D01*
X183910000Y-112238000D02*
X183910000Y-113460000D01*
X183830000Y-112229000D02*
X183830000Y-113460000D01*
X185351000Y-113100000D02*
X185351000Y-115500000D01*
X184991000Y-115140000D02*
X184991000Y-115887000D01*
X185151000Y-115140000D02*
X185151000Y-115738000D01*
X185311000Y-113046000D02*
X185311000Y-115554000D01*
X185071000Y-115140000D02*
X185071000Y-115816000D01*
X184511000Y-112411000D02*
X184511000Y-113460000D01*
X183750000Y-112223000D02*
X183750000Y-113460000D01*
X184110000Y-112275000D02*
X184110000Y-113460000D01*
X183870000Y-112233000D02*
X183870000Y-113460000D01*
X183750000Y-115140000D02*
X183750000Y-116377000D01*
X184711000Y-112515000D02*
X184711000Y-113460000D01*
X185551000Y-113441000D02*
X185551000Y-115159000D01*
X183990000Y-115140000D02*
X183990000Y-116350000D01*
X184110000Y-115140000D02*
X184110000Y-116325000D01*
X184951000Y-112681000D02*
X184951000Y-113460000D01*
X183630000Y-115140000D02*
X183630000Y-116380000D01*
X184431000Y-112376000D02*
X184431000Y-113460000D01*
X184631000Y-115140000D02*
X184631000Y-116130000D01*
X185231000Y-112949000D02*
X185231000Y-115651000D01*
X184911000Y-115140000D02*
X184911000Y-115950000D01*
X184671000Y-115140000D02*
X184671000Y-116108000D01*
X185471000Y-113287000D02*
X185471000Y-115313000D01*
X184150000Y-112284000D02*
X184150000Y-113460000D01*
X185391000Y-113158000D02*
X185391000Y-115442000D01*
X185431000Y-113220000D02*
X185431000Y-115380000D01*
X184431000Y-115140000D02*
X184431000Y-116224000D01*
X183710000Y-115140000D02*
X183710000Y-116379000D01*
X184711000Y-115140000D02*
X184711000Y-116085000D01*
X183870000Y-115140000D02*
X183870000Y-116367000D01*
X183950000Y-112244000D02*
X183950000Y-113460000D01*
X184230000Y-115140000D02*
X184230000Y-116294000D01*
X185591000Y-113532000D02*
X185591000Y-115068000D01*
X184871000Y-112620000D02*
X184871000Y-113460000D01*
X184831000Y-112592000D02*
X184831000Y-113460000D01*
X184070000Y-115140000D02*
X184070000Y-116334000D01*
X184471000Y-112393000D02*
X184471000Y-113460000D01*
X184751000Y-112540000D02*
X184751000Y-113460000D01*
X183710000Y-112221000D02*
X183710000Y-113460000D01*
X184511000Y-115140000D02*
X184511000Y-116189000D01*
X184551000Y-112430000D02*
X184551000Y-113460000D01*
X185111000Y-112822000D02*
X185111000Y-113460000D01*
X184551000Y-115140000D02*
X184551000Y-116170000D01*
X185750000Y-114300000D02*
G75*
G03*
X185750000Y-114300000I-2120000J0D01*
G01*
%TO.C,R11*%
X191670000Y-119285000D02*
X191670000Y-125825000D01*
X194410000Y-125825000D02*
X194410000Y-119285000D01*
X193040000Y-118515000D02*
X193040000Y-119285000D01*
X194410000Y-119285000D02*
X191670000Y-119285000D01*
X193040000Y-126595000D02*
X193040000Y-125825000D01*
X191670000Y-125825000D02*
X194410000Y-125825000D01*
%TO.C,U1*%
X181545000Y-108305000D02*
X181545000Y-109955000D01*
X199445000Y-109955000D02*
X199445000Y-104655000D01*
X181545000Y-104655000D02*
X181545000Y-106305000D01*
X181545000Y-109955000D02*
X199445000Y-109955000D01*
X199445000Y-104655000D02*
X181545000Y-104655000D01*
X181545000Y-108305000D02*
G75*
G03*
X181545000Y-106305000I0J1000000D01*
G01*
%TO.C,R13*%
X199295000Y-52610000D02*
X199295000Y-59150000D01*
X202035000Y-59150000D02*
X202035000Y-52610000D01*
X202035000Y-52610000D02*
X199295000Y-52610000D01*
X200665000Y-59920000D02*
X200665000Y-59150000D01*
X199295000Y-59150000D02*
X202035000Y-59150000D01*
X200665000Y-51840000D02*
X200665000Y-52610000D01*
%TD*%
M02*
