%TF.GenerationSoftware,KiCad,Pcbnew,(6.0.5)*%
%TF.CreationDate,2023-02-15T12:36:22-05:00*%
%TF.ProjectId,wow_and_flutter,776f775f-616e-4645-9f66-6c7574746572,rev?*%
%TF.SameCoordinates,Original*%
%TF.FileFunction,Soldermask,Bot*%
%TF.FilePolarity,Negative*%
%FSLAX46Y46*%
G04 Gerber Fmt 4.6, Leading zero omitted, Abs format (unit mm)*
G04 Created by KiCad (PCBNEW (6.0.5)) date 2023-02-15 12:36:22*
%MOMM*%
%LPD*%
G01*
G04 APERTURE LIST*
G04 Aperture macros list*
%AMRoundRect*
0 Rectangle with rounded corners*
0 $1 Rounding radius*
0 $2 $3 $4 $5 $6 $7 $8 $9 X,Y pos of 4 corners*
0 Add a 4 corners polygon primitive as box body*
4,1,4,$2,$3,$4,$5,$6,$7,$8,$9,$2,$3,0*
0 Add four circle primitives for the rounded corners*
1,1,$1+$1,$2,$3*
1,1,$1+$1,$4,$5*
1,1,$1+$1,$6,$7*
1,1,$1+$1,$8,$9*
0 Add four rect primitives between the rounded corners*
20,1,$1+$1,$2,$3,$4,$5,0*
20,1,$1+$1,$4,$5,$6,$7,0*
20,1,$1+$1,$6,$7,$8,$9,0*
20,1,$1+$1,$8,$9,$2,$3,0*%
G04 Aperture macros list end*
%ADD10R,1.050000X1.500000*%
%ADD11O,1.050000X1.500000*%
%ADD12C,1.600000*%
%ADD13O,1.600000X1.600000*%
%ADD14O,4.000000X4.000000*%
%ADD15R,1.800000X1.800000*%
%ADD16C,1.800000*%
%ADD17R,1.500000X1.500000*%
%ADD18O,1.500000X1.500000*%
%ADD19R,1.700000X1.700000*%
%ADD20O,1.700000X1.700000*%
%ADD21RoundRect,0.750000X1.750000X0.750000X-1.750000X0.750000X-1.750000X-0.750000X1.750000X-0.750000X0*%
%ADD22O,2.000000X3.500000*%
%ADD23O,2.000000X2.500000*%
%ADD24O,3.500000X1.500000*%
G04 APERTURE END LIST*
D10*
%TO.C,Q3*%
X134620000Y-128270000D03*
D11*
X133350000Y-128270000D03*
X132080000Y-128270000D03*
%TD*%
D12*
%TO.C,R1*%
X130810000Y-48140000D03*
D13*
X130810000Y-37980000D03*
%TD*%
D12*
%TO.C,R6*%
X149860000Y-48140000D03*
D13*
X149860000Y-37980000D03*
%TD*%
D14*
%TO.C,RV3*%
X134950000Y-86360000D03*
X144450000Y-86360000D03*
D15*
X137200000Y-93860000D03*
D16*
X139700000Y-93860000D03*
X142200000Y-93860000D03*
%TD*%
D12*
%TO.C,R26*%
X147320000Y-138430000D03*
D13*
X147320000Y-128270000D03*
%TD*%
D12*
%TO.C,C15*%
X139700000Y-99020000D03*
X139700000Y-96520000D03*
%TD*%
D14*
%TO.C,RV4*%
X134950000Y-63500000D03*
X144450000Y-63500000D03*
D15*
X137200000Y-71000000D03*
D16*
X139700000Y-71000000D03*
X142200000Y-71000000D03*
%TD*%
D12*
%TO.C,R25*%
X133350000Y-113030000D03*
D13*
X133350000Y-123190000D03*
%TD*%
D17*
%TO.C,D5*%
X129540000Y-128275000D03*
D18*
X129540000Y-120655000D03*
%TD*%
D19*
%TO.C,J6*%
X133375000Y-76200000D03*
D20*
X135915000Y-76200000D03*
X138455000Y-76200000D03*
X140995000Y-76200000D03*
X143535000Y-76200000D03*
X146075000Y-76200000D03*
%TD*%
D19*
%TO.C,J4*%
X134620000Y-146050000D03*
D20*
X137160000Y-146050000D03*
X139700000Y-146050000D03*
X142240000Y-146050000D03*
X144780000Y-146050000D03*
%TD*%
D21*
%TO.C,SW1*%
X139700000Y-117780000D03*
X139700000Y-113030000D03*
X139700000Y-108280000D03*
%TD*%
D15*
%TO.C,D3*%
X140970000Y-128270000D03*
D16*
X138430000Y-128270000D03*
%TD*%
D22*
%TO.C,J2*%
X135000000Y-139030000D03*
D23*
X144400000Y-139030000D03*
D24*
X139700000Y-133630000D03*
X139700000Y-141730000D03*
%TD*%
D12*
%TO.C,R24*%
X144780000Y-120650000D03*
D13*
X144780000Y-130810000D03*
%TD*%
D17*
%TO.C,D4*%
X149860000Y-120650000D03*
D18*
X149860000Y-128270000D03*
%TD*%
D12*
%TO.C,R2*%
X139700000Y-50800000D03*
D13*
X149860000Y-50800000D03*
%TD*%
D14*
%TO.C,RV1*%
X144450000Y-40640000D03*
X134950000Y-40640000D03*
D15*
X137200000Y-48140000D03*
D16*
X139700000Y-48140000D03*
X142200000Y-48140000D03*
%TD*%
M02*
