%TF.GenerationSoftware,KiCad,Pcbnew,(6.0.5)*%
%TF.CreationDate,2023-02-15T12:53:25-05:00*%
%TF.ProjectId,wow_and_flutter,776f775f-616e-4645-9f66-6c7574746572,rev?*%
%TF.SameCoordinates,Original*%
%TF.FileFunction,Legend,Top*%
%TF.FilePolarity,Positive*%
%FSLAX46Y46*%
G04 Gerber Fmt 4.6, Leading zero omitted, Abs format (unit mm)*
G04 Created by KiCad (PCBNEW (6.0.5)) date 2023-02-15 12:53:25*
%MOMM*%
%LPD*%
G01*
G04 APERTURE LIST*
%ADD10C,0.120000*%
%ADD11C,0.150000*%
G04 APERTURE END LIST*
D10*
X136004761Y-44646904D02*
X136004761Y-45218333D01*
X135966666Y-45332619D01*
X135890476Y-45408809D01*
X135776190Y-45446904D01*
X135700000Y-45446904D01*
X136766666Y-45446904D02*
X136385714Y-45446904D01*
X136385714Y-44646904D01*
X137490476Y-45370714D02*
X137452380Y-45408809D01*
X137338095Y-45446904D01*
X137261904Y-45446904D01*
X137147619Y-45408809D01*
X137071428Y-45332619D01*
X137033333Y-45256428D01*
X136995238Y-45104047D01*
X136995238Y-44989761D01*
X137033333Y-44837380D01*
X137071428Y-44761190D01*
X137147619Y-44685000D01*
X137261904Y-44646904D01*
X137338095Y-44646904D01*
X137452380Y-44685000D01*
X137490476Y-44723095D01*
X138061904Y-44646904D02*
X138061904Y-45218333D01*
X138023809Y-45332619D01*
X137947619Y-45408809D01*
X137833333Y-45446904D01*
X137757142Y-45446904D01*
X138823809Y-45446904D02*
X138442857Y-45446904D01*
X138442857Y-44646904D01*
X139547619Y-45370714D02*
X139509523Y-45408809D01*
X139395238Y-45446904D01*
X139319047Y-45446904D01*
X139204761Y-45408809D01*
X139128571Y-45332619D01*
X139090476Y-45256428D01*
X139052380Y-45104047D01*
X139052380Y-44989761D01*
X139090476Y-44837380D01*
X139128571Y-44761190D01*
X139204761Y-44685000D01*
X139319047Y-44646904D01*
X139395238Y-44646904D01*
X139509523Y-44685000D01*
X139547619Y-44723095D01*
X140119047Y-44646904D02*
X140119047Y-45218333D01*
X140080952Y-45332619D01*
X140004761Y-45408809D01*
X139890476Y-45446904D01*
X139814285Y-45446904D01*
X140880952Y-45446904D02*
X140500000Y-45446904D01*
X140500000Y-44646904D01*
X141604761Y-45370714D02*
X141566666Y-45408809D01*
X141452380Y-45446904D01*
X141376190Y-45446904D01*
X141261904Y-45408809D01*
X141185714Y-45332619D01*
X141147619Y-45256428D01*
X141109523Y-45104047D01*
X141109523Y-44989761D01*
X141147619Y-44837380D01*
X141185714Y-44761190D01*
X141261904Y-44685000D01*
X141376190Y-44646904D01*
X141452380Y-44646904D01*
X141566666Y-44685000D01*
X141604761Y-44723095D01*
X142176190Y-44646904D02*
X142176190Y-45218333D01*
X142138095Y-45332619D01*
X142061904Y-45408809D01*
X141947619Y-45446904D01*
X141871428Y-45446904D01*
X142938095Y-45446904D02*
X142557142Y-45446904D01*
X142557142Y-44646904D01*
X143661904Y-45370714D02*
X143623809Y-45408809D01*
X143509523Y-45446904D01*
X143433333Y-45446904D01*
X143319047Y-45408809D01*
X143242857Y-45332619D01*
X143204761Y-45256428D01*
X143166666Y-45104047D01*
X143166666Y-44989761D01*
X143204761Y-44837380D01*
X143242857Y-44761190D01*
X143319047Y-44685000D01*
X143433333Y-44646904D01*
X143509523Y-44646904D01*
X143623809Y-44685000D01*
X143661904Y-44723095D01*
D11*
%TO.C,C15*%
X138007142Y-98412857D02*
X138054761Y-98460476D01*
X138102380Y-98603333D01*
X138102380Y-98698571D01*
X138054761Y-98841428D01*
X137959523Y-98936666D01*
X137864285Y-98984285D01*
X137673809Y-99031904D01*
X137530952Y-99031904D01*
X137340476Y-98984285D01*
X137245238Y-98936666D01*
X137150000Y-98841428D01*
X137102380Y-98698571D01*
X137102380Y-98603333D01*
X137150000Y-98460476D01*
X137197619Y-98412857D01*
X138102380Y-97460476D02*
X138102380Y-98031904D01*
X138102380Y-97746190D02*
X137102380Y-97746190D01*
X137245238Y-97841428D01*
X137340476Y-97936666D01*
X137388095Y-98031904D01*
X137102380Y-96555714D02*
X137102380Y-97031904D01*
X137578571Y-97079523D01*
X137530952Y-97031904D01*
X137483333Y-96936666D01*
X137483333Y-96698571D01*
X137530952Y-96603333D01*
X137578571Y-96555714D01*
X137673809Y-96508095D01*
X137911904Y-96508095D01*
X138007142Y-96555714D01*
X138054761Y-96603333D01*
X138102380Y-96698571D01*
X138102380Y-96936666D01*
X138054761Y-97031904D01*
X138007142Y-97079523D01*
X142202380Y-98365238D02*
X142202380Y-98936666D01*
X142202380Y-98650952D02*
X141202380Y-98650952D01*
X141345238Y-98746190D01*
X141440476Y-98841428D01*
X141488095Y-98936666D01*
X141535714Y-97508095D02*
X142202380Y-97508095D01*
X141535714Y-97936666D02*
X142059523Y-97936666D01*
X142154761Y-97889047D01*
X142202380Y-97793809D01*
X142202380Y-97650952D01*
X142154761Y-97555714D01*
X142107142Y-97508095D01*
X141678571Y-96698571D02*
X141678571Y-97031904D01*
X142202380Y-97031904D02*
X141202380Y-97031904D01*
X141202380Y-96555714D01*
%TO.C,D5*%
X129992380Y-118848095D02*
X128992380Y-118848095D01*
X128992380Y-118610000D01*
X129040000Y-118467142D01*
X129135238Y-118371904D01*
X129230476Y-118324285D01*
X129420952Y-118276666D01*
X129563809Y-118276666D01*
X129754285Y-118324285D01*
X129849523Y-118371904D01*
X129944761Y-118467142D01*
X129992380Y-118610000D01*
X129992380Y-118848095D01*
X128992380Y-117371904D02*
X128992380Y-117848095D01*
X129468571Y-117895714D01*
X129420952Y-117848095D01*
X129373333Y-117752857D01*
X129373333Y-117514761D01*
X129420952Y-117419523D01*
X129468571Y-117371904D01*
X129563809Y-117324285D01*
X129801904Y-117324285D01*
X129897142Y-117371904D01*
X129944761Y-117419523D01*
X129992380Y-117514761D01*
X129992380Y-117752857D01*
X129944761Y-117848095D01*
X129897142Y-117895714D01*
%TO.C,R6*%
X150312380Y-35922976D02*
X149836190Y-36256309D01*
X150312380Y-36494404D02*
X149312380Y-36494404D01*
X149312380Y-36113452D01*
X149360000Y-36018214D01*
X149407619Y-35970595D01*
X149502857Y-35922976D01*
X149645714Y-35922976D01*
X149740952Y-35970595D01*
X149788571Y-36018214D01*
X149836190Y-36113452D01*
X149836190Y-36494404D01*
X149312380Y-35065833D02*
X149312380Y-35256309D01*
X149360000Y-35351547D01*
X149407619Y-35399166D01*
X149550476Y-35494404D01*
X149740952Y-35542023D01*
X150121904Y-35542023D01*
X150217142Y-35494404D01*
X150264761Y-35446785D01*
X150312380Y-35351547D01*
X150312380Y-35161071D01*
X150264761Y-35065833D01*
X150217142Y-35018214D01*
X150121904Y-34970595D01*
X149883809Y-34970595D01*
X149788571Y-35018214D01*
X149740952Y-35065833D01*
X149693333Y-35161071D01*
X149693333Y-35351547D01*
X149740952Y-35446785D01*
X149788571Y-35494404D01*
X149883809Y-35542023D01*
X150312380Y-44131428D02*
X150312380Y-44702857D01*
X150312380Y-44417142D02*
X149312380Y-44417142D01*
X149455238Y-44512380D01*
X149550476Y-44607619D01*
X149598095Y-44702857D01*
X149312380Y-43512380D02*
X149312380Y-43417142D01*
X149360000Y-43321904D01*
X149407619Y-43274285D01*
X149502857Y-43226666D01*
X149693333Y-43179047D01*
X149931428Y-43179047D01*
X150121904Y-43226666D01*
X150217142Y-43274285D01*
X150264761Y-43321904D01*
X150312380Y-43417142D01*
X150312380Y-43512380D01*
X150264761Y-43607619D01*
X150217142Y-43655238D01*
X150121904Y-43702857D01*
X149931428Y-43750476D01*
X149693333Y-43750476D01*
X149502857Y-43702857D01*
X149407619Y-43655238D01*
X149360000Y-43607619D01*
X149312380Y-43512380D01*
X149312380Y-42560000D02*
X149312380Y-42464761D01*
X149360000Y-42369523D01*
X149407619Y-42321904D01*
X149502857Y-42274285D01*
X149693333Y-42226666D01*
X149931428Y-42226666D01*
X150121904Y-42274285D01*
X150217142Y-42321904D01*
X150264761Y-42369523D01*
X150312380Y-42464761D01*
X150312380Y-42560000D01*
X150264761Y-42655238D01*
X150217142Y-42702857D01*
X150121904Y-42750476D01*
X149931428Y-42798095D01*
X149693333Y-42798095D01*
X149502857Y-42750476D01*
X149407619Y-42702857D01*
X149360000Y-42655238D01*
X149312380Y-42560000D01*
X150312380Y-41798095D02*
X149312380Y-41798095D01*
X149931428Y-41702857D02*
X150312380Y-41417142D01*
X149645714Y-41417142D02*
X150026666Y-41798095D01*
%TO.C,D4*%
X148407380Y-125198095D02*
X147407380Y-125198095D01*
X147407380Y-124960000D01*
X147455000Y-124817142D01*
X147550238Y-124721904D01*
X147645476Y-124674285D01*
X147835952Y-124626666D01*
X147978809Y-124626666D01*
X148169285Y-124674285D01*
X148264523Y-124721904D01*
X148359761Y-124817142D01*
X148407380Y-124960000D01*
X148407380Y-125198095D01*
X147740714Y-123769523D02*
X148407380Y-123769523D01*
X147359761Y-124007619D02*
X148074047Y-124245714D01*
X148074047Y-123626666D01*
%TO.C,RV3*%
X134659761Y-80462380D02*
X134326428Y-79986190D01*
X134088333Y-80462380D02*
X134088333Y-79462380D01*
X134469285Y-79462380D01*
X134564523Y-79510000D01*
X134612142Y-79557619D01*
X134659761Y-79652857D01*
X134659761Y-79795714D01*
X134612142Y-79890952D01*
X134564523Y-79938571D01*
X134469285Y-79986190D01*
X134088333Y-79986190D01*
X134945476Y-79462380D02*
X135278809Y-80462380D01*
X135612142Y-79462380D01*
X135850238Y-79462380D02*
X136469285Y-79462380D01*
X136135952Y-79843333D01*
X136278809Y-79843333D01*
X136374047Y-79890952D01*
X136421666Y-79938571D01*
X136469285Y-80033809D01*
X136469285Y-80271904D01*
X136421666Y-80367142D01*
X136374047Y-80414761D01*
X136278809Y-80462380D01*
X135993095Y-80462380D01*
X135897857Y-80414761D01*
X135850238Y-80367142D01*
X139620952Y-80462380D02*
X139049523Y-80462380D01*
X139335238Y-80462380D02*
X139335238Y-79462380D01*
X139240000Y-79605238D01*
X139144761Y-79700476D01*
X139049523Y-79748095D01*
X140240000Y-79462380D02*
X140335238Y-79462380D01*
X140430476Y-79510000D01*
X140478095Y-79557619D01*
X140525714Y-79652857D01*
X140573333Y-79843333D01*
X140573333Y-80081428D01*
X140525714Y-80271904D01*
X140478095Y-80367142D01*
X140430476Y-80414761D01*
X140335238Y-80462380D01*
X140240000Y-80462380D01*
X140144761Y-80414761D01*
X140097142Y-80367142D01*
X140049523Y-80271904D01*
X140001904Y-80081428D01*
X140001904Y-79843333D01*
X140049523Y-79652857D01*
X140097142Y-79557619D01*
X140144761Y-79510000D01*
X140240000Y-79462380D01*
X141192380Y-79462380D02*
X141287619Y-79462380D01*
X141382857Y-79510000D01*
X141430476Y-79557619D01*
X141478095Y-79652857D01*
X141525714Y-79843333D01*
X141525714Y-80081428D01*
X141478095Y-80271904D01*
X141430476Y-80367142D01*
X141382857Y-80414761D01*
X141287619Y-80462380D01*
X141192380Y-80462380D01*
X141097142Y-80414761D01*
X141049523Y-80367142D01*
X141001904Y-80271904D01*
X140954285Y-80081428D01*
X140954285Y-79843333D01*
X141001904Y-79652857D01*
X141049523Y-79557619D01*
X141097142Y-79510000D01*
X141192380Y-79462380D01*
X141954285Y-80462380D02*
X141954285Y-79462380D01*
X142049523Y-80081428D02*
X142335238Y-80462380D01*
X142335238Y-79795714D02*
X141954285Y-80176666D01*
X144001904Y-80462380D02*
X143525714Y-80462380D01*
X143525714Y-79462380D01*
X144335238Y-80462380D02*
X144335238Y-79462380D01*
X144811428Y-80462380D02*
X144811428Y-79462380D01*
X145382857Y-80462380D01*
X145382857Y-79462380D01*
X146454761Y-92519285D02*
X146502380Y-92376428D01*
X146502380Y-92138333D01*
X146454761Y-92043095D01*
X146407142Y-91995476D01*
X146311904Y-91947857D01*
X146216666Y-91947857D01*
X146121428Y-91995476D01*
X146073809Y-92043095D01*
X146026190Y-92138333D01*
X145978571Y-92328809D01*
X145930952Y-92424047D01*
X145883333Y-92471666D01*
X145788095Y-92519285D01*
X145692857Y-92519285D01*
X145597619Y-92471666D01*
X145550000Y-92424047D01*
X145502380Y-92328809D01*
X145502380Y-92090714D01*
X145550000Y-91947857D01*
X146502380Y-91043095D02*
X146502380Y-91519285D01*
X145502380Y-91519285D01*
X145978571Y-90709761D02*
X145978571Y-90376428D01*
X146502380Y-90233571D02*
X146502380Y-90709761D01*
X145502380Y-90709761D01*
X145502380Y-90233571D01*
X145502380Y-89900238D02*
X146502380Y-89662142D01*
X145788095Y-89471666D01*
X146502380Y-89281190D01*
X145502380Y-89043095D01*
%TO.C,J2*%
X131746666Y-137882380D02*
X131746666Y-138596666D01*
X131699047Y-138739523D01*
X131603809Y-138834761D01*
X131460952Y-138882380D01*
X131365714Y-138882380D01*
X132175238Y-137977619D02*
X132222857Y-137930000D01*
X132318095Y-137882380D01*
X132556190Y-137882380D01*
X132651428Y-137930000D01*
X132699047Y-137977619D01*
X132746666Y-138072857D01*
X132746666Y-138168095D01*
X132699047Y-138310952D01*
X132127619Y-138882380D01*
X132746666Y-138882380D01*
%TO.C,R25*%
X133802380Y-110852976D02*
X133326190Y-111186309D01*
X133802380Y-111424404D02*
X132802380Y-111424404D01*
X132802380Y-111043452D01*
X132850000Y-110948214D01*
X132897619Y-110900595D01*
X132992857Y-110852976D01*
X133135714Y-110852976D01*
X133230952Y-110900595D01*
X133278571Y-110948214D01*
X133326190Y-111043452D01*
X133326190Y-111424404D01*
X132897619Y-110472023D02*
X132850000Y-110424404D01*
X132802380Y-110329166D01*
X132802380Y-110091071D01*
X132850000Y-109995833D01*
X132897619Y-109948214D01*
X132992857Y-109900595D01*
X133088095Y-109900595D01*
X133230952Y-109948214D01*
X133802380Y-110519642D01*
X133802380Y-109900595D01*
X132802380Y-108995833D02*
X132802380Y-109472023D01*
X133278571Y-109519642D01*
X133230952Y-109472023D01*
X133183333Y-109376785D01*
X133183333Y-109138690D01*
X133230952Y-109043452D01*
X133278571Y-108995833D01*
X133373809Y-108948214D01*
X133611904Y-108948214D01*
X133707142Y-108995833D01*
X133754761Y-109043452D01*
X133802380Y-109138690D01*
X133802380Y-109376785D01*
X133754761Y-109472023D01*
X133707142Y-109519642D01*
X133802380Y-119181428D02*
X133802380Y-119752857D01*
X133802380Y-119467142D02*
X132802380Y-119467142D01*
X132945238Y-119562380D01*
X133040476Y-119657619D01*
X133088095Y-119752857D01*
X132802380Y-118562380D02*
X132802380Y-118467142D01*
X132850000Y-118371904D01*
X132897619Y-118324285D01*
X132992857Y-118276666D01*
X133183333Y-118229047D01*
X133421428Y-118229047D01*
X133611904Y-118276666D01*
X133707142Y-118324285D01*
X133754761Y-118371904D01*
X133802380Y-118467142D01*
X133802380Y-118562380D01*
X133754761Y-118657619D01*
X133707142Y-118705238D01*
X133611904Y-118752857D01*
X133421428Y-118800476D01*
X133183333Y-118800476D01*
X132992857Y-118752857D01*
X132897619Y-118705238D01*
X132850000Y-118657619D01*
X132802380Y-118562380D01*
X132802380Y-117610000D02*
X132802380Y-117514761D01*
X132850000Y-117419523D01*
X132897619Y-117371904D01*
X132992857Y-117324285D01*
X133183333Y-117276666D01*
X133421428Y-117276666D01*
X133611904Y-117324285D01*
X133707142Y-117371904D01*
X133754761Y-117419523D01*
X133802380Y-117514761D01*
X133802380Y-117610000D01*
X133754761Y-117705238D01*
X133707142Y-117752857D01*
X133611904Y-117800476D01*
X133421428Y-117848095D01*
X133183333Y-117848095D01*
X132992857Y-117800476D01*
X132897619Y-117752857D01*
X132850000Y-117705238D01*
X132802380Y-117610000D01*
X133802380Y-116848095D02*
X132802380Y-116848095D01*
X133421428Y-116752857D02*
X133802380Y-116467142D01*
X133135714Y-116467142D02*
X133516666Y-116848095D01*
%TO.C,R24*%
X145232380Y-118472976D02*
X144756190Y-118806309D01*
X145232380Y-119044404D02*
X144232380Y-119044404D01*
X144232380Y-118663452D01*
X144280000Y-118568214D01*
X144327619Y-118520595D01*
X144422857Y-118472976D01*
X144565714Y-118472976D01*
X144660952Y-118520595D01*
X144708571Y-118568214D01*
X144756190Y-118663452D01*
X144756190Y-119044404D01*
X144327619Y-118092023D02*
X144280000Y-118044404D01*
X144232380Y-117949166D01*
X144232380Y-117711071D01*
X144280000Y-117615833D01*
X144327619Y-117568214D01*
X144422857Y-117520595D01*
X144518095Y-117520595D01*
X144660952Y-117568214D01*
X145232380Y-118139642D01*
X145232380Y-117520595D01*
X144565714Y-116663452D02*
X145232380Y-116663452D01*
X144184761Y-116901547D02*
X144899047Y-117139642D01*
X144899047Y-116520595D01*
X145232380Y-125849047D02*
X145232380Y-126420476D01*
X145232380Y-126134761D02*
X144232380Y-126134761D01*
X144375238Y-126230000D01*
X144470476Y-126325238D01*
X144518095Y-126420476D01*
X145232380Y-125420476D02*
X144232380Y-125420476D01*
X144851428Y-125325238D02*
X145232380Y-125039523D01*
X144565714Y-125039523D02*
X144946666Y-125420476D01*
%TO.C,RV4*%
X134659761Y-57602380D02*
X134326428Y-57126190D01*
X134088333Y-57602380D02*
X134088333Y-56602380D01*
X134469285Y-56602380D01*
X134564523Y-56650000D01*
X134612142Y-56697619D01*
X134659761Y-56792857D01*
X134659761Y-56935714D01*
X134612142Y-57030952D01*
X134564523Y-57078571D01*
X134469285Y-57126190D01*
X134088333Y-57126190D01*
X134945476Y-56602380D02*
X135278809Y-57602380D01*
X135612142Y-56602380D01*
X136374047Y-56935714D02*
X136374047Y-57602380D01*
X136135952Y-56554761D02*
X135897857Y-57269047D01*
X136516904Y-57269047D01*
X139620952Y-57602380D02*
X139049523Y-57602380D01*
X139335238Y-57602380D02*
X139335238Y-56602380D01*
X139240000Y-56745238D01*
X139144761Y-56840476D01*
X139049523Y-56888095D01*
X140240000Y-56602380D02*
X140335238Y-56602380D01*
X140430476Y-56650000D01*
X140478095Y-56697619D01*
X140525714Y-56792857D01*
X140573333Y-56983333D01*
X140573333Y-57221428D01*
X140525714Y-57411904D01*
X140478095Y-57507142D01*
X140430476Y-57554761D01*
X140335238Y-57602380D01*
X140240000Y-57602380D01*
X140144761Y-57554761D01*
X140097142Y-57507142D01*
X140049523Y-57411904D01*
X140001904Y-57221428D01*
X140001904Y-56983333D01*
X140049523Y-56792857D01*
X140097142Y-56697619D01*
X140144761Y-56650000D01*
X140240000Y-56602380D01*
X141192380Y-56602380D02*
X141287619Y-56602380D01*
X141382857Y-56650000D01*
X141430476Y-56697619D01*
X141478095Y-56792857D01*
X141525714Y-56983333D01*
X141525714Y-57221428D01*
X141478095Y-57411904D01*
X141430476Y-57507142D01*
X141382857Y-57554761D01*
X141287619Y-57602380D01*
X141192380Y-57602380D01*
X141097142Y-57554761D01*
X141049523Y-57507142D01*
X141001904Y-57411904D01*
X140954285Y-57221428D01*
X140954285Y-56983333D01*
X141001904Y-56792857D01*
X141049523Y-56697619D01*
X141097142Y-56650000D01*
X141192380Y-56602380D01*
X141954285Y-57602380D02*
X141954285Y-56602380D01*
X142049523Y-57221428D02*
X142335238Y-57602380D01*
X142335238Y-56935714D02*
X141954285Y-57316666D01*
X144001904Y-57602380D02*
X143525714Y-57602380D01*
X143525714Y-56602380D01*
X144335238Y-57602380D02*
X144335238Y-56602380D01*
X144811428Y-57602380D02*
X144811428Y-56602380D01*
X145382857Y-57602380D01*
X145382857Y-56602380D01*
X146502380Y-70064047D02*
X145502380Y-70064047D01*
X145502380Y-69825952D01*
X145550000Y-69683095D01*
X145645238Y-69587857D01*
X145740476Y-69540238D01*
X145930952Y-69492619D01*
X146073809Y-69492619D01*
X146264285Y-69540238D01*
X146359523Y-69587857D01*
X146454761Y-69683095D01*
X146502380Y-69825952D01*
X146502380Y-70064047D01*
X145978571Y-69064047D02*
X145978571Y-68730714D01*
X146502380Y-68587857D02*
X146502380Y-69064047D01*
X145502380Y-69064047D01*
X145502380Y-68587857D01*
X146502380Y-68159285D02*
X145502380Y-68159285D01*
X145502380Y-67778333D01*
X145550000Y-67683095D01*
X145597619Y-67635476D01*
X145692857Y-67587857D01*
X145835714Y-67587857D01*
X145930952Y-67635476D01*
X145978571Y-67683095D01*
X146026190Y-67778333D01*
X146026190Y-68159285D01*
X145502380Y-67302142D02*
X145502380Y-66730714D01*
X146502380Y-67016428D02*
X145502380Y-67016428D01*
X146502380Y-66397380D02*
X145502380Y-66397380D01*
X145978571Y-66397380D02*
X145978571Y-65825952D01*
X146502380Y-65825952D02*
X145502380Y-65825952D01*
%TO.C,R1*%
X131262380Y-50770357D02*
X130786190Y-51103690D01*
X131262380Y-51341785D02*
X130262380Y-51341785D01*
X130262380Y-50960833D01*
X130310000Y-50865595D01*
X130357619Y-50817976D01*
X130452857Y-50770357D01*
X130595714Y-50770357D01*
X130690952Y-50817976D01*
X130738571Y-50865595D01*
X130786190Y-50960833D01*
X130786190Y-51341785D01*
X131262380Y-49817976D02*
X131262380Y-50389404D01*
X131262380Y-50103690D02*
X130262380Y-50103690D01*
X130405238Y-50198928D01*
X130500476Y-50294166D01*
X130548095Y-50389404D01*
X131262380Y-43179047D02*
X131262380Y-43750476D01*
X131262380Y-43464761D02*
X130262380Y-43464761D01*
X130405238Y-43560000D01*
X130500476Y-43655238D01*
X130548095Y-43750476D01*
X131262380Y-42750476D02*
X130262380Y-42750476D01*
X130881428Y-42655238D02*
X131262380Y-42369523D01*
X130595714Y-42369523D02*
X130976666Y-42750476D01*
%TO.C,SW1*%
X138366666Y-105814761D02*
X138509523Y-105862380D01*
X138747619Y-105862380D01*
X138842857Y-105814761D01*
X138890476Y-105767142D01*
X138938095Y-105671904D01*
X138938095Y-105576666D01*
X138890476Y-105481428D01*
X138842857Y-105433809D01*
X138747619Y-105386190D01*
X138557142Y-105338571D01*
X138461904Y-105290952D01*
X138414285Y-105243333D01*
X138366666Y-105148095D01*
X138366666Y-105052857D01*
X138414285Y-104957619D01*
X138461904Y-104910000D01*
X138557142Y-104862380D01*
X138795238Y-104862380D01*
X138938095Y-104910000D01*
X139271428Y-104862380D02*
X139509523Y-105862380D01*
X139700000Y-105148095D01*
X139890476Y-105862380D01*
X140128571Y-104862380D01*
X141033333Y-105862380D02*
X140461904Y-105862380D01*
X140747619Y-105862380D02*
X140747619Y-104862380D01*
X140652380Y-105005238D01*
X140557142Y-105100476D01*
X140461904Y-105148095D01*
%TO.C,Q3*%
X133254761Y-126023619D02*
X133159523Y-125976000D01*
X133064285Y-125880761D01*
X132921428Y-125737904D01*
X132826190Y-125690285D01*
X132730952Y-125690285D01*
X132778571Y-125928380D02*
X132683333Y-125880761D01*
X132588095Y-125785523D01*
X132540476Y-125595047D01*
X132540476Y-125261714D01*
X132588095Y-125071238D01*
X132683333Y-124976000D01*
X132778571Y-124928380D01*
X132969047Y-124928380D01*
X133064285Y-124976000D01*
X133159523Y-125071238D01*
X133207142Y-125261714D01*
X133207142Y-125595047D01*
X133159523Y-125785523D01*
X133064285Y-125880761D01*
X132969047Y-125928380D01*
X132778571Y-125928380D01*
X133540476Y-124928380D02*
X134159523Y-124928380D01*
X133826190Y-125309333D01*
X133969047Y-125309333D01*
X134064285Y-125356952D01*
X134111904Y-125404571D01*
X134159523Y-125499809D01*
X134159523Y-125737904D01*
X134111904Y-125833142D01*
X134064285Y-125880761D01*
X133969047Y-125928380D01*
X133683333Y-125928380D01*
X133588095Y-125880761D01*
X133540476Y-125833142D01*
X130635714Y-131119619D02*
X130683333Y-131072000D01*
X130778571Y-131024380D01*
X131016666Y-131024380D01*
X131111904Y-131072000D01*
X131159523Y-131119619D01*
X131207142Y-131214857D01*
X131207142Y-131310095D01*
X131159523Y-131452952D01*
X130588095Y-132024380D01*
X131207142Y-132024380D01*
X131635714Y-132024380D02*
X131635714Y-131024380D01*
X132207142Y-132024380D01*
X132207142Y-131024380D01*
X132588095Y-131024380D02*
X133207142Y-131024380D01*
X132873809Y-131405333D01*
X133016666Y-131405333D01*
X133111904Y-131452952D01*
X133159523Y-131500571D01*
X133207142Y-131595809D01*
X133207142Y-131833904D01*
X133159523Y-131929142D01*
X133111904Y-131976761D01*
X133016666Y-132024380D01*
X132730952Y-132024380D01*
X132635714Y-131976761D01*
X132588095Y-131929142D01*
X133683333Y-132024380D02*
X133873809Y-132024380D01*
X133969047Y-131976761D01*
X134016666Y-131929142D01*
X134111904Y-131786285D01*
X134159523Y-131595809D01*
X134159523Y-131214857D01*
X134111904Y-131119619D01*
X134064285Y-131072000D01*
X133969047Y-131024380D01*
X133778571Y-131024380D01*
X133683333Y-131072000D01*
X133635714Y-131119619D01*
X133588095Y-131214857D01*
X133588095Y-131452952D01*
X133635714Y-131548190D01*
X133683333Y-131595809D01*
X133778571Y-131643428D01*
X133969047Y-131643428D01*
X134064285Y-131595809D01*
X134111904Y-131548190D01*
X134159523Y-131452952D01*
X134778571Y-131024380D02*
X134873809Y-131024380D01*
X134969047Y-131072000D01*
X135016666Y-131119619D01*
X135064285Y-131214857D01*
X135111904Y-131405333D01*
X135111904Y-131643428D01*
X135064285Y-131833904D01*
X135016666Y-131929142D01*
X134969047Y-131976761D01*
X134873809Y-132024380D01*
X134778571Y-132024380D01*
X134683333Y-131976761D01*
X134635714Y-131929142D01*
X134588095Y-131833904D01*
X134540476Y-131643428D01*
X134540476Y-131405333D01*
X134588095Y-131214857D01*
X134635714Y-131119619D01*
X134683333Y-131072000D01*
X134778571Y-131024380D01*
X135969047Y-131357714D02*
X135969047Y-132024380D01*
X135730952Y-130976761D02*
X135492857Y-131691047D01*
X136111904Y-131691047D01*
%TO.C,R26*%
X150312380Y-133992857D02*
X149836190Y-134326190D01*
X150312380Y-134564285D02*
X149312380Y-134564285D01*
X149312380Y-134183333D01*
X149360000Y-134088095D01*
X149407619Y-134040476D01*
X149502857Y-133992857D01*
X149645714Y-133992857D01*
X149740952Y-134040476D01*
X149788571Y-134088095D01*
X149836190Y-134183333D01*
X149836190Y-134564285D01*
X149407619Y-133611904D02*
X149360000Y-133564285D01*
X149312380Y-133469047D01*
X149312380Y-133230952D01*
X149360000Y-133135714D01*
X149407619Y-133088095D01*
X149502857Y-133040476D01*
X149598095Y-133040476D01*
X149740952Y-133088095D01*
X150312380Y-133659523D01*
X150312380Y-133040476D01*
X149312380Y-132183333D02*
X149312380Y-132373809D01*
X149360000Y-132469047D01*
X149407619Y-132516666D01*
X149550476Y-132611904D01*
X149740952Y-132659523D01*
X150121904Y-132659523D01*
X150217142Y-132611904D01*
X150264761Y-132564285D01*
X150312380Y-132469047D01*
X150312380Y-132278571D01*
X150264761Y-132183333D01*
X150217142Y-132135714D01*
X150121904Y-132088095D01*
X149883809Y-132088095D01*
X149788571Y-132135714D01*
X149740952Y-132183333D01*
X149693333Y-132278571D01*
X149693333Y-132469047D01*
X149740952Y-132564285D01*
X149788571Y-132611904D01*
X149883809Y-132659523D01*
X146867619Y-134516666D02*
X146820000Y-134469047D01*
X146772380Y-134373809D01*
X146772380Y-134135714D01*
X146820000Y-134040476D01*
X146867619Y-133992857D01*
X146962857Y-133945238D01*
X147058095Y-133945238D01*
X147200952Y-133992857D01*
X147772380Y-134564285D01*
X147772380Y-133945238D01*
X147772380Y-133516666D02*
X146772380Y-133516666D01*
X147391428Y-133421428D02*
X147772380Y-133135714D01*
X147105714Y-133135714D02*
X147486666Y-133516666D01*
X146867619Y-132754761D02*
X146820000Y-132707142D01*
X146772380Y-132611904D01*
X146772380Y-132373809D01*
X146820000Y-132278571D01*
X146867619Y-132230952D01*
X146962857Y-132183333D01*
X147058095Y-132183333D01*
X147200952Y-132230952D01*
X147772380Y-132802380D01*
X147772380Y-132183333D01*
%TO.C,D3*%
X138961904Y-124912380D02*
X138961904Y-123912380D01*
X139200000Y-123912380D01*
X139342857Y-123960000D01*
X139438095Y-124055238D01*
X139485714Y-124150476D01*
X139533333Y-124340952D01*
X139533333Y-124483809D01*
X139485714Y-124674285D01*
X139438095Y-124769523D01*
X139342857Y-124864761D01*
X139200000Y-124912380D01*
X138961904Y-124912380D01*
X139866666Y-123912380D02*
X140485714Y-123912380D01*
X140152380Y-124293333D01*
X140295238Y-124293333D01*
X140390476Y-124340952D01*
X140438095Y-124388571D01*
X140485714Y-124483809D01*
X140485714Y-124721904D01*
X140438095Y-124817142D01*
X140390476Y-124864761D01*
X140295238Y-124912380D01*
X140009523Y-124912380D01*
X139914285Y-124864761D01*
X139866666Y-124817142D01*
%TO.C,R2*%
X144613333Y-53792380D02*
X144280000Y-53316190D01*
X144041904Y-53792380D02*
X144041904Y-52792380D01*
X144422857Y-52792380D01*
X144518095Y-52840000D01*
X144565714Y-52887619D01*
X144613333Y-52982857D01*
X144613333Y-53125714D01*
X144565714Y-53220952D01*
X144518095Y-53268571D01*
X144422857Y-53316190D01*
X144041904Y-53316190D01*
X144994285Y-52887619D02*
X145041904Y-52840000D01*
X145137142Y-52792380D01*
X145375238Y-52792380D01*
X145470476Y-52840000D01*
X145518095Y-52887619D01*
X145565714Y-52982857D01*
X145565714Y-53078095D01*
X145518095Y-53220952D01*
X144946666Y-53792380D01*
X145565714Y-53792380D01*
X143708571Y-51252380D02*
X143137142Y-51252380D01*
X143422857Y-51252380D02*
X143422857Y-50252380D01*
X143327619Y-50395238D01*
X143232380Y-50490476D01*
X143137142Y-50538095D01*
X144327619Y-50252380D02*
X144422857Y-50252380D01*
X144518095Y-50300000D01*
X144565714Y-50347619D01*
X144613333Y-50442857D01*
X144660952Y-50633333D01*
X144660952Y-50871428D01*
X144613333Y-51061904D01*
X144565714Y-51157142D01*
X144518095Y-51204761D01*
X144422857Y-51252380D01*
X144327619Y-51252380D01*
X144232380Y-51204761D01*
X144184761Y-51157142D01*
X144137142Y-51061904D01*
X144089523Y-50871428D01*
X144089523Y-50633333D01*
X144137142Y-50442857D01*
X144184761Y-50347619D01*
X144232380Y-50300000D01*
X144327619Y-50252380D01*
X145280000Y-50252380D02*
X145375238Y-50252380D01*
X145470476Y-50300000D01*
X145518095Y-50347619D01*
X145565714Y-50442857D01*
X145613333Y-50633333D01*
X145613333Y-50871428D01*
X145565714Y-51061904D01*
X145518095Y-51157142D01*
X145470476Y-51204761D01*
X145375238Y-51252380D01*
X145280000Y-51252380D01*
X145184761Y-51204761D01*
X145137142Y-51157142D01*
X145089523Y-51061904D01*
X145041904Y-50871428D01*
X145041904Y-50633333D01*
X145089523Y-50442857D01*
X145137142Y-50347619D01*
X145184761Y-50300000D01*
X145280000Y-50252380D01*
X146041904Y-51252380D02*
X146041904Y-50252380D01*
X146137142Y-50871428D02*
X146422857Y-51252380D01*
X146422857Y-50585714D02*
X146041904Y-50966666D01*
%TO.C,RV1*%
X134659761Y-34742380D02*
X134326428Y-34266190D01*
X134088333Y-34742380D02*
X134088333Y-33742380D01*
X134469285Y-33742380D01*
X134564523Y-33790000D01*
X134612142Y-33837619D01*
X134659761Y-33932857D01*
X134659761Y-34075714D01*
X134612142Y-34170952D01*
X134564523Y-34218571D01*
X134469285Y-34266190D01*
X134088333Y-34266190D01*
X134945476Y-33742380D02*
X135278809Y-34742380D01*
X135612142Y-33742380D01*
X136469285Y-34742380D02*
X135897857Y-34742380D01*
X136183571Y-34742380D02*
X136183571Y-33742380D01*
X136088333Y-33885238D01*
X135993095Y-33980476D01*
X135897857Y-34028095D01*
X139620952Y-34742380D02*
X139049523Y-34742380D01*
X139335238Y-34742380D02*
X139335238Y-33742380D01*
X139240000Y-33885238D01*
X139144761Y-33980476D01*
X139049523Y-34028095D01*
X140240000Y-33742380D02*
X140335238Y-33742380D01*
X140430476Y-33790000D01*
X140478095Y-33837619D01*
X140525714Y-33932857D01*
X140573333Y-34123333D01*
X140573333Y-34361428D01*
X140525714Y-34551904D01*
X140478095Y-34647142D01*
X140430476Y-34694761D01*
X140335238Y-34742380D01*
X140240000Y-34742380D01*
X140144761Y-34694761D01*
X140097142Y-34647142D01*
X140049523Y-34551904D01*
X140001904Y-34361428D01*
X140001904Y-34123333D01*
X140049523Y-33932857D01*
X140097142Y-33837619D01*
X140144761Y-33790000D01*
X140240000Y-33742380D01*
X141192380Y-33742380D02*
X141287619Y-33742380D01*
X141382857Y-33790000D01*
X141430476Y-33837619D01*
X141478095Y-33932857D01*
X141525714Y-34123333D01*
X141525714Y-34361428D01*
X141478095Y-34551904D01*
X141430476Y-34647142D01*
X141382857Y-34694761D01*
X141287619Y-34742380D01*
X141192380Y-34742380D01*
X141097142Y-34694761D01*
X141049523Y-34647142D01*
X141001904Y-34551904D01*
X140954285Y-34361428D01*
X140954285Y-34123333D01*
X141001904Y-33932857D01*
X141049523Y-33837619D01*
X141097142Y-33790000D01*
X141192380Y-33742380D01*
X141954285Y-34742380D02*
X141954285Y-33742380D01*
X142049523Y-34361428D02*
X142335238Y-34742380D01*
X142335238Y-34075714D02*
X141954285Y-34456666D01*
X144001904Y-34742380D02*
X143525714Y-34742380D01*
X143525714Y-33742380D01*
X144335238Y-34742380D02*
X144335238Y-33742380D01*
X144811428Y-34742380D02*
X144811428Y-33742380D01*
X145382857Y-34742380D01*
X145382857Y-33742380D01*
X146502380Y-46037380D02*
X146026190Y-46370714D01*
X146502380Y-46608809D02*
X145502380Y-46608809D01*
X145502380Y-46227857D01*
X145550000Y-46132619D01*
X145597619Y-46085000D01*
X145692857Y-46037380D01*
X145835714Y-46037380D01*
X145930952Y-46085000D01*
X145978571Y-46132619D01*
X146026190Y-46227857D01*
X146026190Y-46608809D01*
X146216666Y-45656428D02*
X146216666Y-45180238D01*
X146502380Y-45751666D02*
X145502380Y-45418333D01*
X146502380Y-45085000D01*
X145502380Y-44894523D02*
X145502380Y-44323095D01*
X146502380Y-44608809D02*
X145502380Y-44608809D01*
X145978571Y-43989761D02*
X145978571Y-43656428D01*
X146502380Y-43513571D02*
X146502380Y-43989761D01*
X145502380Y-43989761D01*
X145502380Y-43513571D01*
D10*
%TO.C,C15*%
X140620000Y-98399000D02*
X140620000Y-97141000D01*
X138780000Y-98399000D02*
X138780000Y-97141000D01*
%TO.C,D5*%
X129540000Y-127285000D02*
X129540000Y-126105000D01*
X128620000Y-125409000D02*
X130460000Y-125409000D01*
X129540000Y-121645000D02*
X129540000Y-122825000D01*
X128620000Y-125529000D02*
X130460000Y-125529000D01*
X128620000Y-122825000D02*
X128620000Y-126105000D01*
X130460000Y-122825000D02*
X128620000Y-122825000D01*
X128620000Y-126105000D02*
X130460000Y-126105000D01*
X130460000Y-126105000D02*
X130460000Y-122825000D01*
X128620000Y-125649000D02*
X130460000Y-125649000D01*
%TO.C,R6*%
X151230000Y-46330000D02*
X151230000Y-39790000D01*
X151230000Y-39790000D02*
X148490000Y-39790000D01*
X149860000Y-39020000D02*
X149860000Y-39790000D01*
X148490000Y-46330000D02*
X151230000Y-46330000D01*
X148490000Y-39790000D02*
X148490000Y-46330000D01*
X149860000Y-47100000D02*
X149860000Y-46330000D01*
%TO.C,D4*%
X150780000Y-123396000D02*
X148940000Y-123396000D01*
X150780000Y-122820000D02*
X148940000Y-122820000D01*
X150780000Y-123276000D02*
X148940000Y-123276000D01*
X149860000Y-127280000D02*
X149860000Y-126100000D01*
X150780000Y-126100000D02*
X150780000Y-122820000D01*
X148940000Y-126100000D02*
X150780000Y-126100000D01*
X149860000Y-121640000D02*
X149860000Y-122820000D01*
X148940000Y-122820000D02*
X148940000Y-126100000D01*
X150780000Y-123516000D02*
X148940000Y-123516000D01*
%TO.C,RV3*%
X136050000Y-92980000D02*
X134230000Y-92980000D01*
X145170000Y-92980000D02*
X143350000Y-92980000D01*
X145170000Y-81390000D02*
X134230000Y-81390000D01*
X145170000Y-81390000D02*
X145170000Y-84110000D01*
X134230000Y-81390000D02*
X134230000Y-84110000D01*
X145170000Y-88610000D02*
X145170000Y-92980000D01*
X134230000Y-88610000D02*
X134230000Y-92980000D01*
%TO.C,J2*%
X134200000Y-136930000D02*
X134200000Y-132430000D01*
X134200000Y-143930000D02*
X134200000Y-140930000D01*
X145200000Y-132430000D02*
X145200000Y-137430000D01*
X145200000Y-140430000D02*
X145200000Y-143930000D01*
X134200000Y-132430000D02*
X145200000Y-132430000D01*
X145200000Y-143930000D02*
X134200000Y-143930000D01*
%TO.C,R25*%
X131980000Y-121380000D02*
X134720000Y-121380000D01*
X134720000Y-114840000D02*
X131980000Y-114840000D01*
X133350000Y-114070000D02*
X133350000Y-114840000D01*
X134720000Y-121380000D02*
X134720000Y-114840000D01*
X133350000Y-122150000D02*
X133350000Y-121380000D01*
X131980000Y-114840000D02*
X131980000Y-121380000D01*
%TO.C,R24*%
X144780000Y-129770000D02*
X144780000Y-129000000D01*
X146150000Y-129000000D02*
X146150000Y-122460000D01*
X143410000Y-122460000D02*
X143410000Y-129000000D01*
X144780000Y-121690000D02*
X144780000Y-122460000D01*
X146150000Y-122460000D02*
X143410000Y-122460000D01*
X143410000Y-129000000D02*
X146150000Y-129000000D01*
%TO.C,RV4*%
X134230000Y-65750000D02*
X134230000Y-70120000D01*
X136050000Y-70120000D02*
X134230000Y-70120000D01*
X145170000Y-58530000D02*
X145170000Y-61250000D01*
X145170000Y-58530000D02*
X134230000Y-58530000D01*
X134230000Y-58530000D02*
X134230000Y-61250000D01*
X145170000Y-65750000D02*
X145170000Y-70120000D01*
X145170000Y-70120000D02*
X143350000Y-70120000D01*
%TO.C,R1*%
X129440000Y-46330000D02*
X132180000Y-46330000D01*
X130810000Y-39020000D02*
X130810000Y-39790000D01*
X132180000Y-46330000D02*
X132180000Y-39790000D01*
X130810000Y-47100000D02*
X130810000Y-46330000D01*
X132180000Y-39790000D02*
X129440000Y-39790000D01*
X129440000Y-39790000D02*
X129440000Y-46330000D01*
D11*
%TO.C,SW1*%
X143450000Y-106530000D02*
X135950000Y-106530000D01*
X143450000Y-119530000D02*
X143450000Y-106530000D01*
X135950000Y-119530000D02*
X143450000Y-119530000D01*
X135950000Y-106530000D02*
X135950000Y-119530000D01*
D10*
%TO.C,Q3*%
X135150000Y-126420000D02*
X131550000Y-126420000D01*
X133350000Y-130870001D02*
G75*
G03*
X135188478Y-126431522I0J2600001D01*
G01*
X131511522Y-126431522D02*
G75*
G03*
X133350000Y-130870000I1838478J-1838478D01*
G01*
%TO.C,R26*%
X148690000Y-136620000D02*
X148690000Y-130080000D01*
X147320000Y-129310000D02*
X147320000Y-130080000D01*
X145950000Y-136620000D02*
X148690000Y-136620000D01*
X145950000Y-130080000D02*
X145950000Y-136620000D01*
X148690000Y-130080000D02*
X145950000Y-130080000D01*
X147320000Y-137390000D02*
X147320000Y-136620000D01*
%TO.C,D3*%
X142260000Y-129815000D02*
X142260000Y-126725000D01*
X136710000Y-128269538D02*
G75*
G03*
X142260000Y-129814830I2990000J-462D01*
G01*
X142260000Y-126725170D02*
G75*
G03*
X136710000Y-128270462I-2560000J-1544830D01*
G01*
X142200000Y-128270000D02*
G75*
G03*
X142200000Y-128270000I-2500000J0D01*
G01*
%TO.C,R2*%
X141510000Y-52170000D02*
X148050000Y-52170000D01*
X148820000Y-50800000D02*
X148050000Y-50800000D01*
X148050000Y-52170000D02*
X148050000Y-49430000D01*
X141510000Y-49430000D02*
X141510000Y-52170000D01*
X148050000Y-49430000D02*
X141510000Y-49430000D01*
X140740000Y-50800000D02*
X141510000Y-50800000D01*
%TO.C,RV1*%
X145170000Y-42890000D02*
X145170000Y-47260000D01*
X145170000Y-47260000D02*
X143350000Y-47260000D01*
X134230000Y-35670000D02*
X134230000Y-38390000D01*
X145170000Y-35670000D02*
X134230000Y-35670000D01*
X145170000Y-35670000D02*
X145170000Y-38390000D01*
X134230000Y-42890000D02*
X134230000Y-47260000D01*
X136050000Y-47260000D02*
X134230000Y-47260000D01*
%TD*%
M02*
