%TF.GenerationSoftware,KiCad,Pcbnew,(6.0.5)*%
%TF.CreationDate,2023-02-15T12:53:25-05:00*%
%TF.ProjectId,wow_and_flutter,776f775f-616e-4645-9f66-6c7574746572,rev?*%
%TF.SameCoordinates,Original*%
%TF.FileFunction,Copper,L2,Bot*%
%TF.FilePolarity,Positive*%
%FSLAX46Y46*%
G04 Gerber Fmt 4.6, Leading zero omitted, Abs format (unit mm)*
G04 Created by KiCad (PCBNEW (6.0.5)) date 2023-02-15 12:53:25*
%MOMM*%
%LPD*%
G01*
G04 APERTURE LIST*
G04 Aperture macros list*
%AMRoundRect*
0 Rectangle with rounded corners*
0 $1 Rounding radius*
0 $2 $3 $4 $5 $6 $7 $8 $9 X,Y pos of 4 corners*
0 Add a 4 corners polygon primitive as box body*
4,1,4,$2,$3,$4,$5,$6,$7,$8,$9,$2,$3,0*
0 Add four circle primitives for the rounded corners*
1,1,$1+$1,$2,$3*
1,1,$1+$1,$4,$5*
1,1,$1+$1,$6,$7*
1,1,$1+$1,$8,$9*
0 Add four rect primitives between the rounded corners*
20,1,$1+$1,$2,$3,$4,$5,0*
20,1,$1+$1,$4,$5,$6,$7,0*
20,1,$1+$1,$6,$7,$8,$9,0*
20,1,$1+$1,$8,$9,$2,$3,0*%
G04 Aperture macros list end*
%TA.AperFunction,ComponentPad*%
%ADD10C,1.600000*%
%TD*%
%TA.AperFunction,ComponentPad*%
%ADD11R,1.500000X1.500000*%
%TD*%
%TA.AperFunction,ComponentPad*%
%ADD12O,1.500000X1.500000*%
%TD*%
%TA.AperFunction,ComponentPad*%
%ADD13O,1.600000X1.600000*%
%TD*%
%TA.AperFunction,ComponentPad*%
%ADD14R,1.700000X1.700000*%
%TD*%
%TA.AperFunction,ComponentPad*%
%ADD15O,1.700000X1.700000*%
%TD*%
%TA.AperFunction,ComponentPad*%
%ADD16O,4.000000X4.000000*%
%TD*%
%TA.AperFunction,ComponentPad*%
%ADD17R,1.800000X1.800000*%
%TD*%
%TA.AperFunction,ComponentPad*%
%ADD18C,1.800000*%
%TD*%
%TA.AperFunction,ComponentPad*%
%ADD19O,2.000000X3.500000*%
%TD*%
%TA.AperFunction,ComponentPad*%
%ADD20O,2.000000X2.500000*%
%TD*%
%TA.AperFunction,ComponentPad*%
%ADD21O,3.500000X1.500000*%
%TD*%
%TA.AperFunction,ComponentPad*%
%ADD22RoundRect,0.750000X1.750000X0.750000X-1.750000X0.750000X-1.750000X-0.750000X1.750000X-0.750000X0*%
%TD*%
%TA.AperFunction,ComponentPad*%
%ADD23R,1.050000X1.500000*%
%TD*%
%TA.AperFunction,ComponentPad*%
%ADD24O,1.050000X1.500000*%
%TD*%
%TA.AperFunction,ViaPad*%
%ADD25C,0.800000*%
%TD*%
%TA.AperFunction,Conductor*%
%ADD26C,0.500000*%
%TD*%
G04 APERTURE END LIST*
D10*
%TO.P,C15,1*%
%TO.N,GND*%
X139700000Y-99020000D03*
%TO.P,C15,2*%
%TO.N,/SLEW_OUT*%
X139700000Y-96520000D03*
%TD*%
D11*
%TO.P,D5,1,K*%
%TO.N,+12V*%
X129540000Y-128275000D03*
D12*
%TO.P,D5,2,A*%
%TO.N,/DEPTH_FB*%
X129540000Y-120655000D03*
%TD*%
D10*
%TO.P,R6,1*%
%TO.N,/LFO_FB*%
X149860000Y-48140000D03*
D13*
%TO.P,R6,2*%
%TO.N,GND*%
X149860000Y-37980000D03*
%TD*%
D14*
%TO.P,J4,1,Pin_1*%
%TO.N,+12V*%
X134620000Y-146050000D03*
D15*
%TO.P,J4,2,Pin_2*%
%TO.N,GND*%
X137160000Y-146050000D03*
%TO.P,J4,3,Pin_3*%
X139700000Y-146050000D03*
%TO.P,J4,4,Pin_4*%
X142240000Y-146050000D03*
%TO.P,J4,5,Pin_5*%
%TO.N,-12V*%
X144780000Y-146050000D03*
%TD*%
D11*
%TO.P,D4,1,K*%
%TO.N,/DEPTH_FB*%
X149860000Y-120650000D03*
D12*
%TO.P,D4,2,A*%
%TO.N,-12V*%
X149860000Y-128270000D03*
%TD*%
D16*
%TO.P,RV3,*%
%TO.N,*%
X134950000Y-86360000D03*
X144450000Y-86360000D03*
D17*
%TO.P,RV3,1,1*%
%TO.N,/S&H*%
X137200000Y-93860000D03*
D18*
%TO.P,RV3,2,2*%
%TO.N,/SLEW_OUT*%
X139700000Y-93860000D03*
%TO.P,RV3,3,3*%
X142200000Y-93860000D03*
%TD*%
D19*
%TO.P,J2,S*%
%TO.N,GND*%
X135000000Y-139030000D03*
D20*
X144400000Y-139030000D03*
D21*
%TO.P,J2,T*%
%TO.N,Net-(J2-PadT)*%
X139700000Y-133630000D03*
%TO.P,J2,TN*%
%TO.N,unconnected-(J2-PadTN)*%
X139700000Y-141730000D03*
%TD*%
D10*
%TO.P,R25,1*%
%TO.N,/SW_OUT*%
X133350000Y-113030000D03*
D13*
%TO.P,R25,2*%
%TO.N,Net-(Q3-Pad2)*%
X133350000Y-123190000D03*
%TD*%
D10*
%TO.P,R24,1*%
%TO.N,/DEPTH_FB*%
X144780000Y-120650000D03*
D13*
%TO.P,R24,2*%
%TO.N,Net-(J2-PadT)*%
X144780000Y-130810000D03*
%TD*%
D16*
%TO.P,RV4,*%
%TO.N,*%
X134950000Y-63500000D03*
X144450000Y-63500000D03*
D17*
%TO.P,RV4,1,1*%
%TO.N,/DEPTH_FB*%
X137200000Y-71000000D03*
D18*
%TO.P,RV4,2,2*%
%TO.N,/DEPTH_CTRL*%
X139700000Y-71000000D03*
%TO.P,RV4,3,3*%
%TO.N,/SW_OUT*%
X142200000Y-71000000D03*
%TD*%
D10*
%TO.P,R1,1*%
%TO.N,Net-(R1-Pad1)*%
X130810000Y-48140000D03*
D13*
%TO.P,R1,2*%
%TO.N,GND*%
X130810000Y-37980000D03*
%TD*%
D22*
%TO.P,SW1,1,A*%
%TO.N,/SLEW_OUT*%
X139700000Y-117780000D03*
%TO.P,SW1,2,B*%
%TO.N,/SW_OUT*%
X139700000Y-113030000D03*
%TO.P,SW1,3,C*%
%TO.N,/TRI*%
X139700000Y-108280000D03*
%TD*%
D23*
%TO.P,Q3,1,E*%
%TO.N,Net-(D3-Pad2)*%
X134620000Y-128270000D03*
D24*
%TO.P,Q3,2,B*%
%TO.N,Net-(Q3-Pad2)*%
X133350000Y-128270000D03*
%TO.P,Q3,3,C*%
%TO.N,+12V*%
X132080000Y-128270000D03*
%TD*%
D10*
%TO.P,R26,1*%
%TO.N,-12V*%
X147320000Y-138430000D03*
D13*
%TO.P,R26,2*%
%TO.N,Net-(D3-Pad1)*%
X147320000Y-128270000D03*
%TD*%
D17*
%TO.P,D3,1,K*%
%TO.N,Net-(D3-Pad1)*%
X140970000Y-128270000D03*
D18*
%TO.P,D3,2,A*%
%TO.N,Net-(D3-Pad2)*%
X138430000Y-128270000D03*
%TD*%
D10*
%TO.P,R2,1*%
%TO.N,Net-(R2-Pad1)*%
X139700000Y-50800000D03*
D13*
%TO.P,R2,2*%
%TO.N,/LFO_CTRL*%
X149860000Y-50800000D03*
%TD*%
D16*
%TO.P,RV1,*%
%TO.N,*%
X144450000Y-40640000D03*
X134950000Y-40640000D03*
D17*
%TO.P,RV1,1,1*%
%TO.N,Net-(R1-Pad1)*%
X137200000Y-48140000D03*
D18*
%TO.P,RV1,2,2*%
%TO.N,Net-(R2-Pad1)*%
X139700000Y-48140000D03*
%TO.P,RV1,3,3*%
%TO.N,/LFO_FB*%
X142200000Y-48140000D03*
%TD*%
D14*
%TO.P,J6,1,Pin_1*%
%TO.N,/TRI*%
X133375000Y-76200000D03*
D15*
%TO.P,J6,2,Pin_2*%
%TO.N,/DEPTH_FB*%
X135915000Y-76200000D03*
%TO.P,J6,3,Pin_3*%
%TO.N,/DEPTH_CTRL*%
X138455000Y-76200000D03*
%TO.P,J6,4,Pin_4*%
%TO.N,/S&H*%
X140995000Y-76200000D03*
%TO.P,J6,5,Pin_5*%
%TO.N,/LFO_FB*%
X143535000Y-76200000D03*
%TO.P,J6,6,Pin_6*%
%TO.N,/LFO_CTRL*%
X146075000Y-76200000D03*
%TD*%
D25*
%TO.N,GND*%
X135890000Y-52070000D03*
X136525000Y-127000000D03*
X128905000Y-50165000D03*
X133350000Y-115570000D03*
X128270000Y-121920000D03*
X149860000Y-97790000D03*
X128270000Y-67310000D03*
X144145000Y-46355000D03*
X151130000Y-146050000D03*
X133985000Y-104775000D03*
X151130000Y-71120000D03*
X139700000Y-135890000D03*
X148590000Y-64770000D03*
X133350000Y-107950000D03*
X147320000Y-89535000D03*
X147320000Y-46355000D03*
X142875000Y-119380000D03*
X139700000Y-89535000D03*
X128270000Y-33020000D03*
X134620000Y-125095000D03*
X128270000Y-107315000D03*
X148590000Y-58420000D03*
X135255000Y-121920000D03*
X132080000Y-93345000D03*
X147955000Y-110490000D03*
X133350000Y-46355000D03*
X151130000Y-118745000D03*
X142240000Y-100965000D03*
X135890000Y-90805000D03*
X147320000Y-119380000D03*
X128270000Y-100965000D03*
X147320000Y-78105000D03*
X151130000Y-78740000D03*
X132715000Y-35560000D03*
X142240000Y-78105000D03*
X144359500Y-109220000D03*
X130810000Y-101346000D03*
X142240000Y-83820000D03*
X147320000Y-99695000D03*
X136525000Y-115570000D03*
X137160000Y-131445000D03*
X132080000Y-79375000D03*
X142240000Y-105410000D03*
X128270000Y-146050000D03*
X142875000Y-59690000D03*
X135890000Y-82550000D03*
X133350000Y-49530000D03*
X151130000Y-52070000D03*
X128270000Y-44450000D03*
X135382000Y-119380000D03*
X151130000Y-61595000D03*
X128270000Y-118745000D03*
X136525000Y-110490000D03*
X142240000Y-110744000D03*
X144780000Y-93980000D03*
X130810000Y-107315000D03*
X141986000Y-115316000D03*
X139700000Y-78105000D03*
X150495000Y-107315000D03*
X135255000Y-101600000D03*
X132715000Y-56515000D03*
X146050000Y-60325000D03*
X139700000Y-39370000D03*
X140970000Y-92075000D03*
X151130000Y-127000000D03*
X146050000Y-49530000D03*
X151130000Y-136525000D03*
X137160000Y-67945000D03*
X149225000Y-139065000D03*
X137795000Y-104140000D03*
X150495000Y-45720000D03*
X144780000Y-113665000D03*
X142875000Y-130175000D03*
X135255000Y-133985000D03*
X142240000Y-88900000D03*
X149860000Y-83185000D03*
X135255000Y-43815000D03*
X139700000Y-42545000D03*
X144780000Y-123825000D03*
X138430000Y-62865000D03*
X130810000Y-114300000D03*
X130810000Y-119380000D03*
X149860000Y-89535000D03*
X142875000Y-127000000D03*
X139700000Y-33020000D03*
X131445000Y-62230000D03*
X147320000Y-104775000D03*
X151130000Y-33020000D03*
X130810000Y-76835000D03*
X142875000Y-121920000D03*
X128270000Y-73660000D03*
X148590000Y-52070000D03*
X133350000Y-130175000D03*
X128270000Y-55880000D03*
X147955000Y-122555000D03*
X144145000Y-133985000D03*
X139700000Y-102235000D03*
X142240000Y-74295000D03*
X140335000Y-53975000D03*
X128270000Y-114300000D03*
X151130000Y-93345000D03*
X144780000Y-102235000D03*
X135255000Y-97155000D03*
X128270000Y-130175000D03*
X130175000Y-139065000D03*
X128270000Y-79375000D03*
X131445000Y-121920000D03*
X141605000Y-95885000D03*
X138430000Y-123190000D03*
X151130000Y-49530000D03*
X139700000Y-74295000D03*
X128270000Y-86995000D03*
X151130000Y-102235000D03*
X132080000Y-85090000D03*
X148590000Y-71755000D03*
X151130000Y-86360000D03*
X144145000Y-72390000D03*
X147320000Y-83185000D03*
X128270000Y-93345000D03*
X149860000Y-74295000D03*
X132715000Y-69215000D03*
X146685000Y-36195000D03*
X134620000Y-72390000D03*
X132080000Y-88265000D03*
X144145000Y-69215000D03*
X147320000Y-146050000D03*
X142240000Y-67310000D03*
X132080000Y-98425000D03*
X151130000Y-113030000D03*
%TD*%
D26*
%TO.N,/SW_OUT*%
X143510000Y-113030000D02*
X139700000Y-113030000D01*
X144701396Y-71000000D02*
X148590000Y-74888604D01*
X142200000Y-71000000D02*
X144701396Y-71000000D01*
X148590000Y-107950000D02*
X143510000Y-113030000D01*
X148590000Y-74888604D02*
X148590000Y-107950000D01*
%TD*%
%TA.AperFunction,Conductor*%
%TO.N,GND*%
G36*
X151833621Y-32278502D02*
G01*
X151880114Y-32332158D01*
X151891500Y-32384500D01*
X151891500Y-146685500D01*
X151871498Y-146753621D01*
X151817842Y-146800114D01*
X151765500Y-146811500D01*
X146121905Y-146811500D01*
X146053784Y-146791498D01*
X146007291Y-146737842D01*
X145997187Y-146667568D01*
X146008948Y-146629673D01*
X146045136Y-146556452D01*
X146047430Y-146551811D01*
X146112370Y-146338069D01*
X146141529Y-146116590D01*
X146143156Y-146050000D01*
X146124852Y-145827361D01*
X146070431Y-145610702D01*
X145981354Y-145405840D01*
X145860014Y-145218277D01*
X145709670Y-145053051D01*
X145705619Y-145049852D01*
X145705615Y-145049848D01*
X145538414Y-144917800D01*
X145538410Y-144917798D01*
X145534359Y-144914598D01*
X145498028Y-144894542D01*
X145482136Y-144885769D01*
X145338789Y-144806638D01*
X145333920Y-144804914D01*
X145333916Y-144804912D01*
X145133087Y-144733795D01*
X145133083Y-144733794D01*
X145128212Y-144732069D01*
X145123119Y-144731162D01*
X145123116Y-144731161D01*
X144913373Y-144693800D01*
X144913367Y-144693799D01*
X144908284Y-144692894D01*
X144834452Y-144691992D01*
X144690081Y-144690228D01*
X144690079Y-144690228D01*
X144684911Y-144690165D01*
X144464091Y-144723955D01*
X144251756Y-144793357D01*
X144053607Y-144896507D01*
X144049474Y-144899610D01*
X144049471Y-144899612D01*
X143879100Y-145027530D01*
X143874965Y-145030635D01*
X143720629Y-145192138D01*
X143717715Y-145196410D01*
X143717714Y-145196411D01*
X143705404Y-145214457D01*
X143614337Y-145347957D01*
X143612898Y-145350066D01*
X143557987Y-145395069D01*
X143487462Y-145403240D01*
X143423715Y-145371986D01*
X143403018Y-145347502D01*
X143322426Y-145222926D01*
X143316136Y-145214757D01*
X143172806Y-145057240D01*
X143165273Y-145050215D01*
X142998139Y-144918222D01*
X142989552Y-144912517D01*
X142803117Y-144809599D01*
X142793705Y-144805369D01*
X142592959Y-144734280D01*
X142582988Y-144731646D01*
X142511837Y-144718972D01*
X142498540Y-144720432D01*
X142494000Y-144734989D01*
X142494000Y-146178000D01*
X142473998Y-146246121D01*
X142420342Y-146292614D01*
X142368000Y-146304000D01*
X137032000Y-146304000D01*
X136963879Y-146283998D01*
X136917386Y-146230342D01*
X136906000Y-146178000D01*
X136906000Y-145777885D01*
X137414000Y-145777885D01*
X137418475Y-145793124D01*
X137419865Y-145794329D01*
X137427548Y-145796000D01*
X139427885Y-145796000D01*
X139443124Y-145791525D01*
X139444329Y-145790135D01*
X139446000Y-145782452D01*
X139446000Y-145777885D01*
X139954000Y-145777885D01*
X139958475Y-145793124D01*
X139959865Y-145794329D01*
X139967548Y-145796000D01*
X141967885Y-145796000D01*
X141983124Y-145791525D01*
X141984329Y-145790135D01*
X141986000Y-145782452D01*
X141986000Y-144733102D01*
X141982082Y-144719758D01*
X141967806Y-144717771D01*
X141929324Y-144723660D01*
X141919288Y-144726051D01*
X141716868Y-144792212D01*
X141707359Y-144796209D01*
X141518463Y-144894542D01*
X141509738Y-144900036D01*
X141339433Y-145027905D01*
X141331726Y-145034748D01*
X141184590Y-145188717D01*
X141178104Y-145196727D01*
X141073193Y-145350521D01*
X141018282Y-145395524D01*
X140947757Y-145403695D01*
X140884010Y-145372441D01*
X140863313Y-145347957D01*
X140782427Y-145222926D01*
X140776136Y-145214757D01*
X140632806Y-145057240D01*
X140625273Y-145050215D01*
X140458139Y-144918222D01*
X140449552Y-144912517D01*
X140263117Y-144809599D01*
X140253705Y-144805369D01*
X140052959Y-144734280D01*
X140042988Y-144731646D01*
X139971837Y-144718972D01*
X139958540Y-144720432D01*
X139954000Y-144734989D01*
X139954000Y-145777885D01*
X139446000Y-145777885D01*
X139446000Y-144733102D01*
X139442082Y-144719758D01*
X139427806Y-144717771D01*
X139389324Y-144723660D01*
X139379288Y-144726051D01*
X139176868Y-144792212D01*
X139167359Y-144796209D01*
X138978463Y-144894542D01*
X138969738Y-144900036D01*
X138799433Y-145027905D01*
X138791726Y-145034748D01*
X138644590Y-145188717D01*
X138638104Y-145196727D01*
X138533193Y-145350521D01*
X138478282Y-145395524D01*
X138407757Y-145403695D01*
X138344010Y-145372441D01*
X138323313Y-145347957D01*
X138242427Y-145222926D01*
X138236136Y-145214757D01*
X138092806Y-145057240D01*
X138085273Y-145050215D01*
X137918139Y-144918222D01*
X137909552Y-144912517D01*
X137723117Y-144809599D01*
X137713705Y-144805369D01*
X137512959Y-144734280D01*
X137502988Y-144731646D01*
X137431837Y-144718972D01*
X137418540Y-144720432D01*
X137414000Y-144734989D01*
X137414000Y-145777885D01*
X136906000Y-145777885D01*
X136906000Y-144733102D01*
X136902082Y-144719758D01*
X136887806Y-144717771D01*
X136849324Y-144723660D01*
X136839288Y-144726051D01*
X136636868Y-144792212D01*
X136627359Y-144796209D01*
X136438463Y-144894542D01*
X136429738Y-144900036D01*
X136259433Y-145027905D01*
X136251726Y-145034748D01*
X136174478Y-145115584D01*
X136112954Y-145151014D01*
X136042042Y-145147557D01*
X135984255Y-145106311D01*
X135965402Y-145072763D01*
X135923767Y-144961703D01*
X135920615Y-144953295D01*
X135833261Y-144836739D01*
X135716705Y-144749385D01*
X135580316Y-144698255D01*
X135518134Y-144691500D01*
X133721866Y-144691500D01*
X133659684Y-144698255D01*
X133523295Y-144749385D01*
X133406739Y-144836739D01*
X133319385Y-144953295D01*
X133268255Y-145089684D01*
X133261500Y-145151866D01*
X133261500Y-146685500D01*
X133241498Y-146753621D01*
X133187842Y-146800114D01*
X133135500Y-146811500D01*
X127634500Y-146811500D01*
X127566379Y-146791498D01*
X127519886Y-146737842D01*
X127508500Y-146685500D01*
X127508500Y-141769690D01*
X137437037Y-141769690D01*
X137464025Y-141992715D01*
X137530082Y-142207435D01*
X137532652Y-142212415D01*
X137532654Y-142212419D01*
X137597852Y-142338738D01*
X137633118Y-142407064D01*
X137769877Y-142585292D01*
X137936036Y-142736485D01*
X137940783Y-142739463D01*
X137940786Y-142739465D01*
X138069229Y-142820036D01*
X138126344Y-142855864D01*
X138334783Y-142939656D01*
X138554767Y-142985213D01*
X138559378Y-142985479D01*
X138559379Y-142985479D01*
X138609952Y-142988395D01*
X138609956Y-142988395D01*
X138611775Y-142988500D01*
X140756999Y-142988500D01*
X140759786Y-142988251D01*
X140759792Y-142988251D01*
X140829929Y-142981991D01*
X140923762Y-142973617D01*
X140929176Y-142972136D01*
X140929181Y-142972135D01*
X141056912Y-142937191D01*
X141140451Y-142914337D01*
X141145509Y-142911925D01*
X141145513Y-142911923D01*
X141263042Y-142855864D01*
X141343218Y-142817622D01*
X141525654Y-142686529D01*
X141681992Y-142525201D01*
X141807290Y-142338738D01*
X141897588Y-142133033D01*
X141950032Y-141914589D01*
X141962963Y-141690310D01*
X141935975Y-141467285D01*
X141869918Y-141252565D01*
X141858033Y-141229537D01*
X141769454Y-141057919D01*
X141769454Y-141057918D01*
X141766882Y-141052936D01*
X141630123Y-140874708D01*
X141463964Y-140723515D01*
X141459217Y-140720537D01*
X141459214Y-140720535D01*
X141278405Y-140607115D01*
X141273656Y-140604136D01*
X141065217Y-140520344D01*
X140845233Y-140474787D01*
X140840622Y-140474521D01*
X140840621Y-140474521D01*
X140790048Y-140471605D01*
X140790044Y-140471605D01*
X140788225Y-140471500D01*
X138643001Y-140471500D01*
X138640214Y-140471749D01*
X138640208Y-140471749D01*
X138589609Y-140476265D01*
X138476238Y-140486383D01*
X138470824Y-140487864D01*
X138470819Y-140487865D01*
X138356609Y-140519110D01*
X138259549Y-140545663D01*
X138254491Y-140548075D01*
X138254487Y-140548077D01*
X138158165Y-140594021D01*
X138056782Y-140642378D01*
X137874346Y-140773471D01*
X137870439Y-140777503D01*
X137786133Y-140864500D01*
X137718008Y-140934799D01*
X137592710Y-141121262D01*
X137502412Y-141326967D01*
X137449968Y-141545411D01*
X137437037Y-141769690D01*
X127508500Y-141769690D01*
X127508500Y-139838456D01*
X133492000Y-139838456D01*
X133492202Y-139843488D01*
X133506150Y-140016843D01*
X133507762Y-140026796D01*
X133563233Y-140252633D01*
X133566416Y-140262203D01*
X133657280Y-140476265D01*
X133661955Y-140485207D01*
X133785874Y-140681987D01*
X133791914Y-140690060D01*
X133945703Y-140864500D01*
X133952956Y-140871504D01*
X134132654Y-141019110D01*
X134140936Y-141024866D01*
X134341919Y-141141841D01*
X134351024Y-141146203D01*
X134568115Y-141229537D01*
X134577804Y-141232388D01*
X134728264Y-141263821D01*
X134742325Y-141262698D01*
X134746000Y-141252590D01*
X134746000Y-141250590D01*
X135254000Y-141250590D01*
X135258136Y-141264676D01*
X135271114Y-141266725D01*
X135288830Y-141264675D01*
X135298727Y-141262715D01*
X135522494Y-141199396D01*
X135531938Y-141195884D01*
X135742705Y-141097601D01*
X135751471Y-141092622D01*
X135943802Y-140961913D01*
X135951677Y-140955581D01*
X136120626Y-140795814D01*
X136127387Y-140788305D01*
X136268625Y-140603574D01*
X136274089Y-140595095D01*
X136383978Y-140390153D01*
X136388020Y-140380901D01*
X136463727Y-140161029D01*
X136466236Y-140151257D01*
X136506004Y-139921029D01*
X136506859Y-139913157D01*
X136507936Y-139889449D01*
X136508000Y-139886616D01*
X136508000Y-139338456D01*
X142892000Y-139338456D01*
X142892202Y-139343488D01*
X142906150Y-139516843D01*
X142907762Y-139526796D01*
X142963233Y-139752633D01*
X142966416Y-139762203D01*
X143057280Y-139976265D01*
X143061955Y-139985207D01*
X143185874Y-140181987D01*
X143191914Y-140190060D01*
X143345703Y-140364500D01*
X143352956Y-140371504D01*
X143532654Y-140519110D01*
X143540936Y-140524866D01*
X143741919Y-140641841D01*
X143751024Y-140646203D01*
X143968115Y-140729537D01*
X143977804Y-140732388D01*
X144128264Y-140763821D01*
X144142325Y-140762698D01*
X144146000Y-140752590D01*
X144146000Y-140750590D01*
X144654000Y-140750590D01*
X144658136Y-140764676D01*
X144671114Y-140766725D01*
X144688830Y-140764675D01*
X144698727Y-140762715D01*
X144922494Y-140699396D01*
X144931938Y-140695884D01*
X145142705Y-140597601D01*
X145151471Y-140592622D01*
X145343802Y-140461913D01*
X145351677Y-140455581D01*
X145520626Y-140295814D01*
X145527387Y-140288305D01*
X145668625Y-140103574D01*
X145674089Y-140095095D01*
X145783978Y-139890153D01*
X145788020Y-139880901D01*
X145863727Y-139661029D01*
X145866236Y-139651257D01*
X145906004Y-139421029D01*
X145906859Y-139413157D01*
X145907936Y-139389449D01*
X145908000Y-139386616D01*
X145908000Y-139302115D01*
X145903525Y-139286876D01*
X145902135Y-139285671D01*
X145894452Y-139284000D01*
X144672115Y-139284000D01*
X144656876Y-139288475D01*
X144655671Y-139289865D01*
X144654000Y-139297548D01*
X144654000Y-140750590D01*
X144146000Y-140750590D01*
X144146000Y-139302115D01*
X144141525Y-139286876D01*
X144140135Y-139285671D01*
X144132452Y-139284000D01*
X142910115Y-139284000D01*
X142894876Y-139288475D01*
X142893671Y-139289865D01*
X142892000Y-139297548D01*
X142892000Y-139338456D01*
X136508000Y-139338456D01*
X136508000Y-139302115D01*
X136503525Y-139286876D01*
X136502135Y-139285671D01*
X136494452Y-139284000D01*
X135272115Y-139284000D01*
X135256876Y-139288475D01*
X135255671Y-139289865D01*
X135254000Y-139297548D01*
X135254000Y-141250590D01*
X134746000Y-141250590D01*
X134746000Y-139302115D01*
X134741525Y-139286876D01*
X134740135Y-139285671D01*
X134732452Y-139284000D01*
X133510115Y-139284000D01*
X133494876Y-139288475D01*
X133493671Y-139289865D01*
X133492000Y-139297548D01*
X133492000Y-139838456D01*
X127508500Y-139838456D01*
X127508500Y-138757885D01*
X133492000Y-138757885D01*
X133496475Y-138773124D01*
X133497865Y-138774329D01*
X133505548Y-138776000D01*
X134727885Y-138776000D01*
X134743124Y-138771525D01*
X134744329Y-138770135D01*
X134746000Y-138762452D01*
X134746000Y-138757885D01*
X135254000Y-138757885D01*
X135258475Y-138773124D01*
X135259865Y-138774329D01*
X135267548Y-138776000D01*
X136489885Y-138776000D01*
X136505124Y-138771525D01*
X136506329Y-138770135D01*
X136508000Y-138762452D01*
X136508000Y-138757885D01*
X142892000Y-138757885D01*
X142896475Y-138773124D01*
X142897865Y-138774329D01*
X142905548Y-138776000D01*
X144127885Y-138776000D01*
X144143124Y-138771525D01*
X144144329Y-138770135D01*
X144146000Y-138762452D01*
X144146000Y-138757885D01*
X144654000Y-138757885D01*
X144658475Y-138773124D01*
X144659865Y-138774329D01*
X144667548Y-138776000D01*
X145889886Y-138776000D01*
X145921979Y-138766577D01*
X145992975Y-138766577D01*
X146052701Y-138804961D01*
X146079182Y-138854861D01*
X146084290Y-138873925D01*
X146084293Y-138873933D01*
X146085716Y-138879243D01*
X146088039Y-138884224D01*
X146088039Y-138884225D01*
X146180151Y-139081762D01*
X146180154Y-139081767D01*
X146182477Y-139086749D01*
X146313802Y-139274300D01*
X146475700Y-139436198D01*
X146480208Y-139439355D01*
X146480211Y-139439357D01*
X146558389Y-139494098D01*
X146663251Y-139567523D01*
X146668233Y-139569846D01*
X146668238Y-139569849D01*
X146865775Y-139661961D01*
X146870757Y-139664284D01*
X146876065Y-139665706D01*
X146876067Y-139665707D01*
X147086598Y-139722119D01*
X147086600Y-139722119D01*
X147091913Y-139723543D01*
X147320000Y-139743498D01*
X147548087Y-139723543D01*
X147553400Y-139722119D01*
X147553402Y-139722119D01*
X147763933Y-139665707D01*
X147763935Y-139665706D01*
X147769243Y-139664284D01*
X147774225Y-139661961D01*
X147971762Y-139569849D01*
X147971767Y-139569846D01*
X147976749Y-139567523D01*
X148081611Y-139494098D01*
X148159789Y-139439357D01*
X148159792Y-139439355D01*
X148164300Y-139436198D01*
X148326198Y-139274300D01*
X148457523Y-139086749D01*
X148459846Y-139081767D01*
X148459849Y-139081762D01*
X148551961Y-138884225D01*
X148551961Y-138884224D01*
X148554284Y-138879243D01*
X148613543Y-138658087D01*
X148633498Y-138430000D01*
X148613543Y-138201913D01*
X148612119Y-138196598D01*
X148555707Y-137986067D01*
X148555706Y-137986065D01*
X148554284Y-137980757D01*
X148546892Y-137964905D01*
X148459849Y-137778238D01*
X148459846Y-137778233D01*
X148457523Y-137773251D01*
X148384098Y-137668389D01*
X148329357Y-137590211D01*
X148329355Y-137590208D01*
X148326198Y-137585700D01*
X148164300Y-137423802D01*
X148159792Y-137420645D01*
X148159789Y-137420643D01*
X148030998Y-137330463D01*
X147976749Y-137292477D01*
X147971767Y-137290154D01*
X147971762Y-137290151D01*
X147774225Y-137198039D01*
X147774224Y-137198039D01*
X147769243Y-137195716D01*
X147763935Y-137194294D01*
X147763933Y-137194293D01*
X147553402Y-137137881D01*
X147553400Y-137137881D01*
X147548087Y-137136457D01*
X147320000Y-137116502D01*
X147091913Y-137136457D01*
X147086600Y-137137881D01*
X147086598Y-137137881D01*
X146876067Y-137194293D01*
X146876065Y-137194294D01*
X146870757Y-137195716D01*
X146865776Y-137198039D01*
X146865775Y-137198039D01*
X146668238Y-137290151D01*
X146668233Y-137290154D01*
X146663251Y-137292477D01*
X146609002Y-137330463D01*
X146480211Y-137420643D01*
X146480208Y-137420645D01*
X146475700Y-137423802D01*
X146313802Y-137585700D01*
X146310645Y-137590208D01*
X146310643Y-137590211D01*
X146255902Y-137668389D01*
X146182477Y-137773251D01*
X146180154Y-137778233D01*
X146180151Y-137778238D01*
X146093108Y-137964905D01*
X146085716Y-137980757D01*
X146034102Y-138173384D01*
X146030781Y-138185777D01*
X145993829Y-138246400D01*
X145929969Y-138277421D01*
X145859474Y-138268993D01*
X145804727Y-138223790D01*
X145793091Y-138202398D01*
X145742726Y-138083746D01*
X145738045Y-138074793D01*
X145614126Y-137878013D01*
X145608086Y-137869940D01*
X145454297Y-137695500D01*
X145447044Y-137688496D01*
X145267346Y-137540890D01*
X145259064Y-137535134D01*
X145058081Y-137418159D01*
X145048976Y-137413797D01*
X144831885Y-137330463D01*
X144822196Y-137327612D01*
X144671736Y-137296179D01*
X144657675Y-137297302D01*
X144654000Y-137307410D01*
X144654000Y-138757885D01*
X144146000Y-138757885D01*
X144146000Y-137309410D01*
X144141864Y-137295324D01*
X144128886Y-137293275D01*
X144111170Y-137295325D01*
X144101273Y-137297285D01*
X143877506Y-137360604D01*
X143868062Y-137364116D01*
X143657295Y-137462399D01*
X143648529Y-137467378D01*
X143456198Y-137598087D01*
X143448323Y-137604419D01*
X143279374Y-137764186D01*
X143272613Y-137771695D01*
X143131375Y-137956426D01*
X143125911Y-137964905D01*
X143016022Y-138169847D01*
X143011980Y-138179099D01*
X142936273Y-138398971D01*
X142933764Y-138408743D01*
X142893996Y-138638971D01*
X142893141Y-138646843D01*
X142892064Y-138670551D01*
X142892000Y-138673384D01*
X142892000Y-138757885D01*
X136508000Y-138757885D01*
X136508000Y-138221544D01*
X136507798Y-138216512D01*
X136493850Y-138043157D01*
X136492238Y-138033204D01*
X136436767Y-137807367D01*
X136433584Y-137797797D01*
X136342720Y-137583735D01*
X136338045Y-137574793D01*
X136214126Y-137378013D01*
X136208086Y-137369940D01*
X136054297Y-137195500D01*
X136047044Y-137188496D01*
X135867346Y-137040890D01*
X135859064Y-137035134D01*
X135658081Y-136918159D01*
X135648976Y-136913797D01*
X135431885Y-136830463D01*
X135422196Y-136827612D01*
X135271736Y-136796179D01*
X135257675Y-136797302D01*
X135254000Y-136807410D01*
X135254000Y-138757885D01*
X134746000Y-138757885D01*
X134746000Y-136809410D01*
X134741864Y-136795324D01*
X134728886Y-136793275D01*
X134711170Y-136795325D01*
X134701273Y-136797285D01*
X134477506Y-136860604D01*
X134468062Y-136864116D01*
X134257295Y-136962399D01*
X134248529Y-136967378D01*
X134056198Y-137098087D01*
X134048323Y-137104419D01*
X133879374Y-137264186D01*
X133872613Y-137271695D01*
X133731375Y-137456426D01*
X133725911Y-137464905D01*
X133616022Y-137669847D01*
X133611980Y-137679099D01*
X133536273Y-137898971D01*
X133533764Y-137908743D01*
X133493996Y-138138971D01*
X133493141Y-138146843D01*
X133492064Y-138170551D01*
X133492000Y-138173384D01*
X133492000Y-138757885D01*
X127508500Y-138757885D01*
X127508500Y-133669690D01*
X137437037Y-133669690D01*
X137464025Y-133892715D01*
X137530082Y-134107435D01*
X137532652Y-134112415D01*
X137532654Y-134112419D01*
X137597852Y-134238738D01*
X137633118Y-134307064D01*
X137769877Y-134485292D01*
X137936036Y-134636485D01*
X137940783Y-134639463D01*
X137940786Y-134639465D01*
X138069229Y-134720036D01*
X138126344Y-134755864D01*
X138334783Y-134839656D01*
X138554767Y-134885213D01*
X138559378Y-134885479D01*
X138559379Y-134885479D01*
X138609952Y-134888395D01*
X138609956Y-134888395D01*
X138611775Y-134888500D01*
X140756999Y-134888500D01*
X140759786Y-134888251D01*
X140759792Y-134888251D01*
X140829929Y-134881991D01*
X140923762Y-134873617D01*
X140929176Y-134872136D01*
X140929181Y-134872135D01*
X141056912Y-134837191D01*
X141140451Y-134814337D01*
X141145509Y-134811925D01*
X141145513Y-134811923D01*
X141263042Y-134755864D01*
X141343218Y-134717622D01*
X141525654Y-134586529D01*
X141681992Y-134425201D01*
X141807290Y-134238738D01*
X141897588Y-134033033D01*
X141950032Y-133814589D01*
X141962963Y-133590310D01*
X141935975Y-133367285D01*
X141869918Y-133152565D01*
X141804798Y-133026396D01*
X141769454Y-132957919D01*
X141769454Y-132957918D01*
X141766882Y-132952936D01*
X141630123Y-132774708D01*
X141463964Y-132623515D01*
X141459217Y-132620537D01*
X141459214Y-132620535D01*
X141278405Y-132507115D01*
X141273656Y-132504136D01*
X141065217Y-132420344D01*
X140845233Y-132374787D01*
X140840622Y-132374521D01*
X140840621Y-132374521D01*
X140790048Y-132371605D01*
X140790044Y-132371605D01*
X140788225Y-132371500D01*
X138643001Y-132371500D01*
X138640214Y-132371749D01*
X138640208Y-132371749D01*
X138570071Y-132378009D01*
X138476238Y-132386383D01*
X138470824Y-132387864D01*
X138470819Y-132387865D01*
X138356262Y-132419205D01*
X138259549Y-132445663D01*
X138254491Y-132448075D01*
X138254487Y-132448077D01*
X138158166Y-132494020D01*
X138056782Y-132542378D01*
X137874346Y-132673471D01*
X137718008Y-132834799D01*
X137592710Y-133021262D01*
X137502412Y-133226967D01*
X137449968Y-133445411D01*
X137437037Y-133669690D01*
X127508500Y-133669690D01*
X127508500Y-130810000D01*
X143466502Y-130810000D01*
X143486457Y-131038087D01*
X143545716Y-131259243D01*
X143548039Y-131264224D01*
X143548039Y-131264225D01*
X143640151Y-131461762D01*
X143640154Y-131461767D01*
X143642477Y-131466749D01*
X143773802Y-131654300D01*
X143935700Y-131816198D01*
X143940208Y-131819355D01*
X143940211Y-131819357D01*
X144018389Y-131874098D01*
X144123251Y-131947523D01*
X144128233Y-131949846D01*
X144128238Y-131949849D01*
X144325775Y-132041961D01*
X144330757Y-132044284D01*
X144336065Y-132045706D01*
X144336067Y-132045707D01*
X144546598Y-132102119D01*
X144546600Y-132102119D01*
X144551913Y-132103543D01*
X144780000Y-132123498D01*
X145008087Y-132103543D01*
X145013400Y-132102119D01*
X145013402Y-132102119D01*
X145223933Y-132045707D01*
X145223935Y-132045706D01*
X145229243Y-132044284D01*
X145234225Y-132041961D01*
X145431762Y-131949849D01*
X145431767Y-131949846D01*
X145436749Y-131947523D01*
X145541611Y-131874098D01*
X145619789Y-131819357D01*
X145619792Y-131819355D01*
X145624300Y-131816198D01*
X145786198Y-131654300D01*
X145917523Y-131466749D01*
X145919846Y-131461767D01*
X145919849Y-131461762D01*
X146011961Y-131264225D01*
X146011961Y-131264224D01*
X146014284Y-131259243D01*
X146073543Y-131038087D01*
X146093498Y-130810000D01*
X146073543Y-130581913D01*
X146014284Y-130360757D01*
X146011961Y-130355775D01*
X145919849Y-130158238D01*
X145919846Y-130158233D01*
X145917523Y-130153251D01*
X145786198Y-129965700D01*
X145624300Y-129803802D01*
X145619792Y-129800645D01*
X145619789Y-129800643D01*
X145449896Y-129681683D01*
X145436749Y-129672477D01*
X145431767Y-129670154D01*
X145431762Y-129670151D01*
X145234225Y-129578039D01*
X145234224Y-129578039D01*
X145229243Y-129575716D01*
X145223935Y-129574294D01*
X145223933Y-129574293D01*
X145013402Y-129517881D01*
X145013400Y-129517881D01*
X145008087Y-129516457D01*
X144780000Y-129496502D01*
X144551913Y-129516457D01*
X144546600Y-129517881D01*
X144546598Y-129517881D01*
X144336067Y-129574293D01*
X144336065Y-129574294D01*
X144330757Y-129575716D01*
X144325776Y-129578039D01*
X144325775Y-129578039D01*
X144128238Y-129670151D01*
X144128233Y-129670154D01*
X144123251Y-129672477D01*
X144110104Y-129681683D01*
X143940211Y-129800643D01*
X143940208Y-129800645D01*
X143935700Y-129803802D01*
X143773802Y-129965700D01*
X143642477Y-130153251D01*
X143640154Y-130158233D01*
X143640151Y-130158238D01*
X143548039Y-130355775D01*
X143545716Y-130360757D01*
X143486457Y-130581913D01*
X143466502Y-130810000D01*
X127508500Y-130810000D01*
X127508500Y-129073134D01*
X128281500Y-129073134D01*
X128288255Y-129135316D01*
X128339385Y-129271705D01*
X128426739Y-129388261D01*
X128543295Y-129475615D01*
X128679684Y-129526745D01*
X128741866Y-129533500D01*
X130338134Y-129533500D01*
X130400316Y-129526745D01*
X130536705Y-129475615D01*
X130653261Y-129388261D01*
X130740615Y-129271705D01*
X130791745Y-129135316D01*
X130798500Y-129073134D01*
X130798500Y-128592965D01*
X130818502Y-128524844D01*
X130872158Y-128478351D01*
X130942432Y-128468247D01*
X131007012Y-128497741D01*
X131045396Y-128557467D01*
X131049899Y-128580670D01*
X131061277Y-128696713D01*
X131119858Y-128890742D01*
X131215010Y-129069698D01*
X131218904Y-129074472D01*
X131218905Y-129074474D01*
X131246756Y-129108622D01*
X131343110Y-129226763D01*
X131347857Y-129230690D01*
X131347859Y-129230692D01*
X131494528Y-129352027D01*
X131494531Y-129352029D01*
X131499278Y-129355956D01*
X131677565Y-129452356D01*
X131746733Y-129473767D01*
X131865293Y-129510468D01*
X131865296Y-129510469D01*
X131871180Y-129512290D01*
X131877305Y-129512934D01*
X131877306Y-129512934D01*
X132066622Y-129532832D01*
X132066623Y-129532832D01*
X132072750Y-129533476D01*
X132156014Y-129525898D01*
X132268457Y-129515665D01*
X132268460Y-129515664D01*
X132274596Y-129515106D01*
X132280502Y-129513368D01*
X132280506Y-129513367D01*
X132463120Y-129459620D01*
X132463119Y-129459620D01*
X132469029Y-129457881D01*
X132474486Y-129455028D01*
X132474489Y-129455027D01*
X132615935Y-129381081D01*
X132648460Y-129364077D01*
X132648462Y-129364077D01*
X132648645Y-129363981D01*
X132648663Y-129364016D01*
X132714441Y-129344111D01*
X132775409Y-129359271D01*
X132947565Y-129452356D01*
X133016733Y-129473767D01*
X133135293Y-129510468D01*
X133135296Y-129510469D01*
X133141180Y-129512290D01*
X133147305Y-129512934D01*
X133147306Y-129512934D01*
X133336622Y-129532832D01*
X133336623Y-129532832D01*
X133342750Y-129533476D01*
X133426014Y-129525898D01*
X133538457Y-129515665D01*
X133538460Y-129515664D01*
X133544596Y-129515106D01*
X133550502Y-129513368D01*
X133550506Y-129513367D01*
X133733121Y-129459620D01*
X133733123Y-129459619D01*
X133736111Y-129458740D01*
X133739029Y-129457881D01*
X133739282Y-129458740D01*
X133804662Y-129452286D01*
X133841406Y-129465452D01*
X133848295Y-129470615D01*
X133856696Y-129473764D01*
X133856699Y-129473766D01*
X133883975Y-129483991D01*
X133984684Y-129521745D01*
X134046866Y-129528500D01*
X135193134Y-129528500D01*
X135255316Y-129521745D01*
X135391705Y-129470615D01*
X135508261Y-129383261D01*
X135595615Y-129266705D01*
X135646745Y-129130316D01*
X135653500Y-129068134D01*
X135653500Y-128235469D01*
X137017095Y-128235469D01*
X137017392Y-128240622D01*
X137017392Y-128240625D01*
X137030129Y-128461529D01*
X137030427Y-128466697D01*
X137031564Y-128471743D01*
X137031565Y-128471749D01*
X137050883Y-128557467D01*
X137081346Y-128692642D01*
X137083288Y-128697424D01*
X137083289Y-128697428D01*
X137166540Y-128902450D01*
X137168484Y-128907237D01*
X137289501Y-129104719D01*
X137441147Y-129279784D01*
X137619349Y-129427730D01*
X137819322Y-129544584D01*
X138035694Y-129627209D01*
X138040760Y-129628240D01*
X138040761Y-129628240D01*
X138093846Y-129639040D01*
X138262656Y-129673385D01*
X138392089Y-129678131D01*
X138488949Y-129681683D01*
X138488953Y-129681683D01*
X138494113Y-129681872D01*
X138499233Y-129681216D01*
X138499235Y-129681216D01*
X138585608Y-129670151D01*
X138723847Y-129652442D01*
X138728795Y-129650957D01*
X138728802Y-129650956D01*
X138940747Y-129587369D01*
X138945690Y-129585886D01*
X138950565Y-129583498D01*
X139149049Y-129486262D01*
X139149052Y-129486260D01*
X139153684Y-129483991D01*
X139342243Y-129349494D01*
X139387309Y-129304585D01*
X139449681Y-129270669D01*
X139520487Y-129275857D01*
X139577249Y-129318503D01*
X139594231Y-129349607D01*
X139608865Y-129388642D01*
X139619385Y-129416705D01*
X139706739Y-129533261D01*
X139823295Y-129620615D01*
X139959684Y-129671745D01*
X140021866Y-129678500D01*
X141918134Y-129678500D01*
X141980316Y-129671745D01*
X142116705Y-129620615D01*
X142233261Y-129533261D01*
X142320615Y-129416705D01*
X142371745Y-129280316D01*
X142378500Y-129218134D01*
X142378500Y-128270000D01*
X146006502Y-128270000D01*
X146026457Y-128498087D01*
X146027881Y-128503400D01*
X146027881Y-128503402D01*
X146081261Y-128702615D01*
X146085716Y-128719243D01*
X146088039Y-128724224D01*
X146088039Y-128724225D01*
X146180151Y-128921762D01*
X146180154Y-128921767D01*
X146182477Y-128926749D01*
X146185634Y-128931257D01*
X146304012Y-129100318D01*
X146313802Y-129114300D01*
X146475700Y-129276198D01*
X146480208Y-129279355D01*
X146480211Y-129279357D01*
X146558389Y-129334098D01*
X146663251Y-129407523D01*
X146668233Y-129409846D01*
X146668238Y-129409849D01*
X146865775Y-129501961D01*
X146870757Y-129504284D01*
X146876065Y-129505706D01*
X146876067Y-129505707D01*
X147086598Y-129562119D01*
X147086600Y-129562119D01*
X147091913Y-129563543D01*
X147320000Y-129583498D01*
X147548087Y-129563543D01*
X147553400Y-129562119D01*
X147553402Y-129562119D01*
X147763933Y-129505707D01*
X147763935Y-129505706D01*
X147769243Y-129504284D01*
X147774225Y-129501961D01*
X147971762Y-129409849D01*
X147971767Y-129409846D01*
X147976749Y-129407523D01*
X148081611Y-129334098D01*
X148159789Y-129279357D01*
X148159792Y-129279355D01*
X148164300Y-129276198D01*
X148326198Y-129114300D01*
X148335989Y-129100318D01*
X148454366Y-128931257D01*
X148457523Y-128926749D01*
X148459846Y-128921767D01*
X148459849Y-128921762D01*
X148503390Y-128828387D01*
X148550307Y-128775102D01*
X148618585Y-128755641D01*
X148686545Y-128776183D01*
X148731780Y-128828388D01*
X148763616Y-128896662D01*
X148763619Y-128896668D01*
X148765944Y-128901653D01*
X148769100Y-128906160D01*
X148769101Y-128906162D01*
X148886955Y-129074474D01*
X148892251Y-129082038D01*
X149047962Y-129237749D01*
X149052471Y-129240906D01*
X149052473Y-129240908D01*
X149119320Y-129287715D01*
X149228346Y-129364056D01*
X149427924Y-129457120D01*
X149640629Y-129514115D01*
X149860000Y-129533307D01*
X150079371Y-129514115D01*
X150292076Y-129457120D01*
X150491654Y-129364056D01*
X150600680Y-129287715D01*
X150667527Y-129240908D01*
X150667529Y-129240906D01*
X150672038Y-129237749D01*
X150827749Y-129082038D01*
X150833046Y-129074474D01*
X150950899Y-128906162D01*
X150950900Y-128906160D01*
X150954056Y-128901653D01*
X150956379Y-128896671D01*
X150956382Y-128896666D01*
X151012563Y-128776183D01*
X151047120Y-128702076D01*
X151104115Y-128489371D01*
X151123307Y-128270000D01*
X151104115Y-128050629D01*
X151047120Y-127837924D01*
X151003585Y-127744562D01*
X150956382Y-127643334D01*
X150956379Y-127643329D01*
X150954056Y-127638347D01*
X150950899Y-127633838D01*
X150830908Y-127462473D01*
X150830906Y-127462470D01*
X150827749Y-127457962D01*
X150672038Y-127302251D01*
X150649834Y-127286703D01*
X150567655Y-127229161D01*
X150491654Y-127175944D01*
X150292076Y-127082880D01*
X150079371Y-127025885D01*
X149860000Y-127006693D01*
X149640629Y-127025885D01*
X149427924Y-127082880D01*
X149334562Y-127126415D01*
X149233334Y-127173618D01*
X149233329Y-127173621D01*
X149228347Y-127175944D01*
X149223840Y-127179100D01*
X149223838Y-127179101D01*
X149052473Y-127299092D01*
X149052470Y-127299094D01*
X149047962Y-127302251D01*
X148892251Y-127457962D01*
X148889094Y-127462470D01*
X148889092Y-127462473D01*
X148769101Y-127633838D01*
X148765944Y-127638347D01*
X148763619Y-127643332D01*
X148763616Y-127643338D01*
X148731780Y-127711612D01*
X148684863Y-127764898D01*
X148616586Y-127784359D01*
X148548626Y-127763818D01*
X148503390Y-127711613D01*
X148459849Y-127618238D01*
X148459846Y-127618233D01*
X148457523Y-127613251D01*
X148362025Y-127476866D01*
X148329357Y-127430211D01*
X148329355Y-127430208D01*
X148326198Y-127425700D01*
X148164300Y-127263802D01*
X148159792Y-127260645D01*
X148159789Y-127260643D01*
X148038796Y-127175923D01*
X147976749Y-127132477D01*
X147971767Y-127130154D01*
X147971762Y-127130151D01*
X147774225Y-127038039D01*
X147774224Y-127038039D01*
X147769243Y-127035716D01*
X147763935Y-127034294D01*
X147763933Y-127034293D01*
X147553402Y-126977881D01*
X147553400Y-126977881D01*
X147548087Y-126976457D01*
X147320000Y-126956502D01*
X147091913Y-126976457D01*
X147086600Y-126977881D01*
X147086598Y-126977881D01*
X146876067Y-127034293D01*
X146876065Y-127034294D01*
X146870757Y-127035716D01*
X146865776Y-127038039D01*
X146865775Y-127038039D01*
X146668238Y-127130151D01*
X146668233Y-127130154D01*
X146663251Y-127132477D01*
X146601204Y-127175923D01*
X146480211Y-127260643D01*
X146480208Y-127260645D01*
X146475700Y-127263802D01*
X146313802Y-127425700D01*
X146310645Y-127430208D01*
X146310643Y-127430211D01*
X146277975Y-127476866D01*
X146182477Y-127613251D01*
X146180154Y-127618233D01*
X146180151Y-127618238D01*
X146101478Y-127786954D01*
X146085716Y-127820757D01*
X146084294Y-127826065D01*
X146084293Y-127826067D01*
X146027881Y-128036598D01*
X146026457Y-128041913D01*
X146006502Y-128270000D01*
X142378500Y-128270000D01*
X142378500Y-127321866D01*
X142371745Y-127259684D01*
X142320615Y-127123295D01*
X142233261Y-127006739D01*
X142116705Y-126919385D01*
X141980316Y-126868255D01*
X141918134Y-126861500D01*
X140021866Y-126861500D01*
X139959684Y-126868255D01*
X139823295Y-126919385D01*
X139706739Y-127006739D01*
X139619385Y-127123295D01*
X139616233Y-127131703D01*
X139616232Y-127131705D01*
X139595538Y-127186906D01*
X139552897Y-127243671D01*
X139486335Y-127268371D01*
X139416986Y-127253164D01*
X139394167Y-127236666D01*
X139393887Y-127236358D01*
X139327646Y-127184044D01*
X139216177Y-127096011D01*
X139216172Y-127096008D01*
X139212123Y-127092810D01*
X139207607Y-127090317D01*
X139207604Y-127090315D01*
X139013879Y-126983373D01*
X139013875Y-126983371D01*
X139009355Y-126980876D01*
X139004486Y-126979152D01*
X139004482Y-126979150D01*
X138795903Y-126905288D01*
X138795899Y-126905287D01*
X138791028Y-126903562D01*
X138785935Y-126902655D01*
X138785932Y-126902654D01*
X138568095Y-126863851D01*
X138568089Y-126863850D01*
X138563006Y-126862945D01*
X138490096Y-126862054D01*
X138336581Y-126860179D01*
X138336579Y-126860179D01*
X138331411Y-126860116D01*
X138102464Y-126895150D01*
X137882314Y-126967106D01*
X137877726Y-126969494D01*
X137877722Y-126969496D01*
X137691894Y-127066232D01*
X137676872Y-127074052D01*
X137672739Y-127077155D01*
X137672736Y-127077157D01*
X137495790Y-127210012D01*
X137491655Y-127213117D01*
X137331639Y-127380564D01*
X137201119Y-127571899D01*
X137103602Y-127781981D01*
X137041707Y-128005169D01*
X137017095Y-128235469D01*
X135653500Y-128235469D01*
X135653500Y-127471866D01*
X135646745Y-127409684D01*
X135595615Y-127273295D01*
X135508261Y-127156739D01*
X135391705Y-127069385D01*
X135255316Y-127018255D01*
X135193134Y-127011500D01*
X134046866Y-127011500D01*
X133984684Y-127018255D01*
X133973622Y-127022402D01*
X133856704Y-127066232D01*
X133856701Y-127066234D01*
X133848295Y-127069385D01*
X133841106Y-127074773D01*
X133840863Y-127074906D01*
X133771506Y-127090076D01*
X133743092Y-127084752D01*
X133734587Y-127082119D01*
X133558820Y-127027710D01*
X133552695Y-127027066D01*
X133552694Y-127027066D01*
X133363378Y-127007168D01*
X133363377Y-127007168D01*
X133357250Y-127006524D01*
X133275995Y-127013919D01*
X133161543Y-127024335D01*
X133161540Y-127024336D01*
X133155404Y-127024894D01*
X133149498Y-127026632D01*
X133149494Y-127026633D01*
X133014950Y-127066232D01*
X132960971Y-127082119D01*
X132955514Y-127084972D01*
X132955511Y-127084973D01*
X132895953Y-127116109D01*
X132781540Y-127175923D01*
X132781538Y-127175923D01*
X132781355Y-127176019D01*
X132781337Y-127175984D01*
X132715559Y-127195889D01*
X132654591Y-127180729D01*
X132645741Y-127175944D01*
X132482435Y-127087644D01*
X132322188Y-127038039D01*
X132294707Y-127029532D01*
X132294704Y-127029531D01*
X132288820Y-127027710D01*
X132282695Y-127027066D01*
X132282694Y-127027066D01*
X132093378Y-127007168D01*
X132093377Y-127007168D01*
X132087250Y-127006524D01*
X132005995Y-127013919D01*
X131891543Y-127024335D01*
X131891540Y-127024336D01*
X131885404Y-127024894D01*
X131879498Y-127026632D01*
X131879494Y-127026633D01*
X131744950Y-127066232D01*
X131690971Y-127082119D01*
X131685514Y-127084972D01*
X131685511Y-127084973D01*
X131625953Y-127116109D01*
X131511355Y-127176019D01*
X131353399Y-127303019D01*
X131223119Y-127458281D01*
X131220155Y-127463673D01*
X131220152Y-127463677D01*
X131140402Y-127608743D01*
X131125477Y-127635891D01*
X131123614Y-127641764D01*
X131078381Y-127784359D01*
X131064193Y-127829084D01*
X131063507Y-127835201D01*
X131063506Y-127835205D01*
X131049715Y-127958155D01*
X131022244Y-128023622D01*
X130963740Y-128063844D01*
X130892778Y-128066051D01*
X130831887Y-128029543D01*
X130800400Y-127965911D01*
X130798500Y-127944110D01*
X130798500Y-127476866D01*
X130791745Y-127414684D01*
X130740615Y-127278295D01*
X130653261Y-127161739D01*
X130536705Y-127074385D01*
X130400316Y-127023255D01*
X130338134Y-127016500D01*
X128741866Y-127016500D01*
X128679684Y-127023255D01*
X128543295Y-127074385D01*
X128426739Y-127161739D01*
X128339385Y-127278295D01*
X128288255Y-127414684D01*
X128281500Y-127476866D01*
X128281500Y-129073134D01*
X127508500Y-129073134D01*
X127508500Y-123190000D01*
X132036502Y-123190000D01*
X132056457Y-123418087D01*
X132115716Y-123639243D01*
X132118039Y-123644224D01*
X132118039Y-123644225D01*
X132210151Y-123841762D01*
X132210154Y-123841767D01*
X132212477Y-123846749D01*
X132343802Y-124034300D01*
X132505700Y-124196198D01*
X132510208Y-124199355D01*
X132510211Y-124199357D01*
X132588389Y-124254098D01*
X132693251Y-124327523D01*
X132698233Y-124329846D01*
X132698238Y-124329849D01*
X132895775Y-124421961D01*
X132900757Y-124424284D01*
X132906065Y-124425706D01*
X132906067Y-124425707D01*
X133116598Y-124482119D01*
X133116600Y-124482119D01*
X133121913Y-124483543D01*
X133350000Y-124503498D01*
X133578087Y-124483543D01*
X133583400Y-124482119D01*
X133583402Y-124482119D01*
X133793933Y-124425707D01*
X133793935Y-124425706D01*
X133799243Y-124424284D01*
X133804225Y-124421961D01*
X134001762Y-124329849D01*
X134001767Y-124329846D01*
X134006749Y-124327523D01*
X134111611Y-124254098D01*
X134189789Y-124199357D01*
X134189792Y-124199355D01*
X134194300Y-124196198D01*
X134356198Y-124034300D01*
X134487523Y-123846749D01*
X134489846Y-123841767D01*
X134489849Y-123841762D01*
X134581961Y-123644225D01*
X134581961Y-123644224D01*
X134584284Y-123639243D01*
X134643543Y-123418087D01*
X134663498Y-123190000D01*
X134643543Y-122961913D01*
X134584284Y-122740757D01*
X134581961Y-122735775D01*
X134489849Y-122538238D01*
X134489846Y-122538233D01*
X134487523Y-122533251D01*
X134356198Y-122345700D01*
X134194300Y-122183802D01*
X134189792Y-122180645D01*
X134189789Y-122180643D01*
X134111611Y-122125902D01*
X134006749Y-122052477D01*
X134001767Y-122050154D01*
X134001762Y-122050151D01*
X133804225Y-121958039D01*
X133804224Y-121958039D01*
X133799243Y-121955716D01*
X133793935Y-121954294D01*
X133793933Y-121954293D01*
X133583402Y-121897881D01*
X133583400Y-121897881D01*
X133578087Y-121896457D01*
X133350000Y-121876502D01*
X133121913Y-121896457D01*
X133116600Y-121897881D01*
X133116598Y-121897881D01*
X132906067Y-121954293D01*
X132906065Y-121954294D01*
X132900757Y-121955716D01*
X132895776Y-121958039D01*
X132895775Y-121958039D01*
X132698238Y-122050151D01*
X132698233Y-122050154D01*
X132693251Y-122052477D01*
X132588389Y-122125902D01*
X132510211Y-122180643D01*
X132510208Y-122180645D01*
X132505700Y-122183802D01*
X132343802Y-122345700D01*
X132212477Y-122533251D01*
X132210154Y-122538233D01*
X132210151Y-122538238D01*
X132118039Y-122735775D01*
X132115716Y-122740757D01*
X132056457Y-122961913D01*
X132036502Y-123190000D01*
X127508500Y-123190000D01*
X127508500Y-120655000D01*
X128276693Y-120655000D01*
X128295885Y-120874371D01*
X128352880Y-121087076D01*
X128358554Y-121099243D01*
X128443618Y-121281666D01*
X128443621Y-121281671D01*
X128445944Y-121286653D01*
X128449100Y-121291160D01*
X128449101Y-121291162D01*
X128556622Y-121444717D01*
X128572251Y-121467038D01*
X128727962Y-121622749D01*
X128732471Y-121625906D01*
X128732473Y-121625908D01*
X128770166Y-121652301D01*
X128908346Y-121749056D01*
X129107924Y-121842120D01*
X129320629Y-121899115D01*
X129540000Y-121918307D01*
X129759371Y-121899115D01*
X129972076Y-121842120D01*
X130171654Y-121749056D01*
X130309834Y-121652301D01*
X130347527Y-121625908D01*
X130347529Y-121625906D01*
X130352038Y-121622749D01*
X130507749Y-121467038D01*
X130523379Y-121444717D01*
X130630899Y-121291162D01*
X130630900Y-121291160D01*
X130634056Y-121286653D01*
X130636379Y-121281671D01*
X130636382Y-121281666D01*
X130721446Y-121099243D01*
X130727120Y-121087076D01*
X130784115Y-120874371D01*
X130803307Y-120655000D01*
X130802870Y-120650000D01*
X143466502Y-120650000D01*
X143486457Y-120878087D01*
X143487881Y-120883400D01*
X143487881Y-120883402D01*
X143543792Y-121092061D01*
X143545716Y-121099243D01*
X143548039Y-121104224D01*
X143548039Y-121104225D01*
X143640151Y-121301762D01*
X143640154Y-121301767D01*
X143642477Y-121306749D01*
X143645634Y-121311257D01*
X143757442Y-121470935D01*
X143773802Y-121494300D01*
X143935700Y-121656198D01*
X143940208Y-121659355D01*
X143940211Y-121659357D01*
X144018389Y-121714098D01*
X144123251Y-121787523D01*
X144128233Y-121789846D01*
X144128238Y-121789849D01*
X144325775Y-121881961D01*
X144330757Y-121884284D01*
X144336065Y-121885706D01*
X144336067Y-121885707D01*
X144546598Y-121942119D01*
X144546600Y-121942119D01*
X144551913Y-121943543D01*
X144780000Y-121963498D01*
X145008087Y-121943543D01*
X145013400Y-121942119D01*
X145013402Y-121942119D01*
X145223933Y-121885707D01*
X145223935Y-121885706D01*
X145229243Y-121884284D01*
X145234225Y-121881961D01*
X145431762Y-121789849D01*
X145431767Y-121789846D01*
X145436749Y-121787523D01*
X145541611Y-121714098D01*
X145619789Y-121659357D01*
X145619792Y-121659355D01*
X145624300Y-121656198D01*
X145786198Y-121494300D01*
X145802559Y-121470935D01*
X145818524Y-121448134D01*
X148601500Y-121448134D01*
X148608255Y-121510316D01*
X148659385Y-121646705D01*
X148746739Y-121763261D01*
X148863295Y-121850615D01*
X148999684Y-121901745D01*
X149061866Y-121908500D01*
X150658134Y-121908500D01*
X150720316Y-121901745D01*
X150856705Y-121850615D01*
X150973261Y-121763261D01*
X151060615Y-121646705D01*
X151111745Y-121510316D01*
X151118500Y-121448134D01*
X151118500Y-119851866D01*
X151111745Y-119789684D01*
X151060615Y-119653295D01*
X150973261Y-119536739D01*
X150856705Y-119449385D01*
X150720316Y-119398255D01*
X150658134Y-119391500D01*
X149061866Y-119391500D01*
X148999684Y-119398255D01*
X148863295Y-119449385D01*
X148746739Y-119536739D01*
X148659385Y-119653295D01*
X148608255Y-119789684D01*
X148601500Y-119851866D01*
X148601500Y-121448134D01*
X145818524Y-121448134D01*
X145914366Y-121311257D01*
X145917523Y-121306749D01*
X145919846Y-121301767D01*
X145919849Y-121301762D01*
X146011961Y-121104225D01*
X146011961Y-121104224D01*
X146014284Y-121099243D01*
X146016209Y-121092061D01*
X146072119Y-120883402D01*
X146072119Y-120883400D01*
X146073543Y-120878087D01*
X146093498Y-120650000D01*
X146073543Y-120421913D01*
X146014284Y-120200757D01*
X146011961Y-120195775D01*
X145919849Y-119998238D01*
X145919846Y-119998233D01*
X145917523Y-119993251D01*
X145844098Y-119888389D01*
X145789357Y-119810211D01*
X145789355Y-119810208D01*
X145786198Y-119805700D01*
X145624300Y-119643802D01*
X145619792Y-119640645D01*
X145619789Y-119640643D01*
X145541611Y-119585902D01*
X145436749Y-119512477D01*
X145431767Y-119510154D01*
X145431762Y-119510151D01*
X145234225Y-119418039D01*
X145234224Y-119418039D01*
X145229243Y-119415716D01*
X145223935Y-119414294D01*
X145223933Y-119414293D01*
X145013402Y-119357881D01*
X145013400Y-119357881D01*
X145008087Y-119356457D01*
X144780000Y-119336502D01*
X144551913Y-119356457D01*
X144546600Y-119357881D01*
X144546598Y-119357881D01*
X144336067Y-119414293D01*
X144336065Y-119414294D01*
X144330757Y-119415716D01*
X144325776Y-119418039D01*
X144325775Y-119418039D01*
X144128238Y-119510151D01*
X144128233Y-119510154D01*
X144123251Y-119512477D01*
X144018389Y-119585902D01*
X143940211Y-119640643D01*
X143940208Y-119640645D01*
X143935700Y-119643802D01*
X143773802Y-119805700D01*
X143770645Y-119810208D01*
X143770643Y-119810211D01*
X143715902Y-119888389D01*
X143642477Y-119993251D01*
X143640154Y-119998233D01*
X143640151Y-119998238D01*
X143548039Y-120195775D01*
X143545716Y-120200757D01*
X143486457Y-120421913D01*
X143466502Y-120650000D01*
X130802870Y-120650000D01*
X130784115Y-120435629D01*
X130727120Y-120222924D01*
X130683585Y-120129562D01*
X130636382Y-120028334D01*
X130636379Y-120028329D01*
X130634056Y-120023347D01*
X130630899Y-120018838D01*
X130510908Y-119847473D01*
X130510906Y-119847470D01*
X130507749Y-119842962D01*
X130352038Y-119687251D01*
X130293282Y-119646109D01*
X130262264Y-119624390D01*
X130171654Y-119560944D01*
X129972076Y-119467880D01*
X129759371Y-119410885D01*
X129540000Y-119391693D01*
X129320629Y-119410885D01*
X129107924Y-119467880D01*
X129048888Y-119495409D01*
X128913334Y-119558618D01*
X128913329Y-119558621D01*
X128908347Y-119560944D01*
X128903840Y-119564100D01*
X128903838Y-119564101D01*
X128732473Y-119684092D01*
X128732470Y-119684094D01*
X128727962Y-119687251D01*
X128572251Y-119842962D01*
X128569094Y-119847470D01*
X128569092Y-119847473D01*
X128449101Y-120018838D01*
X128445944Y-120023347D01*
X128443621Y-120028329D01*
X128443618Y-120028334D01*
X128396415Y-120129562D01*
X128352880Y-120222924D01*
X128295885Y-120435629D01*
X128276693Y-120655000D01*
X127508500Y-120655000D01*
X127508500Y-118592542D01*
X136691500Y-118592542D01*
X136703022Y-118734200D01*
X136758890Y-118951794D01*
X136852409Y-119156055D01*
X136980620Y-119340527D01*
X137139473Y-119499380D01*
X137323945Y-119627591D01*
X137528206Y-119721110D01*
X137745800Y-119776978D01*
X137799705Y-119781362D01*
X137884908Y-119788293D01*
X137884918Y-119788293D01*
X137887458Y-119788500D01*
X141512542Y-119788500D01*
X141515082Y-119788293D01*
X141515092Y-119788293D01*
X141600295Y-119781362D01*
X141654200Y-119776978D01*
X141871794Y-119721110D01*
X142076055Y-119627591D01*
X142260527Y-119499380D01*
X142419380Y-119340527D01*
X142547591Y-119156055D01*
X142641110Y-118951794D01*
X142696978Y-118734200D01*
X142708500Y-118592542D01*
X142708500Y-116967458D01*
X142696978Y-116825800D01*
X142641110Y-116608206D01*
X142547591Y-116403945D01*
X142419380Y-116219473D01*
X142260527Y-116060620D01*
X142076055Y-115932409D01*
X141871794Y-115838890D01*
X141654200Y-115783022D01*
X141600295Y-115778638D01*
X141515092Y-115771707D01*
X141515082Y-115771707D01*
X141512542Y-115771500D01*
X137887458Y-115771500D01*
X137884918Y-115771707D01*
X137884908Y-115771707D01*
X137799705Y-115778638D01*
X137745800Y-115783022D01*
X137528206Y-115838890D01*
X137323945Y-115932409D01*
X137139473Y-116060620D01*
X136980620Y-116219473D01*
X136852409Y-116403945D01*
X136758890Y-116608206D01*
X136703022Y-116825800D01*
X136691500Y-116967458D01*
X136691500Y-118592542D01*
X127508500Y-118592542D01*
X127508500Y-113030000D01*
X132036502Y-113030000D01*
X132056457Y-113258087D01*
X132115716Y-113479243D01*
X132118039Y-113484224D01*
X132118039Y-113484225D01*
X132210151Y-113681762D01*
X132210154Y-113681767D01*
X132212477Y-113686749D01*
X132281421Y-113785211D01*
X132319776Y-113839987D01*
X132343802Y-113874300D01*
X132505700Y-114036198D01*
X132510208Y-114039355D01*
X132510211Y-114039357D01*
X132588389Y-114094098D01*
X132693251Y-114167523D01*
X132698233Y-114169846D01*
X132698238Y-114169849D01*
X132895775Y-114261961D01*
X132900757Y-114264284D01*
X132906065Y-114265706D01*
X132906067Y-114265707D01*
X133116598Y-114322119D01*
X133116600Y-114322119D01*
X133121913Y-114323543D01*
X133350000Y-114343498D01*
X133578087Y-114323543D01*
X133583400Y-114322119D01*
X133583402Y-114322119D01*
X133793933Y-114265707D01*
X133793935Y-114265706D01*
X133799243Y-114264284D01*
X133804225Y-114261961D01*
X134001762Y-114169849D01*
X134001767Y-114169846D01*
X134006749Y-114167523D01*
X134111611Y-114094098D01*
X134189789Y-114039357D01*
X134189792Y-114039355D01*
X134194300Y-114036198D01*
X134356198Y-113874300D01*
X134380225Y-113839987D01*
X134418579Y-113785211D01*
X134487523Y-113686749D01*
X134489846Y-113681767D01*
X134489849Y-113681762D01*
X134581961Y-113484225D01*
X134581961Y-113484224D01*
X134584284Y-113479243D01*
X134643543Y-113258087D01*
X134663498Y-113030000D01*
X134643543Y-112801913D01*
X134584284Y-112580757D01*
X134581961Y-112575775D01*
X134489849Y-112378238D01*
X134489846Y-112378233D01*
X134487523Y-112373251D01*
X134390435Y-112234595D01*
X134359357Y-112190211D01*
X134359355Y-112190208D01*
X134356198Y-112185700D01*
X134194300Y-112023802D01*
X134189792Y-112020645D01*
X134189789Y-112020643D01*
X134111611Y-111965902D01*
X134006749Y-111892477D01*
X134001767Y-111890154D01*
X134001762Y-111890151D01*
X133804225Y-111798039D01*
X133804224Y-111798039D01*
X133799243Y-111795716D01*
X133793935Y-111794294D01*
X133793933Y-111794293D01*
X133583402Y-111737881D01*
X133583400Y-111737881D01*
X133578087Y-111736457D01*
X133350000Y-111716502D01*
X133121913Y-111736457D01*
X133116600Y-111737881D01*
X133116598Y-111737881D01*
X132906067Y-111794293D01*
X132906065Y-111794294D01*
X132900757Y-111795716D01*
X132895776Y-111798039D01*
X132895775Y-111798039D01*
X132698238Y-111890151D01*
X132698233Y-111890154D01*
X132693251Y-111892477D01*
X132588389Y-111965902D01*
X132510211Y-112020643D01*
X132510208Y-112020645D01*
X132505700Y-112023802D01*
X132343802Y-112185700D01*
X132340645Y-112190208D01*
X132340643Y-112190211D01*
X132309565Y-112234595D01*
X132212477Y-112373251D01*
X132210154Y-112378233D01*
X132210151Y-112378238D01*
X132118039Y-112575775D01*
X132115716Y-112580757D01*
X132056457Y-112801913D01*
X132036502Y-113030000D01*
X127508500Y-113030000D01*
X127508500Y-109092542D01*
X136691500Y-109092542D01*
X136703022Y-109234200D01*
X136758890Y-109451794D01*
X136852409Y-109656055D01*
X136980620Y-109840527D01*
X137139473Y-109999380D01*
X137323945Y-110127591D01*
X137528206Y-110221110D01*
X137745800Y-110276978D01*
X137799705Y-110281362D01*
X137884908Y-110288293D01*
X137884918Y-110288293D01*
X137887458Y-110288500D01*
X141512542Y-110288500D01*
X141515082Y-110288293D01*
X141515092Y-110288293D01*
X141600295Y-110281362D01*
X141654200Y-110276978D01*
X141871794Y-110221110D01*
X142076055Y-110127591D01*
X142260527Y-109999380D01*
X142419380Y-109840527D01*
X142547591Y-109656055D01*
X142641110Y-109451794D01*
X142696978Y-109234200D01*
X142708500Y-109092542D01*
X142708500Y-107467458D01*
X142696978Y-107325800D01*
X142641110Y-107108206D01*
X142547591Y-106903945D01*
X142419380Y-106719473D01*
X142260527Y-106560620D01*
X142076055Y-106432409D01*
X141871794Y-106338890D01*
X141654200Y-106283022D01*
X141600295Y-106278638D01*
X141515092Y-106271707D01*
X141515082Y-106271707D01*
X141512542Y-106271500D01*
X137887458Y-106271500D01*
X137884918Y-106271707D01*
X137884908Y-106271707D01*
X137799705Y-106278638D01*
X137745800Y-106283022D01*
X137528206Y-106338890D01*
X137323945Y-106432409D01*
X137139473Y-106560620D01*
X136980620Y-106719473D01*
X136852409Y-106903945D01*
X136758890Y-107108206D01*
X136703022Y-107325800D01*
X136691500Y-107467458D01*
X136691500Y-109092542D01*
X127508500Y-109092542D01*
X127508500Y-100106062D01*
X138978493Y-100106062D01*
X138987789Y-100118077D01*
X139038994Y-100153931D01*
X139048489Y-100159414D01*
X139245947Y-100251490D01*
X139256239Y-100255236D01*
X139466688Y-100311625D01*
X139477481Y-100313528D01*
X139694525Y-100332517D01*
X139705475Y-100332517D01*
X139922519Y-100313528D01*
X139933312Y-100311625D01*
X140143761Y-100255236D01*
X140154053Y-100251490D01*
X140351511Y-100159414D01*
X140361006Y-100153931D01*
X140413048Y-100117491D01*
X140421424Y-100107012D01*
X140414356Y-100093566D01*
X139712812Y-99392022D01*
X139698868Y-99384408D01*
X139697035Y-99384539D01*
X139690420Y-99388790D01*
X138984923Y-100094287D01*
X138978493Y-100106062D01*
X127508500Y-100106062D01*
X127508500Y-99025475D01*
X138387483Y-99025475D01*
X138406472Y-99242519D01*
X138408375Y-99253312D01*
X138464764Y-99463761D01*
X138468510Y-99474053D01*
X138560586Y-99671511D01*
X138566069Y-99681006D01*
X138602509Y-99733048D01*
X138612988Y-99741424D01*
X138626434Y-99734356D01*
X139327978Y-99032812D01*
X139334356Y-99021132D01*
X140064408Y-99021132D01*
X140064539Y-99022965D01*
X140068790Y-99029580D01*
X140774287Y-99735077D01*
X140786062Y-99741507D01*
X140798077Y-99732211D01*
X140833931Y-99681006D01*
X140839414Y-99671511D01*
X140931490Y-99474053D01*
X140935236Y-99463761D01*
X140991625Y-99253312D01*
X140993528Y-99242519D01*
X141012517Y-99025475D01*
X141012517Y-99014525D01*
X140993528Y-98797481D01*
X140991625Y-98786688D01*
X140935236Y-98576239D01*
X140931490Y-98565947D01*
X140839414Y-98368489D01*
X140833931Y-98358994D01*
X140797491Y-98306952D01*
X140787012Y-98298576D01*
X140773566Y-98305644D01*
X140072022Y-99007188D01*
X140064408Y-99021132D01*
X139334356Y-99021132D01*
X139335592Y-99018868D01*
X139335461Y-99017035D01*
X139331210Y-99010420D01*
X138625713Y-98304923D01*
X138613938Y-98298493D01*
X138601923Y-98307789D01*
X138566069Y-98358994D01*
X138560586Y-98368489D01*
X138468510Y-98565947D01*
X138464764Y-98576239D01*
X138408375Y-98786688D01*
X138406472Y-98797481D01*
X138387483Y-99014525D01*
X138387483Y-99025475D01*
X127508500Y-99025475D01*
X127508500Y-94808134D01*
X135791500Y-94808134D01*
X135798255Y-94870316D01*
X135849385Y-95006705D01*
X135936739Y-95123261D01*
X136053295Y-95210615D01*
X136189684Y-95261745D01*
X136251866Y-95268500D01*
X138148134Y-95268500D01*
X138210316Y-95261745D01*
X138346705Y-95210615D01*
X138463261Y-95123261D01*
X138550615Y-95006705D01*
X138565686Y-94966504D01*
X138608328Y-94909739D01*
X138674890Y-94885040D01*
X138744239Y-94900248D01*
X138764150Y-94913788D01*
X138889349Y-95017730D01*
X139089322Y-95134584D01*
X139089893Y-95134802D01*
X139141697Y-95181383D01*
X139160446Y-95249860D01*
X139139197Y-95317602D01*
X139087717Y-95361742D01*
X139048238Y-95380151D01*
X139048233Y-95380154D01*
X139043251Y-95382477D01*
X138938389Y-95455902D01*
X138860211Y-95510643D01*
X138860208Y-95510645D01*
X138855700Y-95513802D01*
X138693802Y-95675700D01*
X138562477Y-95863251D01*
X138560154Y-95868233D01*
X138560151Y-95868238D01*
X138468039Y-96065775D01*
X138465716Y-96070757D01*
X138406457Y-96291913D01*
X138386502Y-96520000D01*
X138406457Y-96748087D01*
X138465716Y-96969243D01*
X138468039Y-96974224D01*
X138468039Y-96974225D01*
X138560151Y-97171762D01*
X138560154Y-97171767D01*
X138562477Y-97176749D01*
X138693802Y-97364300D01*
X138855700Y-97526198D01*
X138860208Y-97529355D01*
X138860211Y-97529357D01*
X138963876Y-97601944D01*
X139043251Y-97657523D01*
X139048235Y-97659847D01*
X139050528Y-97661171D01*
X139099521Y-97712553D01*
X139112957Y-97782267D01*
X139086571Y-97848178D01*
X139050528Y-97879409D01*
X139038998Y-97886066D01*
X138986952Y-97922509D01*
X138978576Y-97932988D01*
X138985644Y-97946434D01*
X139687188Y-98647978D01*
X139701132Y-98655592D01*
X139702965Y-98655461D01*
X139709580Y-98651210D01*
X140415077Y-97945713D01*
X140421507Y-97933938D01*
X140412211Y-97921923D01*
X140361002Y-97886066D01*
X140349472Y-97879409D01*
X140300479Y-97828027D01*
X140287042Y-97758313D01*
X140313429Y-97692402D01*
X140349472Y-97661171D01*
X140351765Y-97659847D01*
X140356749Y-97657523D01*
X140436124Y-97601944D01*
X140539789Y-97529357D01*
X140539792Y-97529355D01*
X140544300Y-97526198D01*
X140706198Y-97364300D01*
X140837523Y-97176749D01*
X140839846Y-97171767D01*
X140839849Y-97171762D01*
X140931961Y-96974225D01*
X140931961Y-96974224D01*
X140934284Y-96969243D01*
X140993543Y-96748087D01*
X141013498Y-96520000D01*
X140993543Y-96291913D01*
X140934284Y-96070757D01*
X140931961Y-96065775D01*
X140839849Y-95868238D01*
X140839846Y-95868233D01*
X140837523Y-95863251D01*
X140706198Y-95675700D01*
X140544300Y-95513802D01*
X140539792Y-95510645D01*
X140539789Y-95510643D01*
X140461611Y-95455902D01*
X140356749Y-95382477D01*
X140351761Y-95380151D01*
X140351758Y-95380149D01*
X140307305Y-95359421D01*
X140254020Y-95312505D01*
X140234558Y-95244228D01*
X140255099Y-95176268D01*
X140305122Y-95132075D01*
X140419039Y-95076268D01*
X140419053Y-95076260D01*
X140423684Y-95073991D01*
X140612243Y-94939494D01*
X140776303Y-94776005D01*
X140845370Y-94679888D01*
X140901365Y-94636240D01*
X140972068Y-94629794D01*
X141035033Y-94662597D01*
X141055128Y-94687584D01*
X141056799Y-94690311D01*
X141056804Y-94690317D01*
X141059501Y-94694719D01*
X141211147Y-94869784D01*
X141389349Y-95017730D01*
X141589322Y-95134584D01*
X141805694Y-95217209D01*
X141810760Y-95218240D01*
X141810761Y-95218240D01*
X141863846Y-95229040D01*
X142032656Y-95263385D01*
X142162089Y-95268131D01*
X142258949Y-95271683D01*
X142258953Y-95271683D01*
X142264113Y-95271872D01*
X142269233Y-95271216D01*
X142269235Y-95271216D01*
X142343166Y-95261745D01*
X142493847Y-95242442D01*
X142498795Y-95240957D01*
X142498802Y-95240956D01*
X142710747Y-95177369D01*
X142715690Y-95175886D01*
X142796236Y-95136427D01*
X142919049Y-95076262D01*
X142919052Y-95076260D01*
X142923684Y-95073991D01*
X143112243Y-94939494D01*
X143276303Y-94776005D01*
X143411458Y-94587917D01*
X143514078Y-94380280D01*
X143581408Y-94158671D01*
X143611640Y-93929041D01*
X143613327Y-93860000D01*
X143607032Y-93783434D01*
X143594773Y-93634318D01*
X143594772Y-93634312D01*
X143594349Y-93629167D01*
X143537925Y-93404533D01*
X143445570Y-93192131D01*
X143319764Y-92997665D01*
X143163887Y-92826358D01*
X143159836Y-92823159D01*
X143159832Y-92823155D01*
X142986177Y-92686011D01*
X142986172Y-92686008D01*
X142982123Y-92682810D01*
X142977607Y-92680317D01*
X142977604Y-92680315D01*
X142783879Y-92573373D01*
X142783875Y-92573371D01*
X142779355Y-92570876D01*
X142774486Y-92569152D01*
X142774482Y-92569150D01*
X142565903Y-92495288D01*
X142565899Y-92495287D01*
X142561028Y-92493562D01*
X142555935Y-92492655D01*
X142555932Y-92492654D01*
X142338095Y-92453851D01*
X142338089Y-92453850D01*
X142333006Y-92452945D01*
X142260096Y-92452054D01*
X142106581Y-92450179D01*
X142106579Y-92450179D01*
X142101411Y-92450116D01*
X141872464Y-92485150D01*
X141652314Y-92557106D01*
X141647726Y-92559494D01*
X141647722Y-92559496D01*
X141451461Y-92661663D01*
X141446872Y-92664052D01*
X141442739Y-92667155D01*
X141442736Y-92667157D01*
X141299074Y-92775022D01*
X141261655Y-92803117D01*
X141101639Y-92970564D01*
X141054836Y-93039174D01*
X140999927Y-93084175D01*
X140929402Y-93092346D01*
X140865655Y-93061092D01*
X140844959Y-93036609D01*
X140822577Y-93002013D01*
X140822574Y-93002009D01*
X140819764Y-92997665D01*
X140663887Y-92826358D01*
X140659836Y-92823159D01*
X140659832Y-92823155D01*
X140486177Y-92686011D01*
X140486172Y-92686008D01*
X140482123Y-92682810D01*
X140477607Y-92680317D01*
X140477604Y-92680315D01*
X140283879Y-92573373D01*
X140283875Y-92573371D01*
X140279355Y-92570876D01*
X140274486Y-92569152D01*
X140274482Y-92569150D01*
X140065903Y-92495288D01*
X140065899Y-92495287D01*
X140061028Y-92493562D01*
X140055935Y-92492655D01*
X140055932Y-92492654D01*
X139838095Y-92453851D01*
X139838089Y-92453850D01*
X139833006Y-92452945D01*
X139760096Y-92452054D01*
X139606581Y-92450179D01*
X139606579Y-92450179D01*
X139601411Y-92450116D01*
X139372464Y-92485150D01*
X139152314Y-92557106D01*
X139147726Y-92559494D01*
X139147722Y-92559496D01*
X138951461Y-92661663D01*
X138946872Y-92664052D01*
X138942739Y-92667155D01*
X138942736Y-92667157D01*
X138761655Y-92803117D01*
X138760976Y-92802213D01*
X138701730Y-92830131D01*
X138631341Y-92820869D01*
X138577132Y-92775022D01*
X138564325Y-92749866D01*
X138553768Y-92721705D01*
X138553767Y-92721703D01*
X138550615Y-92713295D01*
X138463261Y-92596739D01*
X138346705Y-92509385D01*
X138210316Y-92458255D01*
X138148134Y-92451500D01*
X136251866Y-92451500D01*
X136189684Y-92458255D01*
X136053295Y-92509385D01*
X135936739Y-92596739D01*
X135849385Y-92713295D01*
X135798255Y-92849684D01*
X135791500Y-92911866D01*
X135791500Y-94808134D01*
X127508500Y-94808134D01*
X127508500Y-86360000D01*
X132436540Y-86360000D01*
X132456359Y-86675020D01*
X132515505Y-86985072D01*
X132613044Y-87285266D01*
X132614731Y-87288852D01*
X132614733Y-87288856D01*
X132745750Y-87567283D01*
X132745754Y-87567290D01*
X132747438Y-87570869D01*
X132916568Y-87837375D01*
X133117767Y-88080582D01*
X133347860Y-88296654D01*
X133603221Y-88482184D01*
X133879821Y-88634247D01*
X133883490Y-88635700D01*
X133883495Y-88635702D01*
X134169628Y-88748990D01*
X134173298Y-88750443D01*
X134479025Y-88828940D01*
X134792179Y-88868500D01*
X135107821Y-88868500D01*
X135420975Y-88828940D01*
X135726702Y-88750443D01*
X135730372Y-88748990D01*
X136016505Y-88635702D01*
X136016510Y-88635700D01*
X136020179Y-88634247D01*
X136296779Y-88482184D01*
X136552140Y-88296654D01*
X136782233Y-88080582D01*
X136983432Y-87837375D01*
X137152562Y-87570869D01*
X137154246Y-87567290D01*
X137154250Y-87567283D01*
X137285267Y-87288856D01*
X137285269Y-87288852D01*
X137286956Y-87285266D01*
X137384495Y-86985072D01*
X137443641Y-86675020D01*
X137463460Y-86360000D01*
X141936540Y-86360000D01*
X141956359Y-86675020D01*
X142015505Y-86985072D01*
X142113044Y-87285266D01*
X142114731Y-87288852D01*
X142114733Y-87288856D01*
X142245750Y-87567283D01*
X142245754Y-87567290D01*
X142247438Y-87570869D01*
X142416568Y-87837375D01*
X142617767Y-88080582D01*
X142847860Y-88296654D01*
X143103221Y-88482184D01*
X143379821Y-88634247D01*
X143383490Y-88635700D01*
X143383495Y-88635702D01*
X143669628Y-88748990D01*
X143673298Y-88750443D01*
X143979025Y-88828940D01*
X144292179Y-88868500D01*
X144607821Y-88868500D01*
X144920975Y-88828940D01*
X145226702Y-88750443D01*
X145230372Y-88748990D01*
X145516505Y-88635702D01*
X145516510Y-88635700D01*
X145520179Y-88634247D01*
X145796779Y-88482184D01*
X146052140Y-88296654D01*
X146282233Y-88080582D01*
X146483432Y-87837375D01*
X146652562Y-87570869D01*
X146654246Y-87567290D01*
X146654250Y-87567283D01*
X146785267Y-87288856D01*
X146785269Y-87288852D01*
X146786956Y-87285266D01*
X146884495Y-86985072D01*
X146943641Y-86675020D01*
X146963460Y-86360000D01*
X146943641Y-86044980D01*
X146884495Y-85734928D01*
X146786956Y-85434734D01*
X146785267Y-85431144D01*
X146654250Y-85152717D01*
X146654246Y-85152710D01*
X146652562Y-85149131D01*
X146483432Y-84882625D01*
X146282233Y-84639418D01*
X146052140Y-84423346D01*
X145796779Y-84237816D01*
X145520179Y-84085753D01*
X145516510Y-84084300D01*
X145516505Y-84084298D01*
X145230372Y-83971010D01*
X145230371Y-83971010D01*
X145226702Y-83969557D01*
X144920975Y-83891060D01*
X144607821Y-83851500D01*
X144292179Y-83851500D01*
X143979025Y-83891060D01*
X143673298Y-83969557D01*
X143669629Y-83971010D01*
X143669628Y-83971010D01*
X143383495Y-84084298D01*
X143383490Y-84084300D01*
X143379821Y-84085753D01*
X143103221Y-84237816D01*
X142847860Y-84423346D01*
X142617767Y-84639418D01*
X142416568Y-84882625D01*
X142247438Y-85149131D01*
X142245754Y-85152710D01*
X142245750Y-85152717D01*
X142114733Y-85431144D01*
X142113044Y-85434734D01*
X142015505Y-85734928D01*
X141956359Y-86044980D01*
X141936540Y-86360000D01*
X137463460Y-86360000D01*
X137443641Y-86044980D01*
X137384495Y-85734928D01*
X137286956Y-85434734D01*
X137285267Y-85431144D01*
X137154250Y-85152717D01*
X137154246Y-85152710D01*
X137152562Y-85149131D01*
X136983432Y-84882625D01*
X136782233Y-84639418D01*
X136552140Y-84423346D01*
X136296779Y-84237816D01*
X136020179Y-84085753D01*
X136016510Y-84084300D01*
X136016505Y-84084298D01*
X135730372Y-83971010D01*
X135730371Y-83971010D01*
X135726702Y-83969557D01*
X135420975Y-83891060D01*
X135107821Y-83851500D01*
X134792179Y-83851500D01*
X134479025Y-83891060D01*
X134173298Y-83969557D01*
X134169629Y-83971010D01*
X134169628Y-83971010D01*
X133883495Y-84084298D01*
X133883490Y-84084300D01*
X133879821Y-84085753D01*
X133603221Y-84237816D01*
X133347860Y-84423346D01*
X133117767Y-84639418D01*
X132916568Y-84882625D01*
X132747438Y-85149131D01*
X132745754Y-85152710D01*
X132745750Y-85152717D01*
X132614733Y-85431144D01*
X132613044Y-85434734D01*
X132515505Y-85734928D01*
X132456359Y-86044980D01*
X132436540Y-86360000D01*
X127508500Y-86360000D01*
X127508500Y-77098134D01*
X132016500Y-77098134D01*
X132023255Y-77160316D01*
X132074385Y-77296705D01*
X132161739Y-77413261D01*
X132278295Y-77500615D01*
X132414684Y-77551745D01*
X132476866Y-77558500D01*
X134273134Y-77558500D01*
X134335316Y-77551745D01*
X134471705Y-77500615D01*
X134588261Y-77413261D01*
X134675615Y-77296705D01*
X134697799Y-77237529D01*
X134719598Y-77179382D01*
X134762240Y-77122618D01*
X134828802Y-77097918D01*
X134898150Y-77113126D01*
X134932817Y-77141114D01*
X134961250Y-77173938D01*
X135133126Y-77316632D01*
X135326000Y-77429338D01*
X135534692Y-77509030D01*
X135539760Y-77510061D01*
X135539763Y-77510062D01*
X135647017Y-77531883D01*
X135753597Y-77553567D01*
X135758772Y-77553757D01*
X135758774Y-77553757D01*
X135971673Y-77561564D01*
X135971677Y-77561564D01*
X135976837Y-77561753D01*
X135981957Y-77561097D01*
X135981959Y-77561097D01*
X136193288Y-77534025D01*
X136193289Y-77534025D01*
X136198416Y-77533368D01*
X136203366Y-77531883D01*
X136407429Y-77470661D01*
X136407434Y-77470659D01*
X136412384Y-77469174D01*
X136612994Y-77370896D01*
X136794860Y-77241173D01*
X136953096Y-77083489D01*
X137083453Y-76902077D01*
X137084776Y-76903028D01*
X137131645Y-76859857D01*
X137201580Y-76847625D01*
X137267026Y-76875144D01*
X137294875Y-76906994D01*
X137354987Y-77005088D01*
X137501250Y-77173938D01*
X137673126Y-77316632D01*
X137866000Y-77429338D01*
X138074692Y-77509030D01*
X138079760Y-77510061D01*
X138079763Y-77510062D01*
X138187017Y-77531883D01*
X138293597Y-77553567D01*
X138298772Y-77553757D01*
X138298774Y-77553757D01*
X138511673Y-77561564D01*
X138511677Y-77561564D01*
X138516837Y-77561753D01*
X138521957Y-77561097D01*
X138521959Y-77561097D01*
X138733288Y-77534025D01*
X138733289Y-77534025D01*
X138738416Y-77533368D01*
X138743366Y-77531883D01*
X138947429Y-77470661D01*
X138947434Y-77470659D01*
X138952384Y-77469174D01*
X139152994Y-77370896D01*
X139334860Y-77241173D01*
X139493096Y-77083489D01*
X139623453Y-76902077D01*
X139624776Y-76903028D01*
X139671645Y-76859857D01*
X139741580Y-76847625D01*
X139807026Y-76875144D01*
X139834875Y-76906994D01*
X139894987Y-77005088D01*
X140041250Y-77173938D01*
X140213126Y-77316632D01*
X140406000Y-77429338D01*
X140614692Y-77509030D01*
X140619760Y-77510061D01*
X140619763Y-77510062D01*
X140727017Y-77531883D01*
X140833597Y-77553567D01*
X140838772Y-77553757D01*
X140838774Y-77553757D01*
X141051673Y-77561564D01*
X141051677Y-77561564D01*
X141056837Y-77561753D01*
X141061957Y-77561097D01*
X141061959Y-77561097D01*
X141273288Y-77534025D01*
X141273289Y-77534025D01*
X141278416Y-77533368D01*
X141283366Y-77531883D01*
X141487429Y-77470661D01*
X141487434Y-77470659D01*
X141492384Y-77469174D01*
X141692994Y-77370896D01*
X141874860Y-77241173D01*
X142033096Y-77083489D01*
X142163453Y-76902077D01*
X142164776Y-76903028D01*
X142211645Y-76859857D01*
X142281580Y-76847625D01*
X142347026Y-76875144D01*
X142374875Y-76906994D01*
X142434987Y-77005088D01*
X142581250Y-77173938D01*
X142753126Y-77316632D01*
X142946000Y-77429338D01*
X143154692Y-77509030D01*
X143159760Y-77510061D01*
X143159763Y-77510062D01*
X143267017Y-77531883D01*
X143373597Y-77553567D01*
X143378772Y-77553757D01*
X143378774Y-77553757D01*
X143591673Y-77561564D01*
X143591677Y-77561564D01*
X143596837Y-77561753D01*
X143601957Y-77561097D01*
X143601959Y-77561097D01*
X143813288Y-77534025D01*
X143813289Y-77534025D01*
X143818416Y-77533368D01*
X143823366Y-77531883D01*
X144027429Y-77470661D01*
X144027434Y-77470659D01*
X144032384Y-77469174D01*
X144232994Y-77370896D01*
X144414860Y-77241173D01*
X144573096Y-77083489D01*
X144703453Y-76902077D01*
X144704776Y-76903028D01*
X144751645Y-76859857D01*
X144821580Y-76847625D01*
X144887026Y-76875144D01*
X144914875Y-76906994D01*
X144974987Y-77005088D01*
X145121250Y-77173938D01*
X145293126Y-77316632D01*
X145486000Y-77429338D01*
X145694692Y-77509030D01*
X145699760Y-77510061D01*
X145699763Y-77510062D01*
X145807017Y-77531883D01*
X145913597Y-77553567D01*
X145918772Y-77553757D01*
X145918774Y-77553757D01*
X146131673Y-77561564D01*
X146131677Y-77561564D01*
X146136837Y-77561753D01*
X146141957Y-77561097D01*
X146141959Y-77561097D01*
X146353288Y-77534025D01*
X146353289Y-77534025D01*
X146358416Y-77533368D01*
X146363366Y-77531883D01*
X146567429Y-77470661D01*
X146567434Y-77470659D01*
X146572384Y-77469174D01*
X146772994Y-77370896D01*
X146954860Y-77241173D01*
X147113096Y-77083489D01*
X147243453Y-76902077D01*
X147264320Y-76859857D01*
X147340136Y-76706453D01*
X147340137Y-76706451D01*
X147342430Y-76701811D01*
X147407370Y-76488069D01*
X147436529Y-76266590D01*
X147438156Y-76200000D01*
X147419852Y-75977361D01*
X147365431Y-75760702D01*
X147276354Y-75555840D01*
X147155014Y-75368277D01*
X147004670Y-75203051D01*
X147000619Y-75199852D01*
X147000615Y-75199848D01*
X146833414Y-75067800D01*
X146833410Y-75067798D01*
X146829359Y-75064598D01*
X146633789Y-74956638D01*
X146628920Y-74954914D01*
X146628916Y-74954912D01*
X146428087Y-74883795D01*
X146428083Y-74883794D01*
X146423212Y-74882069D01*
X146418119Y-74881162D01*
X146418116Y-74881161D01*
X146208373Y-74843800D01*
X146208367Y-74843799D01*
X146203284Y-74842894D01*
X146129452Y-74841992D01*
X145985081Y-74840228D01*
X145985079Y-74840228D01*
X145979911Y-74840165D01*
X145759091Y-74873955D01*
X145546756Y-74943357D01*
X145348607Y-75046507D01*
X145344474Y-75049610D01*
X145344471Y-75049612D01*
X145174100Y-75177530D01*
X145169965Y-75180635D01*
X145166393Y-75184373D01*
X145058729Y-75297037D01*
X145015629Y-75342138D01*
X144908201Y-75499621D01*
X144853293Y-75544621D01*
X144782768Y-75552792D01*
X144719021Y-75521538D01*
X144698324Y-75497054D01*
X144617822Y-75372617D01*
X144617820Y-75372614D01*
X144615014Y-75368277D01*
X144464670Y-75203051D01*
X144460619Y-75199852D01*
X144460615Y-75199848D01*
X144293414Y-75067800D01*
X144293410Y-75067798D01*
X144289359Y-75064598D01*
X144093789Y-74956638D01*
X144088920Y-74954914D01*
X144088916Y-74954912D01*
X143888087Y-74883795D01*
X143888083Y-74883794D01*
X143883212Y-74882069D01*
X143878119Y-74881162D01*
X143878116Y-74881161D01*
X143668373Y-74843800D01*
X143668367Y-74843799D01*
X143663284Y-74842894D01*
X143589452Y-74841992D01*
X143445081Y-74840228D01*
X143445079Y-74840228D01*
X143439911Y-74840165D01*
X143219091Y-74873955D01*
X143006756Y-74943357D01*
X142808607Y-75046507D01*
X142804474Y-75049610D01*
X142804471Y-75049612D01*
X142634100Y-75177530D01*
X142629965Y-75180635D01*
X142626393Y-75184373D01*
X142518729Y-75297037D01*
X142475629Y-75342138D01*
X142368201Y-75499621D01*
X142313293Y-75544621D01*
X142242768Y-75552792D01*
X142179021Y-75521538D01*
X142158324Y-75497054D01*
X142077822Y-75372617D01*
X142077820Y-75372614D01*
X142075014Y-75368277D01*
X141924670Y-75203051D01*
X141920619Y-75199852D01*
X141920615Y-75199848D01*
X141753414Y-75067800D01*
X141753410Y-75067798D01*
X141749359Y-75064598D01*
X141553789Y-74956638D01*
X141548920Y-74954914D01*
X141548916Y-74954912D01*
X141348087Y-74883795D01*
X141348083Y-74883794D01*
X141343212Y-74882069D01*
X141338119Y-74881162D01*
X141338116Y-74881161D01*
X141128373Y-74843800D01*
X141128367Y-74843799D01*
X141123284Y-74842894D01*
X141049452Y-74841992D01*
X140905081Y-74840228D01*
X140905079Y-74840228D01*
X140899911Y-74840165D01*
X140679091Y-74873955D01*
X140466756Y-74943357D01*
X140268607Y-75046507D01*
X140264474Y-75049610D01*
X140264471Y-75049612D01*
X140094100Y-75177530D01*
X140089965Y-75180635D01*
X140086393Y-75184373D01*
X139978729Y-75297037D01*
X139935629Y-75342138D01*
X139828201Y-75499621D01*
X139773293Y-75544621D01*
X139702768Y-75552792D01*
X139639021Y-75521538D01*
X139618324Y-75497054D01*
X139537822Y-75372617D01*
X139537820Y-75372614D01*
X139535014Y-75368277D01*
X139384670Y-75203051D01*
X139380619Y-75199852D01*
X139380615Y-75199848D01*
X139213414Y-75067800D01*
X139213410Y-75067798D01*
X139209359Y-75064598D01*
X139013789Y-74956638D01*
X139008920Y-74954914D01*
X139008916Y-74954912D01*
X138808087Y-74883795D01*
X138808083Y-74883794D01*
X138803212Y-74882069D01*
X138798119Y-74881162D01*
X138798116Y-74881161D01*
X138588373Y-74843800D01*
X138588367Y-74843799D01*
X138583284Y-74842894D01*
X138509452Y-74841992D01*
X138365081Y-74840228D01*
X138365079Y-74840228D01*
X138359911Y-74840165D01*
X138139091Y-74873955D01*
X137926756Y-74943357D01*
X137728607Y-75046507D01*
X137724474Y-75049610D01*
X137724471Y-75049612D01*
X137554100Y-75177530D01*
X137549965Y-75180635D01*
X137546393Y-75184373D01*
X137438729Y-75297037D01*
X137395629Y-75342138D01*
X137288201Y-75499621D01*
X137233293Y-75544621D01*
X137162768Y-75552792D01*
X137099021Y-75521538D01*
X137078324Y-75497054D01*
X136997822Y-75372617D01*
X136997820Y-75372614D01*
X136995014Y-75368277D01*
X136844670Y-75203051D01*
X136840619Y-75199852D01*
X136840615Y-75199848D01*
X136673414Y-75067800D01*
X136673410Y-75067798D01*
X136669359Y-75064598D01*
X136473789Y-74956638D01*
X136468920Y-74954914D01*
X136468916Y-74954912D01*
X136268087Y-74883795D01*
X136268083Y-74883794D01*
X136263212Y-74882069D01*
X136258119Y-74881162D01*
X136258116Y-74881161D01*
X136048373Y-74843800D01*
X136048367Y-74843799D01*
X136043284Y-74842894D01*
X135969452Y-74841992D01*
X135825081Y-74840228D01*
X135825079Y-74840228D01*
X135819911Y-74840165D01*
X135599091Y-74873955D01*
X135386756Y-74943357D01*
X135188607Y-75046507D01*
X135184474Y-75049610D01*
X135184471Y-75049612D01*
X135014100Y-75177530D01*
X135009965Y-75180635D01*
X134953537Y-75239684D01*
X134929283Y-75265064D01*
X134867759Y-75300494D01*
X134796846Y-75297037D01*
X134739060Y-75255791D01*
X134720207Y-75222243D01*
X134678767Y-75111703D01*
X134675615Y-75103295D01*
X134588261Y-74986739D01*
X134471705Y-74899385D01*
X134335316Y-74848255D01*
X134273134Y-74841500D01*
X132476866Y-74841500D01*
X132414684Y-74848255D01*
X132278295Y-74899385D01*
X132161739Y-74986739D01*
X132074385Y-75103295D01*
X132023255Y-75239684D01*
X132016500Y-75301866D01*
X132016500Y-77098134D01*
X127508500Y-77098134D01*
X127508500Y-71948134D01*
X135791500Y-71948134D01*
X135798255Y-72010316D01*
X135849385Y-72146705D01*
X135936739Y-72263261D01*
X136053295Y-72350615D01*
X136189684Y-72401745D01*
X136251866Y-72408500D01*
X138148134Y-72408500D01*
X138210316Y-72401745D01*
X138346705Y-72350615D01*
X138463261Y-72263261D01*
X138550615Y-72146705D01*
X138565686Y-72106504D01*
X138608328Y-72049739D01*
X138674890Y-72025040D01*
X138744239Y-72040248D01*
X138764150Y-72053788D01*
X138889349Y-72157730D01*
X139089322Y-72274584D01*
X139305694Y-72357209D01*
X139310760Y-72358240D01*
X139310761Y-72358240D01*
X139363846Y-72369040D01*
X139532656Y-72403385D01*
X139662089Y-72408131D01*
X139758949Y-72411683D01*
X139758953Y-72411683D01*
X139764113Y-72411872D01*
X139769233Y-72411216D01*
X139769235Y-72411216D01*
X139843166Y-72401745D01*
X139993847Y-72382442D01*
X139998795Y-72380957D01*
X139998802Y-72380956D01*
X140210747Y-72317369D01*
X140215690Y-72315886D01*
X140296236Y-72276427D01*
X140419049Y-72216262D01*
X140419052Y-72216260D01*
X140423684Y-72213991D01*
X140612243Y-72079494D01*
X140776303Y-71916005D01*
X140845370Y-71819888D01*
X140901365Y-71776240D01*
X140972068Y-71769794D01*
X141035033Y-71802597D01*
X141055128Y-71827584D01*
X141056799Y-71830311D01*
X141056804Y-71830317D01*
X141059501Y-71834719D01*
X141211147Y-72009784D01*
X141389349Y-72157730D01*
X141589322Y-72274584D01*
X141805694Y-72357209D01*
X141810760Y-72358240D01*
X141810761Y-72358240D01*
X141863846Y-72369040D01*
X142032656Y-72403385D01*
X142162089Y-72408131D01*
X142258949Y-72411683D01*
X142258953Y-72411683D01*
X142264113Y-72411872D01*
X142269233Y-72411216D01*
X142269235Y-72411216D01*
X142343166Y-72401745D01*
X142493847Y-72382442D01*
X142498795Y-72380957D01*
X142498802Y-72380956D01*
X142710747Y-72317369D01*
X142715690Y-72315886D01*
X142796236Y-72276427D01*
X142919049Y-72216262D01*
X142919052Y-72216260D01*
X142923684Y-72213991D01*
X143112243Y-72079494D01*
X143276303Y-71916005D01*
X143351777Y-71810973D01*
X143407770Y-71767326D01*
X143454098Y-71758500D01*
X144335025Y-71758500D01*
X144403146Y-71778502D01*
X144424120Y-71795405D01*
X147794595Y-75165880D01*
X147828621Y-75228192D01*
X147831500Y-75254975D01*
X147831500Y-107583629D01*
X147811498Y-107651750D01*
X147794595Y-107672724D01*
X143232724Y-112234595D01*
X143170412Y-112268621D01*
X143143629Y-112271500D01*
X142829063Y-112271500D01*
X142760942Y-112251498D01*
X142714449Y-112197842D01*
X142703478Y-112155715D01*
X142697413Y-112081151D01*
X142696978Y-112075800D01*
X142641110Y-111858206D01*
X142547591Y-111653945D01*
X142419380Y-111469473D01*
X142260527Y-111310620D01*
X142076055Y-111182409D01*
X141871794Y-111088890D01*
X141654200Y-111033022D01*
X141600295Y-111028638D01*
X141515092Y-111021707D01*
X141515082Y-111021707D01*
X141512542Y-111021500D01*
X137887458Y-111021500D01*
X137884918Y-111021707D01*
X137884908Y-111021707D01*
X137799705Y-111028638D01*
X137745800Y-111033022D01*
X137528206Y-111088890D01*
X137323945Y-111182409D01*
X137139473Y-111310620D01*
X136980620Y-111469473D01*
X136852409Y-111653945D01*
X136758890Y-111858206D01*
X136703022Y-112075800D01*
X136702587Y-112081151D01*
X136693096Y-112197842D01*
X136691500Y-112217458D01*
X136691500Y-113842542D01*
X136703022Y-113984200D01*
X136758890Y-114201794D01*
X136852409Y-114406055D01*
X136980620Y-114590527D01*
X137139473Y-114749380D01*
X137323945Y-114877591D01*
X137528206Y-114971110D01*
X137745800Y-115026978D01*
X137799705Y-115031362D01*
X137884908Y-115038293D01*
X137884918Y-115038293D01*
X137887458Y-115038500D01*
X141512542Y-115038500D01*
X141515082Y-115038293D01*
X141515092Y-115038293D01*
X141600295Y-115031362D01*
X141654200Y-115026978D01*
X141871794Y-114971110D01*
X142076055Y-114877591D01*
X142260527Y-114749380D01*
X142419380Y-114590527D01*
X142547591Y-114406055D01*
X142641110Y-114201794D01*
X142696978Y-113984200D01*
X142703478Y-113904285D01*
X142728936Y-113838010D01*
X142786185Y-113796020D01*
X142829063Y-113788500D01*
X143442930Y-113788500D01*
X143461880Y-113789933D01*
X143476115Y-113792099D01*
X143476119Y-113792099D01*
X143483349Y-113793199D01*
X143490641Y-113792606D01*
X143490644Y-113792606D01*
X143536018Y-113788915D01*
X143546233Y-113788500D01*
X143554293Y-113788500D01*
X143567583Y-113786951D01*
X143582507Y-113785211D01*
X143586882Y-113784778D01*
X143652339Y-113779454D01*
X143652342Y-113779453D01*
X143659637Y-113778860D01*
X143666601Y-113776604D01*
X143672560Y-113775413D01*
X143678415Y-113774029D01*
X143685681Y-113773182D01*
X143754327Y-113748265D01*
X143758455Y-113746848D01*
X143820936Y-113726607D01*
X143820938Y-113726606D01*
X143827899Y-113724351D01*
X143834154Y-113720555D01*
X143839628Y-113718049D01*
X143845058Y-113715330D01*
X143851937Y-113712833D01*
X143884846Y-113691257D01*
X143912976Y-113672814D01*
X143916680Y-113670477D01*
X143979107Y-113632595D01*
X143987484Y-113625197D01*
X143987508Y-113625224D01*
X143990500Y-113622571D01*
X143993733Y-113619868D01*
X143999852Y-113615856D01*
X144053128Y-113559617D01*
X144055506Y-113557175D01*
X149078911Y-108533770D01*
X149093323Y-108521384D01*
X149104918Y-108512851D01*
X149104923Y-108512846D01*
X149110818Y-108508508D01*
X149115557Y-108502930D01*
X149115560Y-108502927D01*
X149145035Y-108468232D01*
X149151965Y-108460716D01*
X149157660Y-108455021D01*
X149175281Y-108432749D01*
X149178072Y-108429345D01*
X149220591Y-108379297D01*
X149220592Y-108379295D01*
X149225333Y-108373715D01*
X149228661Y-108367199D01*
X149232028Y-108362150D01*
X149235195Y-108357021D01*
X149239734Y-108351284D01*
X149270655Y-108285125D01*
X149272561Y-108281225D01*
X149305769Y-108216192D01*
X149307508Y-108209084D01*
X149309607Y-108203441D01*
X149311524Y-108197678D01*
X149314622Y-108191050D01*
X149329487Y-108119583D01*
X149330457Y-108115299D01*
X149346473Y-108049845D01*
X149347808Y-108044390D01*
X149348500Y-108033236D01*
X149348536Y-108033238D01*
X149348775Y-108029245D01*
X149349149Y-108025053D01*
X149350640Y-108017885D01*
X149348546Y-107940479D01*
X149348500Y-107937072D01*
X149348500Y-74955674D01*
X149349933Y-74936724D01*
X149352099Y-74922489D01*
X149352099Y-74922485D01*
X149353199Y-74915255D01*
X149352347Y-74904771D01*
X149348915Y-74862586D01*
X149348500Y-74852371D01*
X149348500Y-74844311D01*
X149345209Y-74816084D01*
X149344778Y-74811725D01*
X149339454Y-74746266D01*
X149339453Y-74746263D01*
X149338860Y-74738968D01*
X149336604Y-74732004D01*
X149335417Y-74726065D01*
X149334030Y-74720194D01*
X149333182Y-74712923D01*
X149330686Y-74706047D01*
X149330684Y-74706038D01*
X149308275Y-74644306D01*
X149306865Y-74640202D01*
X149284352Y-74570705D01*
X149280556Y-74564450D01*
X149278057Y-74558991D01*
X149275329Y-74553543D01*
X149272833Y-74546667D01*
X149232805Y-74485614D01*
X149230481Y-74481931D01*
X149195500Y-74424284D01*
X149195499Y-74424283D01*
X149192595Y-74419497D01*
X149185198Y-74411121D01*
X149185225Y-74411097D01*
X149182570Y-74408103D01*
X149179868Y-74404872D01*
X149175856Y-74398752D01*
X149119617Y-74345476D01*
X149117175Y-74343098D01*
X145285166Y-70511089D01*
X145272780Y-70496677D01*
X145264247Y-70485082D01*
X145264242Y-70485077D01*
X145259904Y-70479182D01*
X145254326Y-70474443D01*
X145254323Y-70474440D01*
X145219628Y-70444965D01*
X145212112Y-70438035D01*
X145206417Y-70432340D01*
X145200276Y-70427482D01*
X145184145Y-70414719D01*
X145180741Y-70411928D01*
X145130693Y-70369409D01*
X145130691Y-70369408D01*
X145125111Y-70364667D01*
X145118595Y-70361339D01*
X145113546Y-70357972D01*
X145108417Y-70354805D01*
X145102680Y-70350266D01*
X145036521Y-70319345D01*
X145032621Y-70317439D01*
X144967588Y-70284231D01*
X144960480Y-70282492D01*
X144954837Y-70280393D01*
X144949074Y-70278476D01*
X144942446Y-70275378D01*
X144870979Y-70260513D01*
X144866695Y-70259543D01*
X144795786Y-70242192D01*
X144790184Y-70241844D01*
X144790181Y-70241844D01*
X144784632Y-70241500D01*
X144784634Y-70241464D01*
X144780641Y-70241225D01*
X144776449Y-70240851D01*
X144769281Y-70239360D01*
X144703071Y-70241151D01*
X144691875Y-70241454D01*
X144688468Y-70241500D01*
X143455493Y-70241500D01*
X143387372Y-70221498D01*
X143349701Y-70183941D01*
X143322571Y-70142004D01*
X143319764Y-70137665D01*
X143163887Y-69966358D01*
X143159836Y-69963159D01*
X143159832Y-69963155D01*
X142986177Y-69826011D01*
X142986172Y-69826008D01*
X142982123Y-69822810D01*
X142977607Y-69820317D01*
X142977604Y-69820315D01*
X142783879Y-69713373D01*
X142783875Y-69713371D01*
X142779355Y-69710876D01*
X142774486Y-69709152D01*
X142774482Y-69709150D01*
X142565903Y-69635288D01*
X142565899Y-69635287D01*
X142561028Y-69633562D01*
X142555935Y-69632655D01*
X142555932Y-69632654D01*
X142338095Y-69593851D01*
X142338089Y-69593850D01*
X142333006Y-69592945D01*
X142260096Y-69592054D01*
X142106581Y-69590179D01*
X142106579Y-69590179D01*
X142101411Y-69590116D01*
X141872464Y-69625150D01*
X141652314Y-69697106D01*
X141647726Y-69699494D01*
X141647722Y-69699496D01*
X141451461Y-69801663D01*
X141446872Y-69804052D01*
X141442739Y-69807155D01*
X141442736Y-69807157D01*
X141299074Y-69915022D01*
X141261655Y-69943117D01*
X141101639Y-70110564D01*
X141054836Y-70179174D01*
X140999927Y-70224175D01*
X140929402Y-70232346D01*
X140865655Y-70201092D01*
X140844959Y-70176609D01*
X140822577Y-70142013D01*
X140822576Y-70142012D01*
X140819764Y-70137665D01*
X140663887Y-69966358D01*
X140659836Y-69963159D01*
X140659832Y-69963155D01*
X140486177Y-69826011D01*
X140486172Y-69826008D01*
X140482123Y-69822810D01*
X140477607Y-69820317D01*
X140477604Y-69820315D01*
X140283879Y-69713373D01*
X140283875Y-69713371D01*
X140279355Y-69710876D01*
X140274486Y-69709152D01*
X140274482Y-69709150D01*
X140065903Y-69635288D01*
X140065899Y-69635287D01*
X140061028Y-69633562D01*
X140055935Y-69632655D01*
X140055932Y-69632654D01*
X139838095Y-69593851D01*
X139838089Y-69593850D01*
X139833006Y-69592945D01*
X139760096Y-69592054D01*
X139606581Y-69590179D01*
X139606579Y-69590179D01*
X139601411Y-69590116D01*
X139372464Y-69625150D01*
X139152314Y-69697106D01*
X139147726Y-69699494D01*
X139147722Y-69699496D01*
X138951461Y-69801663D01*
X138946872Y-69804052D01*
X138942739Y-69807155D01*
X138942736Y-69807157D01*
X138761655Y-69943117D01*
X138760976Y-69942213D01*
X138701730Y-69970131D01*
X138631341Y-69960869D01*
X138577132Y-69915022D01*
X138564325Y-69889866D01*
X138553768Y-69861705D01*
X138553767Y-69861703D01*
X138550615Y-69853295D01*
X138463261Y-69736739D01*
X138346705Y-69649385D01*
X138210316Y-69598255D01*
X138148134Y-69591500D01*
X136251866Y-69591500D01*
X136189684Y-69598255D01*
X136053295Y-69649385D01*
X135936739Y-69736739D01*
X135849385Y-69853295D01*
X135798255Y-69989684D01*
X135791500Y-70051866D01*
X135791500Y-71948134D01*
X127508500Y-71948134D01*
X127508500Y-63500000D01*
X132436540Y-63500000D01*
X132456359Y-63815020D01*
X132515505Y-64125072D01*
X132613044Y-64425266D01*
X132614731Y-64428852D01*
X132614733Y-64428856D01*
X132745750Y-64707283D01*
X132745754Y-64707290D01*
X132747438Y-64710869D01*
X132916568Y-64977375D01*
X133117767Y-65220582D01*
X133347860Y-65436654D01*
X133603221Y-65622184D01*
X133879821Y-65774247D01*
X133883490Y-65775700D01*
X133883495Y-65775702D01*
X134169628Y-65888990D01*
X134173298Y-65890443D01*
X134479025Y-65968940D01*
X134792179Y-66008500D01*
X135107821Y-66008500D01*
X135420975Y-65968940D01*
X135726702Y-65890443D01*
X135730372Y-65888990D01*
X136016505Y-65775702D01*
X136016510Y-65775700D01*
X136020179Y-65774247D01*
X136296779Y-65622184D01*
X136552140Y-65436654D01*
X136782233Y-65220582D01*
X136983432Y-64977375D01*
X137152562Y-64710869D01*
X137154246Y-64707290D01*
X137154250Y-64707283D01*
X137285267Y-64428856D01*
X137285269Y-64428852D01*
X137286956Y-64425266D01*
X137384495Y-64125072D01*
X137443641Y-63815020D01*
X137463460Y-63500000D01*
X141936540Y-63500000D01*
X141956359Y-63815020D01*
X142015505Y-64125072D01*
X142113044Y-64425266D01*
X142114731Y-64428852D01*
X142114733Y-64428856D01*
X142245750Y-64707283D01*
X142245754Y-64707290D01*
X142247438Y-64710869D01*
X142416568Y-64977375D01*
X142617767Y-65220582D01*
X142847860Y-65436654D01*
X143103221Y-65622184D01*
X143379821Y-65774247D01*
X143383490Y-65775700D01*
X143383495Y-65775702D01*
X143669628Y-65888990D01*
X143673298Y-65890443D01*
X143979025Y-65968940D01*
X144292179Y-66008500D01*
X144607821Y-66008500D01*
X144920975Y-65968940D01*
X145226702Y-65890443D01*
X145230372Y-65888990D01*
X145516505Y-65775702D01*
X145516510Y-65775700D01*
X145520179Y-65774247D01*
X145796779Y-65622184D01*
X146052140Y-65436654D01*
X146282233Y-65220582D01*
X146483432Y-64977375D01*
X146652562Y-64710869D01*
X146654246Y-64707290D01*
X146654250Y-64707283D01*
X146785267Y-64428856D01*
X146785269Y-64428852D01*
X146786956Y-64425266D01*
X146884495Y-64125072D01*
X146943641Y-63815020D01*
X146963460Y-63500000D01*
X146943641Y-63184980D01*
X146884495Y-62874928D01*
X146786956Y-62574734D01*
X146785267Y-62571144D01*
X146654250Y-62292717D01*
X146654246Y-62292710D01*
X146652562Y-62289131D01*
X146483432Y-62022625D01*
X146282233Y-61779418D01*
X146052140Y-61563346D01*
X145796779Y-61377816D01*
X145520179Y-61225753D01*
X145516510Y-61224300D01*
X145516505Y-61224298D01*
X145230372Y-61111010D01*
X145230371Y-61111010D01*
X145226702Y-61109557D01*
X144920975Y-61031060D01*
X144607821Y-60991500D01*
X144292179Y-60991500D01*
X143979025Y-61031060D01*
X143673298Y-61109557D01*
X143669629Y-61111010D01*
X143669628Y-61111010D01*
X143383495Y-61224298D01*
X143383490Y-61224300D01*
X143379821Y-61225753D01*
X143103221Y-61377816D01*
X142847860Y-61563346D01*
X142617767Y-61779418D01*
X142416568Y-62022625D01*
X142247438Y-62289131D01*
X142245754Y-62292710D01*
X142245750Y-62292717D01*
X142114733Y-62571144D01*
X142113044Y-62574734D01*
X142015505Y-62874928D01*
X141956359Y-63184980D01*
X141936540Y-63500000D01*
X137463460Y-63500000D01*
X137443641Y-63184980D01*
X137384495Y-62874928D01*
X137286956Y-62574734D01*
X137285267Y-62571144D01*
X137154250Y-62292717D01*
X137154246Y-62292710D01*
X137152562Y-62289131D01*
X136983432Y-62022625D01*
X136782233Y-61779418D01*
X136552140Y-61563346D01*
X136296779Y-61377816D01*
X136020179Y-61225753D01*
X136016510Y-61224300D01*
X136016505Y-61224298D01*
X135730372Y-61111010D01*
X135730371Y-61111010D01*
X135726702Y-61109557D01*
X135420975Y-61031060D01*
X135107821Y-60991500D01*
X134792179Y-60991500D01*
X134479025Y-61031060D01*
X134173298Y-61109557D01*
X134169629Y-61111010D01*
X134169628Y-61111010D01*
X133883495Y-61224298D01*
X133883490Y-61224300D01*
X133879821Y-61225753D01*
X133603221Y-61377816D01*
X133347860Y-61563346D01*
X133117767Y-61779418D01*
X132916568Y-62022625D01*
X132747438Y-62289131D01*
X132745754Y-62292710D01*
X132745750Y-62292717D01*
X132614733Y-62571144D01*
X132613044Y-62574734D01*
X132515505Y-62874928D01*
X132456359Y-63184980D01*
X132436540Y-63500000D01*
X127508500Y-63500000D01*
X127508500Y-48140000D01*
X129496502Y-48140000D01*
X129516457Y-48368087D01*
X129575716Y-48589243D01*
X129578039Y-48594224D01*
X129578039Y-48594225D01*
X129670151Y-48791762D01*
X129670154Y-48791767D01*
X129672477Y-48796749D01*
X129675634Y-48801257D01*
X129794007Y-48970311D01*
X129803802Y-48984300D01*
X129965700Y-49146198D01*
X129970208Y-49149355D01*
X129970211Y-49149357D01*
X129970821Y-49149784D01*
X130153251Y-49277523D01*
X130158233Y-49279846D01*
X130158238Y-49279849D01*
X130317238Y-49353991D01*
X130360757Y-49374284D01*
X130366065Y-49375706D01*
X130366067Y-49375707D01*
X130576598Y-49432119D01*
X130576600Y-49432119D01*
X130581913Y-49433543D01*
X130810000Y-49453498D01*
X131038087Y-49433543D01*
X131043400Y-49432119D01*
X131043402Y-49432119D01*
X131253933Y-49375707D01*
X131253935Y-49375706D01*
X131259243Y-49374284D01*
X131302762Y-49353991D01*
X131461762Y-49279849D01*
X131461767Y-49279846D01*
X131466749Y-49277523D01*
X131649179Y-49149784D01*
X131649789Y-49149357D01*
X131649792Y-49149355D01*
X131654300Y-49146198D01*
X131712364Y-49088134D01*
X135791500Y-49088134D01*
X135798255Y-49150316D01*
X135849385Y-49286705D01*
X135936739Y-49403261D01*
X136053295Y-49490615D01*
X136189684Y-49541745D01*
X136251866Y-49548500D01*
X138148134Y-49548500D01*
X138210316Y-49541745D01*
X138346705Y-49490615D01*
X138463261Y-49403261D01*
X138550615Y-49286705D01*
X138565686Y-49246504D01*
X138608328Y-49189739D01*
X138674890Y-49165040D01*
X138744239Y-49180248D01*
X138764150Y-49193788D01*
X138889349Y-49297730D01*
X139089322Y-49414584D01*
X139089893Y-49414802D01*
X139141697Y-49461383D01*
X139160446Y-49529860D01*
X139139197Y-49597602D01*
X139087717Y-49641742D01*
X139048238Y-49660151D01*
X139048233Y-49660154D01*
X139043251Y-49662477D01*
X138938389Y-49735902D01*
X138860211Y-49790643D01*
X138860208Y-49790645D01*
X138855700Y-49793802D01*
X138693802Y-49955700D01*
X138562477Y-50143251D01*
X138560154Y-50148233D01*
X138560151Y-50148238D01*
X138468039Y-50345775D01*
X138465716Y-50350757D01*
X138406457Y-50571913D01*
X138386502Y-50800000D01*
X138406457Y-51028087D01*
X138465716Y-51249243D01*
X138468039Y-51254224D01*
X138468039Y-51254225D01*
X138560151Y-51451762D01*
X138560154Y-51451767D01*
X138562477Y-51456749D01*
X138693802Y-51644300D01*
X138855700Y-51806198D01*
X138860208Y-51809355D01*
X138860211Y-51809357D01*
X138938389Y-51864098D01*
X139043251Y-51937523D01*
X139048233Y-51939846D01*
X139048238Y-51939849D01*
X139245775Y-52031961D01*
X139250757Y-52034284D01*
X139256065Y-52035706D01*
X139256067Y-52035707D01*
X139466598Y-52092119D01*
X139466600Y-52092119D01*
X139471913Y-52093543D01*
X139700000Y-52113498D01*
X139928087Y-52093543D01*
X139933400Y-52092119D01*
X139933402Y-52092119D01*
X140143933Y-52035707D01*
X140143935Y-52035706D01*
X140149243Y-52034284D01*
X140154225Y-52031961D01*
X140351762Y-51939849D01*
X140351767Y-51939846D01*
X140356749Y-51937523D01*
X140461611Y-51864098D01*
X140539789Y-51809357D01*
X140539792Y-51809355D01*
X140544300Y-51806198D01*
X140706198Y-51644300D01*
X140837523Y-51456749D01*
X140839846Y-51451767D01*
X140839849Y-51451762D01*
X140931961Y-51254225D01*
X140931961Y-51254224D01*
X140934284Y-51249243D01*
X140993543Y-51028087D01*
X141013498Y-50800000D01*
X148546502Y-50800000D01*
X148566457Y-51028087D01*
X148625716Y-51249243D01*
X148628039Y-51254224D01*
X148628039Y-51254225D01*
X148720151Y-51451762D01*
X148720154Y-51451767D01*
X148722477Y-51456749D01*
X148853802Y-51644300D01*
X149015700Y-51806198D01*
X149020208Y-51809355D01*
X149020211Y-51809357D01*
X149098389Y-51864098D01*
X149203251Y-51937523D01*
X149208233Y-51939846D01*
X149208238Y-51939849D01*
X149405775Y-52031961D01*
X149410757Y-52034284D01*
X149416065Y-52035706D01*
X149416067Y-52035707D01*
X149626598Y-52092119D01*
X149626600Y-52092119D01*
X149631913Y-52093543D01*
X149860000Y-52113498D01*
X150088087Y-52093543D01*
X150093400Y-52092119D01*
X150093402Y-52092119D01*
X150303933Y-52035707D01*
X150303935Y-52035706D01*
X150309243Y-52034284D01*
X150314225Y-52031961D01*
X150511762Y-51939849D01*
X150511767Y-51939846D01*
X150516749Y-51937523D01*
X150621611Y-51864098D01*
X150699789Y-51809357D01*
X150699792Y-51809355D01*
X150704300Y-51806198D01*
X150866198Y-51644300D01*
X150997523Y-51456749D01*
X150999846Y-51451767D01*
X150999849Y-51451762D01*
X151091961Y-51254225D01*
X151091961Y-51254224D01*
X151094284Y-51249243D01*
X151153543Y-51028087D01*
X151173498Y-50800000D01*
X151153543Y-50571913D01*
X151094284Y-50350757D01*
X151091961Y-50345775D01*
X150999849Y-50148238D01*
X150999846Y-50148233D01*
X150997523Y-50143251D01*
X150866198Y-49955700D01*
X150704300Y-49793802D01*
X150699792Y-49790645D01*
X150699789Y-49790643D01*
X150621611Y-49735902D01*
X150516749Y-49662477D01*
X150511767Y-49660154D01*
X150511762Y-49660151D01*
X150348872Y-49584195D01*
X150295587Y-49537278D01*
X150276126Y-49469001D01*
X150296668Y-49401041D01*
X150348872Y-49355805D01*
X150511762Y-49279849D01*
X150511767Y-49279846D01*
X150516749Y-49277523D01*
X150699179Y-49149784D01*
X150699789Y-49149357D01*
X150699792Y-49149355D01*
X150704300Y-49146198D01*
X150866198Y-48984300D01*
X150875994Y-48970311D01*
X150994366Y-48801257D01*
X150997523Y-48796749D01*
X150999846Y-48791767D01*
X150999849Y-48791762D01*
X151091961Y-48594225D01*
X151091961Y-48594224D01*
X151094284Y-48589243D01*
X151153543Y-48368087D01*
X151173498Y-48140000D01*
X151153543Y-47911913D01*
X151094284Y-47690757D01*
X151089173Y-47679797D01*
X150999849Y-47488238D01*
X150999846Y-47488233D01*
X150997523Y-47483251D01*
X150897982Y-47341092D01*
X150869357Y-47300211D01*
X150869355Y-47300208D01*
X150866198Y-47295700D01*
X150704300Y-47133802D01*
X150699792Y-47130645D01*
X150699789Y-47130643D01*
X150555864Y-47029866D01*
X150516749Y-47002477D01*
X150511767Y-47000154D01*
X150511762Y-47000151D01*
X150314225Y-46908039D01*
X150314224Y-46908039D01*
X150309243Y-46905716D01*
X150303935Y-46904294D01*
X150303933Y-46904293D01*
X150093402Y-46847881D01*
X150093400Y-46847881D01*
X150088087Y-46846457D01*
X149860000Y-46826502D01*
X149631913Y-46846457D01*
X149626600Y-46847881D01*
X149626598Y-46847881D01*
X149416067Y-46904293D01*
X149416065Y-46904294D01*
X149410757Y-46905716D01*
X149405776Y-46908039D01*
X149405775Y-46908039D01*
X149208238Y-47000151D01*
X149208233Y-47000154D01*
X149203251Y-47002477D01*
X149164136Y-47029866D01*
X149020211Y-47130643D01*
X149020208Y-47130645D01*
X149015700Y-47133802D01*
X148853802Y-47295700D01*
X148850645Y-47300208D01*
X148850643Y-47300211D01*
X148822018Y-47341092D01*
X148722477Y-47483251D01*
X148720154Y-47488233D01*
X148720151Y-47488238D01*
X148630827Y-47679797D01*
X148625716Y-47690757D01*
X148566457Y-47911913D01*
X148546502Y-48140000D01*
X148566457Y-48368087D01*
X148625716Y-48589243D01*
X148628039Y-48594224D01*
X148628039Y-48594225D01*
X148720151Y-48791762D01*
X148720154Y-48791767D01*
X148722477Y-48796749D01*
X148725634Y-48801257D01*
X148844007Y-48970311D01*
X148853802Y-48984300D01*
X149015700Y-49146198D01*
X149020208Y-49149355D01*
X149020211Y-49149357D01*
X149020821Y-49149784D01*
X149203251Y-49277523D01*
X149208233Y-49279846D01*
X149208238Y-49279849D01*
X149371128Y-49355805D01*
X149424413Y-49402722D01*
X149443874Y-49470999D01*
X149423332Y-49538959D01*
X149371128Y-49584195D01*
X149208238Y-49660151D01*
X149208233Y-49660154D01*
X149203251Y-49662477D01*
X149098389Y-49735902D01*
X149020211Y-49790643D01*
X149020208Y-49790645D01*
X149015700Y-49793802D01*
X148853802Y-49955700D01*
X148722477Y-50143251D01*
X148720154Y-50148233D01*
X148720151Y-50148238D01*
X148628039Y-50345775D01*
X148625716Y-50350757D01*
X148566457Y-50571913D01*
X148546502Y-50800000D01*
X141013498Y-50800000D01*
X140993543Y-50571913D01*
X140934284Y-50350757D01*
X140931961Y-50345775D01*
X140839849Y-50148238D01*
X140839846Y-50148233D01*
X140837523Y-50143251D01*
X140706198Y-49955700D01*
X140544300Y-49793802D01*
X140539792Y-49790645D01*
X140539789Y-49790643D01*
X140461611Y-49735902D01*
X140356749Y-49662477D01*
X140351761Y-49660151D01*
X140351758Y-49660149D01*
X140307305Y-49639421D01*
X140254020Y-49592505D01*
X140234558Y-49524228D01*
X140255099Y-49456268D01*
X140305122Y-49412075D01*
X140419039Y-49356268D01*
X140419053Y-49356260D01*
X140423684Y-49353991D01*
X140612243Y-49219494D01*
X140776303Y-49056005D01*
X140845370Y-48959888D01*
X140901365Y-48916240D01*
X140972068Y-48909794D01*
X141035033Y-48942597D01*
X141055128Y-48967584D01*
X141056799Y-48970311D01*
X141056804Y-48970317D01*
X141059501Y-48974719D01*
X141211147Y-49149784D01*
X141389349Y-49297730D01*
X141589322Y-49414584D01*
X141805694Y-49497209D01*
X141810760Y-49498240D01*
X141810761Y-49498240D01*
X141851149Y-49506457D01*
X142032656Y-49543385D01*
X142162089Y-49548131D01*
X142258949Y-49551683D01*
X142258953Y-49551683D01*
X142264113Y-49551872D01*
X142269233Y-49551216D01*
X142269235Y-49551216D01*
X142343166Y-49541745D01*
X142493847Y-49522442D01*
X142498795Y-49520957D01*
X142498802Y-49520956D01*
X142710747Y-49457369D01*
X142715690Y-49455886D01*
X142720565Y-49453498D01*
X142919049Y-49356262D01*
X142919052Y-49356260D01*
X142923684Y-49353991D01*
X143112243Y-49219494D01*
X143276303Y-49056005D01*
X143411458Y-48867917D01*
X143514078Y-48660280D01*
X143581408Y-48438671D01*
X143611640Y-48209041D01*
X143613327Y-48140000D01*
X143607032Y-48063434D01*
X143594773Y-47914318D01*
X143594772Y-47914312D01*
X143594349Y-47909167D01*
X143540822Y-47696067D01*
X143539184Y-47689544D01*
X143539183Y-47689540D01*
X143537925Y-47684533D01*
X143445570Y-47472131D01*
X143319764Y-47277665D01*
X143163887Y-47106358D01*
X143159836Y-47103159D01*
X143159832Y-47103155D01*
X142986177Y-46966011D01*
X142986172Y-46966008D01*
X142982123Y-46962810D01*
X142977607Y-46960317D01*
X142977604Y-46960315D01*
X142783879Y-46853373D01*
X142783875Y-46853371D01*
X142779355Y-46850876D01*
X142774486Y-46849152D01*
X142774482Y-46849150D01*
X142565903Y-46775288D01*
X142565899Y-46775287D01*
X142561028Y-46773562D01*
X142555935Y-46772655D01*
X142555932Y-46772654D01*
X142338095Y-46733851D01*
X142338089Y-46733850D01*
X142333006Y-46732945D01*
X142260096Y-46732054D01*
X142106581Y-46730179D01*
X142106579Y-46730179D01*
X142101411Y-46730116D01*
X141872464Y-46765150D01*
X141652314Y-46837106D01*
X141647726Y-46839494D01*
X141647722Y-46839496D01*
X141451461Y-46941663D01*
X141446872Y-46944052D01*
X141442739Y-46947155D01*
X141442736Y-46947157D01*
X141299074Y-47055022D01*
X141261655Y-47083117D01*
X141101639Y-47250564D01*
X141054836Y-47319174D01*
X140999927Y-47364175D01*
X140929402Y-47372346D01*
X140865655Y-47341092D01*
X140844959Y-47316609D01*
X140822577Y-47282013D01*
X140822574Y-47282009D01*
X140819764Y-47277665D01*
X140663887Y-47106358D01*
X140659836Y-47103159D01*
X140659832Y-47103155D01*
X140486177Y-46966011D01*
X140486172Y-46966008D01*
X140482123Y-46962810D01*
X140477607Y-46960317D01*
X140477604Y-46960315D01*
X140283879Y-46853373D01*
X140283875Y-46853371D01*
X140279355Y-46850876D01*
X140274486Y-46849152D01*
X140274482Y-46849150D01*
X140065903Y-46775288D01*
X140065899Y-46775287D01*
X140061028Y-46773562D01*
X140055935Y-46772655D01*
X140055932Y-46772654D01*
X139838095Y-46733851D01*
X139838089Y-46733850D01*
X139833006Y-46732945D01*
X139760096Y-46732054D01*
X139606581Y-46730179D01*
X139606579Y-46730179D01*
X139601411Y-46730116D01*
X139372464Y-46765150D01*
X139152314Y-46837106D01*
X139147726Y-46839494D01*
X139147722Y-46839496D01*
X138951461Y-46941663D01*
X138946872Y-46944052D01*
X138942739Y-46947155D01*
X138942736Y-46947157D01*
X138761655Y-47083117D01*
X138760976Y-47082213D01*
X138701730Y-47110131D01*
X138631341Y-47100869D01*
X138577132Y-47055022D01*
X138564325Y-47029866D01*
X138553768Y-47001705D01*
X138553767Y-47001703D01*
X138550615Y-46993295D01*
X138463261Y-46876739D01*
X138346705Y-46789385D01*
X138210316Y-46738255D01*
X138148134Y-46731500D01*
X136251866Y-46731500D01*
X136189684Y-46738255D01*
X136053295Y-46789385D01*
X135936739Y-46876739D01*
X135849385Y-46993295D01*
X135798255Y-47129684D01*
X135791500Y-47191866D01*
X135791500Y-49088134D01*
X131712364Y-49088134D01*
X131816198Y-48984300D01*
X131825994Y-48970311D01*
X131944366Y-48801257D01*
X131947523Y-48796749D01*
X131949846Y-48791767D01*
X131949849Y-48791762D01*
X132041961Y-48594225D01*
X132041961Y-48594224D01*
X132044284Y-48589243D01*
X132103543Y-48368087D01*
X132123498Y-48140000D01*
X132103543Y-47911913D01*
X132044284Y-47690757D01*
X132039173Y-47679797D01*
X131949849Y-47488238D01*
X131949846Y-47488233D01*
X131947523Y-47483251D01*
X131847982Y-47341092D01*
X131819357Y-47300211D01*
X131819355Y-47300208D01*
X131816198Y-47295700D01*
X131654300Y-47133802D01*
X131649792Y-47130645D01*
X131649789Y-47130643D01*
X131505864Y-47029866D01*
X131466749Y-47002477D01*
X131461767Y-47000154D01*
X131461762Y-47000151D01*
X131264225Y-46908039D01*
X131264224Y-46908039D01*
X131259243Y-46905716D01*
X131253935Y-46904294D01*
X131253933Y-46904293D01*
X131043402Y-46847881D01*
X131043400Y-46847881D01*
X131038087Y-46846457D01*
X130810000Y-46826502D01*
X130581913Y-46846457D01*
X130576600Y-46847881D01*
X130576598Y-46847881D01*
X130366067Y-46904293D01*
X130366065Y-46904294D01*
X130360757Y-46905716D01*
X130355776Y-46908039D01*
X130355775Y-46908039D01*
X130158238Y-47000151D01*
X130158233Y-47000154D01*
X130153251Y-47002477D01*
X130114136Y-47029866D01*
X129970211Y-47130643D01*
X129970208Y-47130645D01*
X129965700Y-47133802D01*
X129803802Y-47295700D01*
X129800645Y-47300208D01*
X129800643Y-47300211D01*
X129772018Y-47341092D01*
X129672477Y-47483251D01*
X129670154Y-47488233D01*
X129670151Y-47488238D01*
X129580827Y-47679797D01*
X129575716Y-47690757D01*
X129516457Y-47911913D01*
X129496502Y-48140000D01*
X127508500Y-48140000D01*
X127508500Y-40640000D01*
X132436540Y-40640000D01*
X132456359Y-40955020D01*
X132515505Y-41265072D01*
X132613044Y-41565266D01*
X132614731Y-41568852D01*
X132614733Y-41568856D01*
X132745750Y-41847283D01*
X132745754Y-41847290D01*
X132747438Y-41850869D01*
X132916568Y-42117375D01*
X133117767Y-42360582D01*
X133347860Y-42576654D01*
X133603221Y-42762184D01*
X133879821Y-42914247D01*
X133883490Y-42915700D01*
X133883495Y-42915702D01*
X134169628Y-43028990D01*
X134173298Y-43030443D01*
X134479025Y-43108940D01*
X134792179Y-43148500D01*
X135107821Y-43148500D01*
X135420975Y-43108940D01*
X135726702Y-43030443D01*
X135730372Y-43028990D01*
X136016505Y-42915702D01*
X136016510Y-42915700D01*
X136020179Y-42914247D01*
X136296779Y-42762184D01*
X136552140Y-42576654D01*
X136782233Y-42360582D01*
X136983432Y-42117375D01*
X137152562Y-41850869D01*
X137154246Y-41847290D01*
X137154250Y-41847283D01*
X137285267Y-41568856D01*
X137285269Y-41568852D01*
X137286956Y-41565266D01*
X137384495Y-41265072D01*
X137443641Y-40955020D01*
X137463460Y-40640000D01*
X141936540Y-40640000D01*
X141956359Y-40955020D01*
X142015505Y-41265072D01*
X142113044Y-41565266D01*
X142114731Y-41568852D01*
X142114733Y-41568856D01*
X142245750Y-41847283D01*
X142245754Y-41847290D01*
X142247438Y-41850869D01*
X142416568Y-42117375D01*
X142617767Y-42360582D01*
X142847860Y-42576654D01*
X143103221Y-42762184D01*
X143379821Y-42914247D01*
X143383490Y-42915700D01*
X143383495Y-42915702D01*
X143669628Y-43028990D01*
X143673298Y-43030443D01*
X143979025Y-43108940D01*
X144292179Y-43148500D01*
X144607821Y-43148500D01*
X144920975Y-43108940D01*
X145226702Y-43030443D01*
X145230372Y-43028990D01*
X145516505Y-42915702D01*
X145516510Y-42915700D01*
X145520179Y-42914247D01*
X145796779Y-42762184D01*
X146052140Y-42576654D01*
X146282233Y-42360582D01*
X146483432Y-42117375D01*
X146652562Y-41850869D01*
X146654246Y-41847290D01*
X146654250Y-41847283D01*
X146785267Y-41568856D01*
X146785269Y-41568852D01*
X146786956Y-41565266D01*
X146884495Y-41265072D01*
X146943641Y-40955020D01*
X146963460Y-40640000D01*
X146943641Y-40324980D01*
X146884495Y-40014928D01*
X146786956Y-39714734D01*
X146785267Y-39711144D01*
X146654250Y-39432717D01*
X146654246Y-39432710D01*
X146652562Y-39429131D01*
X146483432Y-39162625D01*
X146282233Y-38919418D01*
X146052140Y-38703346D01*
X145796779Y-38517816D01*
X145520179Y-38365753D01*
X145516510Y-38364300D01*
X145516505Y-38364298D01*
X145230372Y-38251010D01*
X145230371Y-38251010D01*
X145226702Y-38249557D01*
X145214881Y-38246522D01*
X148577273Y-38246522D01*
X148624764Y-38423761D01*
X148628510Y-38434053D01*
X148720586Y-38631511D01*
X148726069Y-38641007D01*
X148851028Y-38819467D01*
X148858084Y-38827875D01*
X149012125Y-38981916D01*
X149020533Y-38988972D01*
X149198993Y-39113931D01*
X149208489Y-39119414D01*
X149405947Y-39211490D01*
X149416239Y-39215236D01*
X149588503Y-39261394D01*
X149602599Y-39261058D01*
X149606000Y-39253116D01*
X149606000Y-39247967D01*
X150114000Y-39247967D01*
X150117973Y-39261498D01*
X150126522Y-39262727D01*
X150303761Y-39215236D01*
X150314053Y-39211490D01*
X150511511Y-39119414D01*
X150521007Y-39113931D01*
X150699467Y-38988972D01*
X150707875Y-38981916D01*
X150861916Y-38827875D01*
X150868972Y-38819467D01*
X150993931Y-38641007D01*
X150999414Y-38631511D01*
X151091490Y-38434053D01*
X151095236Y-38423761D01*
X151141394Y-38251497D01*
X151141058Y-38237401D01*
X151133116Y-38234000D01*
X150132115Y-38234000D01*
X150116876Y-38238475D01*
X150115671Y-38239865D01*
X150114000Y-38247548D01*
X150114000Y-39247967D01*
X149606000Y-39247967D01*
X149606000Y-38252115D01*
X149601525Y-38236876D01*
X149600135Y-38235671D01*
X149592452Y-38234000D01*
X148592033Y-38234000D01*
X148578502Y-38237973D01*
X148577273Y-38246522D01*
X145214881Y-38246522D01*
X144920975Y-38171060D01*
X144607821Y-38131500D01*
X144292179Y-38131500D01*
X143979025Y-38171060D01*
X143673298Y-38249557D01*
X143669629Y-38251010D01*
X143669628Y-38251010D01*
X143383495Y-38364298D01*
X143383490Y-38364300D01*
X143379821Y-38365753D01*
X143103221Y-38517816D01*
X142847860Y-38703346D01*
X142617767Y-38919418D01*
X142416568Y-39162625D01*
X142247438Y-39429131D01*
X142245754Y-39432710D01*
X142245750Y-39432717D01*
X142114733Y-39711144D01*
X142113044Y-39714734D01*
X142015505Y-40014928D01*
X141956359Y-40324980D01*
X141936540Y-40640000D01*
X137463460Y-40640000D01*
X137443641Y-40324980D01*
X137384495Y-40014928D01*
X137286956Y-39714734D01*
X137285267Y-39711144D01*
X137154250Y-39432717D01*
X137154246Y-39432710D01*
X137152562Y-39429131D01*
X136983432Y-39162625D01*
X136782233Y-38919418D01*
X136552140Y-38703346D01*
X136296779Y-38517816D01*
X136020179Y-38365753D01*
X136016510Y-38364300D01*
X136016505Y-38364298D01*
X135730372Y-38251010D01*
X135730371Y-38251010D01*
X135726702Y-38249557D01*
X135420975Y-38171060D01*
X135107821Y-38131500D01*
X134792179Y-38131500D01*
X134479025Y-38171060D01*
X134173298Y-38249557D01*
X134169629Y-38251010D01*
X134169628Y-38251010D01*
X133883495Y-38364298D01*
X133883490Y-38364300D01*
X133879821Y-38365753D01*
X133603221Y-38517816D01*
X133347860Y-38703346D01*
X133117767Y-38919418D01*
X132916568Y-39162625D01*
X132747438Y-39429131D01*
X132745754Y-39432710D01*
X132745750Y-39432717D01*
X132614733Y-39711144D01*
X132613044Y-39714734D01*
X132515505Y-40014928D01*
X132456359Y-40324980D01*
X132436540Y-40640000D01*
X127508500Y-40640000D01*
X127508500Y-38246522D01*
X129527273Y-38246522D01*
X129574764Y-38423761D01*
X129578510Y-38434053D01*
X129670586Y-38631511D01*
X129676069Y-38641007D01*
X129801028Y-38819467D01*
X129808084Y-38827875D01*
X129962125Y-38981916D01*
X129970533Y-38988972D01*
X130148993Y-39113931D01*
X130158489Y-39119414D01*
X130355947Y-39211490D01*
X130366239Y-39215236D01*
X130538503Y-39261394D01*
X130552599Y-39261058D01*
X130556000Y-39253116D01*
X130556000Y-39247967D01*
X131064000Y-39247967D01*
X131067973Y-39261498D01*
X131076522Y-39262727D01*
X131253761Y-39215236D01*
X131264053Y-39211490D01*
X131461511Y-39119414D01*
X131471007Y-39113931D01*
X131649467Y-38988972D01*
X131657875Y-38981916D01*
X131811916Y-38827875D01*
X131818972Y-38819467D01*
X131943931Y-38641007D01*
X131949414Y-38631511D01*
X132041490Y-38434053D01*
X132045236Y-38423761D01*
X132091394Y-38251497D01*
X132091058Y-38237401D01*
X132083116Y-38234000D01*
X131082115Y-38234000D01*
X131066876Y-38238475D01*
X131065671Y-38239865D01*
X131064000Y-38247548D01*
X131064000Y-39247967D01*
X130556000Y-39247967D01*
X130556000Y-38252115D01*
X130551525Y-38236876D01*
X130550135Y-38235671D01*
X130542452Y-38234000D01*
X129542033Y-38234000D01*
X129528502Y-38237973D01*
X129527273Y-38246522D01*
X127508500Y-38246522D01*
X127508500Y-37708503D01*
X129528606Y-37708503D01*
X129528942Y-37722599D01*
X129536884Y-37726000D01*
X130537885Y-37726000D01*
X130553124Y-37721525D01*
X130554329Y-37720135D01*
X130556000Y-37712452D01*
X130556000Y-37707885D01*
X131064000Y-37707885D01*
X131068475Y-37723124D01*
X131069865Y-37724329D01*
X131077548Y-37726000D01*
X132077967Y-37726000D01*
X132091498Y-37722027D01*
X132092727Y-37713478D01*
X132091394Y-37708503D01*
X148578606Y-37708503D01*
X148578942Y-37722599D01*
X148586884Y-37726000D01*
X149587885Y-37726000D01*
X149603124Y-37721525D01*
X149604329Y-37720135D01*
X149606000Y-37712452D01*
X149606000Y-37707885D01*
X150114000Y-37707885D01*
X150118475Y-37723124D01*
X150119865Y-37724329D01*
X150127548Y-37726000D01*
X151127967Y-37726000D01*
X151141498Y-37722027D01*
X151142727Y-37713478D01*
X151095236Y-37536239D01*
X151091490Y-37525947D01*
X150999414Y-37328489D01*
X150993931Y-37318993D01*
X150868972Y-37140533D01*
X150861916Y-37132125D01*
X150707875Y-36978084D01*
X150699467Y-36971028D01*
X150521007Y-36846069D01*
X150511511Y-36840586D01*
X150314053Y-36748510D01*
X150303761Y-36744764D01*
X150131497Y-36698606D01*
X150117401Y-36698942D01*
X150114000Y-36706884D01*
X150114000Y-37707885D01*
X149606000Y-37707885D01*
X149606000Y-36712033D01*
X149602027Y-36698502D01*
X149593478Y-36697273D01*
X149416239Y-36744764D01*
X149405947Y-36748510D01*
X149208489Y-36840586D01*
X149198993Y-36846069D01*
X149020533Y-36971028D01*
X149012125Y-36978084D01*
X148858084Y-37132125D01*
X148851028Y-37140533D01*
X148726069Y-37318993D01*
X148720586Y-37328489D01*
X148628510Y-37525947D01*
X148624764Y-37536239D01*
X148578606Y-37708503D01*
X132091394Y-37708503D01*
X132045236Y-37536239D01*
X132041490Y-37525947D01*
X131949414Y-37328489D01*
X131943931Y-37318993D01*
X131818972Y-37140533D01*
X131811916Y-37132125D01*
X131657875Y-36978084D01*
X131649467Y-36971028D01*
X131471007Y-36846069D01*
X131461511Y-36840586D01*
X131264053Y-36748510D01*
X131253761Y-36744764D01*
X131081497Y-36698606D01*
X131067401Y-36698942D01*
X131064000Y-36706884D01*
X131064000Y-37707885D01*
X130556000Y-37707885D01*
X130556000Y-36712033D01*
X130552027Y-36698502D01*
X130543478Y-36697273D01*
X130366239Y-36744764D01*
X130355947Y-36748510D01*
X130158489Y-36840586D01*
X130148993Y-36846069D01*
X129970533Y-36971028D01*
X129962125Y-36978084D01*
X129808084Y-37132125D01*
X129801028Y-37140533D01*
X129676069Y-37318993D01*
X129670586Y-37328489D01*
X129578510Y-37525947D01*
X129574764Y-37536239D01*
X129528606Y-37708503D01*
X127508500Y-37708503D01*
X127508500Y-32384500D01*
X127528502Y-32316379D01*
X127582158Y-32269886D01*
X127634500Y-32258500D01*
X151765500Y-32258500D01*
X151833621Y-32278502D01*
G37*
%TD.AperFunction*%
%TD*%
M02*
