%TF.GenerationSoftware,KiCad,Pcbnew,(6.0.5)*%
%TF.CreationDate,2023-02-15T12:53:25-05:00*%
%TF.ProjectId,wow_and_flutter,776f775f-616e-4645-9f66-6c7574746572,rev?*%
%TF.SameCoordinates,Original*%
%TF.FileFunction,Copper,L1,Top*%
%TF.FilePolarity,Positive*%
%FSLAX46Y46*%
G04 Gerber Fmt 4.6, Leading zero omitted, Abs format (unit mm)*
G04 Created by KiCad (PCBNEW (6.0.5)) date 2023-02-15 12:53:25*
%MOMM*%
%LPD*%
G01*
G04 APERTURE LIST*
G04 Aperture macros list*
%AMRoundRect*
0 Rectangle with rounded corners*
0 $1 Rounding radius*
0 $2 $3 $4 $5 $6 $7 $8 $9 X,Y pos of 4 corners*
0 Add a 4 corners polygon primitive as box body*
4,1,4,$2,$3,$4,$5,$6,$7,$8,$9,$2,$3,0*
0 Add four circle primitives for the rounded corners*
1,1,$1+$1,$2,$3*
1,1,$1+$1,$4,$5*
1,1,$1+$1,$6,$7*
1,1,$1+$1,$8,$9*
0 Add four rect primitives between the rounded corners*
20,1,$1+$1,$2,$3,$4,$5,0*
20,1,$1+$1,$4,$5,$6,$7,0*
20,1,$1+$1,$6,$7,$8,$9,0*
20,1,$1+$1,$8,$9,$2,$3,0*%
G04 Aperture macros list end*
%TA.AperFunction,ComponentPad*%
%ADD10C,1.600000*%
%TD*%
%TA.AperFunction,ComponentPad*%
%ADD11R,1.500000X1.500000*%
%TD*%
%TA.AperFunction,ComponentPad*%
%ADD12O,1.500000X1.500000*%
%TD*%
%TA.AperFunction,ComponentPad*%
%ADD13O,1.600000X1.600000*%
%TD*%
%TA.AperFunction,ComponentPad*%
%ADD14R,1.700000X1.700000*%
%TD*%
%TA.AperFunction,ComponentPad*%
%ADD15O,1.700000X1.700000*%
%TD*%
%TA.AperFunction,ComponentPad*%
%ADD16O,4.000000X4.000000*%
%TD*%
%TA.AperFunction,ComponentPad*%
%ADD17R,1.800000X1.800000*%
%TD*%
%TA.AperFunction,ComponentPad*%
%ADD18C,1.800000*%
%TD*%
%TA.AperFunction,ComponentPad*%
%ADD19O,2.000000X3.500000*%
%TD*%
%TA.AperFunction,ComponentPad*%
%ADD20O,2.000000X2.500000*%
%TD*%
%TA.AperFunction,ComponentPad*%
%ADD21O,3.500000X1.500000*%
%TD*%
%TA.AperFunction,ComponentPad*%
%ADD22RoundRect,0.750000X1.750000X0.750000X-1.750000X0.750000X-1.750000X-0.750000X1.750000X-0.750000X0*%
%TD*%
%TA.AperFunction,ComponentPad*%
%ADD23R,1.050000X1.500000*%
%TD*%
%TA.AperFunction,ComponentPad*%
%ADD24O,1.050000X1.500000*%
%TD*%
%TA.AperFunction,ViaPad*%
%ADD25C,0.800000*%
%TD*%
%TA.AperFunction,Conductor*%
%ADD26C,0.800000*%
%TD*%
%TA.AperFunction,Conductor*%
%ADD27C,0.500000*%
%TD*%
G04 APERTURE END LIST*
D10*
%TO.P,C15,1*%
%TO.N,GND*%
X139700000Y-99020000D03*
%TO.P,C15,2*%
%TO.N,/SLEW_OUT*%
X139700000Y-96520000D03*
%TD*%
D11*
%TO.P,D5,1,K*%
%TO.N,+12V*%
X129540000Y-128275000D03*
D12*
%TO.P,D5,2,A*%
%TO.N,/DEPTH_FB*%
X129540000Y-120655000D03*
%TD*%
D10*
%TO.P,R6,1*%
%TO.N,/LFO_FB*%
X149860000Y-48140000D03*
D13*
%TO.P,R6,2*%
%TO.N,GND*%
X149860000Y-37980000D03*
%TD*%
D14*
%TO.P,J4,1,Pin_1*%
%TO.N,+12V*%
X134620000Y-146050000D03*
D15*
%TO.P,J4,2,Pin_2*%
%TO.N,GND*%
X137160000Y-146050000D03*
%TO.P,J4,3,Pin_3*%
X139700000Y-146050000D03*
%TO.P,J4,4,Pin_4*%
X142240000Y-146050000D03*
%TO.P,J4,5,Pin_5*%
%TO.N,-12V*%
X144780000Y-146050000D03*
%TD*%
D11*
%TO.P,D4,1,K*%
%TO.N,/DEPTH_FB*%
X149860000Y-120650000D03*
D12*
%TO.P,D4,2,A*%
%TO.N,-12V*%
X149860000Y-128270000D03*
%TD*%
D16*
%TO.P,RV3,*%
%TO.N,*%
X134950000Y-86360000D03*
X144450000Y-86360000D03*
D17*
%TO.P,RV3,1,1*%
%TO.N,/S&H*%
X137200000Y-93860000D03*
D18*
%TO.P,RV3,2,2*%
%TO.N,/SLEW_OUT*%
X139700000Y-93860000D03*
%TO.P,RV3,3,3*%
X142200000Y-93860000D03*
%TD*%
D19*
%TO.P,J2,S*%
%TO.N,GND*%
X135000000Y-139030000D03*
D20*
X144400000Y-139030000D03*
D21*
%TO.P,J2,T*%
%TO.N,Net-(J2-PadT)*%
X139700000Y-133630000D03*
%TO.P,J2,TN*%
%TO.N,unconnected-(J2-PadTN)*%
X139700000Y-141730000D03*
%TD*%
D10*
%TO.P,R25,1*%
%TO.N,/SW_OUT*%
X133350000Y-113030000D03*
D13*
%TO.P,R25,2*%
%TO.N,Net-(Q3-Pad2)*%
X133350000Y-123190000D03*
%TD*%
D10*
%TO.P,R24,1*%
%TO.N,/DEPTH_FB*%
X144780000Y-120650000D03*
D13*
%TO.P,R24,2*%
%TO.N,Net-(J2-PadT)*%
X144780000Y-130810000D03*
%TD*%
D16*
%TO.P,RV4,*%
%TO.N,*%
X134950000Y-63500000D03*
X144450000Y-63500000D03*
D17*
%TO.P,RV4,1,1*%
%TO.N,/DEPTH_FB*%
X137200000Y-71000000D03*
D18*
%TO.P,RV4,2,2*%
%TO.N,/DEPTH_CTRL*%
X139700000Y-71000000D03*
%TO.P,RV4,3,3*%
%TO.N,/SW_OUT*%
X142200000Y-71000000D03*
%TD*%
D10*
%TO.P,R1,1*%
%TO.N,Net-(R1-Pad1)*%
X130810000Y-48140000D03*
D13*
%TO.P,R1,2*%
%TO.N,GND*%
X130810000Y-37980000D03*
%TD*%
D22*
%TO.P,SW1,1,A*%
%TO.N,/SLEW_OUT*%
X139700000Y-117780000D03*
%TO.P,SW1,2,B*%
%TO.N,/SW_OUT*%
X139700000Y-113030000D03*
%TO.P,SW1,3,C*%
%TO.N,/TRI*%
X139700000Y-108280000D03*
%TD*%
D23*
%TO.P,Q3,1,E*%
%TO.N,Net-(D3-Pad2)*%
X134620000Y-128270000D03*
D24*
%TO.P,Q3,2,B*%
%TO.N,Net-(Q3-Pad2)*%
X133350000Y-128270000D03*
%TO.P,Q3,3,C*%
%TO.N,+12V*%
X132080000Y-128270000D03*
%TD*%
D10*
%TO.P,R26,1*%
%TO.N,-12V*%
X147320000Y-138430000D03*
D13*
%TO.P,R26,2*%
%TO.N,Net-(D3-Pad1)*%
X147320000Y-128270000D03*
%TD*%
D17*
%TO.P,D3,1,K*%
%TO.N,Net-(D3-Pad1)*%
X140970000Y-128270000D03*
D18*
%TO.P,D3,2,A*%
%TO.N,Net-(D3-Pad2)*%
X138430000Y-128270000D03*
%TD*%
D10*
%TO.P,R2,1*%
%TO.N,Net-(R2-Pad1)*%
X139700000Y-50800000D03*
D13*
%TO.P,R2,2*%
%TO.N,/LFO_CTRL*%
X149860000Y-50800000D03*
%TD*%
D16*
%TO.P,RV1,*%
%TO.N,*%
X144450000Y-40640000D03*
X134950000Y-40640000D03*
D17*
%TO.P,RV1,1,1*%
%TO.N,Net-(R1-Pad1)*%
X137200000Y-48140000D03*
D18*
%TO.P,RV1,2,2*%
%TO.N,Net-(R2-Pad1)*%
X139700000Y-48140000D03*
%TO.P,RV1,3,3*%
%TO.N,/LFO_FB*%
X142200000Y-48140000D03*
%TD*%
D14*
%TO.P,J6,1,Pin_1*%
%TO.N,/TRI*%
X133375000Y-76200000D03*
D15*
%TO.P,J6,2,Pin_2*%
%TO.N,/DEPTH_FB*%
X135915000Y-76200000D03*
%TO.P,J6,3,Pin_3*%
%TO.N,/DEPTH_CTRL*%
X138455000Y-76200000D03*
%TO.P,J6,4,Pin_4*%
%TO.N,/S&H*%
X140995000Y-76200000D03*
%TO.P,J6,5,Pin_5*%
%TO.N,/LFO_FB*%
X143535000Y-76200000D03*
%TO.P,J6,6,Pin_6*%
%TO.N,/LFO_CTRL*%
X146075000Y-76200000D03*
%TD*%
D25*
%TO.N,GND*%
X135890000Y-52070000D03*
X136525000Y-127000000D03*
X128905000Y-50165000D03*
X133350000Y-115570000D03*
X128270000Y-121920000D03*
X149860000Y-97790000D03*
X128270000Y-67310000D03*
X144145000Y-46355000D03*
X151130000Y-146050000D03*
X133985000Y-104775000D03*
X151130000Y-71120000D03*
X139700000Y-135890000D03*
X148590000Y-64770000D03*
X133350000Y-107950000D03*
X147320000Y-89535000D03*
X147320000Y-46355000D03*
X142875000Y-119380000D03*
X139700000Y-89535000D03*
X128270000Y-33020000D03*
X134620000Y-125095000D03*
X128270000Y-107315000D03*
X148590000Y-58420000D03*
X135255000Y-121920000D03*
X132080000Y-93345000D03*
X147955000Y-110490000D03*
X133350000Y-46355000D03*
X151130000Y-118745000D03*
X142240000Y-100965000D03*
X135890000Y-90805000D03*
X147320000Y-119380000D03*
X128270000Y-100965000D03*
X147320000Y-78105000D03*
X151130000Y-78740000D03*
X132715000Y-35560000D03*
X142240000Y-78105000D03*
X144359500Y-109220000D03*
X130810000Y-101346000D03*
X142240000Y-83820000D03*
X147320000Y-99695000D03*
X136525000Y-115570000D03*
X137160000Y-131445000D03*
X132080000Y-79375000D03*
X142240000Y-105410000D03*
X128270000Y-146050000D03*
X142875000Y-59690000D03*
X135890000Y-82550000D03*
X133350000Y-49530000D03*
X151130000Y-52070000D03*
X128270000Y-44450000D03*
X135382000Y-119380000D03*
X151130000Y-61595000D03*
X128270000Y-118745000D03*
X136525000Y-110490000D03*
X142240000Y-110744000D03*
X144780000Y-93980000D03*
X130810000Y-107315000D03*
X141986000Y-115316000D03*
X139700000Y-78105000D03*
X150495000Y-107315000D03*
X135255000Y-101600000D03*
X132715000Y-56515000D03*
X146050000Y-60325000D03*
X139700000Y-39370000D03*
X140970000Y-92075000D03*
X151130000Y-127000000D03*
X146050000Y-49530000D03*
X151130000Y-136525000D03*
X137160000Y-67945000D03*
X149225000Y-139065000D03*
X137795000Y-104140000D03*
X150495000Y-45720000D03*
X144780000Y-113665000D03*
X142875000Y-130175000D03*
X135255000Y-133985000D03*
X142240000Y-88900000D03*
X149860000Y-83185000D03*
X135255000Y-43815000D03*
X139700000Y-42545000D03*
X144780000Y-123825000D03*
X138430000Y-62865000D03*
X130810000Y-114300000D03*
X130810000Y-119380000D03*
X149860000Y-89535000D03*
X142875000Y-127000000D03*
X139700000Y-33020000D03*
X131445000Y-62230000D03*
X147320000Y-104775000D03*
X151130000Y-33020000D03*
X130810000Y-76835000D03*
X142875000Y-121920000D03*
X128270000Y-73660000D03*
X148590000Y-52070000D03*
X133350000Y-130175000D03*
X128270000Y-55880000D03*
X147955000Y-122555000D03*
X144145000Y-133985000D03*
X139700000Y-102235000D03*
X142240000Y-74295000D03*
X140335000Y-53975000D03*
X128270000Y-114300000D03*
X151130000Y-93345000D03*
X144780000Y-102235000D03*
X135255000Y-97155000D03*
X128270000Y-130175000D03*
X130175000Y-139065000D03*
X128270000Y-79375000D03*
X131445000Y-121920000D03*
X141605000Y-95885000D03*
X138430000Y-123190000D03*
X151130000Y-49530000D03*
X139700000Y-74295000D03*
X128270000Y-86995000D03*
X151130000Y-102235000D03*
X132080000Y-85090000D03*
X148590000Y-71755000D03*
X151130000Y-86360000D03*
X144145000Y-72390000D03*
X147320000Y-83185000D03*
X128270000Y-93345000D03*
X149860000Y-74295000D03*
X132715000Y-69215000D03*
X146685000Y-36195000D03*
X134620000Y-72390000D03*
X132080000Y-88265000D03*
X144145000Y-69215000D03*
X147320000Y-146050000D03*
X142240000Y-67310000D03*
X132080000Y-98425000D03*
X151130000Y-113030000D03*
%TD*%
D26*
%TO.N,+12V*%
X132075000Y-128275000D02*
X132080000Y-128270000D01*
X132080000Y-128270000D02*
X132080000Y-143510000D01*
X129540000Y-128275000D02*
X132075000Y-128275000D01*
D27*
%TO.N,/S&H*%
X137200000Y-93860000D02*
X140995000Y-90065000D01*
%TO.N,/TRI*%
X130810000Y-78765000D02*
X130810000Y-99390000D01*
%TO.N,Net-(D3-Pad1)*%
X147320000Y-128270000D02*
X140970000Y-128270000D01*
%TO.N,/TRI*%
X133375000Y-76200000D02*
X130810000Y-78765000D01*
%TO.N,/S&H*%
X140995000Y-90065000D02*
X140995000Y-76200000D01*
%TO.N,Net-(R1-Pad1)*%
X137200000Y-48140000D02*
X130810000Y-48140000D01*
%TO.N,Net-(R2-Pad1)*%
X139700000Y-48140000D02*
X139700000Y-50800000D01*
D26*
%TO.N,-12V*%
X149860000Y-128270000D02*
X149860000Y-135890000D01*
X147320000Y-138430000D02*
X147320000Y-143510000D01*
X149860000Y-135890000D02*
X147320000Y-138430000D01*
D27*
%TO.N,Net-(D3-Pad2)*%
X138430000Y-128270000D02*
X134620000Y-128270000D01*
D26*
%TO.N,-12V*%
X147320000Y-143510000D02*
X144780000Y-146050000D01*
%TO.N,+12V*%
X132080000Y-143510000D02*
X134620000Y-146050000D01*
D27*
%TO.N,/TRI*%
X130810000Y-99390000D02*
X139700000Y-108280000D01*
%TO.N,/SLEW_OUT*%
X143510000Y-115570000D02*
X143510000Y-95170000D01*
%TO.N,/DEPTH_FB*%
X144780000Y-120650000D02*
X129545000Y-120650000D01*
X135915000Y-76200000D02*
X135915000Y-72285000D01*
X129545000Y-120650000D02*
X129540000Y-120655000D01*
X129540000Y-74930000D02*
X129540000Y-120655000D01*
%TO.N,Net-(Q3-Pad2)*%
X133350000Y-123190000D02*
X133350000Y-128270000D01*
%TO.N,/SW_OUT*%
X139700000Y-113030000D02*
X133350000Y-113030000D01*
%TO.N,/SLEW_OUT*%
X141300000Y-117780000D02*
X143510000Y-115570000D01*
X143510000Y-95170000D02*
X142200000Y-93860000D01*
%TO.N,/LFO_FB*%
X147320000Y-50680000D02*
X147320000Y-72415000D01*
%TO.N,/LFO_CTRL*%
X149860000Y-72415000D02*
X149860000Y-50800000D01*
X146075000Y-76200000D02*
X149860000Y-72415000D01*
%TO.N,/SLEW_OUT*%
X139700000Y-93860000D02*
X139700000Y-96520000D01*
%TO.N,/DEPTH_CTRL*%
X138455000Y-76200000D02*
X138455000Y-72245000D01*
%TO.N,/SLEW_OUT*%
X142200000Y-93860000D02*
X139700000Y-93860000D01*
%TO.N,Net-(J2-PadT)*%
X139700000Y-133630000D02*
X141960000Y-133630000D01*
%TO.N,/LFO_FB*%
X142200000Y-48140000D02*
X149860000Y-48140000D01*
X149860000Y-48140000D02*
X147320000Y-50680000D01*
%TO.N,/DEPTH_FB*%
X133470000Y-71000000D02*
X129540000Y-74930000D01*
%TO.N,/LFO_FB*%
X147320000Y-72415000D02*
X143535000Y-76200000D01*
%TO.N,/SLEW_OUT*%
X139700000Y-117780000D02*
X141300000Y-117780000D01*
%TO.N,/DEPTH_FB*%
X144780000Y-120650000D02*
X149860000Y-120650000D01*
X135915000Y-72285000D02*
X137200000Y-71000000D01*
%TO.N,/DEPTH_CTRL*%
X138455000Y-72245000D02*
X139700000Y-71000000D01*
%TO.N,/DEPTH_FB*%
X137200000Y-71000000D02*
X133470000Y-71000000D01*
%TO.N,Net-(J2-PadT)*%
X141960000Y-133630000D02*
X144780000Y-130810000D01*
%TD*%
%TA.AperFunction,Conductor*%
%TO.N,GND*%
G36*
X151833621Y-32278502D02*
G01*
X151880114Y-32332158D01*
X151891500Y-32384500D01*
X151891500Y-146685500D01*
X151871498Y-146753621D01*
X151817842Y-146800114D01*
X151765500Y-146811500D01*
X146121905Y-146811500D01*
X146053784Y-146791498D01*
X146007291Y-146737842D01*
X145997187Y-146667568D01*
X146008948Y-146629673D01*
X146045136Y-146556452D01*
X146047430Y-146551811D01*
X146112370Y-146338069D01*
X146141529Y-146116590D01*
X146143156Y-146050000D01*
X146142880Y-146046641D01*
X146141986Y-146035763D01*
X146156340Y-145966233D01*
X146178467Y-145936346D01*
X147904832Y-144209981D01*
X147919865Y-144197140D01*
X147925913Y-144192746D01*
X147925914Y-144192745D01*
X147931253Y-144188866D01*
X147977016Y-144138041D01*
X147981557Y-144133256D01*
X147996072Y-144118741D01*
X148008997Y-144102780D01*
X148013269Y-144097779D01*
X148054619Y-144051855D01*
X148054623Y-144051850D01*
X148059040Y-144046944D01*
X148066073Y-144034763D01*
X148077267Y-144018474D01*
X148086129Y-144007531D01*
X148117189Y-143946572D01*
X148120336Y-143940777D01*
X148151223Y-143887279D01*
X148151223Y-143887278D01*
X148154527Y-143881556D01*
X148158875Y-143868173D01*
X148166441Y-143849907D01*
X148169832Y-143843252D01*
X148172829Y-143837370D01*
X148190532Y-143771305D01*
X148192402Y-143764991D01*
X148211500Y-143706212D01*
X148213542Y-143699928D01*
X148215012Y-143685939D01*
X148218617Y-143666486D01*
X148220547Y-143659285D01*
X148222257Y-143652904D01*
X148225836Y-143584615D01*
X148226353Y-143578040D01*
X148228156Y-143560882D01*
X148228500Y-143557610D01*
X148228500Y-143537074D01*
X148228673Y-143530481D01*
X148231907Y-143468783D01*
X148231907Y-143468778D01*
X148232252Y-143462191D01*
X148230051Y-143448293D01*
X148228500Y-143428584D01*
X148228500Y-139424188D01*
X148248502Y-139356067D01*
X148265405Y-139335093D01*
X148326198Y-139274300D01*
X148457523Y-139086749D01*
X148459846Y-139081767D01*
X148459849Y-139081762D01*
X148551961Y-138884225D01*
X148551961Y-138884224D01*
X148554284Y-138879243D01*
X148613543Y-138658087D01*
X148615216Y-138638971D01*
X148632251Y-138444250D01*
X148658114Y-138378131D01*
X148668677Y-138366136D01*
X150444832Y-136589981D01*
X150459865Y-136577140D01*
X150465913Y-136572746D01*
X150465914Y-136572745D01*
X150471253Y-136568866D01*
X150517016Y-136518041D01*
X150521557Y-136513256D01*
X150536072Y-136498741D01*
X150548997Y-136482780D01*
X150553269Y-136477779D01*
X150594619Y-136431855D01*
X150594623Y-136431850D01*
X150599040Y-136426944D01*
X150606073Y-136414763D01*
X150617267Y-136398474D01*
X150626129Y-136387531D01*
X150657189Y-136326572D01*
X150660336Y-136320777D01*
X150691223Y-136267279D01*
X150691223Y-136267278D01*
X150694527Y-136261556D01*
X150698875Y-136248173D01*
X150706441Y-136229907D01*
X150709832Y-136223252D01*
X150712829Y-136217370D01*
X150730529Y-136151315D01*
X150732402Y-136144991D01*
X150751500Y-136086212D01*
X150753542Y-136079928D01*
X150755012Y-136065939D01*
X150758617Y-136046486D01*
X150760547Y-136039285D01*
X150762257Y-136032904D01*
X150765836Y-135964615D01*
X150766353Y-135958040D01*
X150768156Y-135940882D01*
X150768500Y-135937610D01*
X150768500Y-135917075D01*
X150768673Y-135910481D01*
X150771907Y-135848783D01*
X150771907Y-135848778D01*
X150772252Y-135842191D01*
X150770051Y-135828293D01*
X150768500Y-135808584D01*
X150768500Y-129193477D01*
X150788502Y-129125356D01*
X150805405Y-129104382D01*
X150827749Y-129082038D01*
X150836377Y-129069717D01*
X150950899Y-128906162D01*
X150950900Y-128906160D01*
X150954056Y-128901653D01*
X150956379Y-128896671D01*
X150956382Y-128896666D01*
X151012563Y-128776183D01*
X151047120Y-128702076D01*
X151104115Y-128489371D01*
X151123307Y-128270000D01*
X151104115Y-128050629D01*
X151047120Y-127837924D01*
X151003585Y-127744562D01*
X150956382Y-127643334D01*
X150956379Y-127643329D01*
X150954056Y-127638347D01*
X150858240Y-127501507D01*
X150830908Y-127462473D01*
X150830906Y-127462470D01*
X150827749Y-127457962D01*
X150672038Y-127302251D01*
X150650695Y-127287306D01*
X150573352Y-127233150D01*
X150491654Y-127175944D01*
X150292076Y-127082880D01*
X150079371Y-127025885D01*
X149860000Y-127006693D01*
X149640629Y-127025885D01*
X149427924Y-127082880D01*
X149334562Y-127126415D01*
X149233334Y-127173618D01*
X149233329Y-127173621D01*
X149228347Y-127175944D01*
X149223840Y-127179100D01*
X149223838Y-127179101D01*
X149052473Y-127299092D01*
X149052470Y-127299094D01*
X149047962Y-127302251D01*
X148892251Y-127457962D01*
X148889094Y-127462470D01*
X148889092Y-127462473D01*
X148861760Y-127501507D01*
X148765944Y-127638347D01*
X148763619Y-127643332D01*
X148763616Y-127643338D01*
X148731780Y-127711612D01*
X148684863Y-127764898D01*
X148616586Y-127784359D01*
X148548626Y-127763818D01*
X148503390Y-127711613D01*
X148459849Y-127618238D01*
X148459846Y-127618233D01*
X148457523Y-127613251D01*
X148347768Y-127456505D01*
X148329357Y-127430211D01*
X148329355Y-127430208D01*
X148326198Y-127425700D01*
X148164300Y-127263802D01*
X148159792Y-127260645D01*
X148159789Y-127260643D01*
X148038826Y-127175944D01*
X147976749Y-127132477D01*
X147971767Y-127130154D01*
X147971762Y-127130151D01*
X147774225Y-127038039D01*
X147774224Y-127038039D01*
X147769243Y-127035716D01*
X147763935Y-127034294D01*
X147763933Y-127034293D01*
X147553402Y-126977881D01*
X147553400Y-126977881D01*
X147548087Y-126976457D01*
X147320000Y-126956502D01*
X147091913Y-126976457D01*
X147086600Y-126977881D01*
X147086598Y-126977881D01*
X146876067Y-127034293D01*
X146876065Y-127034294D01*
X146870757Y-127035716D01*
X146865776Y-127038039D01*
X146865775Y-127038039D01*
X146668238Y-127130151D01*
X146668233Y-127130154D01*
X146663251Y-127132477D01*
X146601174Y-127175944D01*
X146480211Y-127260643D01*
X146480208Y-127260645D01*
X146475700Y-127263802D01*
X146313802Y-127425700D01*
X146291345Y-127457771D01*
X146235890Y-127502099D01*
X146188133Y-127511500D01*
X142504500Y-127511500D01*
X142436379Y-127491498D01*
X142389886Y-127437842D01*
X142378500Y-127385500D01*
X142378500Y-127321866D01*
X142371745Y-127259684D01*
X142320615Y-127123295D01*
X142233261Y-127006739D01*
X142116705Y-126919385D01*
X141980316Y-126868255D01*
X141918134Y-126861500D01*
X140021866Y-126861500D01*
X139959684Y-126868255D01*
X139823295Y-126919385D01*
X139706739Y-127006739D01*
X139619385Y-127123295D01*
X139616233Y-127131703D01*
X139616232Y-127131705D01*
X139595538Y-127186906D01*
X139552897Y-127243671D01*
X139486335Y-127268371D01*
X139416986Y-127253164D01*
X139394167Y-127236666D01*
X139393887Y-127236358D01*
X139321387Y-127179101D01*
X139216177Y-127096011D01*
X139216172Y-127096008D01*
X139212123Y-127092810D01*
X139207607Y-127090317D01*
X139207604Y-127090315D01*
X139013879Y-126983373D01*
X139013875Y-126983371D01*
X139009355Y-126980876D01*
X139004486Y-126979152D01*
X139004482Y-126979150D01*
X138795903Y-126905288D01*
X138795899Y-126905287D01*
X138791028Y-126903562D01*
X138785935Y-126902655D01*
X138785932Y-126902654D01*
X138568095Y-126863851D01*
X138568089Y-126863850D01*
X138563006Y-126862945D01*
X138490096Y-126862054D01*
X138336581Y-126860179D01*
X138336579Y-126860179D01*
X138331411Y-126860116D01*
X138102464Y-126895150D01*
X137882314Y-126967106D01*
X137877726Y-126969494D01*
X137877722Y-126969496D01*
X137694036Y-127065117D01*
X137676872Y-127074052D01*
X137672739Y-127077155D01*
X137672736Y-127077157D01*
X137495790Y-127210012D01*
X137491655Y-127213117D01*
X137331639Y-127380564D01*
X137328725Y-127384836D01*
X137279835Y-127456505D01*
X137224923Y-127501507D01*
X137175747Y-127511500D01*
X135769493Y-127511500D01*
X135701372Y-127491498D01*
X135654879Y-127437842D01*
X135647457Y-127416237D01*
X135646745Y-127409684D01*
X135635829Y-127380564D01*
X135598767Y-127281703D01*
X135595615Y-127273295D01*
X135508261Y-127156739D01*
X135391705Y-127069385D01*
X135255316Y-127018255D01*
X135193134Y-127011500D01*
X134234500Y-127011500D01*
X134166379Y-126991498D01*
X134119886Y-126937842D01*
X134108500Y-126885500D01*
X134108500Y-124321867D01*
X134128502Y-124253746D01*
X134162228Y-124218655D01*
X134194300Y-124196198D01*
X134356198Y-124034300D01*
X134487523Y-123846749D01*
X134489846Y-123841767D01*
X134489849Y-123841762D01*
X134581961Y-123644225D01*
X134581961Y-123644224D01*
X134584284Y-123639243D01*
X134643543Y-123418087D01*
X134663498Y-123190000D01*
X134643543Y-122961913D01*
X134584284Y-122740757D01*
X134581961Y-122735775D01*
X134489849Y-122538238D01*
X134489846Y-122538233D01*
X134487523Y-122533251D01*
X134356198Y-122345700D01*
X134194300Y-122183802D01*
X134189792Y-122180645D01*
X134189789Y-122180643D01*
X134111611Y-122125902D01*
X134006749Y-122052477D01*
X134001767Y-122050154D01*
X134001762Y-122050151D01*
X133804225Y-121958039D01*
X133804224Y-121958039D01*
X133799243Y-121955716D01*
X133793935Y-121954294D01*
X133793933Y-121954293D01*
X133583402Y-121897881D01*
X133583400Y-121897881D01*
X133578087Y-121896457D01*
X133350000Y-121876502D01*
X133121913Y-121896457D01*
X133116600Y-121897881D01*
X133116598Y-121897881D01*
X132906067Y-121954293D01*
X132906065Y-121954294D01*
X132900757Y-121955716D01*
X132895776Y-121958039D01*
X132895775Y-121958039D01*
X132698238Y-122050151D01*
X132698233Y-122050154D01*
X132693251Y-122052477D01*
X132588389Y-122125902D01*
X132510211Y-122180643D01*
X132510208Y-122180645D01*
X132505700Y-122183802D01*
X132343802Y-122345700D01*
X132212477Y-122533251D01*
X132210154Y-122538233D01*
X132210151Y-122538238D01*
X132118039Y-122735775D01*
X132115716Y-122740757D01*
X132056457Y-122961913D01*
X132036502Y-123190000D01*
X132056457Y-123418087D01*
X132115716Y-123639243D01*
X132118039Y-123644224D01*
X132118039Y-123644225D01*
X132210151Y-123841762D01*
X132210154Y-123841767D01*
X132212477Y-123846749D01*
X132343802Y-124034300D01*
X132505700Y-124196198D01*
X132537771Y-124218655D01*
X132582099Y-124274110D01*
X132591500Y-124321867D01*
X132591500Y-126950503D01*
X132571498Y-127018624D01*
X132517842Y-127065117D01*
X132447568Y-127075221D01*
X132428241Y-127070868D01*
X132294707Y-127029532D01*
X132294704Y-127029531D01*
X132288820Y-127027710D01*
X132282695Y-127027066D01*
X132282694Y-127027066D01*
X132093378Y-127007168D01*
X132093377Y-127007168D01*
X132087250Y-127006524D01*
X132005995Y-127013919D01*
X131891543Y-127024335D01*
X131891540Y-127024336D01*
X131885404Y-127024894D01*
X131879498Y-127026632D01*
X131879494Y-127026633D01*
X131744947Y-127066233D01*
X131690971Y-127082119D01*
X131685514Y-127084972D01*
X131685511Y-127084973D01*
X131625953Y-127116109D01*
X131511355Y-127176019D01*
X131353399Y-127303019D01*
X131349440Y-127307737D01*
X131349438Y-127307739D01*
X131337898Y-127321492D01*
X131278788Y-127360818D01*
X131241377Y-127366500D01*
X130861009Y-127366500D01*
X130792888Y-127346498D01*
X130746395Y-127292842D01*
X130744097Y-127287306D01*
X130743767Y-127286703D01*
X130740615Y-127278295D01*
X130653261Y-127161739D01*
X130536705Y-127074385D01*
X130400316Y-127023255D01*
X130338134Y-127016500D01*
X128741866Y-127016500D01*
X128679684Y-127023255D01*
X128543295Y-127074385D01*
X128426739Y-127161739D01*
X128339385Y-127278295D01*
X128288255Y-127414684D01*
X128281500Y-127476866D01*
X128281500Y-129073134D01*
X128288255Y-129135316D01*
X128339385Y-129271705D01*
X128426739Y-129388261D01*
X128543295Y-129475615D01*
X128679684Y-129526745D01*
X128741866Y-129533500D01*
X130338134Y-129533500D01*
X130400316Y-129526745D01*
X130536705Y-129475615D01*
X130653261Y-129388261D01*
X130740615Y-129271705D01*
X130743767Y-129263296D01*
X130748077Y-129255425D01*
X130749741Y-129256336D01*
X130785663Y-129208510D01*
X130852224Y-129183807D01*
X130861009Y-129183500D01*
X131045500Y-129183500D01*
X131113621Y-129203502D01*
X131160114Y-129257158D01*
X131171500Y-129309500D01*
X131171500Y-143428583D01*
X131169949Y-143448292D01*
X131167748Y-143462190D01*
X131168093Y-143468777D01*
X131168093Y-143468782D01*
X131171327Y-143530480D01*
X131171500Y-143537074D01*
X131171500Y-143557610D01*
X131171844Y-143560882D01*
X131171844Y-143560884D01*
X131173647Y-143578042D01*
X131174164Y-143584615D01*
X131177743Y-143652903D01*
X131179453Y-143659284D01*
X131179453Y-143659286D01*
X131181383Y-143666491D01*
X131184985Y-143685925D01*
X131185766Y-143693354D01*
X131185768Y-143693363D01*
X131186458Y-143699928D01*
X131207600Y-143764997D01*
X131209467Y-143771299D01*
X131227171Y-143837370D01*
X131233559Y-143849907D01*
X131241125Y-143868173D01*
X131245473Y-143881556D01*
X131248776Y-143887278D01*
X131248777Y-143887279D01*
X131279667Y-143940782D01*
X131282812Y-143946574D01*
X131313871Y-144007530D01*
X131318024Y-144012658D01*
X131318025Y-144012660D01*
X131322727Y-144018466D01*
X131333927Y-144034763D01*
X131337657Y-144041224D01*
X131337660Y-144041228D01*
X131340960Y-144046944D01*
X131345377Y-144051850D01*
X131345381Y-144051855D01*
X131386722Y-144097769D01*
X131391006Y-144102784D01*
X131397888Y-144111282D01*
X131403928Y-144118741D01*
X131418443Y-144133256D01*
X131422984Y-144138041D01*
X131468747Y-144188866D01*
X131474086Y-144192745D01*
X131474087Y-144192746D01*
X131480135Y-144197140D01*
X131495168Y-144209981D01*
X133224595Y-145939408D01*
X133258621Y-146001720D01*
X133261500Y-146028503D01*
X133261500Y-146685500D01*
X133241498Y-146753621D01*
X133187842Y-146800114D01*
X133135500Y-146811500D01*
X127634500Y-146811500D01*
X127566379Y-146791498D01*
X127519886Y-146737842D01*
X127508500Y-146685500D01*
X127508500Y-120655000D01*
X128276693Y-120655000D01*
X128295885Y-120874371D01*
X128352880Y-121087076D01*
X128355205Y-121092061D01*
X128443618Y-121281666D01*
X128443621Y-121281671D01*
X128445944Y-121286653D01*
X128449100Y-121291160D01*
X128449101Y-121291162D01*
X128568819Y-121462136D01*
X128572251Y-121467038D01*
X128727962Y-121622749D01*
X128732471Y-121625906D01*
X128732473Y-121625908D01*
X128770166Y-121652301D01*
X128908346Y-121749056D01*
X129107924Y-121842120D01*
X129320629Y-121899115D01*
X129540000Y-121918307D01*
X129759371Y-121899115D01*
X129972076Y-121842120D01*
X130171654Y-121749056D01*
X130309834Y-121652301D01*
X130347527Y-121625908D01*
X130347529Y-121625906D01*
X130352038Y-121622749D01*
X130507749Y-121467038D01*
X130511113Y-121462234D01*
X130511236Y-121462136D01*
X130514443Y-121458314D01*
X130515211Y-121458958D01*
X130566568Y-121417903D01*
X130614329Y-121408500D01*
X143648133Y-121408500D01*
X143716254Y-121428502D01*
X143751345Y-121462228D01*
X143773802Y-121494300D01*
X143935700Y-121656198D01*
X143940208Y-121659355D01*
X143940211Y-121659357D01*
X144018389Y-121714098D01*
X144123251Y-121787523D01*
X144128233Y-121789846D01*
X144128238Y-121789849D01*
X144325775Y-121881961D01*
X144330757Y-121884284D01*
X144336065Y-121885706D01*
X144336067Y-121885707D01*
X144546598Y-121942119D01*
X144546600Y-121942119D01*
X144551913Y-121943543D01*
X144780000Y-121963498D01*
X145008087Y-121943543D01*
X145013400Y-121942119D01*
X145013402Y-121942119D01*
X145223933Y-121885707D01*
X145223935Y-121885706D01*
X145229243Y-121884284D01*
X145234225Y-121881961D01*
X145431762Y-121789849D01*
X145431767Y-121789846D01*
X145436749Y-121787523D01*
X145541611Y-121714098D01*
X145619789Y-121659357D01*
X145619792Y-121659355D01*
X145624300Y-121656198D01*
X145786198Y-121494300D01*
X145808655Y-121462229D01*
X145864110Y-121417901D01*
X145911867Y-121408500D01*
X148485507Y-121408500D01*
X148553628Y-121428502D01*
X148600121Y-121482158D01*
X148607543Y-121503763D01*
X148608255Y-121510316D01*
X148611027Y-121517711D01*
X148611028Y-121517714D01*
X148648943Y-121618852D01*
X148659385Y-121646705D01*
X148746739Y-121763261D01*
X148863295Y-121850615D01*
X148999684Y-121901745D01*
X149061866Y-121908500D01*
X150658134Y-121908500D01*
X150720316Y-121901745D01*
X150856705Y-121850615D01*
X150973261Y-121763261D01*
X151060615Y-121646705D01*
X151111745Y-121510316D01*
X151118500Y-121448134D01*
X151118500Y-119851866D01*
X151111745Y-119789684D01*
X151060615Y-119653295D01*
X150973261Y-119536739D01*
X150856705Y-119449385D01*
X150720316Y-119398255D01*
X150658134Y-119391500D01*
X149061866Y-119391500D01*
X148999684Y-119398255D01*
X148863295Y-119449385D01*
X148746739Y-119536739D01*
X148659385Y-119653295D01*
X148656233Y-119661703D01*
X148611029Y-119782285D01*
X148608255Y-119789684D01*
X148607628Y-119795453D01*
X148572874Y-119856291D01*
X148509919Y-119889113D01*
X148485507Y-119891500D01*
X145911867Y-119891500D01*
X145843746Y-119871498D01*
X145808655Y-119837772D01*
X145786198Y-119805700D01*
X145624300Y-119643802D01*
X145619792Y-119640645D01*
X145619789Y-119640643D01*
X145539177Y-119584198D01*
X145436749Y-119512477D01*
X145431767Y-119510154D01*
X145431762Y-119510151D01*
X145234225Y-119418039D01*
X145234224Y-119418039D01*
X145229243Y-119415716D01*
X145223935Y-119414294D01*
X145223933Y-119414293D01*
X145013402Y-119357881D01*
X145013400Y-119357881D01*
X145008087Y-119356457D01*
X144780000Y-119336502D01*
X144551913Y-119356457D01*
X144546600Y-119357881D01*
X144546598Y-119357881D01*
X144336067Y-119414293D01*
X144336065Y-119414294D01*
X144330757Y-119415716D01*
X144325776Y-119418039D01*
X144325775Y-119418039D01*
X144128238Y-119510151D01*
X144128233Y-119510154D01*
X144123251Y-119512477D01*
X144020823Y-119584198D01*
X143940211Y-119640643D01*
X143940208Y-119640645D01*
X143935700Y-119643802D01*
X143773802Y-119805700D01*
X143751345Y-119837771D01*
X143695890Y-119882099D01*
X143648133Y-119891500D01*
X142077518Y-119891500D01*
X142009397Y-119871498D01*
X141962904Y-119817842D01*
X141952800Y-119747568D01*
X141982294Y-119682988D01*
X142025066Y-119650937D01*
X142070947Y-119629931D01*
X142070959Y-119629924D01*
X142076055Y-119627591D01*
X142260527Y-119499380D01*
X142419380Y-119340527D01*
X142547591Y-119156055D01*
X142641110Y-118951794D01*
X142696978Y-118734200D01*
X142708500Y-118592542D01*
X142708500Y-117496371D01*
X142728502Y-117428250D01*
X142745405Y-117407276D01*
X143998911Y-116153770D01*
X144013323Y-116141384D01*
X144024918Y-116132851D01*
X144024923Y-116132846D01*
X144030818Y-116128508D01*
X144035557Y-116122930D01*
X144035560Y-116122927D01*
X144065035Y-116088232D01*
X144071965Y-116080716D01*
X144077660Y-116075021D01*
X144085912Y-116064591D01*
X144095281Y-116052749D01*
X144098072Y-116049345D01*
X144140591Y-115999297D01*
X144140592Y-115999295D01*
X144145333Y-115993715D01*
X144148661Y-115987199D01*
X144152028Y-115982150D01*
X144155195Y-115977021D01*
X144159734Y-115971284D01*
X144190655Y-115905125D01*
X144192561Y-115901225D01*
X144195436Y-115895594D01*
X144225769Y-115836192D01*
X144227508Y-115829084D01*
X144229607Y-115823441D01*
X144231524Y-115817678D01*
X144234622Y-115811050D01*
X144249487Y-115739583D01*
X144250457Y-115735299D01*
X144266473Y-115669845D01*
X144267808Y-115664390D01*
X144268500Y-115653236D01*
X144268536Y-115653238D01*
X144268775Y-115649245D01*
X144269149Y-115645053D01*
X144270640Y-115637885D01*
X144268546Y-115560479D01*
X144268500Y-115557072D01*
X144268500Y-95237070D01*
X144269933Y-95218120D01*
X144272099Y-95203885D01*
X144272099Y-95203881D01*
X144273199Y-95196651D01*
X144268915Y-95143982D01*
X144268500Y-95133767D01*
X144268500Y-95125707D01*
X144265209Y-95097480D01*
X144264778Y-95093121D01*
X144261202Y-95049157D01*
X144258860Y-95020364D01*
X144256605Y-95013403D01*
X144255418Y-95007463D01*
X144254029Y-95001588D01*
X144253182Y-94994319D01*
X144228264Y-94925670D01*
X144226847Y-94921542D01*
X144206607Y-94859064D01*
X144206606Y-94859062D01*
X144204351Y-94852101D01*
X144200555Y-94845846D01*
X144198049Y-94840372D01*
X144195330Y-94834942D01*
X144192833Y-94828063D01*
X144152814Y-94767024D01*
X144150467Y-94763305D01*
X144143173Y-94751285D01*
X144112595Y-94700893D01*
X144105197Y-94692516D01*
X144105224Y-94692492D01*
X144102571Y-94689500D01*
X144099868Y-94686267D01*
X144095856Y-94680148D01*
X144039617Y-94626872D01*
X144037175Y-94624494D01*
X143624176Y-94211495D01*
X143590150Y-94149183D01*
X143588349Y-94105954D01*
X143611203Y-93932362D01*
X143611203Y-93932358D01*
X143611640Y-93929041D01*
X143613327Y-93860000D01*
X143607032Y-93783434D01*
X143594773Y-93634318D01*
X143594772Y-93634312D01*
X143594349Y-93629167D01*
X143537925Y-93404533D01*
X143445570Y-93192131D01*
X143319764Y-92997665D01*
X143163887Y-92826358D01*
X143159836Y-92823159D01*
X143159832Y-92823155D01*
X142986177Y-92686011D01*
X142986172Y-92686008D01*
X142982123Y-92682810D01*
X142977607Y-92680317D01*
X142977604Y-92680315D01*
X142783879Y-92573373D01*
X142783875Y-92573371D01*
X142779355Y-92570876D01*
X142774486Y-92569152D01*
X142774482Y-92569150D01*
X142565903Y-92495288D01*
X142565899Y-92495287D01*
X142561028Y-92493562D01*
X142555935Y-92492655D01*
X142555932Y-92492654D01*
X142338095Y-92453851D01*
X142338089Y-92453850D01*
X142333006Y-92452945D01*
X142260096Y-92452054D01*
X142106581Y-92450179D01*
X142106579Y-92450179D01*
X142101411Y-92450116D01*
X141872464Y-92485150D01*
X141652314Y-92557106D01*
X141647726Y-92559494D01*
X141647722Y-92559496D01*
X141451461Y-92661663D01*
X141446872Y-92664052D01*
X141442739Y-92667155D01*
X141442736Y-92667157D01*
X141370088Y-92721703D01*
X141261655Y-92803117D01*
X141101639Y-92970564D01*
X141098724Y-92974838D01*
X141098721Y-92974841D01*
X141054837Y-93039172D01*
X140999926Y-93084175D01*
X140929401Y-93092346D01*
X140865654Y-93061092D01*
X140844959Y-93036611D01*
X140819764Y-92997665D01*
X140663887Y-92826358D01*
X140659836Y-92823159D01*
X140659832Y-92823155D01*
X140486177Y-92686011D01*
X140486172Y-92686008D01*
X140482123Y-92682810D01*
X140477607Y-92680317D01*
X140477604Y-92680315D01*
X140283879Y-92573373D01*
X140283875Y-92573371D01*
X140279355Y-92570876D01*
X140274486Y-92569152D01*
X140274482Y-92569150D01*
X140065903Y-92495288D01*
X140065899Y-92495287D01*
X140061028Y-92493562D01*
X139980249Y-92479173D01*
X139940694Y-92472127D01*
X139877137Y-92440489D01*
X139840774Y-92379511D01*
X139843151Y-92308555D01*
X139873696Y-92258985D01*
X141483911Y-90648770D01*
X141498323Y-90636384D01*
X141509918Y-90627851D01*
X141509923Y-90627846D01*
X141515818Y-90623508D01*
X141520557Y-90617930D01*
X141520560Y-90617927D01*
X141550035Y-90583232D01*
X141556965Y-90575716D01*
X141562660Y-90570021D01*
X141580281Y-90547749D01*
X141583072Y-90544345D01*
X141625591Y-90494297D01*
X141625592Y-90494295D01*
X141630333Y-90488715D01*
X141633661Y-90482199D01*
X141637020Y-90477162D01*
X141640194Y-90472023D01*
X141644734Y-90466284D01*
X141675636Y-90400163D01*
X141677569Y-90396209D01*
X141681239Y-90389021D01*
X141710769Y-90331192D01*
X141712510Y-90324076D01*
X141714604Y-90318446D01*
X141716523Y-90312679D01*
X141719621Y-90306050D01*
X141734483Y-90234600D01*
X141735453Y-90230315D01*
X141751473Y-90164844D01*
X141752808Y-90159390D01*
X141753500Y-90148236D01*
X141753536Y-90148238D01*
X141753775Y-90144248D01*
X141754150Y-90140050D01*
X141755640Y-90132885D01*
X141753546Y-90055479D01*
X141753500Y-90052072D01*
X141753500Y-86944534D01*
X141773502Y-86876413D01*
X141827158Y-86829920D01*
X141897432Y-86819816D01*
X141962012Y-86849310D01*
X142000396Y-86909036D01*
X142003268Y-86920924D01*
X142015505Y-86985072D01*
X142113044Y-87285266D01*
X142114731Y-87288852D01*
X142114733Y-87288856D01*
X142245750Y-87567283D01*
X142245754Y-87567290D01*
X142247438Y-87570869D01*
X142416568Y-87837375D01*
X142617767Y-88080582D01*
X142847860Y-88296654D01*
X143103221Y-88482184D01*
X143379821Y-88634247D01*
X143383490Y-88635700D01*
X143383495Y-88635702D01*
X143669628Y-88748990D01*
X143673298Y-88750443D01*
X143979025Y-88828940D01*
X144292179Y-88868500D01*
X144607821Y-88868500D01*
X144920975Y-88828940D01*
X145226702Y-88750443D01*
X145230372Y-88748990D01*
X145516505Y-88635702D01*
X145516510Y-88635700D01*
X145520179Y-88634247D01*
X145796779Y-88482184D01*
X146052140Y-88296654D01*
X146282233Y-88080582D01*
X146483432Y-87837375D01*
X146652562Y-87570869D01*
X146654246Y-87567290D01*
X146654250Y-87567283D01*
X146785267Y-87288856D01*
X146785269Y-87288852D01*
X146786956Y-87285266D01*
X146884495Y-86985072D01*
X146943641Y-86675020D01*
X146963460Y-86360000D01*
X146943641Y-86044980D01*
X146884495Y-85734928D01*
X146786956Y-85434734D01*
X146785267Y-85431144D01*
X146654250Y-85152717D01*
X146654246Y-85152710D01*
X146652562Y-85149131D01*
X146483432Y-84882625D01*
X146282233Y-84639418D01*
X146052140Y-84423346D01*
X145796779Y-84237816D01*
X145520179Y-84085753D01*
X145516510Y-84084300D01*
X145516505Y-84084298D01*
X145230372Y-83971010D01*
X145230371Y-83971010D01*
X145226702Y-83969557D01*
X144920975Y-83891060D01*
X144607821Y-83851500D01*
X144292179Y-83851500D01*
X143979025Y-83891060D01*
X143673298Y-83969557D01*
X143669629Y-83971010D01*
X143669628Y-83971010D01*
X143383495Y-84084298D01*
X143383490Y-84084300D01*
X143379821Y-84085753D01*
X143103221Y-84237816D01*
X142847860Y-84423346D01*
X142617767Y-84639418D01*
X142416568Y-84882625D01*
X142247438Y-85149131D01*
X142245754Y-85152710D01*
X142245750Y-85152717D01*
X142114733Y-85431144D01*
X142113044Y-85434734D01*
X142015505Y-85734928D01*
X142014761Y-85738829D01*
X142003268Y-85799076D01*
X141970856Y-85862242D01*
X141909439Y-85897858D01*
X141838516Y-85894614D01*
X141780606Y-85853542D01*
X141754094Y-85787682D01*
X141753500Y-85775466D01*
X141753500Y-77392632D01*
X141773502Y-77324511D01*
X141806331Y-77290054D01*
X141874860Y-77241173D01*
X142033096Y-77083489D01*
X142163453Y-76902077D01*
X142164776Y-76903028D01*
X142211645Y-76859857D01*
X142281580Y-76847625D01*
X142347026Y-76875144D01*
X142374875Y-76906994D01*
X142434987Y-77005088D01*
X142581250Y-77173938D01*
X142753126Y-77316632D01*
X142946000Y-77429338D01*
X143154692Y-77509030D01*
X143159760Y-77510061D01*
X143159763Y-77510062D01*
X143267017Y-77531883D01*
X143373597Y-77553567D01*
X143378772Y-77553757D01*
X143378774Y-77553757D01*
X143591673Y-77561564D01*
X143591677Y-77561564D01*
X143596837Y-77561753D01*
X143601957Y-77561097D01*
X143601959Y-77561097D01*
X143813288Y-77534025D01*
X143813289Y-77534025D01*
X143818416Y-77533368D01*
X143823366Y-77531883D01*
X144027429Y-77470661D01*
X144027434Y-77470659D01*
X144032384Y-77469174D01*
X144232994Y-77370896D01*
X144414860Y-77241173D01*
X144573096Y-77083489D01*
X144703453Y-76902077D01*
X144704776Y-76903028D01*
X144751645Y-76859857D01*
X144821580Y-76847625D01*
X144887026Y-76875144D01*
X144914875Y-76906994D01*
X144974987Y-77005088D01*
X145121250Y-77173938D01*
X145293126Y-77316632D01*
X145486000Y-77429338D01*
X145694692Y-77509030D01*
X145699760Y-77510061D01*
X145699763Y-77510062D01*
X145807017Y-77531883D01*
X145913597Y-77553567D01*
X145918772Y-77553757D01*
X145918774Y-77553757D01*
X146131673Y-77561564D01*
X146131677Y-77561564D01*
X146136837Y-77561753D01*
X146141957Y-77561097D01*
X146141959Y-77561097D01*
X146353288Y-77534025D01*
X146353289Y-77534025D01*
X146358416Y-77533368D01*
X146363366Y-77531883D01*
X146567429Y-77470661D01*
X146567434Y-77470659D01*
X146572384Y-77469174D01*
X146772994Y-77370896D01*
X146954860Y-77241173D01*
X147113096Y-77083489D01*
X147243453Y-76902077D01*
X147264320Y-76859857D01*
X147340136Y-76706453D01*
X147340137Y-76706451D01*
X147342430Y-76701811D01*
X147396841Y-76522724D01*
X147405865Y-76493023D01*
X147405865Y-76493021D01*
X147407370Y-76488069D01*
X147436529Y-76266590D01*
X147438156Y-76200000D01*
X147420870Y-75989747D01*
X147435223Y-75920219D01*
X147457351Y-75890330D01*
X150348911Y-72998770D01*
X150363323Y-72986384D01*
X150374918Y-72977851D01*
X150374923Y-72977846D01*
X150380818Y-72973508D01*
X150385557Y-72967930D01*
X150385560Y-72967927D01*
X150415035Y-72933232D01*
X150421965Y-72925716D01*
X150427660Y-72920021D01*
X150445281Y-72897749D01*
X150448072Y-72894345D01*
X150490591Y-72844297D01*
X150490592Y-72844295D01*
X150495333Y-72838715D01*
X150498661Y-72832199D01*
X150502028Y-72827150D01*
X150505195Y-72822021D01*
X150509734Y-72816284D01*
X150540655Y-72750125D01*
X150542561Y-72746225D01*
X150575769Y-72681192D01*
X150577508Y-72674084D01*
X150579607Y-72668441D01*
X150581524Y-72662678D01*
X150584622Y-72656050D01*
X150599487Y-72584583D01*
X150600457Y-72580299D01*
X150604867Y-72562276D01*
X150617808Y-72509390D01*
X150618500Y-72498236D01*
X150618536Y-72498238D01*
X150618775Y-72494245D01*
X150619149Y-72490053D01*
X150620640Y-72482885D01*
X150618546Y-72405479D01*
X150618500Y-72402072D01*
X150618500Y-51931867D01*
X150638502Y-51863746D01*
X150672228Y-51828655D01*
X150704300Y-51806198D01*
X150866198Y-51644300D01*
X150997523Y-51456749D01*
X150999846Y-51451767D01*
X150999849Y-51451762D01*
X151091961Y-51254225D01*
X151091961Y-51254224D01*
X151094284Y-51249243D01*
X151153543Y-51028087D01*
X151173498Y-50800000D01*
X151153543Y-50571913D01*
X151119835Y-50446113D01*
X151095707Y-50356067D01*
X151095706Y-50356065D01*
X151094284Y-50350757D01*
X151060691Y-50278716D01*
X150999849Y-50148238D01*
X150999846Y-50148233D01*
X150997523Y-50143251D01*
X150866198Y-49955700D01*
X150704300Y-49793802D01*
X150699792Y-49790645D01*
X150699789Y-49790643D01*
X150593030Y-49715890D01*
X150516749Y-49662477D01*
X150511767Y-49660154D01*
X150511762Y-49660151D01*
X150348872Y-49584195D01*
X150295587Y-49537278D01*
X150276126Y-49469001D01*
X150296668Y-49401041D01*
X150348872Y-49355805D01*
X150511762Y-49279849D01*
X150511767Y-49279846D01*
X150516749Y-49277523D01*
X150699179Y-49149784D01*
X150699789Y-49149357D01*
X150699792Y-49149355D01*
X150704300Y-49146198D01*
X150866198Y-48984300D01*
X150875994Y-48970311D01*
X150994366Y-48801257D01*
X150997523Y-48796749D01*
X150999846Y-48791767D01*
X150999849Y-48791762D01*
X151091961Y-48594225D01*
X151091961Y-48594224D01*
X151094284Y-48589243D01*
X151153543Y-48368087D01*
X151173498Y-48140000D01*
X151153543Y-47911913D01*
X151094284Y-47690757D01*
X151091961Y-47685775D01*
X150999849Y-47488238D01*
X150999846Y-47488233D01*
X150997523Y-47483251D01*
X150885749Y-47323621D01*
X150869357Y-47300211D01*
X150869355Y-47300208D01*
X150866198Y-47295700D01*
X150704300Y-47133802D01*
X150699792Y-47130645D01*
X150699789Y-47130643D01*
X150555864Y-47029866D01*
X150516749Y-47002477D01*
X150511767Y-47000154D01*
X150511762Y-47000151D01*
X150314225Y-46908039D01*
X150314224Y-46908039D01*
X150309243Y-46905716D01*
X150303935Y-46904294D01*
X150303933Y-46904293D01*
X150093402Y-46847881D01*
X150093400Y-46847881D01*
X150088087Y-46846457D01*
X149860000Y-46826502D01*
X149631913Y-46846457D01*
X149626600Y-46847881D01*
X149626598Y-46847881D01*
X149416067Y-46904293D01*
X149416065Y-46904294D01*
X149410757Y-46905716D01*
X149405776Y-46908039D01*
X149405775Y-46908039D01*
X149208238Y-47000151D01*
X149208233Y-47000154D01*
X149203251Y-47002477D01*
X149164136Y-47029866D01*
X149020211Y-47130643D01*
X149020208Y-47130645D01*
X149015700Y-47133802D01*
X148853802Y-47295700D01*
X148831345Y-47327771D01*
X148775890Y-47372099D01*
X148728133Y-47381500D01*
X143455493Y-47381500D01*
X143387372Y-47361498D01*
X143349701Y-47323941D01*
X143322571Y-47282004D01*
X143319764Y-47277665D01*
X143299596Y-47255500D01*
X143188859Y-47133802D01*
X143163887Y-47106358D01*
X143159836Y-47103159D01*
X143159832Y-47103155D01*
X142986177Y-46966011D01*
X142986172Y-46966008D01*
X142982123Y-46962810D01*
X142977607Y-46960317D01*
X142977604Y-46960315D01*
X142783879Y-46853373D01*
X142783875Y-46853371D01*
X142779355Y-46850876D01*
X142774486Y-46849152D01*
X142774482Y-46849150D01*
X142565903Y-46775288D01*
X142565899Y-46775287D01*
X142561028Y-46773562D01*
X142555935Y-46772655D01*
X142555932Y-46772654D01*
X142338095Y-46733851D01*
X142338089Y-46733850D01*
X142333006Y-46732945D01*
X142260096Y-46732054D01*
X142106581Y-46730179D01*
X142106579Y-46730179D01*
X142101411Y-46730116D01*
X141872464Y-46765150D01*
X141652314Y-46837106D01*
X141647726Y-46839494D01*
X141647722Y-46839496D01*
X141451461Y-46941663D01*
X141446872Y-46944052D01*
X141442739Y-46947155D01*
X141442736Y-46947157D01*
X141299074Y-47055022D01*
X141261655Y-47083117D01*
X141101639Y-47250564D01*
X141054836Y-47319174D01*
X140999927Y-47364175D01*
X140929402Y-47372346D01*
X140865655Y-47341092D01*
X140844959Y-47316609D01*
X140822577Y-47282013D01*
X140822576Y-47282012D01*
X140819764Y-47277665D01*
X140799596Y-47255500D01*
X140688859Y-47133802D01*
X140663887Y-47106358D01*
X140659836Y-47103159D01*
X140659832Y-47103155D01*
X140486177Y-46966011D01*
X140486172Y-46966008D01*
X140482123Y-46962810D01*
X140477607Y-46960317D01*
X140477604Y-46960315D01*
X140283879Y-46853373D01*
X140283875Y-46853371D01*
X140279355Y-46850876D01*
X140274486Y-46849152D01*
X140274482Y-46849150D01*
X140065903Y-46775288D01*
X140065899Y-46775287D01*
X140061028Y-46773562D01*
X140055935Y-46772655D01*
X140055932Y-46772654D01*
X139838095Y-46733851D01*
X139838089Y-46733850D01*
X139833006Y-46732945D01*
X139760096Y-46732054D01*
X139606581Y-46730179D01*
X139606579Y-46730179D01*
X139601411Y-46730116D01*
X139372464Y-46765150D01*
X139152314Y-46837106D01*
X139147726Y-46839494D01*
X139147722Y-46839496D01*
X138951461Y-46941663D01*
X138946872Y-46944052D01*
X138942739Y-46947155D01*
X138942736Y-46947157D01*
X138761655Y-47083117D01*
X138760976Y-47082213D01*
X138701730Y-47110131D01*
X138631341Y-47100869D01*
X138577132Y-47055022D01*
X138564325Y-47029866D01*
X138553768Y-47001705D01*
X138553767Y-47001703D01*
X138550615Y-46993295D01*
X138463261Y-46876739D01*
X138346705Y-46789385D01*
X138210316Y-46738255D01*
X138148134Y-46731500D01*
X136251866Y-46731500D01*
X136189684Y-46738255D01*
X136053295Y-46789385D01*
X135936739Y-46876739D01*
X135849385Y-46993295D01*
X135798255Y-47129684D01*
X135791500Y-47191866D01*
X135791500Y-47255500D01*
X135771498Y-47323621D01*
X135717842Y-47370114D01*
X135665500Y-47381500D01*
X131941867Y-47381500D01*
X131873746Y-47361498D01*
X131838655Y-47327772D01*
X131816198Y-47295700D01*
X131654300Y-47133802D01*
X131649792Y-47130645D01*
X131649789Y-47130643D01*
X131505864Y-47029866D01*
X131466749Y-47002477D01*
X131461767Y-47000154D01*
X131461762Y-47000151D01*
X131264225Y-46908039D01*
X131264224Y-46908039D01*
X131259243Y-46905716D01*
X131253935Y-46904294D01*
X131253933Y-46904293D01*
X131043402Y-46847881D01*
X131043400Y-46847881D01*
X131038087Y-46846457D01*
X130810000Y-46826502D01*
X130581913Y-46846457D01*
X130576600Y-46847881D01*
X130576598Y-46847881D01*
X130366067Y-46904293D01*
X130366065Y-46904294D01*
X130360757Y-46905716D01*
X130355776Y-46908039D01*
X130355775Y-46908039D01*
X130158238Y-47000151D01*
X130158233Y-47000154D01*
X130153251Y-47002477D01*
X130114136Y-47029866D01*
X129970211Y-47130643D01*
X129970208Y-47130645D01*
X129965700Y-47133802D01*
X129803802Y-47295700D01*
X129800645Y-47300208D01*
X129800643Y-47300211D01*
X129784251Y-47323621D01*
X129672477Y-47483251D01*
X129670154Y-47488233D01*
X129670151Y-47488238D01*
X129578039Y-47685775D01*
X129575716Y-47690757D01*
X129516457Y-47911913D01*
X129496502Y-48140000D01*
X129516457Y-48368087D01*
X129575716Y-48589243D01*
X129578039Y-48594224D01*
X129578039Y-48594225D01*
X129670151Y-48791762D01*
X129670154Y-48791767D01*
X129672477Y-48796749D01*
X129675634Y-48801257D01*
X129794007Y-48970311D01*
X129803802Y-48984300D01*
X129965700Y-49146198D01*
X129970208Y-49149355D01*
X129970211Y-49149357D01*
X129970821Y-49149784D01*
X130153251Y-49277523D01*
X130158233Y-49279846D01*
X130158238Y-49279849D01*
X130312046Y-49351570D01*
X130360757Y-49374284D01*
X130366065Y-49375706D01*
X130366067Y-49375707D01*
X130576598Y-49432119D01*
X130576600Y-49432119D01*
X130581913Y-49433543D01*
X130810000Y-49453498D01*
X131038087Y-49433543D01*
X131043400Y-49432119D01*
X131043402Y-49432119D01*
X131253933Y-49375707D01*
X131253935Y-49375706D01*
X131259243Y-49374284D01*
X131307954Y-49351570D01*
X131461762Y-49279849D01*
X131461767Y-49279846D01*
X131466749Y-49277523D01*
X131649179Y-49149784D01*
X131649789Y-49149357D01*
X131649792Y-49149355D01*
X131654300Y-49146198D01*
X131816198Y-48984300D01*
X131838655Y-48952229D01*
X131894110Y-48907901D01*
X131941867Y-48898500D01*
X135665500Y-48898500D01*
X135733621Y-48918502D01*
X135780114Y-48972158D01*
X135791500Y-49024500D01*
X135791500Y-49088134D01*
X135798255Y-49150316D01*
X135849385Y-49286705D01*
X135936739Y-49403261D01*
X136053295Y-49490615D01*
X136189684Y-49541745D01*
X136251866Y-49548500D01*
X138148134Y-49548500D01*
X138210316Y-49541745D01*
X138346705Y-49490615D01*
X138463261Y-49403261D01*
X138550615Y-49286705D01*
X138565686Y-49246504D01*
X138608328Y-49189739D01*
X138674890Y-49165040D01*
X138744239Y-49180248D01*
X138764150Y-49193788D01*
X138888517Y-49297039D01*
X138889349Y-49297730D01*
X138889206Y-49297902D01*
X138932101Y-49351570D01*
X138941500Y-49399321D01*
X138941500Y-49668133D01*
X138921498Y-49736254D01*
X138887772Y-49771345D01*
X138855700Y-49793802D01*
X138693802Y-49955700D01*
X138562477Y-50143251D01*
X138560154Y-50148233D01*
X138560151Y-50148238D01*
X138499309Y-50278716D01*
X138465716Y-50350757D01*
X138464294Y-50356065D01*
X138464293Y-50356067D01*
X138440165Y-50446113D01*
X138406457Y-50571913D01*
X138386502Y-50800000D01*
X138406457Y-51028087D01*
X138465716Y-51249243D01*
X138468039Y-51254224D01*
X138468039Y-51254225D01*
X138560151Y-51451762D01*
X138560154Y-51451767D01*
X138562477Y-51456749D01*
X138693802Y-51644300D01*
X138855700Y-51806198D01*
X138860208Y-51809355D01*
X138860211Y-51809357D01*
X138887769Y-51828653D01*
X139043251Y-51937523D01*
X139048233Y-51939846D01*
X139048238Y-51939849D01*
X139245775Y-52031961D01*
X139250757Y-52034284D01*
X139256065Y-52035706D01*
X139256067Y-52035707D01*
X139466598Y-52092119D01*
X139466600Y-52092119D01*
X139471913Y-52093543D01*
X139700000Y-52113498D01*
X139928087Y-52093543D01*
X139933400Y-52092119D01*
X139933402Y-52092119D01*
X140143933Y-52035707D01*
X140143935Y-52035706D01*
X140149243Y-52034284D01*
X140154225Y-52031961D01*
X140351762Y-51939849D01*
X140351767Y-51939846D01*
X140356749Y-51937523D01*
X140512231Y-51828653D01*
X140539789Y-51809357D01*
X140539792Y-51809355D01*
X140544300Y-51806198D01*
X140706198Y-51644300D01*
X140837523Y-51456749D01*
X140839846Y-51451767D01*
X140839849Y-51451762D01*
X140931961Y-51254225D01*
X140931961Y-51254224D01*
X140934284Y-51249243D01*
X140993543Y-51028087D01*
X141013498Y-50800000D01*
X140993543Y-50571913D01*
X140959835Y-50446113D01*
X140935707Y-50356067D01*
X140935706Y-50356065D01*
X140934284Y-50350757D01*
X140900691Y-50278716D01*
X140839849Y-50148238D01*
X140839846Y-50148233D01*
X140837523Y-50143251D01*
X140706198Y-49955700D01*
X140544300Y-49793802D01*
X140512229Y-49771345D01*
X140467901Y-49715890D01*
X140458500Y-49668133D01*
X140458500Y-49394052D01*
X140478502Y-49325931D01*
X140511332Y-49291473D01*
X140608039Y-49222493D01*
X140608042Y-49222491D01*
X140612243Y-49219494D01*
X140776303Y-49056005D01*
X140845370Y-48959888D01*
X140901365Y-48916240D01*
X140972068Y-48909794D01*
X141035033Y-48942597D01*
X141055128Y-48967584D01*
X141056799Y-48970311D01*
X141056804Y-48970317D01*
X141059501Y-48974719D01*
X141211147Y-49149784D01*
X141389349Y-49297730D01*
X141589322Y-49414584D01*
X141805694Y-49497209D01*
X141810760Y-49498240D01*
X141810761Y-49498240D01*
X141851149Y-49506457D01*
X142032656Y-49543385D01*
X142162089Y-49548131D01*
X142258949Y-49551683D01*
X142258953Y-49551683D01*
X142264113Y-49551872D01*
X142269233Y-49551216D01*
X142269235Y-49551216D01*
X142343166Y-49541745D01*
X142493847Y-49522442D01*
X142498795Y-49520957D01*
X142498802Y-49520956D01*
X142710747Y-49457369D01*
X142715690Y-49455886D01*
X142720565Y-49453498D01*
X142919049Y-49356262D01*
X142919052Y-49356260D01*
X142923684Y-49353991D01*
X143112243Y-49219494D01*
X143276303Y-49056005D01*
X143351777Y-48950973D01*
X143407770Y-48907326D01*
X143454098Y-48898500D01*
X147724629Y-48898500D01*
X147792750Y-48918502D01*
X147839243Y-48972158D01*
X147849347Y-49042432D01*
X147819853Y-49107012D01*
X147813724Y-49113595D01*
X146831089Y-50096230D01*
X146816677Y-50108616D01*
X146805082Y-50117149D01*
X146805077Y-50117154D01*
X146799182Y-50121492D01*
X146794443Y-50127070D01*
X146794440Y-50127073D01*
X146764965Y-50161768D01*
X146758035Y-50169284D01*
X146752340Y-50174979D01*
X146750060Y-50177861D01*
X146734719Y-50197251D01*
X146731928Y-50200655D01*
X146689409Y-50250703D01*
X146684667Y-50256285D01*
X146681339Y-50262801D01*
X146677972Y-50267850D01*
X146674805Y-50272979D01*
X146670266Y-50278716D01*
X146639345Y-50344875D01*
X146637442Y-50348769D01*
X146604231Y-50413808D01*
X146602492Y-50420916D01*
X146600393Y-50426559D01*
X146598476Y-50432322D01*
X146595378Y-50438950D01*
X146593888Y-50446112D01*
X146593888Y-50446113D01*
X146580514Y-50510412D01*
X146579544Y-50514696D01*
X146562192Y-50585610D01*
X146561500Y-50596764D01*
X146561464Y-50596762D01*
X146561225Y-50600755D01*
X146560851Y-50604947D01*
X146559360Y-50612115D01*
X146559558Y-50619432D01*
X146561454Y-50689521D01*
X146561500Y-50692928D01*
X146561500Y-61767014D01*
X146541498Y-61835135D01*
X146487842Y-61881628D01*
X146417568Y-61891732D01*
X146352988Y-61862238D01*
X146338416Y-61847330D01*
X146284766Y-61782479D01*
X146284758Y-61782470D01*
X146282233Y-61779418D01*
X146052140Y-61563346D01*
X145796779Y-61377816D01*
X145520179Y-61225753D01*
X145516510Y-61224300D01*
X145516505Y-61224298D01*
X145230372Y-61111010D01*
X145230371Y-61111010D01*
X145226702Y-61109557D01*
X144920975Y-61031060D01*
X144607821Y-60991500D01*
X144292179Y-60991500D01*
X143979025Y-61031060D01*
X143673298Y-61109557D01*
X143669629Y-61111010D01*
X143669628Y-61111010D01*
X143383495Y-61224298D01*
X143383490Y-61224300D01*
X143379821Y-61225753D01*
X143103221Y-61377816D01*
X142847860Y-61563346D01*
X142617767Y-61779418D01*
X142416568Y-62022625D01*
X142247438Y-62289131D01*
X142245754Y-62292710D01*
X142245750Y-62292717D01*
X142114733Y-62571144D01*
X142113044Y-62574734D01*
X142015505Y-62874928D01*
X141956359Y-63184980D01*
X141936540Y-63500000D01*
X141956359Y-63815020D01*
X142015505Y-64125072D01*
X142113044Y-64425266D01*
X142114731Y-64428852D01*
X142114733Y-64428856D01*
X142245750Y-64707283D01*
X142245754Y-64707290D01*
X142247438Y-64710869D01*
X142416568Y-64977375D01*
X142617767Y-65220582D01*
X142847860Y-65436654D01*
X143103221Y-65622184D01*
X143379821Y-65774247D01*
X143383490Y-65775700D01*
X143383495Y-65775702D01*
X143669628Y-65888990D01*
X143673298Y-65890443D01*
X143979025Y-65968940D01*
X144292179Y-66008500D01*
X144607821Y-66008500D01*
X144920975Y-65968940D01*
X145226702Y-65890443D01*
X145230372Y-65888990D01*
X145516505Y-65775702D01*
X145516510Y-65775700D01*
X145520179Y-65774247D01*
X145796779Y-65622184D01*
X146052140Y-65436654D01*
X146282233Y-65220582D01*
X146284760Y-65217527D01*
X146284766Y-65217521D01*
X146338416Y-65152670D01*
X146397249Y-65112932D01*
X146468227Y-65111311D01*
X146528815Y-65148320D01*
X146559775Y-65212210D01*
X146561500Y-65232986D01*
X146561500Y-72048629D01*
X146541498Y-72116750D01*
X146524595Y-72137724D01*
X143842296Y-74820023D01*
X143779984Y-74854049D01*
X143731105Y-74854975D01*
X143663284Y-74842894D01*
X143589452Y-74841992D01*
X143445081Y-74840228D01*
X143445079Y-74840228D01*
X143439911Y-74840165D01*
X143219091Y-74873955D01*
X143006756Y-74943357D01*
X142808607Y-75046507D01*
X142804474Y-75049610D01*
X142804471Y-75049612D01*
X142634100Y-75177530D01*
X142629965Y-75180635D01*
X142626393Y-75184373D01*
X142518729Y-75297037D01*
X142475629Y-75342138D01*
X142368201Y-75499621D01*
X142313293Y-75544621D01*
X142242768Y-75552792D01*
X142179021Y-75521538D01*
X142158324Y-75497054D01*
X142077822Y-75372617D01*
X142077820Y-75372614D01*
X142075014Y-75368277D01*
X141924670Y-75203051D01*
X141920619Y-75199852D01*
X141920615Y-75199848D01*
X141753414Y-75067800D01*
X141753410Y-75067798D01*
X141749359Y-75064598D01*
X141553789Y-74956638D01*
X141548920Y-74954914D01*
X141548916Y-74954912D01*
X141348087Y-74883795D01*
X141348083Y-74883794D01*
X141343212Y-74882069D01*
X141338119Y-74881162D01*
X141338116Y-74881161D01*
X141128373Y-74843800D01*
X141128367Y-74843799D01*
X141123284Y-74842894D01*
X141049452Y-74841992D01*
X140905081Y-74840228D01*
X140905079Y-74840228D01*
X140899911Y-74840165D01*
X140679091Y-74873955D01*
X140466756Y-74943357D01*
X140268607Y-75046507D01*
X140264474Y-75049610D01*
X140264471Y-75049612D01*
X140094100Y-75177530D01*
X140089965Y-75180635D01*
X140086393Y-75184373D01*
X139978729Y-75297037D01*
X139935629Y-75342138D01*
X139828201Y-75499621D01*
X139773293Y-75544621D01*
X139702768Y-75552792D01*
X139639021Y-75521538D01*
X139618324Y-75497054D01*
X139537822Y-75372617D01*
X139537820Y-75372614D01*
X139535014Y-75368277D01*
X139384670Y-75203051D01*
X139380615Y-75199848D01*
X139261407Y-75105703D01*
X139220345Y-75047785D01*
X139213500Y-75006821D01*
X139213500Y-72611371D01*
X139233502Y-72543250D01*
X139250405Y-72522276D01*
X139349040Y-72423641D01*
X139411352Y-72389615D01*
X139463256Y-72389266D01*
X139527585Y-72402354D01*
X139527593Y-72402355D01*
X139532656Y-72403385D01*
X139663324Y-72408176D01*
X139758949Y-72411683D01*
X139758953Y-72411683D01*
X139764113Y-72411872D01*
X139769233Y-72411216D01*
X139769235Y-72411216D01*
X139842270Y-72401860D01*
X139993847Y-72382442D01*
X139998795Y-72380957D01*
X139998802Y-72380956D01*
X140210747Y-72317369D01*
X140215690Y-72315886D01*
X140252347Y-72297928D01*
X140419049Y-72216262D01*
X140419052Y-72216260D01*
X140423684Y-72213991D01*
X140612243Y-72079494D01*
X140776303Y-71916005D01*
X140845370Y-71819888D01*
X140901365Y-71776240D01*
X140972068Y-71769794D01*
X141035033Y-71802597D01*
X141055128Y-71827584D01*
X141056799Y-71830311D01*
X141056804Y-71830317D01*
X141059501Y-71834719D01*
X141211147Y-72009784D01*
X141389349Y-72157730D01*
X141589322Y-72274584D01*
X141805694Y-72357209D01*
X141810760Y-72358240D01*
X141810761Y-72358240D01*
X141863846Y-72369040D01*
X142032656Y-72403385D01*
X142163324Y-72408176D01*
X142258949Y-72411683D01*
X142258953Y-72411683D01*
X142264113Y-72411872D01*
X142269233Y-72411216D01*
X142269235Y-72411216D01*
X142342270Y-72401860D01*
X142493847Y-72382442D01*
X142498795Y-72380957D01*
X142498802Y-72380956D01*
X142710747Y-72317369D01*
X142715690Y-72315886D01*
X142752347Y-72297928D01*
X142919049Y-72216262D01*
X142919052Y-72216260D01*
X142923684Y-72213991D01*
X143112243Y-72079494D01*
X143276303Y-71916005D01*
X143411458Y-71727917D01*
X143514078Y-71520280D01*
X143581408Y-71298671D01*
X143611640Y-71069041D01*
X143613327Y-71000000D01*
X143607032Y-70923434D01*
X143594773Y-70774318D01*
X143594772Y-70774312D01*
X143594349Y-70769167D01*
X143537925Y-70544533D01*
X143535866Y-70539797D01*
X143447630Y-70336868D01*
X143447628Y-70336865D01*
X143445570Y-70332131D01*
X143319764Y-70137665D01*
X143299596Y-70115500D01*
X143192260Y-69997540D01*
X143163887Y-69966358D01*
X143159836Y-69963159D01*
X143159832Y-69963155D01*
X142986177Y-69826011D01*
X142986172Y-69826008D01*
X142982123Y-69822810D01*
X142977607Y-69820317D01*
X142977604Y-69820315D01*
X142783879Y-69713373D01*
X142783875Y-69713371D01*
X142779355Y-69710876D01*
X142774486Y-69709152D01*
X142774482Y-69709150D01*
X142565903Y-69635288D01*
X142565899Y-69635287D01*
X142561028Y-69633562D01*
X142555935Y-69632655D01*
X142555932Y-69632654D01*
X142338095Y-69593851D01*
X142338089Y-69593850D01*
X142333006Y-69592945D01*
X142260096Y-69592054D01*
X142106581Y-69590179D01*
X142106579Y-69590179D01*
X142101411Y-69590116D01*
X141872464Y-69625150D01*
X141652314Y-69697106D01*
X141647726Y-69699494D01*
X141647722Y-69699496D01*
X141451461Y-69801663D01*
X141446872Y-69804052D01*
X141442739Y-69807155D01*
X141442736Y-69807157D01*
X141299074Y-69915022D01*
X141261655Y-69943117D01*
X141101639Y-70110564D01*
X141054836Y-70179174D01*
X140999927Y-70224175D01*
X140929402Y-70232346D01*
X140865655Y-70201092D01*
X140844959Y-70176609D01*
X140822577Y-70142013D01*
X140822574Y-70142009D01*
X140819764Y-70137665D01*
X140799596Y-70115500D01*
X140692260Y-69997540D01*
X140663887Y-69966358D01*
X140659836Y-69963159D01*
X140659832Y-69963155D01*
X140486177Y-69826011D01*
X140486172Y-69826008D01*
X140482123Y-69822810D01*
X140477607Y-69820317D01*
X140477604Y-69820315D01*
X140283879Y-69713373D01*
X140283875Y-69713371D01*
X140279355Y-69710876D01*
X140274486Y-69709152D01*
X140274482Y-69709150D01*
X140065903Y-69635288D01*
X140065899Y-69635287D01*
X140061028Y-69633562D01*
X140055935Y-69632655D01*
X140055932Y-69632654D01*
X139838095Y-69593851D01*
X139838089Y-69593850D01*
X139833006Y-69592945D01*
X139760096Y-69592054D01*
X139606581Y-69590179D01*
X139606579Y-69590179D01*
X139601411Y-69590116D01*
X139372464Y-69625150D01*
X139152314Y-69697106D01*
X139147726Y-69699494D01*
X139147722Y-69699496D01*
X138951461Y-69801663D01*
X138946872Y-69804052D01*
X138942739Y-69807155D01*
X138942736Y-69807157D01*
X138761655Y-69943117D01*
X138760976Y-69942213D01*
X138701730Y-69970131D01*
X138631341Y-69960869D01*
X138577132Y-69915022D01*
X138564325Y-69889866D01*
X138553768Y-69861705D01*
X138553767Y-69861703D01*
X138550615Y-69853295D01*
X138463261Y-69736739D01*
X138346705Y-69649385D01*
X138210316Y-69598255D01*
X138148134Y-69591500D01*
X136251866Y-69591500D01*
X136189684Y-69598255D01*
X136053295Y-69649385D01*
X135936739Y-69736739D01*
X135849385Y-69853295D01*
X135798255Y-69989684D01*
X135791500Y-70051866D01*
X135791500Y-70115500D01*
X135771498Y-70183621D01*
X135717842Y-70230114D01*
X135665500Y-70241500D01*
X133537069Y-70241500D01*
X133518121Y-70240067D01*
X133510780Y-70238950D01*
X133503883Y-70237901D01*
X133503881Y-70237901D01*
X133496651Y-70236801D01*
X133489359Y-70237394D01*
X133489356Y-70237394D01*
X133443982Y-70241085D01*
X133433767Y-70241500D01*
X133425707Y-70241500D01*
X133412417Y-70243049D01*
X133397493Y-70244789D01*
X133393118Y-70245222D01*
X133327661Y-70250546D01*
X133327658Y-70250547D01*
X133320363Y-70251140D01*
X133313399Y-70253396D01*
X133307440Y-70254587D01*
X133301585Y-70255971D01*
X133294319Y-70256818D01*
X133225673Y-70281735D01*
X133221545Y-70283152D01*
X133159064Y-70303393D01*
X133159062Y-70303394D01*
X133152101Y-70305649D01*
X133145846Y-70309445D01*
X133140372Y-70311951D01*
X133134942Y-70314670D01*
X133128063Y-70317167D01*
X133067016Y-70357191D01*
X133063327Y-70359518D01*
X133043135Y-70371771D01*
X133005693Y-70394491D01*
X133005688Y-70394495D01*
X133000892Y-70397405D01*
X132992516Y-70404803D01*
X132992493Y-70404777D01*
X132989503Y-70407426D01*
X132986264Y-70410134D01*
X132980148Y-70414144D01*
X132975121Y-70419451D01*
X132975117Y-70419454D01*
X132926872Y-70470383D01*
X132924494Y-70472825D01*
X129051089Y-74346230D01*
X129036677Y-74358616D01*
X129025082Y-74367149D01*
X129025077Y-74367154D01*
X129019182Y-74371492D01*
X129014443Y-74377070D01*
X129014440Y-74377073D01*
X128984965Y-74411768D01*
X128978035Y-74419284D01*
X128972340Y-74424979D01*
X128970060Y-74427861D01*
X128954719Y-74447251D01*
X128951928Y-74450655D01*
X128909409Y-74500703D01*
X128904667Y-74506285D01*
X128901339Y-74512801D01*
X128897972Y-74517850D01*
X128894805Y-74522979D01*
X128890266Y-74528716D01*
X128859345Y-74594875D01*
X128857442Y-74598769D01*
X128824231Y-74663808D01*
X128822492Y-74670916D01*
X128820393Y-74676559D01*
X128818476Y-74682322D01*
X128815378Y-74688950D01*
X128813888Y-74696112D01*
X128813888Y-74696113D01*
X128800514Y-74760412D01*
X128799544Y-74764696D01*
X128782192Y-74835610D01*
X128781844Y-74841212D01*
X128781844Y-74841215D01*
X128781744Y-74842831D01*
X128781500Y-74846764D01*
X128781464Y-74846762D01*
X128781225Y-74850755D01*
X128780851Y-74854947D01*
X128779360Y-74862115D01*
X128780283Y-74896233D01*
X128781454Y-74939521D01*
X128781500Y-74942928D01*
X128781500Y-119584198D01*
X128761498Y-119652319D01*
X128736496Y-119680716D01*
X128732471Y-119684094D01*
X128727962Y-119687251D01*
X128572251Y-119842962D01*
X128569094Y-119847470D01*
X128569092Y-119847473D01*
X128538264Y-119891500D01*
X128445944Y-120023347D01*
X128443621Y-120028329D01*
X128443618Y-120028334D01*
X128396415Y-120129562D01*
X128352880Y-120222924D01*
X128295885Y-120435629D01*
X128276693Y-120655000D01*
X127508500Y-120655000D01*
X127508500Y-63500000D01*
X132436540Y-63500000D01*
X132456359Y-63815020D01*
X132515505Y-64125072D01*
X132613044Y-64425266D01*
X132614731Y-64428852D01*
X132614733Y-64428856D01*
X132745750Y-64707283D01*
X132745754Y-64707290D01*
X132747438Y-64710869D01*
X132916568Y-64977375D01*
X133117767Y-65220582D01*
X133347860Y-65436654D01*
X133603221Y-65622184D01*
X133879821Y-65774247D01*
X133883490Y-65775700D01*
X133883495Y-65775702D01*
X134169628Y-65888990D01*
X134173298Y-65890443D01*
X134479025Y-65968940D01*
X134792179Y-66008500D01*
X135107821Y-66008500D01*
X135420975Y-65968940D01*
X135726702Y-65890443D01*
X135730372Y-65888990D01*
X136016505Y-65775702D01*
X136016510Y-65775700D01*
X136020179Y-65774247D01*
X136296779Y-65622184D01*
X136552140Y-65436654D01*
X136782233Y-65220582D01*
X136983432Y-64977375D01*
X137152562Y-64710869D01*
X137154246Y-64707290D01*
X137154250Y-64707283D01*
X137285267Y-64428856D01*
X137285269Y-64428852D01*
X137286956Y-64425266D01*
X137384495Y-64125072D01*
X137443641Y-63815020D01*
X137463460Y-63500000D01*
X137443641Y-63184980D01*
X137384495Y-62874928D01*
X137286956Y-62574734D01*
X137285267Y-62571144D01*
X137154250Y-62292717D01*
X137154246Y-62292710D01*
X137152562Y-62289131D01*
X136983432Y-62022625D01*
X136782233Y-61779418D01*
X136552140Y-61563346D01*
X136296779Y-61377816D01*
X136020179Y-61225753D01*
X136016510Y-61224300D01*
X136016505Y-61224298D01*
X135730372Y-61111010D01*
X135730371Y-61111010D01*
X135726702Y-61109557D01*
X135420975Y-61031060D01*
X135107821Y-60991500D01*
X134792179Y-60991500D01*
X134479025Y-61031060D01*
X134173298Y-61109557D01*
X134169629Y-61111010D01*
X134169628Y-61111010D01*
X133883495Y-61224298D01*
X133883490Y-61224300D01*
X133879821Y-61225753D01*
X133603221Y-61377816D01*
X133347860Y-61563346D01*
X133117767Y-61779418D01*
X132916568Y-62022625D01*
X132747438Y-62289131D01*
X132745754Y-62292710D01*
X132745750Y-62292717D01*
X132614733Y-62571144D01*
X132613044Y-62574734D01*
X132515505Y-62874928D01*
X132456359Y-63184980D01*
X132436540Y-63500000D01*
X127508500Y-63500000D01*
X127508500Y-40640000D01*
X132436540Y-40640000D01*
X132456359Y-40955020D01*
X132515505Y-41265072D01*
X132613044Y-41565266D01*
X132614731Y-41568852D01*
X132614733Y-41568856D01*
X132745750Y-41847283D01*
X132745754Y-41847290D01*
X132747438Y-41850869D01*
X132916568Y-42117375D01*
X133117767Y-42360582D01*
X133347860Y-42576654D01*
X133603221Y-42762184D01*
X133879821Y-42914247D01*
X133883490Y-42915700D01*
X133883495Y-42915702D01*
X134169628Y-43028990D01*
X134173298Y-43030443D01*
X134479025Y-43108940D01*
X134792179Y-43148500D01*
X135107821Y-43148500D01*
X135420975Y-43108940D01*
X135726702Y-43030443D01*
X135730372Y-43028990D01*
X136016505Y-42915702D01*
X136016510Y-42915700D01*
X136020179Y-42914247D01*
X136296779Y-42762184D01*
X136552140Y-42576654D01*
X136782233Y-42360582D01*
X136983432Y-42117375D01*
X137152562Y-41850869D01*
X137154246Y-41847290D01*
X137154250Y-41847283D01*
X137285267Y-41568856D01*
X137285269Y-41568852D01*
X137286956Y-41565266D01*
X137384495Y-41265072D01*
X137443641Y-40955020D01*
X137463460Y-40640000D01*
X141936540Y-40640000D01*
X141956359Y-40955020D01*
X142015505Y-41265072D01*
X142113044Y-41565266D01*
X142114731Y-41568852D01*
X142114733Y-41568856D01*
X142245750Y-41847283D01*
X142245754Y-41847290D01*
X142247438Y-41850869D01*
X142416568Y-42117375D01*
X142617767Y-42360582D01*
X142847860Y-42576654D01*
X143103221Y-42762184D01*
X143379821Y-42914247D01*
X143383490Y-42915700D01*
X143383495Y-42915702D01*
X143669628Y-43028990D01*
X143673298Y-43030443D01*
X143979025Y-43108940D01*
X144292179Y-43148500D01*
X144607821Y-43148500D01*
X144920975Y-43108940D01*
X145226702Y-43030443D01*
X145230372Y-43028990D01*
X145516505Y-42915702D01*
X145516510Y-42915700D01*
X145520179Y-42914247D01*
X145796779Y-42762184D01*
X146052140Y-42576654D01*
X146282233Y-42360582D01*
X146483432Y-42117375D01*
X146652562Y-41850869D01*
X146654246Y-41847290D01*
X146654250Y-41847283D01*
X146785267Y-41568856D01*
X146785269Y-41568852D01*
X146786956Y-41565266D01*
X146884495Y-41265072D01*
X146943641Y-40955020D01*
X146963460Y-40640000D01*
X146943641Y-40324980D01*
X146884495Y-40014928D01*
X146786956Y-39714734D01*
X146785267Y-39711144D01*
X146654250Y-39432717D01*
X146654246Y-39432710D01*
X146652562Y-39429131D01*
X146483432Y-39162625D01*
X146282233Y-38919418D01*
X146052140Y-38703346D01*
X145796779Y-38517816D01*
X145520179Y-38365753D01*
X145516510Y-38364300D01*
X145516505Y-38364298D01*
X145230372Y-38251010D01*
X145230371Y-38251010D01*
X145226702Y-38249557D01*
X145214881Y-38246522D01*
X148577273Y-38246522D01*
X148624764Y-38423761D01*
X148628510Y-38434053D01*
X148720586Y-38631511D01*
X148726069Y-38641007D01*
X148851028Y-38819467D01*
X148858084Y-38827875D01*
X149012125Y-38981916D01*
X149020533Y-38988972D01*
X149198993Y-39113931D01*
X149208489Y-39119414D01*
X149405947Y-39211490D01*
X149416239Y-39215236D01*
X149588503Y-39261394D01*
X149602599Y-39261058D01*
X149606000Y-39253116D01*
X149606000Y-39247967D01*
X150114000Y-39247967D01*
X150117973Y-39261498D01*
X150126522Y-39262727D01*
X150303761Y-39215236D01*
X150314053Y-39211490D01*
X150511511Y-39119414D01*
X150521007Y-39113931D01*
X150699467Y-38988972D01*
X150707875Y-38981916D01*
X150861916Y-38827875D01*
X150868972Y-38819467D01*
X150993931Y-38641007D01*
X150999414Y-38631511D01*
X151091490Y-38434053D01*
X151095236Y-38423761D01*
X151141394Y-38251497D01*
X151141058Y-38237401D01*
X151133116Y-38234000D01*
X150132115Y-38234000D01*
X150116876Y-38238475D01*
X150115671Y-38239865D01*
X150114000Y-38247548D01*
X150114000Y-39247967D01*
X149606000Y-39247967D01*
X149606000Y-38252115D01*
X149601525Y-38236876D01*
X149600135Y-38235671D01*
X149592452Y-38234000D01*
X148592033Y-38234000D01*
X148578502Y-38237973D01*
X148577273Y-38246522D01*
X145214881Y-38246522D01*
X144920975Y-38171060D01*
X144607821Y-38131500D01*
X144292179Y-38131500D01*
X143979025Y-38171060D01*
X143673298Y-38249557D01*
X143669629Y-38251010D01*
X143669628Y-38251010D01*
X143383495Y-38364298D01*
X143383490Y-38364300D01*
X143379821Y-38365753D01*
X143103221Y-38517816D01*
X142847860Y-38703346D01*
X142617767Y-38919418D01*
X142416568Y-39162625D01*
X142247438Y-39429131D01*
X142245754Y-39432710D01*
X142245750Y-39432717D01*
X142114733Y-39711144D01*
X142113044Y-39714734D01*
X142015505Y-40014928D01*
X141956359Y-40324980D01*
X141936540Y-40640000D01*
X137463460Y-40640000D01*
X137443641Y-40324980D01*
X137384495Y-40014928D01*
X137286956Y-39714734D01*
X137285267Y-39711144D01*
X137154250Y-39432717D01*
X137154246Y-39432710D01*
X137152562Y-39429131D01*
X136983432Y-39162625D01*
X136782233Y-38919418D01*
X136552140Y-38703346D01*
X136296779Y-38517816D01*
X136020179Y-38365753D01*
X136016510Y-38364300D01*
X136016505Y-38364298D01*
X135730372Y-38251010D01*
X135730371Y-38251010D01*
X135726702Y-38249557D01*
X135420975Y-38171060D01*
X135107821Y-38131500D01*
X134792179Y-38131500D01*
X134479025Y-38171060D01*
X134173298Y-38249557D01*
X134169629Y-38251010D01*
X134169628Y-38251010D01*
X133883495Y-38364298D01*
X133883490Y-38364300D01*
X133879821Y-38365753D01*
X133603221Y-38517816D01*
X133347860Y-38703346D01*
X133117767Y-38919418D01*
X132916568Y-39162625D01*
X132747438Y-39429131D01*
X132745754Y-39432710D01*
X132745750Y-39432717D01*
X132614733Y-39711144D01*
X132613044Y-39714734D01*
X132515505Y-40014928D01*
X132456359Y-40324980D01*
X132436540Y-40640000D01*
X127508500Y-40640000D01*
X127508500Y-38246522D01*
X129527273Y-38246522D01*
X129574764Y-38423761D01*
X129578510Y-38434053D01*
X129670586Y-38631511D01*
X129676069Y-38641007D01*
X129801028Y-38819467D01*
X129808084Y-38827875D01*
X129962125Y-38981916D01*
X129970533Y-38988972D01*
X130148993Y-39113931D01*
X130158489Y-39119414D01*
X130355947Y-39211490D01*
X130366239Y-39215236D01*
X130538503Y-39261394D01*
X130552599Y-39261058D01*
X130556000Y-39253116D01*
X130556000Y-39247967D01*
X131064000Y-39247967D01*
X131067973Y-39261498D01*
X131076522Y-39262727D01*
X131253761Y-39215236D01*
X131264053Y-39211490D01*
X131461511Y-39119414D01*
X131471007Y-39113931D01*
X131649467Y-38988972D01*
X131657875Y-38981916D01*
X131811916Y-38827875D01*
X131818972Y-38819467D01*
X131943931Y-38641007D01*
X131949414Y-38631511D01*
X132041490Y-38434053D01*
X132045236Y-38423761D01*
X132091394Y-38251497D01*
X132091058Y-38237401D01*
X132083116Y-38234000D01*
X131082115Y-38234000D01*
X131066876Y-38238475D01*
X131065671Y-38239865D01*
X131064000Y-38247548D01*
X131064000Y-39247967D01*
X130556000Y-39247967D01*
X130556000Y-38252115D01*
X130551525Y-38236876D01*
X130550135Y-38235671D01*
X130542452Y-38234000D01*
X129542033Y-38234000D01*
X129528502Y-38237973D01*
X129527273Y-38246522D01*
X127508500Y-38246522D01*
X127508500Y-37708503D01*
X129528606Y-37708503D01*
X129528942Y-37722599D01*
X129536884Y-37726000D01*
X130537885Y-37726000D01*
X130553124Y-37721525D01*
X130554329Y-37720135D01*
X130556000Y-37712452D01*
X130556000Y-37707885D01*
X131064000Y-37707885D01*
X131068475Y-37723124D01*
X131069865Y-37724329D01*
X131077548Y-37726000D01*
X132077967Y-37726000D01*
X132091498Y-37722027D01*
X132092727Y-37713478D01*
X132091394Y-37708503D01*
X148578606Y-37708503D01*
X148578942Y-37722599D01*
X148586884Y-37726000D01*
X149587885Y-37726000D01*
X149603124Y-37721525D01*
X149604329Y-37720135D01*
X149606000Y-37712452D01*
X149606000Y-37707885D01*
X150114000Y-37707885D01*
X150118475Y-37723124D01*
X150119865Y-37724329D01*
X150127548Y-37726000D01*
X151127967Y-37726000D01*
X151141498Y-37722027D01*
X151142727Y-37713478D01*
X151095236Y-37536239D01*
X151091490Y-37525947D01*
X150999414Y-37328489D01*
X150993931Y-37318993D01*
X150868972Y-37140533D01*
X150861916Y-37132125D01*
X150707875Y-36978084D01*
X150699467Y-36971028D01*
X150521007Y-36846069D01*
X150511511Y-36840586D01*
X150314053Y-36748510D01*
X150303761Y-36744764D01*
X150131497Y-36698606D01*
X150117401Y-36698942D01*
X150114000Y-36706884D01*
X150114000Y-37707885D01*
X149606000Y-37707885D01*
X149606000Y-36712033D01*
X149602027Y-36698502D01*
X149593478Y-36697273D01*
X149416239Y-36744764D01*
X149405947Y-36748510D01*
X149208489Y-36840586D01*
X149198993Y-36846069D01*
X149020533Y-36971028D01*
X149012125Y-36978084D01*
X148858084Y-37132125D01*
X148851028Y-37140533D01*
X148726069Y-37318993D01*
X148720586Y-37328489D01*
X148628510Y-37525947D01*
X148624764Y-37536239D01*
X148578606Y-37708503D01*
X132091394Y-37708503D01*
X132045236Y-37536239D01*
X132041490Y-37525947D01*
X131949414Y-37328489D01*
X131943931Y-37318993D01*
X131818972Y-37140533D01*
X131811916Y-37132125D01*
X131657875Y-36978084D01*
X131649467Y-36971028D01*
X131471007Y-36846069D01*
X131461511Y-36840586D01*
X131264053Y-36748510D01*
X131253761Y-36744764D01*
X131081497Y-36698606D01*
X131067401Y-36698942D01*
X131064000Y-36706884D01*
X131064000Y-37707885D01*
X130556000Y-37707885D01*
X130556000Y-36712033D01*
X130552027Y-36698502D01*
X130543478Y-36697273D01*
X130366239Y-36744764D01*
X130355947Y-36748510D01*
X130158489Y-36840586D01*
X130148993Y-36846069D01*
X129970533Y-36971028D01*
X129962125Y-36978084D01*
X129808084Y-37132125D01*
X129801028Y-37140533D01*
X129676069Y-37318993D01*
X129670586Y-37328489D01*
X129578510Y-37525947D01*
X129574764Y-37536239D01*
X129528606Y-37708503D01*
X127508500Y-37708503D01*
X127508500Y-32384500D01*
X127528502Y-32316379D01*
X127582158Y-32269886D01*
X127634500Y-32258500D01*
X151765500Y-32258500D01*
X151833621Y-32278502D01*
G37*
%TD.AperFunction*%
%TA.AperFunction,Conductor*%
G36*
X130507012Y-100160147D02*
G01*
X130513595Y-100166276D01*
X136941458Y-106594139D01*
X136975484Y-106656451D01*
X136970419Y-106727266D01*
X136955828Y-106755144D01*
X136852409Y-106903945D01*
X136758890Y-107108206D01*
X136703022Y-107325800D01*
X136691500Y-107467458D01*
X136691500Y-109092542D01*
X136703022Y-109234200D01*
X136758890Y-109451794D01*
X136852409Y-109656055D01*
X136980620Y-109840527D01*
X137139473Y-109999380D01*
X137323945Y-110127591D01*
X137528206Y-110221110D01*
X137745800Y-110276978D01*
X137799705Y-110281362D01*
X137884908Y-110288293D01*
X137884918Y-110288293D01*
X137887458Y-110288500D01*
X141512542Y-110288500D01*
X141515082Y-110288293D01*
X141515092Y-110288293D01*
X141600295Y-110281362D01*
X141654200Y-110276978D01*
X141871794Y-110221110D01*
X142076055Y-110127591D01*
X142260527Y-109999380D01*
X142419380Y-109840527D01*
X142522036Y-109692825D01*
X142577337Y-109648303D01*
X142647930Y-109640748D01*
X142711402Y-109672557D01*
X142747601Y-109733632D01*
X142751500Y-109764735D01*
X142751500Y-111545265D01*
X142731498Y-111613386D01*
X142677842Y-111659879D01*
X142607568Y-111669983D01*
X142542988Y-111640489D01*
X142522035Y-111617175D01*
X142519402Y-111613386D01*
X142419380Y-111469473D01*
X142260527Y-111310620D01*
X142076055Y-111182409D01*
X141871794Y-111088890D01*
X141654200Y-111033022D01*
X141600295Y-111028638D01*
X141515092Y-111021707D01*
X141515082Y-111021707D01*
X141512542Y-111021500D01*
X137887458Y-111021500D01*
X137884918Y-111021707D01*
X137884908Y-111021707D01*
X137799705Y-111028638D01*
X137745800Y-111033022D01*
X137528206Y-111088890D01*
X137323945Y-111182409D01*
X137139473Y-111310620D01*
X136980620Y-111469473D01*
X136852409Y-111653945D01*
X136758890Y-111858206D01*
X136703022Y-112075800D01*
X136702587Y-112081151D01*
X136696522Y-112155715D01*
X136671064Y-112221990D01*
X136613815Y-112263980D01*
X136570937Y-112271500D01*
X134481867Y-112271500D01*
X134413746Y-112251498D01*
X134378655Y-112217772D01*
X134356198Y-112185700D01*
X134194300Y-112023802D01*
X134189792Y-112020645D01*
X134189789Y-112020643D01*
X134111611Y-111965902D01*
X134006749Y-111892477D01*
X134001767Y-111890154D01*
X134001762Y-111890151D01*
X133804225Y-111798039D01*
X133804224Y-111798039D01*
X133799243Y-111795716D01*
X133793935Y-111794294D01*
X133793933Y-111794293D01*
X133583402Y-111737881D01*
X133583400Y-111737881D01*
X133578087Y-111736457D01*
X133350000Y-111716502D01*
X133121913Y-111736457D01*
X133116600Y-111737881D01*
X133116598Y-111737881D01*
X132906067Y-111794293D01*
X132906065Y-111794294D01*
X132900757Y-111795716D01*
X132895776Y-111798039D01*
X132895775Y-111798039D01*
X132698238Y-111890151D01*
X132698233Y-111890154D01*
X132693251Y-111892477D01*
X132588389Y-111965902D01*
X132510211Y-112020643D01*
X132510208Y-112020645D01*
X132505700Y-112023802D01*
X132343802Y-112185700D01*
X132212477Y-112373251D01*
X132210154Y-112378233D01*
X132210151Y-112378238D01*
X132118039Y-112575775D01*
X132115716Y-112580757D01*
X132056457Y-112801913D01*
X132036502Y-113030000D01*
X132056457Y-113258087D01*
X132115716Y-113479243D01*
X132118039Y-113484224D01*
X132118039Y-113484225D01*
X132210151Y-113681762D01*
X132210154Y-113681767D01*
X132212477Y-113686749D01*
X132343802Y-113874300D01*
X132505700Y-114036198D01*
X132510208Y-114039355D01*
X132510211Y-114039357D01*
X132588389Y-114094098D01*
X132693251Y-114167523D01*
X132698233Y-114169846D01*
X132698238Y-114169849D01*
X132895775Y-114261961D01*
X132900757Y-114264284D01*
X132906065Y-114265706D01*
X132906067Y-114265707D01*
X133116598Y-114322119D01*
X133116600Y-114322119D01*
X133121913Y-114323543D01*
X133350000Y-114343498D01*
X133578087Y-114323543D01*
X133583400Y-114322119D01*
X133583402Y-114322119D01*
X133793933Y-114265707D01*
X133793935Y-114265706D01*
X133799243Y-114264284D01*
X133804225Y-114261961D01*
X134001762Y-114169849D01*
X134001767Y-114169846D01*
X134006749Y-114167523D01*
X134111611Y-114094098D01*
X134189789Y-114039357D01*
X134189792Y-114039355D01*
X134194300Y-114036198D01*
X134356198Y-113874300D01*
X134378655Y-113842229D01*
X134434110Y-113797901D01*
X134481867Y-113788500D01*
X136570937Y-113788500D01*
X136639058Y-113808502D01*
X136685551Y-113862158D01*
X136696522Y-113904285D01*
X136703022Y-113984200D01*
X136758890Y-114201794D01*
X136852409Y-114406055D01*
X136980620Y-114590527D01*
X137139473Y-114749380D01*
X137323945Y-114877591D01*
X137528206Y-114971110D01*
X137745800Y-115026978D01*
X137799705Y-115031362D01*
X137884908Y-115038293D01*
X137884918Y-115038293D01*
X137887458Y-115038500D01*
X141512542Y-115038500D01*
X141515082Y-115038293D01*
X141515092Y-115038293D01*
X141600295Y-115031362D01*
X141654200Y-115026978D01*
X141871794Y-114971110D01*
X142076055Y-114877591D01*
X142260527Y-114749380D01*
X142419380Y-114590527D01*
X142522036Y-114442825D01*
X142577337Y-114398303D01*
X142647930Y-114390748D01*
X142711402Y-114422557D01*
X142747601Y-114483632D01*
X142751500Y-114514735D01*
X142751500Y-115203629D01*
X142731498Y-115271750D01*
X142714595Y-115292724D01*
X142137194Y-115870125D01*
X142074882Y-115904151D01*
X142004067Y-115899086D01*
X141995648Y-115895594D01*
X141876899Y-115841227D01*
X141876896Y-115841226D01*
X141871794Y-115838890D01*
X141861286Y-115836192D01*
X141659396Y-115784356D01*
X141659395Y-115784356D01*
X141654200Y-115783022D01*
X141600295Y-115778638D01*
X141515092Y-115771707D01*
X141515082Y-115771707D01*
X141512542Y-115771500D01*
X137887458Y-115771500D01*
X137884918Y-115771707D01*
X137884908Y-115771707D01*
X137799705Y-115778638D01*
X137745800Y-115783022D01*
X137740605Y-115784356D01*
X137740604Y-115784356D01*
X137538714Y-115836192D01*
X137528206Y-115838890D01*
X137323945Y-115932409D01*
X137139473Y-116060620D01*
X136980620Y-116219473D01*
X136852409Y-116403945D01*
X136758890Y-116608206D01*
X136703022Y-116825800D01*
X136691500Y-116967458D01*
X136691500Y-118592542D01*
X136703022Y-118734200D01*
X136758890Y-118951794D01*
X136852409Y-119156055D01*
X136980620Y-119340527D01*
X137139473Y-119499380D01*
X137323945Y-119627591D01*
X137329041Y-119629924D01*
X137329053Y-119629931D01*
X137374934Y-119650937D01*
X137428545Y-119697481D01*
X137448482Y-119765621D01*
X137428415Y-119833722D01*
X137374714Y-119880164D01*
X137322482Y-119891500D01*
X130606606Y-119891500D01*
X130538485Y-119871498D01*
X130510441Y-119846807D01*
X130507749Y-119842962D01*
X130352038Y-119687251D01*
X130347529Y-119684094D01*
X130343504Y-119680716D01*
X130304181Y-119621605D01*
X130298500Y-119584198D01*
X130298500Y-100255371D01*
X130318502Y-100187250D01*
X130372158Y-100140757D01*
X130442432Y-100130653D01*
X130507012Y-100160147D01*
G37*
%TD.AperFunction*%
%TA.AperFunction,Conductor*%
G36*
X139807026Y-76875144D02*
G01*
X139834875Y-76906994D01*
X139894987Y-77005088D01*
X140041250Y-77173938D01*
X140189124Y-77296705D01*
X140190985Y-77298250D01*
X140230620Y-77357152D01*
X140236500Y-77395194D01*
X140236500Y-89698629D01*
X140216498Y-89766750D01*
X140199595Y-89787724D01*
X137572724Y-92414595D01*
X137510412Y-92448621D01*
X137483629Y-92451500D01*
X136251866Y-92451500D01*
X136189684Y-92458255D01*
X136053295Y-92509385D01*
X135936739Y-92596739D01*
X135849385Y-92713295D01*
X135798255Y-92849684D01*
X135791500Y-92911866D01*
X135791500Y-94808134D01*
X135798255Y-94870316D01*
X135849385Y-95006705D01*
X135936739Y-95123261D01*
X136053295Y-95210615D01*
X136189684Y-95261745D01*
X136251866Y-95268500D01*
X138148134Y-95268500D01*
X138210316Y-95261745D01*
X138346705Y-95210615D01*
X138463261Y-95123261D01*
X138550615Y-95006705D01*
X138565686Y-94966504D01*
X138608328Y-94909739D01*
X138674890Y-94885040D01*
X138744239Y-94900248D01*
X138764150Y-94913788D01*
X138888517Y-95017039D01*
X138889349Y-95017730D01*
X138889206Y-95017902D01*
X138932101Y-95071570D01*
X138941500Y-95119321D01*
X138941500Y-95388133D01*
X138921498Y-95456254D01*
X138887772Y-95491345D01*
X138855700Y-95513802D01*
X138693802Y-95675700D01*
X138562477Y-95863251D01*
X138560154Y-95868233D01*
X138560151Y-95868238D01*
X138468039Y-96065775D01*
X138465716Y-96070757D01*
X138406457Y-96291913D01*
X138386502Y-96520000D01*
X138406457Y-96748087D01*
X138465716Y-96969243D01*
X138468039Y-96974224D01*
X138468039Y-96974225D01*
X138560151Y-97171762D01*
X138560154Y-97171767D01*
X138562477Y-97176749D01*
X138693802Y-97364300D01*
X138855700Y-97526198D01*
X138860208Y-97529355D01*
X138860211Y-97529357D01*
X138963876Y-97601944D01*
X139043251Y-97657523D01*
X139048235Y-97659847D01*
X139050528Y-97661171D01*
X139099521Y-97712553D01*
X139112957Y-97782267D01*
X139086571Y-97848178D01*
X139050528Y-97879409D01*
X139038998Y-97886066D01*
X138986952Y-97922509D01*
X138978576Y-97932988D01*
X138985644Y-97946434D01*
X139687188Y-98647978D01*
X139701132Y-98655592D01*
X139702965Y-98655461D01*
X139709580Y-98651210D01*
X140415077Y-97945713D01*
X140421507Y-97933938D01*
X140412211Y-97921923D01*
X140361002Y-97886066D01*
X140349472Y-97879409D01*
X140300479Y-97828027D01*
X140287042Y-97758313D01*
X140313429Y-97692402D01*
X140349472Y-97661171D01*
X140351765Y-97659847D01*
X140356749Y-97657523D01*
X140436124Y-97601944D01*
X140539789Y-97529357D01*
X140539792Y-97529355D01*
X140544300Y-97526198D01*
X140706198Y-97364300D01*
X140837523Y-97176749D01*
X140839846Y-97171767D01*
X140839849Y-97171762D01*
X140931961Y-96974225D01*
X140931961Y-96974224D01*
X140934284Y-96969243D01*
X140993543Y-96748087D01*
X141013498Y-96520000D01*
X140993543Y-96291913D01*
X140934284Y-96070757D01*
X140931961Y-96065775D01*
X140839849Y-95868238D01*
X140839846Y-95868233D01*
X140837523Y-95863251D01*
X140706198Y-95675700D01*
X140544300Y-95513802D01*
X140512229Y-95491345D01*
X140467901Y-95435890D01*
X140458500Y-95388133D01*
X140458500Y-95114052D01*
X140478502Y-95045931D01*
X140511332Y-95011473D01*
X140608039Y-94942493D01*
X140608042Y-94942491D01*
X140612243Y-94939494D01*
X140776303Y-94776005D01*
X140845372Y-94679886D01*
X140901364Y-94636240D01*
X140972067Y-94629794D01*
X141035032Y-94662597D01*
X141055121Y-94687573D01*
X141056800Y-94690312D01*
X141059501Y-94694719D01*
X141211147Y-94869784D01*
X141389349Y-95017730D01*
X141589322Y-95134584D01*
X141805694Y-95217209D01*
X141810760Y-95218240D01*
X141810761Y-95218240D01*
X141856472Y-95227540D01*
X142032656Y-95263385D01*
X142162089Y-95268131D01*
X142258949Y-95271683D01*
X142258953Y-95271683D01*
X142264113Y-95271872D01*
X142446594Y-95248495D01*
X142516703Y-95259679D01*
X142551698Y-95284379D01*
X142714595Y-95447276D01*
X142748621Y-95509588D01*
X142751500Y-95536371D01*
X142751500Y-106795265D01*
X142731498Y-106863386D01*
X142677842Y-106909879D01*
X142607568Y-106919983D01*
X142542988Y-106890489D01*
X142522035Y-106867175D01*
X142519402Y-106863386D01*
X142419380Y-106719473D01*
X142260527Y-106560620D01*
X142076055Y-106432409D01*
X141871794Y-106338890D01*
X141654200Y-106283022D01*
X141600295Y-106278638D01*
X141515092Y-106271707D01*
X141515082Y-106271707D01*
X141512542Y-106271500D01*
X138816371Y-106271500D01*
X138748250Y-106251498D01*
X138727276Y-106234595D01*
X132598743Y-100106062D01*
X138978493Y-100106062D01*
X138987789Y-100118077D01*
X139038994Y-100153931D01*
X139048489Y-100159414D01*
X139245947Y-100251490D01*
X139256239Y-100255236D01*
X139466688Y-100311625D01*
X139477481Y-100313528D01*
X139694525Y-100332517D01*
X139705475Y-100332517D01*
X139922519Y-100313528D01*
X139933312Y-100311625D01*
X140143761Y-100255236D01*
X140154053Y-100251490D01*
X140351511Y-100159414D01*
X140361006Y-100153931D01*
X140413048Y-100117491D01*
X140421424Y-100107012D01*
X140414356Y-100093566D01*
X139712812Y-99392022D01*
X139698868Y-99384408D01*
X139697035Y-99384539D01*
X139690420Y-99388790D01*
X138984923Y-100094287D01*
X138978493Y-100106062D01*
X132598743Y-100106062D01*
X131605405Y-99112724D01*
X131571379Y-99050412D01*
X131568698Y-99025475D01*
X138387483Y-99025475D01*
X138406472Y-99242519D01*
X138408375Y-99253312D01*
X138464764Y-99463761D01*
X138468510Y-99474053D01*
X138560586Y-99671511D01*
X138566069Y-99681006D01*
X138602509Y-99733048D01*
X138612988Y-99741424D01*
X138626434Y-99734356D01*
X139327978Y-99032812D01*
X139334356Y-99021132D01*
X140064408Y-99021132D01*
X140064539Y-99022965D01*
X140068790Y-99029580D01*
X140774287Y-99735077D01*
X140786062Y-99741507D01*
X140798077Y-99732211D01*
X140833931Y-99681006D01*
X140839414Y-99671511D01*
X140931490Y-99474053D01*
X140935236Y-99463761D01*
X140991625Y-99253312D01*
X140993528Y-99242519D01*
X141012517Y-99025475D01*
X141012517Y-99014525D01*
X140993528Y-98797481D01*
X140991625Y-98786688D01*
X140935236Y-98576239D01*
X140931490Y-98565947D01*
X140839414Y-98368489D01*
X140833931Y-98358994D01*
X140797491Y-98306952D01*
X140787012Y-98298576D01*
X140773566Y-98305644D01*
X140072022Y-99007188D01*
X140064408Y-99021132D01*
X139334356Y-99021132D01*
X139335592Y-99018868D01*
X139335461Y-99017035D01*
X139331210Y-99010420D01*
X138625713Y-98304923D01*
X138613938Y-98298493D01*
X138601923Y-98307789D01*
X138566069Y-98358994D01*
X138560586Y-98368489D01*
X138468510Y-98565947D01*
X138464764Y-98576239D01*
X138408375Y-98786688D01*
X138406472Y-98797481D01*
X138387483Y-99014525D01*
X138387483Y-99025475D01*
X131568698Y-99025475D01*
X131568500Y-99023629D01*
X131568500Y-86360000D01*
X132436540Y-86360000D01*
X132456359Y-86675020D01*
X132515505Y-86985072D01*
X132613044Y-87285266D01*
X132614731Y-87288852D01*
X132614733Y-87288856D01*
X132745750Y-87567283D01*
X132745754Y-87567290D01*
X132747438Y-87570869D01*
X132916568Y-87837375D01*
X133117767Y-88080582D01*
X133347860Y-88296654D01*
X133603221Y-88482184D01*
X133879821Y-88634247D01*
X133883490Y-88635700D01*
X133883495Y-88635702D01*
X134169628Y-88748990D01*
X134173298Y-88750443D01*
X134479025Y-88828940D01*
X134792179Y-88868500D01*
X135107821Y-88868500D01*
X135420975Y-88828940D01*
X135726702Y-88750443D01*
X135730372Y-88748990D01*
X136016505Y-88635702D01*
X136016510Y-88635700D01*
X136020179Y-88634247D01*
X136296779Y-88482184D01*
X136552140Y-88296654D01*
X136782233Y-88080582D01*
X136983432Y-87837375D01*
X137152562Y-87570869D01*
X137154246Y-87567290D01*
X137154250Y-87567283D01*
X137285267Y-87288856D01*
X137285269Y-87288852D01*
X137286956Y-87285266D01*
X137384495Y-86985072D01*
X137443641Y-86675020D01*
X137463460Y-86360000D01*
X137443641Y-86044980D01*
X137384495Y-85734928D01*
X137286956Y-85434734D01*
X137285267Y-85431144D01*
X137154250Y-85152717D01*
X137154246Y-85152710D01*
X137152562Y-85149131D01*
X136983432Y-84882625D01*
X136782233Y-84639418D01*
X136552140Y-84423346D01*
X136296779Y-84237816D01*
X136020179Y-84085753D01*
X136016510Y-84084300D01*
X136016505Y-84084298D01*
X135730372Y-83971010D01*
X135730371Y-83971010D01*
X135726702Y-83969557D01*
X135420975Y-83891060D01*
X135107821Y-83851500D01*
X134792179Y-83851500D01*
X134479025Y-83891060D01*
X134173298Y-83969557D01*
X134169629Y-83971010D01*
X134169628Y-83971010D01*
X133883495Y-84084298D01*
X133883490Y-84084300D01*
X133879821Y-84085753D01*
X133603221Y-84237816D01*
X133347860Y-84423346D01*
X133117767Y-84639418D01*
X132916568Y-84882625D01*
X132747438Y-85149131D01*
X132745754Y-85152710D01*
X132745750Y-85152717D01*
X132614733Y-85431144D01*
X132613044Y-85434734D01*
X132515505Y-85734928D01*
X132456359Y-86044980D01*
X132436540Y-86360000D01*
X131568500Y-86360000D01*
X131568500Y-79131371D01*
X131588502Y-79063250D01*
X131605405Y-79042276D01*
X133052276Y-77595405D01*
X133114588Y-77561379D01*
X133141371Y-77558500D01*
X134273134Y-77558500D01*
X134335316Y-77551745D01*
X134471705Y-77500615D01*
X134588261Y-77413261D01*
X134675615Y-77296705D01*
X134697799Y-77237529D01*
X134719598Y-77179382D01*
X134762240Y-77122618D01*
X134828802Y-77097918D01*
X134898150Y-77113126D01*
X134932817Y-77141114D01*
X134961250Y-77173938D01*
X135133126Y-77316632D01*
X135326000Y-77429338D01*
X135534692Y-77509030D01*
X135539760Y-77510061D01*
X135539763Y-77510062D01*
X135647017Y-77531883D01*
X135753597Y-77553567D01*
X135758772Y-77553757D01*
X135758774Y-77553757D01*
X135971673Y-77561564D01*
X135971677Y-77561564D01*
X135976837Y-77561753D01*
X135981957Y-77561097D01*
X135981959Y-77561097D01*
X136193288Y-77534025D01*
X136193289Y-77534025D01*
X136198416Y-77533368D01*
X136203366Y-77531883D01*
X136407429Y-77470661D01*
X136407434Y-77470659D01*
X136412384Y-77469174D01*
X136612994Y-77370896D01*
X136794860Y-77241173D01*
X136953096Y-77083489D01*
X137083453Y-76902077D01*
X137084776Y-76903028D01*
X137131645Y-76859857D01*
X137201580Y-76847625D01*
X137267026Y-76875144D01*
X137294875Y-76906994D01*
X137354987Y-77005088D01*
X137501250Y-77173938D01*
X137673126Y-77316632D01*
X137866000Y-77429338D01*
X138074692Y-77509030D01*
X138079760Y-77510061D01*
X138079763Y-77510062D01*
X138187017Y-77531883D01*
X138293597Y-77553567D01*
X138298772Y-77553757D01*
X138298774Y-77553757D01*
X138511673Y-77561564D01*
X138511677Y-77561564D01*
X138516837Y-77561753D01*
X138521957Y-77561097D01*
X138521959Y-77561097D01*
X138733288Y-77534025D01*
X138733289Y-77534025D01*
X138738416Y-77533368D01*
X138743366Y-77531883D01*
X138947429Y-77470661D01*
X138947434Y-77470659D01*
X138952384Y-77469174D01*
X139152994Y-77370896D01*
X139334860Y-77241173D01*
X139493096Y-77083489D01*
X139623453Y-76902077D01*
X139624776Y-76903028D01*
X139671645Y-76859857D01*
X139741580Y-76847625D01*
X139807026Y-76875144D01*
G37*
%TD.AperFunction*%
%TA.AperFunction,Conductor*%
G36*
X135193939Y-71778502D02*
G01*
X135240432Y-71832158D01*
X135250536Y-71902432D01*
X135239967Y-71937847D01*
X135234371Y-71949821D01*
X135232442Y-71953769D01*
X135199231Y-72018808D01*
X135197492Y-72025916D01*
X135195393Y-72031559D01*
X135193476Y-72037322D01*
X135190378Y-72043950D01*
X135188888Y-72051112D01*
X135188888Y-72051113D01*
X135175514Y-72115412D01*
X135174544Y-72119696D01*
X135157192Y-72190610D01*
X135156500Y-72201764D01*
X135156464Y-72201762D01*
X135156225Y-72205755D01*
X135155851Y-72209947D01*
X135154360Y-72217115D01*
X135154558Y-72224432D01*
X135156454Y-72294521D01*
X135156500Y-72297928D01*
X135156500Y-75007655D01*
X135136498Y-75075776D01*
X135106153Y-75108415D01*
X135101774Y-75111703D01*
X135009965Y-75180635D01*
X134953537Y-75239684D01*
X134929283Y-75265064D01*
X134867759Y-75300494D01*
X134796846Y-75297037D01*
X134739060Y-75255791D01*
X134720207Y-75222243D01*
X134678767Y-75111703D01*
X134675615Y-75103295D01*
X134588261Y-74986739D01*
X134471705Y-74899385D01*
X134335316Y-74848255D01*
X134273134Y-74841500D01*
X132476866Y-74841500D01*
X132414684Y-74848255D01*
X132278295Y-74899385D01*
X132161739Y-74986739D01*
X132074385Y-75103295D01*
X132023255Y-75239684D01*
X132016500Y-75301866D01*
X132016500Y-76433629D01*
X131996498Y-76501750D01*
X131979595Y-76522724D01*
X130513595Y-77988724D01*
X130451283Y-78022750D01*
X130380468Y-78017685D01*
X130323632Y-77975138D01*
X130298821Y-77908618D01*
X130298500Y-77899629D01*
X130298500Y-75296371D01*
X130318502Y-75228250D01*
X130335405Y-75207276D01*
X133747276Y-71795405D01*
X133809588Y-71761379D01*
X133836371Y-71758500D01*
X135125818Y-71758500D01*
X135193939Y-71778502D01*
G37*
%TD.AperFunction*%
%TA.AperFunction,Conductor*%
G36*
X148466534Y-50710313D02*
G01*
X148523370Y-50752860D01*
X148548023Y-50817387D01*
X148566457Y-51028087D01*
X148625716Y-51249243D01*
X148628039Y-51254224D01*
X148628039Y-51254225D01*
X148720151Y-51451762D01*
X148720154Y-51451767D01*
X148722477Y-51456749D01*
X148853802Y-51644300D01*
X149015700Y-51806198D01*
X149047771Y-51828655D01*
X149092099Y-51884110D01*
X149101500Y-51931867D01*
X149101500Y-72048629D01*
X149081498Y-72116750D01*
X149064595Y-72137724D01*
X148849224Y-72353095D01*
X148786912Y-72387121D01*
X148760129Y-72390000D01*
X148204500Y-72390000D01*
X148136379Y-72369998D01*
X148089886Y-72316342D01*
X148078500Y-72264000D01*
X148078500Y-51046371D01*
X148098502Y-50978250D01*
X148115405Y-50957276D01*
X148333407Y-50739274D01*
X148395719Y-50705248D01*
X148466534Y-50710313D01*
G37*
%TD.AperFunction*%
%TA.AperFunction,Conductor*%
G36*
X148686545Y-128776183D02*
G01*
X148731780Y-128828388D01*
X148763616Y-128896662D01*
X148763619Y-128896668D01*
X148765944Y-128901653D01*
X148769100Y-128906160D01*
X148769101Y-128906162D01*
X148883624Y-129069717D01*
X148892251Y-129082038D01*
X148914595Y-129104382D01*
X148948621Y-129166694D01*
X148951500Y-129193477D01*
X148951500Y-135461497D01*
X148931498Y-135529618D01*
X148914595Y-135550592D01*
X147383864Y-137081323D01*
X147321552Y-137115349D01*
X147305754Y-137117748D01*
X147227096Y-137124630D01*
X147097394Y-137135977D01*
X147097389Y-137135978D01*
X147091913Y-137136457D01*
X147086600Y-137137881D01*
X147086598Y-137137881D01*
X146876067Y-137194293D01*
X146876065Y-137194294D01*
X146870757Y-137195716D01*
X146865776Y-137198039D01*
X146865775Y-137198039D01*
X146668238Y-137290151D01*
X146668233Y-137290154D01*
X146663251Y-137292477D01*
X146609002Y-137330463D01*
X146480211Y-137420643D01*
X146480208Y-137420645D01*
X146475700Y-137423802D01*
X146313802Y-137585700D01*
X146310645Y-137590208D01*
X146310643Y-137590211D01*
X146255902Y-137668389D01*
X146182477Y-137773251D01*
X146180154Y-137778233D01*
X146180151Y-137778238D01*
X146093108Y-137964905D01*
X146085716Y-137980757D01*
X146034102Y-138173384D01*
X146030781Y-138185777D01*
X145993829Y-138246400D01*
X145929969Y-138277421D01*
X145859474Y-138268993D01*
X145804727Y-138223790D01*
X145793091Y-138202398D01*
X145742726Y-138083746D01*
X145738045Y-138074793D01*
X145614126Y-137878013D01*
X145608086Y-137869940D01*
X145454297Y-137695500D01*
X145447044Y-137688496D01*
X145267346Y-137540890D01*
X145259064Y-137535134D01*
X145058081Y-137418159D01*
X145048976Y-137413797D01*
X144831885Y-137330463D01*
X144822196Y-137327612D01*
X144671736Y-137296179D01*
X144657675Y-137297302D01*
X144654000Y-137307410D01*
X144654000Y-138757885D01*
X144658475Y-138773124D01*
X144659865Y-138774329D01*
X144667548Y-138776000D01*
X145889886Y-138776000D01*
X145921979Y-138766577D01*
X145992975Y-138766577D01*
X146052701Y-138804961D01*
X146079182Y-138854861D01*
X146084290Y-138873925D01*
X146084293Y-138873933D01*
X146085716Y-138879243D01*
X146088039Y-138884224D01*
X146088039Y-138884225D01*
X146180151Y-139081762D01*
X146180154Y-139081767D01*
X146182477Y-139086749D01*
X146313802Y-139274300D01*
X146374595Y-139335093D01*
X146408621Y-139397405D01*
X146411500Y-139424188D01*
X146411500Y-143081497D01*
X146391498Y-143149618D01*
X146374595Y-143170592D01*
X144890514Y-144654673D01*
X144828202Y-144688699D01*
X144799880Y-144691569D01*
X144690081Y-144690228D01*
X144690079Y-144690228D01*
X144684911Y-144690165D01*
X144464091Y-144723955D01*
X144251756Y-144793357D01*
X144053607Y-144896507D01*
X144049474Y-144899610D01*
X144049471Y-144899612D01*
X143879100Y-145027530D01*
X143874965Y-145030635D01*
X143720629Y-145192138D01*
X143717715Y-145196410D01*
X143717714Y-145196411D01*
X143705199Y-145214757D01*
X143614337Y-145347957D01*
X143612898Y-145350066D01*
X143557987Y-145395069D01*
X143487462Y-145403240D01*
X143423715Y-145371986D01*
X143403018Y-145347502D01*
X143322426Y-145222926D01*
X143316136Y-145214757D01*
X143172806Y-145057240D01*
X143165273Y-145050215D01*
X142998139Y-144918222D01*
X142989552Y-144912517D01*
X142803117Y-144809599D01*
X142793705Y-144805369D01*
X142592959Y-144734280D01*
X142582988Y-144731646D01*
X142511837Y-144718972D01*
X142498540Y-144720432D01*
X142494000Y-144734989D01*
X142494000Y-146178000D01*
X142473998Y-146246121D01*
X142420342Y-146292614D01*
X142368000Y-146304000D01*
X137032000Y-146304000D01*
X136963879Y-146283998D01*
X136917386Y-146230342D01*
X136906000Y-146178000D01*
X136906000Y-145777885D01*
X137414000Y-145777885D01*
X137418475Y-145793124D01*
X137419865Y-145794329D01*
X137427548Y-145796000D01*
X139427885Y-145796000D01*
X139443124Y-145791525D01*
X139444329Y-145790135D01*
X139446000Y-145782452D01*
X139446000Y-145777885D01*
X139954000Y-145777885D01*
X139958475Y-145793124D01*
X139959865Y-145794329D01*
X139967548Y-145796000D01*
X141967885Y-145796000D01*
X141983124Y-145791525D01*
X141984329Y-145790135D01*
X141986000Y-145782452D01*
X141986000Y-144733102D01*
X141982082Y-144719758D01*
X141967806Y-144717771D01*
X141929324Y-144723660D01*
X141919288Y-144726051D01*
X141716868Y-144792212D01*
X141707359Y-144796209D01*
X141518463Y-144894542D01*
X141509738Y-144900036D01*
X141339433Y-145027905D01*
X141331726Y-145034748D01*
X141184590Y-145188717D01*
X141178104Y-145196727D01*
X141073193Y-145350521D01*
X141018282Y-145395524D01*
X140947757Y-145403695D01*
X140884010Y-145372441D01*
X140863313Y-145347957D01*
X140782427Y-145222926D01*
X140776136Y-145214757D01*
X140632806Y-145057240D01*
X140625273Y-145050215D01*
X140458139Y-144918222D01*
X140449552Y-144912517D01*
X140263117Y-144809599D01*
X140253705Y-144805369D01*
X140052959Y-144734280D01*
X140042988Y-144731646D01*
X139971837Y-144718972D01*
X139958540Y-144720432D01*
X139954000Y-144734989D01*
X139954000Y-145777885D01*
X139446000Y-145777885D01*
X139446000Y-144733102D01*
X139442082Y-144719758D01*
X139427806Y-144717771D01*
X139389324Y-144723660D01*
X139379288Y-144726051D01*
X139176868Y-144792212D01*
X139167359Y-144796209D01*
X138978463Y-144894542D01*
X138969738Y-144900036D01*
X138799433Y-145027905D01*
X138791726Y-145034748D01*
X138644590Y-145188717D01*
X138638104Y-145196727D01*
X138533193Y-145350521D01*
X138478282Y-145395524D01*
X138407757Y-145403695D01*
X138344010Y-145372441D01*
X138323313Y-145347957D01*
X138242427Y-145222926D01*
X138236136Y-145214757D01*
X138092806Y-145057240D01*
X138085273Y-145050215D01*
X137918139Y-144918222D01*
X137909552Y-144912517D01*
X137723117Y-144809599D01*
X137713705Y-144805369D01*
X137512959Y-144734280D01*
X137502988Y-144731646D01*
X137431837Y-144718972D01*
X137418540Y-144720432D01*
X137414000Y-144734989D01*
X137414000Y-145777885D01*
X136906000Y-145777885D01*
X136906000Y-144733102D01*
X136902082Y-144719758D01*
X136887806Y-144717771D01*
X136849324Y-144723660D01*
X136839288Y-144726051D01*
X136636868Y-144792212D01*
X136627359Y-144796209D01*
X136438463Y-144894542D01*
X136429738Y-144900036D01*
X136259433Y-145027905D01*
X136251726Y-145034748D01*
X136174478Y-145115584D01*
X136112954Y-145151014D01*
X136042042Y-145147557D01*
X135984255Y-145106311D01*
X135965402Y-145072763D01*
X135923767Y-144961703D01*
X135920615Y-144953295D01*
X135833261Y-144836739D01*
X135716705Y-144749385D01*
X135580316Y-144698255D01*
X135518134Y-144691500D01*
X134598503Y-144691500D01*
X134530382Y-144671498D01*
X134509408Y-144654595D01*
X133025405Y-143170592D01*
X132991379Y-143108280D01*
X132988500Y-143081497D01*
X132988500Y-141769690D01*
X137437037Y-141769690D01*
X137464025Y-141992715D01*
X137530082Y-142207435D01*
X137532652Y-142212415D01*
X137532654Y-142212419D01*
X137597852Y-142338738D01*
X137633118Y-142407064D01*
X137769877Y-142585292D01*
X137936036Y-142736485D01*
X137940783Y-142739463D01*
X137940786Y-142739465D01*
X138069229Y-142820036D01*
X138126344Y-142855864D01*
X138334783Y-142939656D01*
X138554767Y-142985213D01*
X138559378Y-142985479D01*
X138559379Y-142985479D01*
X138609952Y-142988395D01*
X138609956Y-142988395D01*
X138611775Y-142988500D01*
X140756999Y-142988500D01*
X140759786Y-142988251D01*
X140759792Y-142988251D01*
X140829929Y-142981991D01*
X140923762Y-142973617D01*
X140929176Y-142972136D01*
X140929181Y-142972135D01*
X141056912Y-142937191D01*
X141140451Y-142914337D01*
X141145509Y-142911925D01*
X141145513Y-142911923D01*
X141263042Y-142855864D01*
X141343218Y-142817622D01*
X141525654Y-142686529D01*
X141681992Y-142525201D01*
X141807290Y-142338738D01*
X141897588Y-142133033D01*
X141950032Y-141914589D01*
X141962963Y-141690310D01*
X141935975Y-141467285D01*
X141869918Y-141252565D01*
X141858033Y-141229537D01*
X141769454Y-141057919D01*
X141769454Y-141057918D01*
X141766882Y-141052936D01*
X141630123Y-140874708D01*
X141463964Y-140723515D01*
X141459217Y-140720537D01*
X141459214Y-140720535D01*
X141278405Y-140607115D01*
X141273656Y-140604136D01*
X141065217Y-140520344D01*
X140845233Y-140474787D01*
X140840622Y-140474521D01*
X140840621Y-140474521D01*
X140790048Y-140471605D01*
X140790044Y-140471605D01*
X140788225Y-140471500D01*
X138643001Y-140471500D01*
X138640214Y-140471749D01*
X138640208Y-140471749D01*
X138589609Y-140476265D01*
X138476238Y-140486383D01*
X138470824Y-140487864D01*
X138470819Y-140487865D01*
X138356609Y-140519110D01*
X138259549Y-140545663D01*
X138254491Y-140548075D01*
X138254487Y-140548077D01*
X138158165Y-140594021D01*
X138056782Y-140642378D01*
X137874346Y-140773471D01*
X137870439Y-140777503D01*
X137786133Y-140864500D01*
X137718008Y-140934799D01*
X137592710Y-141121262D01*
X137502412Y-141326967D01*
X137449968Y-141545411D01*
X137437037Y-141769690D01*
X132988500Y-141769690D01*
X132988500Y-139838456D01*
X133492000Y-139838456D01*
X133492202Y-139843488D01*
X133506150Y-140016843D01*
X133507762Y-140026796D01*
X133563233Y-140252633D01*
X133566416Y-140262203D01*
X133657280Y-140476265D01*
X133661955Y-140485207D01*
X133785874Y-140681987D01*
X133791914Y-140690060D01*
X133945703Y-140864500D01*
X133952956Y-140871504D01*
X134132654Y-141019110D01*
X134140936Y-141024866D01*
X134341919Y-141141841D01*
X134351024Y-141146203D01*
X134568115Y-141229537D01*
X134577804Y-141232388D01*
X134728264Y-141263821D01*
X134742325Y-141262698D01*
X134746000Y-141252590D01*
X134746000Y-141250590D01*
X135254000Y-141250590D01*
X135258136Y-141264676D01*
X135271114Y-141266725D01*
X135288830Y-141264675D01*
X135298727Y-141262715D01*
X135522494Y-141199396D01*
X135531938Y-141195884D01*
X135742705Y-141097601D01*
X135751471Y-141092622D01*
X135943802Y-140961913D01*
X135951677Y-140955581D01*
X136120626Y-140795814D01*
X136127387Y-140788305D01*
X136268625Y-140603574D01*
X136274089Y-140595095D01*
X136383978Y-140390153D01*
X136388020Y-140380901D01*
X136463727Y-140161029D01*
X136466236Y-140151257D01*
X136506004Y-139921029D01*
X136506859Y-139913157D01*
X136507936Y-139889449D01*
X136508000Y-139886616D01*
X136508000Y-139338456D01*
X142892000Y-139338456D01*
X142892202Y-139343488D01*
X142906150Y-139516843D01*
X142907762Y-139526796D01*
X142963233Y-139752633D01*
X142966416Y-139762203D01*
X143057280Y-139976265D01*
X143061955Y-139985207D01*
X143185874Y-140181987D01*
X143191914Y-140190060D01*
X143345703Y-140364500D01*
X143352956Y-140371504D01*
X143532654Y-140519110D01*
X143540936Y-140524866D01*
X143741919Y-140641841D01*
X143751024Y-140646203D01*
X143968115Y-140729537D01*
X143977804Y-140732388D01*
X144128264Y-140763821D01*
X144142325Y-140762698D01*
X144146000Y-140752590D01*
X144146000Y-140750590D01*
X144654000Y-140750590D01*
X144658136Y-140764676D01*
X144671114Y-140766725D01*
X144688830Y-140764675D01*
X144698727Y-140762715D01*
X144922494Y-140699396D01*
X144931938Y-140695884D01*
X145142705Y-140597601D01*
X145151471Y-140592622D01*
X145343802Y-140461913D01*
X145351677Y-140455581D01*
X145520626Y-140295814D01*
X145527387Y-140288305D01*
X145668625Y-140103574D01*
X145674089Y-140095095D01*
X145783978Y-139890153D01*
X145788020Y-139880901D01*
X145863727Y-139661029D01*
X145866236Y-139651257D01*
X145906004Y-139421029D01*
X145906859Y-139413157D01*
X145907936Y-139389449D01*
X145908000Y-139386616D01*
X145908000Y-139302115D01*
X145903525Y-139286876D01*
X145902135Y-139285671D01*
X145894452Y-139284000D01*
X144672115Y-139284000D01*
X144656876Y-139288475D01*
X144655671Y-139289865D01*
X144654000Y-139297548D01*
X144654000Y-140750590D01*
X144146000Y-140750590D01*
X144146000Y-139302115D01*
X144141525Y-139286876D01*
X144140135Y-139285671D01*
X144132452Y-139284000D01*
X142910115Y-139284000D01*
X142894876Y-139288475D01*
X142893671Y-139289865D01*
X142892000Y-139297548D01*
X142892000Y-139338456D01*
X136508000Y-139338456D01*
X136508000Y-139302115D01*
X136503525Y-139286876D01*
X136502135Y-139285671D01*
X136494452Y-139284000D01*
X135272115Y-139284000D01*
X135256876Y-139288475D01*
X135255671Y-139289865D01*
X135254000Y-139297548D01*
X135254000Y-141250590D01*
X134746000Y-141250590D01*
X134746000Y-139302115D01*
X134741525Y-139286876D01*
X134740135Y-139285671D01*
X134732452Y-139284000D01*
X133510115Y-139284000D01*
X133494876Y-139288475D01*
X133493671Y-139289865D01*
X133492000Y-139297548D01*
X133492000Y-139838456D01*
X132988500Y-139838456D01*
X132988500Y-138757885D01*
X133492000Y-138757885D01*
X133496475Y-138773124D01*
X133497865Y-138774329D01*
X133505548Y-138776000D01*
X134727885Y-138776000D01*
X134743124Y-138771525D01*
X134744329Y-138770135D01*
X134746000Y-138762452D01*
X134746000Y-138757885D01*
X135254000Y-138757885D01*
X135258475Y-138773124D01*
X135259865Y-138774329D01*
X135267548Y-138776000D01*
X136489885Y-138776000D01*
X136505124Y-138771525D01*
X136506329Y-138770135D01*
X136508000Y-138762452D01*
X136508000Y-138757885D01*
X142892000Y-138757885D01*
X142896475Y-138773124D01*
X142897865Y-138774329D01*
X142905548Y-138776000D01*
X144127885Y-138776000D01*
X144143124Y-138771525D01*
X144144329Y-138770135D01*
X144146000Y-138762452D01*
X144146000Y-137309410D01*
X144141864Y-137295324D01*
X144128886Y-137293275D01*
X144111170Y-137295325D01*
X144101273Y-137297285D01*
X143877506Y-137360604D01*
X143868062Y-137364116D01*
X143657295Y-137462399D01*
X143648529Y-137467378D01*
X143456198Y-137598087D01*
X143448323Y-137604419D01*
X143279374Y-137764186D01*
X143272613Y-137771695D01*
X143131375Y-137956426D01*
X143125911Y-137964905D01*
X143016022Y-138169847D01*
X143011980Y-138179099D01*
X142936273Y-138398971D01*
X142933764Y-138408743D01*
X142893996Y-138638971D01*
X142893141Y-138646843D01*
X142892064Y-138670551D01*
X142892000Y-138673384D01*
X142892000Y-138757885D01*
X136508000Y-138757885D01*
X136508000Y-138221544D01*
X136507798Y-138216512D01*
X136493850Y-138043157D01*
X136492238Y-138033204D01*
X136436767Y-137807367D01*
X136433584Y-137797797D01*
X136342720Y-137583735D01*
X136338045Y-137574793D01*
X136214126Y-137378013D01*
X136208086Y-137369940D01*
X136054297Y-137195500D01*
X136047044Y-137188496D01*
X135867346Y-137040890D01*
X135859064Y-137035134D01*
X135658081Y-136918159D01*
X135648976Y-136913797D01*
X135431885Y-136830463D01*
X135422196Y-136827612D01*
X135271736Y-136796179D01*
X135257675Y-136797302D01*
X135254000Y-136807410D01*
X135254000Y-138757885D01*
X134746000Y-138757885D01*
X134746000Y-136809410D01*
X134741864Y-136795324D01*
X134728886Y-136793275D01*
X134711170Y-136795325D01*
X134701273Y-136797285D01*
X134477506Y-136860604D01*
X134468062Y-136864116D01*
X134257295Y-136962399D01*
X134248529Y-136967378D01*
X134056198Y-137098087D01*
X134048323Y-137104419D01*
X133879374Y-137264186D01*
X133872613Y-137271695D01*
X133731375Y-137456426D01*
X133725911Y-137464905D01*
X133616022Y-137669847D01*
X133611980Y-137679099D01*
X133536273Y-137898971D01*
X133533764Y-137908743D01*
X133493996Y-138138971D01*
X133493141Y-138146843D01*
X133492064Y-138170551D01*
X133492000Y-138173384D01*
X133492000Y-138757885D01*
X132988500Y-138757885D01*
X132988500Y-133669690D01*
X137437037Y-133669690D01*
X137464025Y-133892715D01*
X137530082Y-134107435D01*
X137532652Y-134112415D01*
X137532654Y-134112419D01*
X137589508Y-134222571D01*
X137633118Y-134307064D01*
X137769877Y-134485292D01*
X137936036Y-134636485D01*
X137940783Y-134639463D01*
X137940786Y-134639465D01*
X138069229Y-134720036D01*
X138126344Y-134755864D01*
X138334783Y-134839656D01*
X138554767Y-134885213D01*
X138559378Y-134885479D01*
X138559379Y-134885479D01*
X138609952Y-134888395D01*
X138609956Y-134888395D01*
X138611775Y-134888500D01*
X140756999Y-134888500D01*
X140759786Y-134888251D01*
X140759792Y-134888251D01*
X140829929Y-134881991D01*
X140923762Y-134873617D01*
X140929176Y-134872136D01*
X140929181Y-134872135D01*
X141056912Y-134837191D01*
X141140451Y-134814337D01*
X141145509Y-134811925D01*
X141145513Y-134811923D01*
X141263042Y-134755864D01*
X141343218Y-134717622D01*
X141525654Y-134586529D01*
X141680428Y-134426815D01*
X141742198Y-134391815D01*
X141770912Y-134388500D01*
X141892930Y-134388500D01*
X141911880Y-134389933D01*
X141926115Y-134392099D01*
X141926119Y-134392099D01*
X141933349Y-134393199D01*
X141940641Y-134392606D01*
X141940644Y-134392606D01*
X141986018Y-134388915D01*
X141996233Y-134388500D01*
X142004293Y-134388500D01*
X142017583Y-134386951D01*
X142032507Y-134385211D01*
X142036882Y-134384778D01*
X142102339Y-134379454D01*
X142102342Y-134379453D01*
X142109637Y-134378860D01*
X142116601Y-134376604D01*
X142122560Y-134375413D01*
X142128415Y-134374029D01*
X142135681Y-134373182D01*
X142204327Y-134348265D01*
X142208455Y-134346848D01*
X142270936Y-134326607D01*
X142270938Y-134326606D01*
X142277899Y-134324351D01*
X142284154Y-134320555D01*
X142289628Y-134318049D01*
X142295058Y-134315330D01*
X142301937Y-134312833D01*
X142310736Y-134307064D01*
X142362976Y-134272814D01*
X142366680Y-134270477D01*
X142429107Y-134232595D01*
X142437484Y-134225197D01*
X142437508Y-134225224D01*
X142440500Y-134222571D01*
X142443733Y-134219868D01*
X142449852Y-134215856D01*
X142503128Y-134159617D01*
X142505506Y-134157175D01*
X144517010Y-132145671D01*
X144579322Y-132111645D01*
X144617087Y-132109245D01*
X144774525Y-132123019D01*
X144780000Y-132123498D01*
X145008087Y-132103543D01*
X145013400Y-132102119D01*
X145013402Y-132102119D01*
X145223933Y-132045707D01*
X145223935Y-132045706D01*
X145229243Y-132044284D01*
X145234225Y-132041961D01*
X145431762Y-131949849D01*
X145431767Y-131949846D01*
X145436749Y-131947523D01*
X145541611Y-131874098D01*
X145619789Y-131819357D01*
X145619792Y-131819355D01*
X145624300Y-131816198D01*
X145786198Y-131654300D01*
X145917523Y-131466749D01*
X145919846Y-131461767D01*
X145919849Y-131461762D01*
X146011961Y-131264225D01*
X146011961Y-131264224D01*
X146014284Y-131259243D01*
X146073543Y-131038087D01*
X146093498Y-130810000D01*
X146073543Y-130581913D01*
X146014284Y-130360757D01*
X146011961Y-130355775D01*
X145919849Y-130158238D01*
X145919846Y-130158233D01*
X145917523Y-130153251D01*
X145786198Y-129965700D01*
X145624300Y-129803802D01*
X145619792Y-129800645D01*
X145619789Y-129800643D01*
X145449896Y-129681683D01*
X145436749Y-129672477D01*
X145431767Y-129670154D01*
X145431762Y-129670151D01*
X145234225Y-129578039D01*
X145234224Y-129578039D01*
X145229243Y-129575716D01*
X145223935Y-129574294D01*
X145223933Y-129574293D01*
X145013402Y-129517881D01*
X145013400Y-129517881D01*
X145008087Y-129516457D01*
X144780000Y-129496502D01*
X144551913Y-129516457D01*
X144546600Y-129517881D01*
X144546598Y-129517881D01*
X144336067Y-129574293D01*
X144336065Y-129574294D01*
X144330757Y-129575716D01*
X144325776Y-129578039D01*
X144325775Y-129578039D01*
X144128238Y-129670151D01*
X144128233Y-129670154D01*
X144123251Y-129672477D01*
X144110104Y-129681683D01*
X143940211Y-129800643D01*
X143940208Y-129800645D01*
X143935700Y-129803802D01*
X143773802Y-129965700D01*
X143642477Y-130153251D01*
X143640154Y-130158233D01*
X143640151Y-130158238D01*
X143548039Y-130355775D01*
X143545716Y-130360757D01*
X143486457Y-130581913D01*
X143466502Y-130810000D01*
X143466981Y-130815475D01*
X143480755Y-130972913D01*
X143466766Y-131042518D01*
X143444329Y-131072990D01*
X141774013Y-132743306D01*
X141711701Y-132777332D01*
X141640886Y-132772267D01*
X141600119Y-132747405D01*
X141468116Y-132627293D01*
X141463964Y-132623515D01*
X141459217Y-132620537D01*
X141459214Y-132620535D01*
X141278405Y-132507115D01*
X141273656Y-132504136D01*
X141065217Y-132420344D01*
X140845233Y-132374787D01*
X140840622Y-132374521D01*
X140840621Y-132374521D01*
X140790048Y-132371605D01*
X140790044Y-132371605D01*
X140788225Y-132371500D01*
X138643001Y-132371500D01*
X138640214Y-132371749D01*
X138640208Y-132371749D01*
X138570071Y-132378009D01*
X138476238Y-132386383D01*
X138470824Y-132387864D01*
X138470819Y-132387865D01*
X138356262Y-132419205D01*
X138259549Y-132445663D01*
X138254491Y-132448075D01*
X138254487Y-132448077D01*
X138158166Y-132494020D01*
X138056782Y-132542378D01*
X137874346Y-132673471D01*
X137870439Y-132677503D01*
X137773698Y-132777332D01*
X137718008Y-132834799D01*
X137592710Y-133021262D01*
X137502412Y-133226967D01*
X137449968Y-133445411D01*
X137437037Y-133669690D01*
X132988500Y-133669690D01*
X132988500Y-129634827D01*
X133008502Y-129566706D01*
X133062158Y-129520213D01*
X133132432Y-129510109D01*
X133136334Y-129510790D01*
X133141180Y-129512290D01*
X133286825Y-129527598D01*
X133336622Y-129532832D01*
X133336623Y-129532832D01*
X133342750Y-129533476D01*
X133426014Y-129525898D01*
X133538457Y-129515665D01*
X133538460Y-129515664D01*
X133544596Y-129515106D01*
X133550502Y-129513368D01*
X133550506Y-129513367D01*
X133733121Y-129459620D01*
X133733123Y-129459619D01*
X133736111Y-129458740D01*
X133739029Y-129457881D01*
X133739282Y-129458740D01*
X133804662Y-129452286D01*
X133841406Y-129465452D01*
X133848295Y-129470615D01*
X133856696Y-129473764D01*
X133856699Y-129473766D01*
X133883975Y-129483991D01*
X133984684Y-129521745D01*
X134046866Y-129528500D01*
X135193134Y-129528500D01*
X135255316Y-129521745D01*
X135391705Y-129470615D01*
X135508261Y-129383261D01*
X135595615Y-129266705D01*
X135612550Y-129221531D01*
X135643972Y-129137714D01*
X135643973Y-129137711D01*
X135646745Y-129130316D01*
X135647372Y-129124547D01*
X135682126Y-129063709D01*
X135745081Y-129030887D01*
X135769493Y-129028500D01*
X137172230Y-129028500D01*
X137240351Y-129048502D01*
X137279662Y-129088665D01*
X137286798Y-129100309D01*
X137286801Y-129100314D01*
X137289501Y-129104719D01*
X137441147Y-129279784D01*
X137619349Y-129427730D01*
X137819322Y-129544584D01*
X138035694Y-129627209D01*
X138040760Y-129628240D01*
X138040761Y-129628240D01*
X138093846Y-129639040D01*
X138262656Y-129673385D01*
X138392089Y-129678131D01*
X138488949Y-129681683D01*
X138488953Y-129681683D01*
X138494113Y-129681872D01*
X138499233Y-129681216D01*
X138499235Y-129681216D01*
X138585608Y-129670151D01*
X138723847Y-129652442D01*
X138728795Y-129650957D01*
X138728802Y-129650956D01*
X138940747Y-129587369D01*
X138945690Y-129585886D01*
X138950565Y-129583498D01*
X139149049Y-129486262D01*
X139149052Y-129486260D01*
X139153684Y-129483991D01*
X139342243Y-129349494D01*
X139387309Y-129304585D01*
X139449681Y-129270669D01*
X139520487Y-129275857D01*
X139577249Y-129318503D01*
X139594231Y-129349607D01*
X139608865Y-129388642D01*
X139619385Y-129416705D01*
X139706739Y-129533261D01*
X139823295Y-129620615D01*
X139959684Y-129671745D01*
X140021866Y-129678500D01*
X141918134Y-129678500D01*
X141980316Y-129671745D01*
X142116705Y-129620615D01*
X142233261Y-129533261D01*
X142320615Y-129416705D01*
X142371745Y-129280316D01*
X142378500Y-129218134D01*
X142378500Y-129154500D01*
X142398502Y-129086379D01*
X142452158Y-129039886D01*
X142504500Y-129028500D01*
X146188133Y-129028500D01*
X146256254Y-129048502D01*
X146291345Y-129082228D01*
X146313802Y-129114300D01*
X146475700Y-129276198D01*
X146480208Y-129279355D01*
X146480211Y-129279357D01*
X146558389Y-129334098D01*
X146663251Y-129407523D01*
X146668233Y-129409846D01*
X146668238Y-129409849D01*
X146865775Y-129501961D01*
X146870757Y-129504284D01*
X146876065Y-129505706D01*
X146876067Y-129505707D01*
X147086598Y-129562119D01*
X147086600Y-129562119D01*
X147091913Y-129563543D01*
X147320000Y-129583498D01*
X147548087Y-129563543D01*
X147553400Y-129562119D01*
X147553402Y-129562119D01*
X147763933Y-129505707D01*
X147763935Y-129505706D01*
X147769243Y-129504284D01*
X147774225Y-129501961D01*
X147971762Y-129409849D01*
X147971767Y-129409846D01*
X147976749Y-129407523D01*
X148081611Y-129334098D01*
X148159789Y-129279357D01*
X148159792Y-129279355D01*
X148164300Y-129276198D01*
X148326198Y-129114300D01*
X148346060Y-129085935D01*
X148454366Y-128931257D01*
X148457523Y-128926749D01*
X148459846Y-128921767D01*
X148459849Y-128921762D01*
X148503390Y-128828387D01*
X148550307Y-128775102D01*
X148618585Y-128755641D01*
X148686545Y-128776183D01*
G37*
%TD.AperFunction*%
%TD*%
M02*
