M48
; DRILL file {KiCad (6.0.5)} date Wed Feb 15 12:36:24 2023
; FORMAT={-:-/ absolute / inch / decimal}
; #@! TF.CreationDate,2023-02-15T12:36:24-05:00
; #@! TF.GenerationSoftware,Kicad,Pcbnew,(6.0.5)
; #@! TF.FileFunction,Plated,1,2,PTH
FMAT,2
INCH
; #@! TA.AperFunction,Plated,PTH,ViaDrill
T1C0.0157
; #@! TA.AperFunction,Plated,PTH,ComponentDrill
T2C0.0197
; #@! TA.AperFunction,Plated,PTH,ComponentDrill
T3C0.0295
; #@! TA.AperFunction,Plated,PTH,ComponentDrill
T4C0.0315
; #@! TA.AperFunction,Plated,PTH,ComponentDrill
T5C0.0354
; #@! TA.AperFunction,Plated,PTH,ComponentDrill
T6C0.0394
; #@! TA.AperFunction,Plated,PTH,ComponentDrill
T7C0.0492
; #@! TA.AperFunction,Plated,PTH,ComponentDrill
T8C0.0787
%
G90
G05
T1
X5.05Y-1.3
X5.05Y-1.75
X5.05Y-2.2
X5.05Y-2.65
X5.05Y-2.9
X5.05Y-3.125
X5.05Y-3.425
X5.05Y-3.675
X5.05Y-3.975
X5.05Y-4.225
X5.05Y-4.5
X5.05Y-4.675
X5.05Y-4.8
X5.05Y-5.125
X5.05Y-5.75
X5.075Y-1.975
X5.125Y-5.475
X5.15Y-3.025
X5.15Y-3.99
X5.15Y-4.225
X5.15Y-4.5
X5.15Y-4.7
X5.175Y-2.45
X5.175Y-4.8
X5.2Y-3.125
X5.2Y-3.35
X5.2Y-3.475
X5.2Y-3.675
X5.2Y-3.875
X5.225Y-1.4
X5.225Y-2.225
X5.225Y-2.725
X5.25Y-1.825
X5.25Y-1.95
X5.25Y-4.25
X5.25Y-4.55
X5.25Y-5.125
X5.275Y-4.125
X5.3Y-2.85
X5.3Y-4.925
X5.325Y-1.725
X5.325Y-3.825
X5.325Y-4.0
X5.325Y-4.8
X5.325Y-5.275
X5.33Y-4.7
X5.35Y-2.05
X5.35Y-3.25
X5.35Y-3.575
X5.375Y-4.35
X5.375Y-4.55
X5.375Y-5.0
X5.4Y-2.675
X5.4Y-5.175
X5.425Y-4.1
X5.45Y-2.475
X5.45Y-4.85
X5.5Y-1.3
X5.5Y-1.55
X5.5Y-1.675
X5.5Y-2.925
X5.5Y-3.075
X5.5Y-3.525
X5.5Y-4.025
X5.5Y-5.35
X5.525Y-2.125
X5.55Y-3.625
X5.575Y-3.775
X5.59Y-4.54
X5.6Y-2.65
X5.6Y-2.925
X5.6Y-3.075
X5.6Y-3.3
X5.6Y-3.5
X5.6Y-3.975
X5.6Y-4.15
X5.6Y-4.36
X5.625Y-2.35
X5.625Y-4.7
X5.625Y-4.8
X5.625Y-5.0
X5.625Y-5.125
X5.675Y-1.825
X5.675Y-2.725
X5.675Y-2.85
X5.675Y-5.275
X5.7Y-3.7
X5.7Y-4.025
X5.7Y-4.325
X5.7Y-4.475
X5.7Y-4.875
X5.75Y-1.95
X5.75Y-2.375
X5.775Y-1.425
X5.8Y-1.825
X5.8Y-3.075
X5.8Y-3.275
X5.8Y-3.525
X5.8Y-3.85
X5.8Y-4.225
X5.8Y-4.7
X5.8Y-5.75
X5.825Y-4.35
X5.825Y-4.525
X5.825Y-4.825
X5.85Y-2.05
X5.85Y-2.3
X5.85Y-2.55
X5.85Y-2.825
X5.875Y-5.475
X5.9Y-2.925
X5.9Y-3.275
X5.9Y-3.525
X5.9Y-3.85
X5.925Y-1.8
X5.925Y-4.225
X5.95Y-1.3
X5.95Y-1.95
X5.95Y-2.05
X5.95Y-2.425
X5.95Y-2.8
X5.95Y-3.1
X5.95Y-3.4
X5.95Y-3.675
X5.95Y-4.025
X5.95Y-4.45
X5.95Y-4.675
X5.95Y-5.0
X5.95Y-5.375
X5.95Y-5.75
T3
X5.1Y-4.7502
X5.1Y-5.0502
X5.2Y-5.05
X5.25Y-5.05
X5.3Y-5.05
X5.9Y-4.75
X5.9Y-5.05
T4
X5.15Y-1.4953
X5.15Y-1.8953
X5.25Y-4.45
X5.25Y-4.85
X5.5Y-2.0
X5.5Y-3.8
X5.5Y-3.8984
X5.7Y-4.75
X5.7Y-5.15
X5.8Y-5.05
X5.8Y-5.45
X5.9Y-1.4953
X5.9Y-1.8953
X5.9Y-2.0
T5
X5.45Y-5.05
X5.55Y-5.05
T6
X5.251Y-3.0
X5.3Y-5.75
X5.351Y-3.0
X5.4Y-5.75
X5.4016Y-1.8953
X5.4016Y-2.7953
X5.4016Y-3.6953
X5.451Y-3.0
X5.5Y-1.8953
X5.5Y-2.7953
X5.5Y-3.6953
X5.5Y-5.75
X5.551Y-3.0
X5.5984Y-1.8953
X5.5984Y-2.7953
X5.5984Y-3.6953
X5.6Y-5.75
X5.651Y-3.0
X5.7Y-5.75
X5.751Y-3.0
T8
X5.313Y-1.6
X5.313Y-2.5
X5.313Y-3.4
X5.687Y-1.6
X5.687Y-2.5
X5.687Y-3.4
T2
G00X5.4606Y-5.261
M15
G01X5.5394Y-5.261
M16
G05
G00X5.4606Y-5.5799
M15
G01X5.5394Y-5.5799
M16
G05
T6
G00X5.315Y-5.4441
M15
G01X5.315Y-5.5031
M16
G05
G00X5.685Y-5.4638
M15
G01X5.685Y-5.4835
M16
G05
T7
G00X5.5344Y-4.263
M15
G01X5.4656Y-4.263
M16
G05
G00X5.5344Y-4.45
M15
G01X5.4656Y-4.45
M16
G05
G00X5.5344Y-4.637
M15
G01X5.4656Y-4.637
M16
G05
T0
M30
